ply
format ascii 1.0
element vertex 118
property float x
property float y
property float z
element face 232
property list uchar int vertex_indices
end_header
0.12999600172042847 0.4760169982910156 0.02500000037252903
0.10614500194787979 0.07609590142965317 0.06334629654884338
0.15910400450229645 0.3011089861392975 0.28414401412010193
0.09251400083303452 0.09987930208444595 0.07172740250825882
0.12553299963474274 0.10574699938297272 0.049578700214624405
0.14926500618457794 0.05099029839038849 0.06379900127649307
0.15801499783992767 0.05722400173544884 0.05635739862918854
0.19981899857521057 0.05039630085229874 0.077115498483181
0.20377400517463684 0.04142250120639801 0.0918843001127243
0.1591300070285797 0.025808600708842278 0.10494399815797806
0.1769080013036728 0.20512700080871582 0.06939569860696793
0.16583000123500824 0.10973100364208221 0.05873439833521843
0.1251019984483719 0.20334100723266602 0.0534777007997036
0.058426398783922195 0.19832099974155426 0.11150799691677094
0.08362189680337906 0.09768860042095184 0.12118300050497055
0.09409850090742111 0.0811770036816597 0.16354599595069885
0.07267110049724579 0.19635799527168274 0.1824979931116104
0.11333899945020676 0.12234699726104736 0.2432129979133606
0.1110289990901947 0.19732999801635742 0.24497899413108826
0.21151100099086761 0.12723200023174286 0.24017299711704254
0.24324099719524384 0.09061720222234726 0.1886499971151352
0.24621400237083435 0.20448899269104004 0.17338000237941742
0.2113180011510849 0.20040500164031982 0.24923300743103027
0.2220049947500229 0.20656999945640564 0.07921259850263596
0.2524009943008423 0.2062080055475235 0.12474299967288971
0.23918500542640686 0.10154499858617783 0.11124800145626068
0.2151940017938614 0.11035600304603577 0.07150609791278839
0.05180729925632477 0.30293700098991394 0.11433099955320358
0.058601900935173035 0.29845601320266724 0.20606200397014618
0.04805679991841316 0.4653410017490387 0.2230139970779419
0.037178799510002136 0.46910399198532104 0.10428400337696075
0.07821200042963028 0.3054479956626892 0.07017000019550323
0.07874959707260132 0.47286900877952576 0.04984389990568161
0.11955499649047852 0.3077070116996765 0.05394899845123291
0.07810399681329727 0.2004610002040863 0.07549860328435898
0.1903820037841797 0.3102790117263794 0.07291539758443832
0.21594999730587006 0.47920799255371094 0.04127249866724014
0.2406969964504242 0.4798769950866699 0.052948400378227234
0.2583119869232178 0.665336012840271 0.334075003862381
0.31616100668907166 0.675819993019104 0.23926599323749542
0.3312219977378845 0.6850029826164246 0.17072199285030365
0.32065001130104065 0.7126200199127197 0.10903199762105942
0.17190000414848328 0.6575559973716736 0.36086800694465637
0.17537499964237213 0.46733999252319336 0.3248459994792938
0.2400449961423874 0.47101399302482605 0.3021549880504608
0.02911360003054142 0.7087669968605042 0.13570599257946014
0.08466020226478577 0.7418739795684814 0.03986600041389465
0.287663996219635 0.7200499773025513 0.06340129673480988
0.2786119878292084 0.48041099309921265 0.08446169644594193
0.23164600133895874 0.7343320250511169 0.02964800037443638
0.2976050078868866 0.4790630042552948 0.1459999978542328
0.09422670304775238 0.6616489887237549 0.335985004901886
0.08815129846334457 0.46418601274490356 0.3057650029659271
0.05091959983110428 0.6750339865684509 0.24301600456237793
0.23672400414943695 0.31178098917007446 0.09046120196580887
0.20808500051498413 0.3038569986820221 0.2639389932155609
0.25297901034355164 0.3083530068397522 0.1974180042743683
0.2890779972076416 0.4764150083065033 0.21074700355529785
0.09834650158882141 0.2987399995326996 0.26826098561286926
0.25639501214027405 0.3103120028972626 0.14196500182151794
0.2151080071926117 0.08014730364084244 0.21246600151062012
0.23278799653053284 0.0722016990184784 0.09900269657373428
0.23933400213718414 0.0694044977426529 0.13183100521564484
0.14252899587154388 0.7308899760246277 0.025600800290703773
0.152878999710083 0.12355700135231018 0.25885599851608276
0.16340500116348267 0.19899800419807434 0.2609789967536926
0.14736799895763397 0.04269050061702728 0.0760950967669487
0.15087099373340607 0.0349217988550663 0.08890309929847717
0.11141300201416016 0.05442279949784279 0.12412499636411667
0.10233499854803085 0.07456140220165253 0.0909281000494957
0.18989400565624237 0.0568339005112648 0.06477770209312439
0.17273099720478058 0.09028220176696777 0.0608254000544548
0.21144999563694 0.09124600142240524 0.0658831000328064
0.1720609962940216 0.02500000037252903 0.1093590036034584
0.1895029991865158 0.031096599996089935 0.104264996945858
0.211544007062912 0.044508498162031174 0.16394099593162537
0.16633500158786774 0.028709199279546738 0.17714500427246094
0.13281899690628052 0.030805200338363647 0.1657010018825531
0.15769700706005096 0.04432620108127594 0.22889399528503418
0.11524000018835068 0.050383199006319046 0.21550500392913818
0.12971000373363495 0.09169159829616547 0.048141900449991226
0.25385499000549316 0.9730179905891418 0.2169869989156723
0.2159319967031479 0.9693300127983093 0.27374500036239624
0.24047599732875824 0.9090859889984131 0.3241569995880127
0.29471999406814575 0.9144459962844849 0.24059799313545227
0.23315000534057617 0.9749630093574524 0.13639800250530243
0.19712500274181366 0.9743059873580933 0.11004699766635895
0.2858169972896576 0.9198600053787231 0.09787110239267349
0.21585200726985931 0.9173790216445923 0.05964960157871246
0.08209589868783951 0.9676309823989868 0.1550700068473816
0.09565020352602005 0.9650970101356506 0.24344399571418762
0.03308289870619774 0.9058769941329956 0.15647700428962708
0.057052601128816605 0.9025729894638062 0.27955499291419983
0.09196580201387405 0.9026190042495728 0.3216260075569153
0.051271598786115646 0.7990819811820984 0.2890860140323639
0.09027480334043503 0.771481990814209 0.3323270082473755
0.31615298986434937 0.9179250001907349 0.16914600133895874
0.32019901275634766 0.7939320206642151 0.2474610060453415
0.3429419994354248 0.807964026927948 0.17271800339221954
0.1335189938545227 0.9138810038566589 0.05578409880399704
0.22239699959754944 0.8157749772071838 0.031273700296878815
0.1332949995994568 0.8119840025901794 0.027216000482439995
0.02500000037252903 0.8025680184364319 0.1580120027065277
0.03293890133500099 0.7503880262374878 0.14134100079536438
0.2654019892215729 0.7819830179214478 0.3350659906864166
0.3341279923915863 0.8161069750785828 0.11820899695158005
0.07604359835386276 0.8089690208435059 0.040984999388456345
0.29585000872612 0.817579984664917 0.07194840162992477
0.10526999831199646 0.9700279831886292 0.11631900072097778
0.08061879873275757 0.9110810160636902 0.06888099759817123
0.2494029998779297 0.9750000238418579 0.15558600425720215
0.3066590130329132 0.9180439710617065 0.12285199761390686
0.15965799987316132 0.9045209884643555 0.3522289991378784
0.1653439998626709 0.9664199948310852 0.292807012796402
0.11936499923467636 0.9651269912719727 0.27202001214027405
0.2628929913043976 0.9746789932250977 0.18139800429344177
0.14120200276374817 0.9719300270080566 0.10742300003767014
0.1641709953546524 0.7590529918670654 0.3639790117740631
3 40 50 48
3 40 48 41
3 59 24 23
3 59 23 54
3 42 43 44
3 42 44 38
3 38 44 57
3 38 57 39
3 77 76 78
3 77 78 79
3 8 7 61
3 8 61 62
3 21 24 59
3 21 59 56
3 66 5 6
3 66 6 70
3 66 70 7
3 66 7 8
3 66 8 74
3 66 74 73
3 66 73 9
3 66 9 67
3 7 70 72
3 7 72 61
3 9 73 76
3 9 76 77
3 45 46 32
3 45 32 30
3 16 15 17
3 16 17 18
3 20 19 60
3 34 13 27
3 34 27 31
3 62 61 25
3 62 25 20
3 23 26 11
3 23 11 10
3 19 20 21
3 19 21 22
3 31 32 0
3 31 0 33
3 66 67 68
3 66 68 69
3 6 5 1
3 6 1 80
3 32 46 63
3 32 63 0
3 68 77 79
3 68 79 15
3 50 59 54
3 50 54 48
3 0 63 49
3 0 49 36
3 20 24 21
3 54 23 10
3 54 10 35
3 61 72 26
3 61 26 25
3 15 79 17
3 70 71 72
3 6 80 71
3 43 2 55
3 43 55 44
3 18 58 28
3 18 28 16
3 23 24 25
3 23 25 26
3 71 80 4
3 71 4 11
3 39 57 50
3 39 50 40
3 60 19 64
3 60 64 78
3 65 2 58
3 65 58 18
3 48 54 35
3 48 35 37
3 27 28 29
3 27 29 30
3 67 9 77
3 67 77 68
3 6 71 70
3 31 27 30
3 31 30 32
3 45 30 29
3 45 29 53
3 5 66 69
3 5 69 1
3 69 68 15
3 69 15 14
3 29 28 58
3 29 58 52
3 80 1 3
3 80 3 4
3 57 56 59
3 57 59 50
3 20 25 24
3 33 12 34
3 33 34 31
3 22 21 56
3 22 56 55
3 22 65 64
3 22 64 19
3 53 29 52
3 53 52 51
3 3 13 34
3 73 74 75
3 73 75 76
3 1 69 14
3 1 14 3
3 10 11 4
3 10 4 12
3 13 14 15
3 13 15 16
3 75 62 20
3 75 20 60
3 3 34 12
3 3 12 4
3 35 10 12
3 35 12 33
3 16 28 27
3 16 27 13
3 78 64 17
3 78 17 79
3 3 14 13
3 37 47 41
3 37 41 48
3 44 55 56
3 44 56 57
3 36 49 47
3 36 47 37
3 35 36 37
3 51 52 43
3 51 43 42
3 33 0 36
3 33 36 35
3 76 75 60
3 76 60 78
3 55 2 65
3 55 65 22
3 72 71 11
3 72 11 26
3 74 8 62
3 74 62 75
3 52 58 2
3 52 2 43
3 18 17 64
3 18 64 65
3 81 82 83
3 81 83 84
3 82 85 86
3 86 85 87
3 86 87 88
3 82 89 90
3 90 89 91
3 90 91 92
3 93 92 94
3 93 94 95
3 96 84 97
3 96 97 98
3 99 88 100
3 99 100 101
3 92 91 102
3 92 102 94
3 102 103 94
3 38 39 97
3 38 97 104
3 84 83 104
3 84 104 97
3 40 97 39
3 40 98 97
3 105 98 40
3 105 40 41
3 42 38 104
3 94 103 45
3 103 46 45
3 102 46 103
3 105 41 47
3 101 100 49
3 42 95 51
3 94 45 53
3 53 95 94
3 53 51 95
3 102 106 46
3 91 106 102
3 49 100 107
3 88 107 100
3 49 107 47
3 105 47 107
3 87 105 107
3 88 87 107
3 82 108 89
3 109 99 101
3 108 99 109
3 109 101 106
3 91 109 106
3 89 108 109
3 89 109 91
3 82 110 85
3 111 96 98
3 110 96 111
3 111 98 105
3 87 111 105
3 85 110 111
3 85 111 87
3 112 93 95
3 113 93 112
3 82 112 83
3 82 113 112
3 82 90 114
3 114 90 92
3 82 114 113
3 113 114 93
3 114 92 93
3 115 81 84
3 82 81 115
3 115 84 96
3 110 115 96
3 82 115 110
3 108 116 99
3 82 116 108
3 116 88 99
3 82 86 116
3 116 86 88
3 112 95 117
3 42 117 95
3 83 112 117
3 42 104 117
3 83 117 104
3 101 49 63
3 106 101 63
3 106 63 46
