ply
format ascii 1.0
element vertex 460
property float x
property float y
property float z
element face 888
property list uchar int vertex_indices
end_header
0.15711599588394165 0.02500000037252903 0.15703000128269196
0.05124939978122711 0.02500000037252903 0.15703000128269196
0.03394560143351555 0.04287860170006752 0.15703000128269196
0.03365220129489899 0.0694229006767273 0.15703000128269196
0.15721699595451355 0.02500000037252903 0.15674300491809845
0.05140189826488495 0.02500000037252903 0.17433400452136993
0.033926401287317276 0.04287860170006752 0.18355299532413483
0.0337338000535965 0.0694229006767273 0.18326599895954132
0.15693899989128113 0.02500000037252903 0.15698499977588654
0.06033509969711304 0.02500000037252903 0.2011830061674118
0.05153900012373924 0.04287860170006752 0.20964199304580688
0.042428601533174515 0.0694229006767273 0.20959700644016266
0.15684199333190918 0.02500000037252903 0.1571359932422638
0.07756870239973068 0.02500000037252903 0.22761400043964386
0.060318201780319214 0.04287860170006752 0.23610299825668335
0.0603254996240139 0.0694229006767273 0.23621000349521637
0.15689900517463684 0.02500000037252903 0.1571580022573471
0.09541559964418411 0.02500000037252903 0.24496200680732727
0.08645860105752945 0.04287860170006752 0.25353801250457764
0.08652319759130478 0.0694229006767273 0.2536660134792328
0.15707699954509735 0.02500000037252903 0.15701699256896973
0.11285299807786942 0.02500000037252903 0.2539899945259094
0.11324699968099594 0.04287860170006752 0.2712189853191376
0.11291400343179703 0.0694229006767273 0.27120599150657654
0.15675899386405945 0.02500000037252903 0.1572670042514801
0.13960300385951996 0.02500000037252903 0.2626340091228485
0.13930299878120422 0.04287860170006752 0.2802850008010864
0.1392270028591156 0.0694229006767273 0.2799459993839264
0.15705199539661407 0.02500000037252903 0.15731799602508545
0.15703900158405304 0.02500000037252903 0.2624250054359436
0.15676000714302063 0.04287860170006752 0.2802779972553253
0.15697799623012543 0.0694229006767273 0.27998998761177063
0.15675799548625946 0.02500000037252903 0.1571660041809082
0.18333899974822998 0.02500000037252903 0.2624970078468323
0.19224900007247925 0.04287860170006752 0.2711060047149658
0.19217200577259064 0.0694229006767273 0.2798829972743988
0.15698100626468658 0.02500000037252903 0.15682199597358704
0.20962700247764587 0.02500000037252903 0.25387901067733765
0.21827800571918488 0.04287860170006752 0.2622610032558441
0.21842600405216217 0.0694229006767273 0.2626290023326874
0.15710300207138062 0.02500000037252903 0.15687799453735352
0.2271219938993454 0.02500000037252903 0.23597699403762817
0.24490299820899963 0.04287860170006752 0.24515900015830994
0.24459700286388397 0.0694229006767273 0.2450069934129715
0.15708699822425842 0.02500000037252903 0.1567869931459427
0.24506400525569916 0.02500000037252903 0.21827200055122375
0.26220399141311646 0.04287860170006752 0.21844999492168427
0.262457013130188 0.0694229006767273 0.22742299735546112
0.1569020003080368 0.02500000037252903 0.15715999901294708
0.26254600286483765 0.02500000037252903 0.1920499950647354
0.2714579999446869 0.04287860170006752 0.1919970065355301
0.2801649868488312 0.0694229006767273 0.20076699554920197
0.15710300207138062 0.02500000037252903 0.15688900649547577
0.26223498582839966 0.02500000037252903 0.1660580039024353
0.28001201152801514 0.04287860170006752 0.16607099771499634
0.2797049880027771 0.0694229006767273 0.16593100130558014
0.15710300207138062 0.02500000037252903 0.15717099606990814
0.26223498582839966 0.02500000037252903 0.1480019986629486
0.28001201152801514 0.04287860170006752 0.14798900485038757
0.2797049880027771 0.0694229006767273 0.14812900125980377
0.1569020003080368 0.02500000037252903 0.15690000355243683
0.26254600286483765 0.02500000037252903 0.1220100000500679
0.2714579999446869 0.04287860170006752 0.12206300348043442
0.2801649868488312 0.0694229006767273 0.11329299956560135
0.15708699822425842 0.02500000037252903 0.15727299451828003
0.24506400525569916 0.02500000037252903 0.09578780084848404
0.26220399141311646 0.04287860170006752 0.0956093966960907
0.262457013130188 0.0694229006767273 0.08663690090179443
0.15710300207138062 0.02500000037252903 0.1571819931268692
0.2271219938993454 0.02500000037252903 0.07808250188827515
0.24490299820899963 0.04287860170006752 0.0689006969332695
0.24459700286388397 0.0694229006767273 0.06905270367860794
0.15698100626468658 0.02500000037252903 0.15723800659179688
0.20962700247764587 0.02500000037252903 0.06018109992146492
0.21827800571918488 0.04287860170006752 0.051798898726701736
0.21842600405216217 0.0694229006767273 0.05143100023269653
0.15675799548625946 0.02500000037252903 0.1568939983844757
0.18333899974822998 0.02500000037252903 0.05156330019235611
0.19224900007247925 0.04287860170006752 0.04295390099287033
0.19217200577259064 0.0694229006767273 0.0341775007545948
0.15705199539661407 0.02500000037252903 0.15674200654029846
0.15703900158405304 0.02500000037252903 0.05163529887795448
0.15676000714302063 0.04287860170006752 0.03378169983625412
0.15697799623012543 0.0694229006767273 0.03406960144639015
0.15675899386405945 0.02500000037252903 0.1567929983139038
0.13960300385951996 0.02500000037252903 0.051426198333501816
0.13930299878120422 0.04287860170006752 0.03377490118145943
0.1392270028591156 0.0694229006767273 0.03411389887332916
0.15707699954509735 0.02500000037252903 0.157042995095253
0.11285299807786942 0.02500000037252903 0.06006979942321777
0.11324699968099594 0.04287860170006752 0.042840901762247086
0.11291400343179703 0.0694229006767273 0.04285379871726036
0.15689900517463684 0.02500000037252903 0.1569020003080368
0.09541559964418411 0.02500000037252903 0.069097600877285
0.08645860105752945 0.04287860170006752 0.06052190065383911
0.08652319759130478 0.0694229006767273 0.060394201427698135
0.15684199333190918 0.02500000037252903 0.15692399442195892
0.07756870239973068 0.02500000037252903 0.08644639700651169
0.060318201780319214 0.04287860170006752 0.07795660197734833
0.0603254996240139 0.0694229006767273 0.07785040140151978
0.15693899989128113 0.02500000037252903 0.15707500278949738
0.06033509969711304 0.02500000037252903 0.1128769963979721
0.05153900012373924 0.04287860170006752 0.10441800206899643
0.042428601533174515 0.0694229006767273 0.10446300357580185
0.15721699595451355 0.02500000037252903 0.15731699764728546
0.05140189826488495 0.02500000037252903 0.13972599804401398
0.033926401287317276 0.04287860170006752 0.13050700724124908
0.0337338000535965 0.0694229006767273 0.1307940036058426
0.03365220129489899 0.5087479948997498 0.15703000128269196
0.033664099872112274 0.6229730248451233 0.15703000128269196
0.06019530072808266 0.789991021156311 0.15703000128269196
0.0867260992527008 0.8162379860877991 0.15703000128269196
0.09539029747247696 0.833836019039154 0.15703000128269196
0.11297500133514404 0.8514329791069031 0.15703000128269196
0.11298800259828568 0.8952810168266296 0.15703000128269196
0.11298800259828568 0.9128779768943787 0.15703000128269196
0.0337338000535965 0.5087479948997498 0.18326599895954132
0.0427590012550354 0.6229730248451233 0.18326400220394135
0.06004450097680092 0.789991021156311 0.17461900413036346
0.0865451991558075 0.8162379860877991 0.17461399734020233
0.09538059681653976 0.833836019039154 0.16597099602222443
0.11323799937963486 0.8514329791069031 0.16568100452423096
0.12168800085783005 0.8952810168266296 0.16568000614643097
0.12168800085783005 0.9128779768943787 0.16568000614643097
0.042428601533174515 0.5087479948997498 0.20959700644016266
0.05143459886312485 0.6229730248451233 0.2096869945526123
0.0692363977432251 0.789991021156311 0.20074200630187988
0.09567809849977493 0.8162379860877991 0.19237199425697327
0.1044749990105629 0.833836019039154 0.18333600461483002
0.1128000020980835 0.8514329791069031 0.17483100295066833
0.12180600315332413 0.8952810168266296 0.17434599995613098
0.12180600315332413 0.9128779768943787 0.17434599995613098
0.0603254996240139 0.5087479948997498 0.23621000349521637
0.06895089894533157 0.6229730248451233 0.23599599301815033
0.08676239848136902 0.789991021156311 0.21865500509738922
0.10399799793958664 0.8162379860877991 0.20073600113391876
0.11318399757146835 0.833836019039154 0.19224700331687927
0.12180200219154358 0.8514329791069031 0.18328799307346344
0.13042700290679932 0.8952810168266296 0.18365100026130676
0.13042700290679932 0.9128779768943787 0.18365100026130676
0.08652319759130478 0.5087479948997498 0.2536660134792328
0.08639390021562576 0.6229730248451233 0.2539860010147095
0.10443700104951859 0.789991021156311 0.23593899607658386
0.11326500028371811 0.8162379860877991 0.21846699714660645
0.12164600193500519 0.833836019039154 0.20125199854373932
0.13066799938678741 0.8514329791069031 0.19222800433635712
0.13053900003433228 0.8952810168266296 0.1919730007648468
0.13053900003433228 0.9128779768943787 0.1919730007648468
0.11291400343179703 0.5087479948997498 0.27120599150657654
0.11300499737262726 0.6229730248451233 0.26259198784828186
0.12191600352525711 0.789991021156311 0.2448129951953888
0.13082799315452576 0.8162379860877991 0.22760899364948273
0.13964900374412537 0.833836019039154 0.2098039984703064
0.13949599862098694 0.8514329791069031 0.20120300352573395
0.1482270061969757 0.8952810168266296 0.1920129954814911
0.1482270061969757 0.9128779768943787 0.1920129954814911
0.1392270028591156 0.5087479948997498 0.2799459993839264
0.13937799632549286 0.6229730248451233 0.27140799164772034
0.1478929966688156 0.789991021156311 0.2538590133190155
0.1483439952135086 0.8162379860877991 0.22709299623966217
0.14806799590587616 0.833836019039154 0.21865800023078918
0.15693399310112 0.8514329791069031 0.20124299824237823
0.15708400309085846 0.8952810168266296 0.20076900720596313
0.15708400309085846 0.9128779768943787 0.20076900720596313
0.15697799623012543 0.5087479948997498 0.27998998761177063
0.15711799263954163 0.6229730248451233 0.2799910008907318
0.15696099400520325 0.789991021156311 0.25349798798561096
0.15680499374866486 0.8162379860877991 0.2275799959897995
0.15708500146865845 0.833836019039154 0.21836699545383453
0.15700699388980865 0.8514329791069031 0.20080000162124634
0.15714700520038605 0.8952810168266296 0.20080000162124634
0.15714700520038605 0.9128779768943787 0.20080000162124634
0.19217200577259064 0.5087479948997498 0.2798829972743988
0.19232499599456787 0.6229730248451233 0.27154600620269775
0.18356800079345703 0.789991021156311 0.2534469962120056
0.174235001206398 0.8162379860877991 0.22728599607944489
0.17454099655151367 0.833836019039154 0.2100359946489334
0.16555500030517578 0.8514329791069031 0.20098699629306793
0.1657080054283142 0.8952810168266296 0.1920749992132187
0.1657080054283142 0.9128779768943787 0.1920749992132187
0.21842600405216217 0.5087479948997498 0.2626290023326874
0.21870699524879456 0.6229730248451233 0.262470006942749
0.2011220008134842 0.789991021156311 0.23607300221920013
0.1921759992837906 0.8162379860877991 0.2183160036802292
0.1835239976644516 0.833836019039154 0.20993299782276154
0.18308399617671967 0.8514329791069031 0.20076699554920197
0.1747259944677353 0.8952810168266296 0.19196799397468567
0.1747259944677353 0.9128779768943787 0.19196799397468567
0.24459700286388397 0.5087479948997498 0.2450069934129715
0.23599399626255035 0.6229730248451233 0.24473600089550018
0.21825000643730164 0.789991021156311 0.22721800208091736
0.20972199738025665 0.8162379860877991 0.20970100164413452
0.20115700364112854 0.833836019039154 0.20109499990940094
0.19228500127792358 0.8514329791069031 0.19233599305152893
0.18310600519180298 0.8952810168266296 0.18342499434947968
0.18310600519180298 0.9128779768943787 0.18342499434947968
0.262457013130188 0.5087479948997498 0.22742299735546112
0.25388699769973755 0.6229730248451233 0.21869400143623352
0.23624099791049957 0.789991021156311 0.20978599786758423
0.2185949981212616 0.8162379860877991 0.19223900139331818
0.20951899886131287 0.833836019039154 0.18342000246047974
0.20069600641727448 0.8514329791069031 0.18357400596141815
0.19212600588798523 0.8952810168266296 0.17484499514102936
0.19212600588798523 0.9128779768943787 0.17484499514102936
0.2801649868488312 0.5087479948997498 0.20076699554920197
0.2713890075683594 0.6229730248451233 0.19244199991226196
0.24506400525569916 0.789991021156311 0.18359500169754028
0.2273769974708557 0.8162379860877991 0.18338699638843536
0.20982599258422852 0.833836019039154 0.17480100691318512
0.20098300278186798 0.8514329791069031 0.17441000044345856
0.1922069936990738 0.8952810168266296 0.16608500480651855
0.1922069936990738 0.9128779768943787 0.16608500480651855
0.2797049880027771 0.5087479948997498 0.16593100130558014
0.2797429859638214 0.6229730248451233 0.16563600301742554
0.25336501002311707 0.789991021156311 0.1659040004014969
0.22698499262332916 0.8162379860877991 0.16559599339962006
0.218422994017601 0.833836019039154 0.15694299340248108
0.20091399550437927 0.8514329791069031 0.15678900480270386
0.20095300674438477 0.8952810168266296 0.15706999599933624
0.20095300674438477 0.9128779768943787 0.15706999599933624
0.2797049880027771 0.5087479948997498 0.14812900125980377
0.2797429859638214 0.6229730248451233 0.14842399954795837
0.25336501002311707 0.789991021156311 0.14815600216388702
0.22698499262332916 0.8162379860877991 0.14846399426460266
0.218422994017601 0.833836019039154 0.15711699426174164
0.20091399550437927 0.8514329791069031 0.15727099776268005
0.20095300674438477 0.8952810168266296 0.15699000656604767
0.20095300674438477 0.9128779768943787 0.15699000656604767
0.2801649868488312 0.5087479948997498 0.11329299956560135
0.2713890075683594 0.6229730248451233 0.12161800265312195
0.24506400525569916 0.789991021156311 0.13046500086784363
0.2273769974708557 0.8162379860877991 0.13067300617694855
0.20982599258422852 0.833836019039154 0.1392589956521988
0.20098300278186798 0.8514329791069031 0.13965000212192535
0.1922069936990738 0.8952810168266296 0.14797499775886536
0.1922069936990738 0.9128779768943787 0.14797499775886536
0.262457013130188 0.5087479948997498 0.08663690090179443
0.25388699769973755 0.6229730248451233 0.09536620229482651
0.23624099791049957 0.789991021156311 0.10427399724721909
0.2185949981212616 0.8162379860877991 0.12182100117206573
0.20951899886131287 0.833836019039154 0.13064000010490417
0.20069600641727448 0.8514329791069031 0.13048599660396576
0.19212600588798523 0.8952810168266296 0.13921500742435455
0.19212600588798523 0.9128779768943787 0.13921500742435455
0.24459700286388397 0.5087479948997498 0.06905270367860794
0.23599399626255035 0.6229730248451233 0.06932409852743149
0.21825000643730164 0.789991021156311 0.08684170246124268
0.20972199738025665 0.8162379860877991 0.10435900092124939
0.20115700364112854 0.833836019039154 0.11296500265598297
0.19228500127792358 0.8514329791069031 0.12172400206327438
0.18310600519180298 0.8952810168266296 0.13063499331474304
0.18310600519180298 0.9128779768943787 0.13063499331474304
0.21842600405216217 0.5087479948997498 0.05143100023269653
0.21870699524879456 0.6229730248451233 0.0515902005136013
0.2011220008134842 0.789991021156311 0.07798700034618378
0.1921759992837906 0.8162379860877991 0.09574399888515472
0.1835239976644516 0.833836019039154 0.10412699729204178
0.18308399617671967 0.8514329791069031 0.11329299956560135
0.1747259944677353 0.8952810168266296 0.12209200114011765
0.1747259944677353 0.9128779768943787 0.12209200114011765
0.19217200577259064 0.5087479948997498 0.0341775007545948
0.19232499599456787 0.6229730248451233 0.042514000087976456
0.18356800079345703 0.789991021156311 0.060612600296735764
0.174235001206398 0.8162379860877991 0.08677399903535843
0.17454099655151367 0.833836019039154 0.1040240004658699
0.16555500030517578 0.8514329791069031 0.11307299882173538
0.1657080054283142 0.8952810168266296 0.12198600172996521
0.1657080054283142 0.9128779768943787 0.12198600172996521
0.15697799623012543 0.5087479948997498 0.03406960144639015
0.15711799263954163 0.6229730248451233 0.03406880050897598
0.15696099400520325 0.789991021156311 0.06056239828467369
0.15680499374866486 0.8162379860877991 0.0864792987704277
0.15708500146865845 0.833836019039154 0.09569329768419266
0.15700699388980865 0.8514329791069031 0.11326000094413757
0.15714700520038605 0.8952810168266296 0.11325900256633759
0.15714700520038605 0.9128779768943787 0.11325900256633759
0.1392270028591156 0.5087479948997498 0.03411389887332916
0.13937799632549286 0.6229730248451233 0.04265129938721657
0.1478929966688156 0.789991021156311 0.06020129844546318
0.1483439952135086 0.8162379860877991 0.08696659654378891
0.14806799590587616 0.833836019039154 0.09540220350027084
0.15693399310112 0.8514329791069031 0.11281699687242508
0.15708400309085846 0.8952810168266296 0.11329100281000137
0.15708400309085846 0.9128779768943787 0.11329100281000137
0.11291400343179703 0.5087479948997498 0.04285379871726036
0.11300499737262726 0.6229730248451233 0.05146779865026474
0.12191600352525711 0.789991021156311 0.06924709677696228
0.13082799315452576 0.8162379860877991 0.08645100146532059
0.13964900374412537 0.833836019039154 0.10425599664449692
0.13949599862098694 0.8514329791069031 0.11285699903964996
0.1482270061969757 0.8952810168266296 0.12204699963331223
0.1482270061969757 0.9128779768943787 0.12204699963331223
0.08652319759130478 0.5087479948997498 0.060394201427698135
0.08639390021562576 0.6229730248451233 0.060074400156736374
0.10443700104951859 0.789991021156311 0.07812129706144333
0.11326500028371811 0.8162379860877991 0.09559269994497299
0.12164600193500519 0.833836019039154 0.112807996571064
0.13066799938678741 0.8514329791069031 0.1218319982290268
0.13053900003433228 0.8952810168266296 0.12208700180053711
0.13053900003433228 0.9128779768943787 0.12208700180053711
0.0603254996240139 0.5087479948997498 0.07785040140151978
0.06895089894533157 0.6229730248451233 0.07806350290775299
0.08676239848136902 0.789991021156311 0.09540549665689468
0.10399799793958664 0.8162379860877991 0.11332400143146515
0.11318399757146835 0.833836019039154 0.12181299924850464
0.12180200219154358 0.8514329791069031 0.13077199459075928
0.13042700290679932 0.8952810168266296 0.13040900230407715
0.13042700290679932 0.9128779768943787 0.13040900230407715
0.042428601533174515 0.5087479948997498 0.10446300357580185
0.05143459886312485 0.6229730248451233 0.10437300056219101
0.0692363977432251 0.789991021156311 0.11331800371408463
0.09567809849977493 0.8162379860877991 0.12168800085783005
0.1044749990105629 0.833836019039154 0.1307239979505539
0.1128000020980835 0.8514329791069031 0.13922899961471558
0.12180600315332413 0.8952810168266296 0.13971400260925293
0.12180600315332413 0.9128779768943787 0.13971400260925293
0.0337338000535965 0.5087479948997498 0.1307940036058426
0.0427590012550354 0.6229730248451233 0.13079600036144257
0.06004450097680092 0.789991021156311 0.13944099843502045
0.0865451991558075 0.8162379860877991 0.13944600522518158
0.09538059681653976 0.833836019039154 0.14808900654315948
0.11323799937963486 0.8514329791069031 0.14837899804115295
0.12168800085783005 0.8952810168266296 0.14837999641895294
0.12168800085783005 0.9128779768943787 0.14837999641895294
0.02500000037252903 0.5436609983444214 0.15703000128269196
0.025294199585914612 0.5788440108299255 0.15703000128269196
0.025283999741077423 0.5436609983444214 0.1832669973373413
0.034116700291633606 0.5788440108299255 0.18355399370193481
0.033998601138591766 0.5436609983444214 0.21872299909591675
0.04253330081701279 0.5788440108299255 0.20955300331115723
0.051700398325920105 0.5436609983444214 0.245061993598938
0.060332801192998886 0.5788440108299255 0.2363159954547882
0.07801280170679092 0.5436609983444214 0.26256099343299866
0.077948197722435 0.5788440108299255 0.2624340057373047
0.10418400168418884 0.5436609983444214 0.2798210084438324
0.10394100099802017 0.5788440108299255 0.27983400225639343
0.13907699286937714 0.5436609983444214 0.28905999660491943
0.13915200531482697 0.5788440108299255 0.2888230085372925
0.15683799982070923 0.5436609983444214 0.2886289954185486
0.15719600021839142 0.5788440108299255 0.28891798853874207
0.1920190006494522 0.5436609983444214 0.28879499435424805
0.19209599494934082 0.5788440108299255 0.28001898527145386
0.2187190055847168 0.5436609983444214 0.2714279890060425
0.2185720056295395 0.5788440108299255 0.2710599899291992
0.24456000328063965 0.5436609983444214 0.25391799211502075
0.2448659986257553 0.5788440108299255 0.2534950077533722
0.27102699875831604 0.5436609983444214 0.22751300036907196
0.26213398575782776 0.5788440108299255 0.22718000411987305
0.27972498536109924 0.5436609983444214 0.2010280042886734
0.2802329957485199 0.5788440108299255 0.2008969932794571
0.28888198733329773 0.5436609983444214 0.16564999520778656
0.2886129915714264 0.5788440108299255 0.16579000651836395
0.28888198733329773 0.5436609983444214 0.14841000735759735
0.2886129915714264 0.5788440108299255 0.14826999604701996
0.27972498536109924 0.5436609983444214 0.11303199827671051
0.2802329957485199 0.5788440108299255 0.11316200345754623
0.27102699875831604 0.5436609983444214 0.08654750138521194
0.26213398575782776 0.5788440108299255 0.0868804007768631
0.24456000328063965 0.5436609983444214 0.060141801834106445
0.2448659986257553 0.5788440108299255 0.060565199702978134
0.2187190055847168 0.5436609983444214 0.04263230040669441
0.2185720056295395 0.5788440108299255 0.0430000014603138
0.1920190006494522 0.5436609983444214 0.025265000760555267
0.19209599494934082 0.5788440108299255 0.03404119983315468
0.15683799982070923 0.5436609983444214 0.025430800393223763
0.15719600021839142 0.5788440108299255 0.025142399594187737
0.13907699286937714 0.5436609983444214 0.02500000037252903
0.13915200531482697 0.5788440108299255 0.025236699730157852
0.10418400168418884 0.5436609983444214 0.03423929959535599
0.10394100099802017 0.5788440108299255 0.034226398915052414
0.07801280170679092 0.5436609983444214 0.05149869993329048
0.077948197722435 0.5788440108299255 0.05162610113620758
0.051700398325920105 0.5436609983444214 0.06899800151586533
0.060332801192998886 0.5788440108299255 0.07774420082569122
0.033998601138591766 0.5436609983444214 0.09533680230379105
0.04253330081701279 0.5788440108299255 0.10450699925422668
0.025283999741077423 0.5436609983444214 0.1307930052280426
0.034116700291633606 0.5788440108299255 0.1305059939622879
0.10404200106859207 0.9301819801330566 0.15703000128269196
0.11298800259828568 0.9477789998054504 0.15703000128269196
0.11298800259828568 0.9746050238609314 0.15703000128269196
0.10440599918365479 0.9301819801330566 0.16596999764442444
0.12168800085783005 0.9477789998054504 0.16568000614643097
0.12168800085783005 0.9746050238609314 0.16568000614643097
0.11290500313043594 0.9301819801330566 0.17478600144386292
0.12180600315332413 0.9477789998054504 0.17434599995613098
0.12180600315332413 0.9746050238609314 0.17434599995613098
0.12180899828672409 0.9301819801330566 0.19203400611877441
0.13042700290679932 0.9477789998054504 0.18365100026130676
0.13042700290679932 0.9746050238609314 0.18365100026130676
0.13073299825191498 0.9301819801330566 0.20099599659442902
0.13053900003433228 0.9477789998054504 0.1919730007648468
0.13053900003433228 0.9746050238609314 0.1919730007648468
0.13916300237178802 0.9301819801330566 0.20118999481201172
0.1482270061969757 0.9477789998054504 0.1920129954814911
0.1482270061969757 0.9746050238609314 0.1920129954814911
0.1482190042734146 0.9301819801330566 0.20954400300979614
0.15708400309085846 0.9477789998054504 0.20076900720596313
0.15708400309085846 0.9746050238609314 0.20076900720596313
0.15722499787807465 0.9301819801330566 0.20972700417041779
0.15714700520038605 0.9477789998054504 0.20080000162124634
0.15714700520038605 0.9746050238609314 0.20080000162124634
0.16547900438308716 0.9301819801330566 0.20976300537586212
0.1657080054283142 0.9477789998054504 0.1920749992132187
0.1657080054283142 0.9746050238609314 0.1920749992132187
0.18322999775409698 0.9301819801330566 0.20113399624824524
0.1747259944677353 0.9477789998054504 0.19196799397468567
0.1747259944677353 0.9746050238609314 0.19196799397468567
0.19197799265384674 0.9301819801330566 0.19218400120735168
0.18310600519180298 0.9477789998054504 0.18342499434947968
0.18310600519180298 0.9746050238609314 0.18342499434947968
0.20094899833202362 0.9301819801330566 0.18333099782466888
0.19212600588798523 0.9477789998054504 0.17484499514102936
0.19212600588798523 0.9746050238609314 0.17484499514102936
0.20969000458717346 0.9301819801330566 0.17453999817371368
0.1922069936990738 0.9477789998054504 0.16608500480651855
0.1922069936990738 0.9746050238609314 0.16608500480651855
0.20982199907302856 0.9301819801330566 0.15722399950027466
0.20095300674438477 0.9477789998054504 0.15706999599933624
0.20095300674438477 0.9746050238609314 0.15706999599933624
0.20982199907302856 0.9301819801330566 0.15683600306510925
0.20095300674438477 0.9477789998054504 0.15699000656604767
0.20095300674438477 0.9746050238609314 0.15699000656604767
0.20969000458717346 0.9301819801330566 0.13952000439167023
0.1922069936990738 0.9477789998054504 0.14797499775886536
0.1922069936990738 0.9746050238609314 0.14797499775886536
0.20094899833202362 0.9301819801330566 0.13072900474071503
0.19212600588798523 0.9477789998054504 0.13921500742435455
0.19212600588798523 0.9746050238609314 0.13921500742435455
0.19197799265384674 0.9301819801330566 0.12187600135803223
0.18310600519180298 0.9477789998054504 0.13063499331474304
0.18310600519180298 0.9746050238609314 0.13063499331474304
0.18322999775409698 0.9301819801330566 0.11292599886655807
0.1747259944677353 0.9477789998054504 0.12209200114011765
0.1747259944677353 0.9746050238609314 0.12209200114011765
0.16547900438308716 0.9301819801330566 0.10429699718952179
0.1657080054283142 0.9477789998054504 0.12198600172996521
0.1657080054283142 0.9746050238609314 0.12198600172996521
0.15722499787807465 0.9301819801330566 0.10433299839496613
0.15714700520038605 0.9477789998054504 0.11325900256633759
0.15714700520038605 0.9746050238609314 0.11325900256633759
0.1482190042734146 0.9301819801330566 0.10451599955558777
0.15708400309085846 0.9477789998054504 0.11329100281000137
0.15708400309085846 0.9746050238609314 0.11329100281000137
0.13916300237178802 0.9301819801330566 0.1128700003027916
0.1482270061969757 0.9477789998054504 0.12204699963331223
0.1482270061969757 0.9746050238609314 0.12204699963331223
0.13073299825191498 0.9301819801330566 0.1130639985203743
0.13053900003433228 0.9477789998054504 0.12208700180053711
0.13053900003433228 0.9746050238609314 0.12208700180053711
0.12180899828672409 0.9301819801330566 0.1220259964466095
0.13042700290679932 0.9477789998054504 0.13040900230407715
0.13042700290679932 0.9746050238609314 0.13040900230407715
0.11290500313043594 0.9301819801330566 0.139274001121521
0.12180600315332413 0.9477789998054504 0.13971400260925293
0.12180600315332413 0.9746050238609314 0.13971400260925293
0.10440599918365479 0.9301819801330566 0.14809000492095947
0.12168800085783005 0.9477789998054504 0.14837999641895294
0.12168800085783005 0.9746050238609314 0.14837999641895294
0.15662400424480438 0.9750000238418579 0.1571889966726303
3 0 1 5
3 5 4 0
3 1 2 6
3 6 5 1
3 2 3 7
3 7 6 2
3 5 4 9
3 9 8 4
3 6 5 10
3 10 9 5
3 7 6 11
3 11 10 6
3 9 8 13
3 13 12 8
3 10 9 14
3 14 13 9
3 11 10 15
3 15 14 10
3 13 12 17
3 17 16 12
3 14 13 18
3 18 17 13
3 15 14 19
3 19 18 14
3 17 16 21
3 21 20 16
3 18 17 22
3 22 21 17
3 19 18 23
3 23 22 18
3 21 20 25
3 25 24 20
3 22 21 26
3 26 25 21
3 23 22 27
3 27 26 22
3 25 24 29
3 29 28 24
3 26 25 30
3 30 29 25
3 27 26 31
3 31 30 26
3 29 28 33
3 33 32 28
3 30 29 34
3 34 33 29
3 31 30 35
3 35 34 30
3 33 32 37
3 37 36 32
3 34 33 38
3 38 37 33
3 35 34 39
3 39 38 34
3 37 36 41
3 41 40 36
3 38 37 42
3 42 41 37
3 39 38 43
3 43 42 38
3 41 40 45
3 45 44 40
3 42 41 46
3 46 45 41
3 43 42 47
3 47 46 42
3 45 44 49
3 49 48 44
3 46 45 50
3 50 49 45
3 47 46 51
3 51 50 46
3 49 48 53
3 53 52 48
3 50 49 54
3 54 53 49
3 51 50 55
3 55 54 50
3 53 52 57
3 57 56 52
3 54 53 58
3 58 57 53
3 55 54 59
3 59 58 54
3 57 56 61
3 61 60 56
3 58 57 62
3 62 61 57
3 59 58 63
3 63 62 58
3 61 60 65
3 65 64 60
3 62 61 66
3 66 65 61
3 63 62 67
3 67 66 62
3 65 64 69
3 69 68 64
3 66 65 70
3 70 69 65
3 67 66 71
3 71 70 66
3 69 68 73
3 73 72 68
3 70 69 74
3 74 73 69
3 71 70 75
3 75 74 70
3 73 72 77
3 77 76 72
3 74 73 78
3 78 77 73
3 75 74 79
3 79 78 74
3 77 76 81
3 81 80 76
3 78 77 82
3 82 81 77
3 79 78 83
3 83 82 78
3 81 80 85
3 85 84 80
3 82 81 86
3 86 85 81
3 83 82 87
3 87 86 82
3 85 84 89
3 89 88 84
3 86 85 90
3 90 89 85
3 87 86 91
3 91 90 86
3 89 88 93
3 93 92 88
3 90 89 94
3 94 93 89
3 91 90 95
3 95 94 90
3 93 92 97
3 97 96 92
3 94 93 98
3 98 97 93
3 95 94 99
3 99 98 94
3 97 96 101
3 101 100 96
3 98 97 102
3 102 101 97
3 99 98 103
3 103 102 98
3 101 100 105
3 105 104 100
3 102 101 106
3 106 105 101
3 103 102 107
3 107 106 102
3 105 104 1
3 0 1 104
3 106 105 2
3 1 2 105
3 107 106 3
3 2 3 106
3 3 108 116
3 116 7 3
3 109 110 118
3 118 117 109
3 110 111 119
3 119 118 110
3 111 112 120
3 120 119 111
3 112 113 121
3 121 120 112
3 113 114 122
3 122 121 113
3 114 115 123
3 123 122 114
3 116 7 124
3 124 11 7
3 118 117 126
3 126 125 117
3 119 118 127
3 127 126 118
3 120 119 128
3 128 127 119
3 121 120 129
3 129 128 120
3 122 121 130
3 130 129 121
3 123 122 131
3 131 130 122
3 124 11 132
3 132 15 11
3 126 125 134
3 134 133 125
3 127 126 135
3 135 134 126
3 128 127 136
3 136 135 127
3 129 128 137
3 137 136 128
3 130 129 138
3 138 137 129
3 131 130 139
3 139 138 130
3 132 15 140
3 140 19 15
3 134 133 142
3 142 141 133
3 135 134 143
3 143 142 134
3 136 135 144
3 144 143 135
3 137 136 145
3 145 144 136
3 138 137 146
3 146 145 137
3 139 138 147
3 147 146 138
3 140 19 148
3 148 23 19
3 142 141 150
3 150 149 141
3 143 142 151
3 151 150 142
3 144 143 152
3 152 151 143
3 145 144 153
3 153 152 144
3 146 145 154
3 154 153 145
3 147 146 155
3 155 154 146
3 148 23 156
3 156 27 23
3 150 149 158
3 158 157 149
3 151 150 159
3 159 158 150
3 152 151 160
3 160 159 151
3 153 152 161
3 161 160 152
3 154 153 162
3 162 161 153
3 155 154 163
3 163 162 154
3 156 27 164
3 164 31 27
3 158 157 166
3 166 165 157
3 159 158 167
3 167 166 158
3 160 159 168
3 168 167 159
3 161 160 169
3 169 168 160
3 162 161 170
3 170 169 161
3 163 162 171
3 171 170 162
3 164 31 172
3 172 35 31
3 166 165 174
3 174 173 165
3 167 166 175
3 175 174 166
3 168 167 176
3 176 175 167
3 169 168 177
3 177 176 168
3 170 169 178
3 178 177 169
3 171 170 179
3 179 178 170
3 172 35 180
3 180 39 35
3 174 173 182
3 182 181 173
3 175 174 183
3 183 182 174
3 176 175 184
3 184 183 175
3 177 176 185
3 185 184 176
3 178 177 186
3 186 185 177
3 179 178 187
3 187 186 178
3 180 39 188
3 188 43 39
3 182 181 190
3 190 189 181
3 183 182 191
3 191 190 182
3 184 183 192
3 192 191 183
3 185 184 193
3 193 192 184
3 186 185 194
3 194 193 185
3 187 186 195
3 195 194 186
3 188 43 196
3 196 47 43
3 190 189 198
3 198 197 189
3 191 190 199
3 199 198 190
3 192 191 200
3 200 199 191
3 193 192 201
3 201 200 192
3 194 193 202
3 202 201 193
3 195 194 203
3 203 202 194
3 196 47 204
3 204 51 47
3 198 197 206
3 206 205 197
3 199 198 207
3 207 206 198
3 200 199 208
3 208 207 199
3 201 200 209
3 209 208 200
3 202 201 210
3 210 209 201
3 203 202 211
3 211 210 202
3 204 51 212
3 212 55 51
3 206 205 214
3 214 213 205
3 207 206 215
3 215 214 206
3 208 207 216
3 216 215 207
3 209 208 217
3 217 216 208
3 210 209 218
3 218 217 209
3 211 210 219
3 219 218 210
3 212 55 220
3 220 59 55
3 214 213 222
3 222 221 213
3 215 214 223
3 223 222 214
3 216 215 224
3 224 223 215
3 217 216 225
3 225 224 216
3 218 217 226
3 226 225 217
3 219 218 227
3 227 226 218
3 220 59 228
3 228 63 59
3 222 221 230
3 230 229 221
3 223 222 231
3 231 230 222
3 224 223 232
3 232 231 223
3 225 224 233
3 233 232 224
3 226 225 234
3 234 233 225
3 227 226 235
3 235 234 226
3 228 63 236
3 236 67 63
3 230 229 238
3 238 237 229
3 231 230 239
3 239 238 230
3 232 231 240
3 240 239 231
3 233 232 241
3 241 240 232
3 234 233 242
3 242 241 233
3 235 234 243
3 243 242 234
3 236 67 244
3 244 71 67
3 238 237 246
3 246 245 237
3 239 238 247
3 247 246 238
3 240 239 248
3 248 247 239
3 241 240 249
3 249 248 240
3 242 241 250
3 250 249 241
3 243 242 251
3 251 250 242
3 244 71 252
3 252 75 71
3 246 245 254
3 254 253 245
3 247 246 255
3 255 254 246
3 248 247 256
3 256 255 247
3 249 248 257
3 257 256 248
3 250 249 258
3 258 257 249
3 251 250 259
3 259 258 250
3 252 75 260
3 260 79 75
3 254 253 262
3 262 261 253
3 255 254 263
3 263 262 254
3 256 255 264
3 264 263 255
3 257 256 265
3 265 264 256
3 258 257 266
3 266 265 257
3 259 258 267
3 267 266 258
3 260 79 268
3 268 83 79
3 262 261 270
3 270 269 261
3 263 262 271
3 271 270 262
3 264 263 272
3 272 271 263
3 265 264 273
3 273 272 264
3 266 265 274
3 274 273 265
3 267 266 275
3 275 274 266
3 268 83 276
3 276 87 83
3 270 269 278
3 278 277 269
3 271 270 279
3 279 278 270
3 272 271 280
3 280 279 271
3 273 272 281
3 281 280 272
3 274 273 282
3 282 281 273
3 275 274 283
3 283 282 274
3 276 87 284
3 284 91 87
3 278 277 286
3 286 285 277
3 279 278 287
3 287 286 278
3 280 279 288
3 288 287 279
3 281 280 289
3 289 288 280
3 282 281 290
3 290 289 281
3 283 282 291
3 291 290 282
3 284 91 292
3 292 95 91
3 286 285 294
3 294 293 285
3 287 286 295
3 295 294 286
3 288 287 296
3 296 295 287
3 289 288 297
3 297 296 288
3 290 289 298
3 298 297 289
3 291 290 299
3 299 298 290
3 292 95 300
3 300 99 95
3 294 293 302
3 302 301 293
3 295 294 303
3 303 302 294
3 296 295 304
3 304 303 295
3 297 296 305
3 305 304 296
3 298 297 306
3 306 305 297
3 299 298 307
3 307 306 298
3 300 99 308
3 308 103 99
3 302 301 310
3 310 309 301
3 303 302 311
3 311 310 302
3 304 303 312
3 312 311 303
3 305 304 313
3 313 312 304
3 306 305 314
3 314 313 305
3 307 306 315
3 315 314 306
3 308 103 316
3 316 107 103
3 310 309 318
3 318 317 309
3 311 310 319
3 319 318 310
3 312 311 320
3 320 319 311
3 313 312 321
3 321 320 312
3 314 313 322
3 322 321 313
3 315 314 323
3 323 322 314
3 316 107 108
3 3 108 107
3 318 317 110
3 109 110 317
3 319 318 111
3 110 111 318
3 320 319 112
3 111 112 319
3 321 320 113
3 112 113 320
3 322 321 114
3 113 114 321
3 323 322 115
3 114 115 322
3 108 324 326
3 326 116 108
3 324 325 327
3 327 326 324
3 325 109 117
3 117 327 325
3 326 116 328
3 328 124 116
3 327 326 329
3 329 328 326
3 117 327 125
3 125 329 327
3 328 124 330
3 330 132 124
3 329 328 331
3 331 330 328
3 125 329 133
3 133 331 329
3 330 132 332
3 332 140 132
3 331 330 333
3 333 332 330
3 133 331 141
3 141 333 331
3 332 140 334
3 334 148 140
3 333 332 335
3 335 334 332
3 141 333 149
3 149 335 333
3 334 148 336
3 336 156 148
3 335 334 337
3 337 336 334
3 149 335 157
3 157 337 335
3 336 156 338
3 338 164 156
3 337 336 339
3 339 338 336
3 157 337 165
3 165 339 337
3 338 164 340
3 340 172 164
3 339 338 341
3 341 340 338
3 165 339 173
3 173 341 339
3 340 172 342
3 342 180 172
3 341 340 343
3 343 342 340
3 173 341 181
3 181 343 341
3 342 180 344
3 344 188 180
3 343 342 345
3 345 344 342
3 181 343 189
3 189 345 343
3 344 188 346
3 346 196 188
3 345 344 347
3 347 346 344
3 189 345 197
3 197 347 345
3 346 196 348
3 348 204 196
3 347 346 349
3 349 348 346
3 197 347 205
3 205 349 347
3 348 204 350
3 350 212 204
3 349 348 351
3 351 350 348
3 205 349 213
3 213 351 349
3 350 212 352
3 352 220 212
3 351 350 353
3 353 352 350
3 213 351 221
3 221 353 351
3 352 220 354
3 354 228 220
3 353 352 355
3 355 354 352
3 221 353 229
3 229 355 353
3 354 228 356
3 356 236 228
3 355 354 357
3 357 356 354
3 229 355 237
3 237 357 355
3 356 236 358
3 358 244 236
3 357 356 359
3 359 358 356
3 237 357 245
3 245 359 357
3 358 244 360
3 360 252 244
3 359 358 361
3 361 360 358
3 245 359 253
3 253 361 359
3 360 252 362
3 362 260 252
3 361 360 363
3 363 362 360
3 253 361 261
3 261 363 361
3 362 260 364
3 364 268 260
3 363 362 365
3 365 364 362
3 261 363 269
3 269 365 363
3 364 268 366
3 366 276 268
3 365 364 367
3 367 366 364
3 269 365 277
3 277 367 365
3 366 276 368
3 368 284 276
3 367 366 369
3 369 368 366
3 277 367 285
3 285 369 367
3 368 284 370
3 370 292 284
3 369 368 371
3 371 370 368
3 285 369 293
3 293 371 369
3 370 292 372
3 372 300 292
3 371 370 373
3 373 372 370
3 293 371 301
3 301 373 371
3 372 300 374
3 374 308 300
3 373 372 375
3 375 374 372
3 301 373 309
3 309 375 373
3 374 308 376
3 376 316 308
3 375 374 377
3 377 376 374
3 309 375 317
3 317 377 375
3 376 316 324
3 108 324 316
3 377 376 325
3 324 325 376
3 317 377 109
3 325 109 377
3 115 378 381
3 381 123 115
3 378 379 382
3 382 381 378
3 379 380 383
3 383 382 379
3 381 123 384
3 384 131 123
3 382 381 385
3 385 384 381
3 383 382 386
3 386 385 382
3 384 131 387
3 387 139 131
3 385 384 388
3 388 387 384
3 386 385 389
3 389 388 385
3 387 139 390
3 390 147 139
3 388 387 391
3 391 390 387
3 389 388 392
3 392 391 388
3 390 147 393
3 393 155 147
3 391 390 394
3 394 393 390
3 392 391 395
3 395 394 391
3 393 155 396
3 396 163 155
3 394 393 397
3 397 396 393
3 395 394 398
3 398 397 394
3 396 163 399
3 399 171 163
3 397 396 400
3 400 399 396
3 398 397 401
3 401 400 397
3 399 171 402
3 402 179 171
3 400 399 403
3 403 402 399
3 401 400 404
3 404 403 400
3 402 179 405
3 405 187 179
3 403 402 406
3 406 405 402
3 404 403 407
3 407 406 403
3 405 187 408
3 408 195 187
3 406 405 409
3 409 408 405
3 407 406 410
3 410 409 406
3 408 195 411
3 411 203 195
3 409 408 412
3 412 411 408
3 410 409 413
3 413 412 409
3 411 203 414
3 414 211 203
3 412 411 415
3 415 414 411
3 413 412 416
3 416 415 412
3 414 211 417
3 417 219 211
3 415 414 418
3 418 417 414
3 416 415 419
3 419 418 415
3 417 219 420
3 420 227 219
3 418 417 421
3 421 420 417
3 419 418 422
3 422 421 418
3 420 227 423
3 423 235 227
3 421 420 424
3 424 423 420
3 422 421 425
3 425 424 421
3 423 235 426
3 426 243 235
3 424 423 427
3 427 426 423
3 425 424 428
3 428 427 424
3 426 243 429
3 429 251 243
3 427 426 430
3 430 429 426
3 428 427 431
3 431 430 427
3 429 251 432
3 432 259 251
3 430 429 433
3 433 432 429
3 431 430 434
3 434 433 430
3 432 259 435
3 435 267 259
3 433 432 436
3 436 435 432
3 434 433 437
3 437 436 433
3 435 267 438
3 438 275 267
3 436 435 439
3 439 438 435
3 437 436 440
3 440 439 436
3 438 275 441
3 441 283 275
3 439 438 442
3 442 441 438
3 440 439 443
3 443 442 439
3 441 283 444
3 444 291 283
3 442 441 445
3 445 444 441
3 443 442 446
3 446 445 442
3 444 291 447
3 447 299 291
3 445 444 448
3 448 447 444
3 446 445 449
3 449 448 445
3 447 299 450
3 450 307 299
3 448 447 451
3 451 450 447
3 449 448 452
3 452 451 448
3 450 307 453
3 453 315 307
3 451 450 454
3 454 453 450
3 452 451 455
3 455 454 451
3 453 315 456
3 456 323 315
3 454 453 457
3 457 456 453
3 455 454 458
3 458 457 454
3 456 323 378
3 115 378 323
3 457 456 379
3 378 379 456
3 458 457 380
3 379 380 457
3 459 446 440
3 440 459 437
3 437 459 434
3 434 459 431
3 431 459 428
3 428 459 425
3 425 459 419
3 419 459 416
3 416 459 413
3 413 459 410
3 410 459 407
3 407 459 404
3 404 459 398
3 398 459 395
3 395 459 392
3 392 459 389
3 389 459 386
3 386 459 383
3 383 459 380
3 380 459 458
3 458 459 455
3 455 459 452
3 452 459 449
3 449 459 446
