ply
format ascii 1.0
element vertex 574
property float x
property float y
property float z
element face 1076
property list uchar int vertex_indices
end_header
0.1937430053949356 0.025137100368738174 0.19460299611091614
0.19383999705314636 0.025234000757336617 0.3334609866142273
0.1939689964056015 0.18718700110912323 0.35746899247169495
0.19396500289440155 0.18718299269676208 0.3516019880771637
0.19422900676727295 0.5650339722633362 0.3513379991054535
0.1942330002784729 0.5650380253791809 0.35720500349998474
0.1942480057477951 0.5839329957962036 0.3594740033149719
0.19426299631595612 0.6030960083007812 0.3614160120487213
0.19427700340747833 0.6219900250434875 0.3630329966545105
0.19429099559783936 0.6411529779434204 0.3633449971675873
0.19430400431156158 0.6605849862098694 0.36300599575042725
0.19431599974632263 0.6802859902381897 0.3607099950313568
0.19432799518108368 0.6999850273132324 0.35711100697517395
0.19433799386024475 0.7253490090370178 0.3473140001296997
0.19434399902820587 0.7488179802894592 0.3313260078430176
0.19434599578380585 0.7709360122680664 0.3124699890613556
0.19434699416160583 0.7917050123214722 0.2931329905986786
0.194350004196167 0.8132839798927307 0.2760309875011444
0.19435900449752808 0.8375660181045532 0.2638559937477112
0.1943719983100891 0.8618530035018921 0.2592099905014038
0.19444799423217773 0.9698110222816467 0.259786993265152
0.19440199434757233 0.9697650074958801 0.19394299387931824
0.2296919971704483 0.02520580030977726 0.3288399875164032
0.2360139936208725 0.18715399503707886 0.3518980145454407
0.23470599949359894 0.1871509999036789 0.3460319936275482
0.23497000336647034 0.5650020241737366 0.345768004655838
0.2362779974937439 0.5650050044059753 0.3516339957714081
0.2369450032711029 0.5838990211486816 0.35390201210975647
0.23761099576950073 0.6030619740486145 0.35584399104118347
0.23795199394226074 0.6219559907913208 0.35713499784469604
0.23796500265598297 0.6411179900169373 0.3577730059623718
0.237977996468544 0.6605499982833862 0.3571079969406128
0.23733900487422943 0.6802520155906677 0.35513898730278015
0.2363719940185547 0.6999520063400269 0.3515399992465973
0.2337760031223297 0.7253170013427734 0.342070996761322
0.22987000644207 0.7487900257110596 0.3266719877719879
0.22498300671577454 0.7709119915962219 0.3084389865398407
0.21996499598026276 0.7916839718818665 0.28975099325180054
0.2155349999666214 0.8132669925689697 0.2732129991054535
0.21241499483585358 0.837552011013031 0.26149600744247437
0.2112549990415573 0.861840009689331 0.25691699981689453
0.21146200597286224 0.9697980284690857 0.2574929893016815
0.2632560133934021 0.025172600522637367 0.3149310052394867
0.27544400095939636 0.18711499869823456 0.3355729877948761
0.2725070118904114 0.18711300194263458 0.3303599953651428
0.2727699875831604 0.564965009689331 0.3300960063934326
0.27570798993110657 0.5649660229682922 0.3353089988231659
0.2766999900341034 0.5838599801063538 0.3372510075569153
0.2780190110206604 0.6030219793319702 0.3388659954071045
0.2786850035190582 0.6219149827957153 0.3401559889316559
0.27902400493621826 0.641077995300293 0.34079501032829285
0.2787109911441803 0.6605100035667419 0.3401300013065338
0.2777459919452667 0.6802120208740234 0.33848699927330017
0.27580198645591736 0.6999130249023438 0.3352150022983551
0.27092400193214417 0.7252810001373291 0.3266279995441437
0.2627820074558258 0.7487580180168152 0.3129589855670929
0.2536590099334717 0.7708839774131775 0.29658401012420654
0.24388299882411957 0.7916610240936279 0.27982500195503235
0.23541299998760223 0.8132479786872864 0.26501700282096863
0.22923000156879425 0.83753502368927 0.25463899970054626
0.22696200013160706 0.8618239760398865 0.25038599967956543
0.22736400365829468 0.9697819948196411 0.2509630024433136
0.29192501306533813 0.025137100368738174 0.2928439974784851
0.3093259930610657 0.1870730072259903 0.30973300337791443
0.3050850033760071 0.1870730072259903 0.30549898743629456
0.3053489923477173 0.5649250149726868 0.30523499846458435
0.3095889985561371 0.5649250149726868 0.3094690144062042
0.3109079897403717 0.5838170051574707 0.31105199456214905
0.31255200505256653 0.6029800176620483 0.31244000792503357
0.3135429918766022 0.6218720078468323 0.31340399384498596
0.3138830065727234 0.6410350203514099 0.3137809932231903
0.3135699927806854 0.6604670286178589 0.3133769929409027
0.31227898597717285 0.6801689863204956 0.3119620084762573
0.30968400835990906 0.6998710036277771 0.30937498807907104
0.30252501368522644 0.725242018699646 0.3022890090942383
0.29145100712776184 0.7487220168113708 0.29113298654556274
0.27809301018714905 0.7708539962768555 0.2777619957923889
0.2644079923629761 0.7916349768638611 0.26409998536109924
0.2523539960384369 0.8132269978523254 0.25203201174736023
0.24356399476528168 0.8375179767608643 0.2435470074415207
0.24031899869441986 0.8618080019950867 0.24027200043201447
0.2410469949245453 0.9697650074958801 0.24052199721336365
0.3140699863433838 0.02510160021483898 0.2640460133552551
0.3350529968738556 0.18703199923038483 0.2759459912776947
0.3298349976539612 0.18703299760818481 0.27295100688934326
0.3300989866256714 0.5648850202560425 0.27268698811531067
0.3353169858455658 0.5648829936981201 0.2756820023059845
0.33728599548339844 0.583774983882904 0.2768079936504364
0.33893001079559326 0.6029369831085205 0.2777720093727112
0.3402479887008667 0.6218289732933044 0.27847498655319214
0.34091299772262573 0.6409909725189209 0.27872198820114136
0.34027498960494995 0.660423994064331 0.2784479856491089
0.33865800499916077 0.6801270246505737 0.27742499113082886
0.335411012172699 0.6998299956321716 0.2755880057811737
0.3266240060329437 0.7252029776573181 0.2705889940261841
0.3132709860801697 0.7486870288848877 0.2627919912338257
0.2966560125350952 0.7708240151405334 0.25333499908447266
0.2800390124320984 0.7916100025177002 0.24355299770832062
0.26537999510765076 0.8132060170173645 0.2350730001926422
0.2546359896659851 0.8374999761581421 0.22887100279331207
0.2507399916648865 0.8617910146713257 0.22657500207424164
0.2514680027961731 0.9697480201721191 0.22682499885559082
0.3280630111694336 0.025068499147892 0.23069100081920624
0.3513230085372925 0.18699300289154053 0.23675400018692017
0.34545499086380005 0.1869959980249405 0.2351289987564087
0.34571900963783264 0.5648469924926758 0.2348649948835373
0.3515869975090027 0.564844012260437 0.23648999631404877
0.3538820147514343 0.5837349891662598 0.23680199682712555
0.35585200786590576 0.6028969883918762 0.23743900656700134
0.3571690022945404 0.6217889785766602 0.23775100708007812
0.35750898718833923 0.6409509778022766 0.2380629926919937
0.35719600319862366 0.6603839993476868 0.23772400617599487
0.35525399446487427 0.6800869703292847 0.23738500475883484
0.3516809940338135 0.6997910141944885 0.23639599978923798
0.3419179916381836 0.7251660227775574 0.2337779998779297
0.3269380033016205 0.7486540079116821 0.22953400015830994
0.3086960017681122 0.7707949876785278 0.22464199364185333
0.28980201482772827 0.7915869951248169 0.2197510004043579
0.2735159993171692 0.81318598985672 0.21518400311470032
0.2617959976196289 0.8374829888343811 0.2122420072555542
0.25724899768829346 0.8617759943008423 0.21092399954795837
0.2579759955406189 0.9697329998016357 0.21084800362586975
0.33260101079940796 0.025040000677108765 0.19450600445270538
0.3568350076675415 0.18695899844169617 0.19437600672245026
0.35096800327301025 0.1869640052318573 0.1943800002336502
0.35123199224472046 0.5648149847984314 0.1941159963607788
0.3570989966392517 0.5648109912872314 0.19411200284957886
0.35939401388168335 0.583702027797699 0.19409699738025665
0.3613629937171936 0.6028630137443542 0.19408200681209564
0.36267998814582825 0.621753990650177 0.19406799972057343
0.3633449971675873 0.6409170031547546 0.1940539926290512
0.3627069890499115 0.6603490114212036 0.19404099881649017
0.3607650101184845 0.6800529956817627 0.19402900338172913
0.3571929931640625 0.699757993221283 0.19401800632476807
0.347106009721756 0.7251350283622742 0.1940069943666458
0.33147600293159485 0.7486259937286377 0.1940010040998459
0.3125860095024109 0.7707710266113281 0.1939990073442459
0.29336899518966675 0.791566014289856 0.19399799406528473
0.2761079967021942 0.8131700158119202 0.19399499893188477
0.2640649974346161 0.8374689817428589 0.19398699700832367
0.25951799750328064 0.8617619872093201 0.19397300481796265
0.26024600863456726 0.9697189927101135 0.19389699399471283
0.32801198959350586 0.025018200278282166 0.15865400433540344
0.35126399993896484 0.1869339942932129 0.15233099460601807
0.3453980088233948 0.18693900108337402 0.15396499633789062
0.345661997795105 0.5647910237312317 0.15370100736618042
0.35152798891067505 0.5647850036621094 0.15206700563430786
0.3538230061531067 0.5836759805679321 0.15139999985694885
0.35579100251197815 0.602836012840271 0.15073400735855103
0.3571079969406128 0.6217280030250549 0.1503939926624298
0.3574469983577728 0.6408900022506714 0.1503800004720688
0.35713499784469604 0.6603230237960815 0.15036700665950775
0.35519298911094666 0.6800270080566406 0.15100599825382233
0.35162198543548584 0.6997320055961609 0.15197299420833588
0.3418630063533783 0.7251110076904297 0.15456999838352203
0.32688799500465393 0.7486050128936768 0.15847499668598175
0.30865299701690674 0.7707520127296448 0.16336199641227722
0.28976601362228394 0.7915509939193726 0.16857600212097168
0.2734859883785248 0.8131570219993591 0.17281000316143036
0.26177099347114563 0.8374580144882202 0.1760600060224533
0.25722500681877136 0.8617519736289978 0.17702500522136688
0.2579520046710968 0.9697089791297913 0.17694899439811707
0.31397300958633423 0.025004500523209572 0.12509000301361084
0.33493900299072266 0.1869180053472519 0.11290200054645538
0.3297249972820282 0.18692399561405182 0.11583899706602097
0.3299889862537384 0.5647749900817871 0.11557500064373016
0.33520299196243286 0.5647690296173096 0.11263799667358398
0.3371709883213043 0.5836600065231323 0.11164499819278717
0.33881300687789917 0.6028199791908264 0.11065299808979034
0.3401300013065338 0.621711015701294 0.10998699814081192
0.34079501032829285 0.6408730149269104 0.1096469983458519
0.34015700221061707 0.6603059768676758 0.10995999723672867
0.33854201436042786 0.6800100207328796 0.11092499643564224
0.33529698848724365 0.6997159719467163 0.1125430017709732
0.3265169858932495 0.7250959873199463 0.117747001349926
0.3131749927997589 0.7485910058021545 0.12556299567222595
0.2965730130672455 0.7707409858703613 0.13501200079917908
0.2799699902534485 0.7915409803390503 0.1444620043039322
0.2653230130672455 0.8131489753723145 0.15325799584388733
0.2545880079269409 0.8374509811401367 0.1591159999370575
0.25069499015808105 0.8617460131645203 0.1613830029964447
0.2514219880104065 0.9697020053863525 0.16098099946975708
0.19440199434757233 0.9697650074958801 0.19394299387931824
0.19374200701713562 0.025137100368738174 0.19460299611091614
0.2917880117893219 0.02500000037252903 0.09642080217599869
0.30916500091552734 0.18691200017929077 0.07934579998254776
0.3049300014972687 0.1869180053472519 0.0835862010717392
0.3051939904689789 0.564769983291626 0.0833221971988678
0.30942800641059875 0.5647640228271484 0.07908180356025696
0.3107439875602722 0.58365398645401 0.07743780314922333
0.31238600611686707 0.6028140187263489 0.07579349726438522
0.3133769929409027 0.6217060089111328 0.07480180263519287
0.31371599435806274 0.6408680081367493 0.07446219772100449
0.31340399384498596 0.6603000164031982 0.07477480173110962
0.31211501359939575 0.6800050139427185 0.07639169692993164
0.30952298641204834 0.6997110247612 0.0789875015616417
0.302374005317688 0.7250900268554688 0.08581990003585815
0.2913160026073456 0.7485870122909546 0.0972198024392128
0.27797600626945496 0.7707369923591614 0.11057800054550171
0.26431000232696533 0.7915380001068115 0.12393700331449509
0.25227299332618713 0.8131459951400757 0.13631699979305267
0.24349500238895416 0.8374490141868591 0.1447809934616089
0.24025499820709229 0.8617439866065979 0.1480260044336319
0.24098199605941772 0.9696999788284302 0.14762400090694427
0.19440299272537231 0.9697650074958801 0.19394299387931824
0.19374200701713562 0.025137100368738174 0.19460299611091614
0.2630879878997803 0.02500459924340248 0.07427570223808289
0.2752470076084137 0.1869180053472519 0.05329269915819168
0.27231699228286743 0.18692399561405182 0.05851009860634804
0.2725810110569 0.5647749900817871 0.05824609845876694
0.2755100131034851 0.5647690296173096 0.05302869901061058
0.27649998664855957 0.5836600065231323 0.05105910077691078
0.2778159976005554 0.6028199791908264 0.04941499978303909
0.27847999334335327 0.621711015701294 0.04809749871492386
0.2788200080394745 0.6408730149269104 0.04775790125131607
0.2785069942474365 0.6603059768676758 0.048070501536130905
0.2775439918041229 0.6800100207328796 0.04968729987740517
0.2756049931049347 0.6997159719467163 0.052934400737285614
0.27073898911476135 0.7250959873199463 0.06172100082039833
0.26261600852012634 0.7485920190811157 0.07540059834718704
0.25351598858833313 0.7707409858703613 0.09168940037488937
0.2437639981508255 0.7915409803390503 0.10830599814653397
0.2353139966726303 0.8131489753723145 0.1232910007238388
0.22914500534534454 0.8374509811401367 0.13370899856090546
0.22688299417495728 0.8617460131645203 0.1376049965620041
0.2272839993238449 0.9697030186653137 0.13687700033187866
0.19440299272537231 0.9697650074958801 0.19394299387931824
0.19374200701713562 0.025137100368738174 0.19460299611091614
0.22950400412082672 0.02501850016415119 0.06060880050063133
0.23579399287700653 0.1869339942932129 0.03702230006456375
0.23449499905109406 0.18693900108337402 0.04289050027728081
0.23475800454616547 0.5647900104522705 0.04262650012969971
0.23605799674987793 0.5647850036621094 0.03675829991698265
0.23672200739383698 0.5836759805679321 0.03478889912366867
0.23738600313663483 0.6028370261192322 0.03281930088996887
0.23772400617599487 0.6217280030250549 0.03150210157036781
0.2377369999885559 0.6408900022506714 0.03083680011332035
0.23775100708007812 0.6603230237960815 0.03147510066628456
0.23711399734020233 0.6800270080566406 0.033091600984334946
0.23615199327468872 0.6997320055961609 0.036664001643657684
0.23356899619102478 0.7251110076904297 0.04642689973115921
0.2296849936246872 0.7486050128936768 0.06173330172896385
0.224823996424675 0.770753026008606 0.07997489720582962
0.21983100473880768 0.7915509939193726 0.09854350239038467
0.21542499959468842 0.8131570219993591 0.11482899636030197
0.21232099831104279 0.8374580144882202 0.12687499821186066
0.21116699278354645 0.8617519736289978 0.1310960054397583
0.2113730013370514 0.9697089791297913 0.13036899268627167
0.19440299272537231 0.9697650074958801 0.19394299387931824
0.19374200701713562 0.025137100368738174 0.19460299611091614
0.19364500045776367 0.025040099397301674 0.05574449896812439
0.19374099373817444 0.18695999681949615 0.031510401517152786
0.19374600052833557 0.1869640052318573 0.03770359978079796
0.19401000440120697 0.5648149847984314 0.03743959963321686
0.19400599598884583 0.5648109912872314 0.031246399506926537
0.19401699304580688 0.583702027797699 0.028951499611139297
0.19402900338172913 0.6028630137443542 0.026982299983501434
0.19404099881649017 0.6217550039291382 0.025665299966931343
0.1940539926290512 0.6409170031547546 0.02500000037252903
0.19406799972057343 0.6603490114212036 0.02563830092549324
0.19408300518989563 0.6800529956817627 0.027580300346016884
0.1941000074148178 0.699757993221283 0.03115209937095642
0.1941249966621399 0.7251350283622742 0.04123910143971443
0.19415199756622314 0.7486270070075989 0.056868698447942734
0.19418099522590637 0.7707710266113281 0.07575889676809311
0.19420799612998962 0.791566014289856 0.09497590363025665
0.19423599541187286 0.8131700158119202 0.11223699897527695
0.19426099956035614 0.8374689817428589 0.12427999824285507
0.19428199529647827 0.8617619872093201 0.12882700562477112
0.1943569928407669 0.9697189927101135 0.1280989944934845
0.19440299272537231 0.9697650074958801 0.19394299387931824
0.15779300034046173 0.025068599730730057 0.06065889820456505
0.15169699490070343 0.18699300289154053 0.037081100046634674
0.15300500392913818 0.1869959980249405 0.042947400361299515
0.1532689929008484 0.5648469924926758 0.042683400213718414
0.15196099877357483 0.564844012260437 0.036817099899053574
0.15132099390029907 0.583736002445221 0.03484860062599182
0.1506810039281845 0.6028969883918762 0.03287990018725395
0.15036700665950775 0.6217889785766602 0.03156309947371483
0.1503800004720688 0.6409509778022766 0.030897799879312515
0.1503939926624298 0.6603839993476868 0.03153609856963158
0.15106099843978882 0.6800869703292847 0.03315170109272003
0.15205499529838562 0.6997910141944885 0.03672280162572861
0.15468700230121613 0.7251660227775574 0.04648200049996376
0.1586260050535202 0.7486550211906433 0.061782900243997574
0.1635430008172989 0.7707949876785278 0.08001770079135895
0.1685909926891327 0.7915869951248169 0.0985793024301529
0.17305000126361847 0.81318598985672 0.11485899984836578
0.17620499432086945 0.8374829888343811 0.12690000236034393
0.17739799618721008 0.8617759943008423 0.1311199963092804
0.1773429960012436 0.9697329998016357 0.13039299845695496
0.19374200701713562 0.025137100368738174 0.19460299611091614
0.12422899901866913 0.02510160021483898 0.07437259703874588
0.11226700246334076 0.18703199923038483 0.053406499326229095
0.11520499736070633 0.18703299760818481 0.058619800955057144
0.11546800285577774 0.5648850202560425 0.058355800807476044
0.11253099888563156 0.5648829936981201 0.053142499178647995
0.111565001308918 0.583774983882904 0.05117430165410042
0.11059899628162384 0.6029369831085205 0.04953179880976677
0.10963399708271027 0.6218289732933044 0.04821540042757988
0.1093209981918335 0.6409919857978821 0.04787629842758179
0.10966099798679352 0.660423994064331 0.04818839952349663
0.11065399646759033 0.6801270246505737 0.049803800880908966
0.11262500286102295 0.6998299956321716 0.05304820090532303
0.11753900349140167 0.7252029776573181 0.061827998608350754
0.1257140040397644 0.7486870288848877 0.07549619674682617
0.13486699759960175 0.7708240151405334 0.09177219867706299
0.14467200636863708 0.7916100025177002 0.10837499797344208
0.15317299962043762 0.8132060170173645 0.12334799766540527
0.15939000248908997 0.8374999761581421 0.13375699520111084
0.16169099509716034 0.8617910146713257 0.1376499980688095
0.16143999993801117 0.9697480201721191 0.13692300021648407
0.19374200701713562 0.025137100368738174 0.19460299611091614
0.09556040167808533 0.025137100368738174 0.09655780345201492
0.07838580012321472 0.18707400560379028 0.07950689643621445
0.08262620121240616 0.18707400560379028 0.08374139666557312
0.0828901007771492 0.5649250149726868 0.08347740024328232
0.07864960283041 0.5649250149726868 0.07924290001392365
0.07735790312290192 0.5838170051574707 0.07760079950094223
0.07574030011892319 0.6029800176620483 0.07595880329608917
0.07477489858865738 0.6218720078468323 0.07496839761734009
0.07446210086345673 0.6410350203514099 0.07462920248508453
0.07480189949274063 0.6604670286178589 0.07494139671325684
0.07612060010433197 0.6801699995994568 0.076556496322155
0.07874389737844467 0.6998720169067383 0.07914859801530838
0.0859375 0.725242018699646 0.08597099781036377
0.09704440087080002 0.7487229704856873 0.09735540300607681
0.11043400317430496 0.7708539962768555 0.1106949970126152
0.12414799630641937 0.7916349768638611 0.12403500080108643
0.13623200356960297 0.8132269978523254 0.13639800250530243
0.14505599439144135 0.8375170230865479 0.1448500007390976
0.14833399653434753 0.8618080019950867 0.14809000492095947
0.14775800704956055 0.9697660207748413 0.14768899977207184
0.19374200701713562 0.025137100368738174 0.19460299611091614
0.07341519743204117 0.025172600522637367 0.12525799870491028
0.05265849828720093 0.18711499869823456 0.11309900134801865
0.05787590146064758 0.18711300194263458 0.11602900177240372
0.058139801025390625 0.564965009689331 0.11576499789953232
0.05292240157723427 0.5649660229682922 0.11283499747514725
0.05097910016775131 0.5838599801063538 0.111845001578331
0.049362000077962875 0.6030229926109314 0.11085499823093414
0.04807090014219284 0.6219159960746765 0.11019100248813629
0.047432199120521545 0.641077995300293 0.10985200107097626
0.04809790104627609 0.6605100035667419 0.11016400158405304
0.04974209889769554 0.6802120208740234 0.11112699657678604
0.053016599267721176 0.6999130249023438 0.11274000257253647
0.061838798224925995 0.7252810001373291 0.11793199926614761
0.07522500306367874 0.7487580180168152 0.12572899460792542
0.09187089651823044 0.7708839774131775 0.13515500724315643
0.10851600021123886 0.7916610240936279 0.14458100497722626
0.12320499867200851 0.8132479786872864 0.15335699915885925
0.13398300111293793 0.83753502368927 0.15919999778270721
0.13791300356388092 0.8618239760398865 0.1614619940519333
0.13733600080013275 0.9697819948196411 0.16106100380420685
0.19440199434757233 0.9697650074958801 0.19394299387931824
0.19374200701713562 0.025137100368738174 0.19460299611091614
0.05942250043153763 0.02520590089261532 0.15884099900722504
0.036388199776411057 0.18715399503707886 0.15255099534988403
0.04225660115480423 0.1871509999036789 0.1541769951581955
0.04252040013670921 0.5650020241737366 0.1539130061864853
0.03665199875831604 0.5650050044059753 0.15228700637817383
0.03438299894332886 0.5838990211486816 0.15162299573421478
0.032440200448036194 0.6030619740486145 0.15095999836921692
0.031149299815297127 0.6219559907913208 0.15062099695205688
0.030836699530482292 0.6411179900169373 0.15060800313949585
0.03117630071938038 0.6605499982833862 0.15059399604797363
0.033146198838949203 0.6802520155906677 0.15123100578784943
0.036746200174093246 0.6999520063400269 0.15219299495220184
0.046544499695301056 0.7253170013427734 0.15477600693702698
0.061557698994874954 0.7487900257110596 0.15865999460220337
0.07983029633760452 0.7709119915962219 0.16352200508117676
0.09875410050153732 0.7916839718818665 0.16870899498462677
0.11507000029087067 0.8132669925689697 0.17292000353336334
0.1268240064382553 0.837552011013031 0.1761550009250641
0.13140499591827393 0.861840009689331 0.17711199820041656
0.13082799315452576 0.9697980284690857 0.17703700065612793
0.05488409847021103 0.025234099477529526 0.19470000267028809
0.030876200646162033 0.18718700110912323 0.19460399448871613
0.03674349933862686 0.18718299269676208 0.1945990025997162
0.037007298320531845 0.5650339722633362 0.1943349987268448
0.031140100210905075 0.5650389790534973 0.19434000551700592
0.028871599584817886 0.5839329957962036 0.19432799518108368
0.026929199695587158 0.6030970215797424 0.19431599974632263
0.025638500228524208 0.6219900250434875 0.19430400431156158
0.02500000037252903 0.6411529779434204 0.19429099559783936
0.02566549926996231 0.6605849862098694 0.19427700340747833
0.02763500064611435 0.6802859902381897 0.19426199793815613
0.031234299764037132 0.6999850273132324 0.19424499571323395
0.04135670140385628 0.7253479957580566 0.19422000646591187
0.05701909959316254 0.7488179802894592 0.1941930055618286
0.07594019919633865 0.7709360122680664 0.1941639930009842
0.09518630057573318 0.7917050123214722 0.19413700699806213
0.11247699707746506 0.8132839798927307 0.1941089928150177
0.12455499917268753 0.8375660181045532 0.19408400356769562
0.12913499772548676 0.8618530035018921 0.19406400620937347
0.1285579949617386 0.9698110222816467 0.19398899376392365
0.05947279930114746 0.02525619976222515 0.23087799549102783
0.03644710034132004 0.1872130036354065 0.23697400093078613
0.04231330007314682 0.18720799684524536 0.23533999919891357
0.042577099055051804 0.5650590062141418 0.23507599532604218
0.03671099990606308 0.565064013004303 0.23670999705791473
0.03444270044565201 0.5839589834213257 0.23702499270439148
0.032500799745321274 0.6031230092048645 0.23766499757766724
0.03121040016412735 0.6220170259475708 0.237977996468544
0.030897999182343483 0.6411799788475037 0.23829099535942078
0.031237300485372543 0.6606109738349915 0.23795099556446075
0.033206600695848465 0.6803119778633118 0.23760999739170074
0.036805201321840286 0.7000110149383545 0.23661600053310394
0.04659989848732948 0.7253720164299011 0.23398399353027344
0.06160740181803703 0.7488399744033813 0.22971899807453156
0.07987309992313385 0.7709550261497498 0.22480200231075287
0.09878980368375778 0.7917199730873108 0.21988500654697418
0.11509999632835388 0.8132969737052917 0.2152950018644333
0.1268489956855774 0.8375769853591919 0.212336003780365
0.13142900168895721 0.8618639707565308 0.21101200580596924
0.13085199892520905 0.9698219895362854 0.2109369933605194
0.07351230084896088 0.02526959963142872 0.26421400904655457
0.05277249962091446 0.1872289925813675 0.27614301443099976
0.05798570066690445 0.18722300231456757 0.2731409966945648
0.05824949964880943 0.5650749802589417 0.2728770077228546
0.05303629860281944 0.5650799870491028 0.27587899565696716
0.05109449848532677 0.5839750170707703 0.2770079970359802
0.04947879910469055 0.6031389832496643 0.277974009513855
0.0481887012720108 0.6220329999923706 0.2786790132522583
0.047550298273563385 0.6411960124969482 0.2789260149002075
0.048215601593256 0.6606280207633972 0.27865201234817505
0.049858398735523224 0.6803280115127563 0.27762600779533386
0.05313050001859665 0.7000269889831543 0.27578499913215637
0.0619455985724926 0.7253879904747009 0.2707740068435669
0.07532089948654175 0.7488539814949036 0.26295799016952515
0.09195359796285629 0.7709670066833496 0.2534779906272888
0.10858500003814697 0.7917299866676331 0.24367299675941467
0.12326200306415558 0.8133050203323364 0.23517300188541412
0.1340319961309433 0.8375840187072754 0.2289550006389618
0.13795900344848633 0.8618699908256531 0.22665399312973022
0.13738200068473816 0.9698280096054077 0.2269050031900406
0.09569759666919708 0.02527429908514023 0.29298099875450134
0.07854679971933365 0.18723399937152863 0.30989500880241394
0.08278129994869232 0.1872289925813675 0.30565398931503296
0.0830451026558876 0.5650799870491028 0.30539000034332275
0.07881060242652893 0.5650860071182251 0.30963000655174255
0.07752110064029694 0.5839800238609314 0.31121501326560974
0.0759057030081749 0.6031450033187866 0.31260499358177185
0.07494170218706131 0.6220390200614929 0.3135699927806854
0.07462940365076065 0.6412019729614258 0.31394800543785095
0.0749685987830162 0.6606339812278748 0.3135429918766022
0.07628519833087921 0.6803339719772339 0.3121269941329956
0.07890480011701584 0.7000330090522766 0.30953601002693176
0.08608870208263397 0.7253929972648621 0.30243998765945435
0.09717989712953568 0.7488579750061035 0.291267991065979
0.11055000126361847 0.7709710001945496 0.277878999710083
0.12424600124359131 0.7917330265045166 0.2641969919204712
0.13631300628185272 0.8133080005645752 0.25211301445961
0.14512500166893005 0.837585985660553 0.24361500144004822
0.1483989953994751 0.8618720173835754 0.24033699929714203
0.1478230059146881 0.9698299765586853 0.2405879944562912
0.12439700216054916 0.02526959963142872 0.31502801179885864
0.11246500164270401 0.1872289925813675 0.3356870114803314
0.11539500206708908 0.18722300231456757 0.330469012260437
0.1156580001115799 0.5650740265846252 0.3302049934864044
0.11272799968719482 0.5650799870491028 0.33542299270629883
0.11176499724388123 0.5839750170707703 0.3373660147190094
0.11080200225114822 0.6031389832496643 0.3389829993247986
0.10983800143003464 0.6220329999923706 0.34027400612831116
0.10952600091695786 0.6411960124969482 0.34091299772262573
0.10986500233411789 0.6606280207633972 0.3402470052242279
0.11085499823093414 0.6803280115127563 0.3386029899120331
0.1128230020403862 0.7000269889831543 0.33532801270484924
0.11772400140762329 0.7253879904747009 0.3267349898815155
0.12588000297546387 0.7488530278205872 0.31305500864982605
0.1350100040435791 0.7709670066833496 0.2966670095920563
0.14479200541973114 0.7917299866676331 0.27989399433135986
0.15327200293540955 0.8133050203323364 0.2650749981403351
0.15947499871253967 0.8375840187072754 0.25468799471855164
0.16177000105381012 0.8618699908256531 0.25043201446533203
0.16152000427246094 0.9698280096054077 0.2510089874267578
0.1579809933900833 0.025255899876356125 0.32888999581336975
0.1519169956445694 0.1872130036354065 0.3519569933414459
0.15321700274944305 0.18720799684524536 0.3460890054702759
0.15347999334335327 0.5650590062141418 0.3458249866962433
0.1521809995174408 0.565064013004303 0.3516930043697357
0.1515440046787262 0.5839589834213257 0.3539620041847229
0.15090599656105042 0.6031230092048645 0.3559049963951111
0.15059499442577362 0.6220170259475708 0.35719600319862366
0.15060800313949585 0.6411799788475037 0.35783401131629944
0.15062199532985687 0.6606109738349915 0.3571690022945404
0.15128600597381592 0.6803119778633118 0.35519900918006897
0.1522749960422516 0.7000110149383545 0.3515990078449249
0.15489399433135986 0.7253720164299011 0.3421269953250885
0.15881100296974182 0.7488399744033813 0.32672199606895447
0.16370299458503723 0.7709550261497498 0.30848199129104614
0.16872400045394897 0.7917199730873108 0.2897869944572449
0.17316100001335144 0.8132969737052917 0.2732419967651367
0.17629900574684143 0.8375769853591919 0.26152101159095764
0.17748600244522095 0.8618639707565308 0.25694000720977783
0.17743100225925446 0.9698219895362854 0.257517009973526
0.3563989996910095 0.18943899869918823 0.19426700472831726
0.35207599401474 0.18943899869918823 0.15703000128269196
0.3401069939136505 0.18943899869918823 0.12278400361537933
0.3208230137825012 0.18943899869918823 0.09286139905452728
0.2955549955368042 0.18943899869918823 0.06759309768676758
0.2656320035457611 0.18943899869918823 0.04830930009484291
0.23138700425624847 0.18943899869918823 0.036340098828077316
0.19414900243282318 0.18943899869918823 0.03201790153980255
0.15691199898719788 0.18943899869918823 0.036340098828077316
0.12266600131988525 0.18943899869918823 0.04830930009484291
0.0927433967590332 0.18943899869918823 0.06759309768676758
0.0674751028418541 0.18943899869918823 0.09286139905452728
0.04819139838218689 0.18943899869918823 0.12278400361537933
0.036222200840711594 0.18943899869918823 0.15703000128269196
0.03189999982714653 0.18943899869918823 0.19426700472831726
0.036222200840711594 0.18943899869918823 0.23150500655174255
0.04819139838218689 0.18943899869918823 0.265749990940094
0.0674751028418541 0.18943899869918823 0.2956730127334595
0.0927433967590332 0.18943899869918823 0.3209410011768341
0.12266600131988525 0.18943899869918823 0.3402250111103058
0.15691199898719788 0.18943899869918823 0.35219401121139526
0.19414900243282318 0.18943899869918823 0.3565160036087036
0.23138700425624847 0.18943899869918823 0.35219401121139526
0.2656320035457611 0.18943899869918823 0.3402250111103058
0.2955549955368042 0.18943899869918823 0.3209410011768341
0.3208230137825012 0.18943899869918823 0.2956730127334595
0.3401069939136505 0.18943899869918823 0.265749990940094
0.35207599401474 0.18943899869918823 0.23150500655174255
0.3563989996910095 0.5642920136451721 0.19426700472831726
0.35207599401474 0.5642920136451721 0.15703000128269196
0.3401069939136505 0.5642920136451721 0.12278400361537933
0.3208230137825012 0.5642920136451721 0.09286139905452728
0.2955549955368042 0.5642920136451721 0.06759309768676758
0.2656320035457611 0.5642920136451721 0.04830930009484291
0.23138700425624847 0.5642920136451721 0.036340098828077316
0.19414900243282318 0.5642920136451721 0.03201790153980255
0.15691199898719788 0.5642920136451721 0.036340098828077316
0.12266600131988525 0.5642920136451721 0.04830930009484291
0.0927433967590332 0.5642920136451721 0.06759309768676758
0.0674751028418541 0.5642920136451721 0.09286139905452728
0.04819139838218689 0.5642920136451721 0.12278400361537933
0.036222200840711594 0.5642920136451721 0.15703000128269196
0.03189999982714653 0.5642920136451721 0.19426700472831726
0.036222200840711594 0.5642920136451721 0.23150500655174255
0.04819139838218689 0.5642920136451721 0.265749990940094
0.0674751028418541 0.5642920136451721 0.2956730127334595
0.0927433967590332 0.5642920136451721 0.3209410011768341
0.12266600131988525 0.5642920136451721 0.3402250111103058
0.15691199898719788 0.5642920136451721 0.35219401121139526
0.19414900243282318 0.5642920136451721 0.3565160036087036
0.23138700425624847 0.5642920136451721 0.35219401121139526
0.2656320035457611 0.5642920136451721 0.3402250111103058
0.2955549955368042 0.5642920136451721 0.3209410011768341
0.3208230137825012 0.5642920136451721 0.2956730127334595
0.3401069939136505 0.5642920136451721 0.265749990940094
0.35207599401474 0.5642920136451721 0.23150500655174255
0.2569110095500946 0.9750000238418579 0.23986700177192688
0.2569110095500946 0.8641740083694458 0.23986700177192688
0.19414900243282318 0.8641740083694458 0.19426700472831726
0.19414900243282318 0.9750000238418579 0.19426700472831726
0.21812200546264648 0.9750000238418579 0.2680479884147644
0.21812200546264648 0.8641740083694458 0.2680479884147644
0.17017599940299988 0.9750000238418579 0.2680479884147644
0.17017599940299988 0.8641740083694458 0.2680479884147644
0.13138699531555176 0.9750000238418579 0.23986700177192688
0.13138699531555176 0.8641740083694458 0.23986700177192688
0.11657100170850754 0.9750000238418579 0.19426700472831726
0.11657100170850754 0.8641740083694458 0.19426700472831726
0.13138699531555176 0.9750000238418579 0.14866800606250763
0.13138699531555176 0.8641740083694458 0.14866800606250763
0.17017599940299988 0.9750000238418579 0.12048599869012833
0.17017599940299988 0.8641740083694458 0.12048599869012833
0.21812200546264648 0.9750000238418579 0.12048599869012833
0.21812200546264648 0.8641740083694458 0.12048599869012833
0.2569110095500946 0.9750000238418579 0.14866800606250763
0.2569110095500946 0.8641740083694458 0.14866800606250763
0.2717269957065582 0.9750000238418579 0.19426700472831726
0.2717269957065582 0.8641740083694458 0.19426700472831726
3 0 22 1
3 1 23 2
3 1 22 23
3 2 24 3
3 2 23 24
3 3 25 4
3 3 24 25
3 4 26 5
3 4 25 26
3 5 27 6
3 5 26 27
3 6 28 7
3 6 27 28
3 7 29 8
3 7 28 29
3 8 30 9
3 8 29 30
3 9 31 10
3 9 30 31
3 10 32 11
3 10 31 32
3 11 33 12
3 11 32 33
3 12 34 13
3 12 33 34
3 13 35 14
3 13 34 35
3 14 36 15
3 14 35 36
3 15 37 16
3 15 36 37
3 16 38 17
3 16 37 38
3 17 39 18
3 17 38 39
3 18 40 19
3 18 39 40
3 19 41 20
3 19 40 41
3 20 41 21
3 0 42 22
3 22 43 23
3 22 42 43
3 23 44 24
3 23 43 44
3 24 45 25
3 24 44 45
3 25 46 26
3 25 45 46
3 26 47 27
3 26 46 47
3 27 48 28
3 27 47 48
3 28 49 29
3 28 48 49
3 29 50 30
3 29 49 50
3 30 51 31
3 30 50 51
3 31 52 32
3 31 51 52
3 32 53 33
3 32 52 53
3 33 54 34
3 33 53 54
3 34 55 35
3 34 54 55
3 35 56 36
3 35 55 56
3 36 57 37
3 36 56 57
3 37 58 38
3 37 57 58
3 38 59 39
3 38 58 59
3 39 60 40
3 39 59 60
3 40 61 41
3 40 60 61
3 41 61 21
3 0 62 42
3 42 63 43
3 42 62 63
3 43 64 44
3 43 63 64
3 44 65 45
3 44 64 65
3 45 66 46
3 45 65 66
3 46 67 47
3 46 66 67
3 47 68 48
3 47 67 68
3 48 69 49
3 48 68 69
3 49 70 50
3 49 69 70
3 50 71 51
3 50 70 71
3 51 72 52
3 51 71 72
3 52 73 53
3 52 72 73
3 53 74 54
3 53 73 74
3 54 75 55
3 54 74 75
3 55 76 56
3 55 75 76
3 56 77 57
3 56 76 77
3 57 78 58
3 57 77 78
3 58 79 59
3 58 78 79
3 59 80 60
3 59 79 80
3 60 81 61
3 60 80 81
3 61 81 21
3 0 82 62
3 62 83 63
3 62 82 83
3 63 84 64
3 63 83 84
3 64 85 65
3 64 84 85
3 65 86 66
3 65 85 86
3 66 87 67
3 66 86 87
3 67 88 68
3 67 87 88
3 68 89 69
3 68 88 89
3 69 90 70
3 69 89 90
3 70 91 71
3 70 90 91
3 71 92 72
3 71 91 92
3 72 93 73
3 72 92 93
3 73 94 74
3 73 93 94
3 74 95 75
3 74 94 95
3 75 96 76
3 75 95 96
3 76 97 77
3 76 96 97
3 77 98 78
3 77 97 98
3 78 99 79
3 78 98 99
3 79 100 80
3 79 99 100
3 80 101 81
3 80 100 101
3 81 101 21
3 0 102 82
3 82 103 83
3 82 102 103
3 83 104 84
3 83 103 104
3 84 105 85
3 84 104 105
3 85 106 86
3 85 105 106
3 86 107 87
3 86 106 107
3 87 108 88
3 87 107 108
3 88 109 89
3 88 108 109
3 89 110 90
3 89 109 110
3 90 111 91
3 90 110 111
3 91 112 92
3 91 111 112
3 92 113 93
3 92 112 113
3 93 114 94
3 93 113 114
3 94 115 95
3 94 114 115
3 95 116 96
3 95 115 116
3 96 117 97
3 96 116 117
3 97 118 98
3 97 117 118
3 98 119 99
3 98 118 119
3 99 120 100
3 99 119 120
3 100 121 101
3 100 120 121
3 101 121 21
3 0 122 102
3 102 123 103
3 102 122 123
3 103 124 104
3 103 123 124
3 104 125 105
3 104 124 125
3 105 126 106
3 105 125 126
3 106 127 107
3 106 126 127
3 107 128 108
3 107 127 128
3 108 129 109
3 108 128 129
3 109 130 110
3 109 129 130
3 110 131 111
3 110 130 131
3 111 132 112
3 111 131 132
3 112 133 113
3 112 132 133
3 113 134 114
3 113 133 134
3 114 135 115
3 114 134 135
3 115 136 116
3 115 135 136
3 116 137 117
3 116 136 137
3 117 138 118
3 117 137 138
3 118 139 119
3 118 138 139
3 119 140 120
3 119 139 140
3 120 141 121
3 120 140 141
3 121 141 21
3 0 142 122
3 122 143 123
3 122 142 143
3 123 144 124
3 123 143 144
3 124 145 125
3 124 144 145
3 125 146 126
3 125 145 146
3 126 147 127
3 126 146 147
3 127 148 128
3 127 147 148
3 128 149 129
3 128 148 149
3 129 150 130
3 129 149 150
3 130 151 131
3 130 150 151
3 131 152 132
3 131 151 152
3 132 153 133
3 132 152 153
3 133 154 134
3 133 153 154
3 134 155 135
3 134 154 155
3 135 156 136
3 135 155 156
3 136 157 137
3 136 156 157
3 137 158 138
3 137 157 158
3 138 159 139
3 138 158 159
3 139 160 140
3 139 159 160
3 140 161 141
3 140 160 161
3 141 161 21
3 0 162 142
3 142 163 143
3 142 162 163
3 143 164 144
3 143 163 164
3 144 165 145
3 144 164 165
3 145 166 146
3 145 165 166
3 146 167 147
3 146 166 167
3 147 168 148
3 147 167 168
3 148 169 149
3 148 168 169
3 149 170 150
3 149 169 170
3 150 171 151
3 150 170 171
3 151 172 152
3 151 171 172
3 152 173 153
3 152 172 173
3 153 174 154
3 153 173 174
3 154 175 155
3 154 174 175
3 155 176 156
3 155 175 176
3 156 177 157
3 156 176 177
3 157 178 158
3 157 177 178
3 158 179 159
3 158 178 179
3 159 180 160
3 159 179 180
3 160 181 161
3 160 180 181
3 161 182 21
3 161 181 182
3 0 184 162
3 0 183 184
3 162 185 163
3 162 184 185
3 163 186 164
3 163 185 186
3 164 187 165
3 164 186 187
3 165 188 166
3 165 187 188
3 166 189 167
3 166 188 189
3 167 190 168
3 167 189 190
3 168 191 169
3 168 190 191
3 169 192 170
3 169 191 192
3 170 193 171
3 170 192 193
3 171 194 172
3 171 193 194
3 172 195 173
3 172 194 195
3 173 196 174
3 173 195 196
3 174 197 175
3 174 196 197
3 175 198 176
3 175 197 198
3 176 199 177
3 176 198 199
3 177 200 178
3 177 199 200
3 178 201 179
3 178 200 201
3 179 202 180
3 179 201 202
3 180 203 181
3 180 202 203
3 181 204 182
3 181 203 204
3 183 206 184
3 183 205 206
3 184 207 185
3 184 206 207
3 185 208 186
3 185 207 208
3 186 209 187
3 186 208 209
3 187 210 188
3 187 209 210
3 188 211 189
3 188 210 211
3 189 212 190
3 189 211 212
3 190 213 191
3 190 212 213
3 191 214 192
3 191 213 214
3 192 215 193
3 192 214 215
3 193 216 194
3 193 215 216
3 194 217 195
3 194 216 217
3 195 218 196
3 195 217 218
3 196 219 197
3 196 218 219
3 197 220 198
3 197 219 220
3 198 221 199
3 198 220 221
3 199 222 200
3 199 221 222
3 200 223 201
3 200 222 223
3 201 224 202
3 201 223 224
3 202 225 203
3 202 224 225
3 203 226 204
3 203 225 226
3 205 228 206
3 205 227 228
3 206 229 207
3 206 228 229
3 207 230 208
3 207 229 230
3 208 231 209
3 208 230 231
3 209 232 210
3 209 231 232
3 210 233 211
3 210 232 233
3 211 234 212
3 211 233 234
3 212 235 213
3 212 234 235
3 213 236 214
3 213 235 236
3 214 237 215
3 214 236 237
3 215 238 216
3 215 237 238
3 216 239 217
3 216 238 239
3 217 240 218
3 217 239 240
3 218 241 219
3 218 240 241
3 219 242 220
3 219 241 242
3 220 243 221
3 220 242 243
3 221 244 222
3 221 243 244
3 222 245 223
3 222 244 245
3 223 246 224
3 223 245 246
3 224 247 225
3 224 246 247
3 225 248 226
3 225 247 248
3 227 250 228
3 227 249 250
3 228 251 229
3 228 250 251
3 229 252 230
3 229 251 252
3 230 253 231
3 230 252 253
3 231 254 232
3 231 253 254
3 232 255 233
3 232 254 255
3 233 256 234
3 233 255 256
3 234 257 235
3 234 256 257
3 235 258 236
3 235 257 258
3 236 259 237
3 236 258 259
3 237 260 238
3 237 259 260
3 238 261 239
3 238 260 261
3 239 262 240
3 239 261 262
3 240 263 241
3 240 262 263
3 241 264 242
3 241 263 264
3 242 265 243
3 242 264 265
3 243 266 244
3 243 265 266
3 244 267 245
3 244 266 267
3 245 268 246
3 245 267 268
3 246 269 247
3 246 268 269
3 247 270 248
3 247 269 270
3 249 271 250
3 249 249 271
3 250 272 251
3 250 271 272
3 251 273 252
3 251 272 273
3 252 274 253
3 252 273 274
3 253 275 254
3 253 274 275
3 254 276 255
3 254 275 276
3 255 277 256
3 255 276 277
3 256 278 257
3 256 277 278
3 257 279 258
3 257 278 279
3 258 280 259
3 258 279 280
3 259 281 260
3 259 280 281
3 260 282 261
3 260 281 282
3 261 283 262
3 261 282 283
3 262 284 263
3 262 283 284
3 263 285 264
3 263 284 285
3 264 286 265
3 264 285 286
3 265 287 266
3 265 286 287
3 266 288 267
3 266 287 288
3 267 289 268
3 267 288 289
3 268 290 269
3 268 289 290
3 269 248 270
3 269 290 248
3 249 292 271
3 249 291 292
3 271 293 272
3 271 292 293
3 272 294 273
3 272 293 294
3 273 295 274
3 273 294 295
3 274 296 275
3 274 295 296
3 275 297 276
3 275 296 297
3 276 298 277
3 276 297 298
3 277 299 278
3 277 298 299
3 278 300 279
3 278 299 300
3 279 301 280
3 279 300 301
3 280 302 281
3 280 301 302
3 281 303 282
3 281 302 303
3 282 304 283
3 282 303 304
3 283 305 284
3 283 304 305
3 284 306 285
3 284 305 306
3 285 307 286
3 285 306 307
3 286 308 287
3 286 307 308
3 287 309 288
3 287 308 309
3 288 310 289
3 288 309 310
3 289 311 290
3 289 310 311
3 290 226 248
3 290 311 226
3 291 313 292
3 291 312 313
3 292 314 293
3 292 313 314
3 293 315 294
3 293 314 315
3 294 316 295
3 294 315 316
3 295 317 296
3 295 316 317
3 296 318 297
3 296 317 318
3 297 319 298
3 297 318 319
3 298 320 299
3 298 319 320
3 299 321 300
3 299 320 321
3 300 322 301
3 300 321 322
3 301 323 302
3 301 322 323
3 302 324 303
3 302 323 324
3 303 325 304
3 303 324 325
3 304 326 305
3 304 325 326
3 305 327 306
3 305 326 327
3 306 328 307
3 306 327 328
3 307 329 308
3 307 328 329
3 308 330 309
3 308 329 330
3 309 331 310
3 309 330 331
3 310 332 311
3 310 331 332
3 311 204 226
3 311 332 204
3 312 334 313
3 312 333 334
3 313 335 314
3 313 334 335
3 314 336 315
3 314 335 336
3 315 337 316
3 315 336 337
3 316 338 317
3 316 337 338
3 317 339 318
3 317 338 339
3 318 340 319
3 318 339 340
3 319 341 320
3 319 340 341
3 320 342 321
3 320 341 342
3 321 343 322
3 321 342 343
3 322 344 323
3 322 343 344
3 323 345 324
3 323 344 345
3 324 346 325
3 324 345 346
3 325 347 326
3 325 346 347
3 326 348 327
3 326 347 348
3 327 349 328
3 327 348 349
3 328 350 329
3 328 349 350
3 329 351 330
3 329 350 351
3 330 352 331
3 330 351 352
3 331 353 332
3 331 352 353
3 332 354 204
3 332 353 354
3 333 356 334
3 333 355 356
3 334 357 335
3 334 356 357
3 335 358 336
3 335 357 358
3 336 359 337
3 336 358 359
3 337 360 338
3 337 359 360
3 338 361 339
3 338 360 361
3 339 362 340
3 339 361 362
3 340 363 341
3 340 362 363
3 341 364 342
3 341 363 364
3 342 365 343
3 342 364 365
3 343 366 344
3 343 365 366
3 344 367 345
3 344 366 367
3 345 368 346
3 345 367 368
3 346 369 347
3 346 368 369
3 347 370 348
3 347 369 370
3 348 371 349
3 348 370 371
3 349 372 350
3 349 371 372
3 350 373 351
3 350 372 373
3 351 374 352
3 351 373 374
3 352 375 353
3 352 374 375
3 353 21 354
3 353 375 21
3 355 376 356
3 355 0 376
3 356 377 357
3 356 376 377
3 357 378 358
3 357 377 378
3 358 379 359
3 358 378 379
3 359 380 360
3 359 379 380
3 360 381 361
3 360 380 381
3 361 382 362
3 361 381 382
3 362 383 363
3 362 382 383
3 363 384 364
3 363 383 384
3 364 385 365
3 364 384 385
3 365 386 366
3 365 385 386
3 366 387 367
3 366 386 387
3 367 388 368
3 367 387 388
3 368 389 369
3 368 388 389
3 369 390 370
3 369 389 390
3 370 391 371
3 370 390 391
3 371 392 372
3 371 391 392
3 372 393 373
3 372 392 393
3 373 394 374
3 373 393 394
3 374 395 375
3 374 394 395
3 375 395 21
3 0 396 376
3 376 397 377
3 376 396 397
3 377 398 378
3 377 397 398
3 378 399 379
3 378 398 399
3 379 400 380
3 379 399 400
3 380 401 381
3 380 400 401
3 381 402 382
3 381 401 402
3 382 403 383
3 382 402 403
3 383 404 384
3 383 403 404
3 384 405 385
3 384 404 405
3 385 406 386
3 385 405 406
3 386 407 387
3 386 406 407
3 387 408 388
3 387 407 408
3 388 409 389
3 388 408 409
3 389 410 390
3 389 409 410
3 390 411 391
3 390 410 411
3 391 412 392
3 391 411 412
3 392 413 393
3 392 412 413
3 393 414 394
3 393 413 414
3 394 415 395
3 394 414 415
3 395 415 21
3 0 416 396
3 396 417 397
3 396 416 417
3 397 418 398
3 397 417 418
3 398 419 399
3 398 418 419
3 399 420 400
3 399 419 420
3 400 421 401
3 400 420 421
3 401 422 402
3 401 421 422
3 402 423 403
3 402 422 423
3 403 424 404
3 403 423 424
3 404 425 405
3 404 424 425
3 405 426 406
3 405 425 426
3 406 427 407
3 406 426 427
3 407 428 408
3 407 427 428
3 408 429 409
3 408 428 429
3 409 430 410
3 409 429 430
3 410 431 411
3 410 430 431
3 411 432 412
3 411 431 432
3 412 433 413
3 412 432 433
3 413 434 414
3 413 433 434
3 414 435 415
3 414 434 435
3 415 435 21
3 0 436 416
3 416 437 417
3 416 436 437
3 417 438 418
3 417 437 438
3 418 439 419
3 418 438 439
3 419 440 420
3 419 439 440
3 420 441 421
3 420 440 441
3 421 442 422
3 421 441 442
3 422 443 423
3 422 442 443
3 423 444 424
3 423 443 444
3 424 445 425
3 424 444 445
3 425 446 426
3 425 445 446
3 426 447 427
3 426 446 447
3 427 448 428
3 427 447 448
3 428 449 429
3 428 448 449
3 429 450 430
3 429 449 450
3 430 451 431
3 430 450 451
3 431 452 432
3 431 451 452
3 432 453 433
3 432 452 453
3 433 454 434
3 433 453 454
3 434 455 435
3 434 454 455
3 435 455 21
3 0 456 436
3 436 457 437
3 436 456 457
3 437 458 438
3 437 457 458
3 438 459 439
3 438 458 459
3 439 460 440
3 439 459 460
3 440 461 441
3 440 460 461
3 441 462 442
3 441 461 462
3 442 463 443
3 442 462 463
3 443 464 444
3 443 463 464
3 444 465 445
3 444 464 465
3 445 466 446
3 445 465 466
3 446 467 447
3 446 466 467
3 447 468 448
3 447 467 468
3 448 469 449
3 448 468 469
3 449 470 450
3 449 469 470
3 450 471 451
3 450 470 471
3 451 472 452
3 451 471 472
3 452 473 453
3 452 472 473
3 453 474 454
3 453 473 474
3 454 475 455
3 454 474 475
3 455 475 21
3 0 476 456
3 456 477 457
3 456 476 477
3 457 478 458
3 457 477 478
3 458 479 459
3 458 478 479
3 459 480 460
3 459 479 480
3 460 481 461
3 460 480 481
3 461 482 462
3 461 481 482
3 462 483 463
3 462 482 483
3 463 484 464
3 463 483 484
3 464 485 465
3 464 484 485
3 465 486 466
3 465 485 486
3 466 487 467
3 466 486 487
3 467 488 468
3 467 487 488
3 468 489 469
3 468 488 489
3 469 490 470
3 469 489 490
3 470 491 471
3 470 490 491
3 471 492 472
3 471 491 492
3 472 493 473
3 472 492 493
3 473 494 474
3 473 493 494
3 474 495 475
3 474 494 495
3 475 495 21
3 0 1 476
3 476 2 477
3 476 1 2
3 477 3 478
3 477 2 3
3 478 4 479
3 478 3 4
3 479 5 480
3 479 4 5
3 480 6 481
3 480 5 6
3 481 7 482
3 481 6 7
3 482 8 483
3 482 7 8
3 483 9 484
3 483 8 9
3 484 10 485
3 484 9 10
3 485 11 486
3 485 10 11
3 486 12 487
3 486 11 12
3 487 13 488
3 487 12 13
3 488 14 489
3 488 13 14
3 489 15 490
3 489 14 15
3 490 16 491
3 490 15 16
3 491 17 492
3 491 16 17
3 492 18 493
3 492 17 18
3 493 19 494
3 493 18 19
3 494 20 495
3 494 19 20
3 495 20 21
3 496 497 525
3 496 525 524
3 497 498 526
3 497 526 525
3 498 499 527
3 498 527 526
3 499 500 528
3 499 528 527
3 500 501 529
3 500 529 528
3 501 502 530
3 501 530 529
3 502 503 531
3 502 531 530
3 503 504 532
3 503 532 531
3 504 505 533
3 504 533 532
3 505 506 534
3 505 534 533
3 506 507 535
3 506 535 534
3 507 508 536
3 507 536 535
3 508 509 537
3 508 537 536
3 509 510 538
3 509 538 537
3 510 511 539
3 510 539 538
3 511 512 540
3 511 540 539
3 512 513 541
3 512 541 540
3 513 514 542
3 513 542 541
3 514 515 543
3 514 543 542
3 515 516 544
3 515 544 543
3 516 517 545
3 516 545 544
3 517 518 546
3 517 546 545
3 518 519 547
3 518 547 546
3 519 520 548
3 519 548 547
3 520 521 549
3 520 549 548
3 521 522 550
3 521 550 549
3 522 523 551
3 522 551 550
3 523 496 524
3 523 524 551
3 572 552 573
3 552 553 573
3 554 573 553
3 555 552 572
3 552 556 553
3 556 557 553
3 554 553 557
3 555 556 552
3 556 558 557
3 558 559 557
3 554 557 559
3 555 558 556
3 558 560 559
3 560 561 559
3 554 559 561
3 555 560 558
3 560 562 561
3 562 563 561
3 554 561 563
3 555 562 560
3 562 564 563
3 564 565 563
3 554 563 565
3 555 564 562
3 564 566 565
3 566 567 565
3 554 565 567
3 555 566 564
3 566 568 567
3 568 569 567
3 554 567 569
3 555 568 566
3 568 570 569
3 570 571 569
3 554 569 571
3 555 570 568
3 570 572 571
3 572 573 571
3 554 571 573
3 555 572 570
