ply
format ascii 1.0
element vertex 360
property float x
property float y
property float z
element face 728
property list uchar int vertex_indices
end_header
0.1600019931793213 0.1600019931793213 0.9750000238418579
0.2399040013551712 0.1600019931793213 0.9722279906272888
0.27021101117134094 0.1600019931793213 0.8471590280532837
0.29500800371170044 0.1600019931793213 0.6655330061912537
0.2894960045814514 0.1600019931793213 0.5718590021133423
0.28362399339675903 0.1600019931793213 0.5459910035133362
0.2779479920864105 0.1600019931793213 0.5207980275154114
0.2726530134677887 0.1600019931793213 0.4969559907913208
0.2679379880428314 0.1600019931793213 0.47513699531555176
0.2639940083026886 0.1600019931793213 0.4560199975967407
0.26101401448249817 0.1600019931793213 0.44027501344680786
0.25918999314308167 0.1600019931793213 0.4285779893398285
0.2567389905452728 0.1600019931793213 0.4171519875526428
0.2520020008087158 0.1600019931793213 0.4021570086479187
0.24536000192165375 0.1600019931793213 0.3841939866542816
0.2371930032968521 0.1600019931793213 0.3638499975204468
0.2278829962015152 0.1600019931793213 0.3417249917984009
0.2178100049495697 0.1600019931793213 0.3184089958667755
0.2073570042848587 0.1600019931793213 0.2944999933242798
0.2399040013551712 0.1600019931793213 0.20621399581432343
0.2399040013551712 0.1600019931793213 0.11644899845123291
0.212351992726326 0.1600019931793213 0.04504559934139252
0.16276000440120697 0.1600019931793213 0.02500000037252903
0.23382200300693512 0.1294260025024414 0.9722279906272888
0.261821985244751 0.11782799661159515 0.8471590280532837
0.2847299873828888 0.10833899676799774 0.6655330061912537
0.27963998913764954 0.11044599860906601 0.5718590021133423
0.2742159962654114 0.11269599944353104 0.5459910035133362
0.2689700126647949 0.11486800014972687 0.5207980275154114
0.2640779912471771 0.11689399927854538 0.4969559907913208
0.2597219944000244 0.11869899928569794 0.47513699531555176
0.25607800483703613 0.12020599842071533 0.4560199975967407
0.2533249855041504 0.12134700268507004 0.44027501344680786
0.2516399919986725 0.12204399704933167 0.4285779893398285
0.24937599897384644 0.12298200279474258 0.4171519875526428
0.2449990063905716 0.12479600310325623 0.4021570086479187
0.23886199295520782 0.1273380070924759 0.3841939866542816
0.23131699860095978 0.13046400249004364 0.3638499975204468
0.22271600365638733 0.13402600586414337 0.3417249917984009
0.21341000497341156 0.13788099586963654 0.3184089958667755
0.20375299453735352 0.14188100397586823 0.2944999933242798
0.23382200300693512 0.1294260025024414 0.20621399581432343
0.23382200300693512 0.1294260025024414 0.11644899845123291
0.20836800336837769 0.13997000455856323 0.04504559934139252
0.16255100071430206 0.15894800424575806 0.02500000037252903
0.21650199592113495 0.10350500047206879 0.9722279906272888
0.2379319965839386 0.08207319676876068 0.8471590280532837
0.2554660141468048 0.06454040110111237 0.6655330061912537
0.2515699863433838 0.06843580305576324 0.5718590021133423
0.24741800129413605 0.07258710265159607 0.5459910035133362
0.24340200424194336 0.07660330086946487 0.5207980275154114
0.23965899646282196 0.08034589886665344 0.4969559907913208
0.2363249957561493 0.08367969840765 0.47513699531555176
0.2335360050201416 0.08646979928016663 0.4560199975967407
0.23142899572849274 0.08857739716768265 0.44027501344680786
0.23013900220394135 0.08986759930849075 0.4285779893398285
0.22840599715709686 0.0915985032916069 0.4171519875526428
0.22505700588226318 0.0949501022696495 0.4021570086479187
0.22035899758338928 0.09964510053396225 0.3841939866542816
0.21458500623703003 0.10542099922895432 0.3638499975204468
0.2080010026693344 0.11200299859046936 0.3417249917984009
0.20087899267673492 0.11912599951028824 0.3184089958667755
0.19348600506782532 0.12651799619197845 0.2944999933242798
0.21650199592113495 0.10350500047206879 0.20621399581432343
0.21650199592113495 0.10350500047206879 0.11644899845123291
0.19701899588108063 0.12298599630594254 0.04504559934139252
0.1619500070810318 0.15805399417877197 0.02500000037252903
0.1600019931793213 0.1600019931793213 0.9750000238418579
0.19057899713516235 0.08618540316820145 0.9722279906272888
0.2021780014038086 0.05818549916148186 0.8471590280532837
0.211667999625206 0.03527519851922989 0.6655330061912537
0.20955899357795715 0.04036479815840721 0.5718590021133423
0.20731200277805328 0.045791998505592346 0.5459910035133362
0.20513899624347687 0.051038000732660294 0.5207980275154114
0.20311300456523895 0.05592859908938408 0.4969559907913208
0.2013089954853058 0.060282498598098755 0.47513699531555176
0.19979900121688843 0.06392910331487656 0.4560199975967407
0.1986590027809143 0.06667999923229218 0.44027501344680786
0.1979610025882721 0.0683647021651268 0.4285779893398285
0.19702300429344177 0.07062870264053345 0.4171519875526428
0.19520999491214752 0.07500749826431274 0.4021570086479187
0.19266900420188904 0.08114559948444366 0.3841939866542816
0.18954099714756012 0.08868759870529175 0.3638499975204468
0.18598000705242157 0.09729229658842087 0.3417249917984009
0.18212400376796722 0.10659699887037277 0.3184089958667755
0.17812499403953552 0.11625400185585022 0.2944999933242798
0.19057899713516235 0.08618540316820145 0.20621399581432343
0.19057899713516235 0.08618540316820145 0.11644899845123291
0.1800370067358017 0.11163700371980667 0.04504559934139252
0.1610579937696457 0.15745699405670166 0.02500000037252903
0.1600019931793213 0.08010060340166092 0.9722279906272888
0.1600019931793213 0.04979399964213371 0.8471590280532837
0.1600019931793213 0.02500000037252903 0.6655330061912537
0.1600019931793213 0.03050900064408779 0.5718590021133423
0.1600019931793213 0.036380499601364136 0.5459910035133362
0.1600019931793213 0.04206009954214096 0.5207980275154114
0.1600019931793213 0.047352299094200134 0.4969559907913208
0.1600019931793213 0.05206869915127754 0.47513699531555176
0.1600019931793213 0.05601390078663826 0.4560199975967407
0.1600019931793213 0.05899230018258095 0.44027501344680786
0.1600019931793213 0.06081559881567955 0.4285779893398285
0.1600019931793213 0.06326799839735031 0.4171519875526428
0.1600019931793213 0.06800570338964462 0.4021570086479187
0.1600019931793213 0.07464499771595001 0.3841939866542816
0.1600019931793213 0.08281250298023224 0.3638499975204468
0.1600019931793213 0.09212449938058853 0.3417249917984009
0.1600019931793213 0.10219699889421463 0.3184089958667755
0.1600019931793213 0.11264999955892563 0.2944999933242798
0.1600019931793213 0.08010060340166092 0.20621399581432343
0.1600019931793213 0.08010060340166092 0.11644899845123291
0.1600019931793213 0.10765299946069717 0.04504559934139252
0.1600019931793213 0.15724700689315796 0.02500000037252903
0.1600019931793213 0.1600019931793213 0.9750000238418579
0.1294260025024414 0.08618540316820145 0.9722279906272888
0.11782799661159515 0.05818549916148186 0.8471590280532837
0.10833899676799774 0.03527519851922989 0.6655330061912537
0.11044999957084656 0.04036479815840721 0.5718590021133423
0.11269599944353104 0.045791998505592346 0.5459910035133362
0.11486800014972687 0.051038000732660294 0.5207980275154114
0.11689399927854538 0.05592859908938408 0.4969559907913208
0.11869899928569794 0.060282498598098755 0.47513699531555176
0.12020999938249588 0.06392910331487656 0.4560199975967407
0.12134700268507004 0.06667999923229218 0.44027501344680786
0.12204699963331223 0.0683647021651268 0.4285779893398285
0.12298599630594254 0.07062870264053345 0.4171519875526428
0.1247979998588562 0.07500749826431274 0.4021570086479187
0.12733900547027588 0.08114559948444366 0.3841939866542816
0.13046400249004364 0.08868759870529175 0.3638499975204468
0.13402800261974335 0.09729229658842087 0.3417249917984009
0.13788099586963654 0.10659699887037277 0.3184089958667755
0.1418830007314682 0.11625400185585022 0.2944999933242798
0.1294260025024414 0.08618540316820145 0.20621399581432343
0.1294260025024414 0.08618540316820145 0.11644899845123291
0.13997100293636322 0.11164099723100662 0.04504559934139252
0.15895000100135803 0.15745699405670166 0.02500000037252903
0.1600019931793213 0.1600019931793213 0.9750000238418579
0.10350500047206879 0.10350500047206879 0.9722279906272888
0.08207680284976959 0.08207319676876068 0.8471590280532837
0.06454040110111237 0.06454040110111237 0.6655330061912537
0.0684392973780632 0.06843580305576324 0.5718590021133423
0.07259059697389603 0.07258710265159607 0.5459910035133362
0.07660689949989319 0.07660330086946487 0.5207980275154114
0.080349400639534 0.08034589886665344 0.4969559907913208
0.08368329703807831 0.08367969840765 0.47513699531555176
0.08646979928016663 0.08646979928016663 0.4560199975967407
0.08857739716768265 0.08857739716768265 0.44027501344680786
0.08986759930849075 0.08986759930849075 0.4285779893398285
0.09160199761390686 0.0915985032916069 0.4171519875526428
0.0949501022696495 0.0949501022696495 0.4021570086479187
0.09964869916439056 0.09964510053396225 0.3841939866542816
0.10542400181293488 0.10542099922895432 0.3638499975204468
0.11200699955224991 0.11200699955224991 0.3417249917984009
0.1191290020942688 0.11912599951028824 0.3184089958667755
0.12651799619197845 0.12651799619197845 0.2944999933242798
0.10350500047206879 0.10350500047206879 0.20621399581432343
0.10350500047206879 0.10350500047206879 0.11644899845123291
0.1229889988899231 0.12298599630594254 0.04504559934139252
0.15805499255657196 0.15805399417877197 0.02500000037252903
0.1600019931793213 0.1600019931793213 0.9750000238418579
0.08618540316820145 0.1294260025024414 0.9722279906272888
0.05818549916148186 0.11782799661159515 0.8471590280532837
0.03527519851922989 0.10833899676799774 0.6655330061912537
0.040368299931287766 0.11044599860906601 0.5718590021133423
0.045791998505592346 0.11269599944353104 0.5459910035133362
0.051038000732660294 0.11486800014972687 0.5207980275154114
0.05592859908938408 0.11689399927854538 0.4969559907913208
0.06028600037097931 0.11869899928569794 0.47513699531555176
0.06392910331487656 0.12020599842071533 0.4560199975967407
0.06668359786272049 0.12134700268507004 0.44027501344680786
0.06836819648742676 0.12204399704933167 0.4285779893398285
0.07063230127096176 0.12298200279474258 0.4171519875526428
0.07500749826431274 0.12479600310325623 0.4021570086479187
0.08114559948444366 0.1273380070924759 0.3841939866542816
0.0886911004781723 0.13046400249004364 0.3638499975204468
0.09729229658842087 0.13402600586414337 0.3417249917984009
0.10659699887037277 0.13788099586963654 0.3184089958667755
0.11625400185585022 0.14188100397586823 0.2944999933242798
0.08618540316820145 0.1294260025024414 0.20621399581432343
0.08618540316820145 0.1294260025024414 0.11644899845123291
0.11164099723100662 0.13997000455856323 0.04504559934139252
0.15745800733566284 0.15894800424575806 0.02500000037252903
0.08010420203208923 0.1600019931793213 0.9722279906272888
0.04979759827256203 0.1600019931793213 0.8471590280532837
0.02500000037252903 0.1600019931793213 0.6655330061912537
0.03050900064408779 0.1600019931793213 0.5718590021133423
0.036380499601364136 0.1600019931793213 0.5459910035133362
0.04206009954214096 0.1600019931793213 0.5207980275154114
0.04735590144991875 0.1600019931793213 0.4969559907913208
0.05206869915127754 0.1600019931793213 0.47513699531555176
0.05601390078663826 0.1600019931793213 0.4560199975967407
0.05899230018258095 0.1600019931793213 0.44027501344680786
0.06081559881567955 0.1600019931793213 0.4285779893398285
0.06326799839735031 0.1600019931793213 0.4171519875526428
0.06800570338964462 0.1600019931793213 0.4021570086479187
0.07464849948883057 0.1600019931793213 0.3841939866542816
0.0828159973025322 0.1600019931793213 0.3638499975204468
0.09212449938058853 0.1600019931793213 0.3417249917984009
0.10219699889421463 0.1600019931793213 0.3184089958667755
0.11264999955892563 0.16000300645828247 0.2944999933242798
0.08010420203208923 0.16000300645828247 0.20621399581432343
0.08010420203208923 0.16000300645828247 0.11644899845123291
0.10765600204467773 0.16000300645828247 0.04504559934139252
0.15724800527095795 0.16000300645828247 0.02500000037252903
0.08618540316820145 0.19057899713516235 0.9722279906272888
0.05818549916148186 0.20217600464820862 0.8471590280532837
0.03527519851922989 0.21166600286960602 0.6655330061912537
0.040368299931287766 0.20955899357795715 0.5718590021133423
0.045791998505592346 0.20730899274349213 0.5459910035133362
0.051038000732660294 0.2051369994878769 0.5207980275154114
0.05592859908938408 0.20311099290847778 0.4969559907913208
0.06028600037097931 0.20130600035190582 0.47513699531555176
0.06392910331487656 0.19979900121688843 0.4560199975967407
0.06668359786272049 0.19865800440311432 0.44027501344680786
0.06836819648742676 0.1979610025882721 0.4285779893398285
0.07063230127096176 0.19702300429344177 0.4171519875526428
0.07500749826431274 0.19520899653434753 0.4021570086479187
0.08114559948444366 0.19266700744628906 0.3841939866542816
0.0886911004781723 0.18954099714756012 0.3638499975204468
0.09729229658842087 0.1859789937734604 0.3417249917984009
0.10659699887037277 0.18212400376796722 0.3184089958667755
0.11625400185585022 0.17812399566173553 0.2944999933242798
0.08618540316820145 0.19057899713516235 0.20621399581432343
0.08618540316820145 0.19057899713516235 0.11644899845123291
0.11164099723100662 0.18003599345684052 0.04504559934139252
0.15745800733566284 0.1610569953918457 0.02500000037252903
0.1600019931793213 0.1600019931793213 0.9750000238418579
0.10350500047206879 0.21649999916553497 0.9722279906272888
0.08207680284976959 0.2379319965839386 0.8471590280532837
0.06454040110111237 0.25546398758888245 0.6655330061912537
0.0684392973780632 0.251569002866745 0.5718590021133423
0.07259059697389603 0.24741800129413605 0.5459910035133362
0.07660689949989319 0.24340200424194336 0.5207980275154114
0.080349400639534 0.23965899646282196 0.4969559907913208
0.08368329703807831 0.2363249957561493 0.47513699531555176
0.08647330105304718 0.2335350066423416 0.4560199975967407
0.08857739716768265 0.23142699897289276 0.44027501344680786
0.08986759930849075 0.23013700544834137 0.4285779893398285
0.09160199761390686 0.22840599715709686 0.4171519875526428
0.0949501022696495 0.22505499422550201 0.4021570086479187
0.09964869916439056 0.22035999596118927 0.3841939866542816
0.10542400181293488 0.21458399295806885 0.3638499975204468
0.11200699955224991 0.2080020010471344 0.3417249917984009
0.1191290020942688 0.20087899267673492 0.3184089958667755
0.12651799619197845 0.19348600506782532 0.2944999933242798
0.10350500047206879 0.21649999916553497 0.20621399581432343
0.10350500047206879 0.21649999916553497 0.11644899845123291
0.1229889988899231 0.19701899588108063 0.04504559934139252
0.15805499255657196 0.1619510054588318 0.02500000037252903
0.1600019931793213 0.1600019931793213 0.9750000238418579
0.1294260025024414 0.23381899297237396 0.9722279906272888
0.11782799661159515 0.2618190050125122 0.8471590280532837
0.10833899676799774 0.2847299873828888 0.6655330061912537
0.11044999957084656 0.27963998913764954 0.5718590021133423
0.11269599944353104 0.2742129862308502 0.5459910035133362
0.11486800014972687 0.26896700263023376 0.5207980275154114
0.11689399927854538 0.26407599449157715 0.4969559907913208
0.11869899928569794 0.2597219944000244 0.47513699531555176
0.12020999938249588 0.25607600808143616 0.4560199975967407
0.12135100364685059 0.2533249855041504 0.44027501344680786
0.12204699963331223 0.2516399919986725 0.4285779893398285
0.12298599630594254 0.24937599897384644 0.4171519875526428
0.1247979998588562 0.24499699473381042 0.4021570086479187
0.12733900547027588 0.23885899782180786 0.3841939866542816
0.13046400249004364 0.23131699860095978 0.3638499975204468
0.13402800261974335 0.22271299362182617 0.3417249917984009
0.13788099586963654 0.2134079933166504 0.3184089958667755
0.1418830007314682 0.20375099778175354 0.2944999933242798
0.1294260025024414 0.23381899297237396 0.20621399581432343
0.1294260025024414 0.23381899297237396 0.11644899845123291
0.13997100293636322 0.20836800336837769 0.04504559934139252
0.15895000100135803 0.1625480055809021 0.02500000037252903
0.1600019931793213 0.1600019931793213 0.9750000238418579
0.1600019931793213 0.2399040013551712 0.9722279906272888
0.1600019931793213 0.27021101117134094 0.8471590280532837
0.1600019931793213 0.2950049936771393 0.6655330061912537
0.1600019931793213 0.2894960045814514 0.5718590021133423
0.1600019931793213 0.28362399339675903 0.5459910035133362
0.1600019931793213 0.27794501185417175 0.5207980275154114
0.1600019931793213 0.2726530134677887 0.4969559907913208
0.1600019931793213 0.26793599128723145 0.47513699531555176
0.1600019931793213 0.26399099826812744 0.4560199975967407
0.1600019931793213 0.261013001203537 0.44027501344680786
0.1600019931793213 0.25918900966644287 0.4285779893398285
0.1600019931793213 0.25673699378967285 0.4171519875526428
0.1600019931793213 0.25199899077415466 0.4021570086479187
0.1600019931793213 0.24536000192165375 0.3841939866542816
0.1600019931793213 0.23719200491905212 0.3638499975204468
0.1600019931793213 0.22788000106811523 0.3417249917984009
0.1600019931793213 0.21780799329280853 0.3184089958667755
0.1600019931793213 0.20735499262809753 0.2944999933242798
0.1600019931793213 0.2399040013551712 0.20621399581432343
0.1600019931793213 0.2399040013551712 0.11644899845123291
0.1600019931793213 0.212351992726326 0.04504559934139252
0.1600019931793213 0.1627579927444458 0.02500000037252903
0.19057899713516235 0.23381899297237396 0.9722279906272888
0.2021780014038086 0.2618190050125122 0.8471590280532837
0.211667999625206 0.2847299873828888 0.6655330061912537
0.20955899357795715 0.27963998913764954 0.5718590021133423
0.20731200277805328 0.2742129862308502 0.5459910035133362
0.20513899624347687 0.26896700263023376 0.5207980275154114
0.20311300456523895 0.26407599449157715 0.4969559907913208
0.2013089954853058 0.2597219944000244 0.47513699531555176
0.19979900121688843 0.25607600808143616 0.4560199975967407
0.1986590027809143 0.2533249855041504 0.44027501344680786
0.1979610025882721 0.2516399919986725 0.4285779893398285
0.19702300429344177 0.24937599897384644 0.4171519875526428
0.19520999491214752 0.24499699473381042 0.4021570086479187
0.19266900420188904 0.23885899782180786 0.3841939866542816
0.18954099714756012 0.23131699860095978 0.3638499975204468
0.18598000705242157 0.22271299362182617 0.3417249917984009
0.18212400376796722 0.2134079933166504 0.3184089958667755
0.17812499403953552 0.20375099778175354 0.2944999933242798
0.19057899713516235 0.23381899297237396 0.20621399581432343
0.19057899713516235 0.23381899297237396 0.11644899845123291
0.1800370067358017 0.20836800336837769 0.04504559934139252
0.1610579937696457 0.1625480055809021 0.02500000037252903
0.21650199592113495 0.21649999916553497 0.9722279906272888
0.2379319965839386 0.2379319965839386 0.8471590280532837
0.2554660141468048 0.25546398758888245 0.6655330061912537
0.2515699863433838 0.251569002866745 0.5718590021133423
0.24741800129413605 0.24741800129413605 0.5459910035133362
0.24340200424194336 0.24340200424194336 0.5207980275154114
0.23965899646282196 0.23965899646282196 0.4969559907913208
0.2363249957561493 0.2363249957561493 0.47513699531555176
0.2335360050201416 0.2335350066423416 0.4560199975967407
0.23142899572849274 0.23142699897289276 0.44027501344680786
0.23013900220394135 0.23013700544834137 0.4285779893398285
0.22840599715709686 0.22840599715709686 0.4171519875526428
0.22505700588226318 0.22505499422550201 0.4021570086479187
0.22035899758338928 0.22035999596118927 0.3841939866542816
0.21458500623703003 0.21458399295806885 0.3638499975204468
0.2080010026693344 0.2080020010471344 0.3417249917984009
0.20087899267673492 0.20087899267673492 0.3184089958667755
0.19348600506782532 0.19348600506782532 0.2944999933242798
0.21650199592113495 0.21649999916553497 0.20621399581432343
0.21650199592113495 0.21649999916553497 0.11644899845123291
0.19701899588108063 0.19701899588108063 0.04504559934139252
0.16195400059223175 0.1619510054588318 0.02500000037252903
0.23382200300693512 0.19057899713516235 0.9722279906272888
0.261821985244751 0.20217600464820862 0.8471590280532837
0.2847299873828888 0.21166600286960602 0.6655330061912537
0.27963998913764954 0.20955899357795715 0.5718590021133423
0.2742159962654114 0.20730899274349213 0.5459910035133362
0.2689700126647949 0.2051369994878769 0.5207980275154114
0.2640779912471771 0.20311099290847778 0.4969559907913208
0.2597219944000244 0.20130600035190582 0.47513699531555176
0.25607800483703613 0.19979900121688843 0.4560199975967407
0.2533249855041504 0.19865800440311432 0.44027501344680786
0.25164100527763367 0.1979610025882721 0.4285779893398285
0.24937599897384644 0.19702300429344177 0.4171519875526428
0.2449990063905716 0.19520899653434753 0.4021570086479187
0.23886199295520782 0.19266700744628906 0.3841939866542816
0.23131699860095978 0.18954099714756012 0.3638499975204468
0.22271600365638733 0.1859789937734604 0.3417249917984009
0.21341000497341156 0.18212400376796722 0.3184089958667755
0.20375299453735352 0.17812399566173553 0.2944999933242798
0.23382200300693512 0.19057899713516235 0.20621399581432343
0.23382200300693512 0.19057899713516235 0.11644899845123291
0.20836800336837769 0.18003499507904053 0.04504559934139252
0.16255100071430206 0.1610569953918457 0.02500000037252903
3 0 23 1
3 1 24 2
3 1 23 24
3 2 25 3
3 2 24 25
3 3 26 4
3 3 25 26
3 4 27 5
3 4 26 27
3 5 28 6
3 5 27 28
3 6 29 7
3 6 28 29
3 7 30 8
3 7 29 30
3 8 31 9
3 8 30 31
3 9 32 10
3 9 31 32
3 10 33 11
3 10 32 33
3 11 34 12
3 11 33 34
3 12 35 13
3 12 34 35
3 13 36 14
3 13 35 36
3 14 37 15
3 14 36 37
3 15 38 16
3 15 37 38
3 16 39 17
3 16 38 39
3 17 40 18
3 17 39 40
3 18 41 19
3 18 40 41
3 19 42 20
3 19 41 42
3 20 43 21
3 20 42 43
3 21 44 22
3 21 43 44
3 22 44 0
3 0 45 23
3 23 46 24
3 23 45 46
3 24 47 25
3 24 46 47
3 25 48 26
3 25 47 48
3 26 49 27
3 26 48 49
3 27 50 28
3 27 49 50
3 28 51 29
3 28 50 51
3 29 52 30
3 29 51 52
3 30 53 31
3 30 52 53
3 31 54 32
3 31 53 54
3 32 55 33
3 32 54 55
3 33 56 34
3 33 55 56
3 34 57 35
3 34 56 57
3 35 58 36
3 35 57 58
3 36 59 37
3 36 58 59
3 37 60 38
3 37 59 60
3 38 61 39
3 38 60 61
3 39 62 40
3 39 61 62
3 40 63 41
3 40 62 63
3 41 64 42
3 41 63 64
3 42 65 43
3 42 64 65
3 43 66 44
3 43 65 66
3 44 66 0
3 0 68 45
3 0 67 68
3 45 69 46
3 45 68 69
3 46 70 47
3 46 69 70
3 47 71 48
3 47 70 71
3 48 72 49
3 48 71 72
3 49 73 50
3 49 72 73
3 50 74 51
3 50 73 74
3 51 75 52
3 51 74 75
3 52 76 53
3 52 75 76
3 53 77 54
3 53 76 77
3 54 78 55
3 54 77 78
3 55 79 56
3 55 78 79
3 56 80 57
3 56 79 80
3 57 81 58
3 57 80 81
3 58 82 59
3 58 81 82
3 59 83 60
3 59 82 83
3 60 84 61
3 60 83 84
3 61 85 62
3 61 84 85
3 62 86 63
3 62 85 86
3 63 87 64
3 63 86 87
3 64 88 65
3 64 87 88
3 65 89 66
3 65 88 89
3 66 67 0
3 66 89 67
3 67 90 68
3 67 271 90
3 68 91 69
3 68 90 91
3 69 92 70
3 69 91 92
3 70 93 71
3 70 92 93
3 71 94 72
3 71 93 94
3 72 95 73
3 72 94 95
3 73 96 74
3 73 95 96
3 74 97 75
3 74 96 97
3 75 98 76
3 75 97 98
3 76 99 77
3 76 98 99
3 77 100 78
3 77 99 100
3 78 101 79
3 78 100 101
3 79 102 80
3 79 101 102
3 80 103 81
3 80 102 103
3 81 104 82
3 81 103 104
3 82 105 83
3 82 104 105
3 83 106 84
3 83 105 106
3 84 107 85
3 84 106 107
3 85 108 86
3 85 107 108
3 86 109 87
3 86 108 109
3 87 110 88
3 87 109 110
3 88 111 89
3 88 110 111
3 89 271 67
3 89 111 271
3 271 113 90
3 271 112 113
3 90 114 91
3 90 113 114
3 91 115 92
3 91 114 115
3 92 116 93
3 92 115 116
3 93 117 94
3 93 116 117
3 94 118 95
3 94 117 118
3 95 119 96
3 95 118 119
3 96 120 97
3 96 119 120
3 97 121 98
3 97 120 121
3 98 122 99
3 98 121 122
3 99 123 100
3 99 122 123
3 100 124 101
3 100 123 124
3 101 125 102
3 101 124 125
3 102 126 103
3 102 125 126
3 103 127 104
3 103 126 127
3 104 128 105
3 104 127 128
3 105 129 106
3 105 128 129
3 106 130 107
3 106 129 130
3 107 131 108
3 107 130 131
3 108 132 109
3 108 131 132
3 109 133 110
3 109 132 133
3 110 134 111
3 110 133 134
3 111 112 271
3 111 134 112
3 112 136 113
3 112 135 136
3 113 137 114
3 113 136 137
3 114 138 115
3 114 137 138
3 115 139 116
3 115 138 139
3 116 140 117
3 116 139 140
3 117 141 118
3 117 140 141
3 118 142 119
3 118 141 142
3 119 143 120
3 119 142 143
3 120 144 121
3 120 143 144
3 121 145 122
3 121 144 145
3 122 146 123
3 122 145 146
3 123 147 124
3 123 146 147
3 124 148 125
3 124 147 148
3 125 149 126
3 125 148 149
3 126 150 127
3 126 149 150
3 127 151 128
3 127 150 151
3 128 152 129
3 128 151 152
3 129 153 130
3 129 152 153
3 130 154 131
3 130 153 154
3 131 155 132
3 131 154 155
3 132 156 133
3 132 155 156
3 133 157 134
3 133 156 157
3 134 135 112
3 134 157 135
3 135 159 136
3 135 158 159
3 136 160 137
3 136 159 160
3 137 161 138
3 137 160 161
3 138 162 139
3 138 161 162
3 139 163 140
3 139 162 163
3 140 164 141
3 140 163 164
3 141 165 142
3 141 164 165
3 142 166 143
3 142 165 166
3 143 167 144
3 143 166 167
3 144 168 145
3 144 167 168
3 145 169 146
3 145 168 169
3 146 170 147
3 146 169 170
3 147 171 148
3 147 170 171
3 148 172 149
3 148 171 172
3 149 173 150
3 149 172 173
3 150 174 151
3 150 173 174
3 151 175 152
3 151 174 175
3 152 176 153
3 152 175 176
3 153 177 154
3 153 176 177
3 154 178 155
3 154 177 178
3 155 179 156
3 155 178 179
3 156 180 157
3 156 179 180
3 157 158 135
3 157 180 158
3 158 181 159
3 158 158 181
3 159 182 160
3 159 181 182
3 160 183 161
3 160 182 183
3 161 184 162
3 161 183 184
3 162 185 163
3 162 184 185
3 163 186 164
3 163 185 186
3 164 187 165
3 164 186 187
3 165 188 166
3 165 187 188
3 166 189 167
3 166 188 189
3 167 190 168
3 167 189 190
3 168 191 169
3 168 190 191
3 169 192 170
3 169 191 192
3 170 193 171
3 170 192 193
3 171 194 172
3 171 193 194
3 172 195 173
3 172 194 195
3 173 196 174
3 173 195 196
3 174 197 175
3 174 196 197
3 175 198 176
3 175 197 198
3 176 199 177
3 176 198 199
3 177 200 178
3 177 199 200
3 178 201 179
3 178 200 201
3 179 202 180
3 179 201 202
3 180 158 158
3 180 202 158
3 158 203 181
3 158 158 203
3 181 204 182
3 181 203 204
3 182 205 183
3 182 204 205
3 183 206 184
3 183 205 206
3 184 207 185
3 184 206 207
3 185 208 186
3 185 207 208
3 186 209 187
3 186 208 209
3 187 210 188
3 187 209 210
3 188 211 189
3 188 210 211
3 189 212 190
3 189 211 212
3 190 213 191
3 190 212 213
3 191 214 192
3 191 213 214
3 192 215 193
3 192 214 215
3 193 216 194
3 193 215 216
3 194 217 195
3 194 216 217
3 195 218 196
3 195 217 218
3 196 219 197
3 196 218 219
3 197 220 198
3 197 219 220
3 198 221 199
3 198 220 221
3 199 222 200
3 199 221 222
3 200 223 201
3 200 222 223
3 201 224 202
3 201 223 224
3 202 158 158
3 202 224 158
3 158 226 203
3 158 225 226
3 203 227 204
3 203 226 227
3 204 228 205
3 204 227 228
3 205 229 206
3 205 228 229
3 206 230 207
3 206 229 230
3 207 231 208
3 207 230 231
3 208 232 209
3 208 231 232
3 209 233 210
3 209 232 233
3 210 234 211
3 210 233 234
3 211 235 212
3 211 234 235
3 212 236 213
3 212 235 236
3 213 237 214
3 213 236 237
3 214 238 215
3 214 237 238
3 215 239 216
3 215 238 239
3 216 240 217
3 216 239 240
3 217 241 218
3 217 240 241
3 218 242 219
3 218 241 242
3 219 243 220
3 219 242 243
3 220 244 221
3 220 243 244
3 221 245 222
3 221 244 245
3 222 246 223
3 222 245 246
3 223 247 224
3 223 246 247
3 224 225 158
3 224 247 225
3 225 249 226
3 225 248 249
3 226 250 227
3 226 249 250
3 227 251 228
3 227 250 251
3 228 252 229
3 228 251 252
3 229 253 230
3 229 252 253
3 230 254 231
3 230 253 254
3 231 255 232
3 231 254 255
3 232 256 233
3 232 255 256
3 233 257 234
3 233 256 257
3 234 258 235
3 234 257 258
3 235 259 236
3 235 258 259
3 236 260 237
3 236 259 260
3 237 261 238
3 237 260 261
3 238 262 239
3 238 261 262
3 239 263 240
3 239 262 263
3 240 264 241
3 240 263 264
3 241 265 242
3 241 264 265
3 242 266 243
3 242 265 266
3 243 267 244
3 243 266 267
3 244 268 245
3 244 267 268
3 245 269 246
3 245 268 269
3 246 270 247
3 246 269 270
3 247 248 225
3 247 270 248
3 248 272 249
3 248 271 272
3 249 273 250
3 249 272 273
3 250 274 251
3 250 273 274
3 251 275 252
3 251 274 275
3 252 276 253
3 252 275 276
3 253 277 254
3 253 276 277
3 254 278 255
3 254 277 278
3 255 279 256
3 255 278 279
3 256 280 257
3 256 279 280
3 257 281 258
3 257 280 281
3 258 282 259
3 258 281 282
3 259 283 260
3 259 282 283
3 260 284 261
3 260 283 284
3 261 285 262
3 261 284 285
3 262 286 263
3 262 285 286
3 263 287 264
3 263 286 287
3 264 288 265
3 264 287 288
3 265 289 266
3 265 288 289
3 266 290 267
3 266 289 290
3 267 291 268
3 267 290 291
3 268 292 269
3 268 291 292
3 269 293 270
3 269 292 293
3 270 271 248
3 270 293 271
3 271 294 272
3 271 67 294
3 272 295 273
3 272 294 295
3 273 296 274
3 273 295 296
3 274 297 275
3 274 296 297
3 275 298 276
3 275 297 298
3 276 299 277
3 276 298 299
3 277 300 278
3 277 299 300
3 278 301 279
3 278 300 301
3 279 302 280
3 279 301 302
3 280 303 281
3 280 302 303
3 281 304 282
3 281 303 304
3 282 305 283
3 282 304 305
3 283 306 284
3 283 305 306
3 284 307 285
3 284 306 307
3 285 308 286
3 285 307 308
3 286 309 287
3 286 308 309
3 287 310 288
3 287 309 310
3 288 311 289
3 288 310 311
3 289 312 290
3 289 311 312
3 290 313 291
3 290 312 313
3 291 314 292
3 291 313 314
3 292 315 293
3 292 314 315
3 293 67 271
3 293 315 67
3 67 316 294
3 67 0 316
3 294 317 295
3 294 316 317
3 295 318 296
3 295 317 318
3 296 319 297
3 296 318 319
3 297 320 298
3 297 319 320
3 298 321 299
3 298 320 321
3 299 322 300
3 299 321 322
3 300 323 301
3 300 322 323
3 301 324 302
3 301 323 324
3 302 325 303
3 302 324 325
3 303 326 304
3 303 325 326
3 304 327 305
3 304 326 327
3 305 328 306
3 305 327 328
3 306 329 307
3 306 328 329
3 307 330 308
3 307 329 330
3 308 331 309
3 308 330 331
3 309 332 310
3 309 331 332
3 310 333 311
3 310 332 333
3 311 334 312
3 311 333 334
3 312 335 313
3 312 334 335
3 313 336 314
3 313 335 336
3 314 337 315
3 314 336 337
3 315 0 67
3 315 337 0
3 0 338 316
3 316 339 317
3 316 338 339
3 317 340 318
3 317 339 340
3 318 341 319
3 318 340 341
3 319 342 320
3 319 341 342
3 320 343 321
3 320 342 343
3 321 344 322
3 321 343 344
3 322 345 323
3 322 344 345
3 323 346 324
3 323 345 346
3 324 347 325
3 324 346 347
3 325 348 326
3 325 347 348
3 326 349 327
3 326 348 349
3 327 350 328
3 327 349 350
3 328 351 329
3 328 350 351
3 329 352 330
3 329 351 352
3 330 353 331
3 330 352 353
3 331 354 332
3 331 353 354
3 332 355 333
3 332 354 355
3 333 356 334
3 333 355 356
3 334 357 335
3 334 356 357
3 335 358 336
3 335 357 358
3 336 359 337
3 336 358 359
3 337 359 0
3 0 1 338
3 338 2 339
3 338 1 2
3 339 3 340
3 339 2 3
3 340 4 341
3 340 3 4
3 341 5 342
3 341 4 5
3 342 6 343
3 342 5 6
3 343 7 344
3 343 6 7
3 344 8 345
3 344 7 8
3 345 9 346
3 345 8 9
3 346 10 347
3 346 9 10
3 347 11 348
3 347 10 11
3 348 12 349
3 348 11 12
3 349 13 350
3 349 12 13
3 350 14 351
3 350 13 14
3 351 15 352
3 351 14 15
3 352 16 353
3 352 15 16
3 353 17 354
3 353 16 17
3 354 18 355
3 354 17 18
3 355 19 356
3 355 18 19
3 356 20 357
3 356 19 20
3 357 21 358
3 357 20 21
3 358 22 359
3 358 21 22
3 359 22 0
