ply
format ascii 1.0
element vertex 133
property float x
property float y
property float z
element face 290
property list uchar int vertex_indices
end_header
0.16920199990272522 0.02500689961016178 0.3025740087032318
0.26350799202919006 0.025005999952554703 0.2635129988193512
0.3025740087032318 0.025003500282764435 0.16920800507068634
0.26351699233055115 0.025001000612974167 0.07490020245313644
0.16921499371528625 0.02500000037252903 0.03582959994673729
0.07490459829568863 0.025001000612974167 0.07488220185041428
0.03582959994673729 0.025003500282764435 0.16918300092220306
0.0748777985572815 0.025005999952554703 0.26349499821662903
0.16920199990272522 0.044234100729227066 0.31340399384498596
0.27116599678993225 0.04423309862613678 0.2711710035800934
0.31340399384498596 0.04423040151596069 0.16920900344848633
0.27117499709129333 0.04422770068049431 0.06724280118942261
0.16921600699424744 0.04422660171985626 0.02500000037252903
0.06724759936332703 0.04422770068049431 0.06722400337457657
0.02500000037252903 0.04423040151596069 0.16918200254440308
0.06721919775009155 0.04423309862613678 0.27115100622177124
0.16920199990272522 0.4287729859352112 0.31340399384498596
0.27116599678993225 0.4287720024585724 0.2711710035800934
0.31340399384498596 0.42876899242401123 0.16920900344848633
0.27117499709129333 0.42876601219177246 0.06724280118942261
0.16921600699424744 0.4287649989128113 0.02500000037252903
0.06724759936332703 0.42876601219177246 0.06722400337457657
0.02500000037252903 0.42876899242401123 0.16918200254440308
0.06721919775009155 0.4287720024585724 0.27115100622177124
0.16920199990272522 0.8840929865837097 0.2413029968738556
0.22018399834632874 0.8840919733047485 0.2201859951019287
0.2413029968738556 0.8840910196304321 0.16920499503612518
0.22018900513648987 0.8840889930725098 0.11822299659252167
0.16920900344848633 0.8840889930725098 0.09710100293159485
0.11822500079870224 0.8840889930725098 0.1182129979133606
0.09710100293159485 0.8840910196304321 0.16919200122356415
0.11821000277996063 0.8840919733047485 0.22017699480056763
0.16920199990272522 0.8940330147743225 0.24490800499916077
0.2227330058813095 0.8940330147743225 0.22273500263690948
0.24490800499916077 0.8940309882164001 0.16920599341392517
0.22273799777030945 0.894029974937439 0.11567399650812149
0.16920900344848633 0.8940290212631226 0.09349589794874191
0.11567600071430206 0.894029974937439 0.11566299945116043
0.09349589794874191 0.8940309882164001 0.16919100284576416
0.11566100269556046 0.8940330147743225 0.2227250039577484
0.16920199990272522 0.9036459922790527 0.24490800499916077
0.2227330058813095 0.9036459922790527 0.22273500263690948
0.24490800499916077 0.9036440253257751 0.16920599341392517
0.22273799777030945 0.903643012046814 0.11567399650812149
0.16920900344848633 0.9036419987678528 0.09349589794874191
0.11567600071430206 0.903643012046814 0.11566299945116043
0.09349589794874191 0.9036440253257751 0.16919100284576416
0.11566100269556046 0.9036459922790527 0.2227250039577484
0.16920199990272522 0.9132590293884277 0.2396080046892166
0.21898600459098816 0.9132590293884277 0.21898800134658813
0.2396080046892166 0.9132580161094666 0.16920499503612518
0.2189899981021881 0.9132570028305054 0.11942099779844284
0.16920900344848633 0.9132559895515442 0.09879530221223831
0.11942300200462341 0.9132570028305054 0.11941099911928177
0.09879530221223831 0.9132580161094666 0.16919200122356415
0.1194090023636818 0.9132590293884277 0.21897900104522705
0.16920199990272522 0.9132590293884277 0.23256799578666687
0.21400700509548187 0.9132590293884277 0.21401000022888184
0.23256799578666687 0.9132580161094666 0.16920499503612518
0.2140119969844818 0.9132570028305054 0.12439899891614914
0.16920800507068634 0.9132559895515442 0.10583599656820297
0.12440100312232971 0.9132570028305054 0.12438999861478806
0.10583599656820297 0.9132580161094666 0.16919299960136414
0.12438800185918808 0.9132590293884277 0.21400099992752075
0.16920199990272522 0.9521179795265198 0.23256799578666687
0.21400700509548187 0.9521170258522034 0.21401000022888184
0.23256799578666687 0.9521160125732422 0.16920499503612518
0.2140119969844818 0.9521139860153198 0.12439899891614914
0.16920800507068634 0.9521139860153198 0.10583599656820297
0.12440100312232971 0.9521139860153198 0.12438999861478806
0.10583599656820297 0.9521160125732422 0.16919299960136414
0.12438800185918808 0.9521170258522034 0.21400099992752075
0.22809000313282013 0.9150019884109497 0.20319899916648865
0.23155400156974792 0.9190459847450256 0.2051980048418045
0.23155400156974792 0.9490000009536743 0.2051980048418045
0.22495900094509125 0.9673839807510376 0.20139099657535553
0.20903800427913666 0.9750000238418579 0.19220000505447388
0.2032029926776886 0.9150019884109497 0.22808800637722015
0.20520299673080444 0.9190459847450256 0.23155200481414795
0.20520299673080444 0.9490000009536743 0.23155200481414795
0.20139500498771667 0.9673839807510376 0.22495700418949127
0.19220300018787384 0.9750000238418579 0.2090359926223755
0.16920499503612518 0.9150019884109497 0.23719899356365204
0.16920499503612518 0.9190459847450256 0.24119900166988373
0.16920499503612518 0.9490000009536743 0.24119900166988373
0.16920499503612518 0.9673839807510376 0.23358400166034698
0.1692039966583252 0.9750000238418579 0.2152000069618225
0.13520699739456177 0.9150019884109497 0.22809100151062012
0.13320699334144592 0.9190459847450256 0.2315549999475479
0.13320699334144592 0.9490000009536743 0.2315549999475479
0.1370140016078949 0.9673839807510376 0.22495999932289124
0.14620499312877655 0.9750000238418579 0.20903900265693665
0.16920199990272522 0.9750000238418579 0.16920199990272522
0.11031699925661087 0.9150019884109497 0.20320400595664978
0.10685300081968307 0.9190459847450256 0.20520499348640442
0.10685300081968307 0.9490000009536743 0.20520499348640442
0.11344800144433975 0.9673839807510376 0.20139700174331665
0.12936800718307495 0.9750000238418579 0.19220399856567383
0.1012049987912178 0.9150019884109497 0.16920700669288635
0.09720499813556671 0.9190459847450256 0.16920700669288635
0.09720499813556671 0.9490000009536743 0.16920700669288635
0.10481999814510345 0.9673839807510376 0.16920700669288635
0.12320400029420853 0.9750000238418579 0.16920499503612518
0.11031199991703033 0.9150019884109497 0.13520799577236176
0.10684800148010254 0.9190459847450256 0.1332090049982071
0.10684800148010254 0.9490000009536743 0.1332090049982071
0.11344300210475922 0.9673839807510376 0.13701599836349487
0.1293639987707138 0.9750000238418579 0.14620600640773773
0.13519799709320068 0.9150019884109497 0.11031799763441086
0.13319799304008484 0.9190459847450256 0.10685399919748306
0.13319799304008484 0.9490000009536743 0.10685399919748306
0.1370059996843338 0.9673839807510376 0.11344800144433975
0.14619900286197662 0.9750000238418579 0.12936900556087494
0.1691949963569641 0.9150019884109497 0.1012049987912178
0.1691949963569641 0.9190459847450256 0.09720499813556671
0.1691949963569641 0.9490000009536743 0.09720499813556671
0.1691949963569641 0.9673839807510376 0.10481999814510345
0.1691969931125641 0.9750000238418579 0.12320400029420853
0.2031940072774887 0.9150019884109497 0.11031100153923035
0.20519299805164337 0.9190459847450256 0.10684700310230255
0.20519299805164337 0.9490000009536743 0.10684700310230255
0.20138700306415558 0.9673839807510376 0.11344199627637863
0.19219599664211273 0.9750000238418579 0.1293639987707138
0.228084996342659 0.9150019884109497 0.1351960003376007
0.2315489947795868 0.9190459847450256 0.13319599628448486
0.2315489947795868 0.9490000009536743 0.13319599628448486
0.2249550074338913 0.9673839807510376 0.13700400292873383
0.2090349942445755 0.9750000238418579 0.14619800448417664
0.23719899356365204 0.9150019884109497 0.16919299960136414
0.24119900166988373 0.9190459847450256 0.16919299960136414
0.24119900166988373 0.9490000009536743 0.16919299960136414
0.23358400166034698 0.9673839807510376 0.16919399797916412
0.2152000069618225 0.9750000238418579 0.1691959947347641
3 2 1 0
3 3 2 0
3 4 3 0
3 5 4 0
3 6 5 0
3 7 6 0
3 10 9 8
3 11 10 8
3 12 11 8
3 13 12 8
3 14 13 8
3 15 14 8
3 9 8 0
3 1 9 0
3 10 9 1
3 2 10 1
3 11 10 2
3 3 11 2
3 12 11 3
3 4 12 3
3 13 12 4
3 5 13 4
3 14 13 5
3 6 14 5
3 15 14 6
3 7 15 6
3 8 15 7
3 0 8 7
3 18 17 16
3 19 18 16
3 20 19 16
3 21 20 16
3 22 21 16
3 23 22 16
3 17 16 8
3 9 17 8
3 18 17 9
3 10 18 9
3 19 18 10
3 11 19 10
3 20 19 11
3 12 20 11
3 21 20 12
3 13 21 12
3 22 21 13
3 14 22 13
3 23 22 14
3 15 23 14
3 16 23 15
3 8 16 15
3 26 25 24
3 27 26 24
3 28 27 24
3 29 28 24
3 30 29 24
3 31 30 24
3 25 24 16
3 17 25 16
3 26 25 17
3 18 26 17
3 27 26 18
3 19 27 18
3 28 27 19
3 20 28 19
3 29 28 20
3 21 29 20
3 30 29 21
3 22 30 21
3 31 30 22
3 23 31 22
3 24 31 23
3 16 24 23
3 34 33 32
3 35 34 32
3 36 35 32
3 37 36 32
3 38 37 32
3 39 38 32
3 33 32 24
3 25 33 24
3 34 33 25
3 26 34 25
3 35 34 26
3 27 35 26
3 36 35 27
3 28 36 27
3 37 36 28
3 29 37 28
3 38 37 29
3 30 38 29
3 39 38 30
3 31 39 30
3 32 39 31
3 24 32 31
3 42 41 40
3 43 42 40
3 44 43 40
3 45 44 40
3 46 45 40
3 47 46 40
3 41 40 32
3 33 41 32
3 42 41 33
3 34 42 33
3 43 42 34
3 35 43 34
3 44 43 35
3 36 44 35
3 45 44 36
3 37 45 36
3 46 45 37
3 38 46 37
3 47 46 38
3 39 47 38
3 40 47 39
3 32 40 39
3 50 49 48
3 51 50 48
3 52 51 48
3 53 52 48
3 54 53 48
3 55 54 48
3 49 48 40
3 41 49 40
3 50 49 41
3 42 50 41
3 51 50 42
3 43 51 42
3 52 51 43
3 44 52 43
3 53 52 44
3 45 53 44
3 54 53 45
3 46 54 45
3 55 54 46
3 47 55 46
3 48 55 47
3 40 48 47
3 58 57 56
3 59 58 56
3 60 59 56
3 61 60 56
3 62 61 56
3 63 62 56
3 57 56 48
3 49 57 48
3 58 57 49
3 50 58 49
3 59 58 50
3 51 59 50
3 60 59 51
3 52 60 51
3 61 60 52
3 53 61 52
3 62 61 53
3 54 62 53
3 63 62 54
3 55 63 54
3 56 63 55
3 48 56 55
3 69 70 71
3 68 69 71
3 67 68 71
3 66 67 71
3 65 66 71
3 64 65 71
3 65 64 56
3 57 65 56
3 66 65 57
3 58 66 57
3 67 66 58
3 59 67 58
3 68 67 59
3 60 68 59
3 69 68 60
3 61 69 60
3 70 69 61
3 62 70 61
3 71 70 62
3 63 71 62
3 64 71 63
3 56 64 63
3 73 72 128
3 129 73 128
3 74 73 129
3 130 74 129
3 75 74 130
3 131 75 130
3 76 75 131
3 132 76 131
3 92 76 132
3 78 77 72
3 73 78 72
3 79 78 73
3 74 79 73
3 80 79 74
3 75 80 74
3 81 80 75
3 76 81 75
3 92 81 76
3 83 82 77
3 78 83 77
3 84 83 78
3 79 84 78
3 85 84 79
3 80 85 79
3 86 85 80
3 81 86 80
3 92 86 81
3 88 87 82
3 83 88 82
3 89 88 83
3 84 89 83
3 90 89 84
3 85 90 84
3 91 90 85
3 86 91 85
3 92 91 86
3 94 93 87
3 88 94 87
3 95 94 88
3 89 95 88
3 96 95 89
3 90 96 89
3 97 96 90
3 91 97 90
3 92 97 91
3 99 98 93
3 94 99 93
3 100 99 94
3 95 100 94
3 101 100 95
3 96 101 95
3 102 101 96
3 97 102 96
3 92 102 97
3 104 103 98
3 99 104 98
3 105 104 99
3 100 105 99
3 106 105 100
3 101 106 100
3 107 106 101
3 102 107 101
3 92 107 102
3 109 108 103
3 104 109 103
3 110 109 104
3 105 110 104
3 111 110 105
3 106 111 105
3 112 111 106
3 107 112 106
3 92 112 107
3 114 113 108
3 109 114 108
3 115 114 109
3 110 115 109
3 116 115 110
3 111 116 110
3 117 116 111
3 112 117 111
3 92 117 112
3 119 118 113
3 114 119 113
3 120 119 114
3 115 120 114
3 121 120 115
3 116 121 115
3 122 121 116
3 117 122 116
3 92 122 117
3 124 123 118
3 119 124 118
3 125 124 119
3 120 125 119
3 126 125 120
3 121 126 120
3 127 126 121
3 122 127 121
3 92 127 122
3 129 128 123
3 124 129 123
3 130 129 124
3 125 130 124
3 131 130 125
3 126 131 125
3 132 131 126
3 127 132 126
3 92 132 127
