ply
format ascii 1.0
element vertex 526
property float x
property float y
property float z
element face 936
property list uchar int vertex_indices
end_header
0.22100499272346497 0.46275201439857483 0.03387460112571716
0.2807680070400238 0.46275201439857483 0.09363769739866257
0.2860729992389679 0.08151990175247192 0.09894289821386337
0.21570000052452087 0.08151990175247192 0.0285692997276783
0.250887006521225 0.051389001309871674 0.06375610083341599
0.2860729992389679 0.44627198576927185 0.09894289821386337
0.250887006521225 0.4890269935131073 0.06375610083341599
0.21570000052452087 0.44627198576927185 0.0285692997276783
0.0285692997276783 0.44627198576927185 0.09894289821386337
0.06375599652528763 0.4890269935131073 0.06375610083341599
0.09894289821386337 0.44627198576927185 0.0285692997276783
0.06375599652528763 0.05138950049877167 0.06375610083341599
0.09894289821386337 0.08151990175247192 0.0285692997276783
0.09363719820976257 0.4627529978752136 0.03387460112571716
0.03387460112571716 0.46275201439857483 0.09363769739866257
0.0285692997276783 0.08151990175247192 0.09894289821386337
0.09363830089569092 0.46274998784065247 0.2807689905166626
0.03387349843978882 0.46275100111961365 0.22100499272346497
0.0285692997276783 0.08151990175247192 0.21570000052452087
0.09894289821386337 0.08151990175247192 0.2860729992389679
0.06375610083341599 0.05138929933309555 0.250887006521225
0.0285692997276783 0.44627198576927185 0.21570000052452087
0.06375599652528763 0.4890269935131073 0.250887006521225
0.09894289821386337 0.44627198576927185 0.2860729992389679
0.2860729992389679 0.44627198576927185 0.21570000052452087
0.250887006521225 0.4890269935131073 0.250887006521225
0.21570000052452087 0.44627198576927185 0.2860729992389679
0.250887006521225 0.05138919875025749 0.250887006521225
0.21570000052452087 0.08151990175247192 0.2860729992389679
0.22100600600242615 0.4627549946308136 0.2807669937610626
0.2807669937610626 0.4627549946308136 0.22100600600242615
0.2860729992389679 0.08151990175247192 0.21570000052452087
0.20708300173282623 0.4462440013885498 0.02500000037252903
0.21047799289226532 0.46275201439857483 0.0289900004863739
0.21142099797725677 0.4462440013885498 0.026713399216532707
0.19957900047302246 0.4627529978752136 0.02500000037252903
0.21570000052452087 0.4462440013885498 0.0285692997276783
0.2860729992389679 0.4462440013885498 0.09894289821386337
0.2856540083885193 0.46275201439857483 0.10416500270366669
0.2879289984703064 0.4462440013885498 0.10322199761867523
0.28964298963546753 0.4627529978752136 0.11506299674510956
0.28964298963546753 0.4462440013885498 0.10756000131368637
0.28964298963546753 0.4462440013885498 0.20708300173282623
0.2856540083885193 0.46275201439857483 0.21047799289226532
0.2879289984703064 0.4462440013885498 0.21142099797725677
0.28964298963546753 0.4627529978752136 0.19957999885082245
0.2860729992389679 0.4462440013885498 0.21570000052452087
0.21570000052452087 0.4462440013885498 0.2860729992389679
0.21047799289226532 0.46275201439857483 0.2856540083885193
0.21142099797725677 0.4462440013885498 0.2879289984703064
0.19957999885082245 0.4627529978752136 0.28964298963546753
0.20708300173282623 0.4462440013885498 0.28964298963546753
0.10755900293588638 0.4462440013885498 0.28964298963546753
0.1041639968752861 0.46275201439857483 0.2856540083885193
0.10322199761867523 0.4462440013885498 0.2879289984703064
0.11506199836730957 0.4627529978752136 0.28964298963546753
0.09894289821386337 0.4462440013885498 0.2860729992389679
0.0285692997276783 0.4462440013885498 0.21570000052452087
0.028988899663090706 0.46275201439857483 0.21047799289226532
0.026713399216532707 0.4462440013885498 0.21142099797725677
0.02500000037252903 0.46275201439857483 0.19957999885082245
0.02500000037252903 0.4462440013885498 0.20708300173282623
0.02500000037252903 0.4462440013885498 0.10756000131368637
0.028988899663090706 0.46275201439857483 0.10416500270366669
0.026713399216532707 0.4462440013885498 0.10322199761867523
0.02500000037252903 0.4627529978752136 0.11506299674510956
0.0285692997276783 0.4462440013885498 0.09894289821386337
0.09894289821386337 0.4462440013885498 0.0285692997276783
0.1041639968752861 0.46275201439857483 0.0289900004863739
0.10322199761867523 0.4462440013885498 0.026713399216532707
0.11506299674510956 0.4627529978752136 0.02500000037252903
0.10756000131368637 0.4462440013885498 0.02500000037252903
0.1573210060596466 0.4890249967575073 0.02500000037252903
0.19398100674152374 0.6347780227661133 0.06881739944219589
0.19957999885082245 0.46275201439857483 0.02500000037252903
0.1573210060596466 0.6347780227661133 0.06152519956231117
0.22505900263786316 0.6347780227661133 0.08958330005407333
0.24582499265670776 0.6347780227661133 0.12066199630498886
0.28964298963546753 0.4890269935131073 0.1573210060596466
0.25311800837516785 0.6347780227661133 0.1573210060596466
0.24582499265670776 0.6347780227661133 0.19398100674152374
0.2807680070400238 0.46275201439857483 0.22100499272346497
0.22505900263786316 0.6347780227661133 0.22505900263786316
0.19398100674152374 0.6347780227661133 0.24582499265670776
0.22100499272346497 0.46275201439857483 0.2807680070400238
0.1573210060596466 0.4890269935131073 0.28964298963546753
0.19958099722862244 0.46275201439857483 0.28964298963546753
0.1573210060596466 0.6347780227661133 0.25311800837516785
0.12066199630498886 0.6347780227661133 0.24582600593566895
0.09363750368356705 0.46275201439857483 0.2807680070400238
0.08958320319652557 0.6347780227661133 0.22505900263786316
0.06881730258464813 0.6347780227661133 0.19398100674152374
0.03387460112571716 0.46275201439857483 0.22100499272346497
0.02500000037252903 0.4890269935131073 0.1573210060596466
0.06152519956231117 0.6347780227661133 0.1573210060596466
0.06881730258464813 0.6347780227661133 0.12066199630498886
0.02500000037252903 0.46275201439857483 0.11506299674510956
0.08958320319652557 0.6347780227661133 0.08958330005407333
0.12066199630498886 0.6347780227661133 0.06881739944219589
0.09363769739866257 0.46275201439857483 0.03387460112571716
0.11506299674510956 0.46275201439857483 0.02500000037252903
0.18550600111484528 0.7892770171165466 0.08927710354328156
0.1573210060596466 0.7892770171165466 0.08367069810628891
0.2093999981880188 0.7892770171165466 0.10524299740791321
0.2253659963607788 0.7892770171165466 0.12913599610328674
0.23097200691699982 0.7892770171165466 0.1573210060596466
0.2253659963607788 0.7892770171165466 0.18550600111484528
0.2093999981880188 0.7892770171165466 0.2093999981880188
0.18550600111484528 0.7892770171165466 0.2253659963607788
0.1573210060596466 0.7892760038375854 0.23097200691699982
0.12913599610328674 0.7892760038375854 0.2253659963607788
0.10524199903011322 0.7892760038375854 0.2093999981880188
0.08927690237760544 0.7892760038375854 0.18550600111484528
0.08367060124874115 0.7892760038375854 0.1573210060596466
0.08927690237760544 0.7892760038375854 0.12913599610328674
0.10524199903011322 0.7892760038375854 0.10524299740791321
0.12913599610328674 0.7892760038375854 0.08927710354328156
0.18328900635242462 0.9014880061149597 0.09462980180978775
0.1573210060596466 0.9014880061149597 0.08946429938077927
0.20530399680137634 0.9014880061149597 0.10933899879455566
0.22001299262046814 0.9014880061149597 0.13135400414466858
0.22517800331115723 0.9014880061149597 0.1573210060596466
0.22001299262046814 0.9014880061149597 0.18328900635242462
0.20530399680137634 0.9014880061149597 0.20530399680137634
0.18328900635242462 0.9014880061149597 0.22001299262046814
0.1573210060596466 0.9014880061149597 0.22517900168895721
0.13135400414466858 0.9014880061149597 0.22001299262046814
0.10933899879455566 0.9014880061149597 0.20530399680137634
0.09462949633598328 0.9014880061149597 0.18328900635242462
0.08946409821510315 0.9014880061149597 0.1573210060596466
0.09462949633598328 0.9014880061149597 0.13135400414466858
0.10933899879455566 0.9014880061149597 0.10933899879455566
0.1313530057668686 0.9014880061149597 0.09462980180978775
0.28964298963546753 0.08151990175247192 0.10756000131368637
0.28964298963546753 0.44627198576927185 0.10756000131368637
0.2879289984703064 0.08154769986867905 0.10322199761867523
0.21142099797725677 0.08154769986867905 0.026713399216532707
0.20708300173282623 0.44627198576927185 0.02500000037252903
0.20708300173282623 0.08151999861001968 0.02500000037252903
0.10756000131368637 0.08151999861001968 0.02500000037252903
0.10756000131368637 0.44627198576927185 0.02500000037252903
0.10322199761867523 0.08154769986867905 0.026713399216532707
0.026713399216532707 0.08154760301113129 0.10322199761867523
0.02500000037252903 0.44627198576927185 0.10756000131368637
0.02500000037252903 0.08151979744434357 0.10756000131368637
0.02500000037252903 0.08151990175247192 0.20708300173282623
0.02500000037252903 0.44627198576927185 0.20708300173282623
0.026713399216532707 0.08154760301113129 0.21142099797725677
0.10322199761867523 0.08154769986867905 0.2879289984703064
0.10755900293588638 0.44627198576927185 0.28964298963546753
0.10755900293588638 0.08151990175247192 0.28964298963546753
0.20708300173282623 0.08151990175247192 0.28964298963546753
0.20708300173282623 0.44627198576927185 0.28964298963546753
0.21142099797725677 0.08154769986867905 0.2879289984703064
0.2879289984703064 0.08154769986867905 0.21142099797725677
0.28964298963546753 0.44627198576927185 0.20708300173282623
0.28964298963546753 0.08151990175247192 0.20708300173282623
0.02500000037252903 0.05138939991593361 0.1573210060596466
0.02500000037252903 0.08154769986867905 0.10756000131368637
0.04238609969615936 0.02500000037252903 0.10971400141716003
0.03291669860482216 0.02500000037252903 0.1573210060596466
0.0285692997276783 0.0815477967262268 0.09894289821386337
0.0693541020154953 0.02500000037252903 0.0693541020154953
0.10971400141716003 0.02500000037252903 0.04238609969615936
0.09894289821386337 0.0815477967262268 0.0285692997276783
0.1573210060596466 0.05138999968767166 0.02500000037252903
0.10756000131368637 0.0815477967262268 0.02500000037252903
0.1573210060596466 0.02500000037252903 0.03291669860482216
0.20708300173282623 0.08154790103435516 0.02500000037252903
0.20492899417877197 0.02500000037252903 0.04238609969615936
0.21570000052452087 0.08154760301113129 0.0285692997276783
0.24528899788856506 0.02500000037252903 0.0693541020154953
0.272257000207901 0.02500000037252903 0.10971400141716003
0.2860729992389679 0.08154769986867905 0.09894289821386337
0.28964298963546753 0.05138929933309555 0.1573210060596466
0.28964298963546753 0.0815477967262268 0.10756000131368637
0.28172600269317627 0.02500000037252903 0.1573210060596466
0.28964298963546753 0.0815477967262268 0.20708300173282623
0.272257000207901 0.02500000037252903 0.20492899417877197
0.2860729992389679 0.0815477967262268 0.21570000052452087
0.24528899788856506 0.02500000037252903 0.24528899788856506
0.20492899417877197 0.02500000037252903 0.272257000207901
0.21570000052452087 0.0815477967262268 0.2860729992389679
0.1573210060596466 0.05138880014419556 0.28964298963546753
0.20708300173282623 0.0815477967262268 0.28964298963546753
0.1573210060596466 0.02500000037252903 0.28172600269317627
0.10755900293588638 0.08154769986867905 0.28964298963546753
0.10971400141716003 0.02500000037252903 0.272257000207901
0.09894289821386337 0.0815477967262268 0.2860729992389679
0.06935399770736694 0.02500000037252903 0.24528899788856506
0.04238609969615936 0.02500000037252903 0.20492899417877197
0.0285692997276783 0.08154769986867905 0.21570000052452087
0.02500000037252903 0.08154769986867905 0.20708300173282623
0.1573210060596466 0.9127979874610901 0.21952399611473083
0.13351799547672272 0.924107015132904 0.2147890031337738
0.13351799547672272 0.9127979874610901 0.2147890031337738
0.1573210060596466 0.924107015132904 0.21952399611473083
0.11333800107240677 0.9127979874610901 0.20130500197410583
0.11333800107240677 0.924107015132904 0.20130500197410583
0.0998539999127388 0.924107015132904 0.1811250001192093
0.0998539999127388 0.9127979874610901 0.1811250001192093
0.09511909633874893 0.924107015132904 0.1573210060596466
0.09511909633874893 0.9127979874610901 0.1573210060596466
0.0998539999127388 0.924107015132904 0.13351799547672272
0.0998539999127388 0.9127979874610901 0.13351799547672272
0.11333800107240677 0.9127979874610901 0.11333800107240677
0.11333800107240677 0.924107015132904 0.11333800107240677
0.13351799547672272 0.924107015132904 0.09985409677028656
0.13351799547672272 0.9127979874610901 0.09985390305519104
0.1573210060596466 0.924107015132904 0.09511909633874893
0.1573210060596466 0.9127979874610901 0.09511909633874893
0.1811250001192093 0.924107015132904 0.09985409677028656
0.1811250001192093 0.9127979874610901 0.09985390305519104
0.20130500197410583 0.9127979874610901 0.11333800107240677
0.20130500197410583 0.924107015132904 0.11333800107240677
0.2147890031337738 0.924107015132904 0.13351799547672272
0.2147890031337738 0.9127979874610901 0.13351799547672272
0.21952399611473083 0.924107015132904 0.1573210060596466
0.21952399611473083 0.9127979874610901 0.1573210060596466
0.2147890031337738 0.924107015132904 0.1811250001192093
0.2147890031337738 0.9127979874610901 0.1811250001192093
0.20130500197410583 0.9127979874610901 0.20130500197410583
0.20130500197410583 0.924107015132904 0.20130500197410583
0.1811250001192093 0.924107015132904 0.2147890031337738
0.1811250001192093 0.9127979874610901 0.2147890031337738
0.20530399680137634 0.9127979874610901 0.20530399680137634
0.1573210060596466 0.9127979874610901 0.22517900168895721
0.22517800331115723 0.9127979874610901 0.1573210060596466
0.20530399680137634 0.9127979874610901 0.10933899879455566
0.1573210060596466 0.9127979874610901 0.08946450054645538
0.10933899879455566 0.9127979874610901 0.10933899879455566
0.13135400414466858 0.9127979874610901 0.22001299262046814
0.18328900635242462 0.9127979874610901 0.22001299262046814
0.22001299262046814 0.9127979874610901 0.18328900635242462
0.22001299262046814 0.9127979874610901 0.13135400414466858
0.18328900635242462 0.9127979874610901 0.09462980180978775
0.13135400414466858 0.9127979874610901 0.09462980180978775
0.0946296975016594 0.9127979874610901 0.13135400414466858
0.08946440368890762 0.9127979874610901 0.1573210060596466
0.0946296975016594 0.9127979874610901 0.18328900635242462
0.10933899879455566 0.9127979874610901 0.20530399680137634
0.1573210060596466 0.9019179940223694 0.22734199464321136
0.18411700427532196 0.9019179940223694 0.22201299667358398
0.13052499294281006 0.9123669862747192 0.22201299667358398
0.1573210060596466 0.9123669862747192 0.22734199464321136
0.09093549847602844 0.9111409783363342 0.12982399761676788
0.09263040125370026 0.9123669862747192 0.13052499294281006
0.10780899971723557 0.9123669862747192 0.10780899971723557
0.10651200264692307 0.9111409783363342 0.10651200264692307
0.13052499294281006 0.9123669862747192 0.09263020008802414
0.1298229992389679 0.9111409783363342 0.0909356027841568
0.1573210060596466 0.9123669862747192 0.08730050176382065
0.1573210060596466 0.9111409783363342 0.08546590059995651
0.18411700427532196 0.9123669862747192 0.09263020008802414
0.18481899797916412 0.9111409783363342 0.0909356027841568
0.20683400332927704 0.9123669862747192 0.10780899971723557
0.20813100039958954 0.9111409783363342 0.10651200264692307
0.222011998295784 0.9123669862747192 0.13052499294281006
0.22370700538158417 0.9111409783363342 0.12982399761676788
0.22734199464321136 0.9123669862747192 0.1573210060596466
0.22917699813842773 0.9111409783363342 0.1573210060596466
0.222011998295784 0.9123669862747192 0.18411700427532196
0.22370700538158417 0.9111409783363342 0.1848199963569641
0.20683400332927704 0.9123669862747192 0.20683400332927704
0.20813100039958954 0.9111409783363342 0.20813100039958954
0.18411700427532196 0.9123669862747192 0.22201299667358398
0.18481899797916412 0.9111409783363342 0.22370700538158417
0.1573210060596466 0.9111409783363342 0.22917699813842773
0.10780899971723557 0.9123669862747192 0.20683400332927704
0.09263040125370026 0.9123669862747192 0.18411700427532196
0.08730030059814453 0.9123669862747192 0.1573210060596466
0.08980300277471542 0.9049779772758484 0.18528799712657928
0.08940529823303223 0.9071429967880249 0.18545299768447876
0.08380959928035736 0.9071429967880249 0.1573210060596466
0.08423999696969986 0.9049779772758484 0.1573210060596466
0.08940529823303223 0.9071429967880249 0.12918999791145325
0.08980300277471542 0.9049779772758484 0.12935400009155273
0.10534100234508514 0.9071429967880249 0.10534100234508514
0.10564500093460083 0.9049779772758484 0.10564500093460083
0.12918999791145325 0.9071429967880249 0.08940529823303223
0.12935400009155273 0.9049779772758484 0.08980319648981094
0.1573210060596466 0.9071429967880249 0.08380959928035736
0.1573210060596466 0.9049779772758484 0.0842399001121521
0.18545299768447876 0.9071429967880249 0.08940529823303223
0.18528799712657928 0.9049779772758484 0.08980319648981094
0.20930199325084686 0.9071429967880249 0.10534100234508514
0.20899799466133118 0.9049779772758484 0.10564500093460083
0.22523799538612366 0.9071429967880249 0.12918999791145325
0.22484000027179718 0.9049779772758484 0.12935400009155273
0.2308329939842224 0.9071429967880249 0.1573210060596466
0.23040300607681274 0.9049779772758484 0.1573210060596466
0.22523799538612366 0.9071429967880249 0.18545299768447876
0.22484000027179718 0.9049779772758484 0.18528799712657928
0.20930199325084686 0.9071429967880249 0.20930199325084686
0.20899799466133118 0.9049779772758484 0.20899799466133118
0.18545299768447876 0.9071429967880249 0.22523799538612366
0.18528799712657928 0.9049779772758484 0.22484000027179718
0.1573210060596466 0.9071429967880249 0.2308329939842224
0.1573210060596466 0.9049779772758484 0.23040300607681274
0.1573210060596466 0.909305989742279 0.23040300607681274
0.12935400009155273 0.909305989742279 0.22484000027179718
0.12918999791145325 0.9071429967880249 0.22523799538612366
0.10564500093460083 0.909305989742279 0.20899799466133118
0.10534100234508514 0.9071429967880249 0.20930199325084686
0.08980300277471542 0.909305989742279 0.18528799712657928
0.08423999696969986 0.909305989742279 0.1573210060596466
0.08980300277471542 0.909305989742279 0.12935400009155273
0.10564500093460083 0.909305989742279 0.10564500093460083
0.12935400009155273 0.909305989742279 0.08980319648981094
0.1573210060596466 0.909305989742279 0.0842399001121521
0.18528799712657928 0.909305989742279 0.08980319648981094
0.20899799466133118 0.909305989742279 0.10564500093460083
0.22484000027179718 0.909305989742279 0.12935400009155273
0.23040300607681274 0.909305989742279 0.1573210060596466
0.22484000027179718 0.909305989742279 0.18528799712657928
0.20899799466133118 0.909305989742279 0.20899799466133118
0.18528799712657928 0.909305989742279 0.22484000027179718
0.12982399761676788 0.9111409783363342 0.22370700538158417
0.10651200264692307 0.9111409783363342 0.20813100039958954
0.09093549847602844 0.9111409783363342 0.1848199963569641
0.08546579629182816 0.9111409783363342 0.1573210060596466
0.13052499294281006 0.9019179940223694 0.22201299667358398
0.10780899971723557 0.9019179940223694 0.20683400332927704
0.10933899879455566 0.9014880061149597 0.20530399680137634
0.09263040125370026 0.9019179940223694 0.18411700427532196
0.0946296975016594 0.9014880061149597 0.18328900635242462
0.08730030059814453 0.9019179940223694 0.1573210060596466
0.08946440368890762 0.9014880061149597 0.1573210060596466
0.09263040125370026 0.9019179940223694 0.13052499294281006
0.0946296975016594 0.9014880061149597 0.13135400414466858
0.10780899971723557 0.9019179940223694 0.10780899971723557
0.10933899879455566 0.9014880061149597 0.10933899879455566
0.13052499294281006 0.9019179940223694 0.09263020008802414
0.13135400414466858 0.9014880061149597 0.09462980180978775
0.1573210060596466 0.9019179940223694 0.08730050176382065
0.1573210060596466 0.9014880061149597 0.08946450054645538
0.18411700427532196 0.9019179940223694 0.09263020008802414
0.20683400332927704 0.9019179940223694 0.10780899971723557
0.20530399680137634 0.9014880061149597 0.10933899879455566
0.222011998295784 0.9019179940223694 0.13052499294281006
0.22734199464321136 0.9019179940223694 0.1573210060596466
0.222011998295784 0.9019179940223694 0.18411700427532196
0.20683400332927704 0.9019179940223694 0.20683400332927704
0.20530399680137634 0.9014880061149597 0.20530399680137634
0.1573210060596466 0.9031440019607544 0.22917699813842773
0.12982399761676788 0.9031440019607544 0.22370700538158417
0.10651200264692307 0.9031440019607544 0.20813100039958954
0.09093549847602844 0.9031440019607544 0.1848199963569641
0.08546579629182816 0.9031440019607544 0.1573210060596466
0.09093549847602844 0.9031440019607544 0.12982399761676788
0.10651200264692307 0.9031440019607544 0.10651200264692307
0.1298229992389679 0.9031440019607544 0.0909356027841568
0.1573210060596466 0.9031440019607544 0.08546590059995651
0.18481899797916412 0.9031440019607544 0.0909356027841568
0.20813100039958954 0.9031440019607544 0.10651200264692307
0.22370700538158417 0.9031440019607544 0.12982399761676788
0.22917699813842773 0.9031440019607544 0.1573210060596466
0.22370700538158417 0.9031440019607544 0.1848199963569641
0.20813100039958954 0.9031440019607544 0.20813100039958954
0.18481899797916412 0.9031440019607544 0.22370700538158417
0.12935400009155273 0.9049779772758484 0.22484000027179718
0.10564500093460083 0.9049779772758484 0.20899799466133118
0.2033499926328659 0.9750000238418579 0.1763869971036911
0.20956499874591827 0.9750000238418579 0.17896099388599396
0.20714299380779266 0.9750000238418579 0.1573210060596466
0.19255000352859497 0.9750000238418579 0.19255000352859497
0.17896099388599396 0.9750000238418579 0.2095640003681183
0.20956499874591827 0.9750000238418579 0.13568200170993805
0.2033499926328659 0.9750000238418579 0.1382559984922409
0.19255000352859497 0.9750000238418579 0.12209200114011765
0.1763869971036911 0.9750000238418579 0.2033499926328659
0.1573210060596466 0.9750000238418579 0.20714299380779266
0.17896099388599396 0.9750000238418579 0.10507799685001373
0.1763869971036911 0.9750000238418579 0.1112930029630661
0.1573210060596466 0.9750000238418579 0.10750000178813934
0.13568200170993805 0.9750000238418579 0.10507799685001373
0.1382559984922409 0.9750000238418579 0.1112930029630661
0.12209200114011765 0.9750000238418579 0.12209200114011765
0.13568200170993805 0.9750000238418579 0.2095640003681183
0.1573210060596466 0.9750000238418579 0.21386900544166565
0.19730700552463531 0.9750000238418579 0.19730700552463531
0.21386900544166565 0.9750000238418579 0.1573210060596466
0.19730700552463531 0.9750000238418579 0.11733599752187729
0.1573210060596466 0.9750000238418579 0.10077399760484695
0.11733599752187729 0.9750000238418579 0.11733599752187729
0.10507799685001373 0.9750000238418579 0.13568200170993805
0.1112930029630661 0.9750000238418579 0.1382559984922409
0.10077399760484695 0.9750000238418579 0.1573210060596466
0.10750000178813934 0.9750000238418579 0.1573210060596466
0.10507799685001373 0.9750000238418579 0.17896099388599396
0.1112930029630661 0.9750000238418579 0.1763869971036911
0.11733599752187729 0.9750000238418579 0.19730700552463531
0.12209200114011765 0.9750000238418579 0.19255000352859497
0.1382559984922409 0.9750000238418579 0.2033499926328659
0.12918999791145325 0.9580360054969788 0.22523799538612366
0.1573210060596466 0.924107015132904 0.2308329939842224
0.1573210060596466 0.9580360054969788 0.2308329939842224
0.12918999791145325 0.924107015132904 0.22523799538612366
0.10534100234508514 0.9580360054969788 0.20930199325084686
0.10534100234508514 0.924107015132904 0.20930199325084686
0.08940529823303223 0.9580360054969788 0.18545299768447876
0.08940529823303223 0.924107015132904 0.18545299768447876
0.08380959928035736 0.924107015132904 0.1573210060596466
0.08380959928035736 0.9580360054969788 0.1573210060596466
0.08940529823303223 0.9580360054969788 0.12918999791145325
0.08940529823303223 0.924107015132904 0.12918999791145325
0.10534100234508514 0.9580360054969788 0.10534100234508514
0.10534100234508514 0.924107015132904 0.10534100234508514
0.12918999791145325 0.9580360054969788 0.08940529823303223
0.12918999791145325 0.924107015132904 0.08940529823303223
0.1573210060596466 0.924107015132904 0.08380959928035736
0.1573210060596466 0.9580360054969788 0.08380959928035736
0.18545299768447876 0.9580360054969788 0.08940529823303223
0.18545299768447876 0.924107015132904 0.08940529823303223
0.20930199325084686 0.9580360054969788 0.10534100234508514
0.20930199325084686 0.924107015132904 0.10534100234508514
0.22523799538612366 0.9580360054969788 0.12918999791145325
0.22523799538612366 0.924107015132904 0.12918999791145325
0.2308329939842224 0.924107015132904 0.1573210060596466
0.2308329939842224 0.9580360054969788 0.1573210060596466
0.22523799538612366 0.9580360054969788 0.18545299768447876
0.22523799538612366 0.924107015132904 0.18545299768447876
0.20930199325084686 0.9580360054969788 0.20930199325084686
0.20930199325084686 0.924107015132904 0.20930199325084686
0.18545299768447876 0.9580360054969788 0.22523799538612366
0.18545299768447876 0.924107015132904 0.22523699700832367
0.1411290019750595 0.9694200158119202 0.11822900176048279
0.1735139936208725 0.9694200158119202 0.19641399383544922
0.19641399383544922 0.9694200158119202 0.1411290019750595
0.11822900176048279 0.9694200158119202 0.1735139936208725
0.19641399383544922 0.9694200158119202 0.1735139936208725
0.1735139936208725 0.9694200158119202 0.11822900176048279
0.11822900176048279 0.9694200158119202 0.1411290019750595
0.1411290019750595 0.9694200158119202 0.19641399383544922
0.1573210060596466 0.9694200158119202 0.19963499903678894
0.18724200129508972 0.9694200158119202 0.18724200129508972
0.19963499903678894 0.9694200158119202 0.1573210060596466
0.18724200129508972 0.9694200158119202 0.12740099430084229
0.1573210060596466 0.9694200158119202 0.11500799655914307
0.12740099430084229 0.9694200158119202 0.12740099430084229
0.11500799655914307 0.9694200158119202 0.1573210060596466
0.12740099430084229 0.9694200158119202 0.18724100291728973
0.20130500197410583 0.924107015132904 0.20130500197410583
0.1811250001192093 0.924107015132904 0.09985390305519104
0.13351799547672272 0.924107015132904 0.09985390305519104
0.11333800107240677 0.924107015132904 0.20130500197410583
0.1573210060596466 0.9645270109176636 0.22954200208187103
0.12968400120735168 0.9645270109176636 0.22404499351978302
0.18495899438858032 0.9645270109176636 0.22404499351978302
0.13319699466228485 0.9737079739570618 0.21556200087070465
0.1573210060596466 0.9737079739570618 0.22036099433898926
0.09908050298690796 0.9737079739570618 0.13319699466228485
0.11274600028991699 0.9737079739570618 0.11274600028991699
0.13319699466228485 0.9737079739570618 0.09908050298690796
0.1573210060596466 0.9737079739570618 0.09428200125694275
0.18144600093364716 0.9737079739570618 0.09908050298690796
0.20189699530601501 0.9737079739570618 0.11274600028991699
0.21556200087070465 0.9737079739570618 0.13319699466228485
0.22036099433898926 0.9737079739570618 0.1573210060596466
0.21556200087070465 0.9737079739570618 0.18144600093364716
0.20189699530601501 0.9737079739570618 0.20189699530601501
0.18144600093364716 0.9737079739570618 0.21556200087070465
0.10625399649143219 0.9645270109176636 0.20838899910449982
0.09059839695692062 0.9645270109176636 0.18495899438858032
0.08510089665651321 0.9645270109176636 0.1573210060596466
0.09059839695692062 0.9645270109176636 0.12968400120735168
0.10625399649143219 0.9645270109176636 0.10625399649143219
0.12968400120735168 0.9645270109176636 0.09059830009937286
0.1573210060596466 0.9645270109176636 0.08510079979896545
0.18495899438858032 0.9645270109176636 0.09059830009937286
0.20838899910449982 0.9645270109176636 0.10625399649143219
0.22404399514198303 0.9645270109176636 0.12968400120735168
0.22954200208187103 0.9645270109176636 0.1573210060596466
0.22404399514198303 0.9645270109176636 0.18495899438858032
0.20838899910449982 0.9645270109176636 0.20838899910449982
0.1573210060596466 0.9700310230255127 0.22586500644683838
0.13109099864959717 0.9700310230255127 0.22064700722694397
0.10885400325059891 0.9700310230255127 0.2057889997959137
0.09399589896202087 0.9700310230255127 0.18355199694633484
0.0887783020734787 0.9700310230255127 0.1573210060596466
0.09399589896202087 0.9700310230255127 0.13109099864959717
0.10885400325059891 0.9700310230255127 0.10885400325059891
0.13109099864959717 0.9700310230255127 0.09399569779634476
0.1573210060596466 0.9700310230255127 0.0887783020734787
0.18355199694633484 0.9700310230255127 0.09399569779634476
0.2057889997959137 0.9700310230255127 0.10885400325059891
0.22064700722694397 0.9700310230255127 0.13109099864959717
0.22586500644683838 0.9700310230255127 0.1573210060596466
0.22064700722694397 0.9700310230255127 0.18355199694633484
0.2057889997959137 0.9700310230255127 0.2057889997959137
0.18355199694633484 0.9700310230255127 0.22064700722694397
0.11274600028991699 0.9737079739570618 0.20189699530601501
0.09908050298690796 0.9737079739570618 0.18144600093364716
0.09428189694881439 0.9737079739570618 0.1573210060596466
0.20676200091838837 0.8996419906616211 0.10788100212812424
0.10788100212812424 0.8996419906616211 0.20676200091838837
0.10788100212812424 0.8996419906616211 0.10788100212812424
0.20676200091838837 0.8996419906616211 0.20676200091838837
0.08740189671516418 0.8996419906616211 0.1573210060596466
0.1573210060596466 0.8996419906616211 0.08740170300006866
0.22724099457263947 0.8996419906616211 0.1573210060596466
0.1573210060596466 0.8996419906616211 0.22724099457263947
0.13056400418281555 0.8996419906616211 0.2219190001487732
0.09272409975528717 0.8996419906616211 0.18407799303531647
0.09272409975528717 0.8996419906616211 0.13056400418281555
0.13056400418281555 0.8996419906616211 0.09272400289773941
0.18407799303531647 0.8996419906616211 0.09272409975528717
0.2219190001487732 0.8996419906616211 0.13056400418281555
0.2219190001487732 0.8996419906616211 0.18407799303531647
0.18407799303531647 0.8996419906616211 0.2219190001487732
0.1864510029554367 0.7865470051765442 0.22764599323272705
0.1573210060596466 0.7865470051765442 0.23344099521636963
0.21114599704742432 0.7865470051765442 0.21114599704742432
0.22764599323272705 0.7865470051765442 0.1864510029554367
0.23344099521636963 0.7865470051765442 0.1573210060596466
0.22764599323272705 0.7865470051765442 0.1281919926404953
0.21114599704742432 0.7865470051765442 0.10349699854850769
0.1864510029554367 0.7865470051765442 0.0869963988661766
0.1573210060596466 0.7865470051765442 0.08120229840278625
0.1281919926404953 0.7865470051765442 0.0869963988661766
0.10349699854850769 0.7865470051765442 0.10349699854850769
0.08699650317430496 0.7865470051765442 0.1281919926404953
0.08120229840278625 0.7865470051765442 0.1573210060596466
0.08699630200862885 0.7865470051765442 0.1864510029554367
0.10349699854850769 0.7865470051765442 0.21114599704742432
0.1281919926404953 0.7865470051765442 0.22764599323272705
3 0 1 2
3 2 3 0
3 2 4 3
3 1 5 2
3 0 6 1
3 3 7 0
3 8 9 10
3 10 11 8
3 10 12 11
3 9 13 10
3 8 14 9
3 11 15 8
3 16 17 18
3 18 19 16
3 18 20 19
3 17 21 18
3 16 22 17
3 19 23 16
3 24 25 26
3 26 27 24
3 26 28 27
3 25 29 26
3 24 30 25
3 27 31 24
3 32 33 34
3 32 35 33
3 34 33 36
3 33 0 36
3 37 1 38
3 38 39 37
3 39 38 40
3 40 41 39
3 42 43 44
3 42 45 43
3 44 43 46
3 43 30 46
3 47 29 48
3 48 49 47
3 49 48 50
3 50 51 49
3 52 53 54
3 52 55 53
3 54 53 56
3 53 16 56
3 57 17 58
3 58 59 57
3 59 58 60
3 60 61 59
3 62 63 64
3 62 65 63
3 64 63 66
3 63 14 66
3 67 13 68
3 68 69 67
3 69 68 70
3 70 71 69
3 72 73 74
3 73 33 74
3 72 75 73
3 6 0 73
3 73 76 6
3 0 33 73
3 77 1 76
3 1 6 76
3 77 38 1
3 38 77 78
3 78 40 38
3 77 79 78
3 78 80 45
3 80 43 45
3 78 79 80
3 25 81 80
3 80 82 25
3 81 43 80
3 83 84 82
3 84 25 82
3 83 48 84
3 48 83 85
3 85 86 48
3 83 87 85
3 85 88 55
3 88 53 55
3 85 87 88
3 22 89 88
3 88 90 22
3 89 53 88
3 91 92 90
3 92 22 90
3 91 58 92
3 58 91 93
3 93 60 58
3 91 94 93
3 93 95 96
3 95 63 96
3 93 94 95
3 9 14 95
3 95 97 9
3 14 63 95
3 98 99 97
3 99 9 97
3 98 68 99
3 68 98 72
3 72 100 68
3 98 75 72
3 101 75 102
3 101 73 75
3 103 76 101
3 76 73 101
3 104 77 76
3 76 103 104
3 79 77 104
3 104 105 79
3 106 79 105
3 106 80 79
3 107 82 106
3 82 80 106
3 108 83 82
3 82 107 108
3 87 83 108
3 108 109 87
3 110 87 109
3 110 88 87
3 111 90 110
3 90 88 110
3 112 91 90
3 90 111 112
3 94 91 112
3 112 113 94
3 114 94 113
3 114 95 94
3 115 97 114
3 97 95 114
3 116 98 97
3 97 115 116
3 75 98 116
3 116 102 75
3 117 102 118
3 117 101 102
3 119 103 117
3 103 101 117
3 120 104 103
3 103 119 120
3 105 104 120
3 120 121 105
3 122 105 121
3 122 106 105
3 123 107 122
3 107 106 122
3 124 108 107
3 107 123 124
3 109 108 124
3 124 125 109
3 126 109 125
3 126 110 109
3 127 111 126
3 111 110 126
3 128 112 111
3 111 127 128
3 113 112 128
3 128 129 113
3 130 113 129
3 130 114 113
3 131 115 130
3 115 114 130
3 132 116 115
3 115 131 132
3 102 116 132
3 132 118 102
3 133 39 134
3 133 135 39
3 2 5 135
3 5 39 135
3 136 34 7
3 7 3 136
3 137 34 136
3 136 138 137
3 139 69 140
3 139 141 69
3 12 10 141
3 10 69 141
3 142 64 8
3 8 15 142
3 143 64 142
3 142 144 143
3 145 59 146
3 145 147 59
3 18 21 147
3 21 59 147
3 148 54 23
3 23 19 148
3 149 54 148
3 148 150 149
3 151 49 152
3 151 153 49
3 28 26 153
3 26 49 153
3 154 44 24
3 24 31 154
3 155 44 154
3 154 156 155
3 157 158 159
3 159 158 142
3 157 159 160
3 11 159 161
3 159 11 162
3 161 159 142
3 163 162 164
3 164 162 11
3 163 164 141
3 141 165 163
3 165 141 166
3 163 165 167
3 165 168 169
3 169 168 136
3 165 169 167
3 4 169 170
3 169 4 171
3 170 169 136
3 172 171 173
3 173 171 4
3 172 173 135
3 135 174 172
3 174 135 175
3 172 174 176
3 174 177 178
3 178 177 154
3 174 178 176
3 27 178 179
3 178 27 180
3 179 178 154
3 181 180 182
3 182 180 27
3 181 182 153
3 153 183 181
3 183 153 184
3 181 183 185
3 183 186 187
3 187 186 148
3 183 187 185
3 20 187 188
3 187 20 189
3 188 187 148
3 190 189 191
3 191 189 20
3 190 191 147
3 147 157 190
3 157 147 192
3 190 157 160
3 187 169 178
3 169 187 159
3 178 169 172
3 187 178 181
3 159 187 190
3 169 159 163
3 169 163 167
3 172 169 171
3 178 172 176
3 181 178 180
3 187 181 185
3 190 187 189
3 159 190 160
3 163 159 162
3 155 174 134
3 134 78 155
3 134 40 78
3 174 133 134
3 155 156 174
3 78 45 155
3 138 139 70
3 70 35 138
3 70 72 35
3 139 140 70
3 138 165 139
3 35 137 138
3 143 157 146
3 146 93 143
3 146 60 93
3 157 145 146
3 143 144 157
3 93 65 143
3 183 152 85
3 85 149 183
3 152 50 85
3 183 151 152
3 149 150 183
3 85 55 149
3 193 194 195
3 193 196 194
3 195 194 197
3 194 198 197
3 197 198 199
3 199 200 197
3 199 201 202
3 202 200 199
3 202 203 204
3 202 201 203
3 204 203 205
3 203 206 205
3 205 206 207
3 207 208 205
3 207 209 210
3 210 208 207
3 210 211 212
3 210 209 211
3 212 211 213
3 211 214 213
3 213 214 215
3 215 216 213
3 215 217 218
3 218 216 215
3 218 219 220
3 218 217 219
3 220 219 221
3 219 222 221
3 221 222 223
3 223 224 221
3 223 196 193
3 193 224 223
3 221 225 220
3 225 221 224
3 225 224 226
3 220 225 227
3 220 227 218
3 218 227 216
3 226 224 193
3 226 193 195
3 216 227 228
3 216 228 213
3 213 228 212
3 212 228 229
3 212 229 210
3 210 229 208
3 208 229 230
3 226 195 231
3 225 226 232
3 227 225 233
3 228 227 234
3 229 228 235
3 230 229 236
3 208 230 205
3 205 230 237
3 205 237 204
3 204 237 238
3 204 238 202
3 202 238 239
3 202 239 200
3 200 239 240
3 200 240 197
3 197 240 231
3 197 231 195
3 241 124 242
3 124 241 125
3 226 231 243
3 226 243 244
3 245 246 247
3 245 247 248
3 248 247 249
3 248 249 250
3 250 249 251
3 250 251 252
3 252 251 253
3 252 253 254
3 254 253 255
3 254 255 256
3 256 255 257
3 256 257 258
3 258 257 259
3 258 259 260
3 260 259 261
3 260 261 262
3 262 261 263
3 262 263 264
3 264 263 265
3 264 265 266
3 266 265 244
3 266 244 267
3 243 231 240
3 243 240 268
3 268 240 239
3 268 239 269
3 269 239 238
3 269 238 270
3 270 238 237
3 270 237 246
3 246 237 230
3 246 230 247
3 247 230 236
3 247 236 249
3 249 236 229
3 249 229 251
3 251 229 235
3 251 235 253
3 253 235 228
3 253 228 255
3 255 228 234
3 255 234 257
3 257 234 227
3 257 227 259
3 259 227 233
3 259 233 261
3 261 233 225
3 261 225 263
3 263 225 232
3 263 232 265
3 265 232 226
3 265 226 244
3 271 272 273
3 271 273 274
3 274 273 275
3 274 275 276
3 276 275 277
3 276 277 278
3 278 277 279
3 278 279 280
3 280 279 281
3 280 281 282
3 282 281 283
3 282 283 284
3 284 283 285
3 284 285 286
3 286 285 287
3 286 287 288
3 288 287 289
3 288 289 290
3 290 289 291
3 290 291 292
3 292 291 293
3 292 293 294
3 294 293 295
3 294 295 296
3 296 295 297
3 296 297 298
3 297 299 300
3 297 300 301
3 301 300 302
3 301 302 303
3 303 302 304
3 303 304 272
3 272 304 305
3 272 305 273
3 273 305 306
3 273 306 275
3 275 306 307
3 275 307 277
3 277 307 308
3 277 308 279
3 279 308 309
3 279 309 281
3 281 309 310
3 281 310 283
3 283 310 311
3 283 311 285
3 285 311 312
3 285 312 287
3 287 312 313
3 287 313 289
3 289 313 314
3 289 314 291
3 291 314 315
3 291 315 293
3 293 315 316
3 293 316 295
3 295 316 299
3 295 299 297
3 299 267 317
3 299 317 300
3 300 317 318
3 300 318 302
3 302 318 319
3 302 319 304
3 304 319 320
3 304 320 305
3 305 320 245
3 305 245 306
3 306 245 248
3 306 248 307
3 307 248 250
3 307 250 308
3 308 250 252
3 308 252 309
3 309 252 254
3 309 254 310
3 310 254 256
3 310 256 311
3 311 256 258
3 311 258 312
3 312 258 260
3 312 260 313
3 313 260 262
3 313 262 314
3 314 262 264
3 314 264 315
3 315 264 266
3 315 266 316
3 316 266 267
3 316 267 299
3 267 244 243
3 267 243 317
3 317 243 268
3 317 268 318
3 318 268 269
3 318 269 319
3 319 269 270
3 319 270 320
3 320 270 246
3 320 246 245
3 125 241 321
3 125 321 126
3 126 321 322
3 126 322 323
3 323 322 324
3 323 324 325
3 325 324 326
3 325 326 327
3 327 326 328
3 327 328 329
3 329 328 330
3 329 330 331
3 331 330 332
3 331 332 333
3 333 332 334
3 333 334 335
3 335 334 336
3 335 336 117
3 117 336 337
3 117 337 338
3 338 337 339
3 338 339 120
3 120 339 340
3 120 340 121
3 121 340 341
3 121 341 122
3 122 341 342
3 122 342 343
3 343 342 242
3 343 242 124
3 241 344 345
3 241 345 321
3 321 345 346
3 321 346 322
3 322 346 347
3 322 347 324
3 324 347 348
3 324 348 326
3 326 348 349
3 326 349 328
3 328 349 350
3 328 350 330
3 330 350 351
3 330 351 332
3 332 351 352
3 332 352 334
3 334 352 353
3 334 353 336
3 336 353 354
3 336 354 337
3 337 354 355
3 337 355 339
3 339 355 356
3 339 356 340
3 340 356 357
3 340 357 341
3 341 357 358
3 341 358 342
3 342 358 359
3 342 359 242
3 242 359 344
3 242 344 241
3 344 298 360
3 344 360 345
3 345 360 361
3 345 361 346
3 346 361 271
3 346 271 347
3 347 271 274
3 347 274 348
3 348 274 276
3 348 276 349
3 349 276 278
3 349 278 350
3 350 278 280
3 350 280 351
3 351 280 282
3 351 282 352
3 352 282 284
3 352 284 353
3 353 284 286
3 353 286 354
3 354 286 288
3 354 288 355
3 355 288 290
3 355 290 356
3 356 290 292
3 356 292 357
3 357 292 294
3 357 294 358
3 358 294 296
3 358 296 359
3 359 296 298
3 359 298 344
3 298 297 301
3 298 301 360
3 360 301 303
3 360 303 361
3 361 303 272
3 361 272 271
3 362 363 364
3 363 362 365
3 363 365 366
3 364 363 367
3 364 367 368
3 368 367 369
3 366 365 370
3 366 370 371
3 369 367 372
3 369 372 373
3 373 372 374
3 374 372 375
3 374 375 376
3 376 375 377
3 366 371 378
3 366 378 379
3 363 366 380
3 367 363 381
3 372 367 382
3 375 372 383
3 377 375 384
3 377 384 385
3 377 385 386
3 386 385 387
3 386 387 388
3 388 387 389
3 388 389 390
3 390 389 391
3 390 391 392
3 392 391 378
3 392 378 393
3 378 371 393
3 394 395 396
3 394 397 395
3 398 399 394
3 399 397 394
3 400 401 399
3 399 398 400
3 402 401 400
3 400 403 402
3 404 402 403
3 404 405 402
3 406 407 404
3 407 405 404
3 408 409 407
3 407 406 408
3 410 409 408
3 408 411 410
3 412 410 411
3 412 413 410
3 414 415 412
3 415 413 412
3 416 417 415
3 415 414 416
3 418 417 416
3 416 419 418
3 420 418 419
3 420 421 418
3 422 423 420
3 423 421 420
3 424 425 423
3 423 422 424
3 395 425 424
3 424 396 395
3 426 427 428
3 427 426 429
3 428 427 430
3 426 428 431
3 429 426 432
3 427 429 433
3 427 433 434
3 430 427 435
3 428 430 436
3 431 428 437
3 426 431 438
3 432 426 439
3 429 432 440
3 433 429 441
3 371 370 427
3 371 427 434
3 370 365 427
3 427 365 435
3 365 430 435
3 430 365 362
3 430 364 436
3 364 430 362
3 364 368 428
3 364 428 436
3 368 369 428
3 428 369 437
3 369 431 437
3 431 369 373
3 431 374 438
3 374 431 373
3 374 376 426
3 374 426 438
3 376 377 426
3 426 377 439
3 377 432 439
3 432 377 386
3 432 388 440
3 388 432 386
3 388 390 429
3 388 429 440
3 390 392 429
3 429 392 441
3 392 433 441
3 433 392 393
3 433 371 434
3 371 433 393
3 217 417 421
3 421 219 217
3 421 425 219
3 217 215 417
3 215 413 417
3 425 442 219
3 425 223 442
3 425 196 223
3 215 214 413
3 214 443 413
3 443 409 413
3 443 209 409
3 209 444 409
3 444 405 409
3 425 397 196
3 425 395 397
3 421 423 425
3 417 418 421
3 413 415 417
3 409 410 413
3 405 407 409
3 444 206 405
3 206 402 405
3 206 203 402
3 203 401 402
3 203 201 401
3 201 399 401
3 201 199 399
3 199 397 399
3 199 445 397
3 445 194 397
3 397 194 196
3 394 396 446
3 394 446 447
3 396 424 446
3 446 424 448
3 379 449 450
3 449 379 378
3 451 385 384
3 451 384 452
3 452 384 375
3 452 375 453
3 453 375 383
3 453 383 454
3 454 383 372
3 454 372 455
3 455 372 382
3 455 382 456
3 456 382 367
3 456 367 457
3 457 367 381
3 457 381 458
3 458 381 363
3 458 363 459
3 459 363 380
3 459 380 460
3 460 380 366
3 460 366 461
3 461 366 379
3 461 379 450
3 394 447 462
3 394 462 398
3 398 462 463
3 398 463 400
3 400 463 464
3 400 464 403
3 403 464 465
3 403 465 404
3 404 465 466
3 404 466 406
3 406 466 467
3 406 467 408
3 408 467 468
3 408 468 411
3 411 468 469
3 411 469 412
3 412 469 470
3 412 470 414
3 414 470 471
3 414 471 416
3 416 471 472
3 416 472 419
3 419 472 473
3 419 473 420
3 420 473 474
3 420 474 422
3 422 474 448
3 422 448 424
3 446 475 476
3 446 476 447
3 447 476 477
3 447 477 462
3 462 477 478
3 462 478 463
3 463 478 479
3 463 479 464
3 464 479 480
3 464 480 465
3 465 480 481
3 465 481 466
3 466 481 482
3 466 482 467
3 467 482 483
3 467 483 468
3 468 483 484
3 468 484 469
3 469 484 485
3 469 485 470
3 470 485 486
3 470 486 471
3 471 486 487
3 471 487 472
3 472 487 488
3 472 488 473
3 473 488 489
3 473 489 474
3 474 489 490
3 474 490 448
3 448 490 475
3 448 475 446
3 475 450 449
3 475 449 476
3 476 449 491
3 476 491 477
3 477 491 492
3 477 492 478
3 478 492 493
3 478 493 479
3 479 493 451
3 479 451 480
3 480 451 452
3 480 452 481
3 481 452 453
3 481 453 482
3 482 453 454
3 482 454 483
3 483 454 455
3 483 455 484
3 484 455 456
3 484 456 485
3 485 456 457
3 485 457 486
3 486 457 458
3 486 458 487
3 487 458 459
3 487 459 488
3 488 459 460
3 488 460 489
3 489 460 461
3 489 461 490
3 490 461 450
3 490 450 475
3 449 378 391
3 449 391 491
3 491 391 389
3 491 389 492
3 492 389 387
3 492 387 493
3 493 387 385
3 493 385 451
3 494 495 496
3 495 494 497
3 496 495 498
3 494 496 499
3 497 494 500
3 495 497 501
3 495 501 502
3 498 495 503
3 496 498 504
3 499 496 505
3 494 499 506
3 500 494 507
3 497 500 508
3 501 497 509
3 510 501 511
3 510 509 501
3 512 497 510
3 497 509 510
3 513 508 497
3 497 512 513
3 500 508 513
3 513 514 500
3 515 500 514
3 515 507 500
3 516 494 515
3 494 507 515
3 517 506 494
3 494 516 517
3 499 506 517
3 517 518 499
3 519 499 518
3 519 505 499
3 520 496 519
3 496 505 519
3 521 504 496
3 496 520 521
3 498 504 521
3 521 522 498
3 523 498 522
3 523 503 498
3 524 495 523
3 495 503 523
3 525 502 495
3 495 524 525
3 501 502 525
3 525 511 501
3 519 515 510
3 510 523 519
3 515 513 510
3 519 517 515
3 523 521 519
3 510 525 523
3 510 511 525
3 513 512 510
3 515 514 513
3 517 516 515
3 519 518 517
3 521 520 519
3 523 522 521
3 525 524 523
