ply
format ascii 1.0
element vertex 502
property float x
property float y
property float z
element face 1000
property list uchar int vertex_indices
end_header
0.3323670029640198 0.541703999042511 0.3185099959373474
0.3327229917049408 0.541703999042511 0.3185099959373474
0.3324730098247528 0.541703999042511 0.3185099959373474
0.3319230079650879 0.541703999042511 0.3185099959373474
0.34602099657058716 0.541703999042511 0.3185099959373474
0.3741599917411804 0.541703999042511 0.3185099959373474
0.401854008436203 0.5423049926757812 0.3185099959373474
0.4441959857940674 0.5556610226631165 0.3185099959373474
0.48593199253082275 0.5698260068893433 0.3185099959373474
0.513634979724884 0.5838310122489929 0.3185099959373474
0.5413299798965454 0.6259840130805969 0.3185099959373474
0.5695329904556274 0.6816220283508301 0.3185099959373474
0.5840849876403809 0.73710697889328 0.3185099959373474
0.5975800156593323 0.8071900010108948 0.3185099959373474
0.5979040265083313 0.8773450255393982 0.3185099959373474
0.5976499915122986 0.9193239808082581 0.3185099959373474
0.6115999817848206 0.9609150290489197 0.3185099959373474
0.6111689805984497 0.9750000238418579 0.3185099959373474
0.6257669925689697 0.9749450087547302 0.3185099959373474
0.6253349781036377 0.9603949785232544 0.3185099959373474
0.6392859816551208 0.9190970063209534 0.3185099959373474
0.6392930150032043 0.8630499839782715 0.3185099959373474
0.6396049857139587 0.793300986289978 0.3185099959373474
0.6397340297698975 0.7095329761505127 0.3185099959373474
0.625469982624054 0.6397849917411804 0.3185099959373474
0.5972380042076111 0.5837389826774597 0.3185099959373474
0.5836799740791321 0.5417760014533997 0.3185099959373474
0.5414940118789673 0.5280680060386658 0.3185099959373474
0.5141429901123047 0.5144850015640259 0.3185099959373474
0.471900999546051 0.5003470182418823 0.3185099959373474
0.4435969889163971 0.500527024269104 0.3185099959373474
0.4161759912967682 0.5000219941139221 0.3185099959373474
0.4021179974079132 0.49973800778388977 0.3185099959373474
0.3884890079498291 0.47253599762916565 0.3185099959373474
0.38797301054000854 0.458065003156662 0.3185099959373474
0.3739129900932312 0.4163770079612732 0.3185099959373474
0.37409698963165283 0.360166996717453 0.3185099959373474
0.37426701188087463 0.3050149977207184 0.3185099959373474
0.37435299158096313 0.24869899451732635 0.3185099959373474
0.38801199197769165 0.1926569938659668 0.3185099959373474
0.4160880148410797 0.13740499317646027 0.3185099959373474
0.4437809884548187 0.10932400077581406 0.3185099959373474
0.4861159920692444 0.08086010068655014 0.3185099959373474
0.5278300046920776 0.08141589909791946 0.3185099959373474
0.5554940104484558 0.06721609830856323 0.3185099959373474
0.597760021686554 0.06765930354595184 0.3185099959373474
0.6116650104522705 0.06711070239543915 0.3185099959373474
0.6255729794502258 0.0537853017449379 0.3185099959373474
0.639689028263092 0.025153299793601036 0.3185099959373474
0.33202600479125977 0.02500000037252903 0.3185099959373474
0.33278200030326843 0.02586969919502735 0.3185099959373474
0.3323670029640198 0.025862500071525574 0.3185099959373474
0.33265501260757446 0.541703999042511 0.3187189996242523
0.331928014755249 0.541703999042511 0.3183560073375702
0.3319160044193268 0.541703999042511 0.3186750113964081
0.3462409973144531 0.541703999042511 0.3181900084018707
0.360164999961853 0.541703999042511 0.3327940106391907
0.38827499747276306 0.5423049926757812 0.36037299036979675
0.41608500480651855 0.5556610226631165 0.3743380010128021
0.44379499554634094 0.5698260068893433 0.4023680090904236
0.48624300956726074 0.5838310122489929 0.43005698919296265
0.49971500039100647 0.6259840130805969 0.44391199946403503
0.5274149775505066 0.6816220283508301 0.4585550129413605
0.5274699926376343 0.73710697889328 0.4583370089530945
0.5421789884567261 0.8071900010108948 0.4721910059452057
0.5415679812431335 0.8773450255393982 0.47232601046562195
0.5414029955863953 0.9193239808082581 0.4721199870109558
0.5560929775238037 0.9609150290489197 0.47182199358940125
0.5561760067939758 0.9750000238418579 0.48593398928642273
0.5693830251693726 0.9749450087547302 0.48563799262046814
0.5694659948348999 0.9603949785232544 0.48602598905563354
0.5695170164108276 0.9190970063209534 0.485727995634079
0.5834619998931885 0.8630499839782715 0.4997749924659729
0.5837129950523376 0.793300986289978 0.49995899200439453
0.570052981376648 0.7095329761505127 0.48636698722839355
0.569707989692688 0.6397849917411804 0.48562300205230713
0.5559250116348267 0.5837389826774597 0.4722000062465668
0.528190016746521 0.5417760014533997 0.4585320055484772
0.499457985162735 0.5280680060386658 0.444225013256073
0.472324013710022 0.5144850015640259 0.41652700304985046
0.44389599561691284 0.5003470182418823 0.40202799439430237
0.4304949939250946 0.500527024269104 0.38797399401664734
0.40212398767471313 0.5000219941139221 0.3740079998970032
0.3877899944782257 0.49973800778388977 0.3599349856376648
0.37384501099586487 0.47253599762916565 0.3460569977760315
0.374085009098053 0.458065003156662 0.34640300273895264
0.3739449977874756 0.4163770079612732 0.3466379940509796
0.36015498638153076 0.360166996717453 0.34642499685287476
0.360291987657547 0.3050149977207184 0.34652501344680786
0.3739530146121979 0.24869899451732635 0.3461430072784424
0.37419798970222473 0.1926569938659668 0.346314013004303
0.40179499983787537 0.13740499317646027 0.3599669933319092
0.4161809980869293 0.10932400077581406 0.3884600102901459
0.45770901441574097 0.08086010068655014 0.4024209976196289
0.4863159954547882 0.08141589909791946 0.4304389953613281
0.5140929818153381 0.06721609830856323 0.444379985332489
0.5421509742736816 0.06765930354595184 0.4719200134277344
0.5556619763374329 0.06711070239543915 0.4862250089645386
0.5700070261955261 0.0537853017449379 0.4860059916973114
0.5837810039520264 0.025153299793601036 0.5000069737434387
0.33230701088905334 0.02500000037252903 0.31863000988960266
0.33270299434661865 0.02586969919502735 0.3187530040740967
0.33247700333595276 0.541703999042511 0.31884801387786865
0.3323329985141754 0.541703999042511 0.31847599148750305
0.33259499073028564 0.541703999042511 0.3185099959373474
0.3320949971675873 0.541703999042511 0.3328770101070404
0.33240601420402527 0.541703999042511 0.35995200276374817
0.346670001745224 0.5423049926757812 0.38794198632240295
0.36017099022865295 0.5556610226631165 0.4165419936180115
0.3743320107460022 0.5698260068893433 0.45815399289131165
0.38783299922943115 0.5838310122489929 0.4995630085468292
0.388372004032135 0.6259840130805969 0.5275530219078064
0.40242800116539 0.6816220283508301 0.5418800115585327
0.40206798911094666 0.73710697889328 0.5557649731636047
0.40179699659347534 0.8071900010108948 0.569782018661499
0.40239500999450684 0.8773450255393982 0.5698660016059875
0.4165390133857727 0.9193239808082581 0.5694010257720947
0.4164760112762451 0.9609150290489197 0.5839869976043701
0.41585999727249146 0.9750000238418579 0.5841349959373474
0.41627800464630127 0.9749450087547302 0.5974599719047546
0.416577011346817 0.9603949785232544 0.5976070165634155
0.41651400923728943 0.9190970063209534 0.5975540280342102
0.415816992521286 0.8630499839782715 0.6120200157165527
0.41591399908065796 0.793300986289978 0.6114019751548767
0.4163700044155121 0.7095329761505127 0.598022997379303
0.41583800315856934 0.6397849917411804 0.5980039834976196
0.41571301221847534 0.5837389826774597 0.5697460174560547
0.40207600593566895 0.5417760014533997 0.5556489825248718
0.3884899914264679 0.5280680060386658 0.5141199827194214
0.38784000277519226 0.5144850015640259 0.4857200086116791
0.37458598613739014 0.5003470182418823 0.45795199275016785
0.36070001125335693 0.500527024269104 0.4302070140838623
0.36067599058151245 0.5000219941139221 0.4021199941635132
0.34605300426483154 0.49973800778388977 0.3880139887332916
0.34669798612594604 0.47253599762916565 0.3740929961204529
0.3467389941215515 0.458065003156662 0.36028099060058594
0.34676799178123474 0.4163770079612732 0.3602289855480194
0.3466089963912964 0.360166996717453 0.36058399081230164
0.3466610014438629 0.3050149977207184 0.36074501276016235
0.3465549945831299 0.24869899451732635 0.36055898666381836
0.3459179997444153 0.1926569938659668 0.3745090067386627
0.3462109863758087 0.13740499317646027 0.4024380147457123
0.36047399044036865 0.10932400077581406 0.43042701482772827
0.37397199869155884 0.08086010068655014 0.45810601115226746
0.38812699913978577 0.08141589909791946 0.4996980130672455
0.4025300145149231 0.06721609830856323 0.5419830083847046
0.4021350145339966 0.06765930354595184 0.5699089765548706
0.4160130023956299 0.06711070239543915 0.5836920142173767
0.41608500480651855 0.0537853017449379 0.5979229807853699
0.41593998670578003 0.025153299793601036 0.6114810109138489
0.33247700333595276 0.02500000037252903 0.3189209997653961
0.3324950039386749 0.02586969919502735 0.31890401244163513
0.3322570025920868 0.541703999042511 0.31884801387786865
0.33240100741386414 0.541703999042511 0.31847599148750305
0.3321389853954315 0.541703999042511 0.3185099959373474
0.33263900876045227 0.541703999042511 0.3328770101070404
0.3323279917240143 0.541703999042511 0.35995200276374817
0.31806400418281555 0.5423049926757812 0.38794198632240295
0.3045639991760254 0.5556610226631165 0.4165419936180115
0.29040300846099854 0.5698260068893433 0.45815399289131165
0.2769019901752472 0.5838310122489929 0.4995630085468292
0.27636200189590454 0.6259840130805969 0.5275530219078064
0.26230600476264954 0.6816220283508301 0.5418800115585327
0.2626659870147705 0.73710697889328 0.5557649731636047
0.2629370093345642 0.8071900010108948 0.569782018661499
0.2623389959335327 0.8773450255393982 0.5698660016059875
0.24819600582122803 0.9193239808082581 0.5694010257720947
0.24825899302959442 0.9609150290489197 0.5839869976043701
0.2488739937543869 0.9750000238418579 0.5841349959373474
0.24845600128173828 0.9749450087547302 0.5974599719047546
0.24815699458122253 0.9603949785232544 0.5976070165634155
0.24821999669075012 0.9190970063209534 0.5975540280342102
0.24891699850559235 0.8630499839782715 0.6120200157165527
0.2488200068473816 0.793300986289978 0.6114019751548767
0.24836400151252747 0.7095329761505127 0.598022997379303
0.24889600276947021 0.6397849917411804 0.5980039834976196
0.2490209937095642 0.5837389826774597 0.5697460174560547
0.2626579999923706 0.5417760014533997 0.5556489825248718
0.27624401450157166 0.5280680060386658 0.5141199827194214
0.2768940031528473 0.5144850015640259 0.4857200086116791
0.290147989988327 0.5003470182418823 0.45795199275016785
0.3040350079536438 0.500527024269104 0.4302070140838623
0.3040579855442047 0.5000219941139221 0.4021199941635132
0.318681001663208 0.49973800778388977 0.3880139887332916
0.3180359899997711 0.47253599762916565 0.3740929961204529
0.31799599528312683 0.458065003156662 0.36028099060058594
0.3179660141468048 0.4163770079612732 0.3602289855480194
0.31812500953674316 0.360166996717453 0.36058399081230164
0.31807300448417664 0.3050149977207184 0.36074501276016235
0.31817901134490967 0.24869899451732635 0.36055898666381836
0.31881600618362427 0.1926569938659668 0.3745090067386627
0.31852298974990845 0.13740499317646027 0.4024380147457123
0.3042599856853485 0.10932400077581406 0.43042701482772827
0.2907620072364807 0.08086010068655014 0.45810601115226746
0.2766070067882538 0.08141589909791946 0.4996980130672455
0.26220399141311646 0.06721609830856323 0.5419830083847046
0.26259899139404297 0.06765930354595184 0.5699089765548706
0.24872100353240967 0.06711070239543915 0.5836920142173767
0.248649001121521 0.0537853017449379 0.5979229807853699
0.24879400432109833 0.025153299793601036 0.6114810109138489
0.3322570025920868 0.02500000037252903 0.3189209997653961
0.3322390019893646 0.02586969919502735 0.31890401244163513
0.3320789933204651 0.541703999042511 0.3187189996242523
0.3328059911727905 0.541703999042511 0.3183560073375702
0.33281800150871277 0.541703999042511 0.3186750113964081
0.3184930086135864 0.541703999042511 0.3181900084018707
0.3045690059661865 0.541703999042511 0.3327940106391907
0.2764590084552765 0.5423049926757812 0.36037299036979675
0.248649001121521 0.5556610226631165 0.3743380010128021
0.22093899548053741 0.5698260068893433 0.4023680090904236
0.1784909963607788 0.5838310122489929 0.43005698919296265
0.16501900553703308 0.6259840130805969 0.44391199946403503
0.13731899857521057 0.6816220283508301 0.4585550129413605
0.13726399838924408 0.73710697889328 0.4583370089530945
0.12255500257015228 0.8071900010108948 0.4721910059452057
0.12316600233316422 0.8773450255393982 0.47232601046562195
0.12333100289106369 0.9193239808082581 0.4721199870109558
0.10864099860191345 0.9609150290489197 0.47182199358940125
0.10855799913406372 0.9750000238418579 0.48593398928642273
0.09535069763660431 0.9749450087547302 0.48563799262046814
0.0952685996890068 0.9603949785232544 0.48602598905563354
0.09521680325269699 0.9190970063209534 0.485727995634079
0.0812721997499466 0.8630499839782715 0.4997749924659729
0.08102060109376907 0.793300986289978 0.49995899200439453
0.09468019753694534 0.7095329761505127 0.48636698722839355
0.09502609819173813 0.6397849917411804 0.48562300205230713
0.10880900174379349 0.5837389826774597 0.4722000062465668
0.13654400408267975 0.5417760014533997 0.4585320055484772
0.16527600586414337 0.5280680060386658 0.444225013256073
0.19241000711917877 0.5144850015640259 0.41652700304985046
0.22083799540996552 0.5003470182418823 0.40202799439430237
0.23423899710178375 0.500527024269104 0.38797399401664734
0.26260998845100403 0.5000219941139221 0.3740079998970032
0.27694401144981384 0.49973800778388977 0.3599349856376648
0.29089000821113586 0.47253599762916565 0.3460569977760315
0.29065001010894775 0.458065003156662 0.34640300273895264
0.29078900814056396 0.4163770079612732 0.3466379940509796
0.3045789897441864 0.360166996717453 0.34642499685287476
0.30444198846817017 0.3050149977207184 0.34652501344680786
0.2907809913158417 0.24869899451732635 0.3461430072784424
0.29053598642349243 0.1926569938659668 0.346314013004303
0.2629390060901642 0.13740499317646027 0.3599669933319092
0.24855299293994904 0.10932400077581406 0.3884600102901459
0.20702500641345978 0.08086010068655014 0.4024209976196289
0.17841799557209015 0.08141589909791946 0.4304389953613281
0.15064099431037903 0.06721609830856323 0.444379985332489
0.12258300185203552 0.06765930354595184 0.4719200134277344
0.1090719997882843 0.06711070239543915 0.4862250089645386
0.09472659975290298 0.0537853017449379 0.4860059916973114
0.08095350116491318 0.025153299793601036 0.5000069737434387
0.3324269950389862 0.02500000037252903 0.31863000988960266
0.3320319950580597 0.02586969919502735 0.3187530040740967
0.33201101422309875 0.541703999042511 0.3185099959373474
0.33226099610328674 0.541703999042511 0.3185099959373474
0.33281099796295166 0.541703999042511 0.3185099959373474
0.3187130093574524 0.541703999042511 0.3185099959373474
0.2905749976634979 0.541703999042511 0.3185099959373474
0.26287999749183655 0.5423049926757812 0.3185099959373474
0.22053800523281097 0.5556610226631165 0.3185099959373474
0.1788019984960556 0.5698260068893433 0.3185099959373474
0.15109899640083313 0.5838310122489929 0.3185099959373474
0.12340400367975235 0.6259840130805969 0.3185099959373474
0.09520100057125092 0.6816220283508301 0.3185099959373474
0.08064930140972137 0.73710697889328 0.3185099959373474
0.06715379655361176 0.8071900010108948 0.3185099959373474
0.06683039665222168 0.8773450255393982 0.3185099959373474
0.06708429753780365 0.9193239808082581 0.3185099959373474
0.05313370004296303 0.9609150290489197 0.3185099959373474
0.053564898669719696 0.9750000238418579 0.3185099959373474
0.038967400789260864 0.9749450087547302 0.3185099959373474
0.03939869999885559 0.9603949785232544 0.3185099959373474
0.02544800005853176 0.9190970063209534 0.3185099959373474
0.025440799072384834 0.8630499839782715 0.3185099959373474
0.025129400193691254 0.793300986289978 0.3185099959373474
0.02500000037252903 0.7095329761505127 0.3185099959373474
0.0392645001411438 0.6397849917411804 0.3185099959373474
0.0674963966012001 0.5837389826774597 0.3185099959373474
0.08105409890413284 0.5417760014533997 0.3185099959373474
0.12324000149965286 0.5280680060386658 0.3185099959373474
0.15059199929237366 0.5144850015640259 0.3185099959373474
0.19283300638198853 0.5003470182418823 0.3185099959373474
0.22113800048828125 0.500527024269104 0.3185099959373474
0.24855799973011017 0.5000219941139221 0.3185099959373474
0.26261600852012634 0.49973800778388977 0.3185099959373474
0.27624499797821045 0.47253599762916565 0.3185099959373474
0.276760995388031 0.458065003156662 0.3185099959373474
0.29082199931144714 0.4163770079612732 0.3185099959373474
0.29063698649406433 0.360166996717453 0.3185099959373474
0.2904669940471649 0.3050149977207184 0.3185099959373474
0.2903810143470764 0.24869899451732635 0.3185099959373474
0.2767220139503479 0.1926569938659668 0.3185099959373474
0.24864600598812103 0.13740499317646027 0.3185099959373474
0.22095300257205963 0.10932400077581406 0.3185099959373474
0.17861799895763397 0.08086010068655014 0.3185099959373474
0.13690400123596191 0.08141589909791946 0.3185099959373474
0.10924100130796432 0.06721609830856323 0.3185099959373474
0.06697410345077515 0.06765930354595184 0.3185099959373474
0.05306899920105934 0.06711070239543915 0.3185099959373474
0.039161499589681625 0.0537853017449379 0.3185099959373474
0.025045499205589294 0.025153299793601036 0.3185099959373474
0.3327080011367798 0.02500000037252903 0.3185099959373474
0.3319520056247711 0.02586969919502735 0.3185099959373474
0.3320789933204651 0.541703999042511 0.3183000087738037
0.3328059911727905 0.541703999042511 0.318664014339447
0.33281800150871277 0.541703999042511 0.31834501028060913
0.3184930086135864 0.541703999042511 0.3188300132751465
0.3045690059661865 0.541703999042511 0.30422499775886536
0.2764590084552765 0.5423049926757812 0.2766459882259369
0.248649001121521 0.5556610226631165 0.2626810073852539
0.22093899548053741 0.5698260068893433 0.23465099930763245
0.1784909963607788 0.5838310122489929 0.2069620043039322
0.16501900553703308 0.6259840130805969 0.19310800731182098
0.13731899857521057 0.6816220283508301 0.17846499383449554
0.13726399838924408 0.73710697889328 0.17868299782276154
0.12255500257015228 0.8071900010108948 0.16482900083065033
0.12316600233316422 0.8773450255393982 0.16469399631023407
0.12333100289106369 0.9193239808082581 0.16489900648593903
0.10864099860191345 0.9609150290489197 0.16519799828529358
0.10855799913406372 0.9750000238418579 0.1510860025882721
0.09535069763660431 0.9749450087547302 0.15138199925422668
0.0952685996890068 0.9603949785232544 0.15099400281906128
0.09521680325269699 0.9190970063209534 0.15129199624061584
0.0812721997499466 0.8630499839782715 0.13724400103092194
0.08102060109376907 0.793300986289978 0.1370609998703003
0.09468089789152145 0.7095329761505127 0.15065300464630127
0.09502609819173813 0.6397849917411804 0.1513960063457489
0.10880900174379349 0.5837389826774597 0.16482000052928925
0.13654400408267975 0.5417760014533997 0.17848800122737885
0.16527700424194336 0.5280680060386658 0.19279499351978302
0.19241000711917877 0.5144850015640259 0.22049300372600555
0.22083799540996552 0.5003470182418823 0.23499199748039246
0.23423899710178375 0.500527024269104 0.24904599785804749
0.26260998845100403 0.5000219941139221 0.26301100850105286
0.27694401144981384 0.49973800778388977 0.27708500623703003
0.29089000821113586 0.47253599762916565 0.29096201062202454
0.29065001010894775 0.458065003156662 0.2906160056591034
0.29078900814056396 0.4163770079612732 0.2903819978237152
0.3045789897441864 0.360166996717453 0.2905940115451813
0.30444198846817017 0.3050149977207184 0.29049500823020935
0.2907809913158417 0.24869899451732635 0.29087600111961365
0.29053598642349243 0.1926569938659668 0.29070499539375305
0.2629390060901642 0.13740499317646027 0.27705198526382446
0.24855299293994904 0.10932400077581406 0.24855999648571014
0.20702500641345978 0.08086010068655014 0.23459899425506592
0.17841799557209015 0.08141589909791946 0.2065809965133667
0.15064099431037903 0.06721609830856323 0.19263899326324463
0.12258300185203552 0.06765930354595184 0.16509899497032166
0.1090719997882843 0.06711070239543915 0.15079499781131744
0.09472659975290298 0.0537853017449379 0.15101400017738342
0.08095350116491318 0.025153299793601036 0.13701100647449493
0.3324269950389862 0.02500000037252903 0.31838899850845337
0.3320319950580597 0.02586969919502735 0.31826600432395935
0.3322570025920868 0.541703999042511 0.3181709945201874
0.33240100741386414 0.541703999042511 0.3185429871082306
0.3321389853954315 0.541703999042511 0.3185099959373474
0.33263900876045227 0.541703999042511 0.3041419982910156
0.3323279917240143 0.541703999042511 0.27706700563430786
0.31806400418281555 0.5423049926757812 0.24907700717449188
0.3045639991760254 0.5556610226631165 0.22047799825668335
0.29040300846099854 0.5698260068893433 0.17886599898338318
0.2769019901752472 0.5838310122489929 0.1374569982290268
0.27636200189590454 0.6259840130805969 0.10946699976921082
0.26230600476264954 0.6816220283508301 0.09513969719409943
0.2626659870147705 0.73710697889328 0.08125419914722443
0.2629370093345642 0.8071900010108948 0.06723769754171371
0.2623389959335327 0.8773450255393982 0.06715379655361176
0.24819600582122803 0.9193239808082581 0.06761860102415085
0.24825899302959442 0.9609150290489197 0.053033098578453064
0.2488739937543869 0.9750000238418579 0.05288450047373772
0.24845600128173828 0.9749450087547302 0.039559200406074524
0.24815699458122253 0.9603949785232544 0.039413001388311386
0.24821999669075012 0.9190970063209534 0.03946569934487343
0.24891699850559235 0.8630499839782715 0.02500000037252903
0.2488200068473816 0.793300986289978 0.02561810053884983
0.24836499989032745 0.7095329761505127 0.03899620100855827
0.24889600276947021 0.6397849917411804 0.03901530057191849
0.2490209937095642 0.5837389826774597 0.06727360188961029
0.2626579999923706 0.5417760014533997 0.08137039840221405
0.27624401450157166 0.5280680060386658 0.12290000170469284
0.2768940031528473 0.5144850015640259 0.15129899978637695
0.290147989988327 0.5003470182418823 0.17906799912452698
0.3040350079536438 0.500527024269104 0.2068129926919937
0.3040579855442047 0.5000219941139221 0.23489899933338165
0.318681001663208 0.49973800778388977 0.2490050047636032
0.3180359899997711 0.47253599762916565 0.26292699575424194
0.31799599528312683 0.458065003156662 0.2767390012741089
0.3179660141468048 0.4163770079612732 0.27678999304771423
0.31812500953674316 0.360166996717453 0.2764360010623932
0.31807300448417664 0.3050149977207184 0.2762739956378937
0.31817901134490967 0.24869899451732635 0.2764599919319153
0.31881600618362427 0.1926569938659668 0.2625109851360321
0.31852298974990845 0.13740499317646027 0.23458099365234375
0.3042599856853485 0.10932400077581406 0.20659199357032776
0.2907620072364807 0.08086010068655014 0.17891399562358856
0.2766070067882538 0.08141589909791946 0.13732199370861053
0.26220399141311646 0.06721609830856323 0.09503690153360367
0.26259899139404297 0.06765930354595184 0.06711070239543915
0.24872100353240967 0.06711070239543915 0.05332769826054573
0.248649001121521 0.0537853017449379 0.03909679874777794
0.24879400432109833 0.025153299793601036 0.025539100170135498
0.3322570025920868 0.02500000037252903 0.3180989921092987
0.3322390019893646 0.02586969919502735 0.3181160092353821
0.33247700333595276 0.541703999042511 0.3181709945201874
0.3323329985141754 0.541703999042511 0.3185429871082306
0.33259499073028564 0.541703999042511 0.3185099959373474
0.3320949971675873 0.541703999042511 0.3041419982910156
0.33240601420402527 0.541703999042511 0.27706700563430786
0.346670001745224 0.5423049926757812 0.24907700717449188
0.36017099022865295 0.5556610226631165 0.22047799825668335
0.3743320107460022 0.5698260068893433 0.17886599898338318
0.38783299922943115 0.5838310122489929 0.1374569982290268
0.388372004032135 0.6259840130805969 0.10946699976921082
0.40242800116539 0.6816220283508301 0.09513969719409943
0.40206798911094666 0.73710697889328 0.08125419914722443
0.40179699659347534 0.8071900010108948 0.06723769754171371
0.40239500999450684 0.8773450255393982 0.06715379655361176
0.4165390133857727 0.9193239808082581 0.06761860102415085
0.4164760112762451 0.9609150290489197 0.053033098578453064
0.41585999727249146 0.9750000238418579 0.05288450047373772
0.41627898812294006 0.9749450087547302 0.039559200406074524
0.416577011346817 0.9603949785232544 0.039413001388311386
0.4165149927139282 0.9190970063209534 0.03946569934487343
0.415816992521286 0.8630499839782715 0.02500000037252903
0.41591399908065796 0.793300986289978 0.02561810053884983
0.4163700044155121 0.7095329761505127 0.03899620100855827
0.41583800315856934 0.6397849917411804 0.03901530057191849
0.41571301221847534 0.5837389826774597 0.06727360188961029
0.40207600593566895 0.5417760014533997 0.08137039840221405
0.3884899914264679 0.5280680060386658 0.12290100008249283
0.38784000277519226 0.5144850015640259 0.15129899978637695
0.37458598613739014 0.5003470182418823 0.17906799912452698
0.36070001125335693 0.500527024269104 0.2068129926919937
0.36067599058151245 0.5000219941139221 0.23489899933338165
0.34605300426483154 0.49973800778388977 0.2490050047636032
0.34669798612594604 0.47253599762916565 0.26292699575424194
0.3467389941215515 0.458065003156662 0.2767390012741089
0.34676799178123474 0.4163770079612732 0.27678999304771423
0.3466089963912964 0.360166996717453 0.2764360010623932
0.3466610014438629 0.3050149977207184 0.27627500891685486
0.3465549945831299 0.24869899451732635 0.2764599919319153
0.34591901302337646 0.1926569938659668 0.2625109851360321
0.3462109863758087 0.13740499317646027 0.23458099365234375
0.36047399044036865 0.10932400077581406 0.20659199357032776
0.37397301197052 0.08086010068655014 0.17891399562358856
0.38812699913978577 0.08141589909791946 0.13732199370861053
0.4025300145149231 0.06721609830856323 0.09503690153360367
0.4021350145339966 0.06765930354595184 0.06711070239543915
0.4160130023956299 0.06711070239543915 0.05332769826054573
0.41608500480651855 0.0537853017449379 0.03909679874777794
0.41593998670578003 0.025153299793601036 0.025539100170135498
0.33247700333595276 0.02500000037252903 0.3180989921092987
0.3324950039386749 0.02586969919502735 0.3181160092353821
0.33265501260757446 0.541703999042511 0.3183000087738037
0.331928014755249 0.541703999042511 0.318664014339447
0.3319160044193268 0.541703999042511 0.31834501028060913
0.3462409973144531 0.541703999042511 0.3188300132751465
0.360164999961853 0.541703999042511 0.30422499775886536
0.38827499747276306 0.5423049926757812 0.2766459882259369
0.41608500480651855 0.5556610226631165 0.2626810073852539
0.44379499554634094 0.5698260068893433 0.23465099930763245
0.48624300956726074 0.5838310122489929 0.2069620043039322
0.49971500039100647 0.6259840130805969 0.19310800731182098
0.5274159908294678 0.6816220283508301 0.17846499383449554
0.5274710059165955 0.73710697889328 0.17868299782276154
0.5421789884567261 0.8071900010108948 0.16482900083065033
0.5415679812431335 0.8773450255393982 0.16469499468803406
0.5414040088653564 0.9193239808082581 0.16489900648593903
0.5560929775238037 0.9609150290489197 0.16519899666309357
0.5561760067939758 0.9750000238418579 0.1510860025882721
0.5693830251693726 0.9749450087547302 0.15138299763202667
0.5694659948348999 0.9603949785232544 0.15099400281906128
0.5695170164108276 0.9190970063209534 0.15129299461841583
0.5834619998931885 0.8630499839782715 0.13724499940872192
0.5837129950523376 0.793300986289978 0.1370609998703003
0.5700539946556091 0.7095329761505127 0.15065300464630127
0.569707989692688 0.6397849917411804 0.1513960063457489
0.5559250116348267 0.5837389826774597 0.16482000052928925
0.528190016746521 0.5417760014533997 0.17848800122737885
0.499457985162735 0.5280680060386658 0.19279499351978302
0.472324013710022 0.5144850015640259 0.22049300372600555
0.44389599561691284 0.5003470182418823 0.23499199748039246
0.4304949939250946 0.500527024269104 0.24904599785804749
0.40212398767471313 0.5000219941139221 0.26301100850105286
0.3877899944782257 0.49973800778388977 0.27708500623703003
0.37384501099586487 0.47253599762916565 0.29096201062202454
0.374085009098053 0.458065003156662 0.2906160056591034
0.3739449977874756 0.4163770079612732 0.2903819978237152
0.36015498638153076 0.360166996717453 0.2905940115451813
0.360291987657547 0.3050149977207184 0.29049500823020935
0.3739530146121979 0.24869899451732635 0.29087701439857483
0.37419798970222473 0.1926569938659668 0.29070499539375305
0.40179499983787537 0.13740499317646027 0.27705198526382446
0.4161809980869293 0.10932400077581406 0.24855999648571014
0.45770901441574097 0.08086010068655014 0.23459899425506592
0.4863159954547882 0.08141589909791946 0.2065809965133667
0.5140929818153381 0.06721609830856323 0.19263899326324463
0.5421509742736816 0.06765930354595184 0.16509899497032166
0.5556619763374329 0.06711070239543915 0.15079499781131744
0.5700070261955261 0.0537853017449379 0.1510149985551834
0.583782970905304 0.025153299793601036 0.13701200485229492
0.33230701088905334 0.02500000037252903 0.31838899850845337
0.33270299434661865 0.02586969919502735 0.31826600432395935
3 0 1 52
3 1 2 53
3 1 53 52
3 2 3 54
3 2 54 53
3 3 4 55
3 3 55 54
3 4 5 56
3 4 56 55
3 5 6 57
3 5 57 56
3 6 7 58
3 6 58 57
3 7 8 59
3 7 59 58
3 8 9 60
3 8 60 59
3 9 10 61
3 9 61 60
3 10 11 62
3 10 62 61
3 11 12 63
3 11 63 62
3 12 13 64
3 12 64 63
3 13 14 65
3 13 65 64
3 14 15 66
3 14 66 65
3 15 16 67
3 15 67 66
3 16 17 68
3 16 68 67
3 17 18 69
3 17 69 68
3 18 19 70
3 18 70 69
3 19 20 71
3 19 71 70
3 20 21 72
3 20 72 71
3 21 22 73
3 21 73 72
3 22 23 74
3 22 74 73
3 23 24 75
3 23 75 74
3 24 25 76
3 24 76 75
3 25 26 77
3 25 77 76
3 26 27 78
3 26 78 77
3 27 28 79
3 27 79 78
3 28 29 80
3 28 80 79
3 29 30 81
3 29 81 80
3 30 31 82
3 30 82 81
3 31 32 83
3 31 83 82
3 32 33 84
3 32 84 83
3 33 34 85
3 33 85 84
3 34 35 86
3 34 86 85
3 35 36 87
3 35 87 86
3 36 37 88
3 36 88 87
3 37 38 89
3 37 89 88
3 38 39 90
3 38 90 89
3 39 40 91
3 39 91 90
3 40 41 92
3 40 92 91
3 41 42 93
3 41 93 92
3 42 43 94
3 42 94 93
3 43 44 95
3 43 95 94
3 44 45 96
3 44 96 95
3 45 46 97
3 45 97 96
3 46 47 98
3 46 98 97
3 47 48 99
3 47 99 98
3 48 49 100
3 48 100 99
3 49 50 101
3 49 101 100
3 50 51 101
3 0 52 102
3 52 53 103
3 52 103 102
3 53 54 104
3 53 104 103
3 54 55 105
3 54 105 104
3 55 56 106
3 55 106 105
3 56 57 107
3 56 107 106
3 57 58 108
3 57 108 107
3 58 59 109
3 58 109 108
3 59 60 110
3 59 110 109
3 60 61 111
3 60 111 110
3 61 62 112
3 61 112 111
3 62 63 113
3 62 113 112
3 63 64 114
3 63 114 113
3 64 65 115
3 64 115 114
3 65 66 116
3 65 116 115
3 66 67 117
3 66 117 116
3 67 68 118
3 67 118 117
3 68 69 119
3 68 119 118
3 69 70 120
3 69 120 119
3 70 71 121
3 70 121 120
3 71 72 122
3 71 122 121
3 72 73 123
3 72 123 122
3 73 74 124
3 73 124 123
3 74 75 125
3 74 125 124
3 75 76 126
3 75 126 125
3 76 77 127
3 76 127 126
3 77 78 128
3 77 128 127
3 78 79 129
3 78 129 128
3 79 80 130
3 79 130 129
3 80 81 131
3 80 131 130
3 81 82 132
3 81 132 131
3 82 83 133
3 82 133 132
3 83 84 134
3 83 134 133
3 84 85 135
3 84 135 134
3 85 86 136
3 85 136 135
3 86 87 137
3 86 137 136
3 87 88 138
3 87 138 137
3 88 89 139
3 88 139 138
3 89 90 140
3 89 140 139
3 90 91 141
3 90 141 140
3 91 92 142
3 91 142 141
3 92 93 143
3 92 143 142
3 93 94 144
3 93 144 143
3 94 95 145
3 94 145 144
3 95 96 146
3 95 146 145
3 96 97 147
3 96 147 146
3 97 98 148
3 97 148 147
3 98 99 149
3 98 149 148
3 99 100 150
3 99 150 149
3 100 101 151
3 100 151 150
3 101 51 151
3 0 102 152
3 102 103 153
3 102 153 152
3 103 104 154
3 103 154 153
3 104 105 155
3 104 155 154
3 105 106 156
3 105 156 155
3 106 107 157
3 106 157 156
3 107 108 158
3 107 158 157
3 108 109 159
3 108 159 158
3 109 110 160
3 109 160 159
3 110 111 161
3 110 161 160
3 111 112 162
3 111 162 161
3 112 113 163
3 112 163 162
3 113 114 164
3 113 164 163
3 114 115 165
3 114 165 164
3 115 116 166
3 115 166 165
3 116 117 167
3 116 167 166
3 117 118 168
3 117 168 167
3 118 119 169
3 118 169 168
3 119 120 170
3 119 170 169
3 120 121 171
3 120 171 170
3 121 122 172
3 121 172 171
3 122 123 173
3 122 173 172
3 123 124 174
3 123 174 173
3 124 125 175
3 124 175 174
3 125 126 176
3 125 176 175
3 126 127 177
3 126 177 176
3 127 128 178
3 127 178 177
3 128 129 179
3 128 179 178
3 129 130 180
3 129 180 179
3 130 131 181
3 130 181 180
3 131 132 182
3 131 182 181
3 132 133 183
3 132 183 182
3 133 134 184
3 133 184 183
3 134 135 185
3 134 185 184
3 135 136 186
3 135 186 185
3 136 137 187
3 136 187 186
3 137 138 188
3 137 188 187
3 138 139 189
3 138 189 188
3 139 140 190
3 139 190 189
3 140 141 191
3 140 191 190
3 141 142 192
3 141 192 191
3 142 143 193
3 142 193 192
3 143 144 194
3 143 194 193
3 144 145 195
3 144 195 194
3 145 146 196
3 145 196 195
3 146 147 197
3 146 197 196
3 147 148 198
3 147 198 197
3 148 149 199
3 148 199 198
3 149 150 200
3 149 200 199
3 150 151 201
3 150 201 200
3 151 51 201
3 0 152 202
3 152 153 203
3 152 203 202
3 153 154 204
3 153 204 203
3 154 155 205
3 154 205 204
3 155 156 206
3 155 206 205
3 156 157 207
3 156 207 206
3 157 158 208
3 157 208 207
3 158 159 209
3 158 209 208
3 159 160 210
3 159 210 209
3 160 161 211
3 160 211 210
3 161 162 212
3 161 212 211
3 162 163 213
3 162 213 212
3 163 164 214
3 163 214 213
3 164 165 215
3 164 215 214
3 165 166 216
3 165 216 215
3 166 167 217
3 166 217 216
3 167 168 218
3 167 218 217
3 168 169 219
3 168 219 218
3 169 170 220
3 169 220 219
3 170 171 221
3 170 221 220
3 171 172 222
3 171 222 221
3 172 173 223
3 172 223 222
3 173 174 224
3 173 224 223
3 174 175 225
3 174 225 224
3 175 176 226
3 175 226 225
3 176 177 227
3 176 227 226
3 177 178 228
3 177 228 227
3 178 179 229
3 178 229 228
3 179 180 230
3 179 230 229
3 180 181 231
3 180 231 230
3 181 182 232
3 181 232 231
3 182 183 233
3 182 233 232
3 183 184 234
3 183 234 233
3 184 185 235
3 184 235 234
3 185 186 236
3 185 236 235
3 186 187 237
3 186 237 236
3 187 188 238
3 187 238 237
3 188 189 239
3 188 239 238
3 189 190 240
3 189 240 239
3 190 191 241
3 190 241 240
3 191 192 242
3 191 242 241
3 192 193 243
3 192 243 242
3 193 194 244
3 193 244 243
3 194 195 245
3 194 245 244
3 195 196 246
3 195 246 245
3 196 197 247
3 196 247 246
3 197 198 248
3 197 248 247
3 198 199 249
3 198 249 248
3 199 200 250
3 199 250 249
3 200 201 251
3 200 251 250
3 201 51 251
3 0 202 252
3 202 203 253
3 202 253 252
3 203 204 254
3 203 254 253
3 204 205 255
3 204 255 254
3 205 206 256
3 205 256 255
3 206 207 257
3 206 257 256
3 207 208 258
3 207 258 257
3 208 209 259
3 208 259 258
3 209 210 260
3 209 260 259
3 210 211 261
3 210 261 260
3 211 212 262
3 211 262 261
3 212 213 263
3 212 263 262
3 213 214 264
3 213 264 263
3 214 215 265
3 214 265 264
3 215 216 266
3 215 266 265
3 216 217 267
3 216 267 266
3 217 218 268
3 217 268 267
3 218 219 269
3 218 269 268
3 219 220 270
3 219 270 269
3 220 221 271
3 220 271 270
3 221 222 272
3 221 272 271
3 222 223 273
3 222 273 272
3 223 224 274
3 223 274 273
3 224 225 275
3 224 275 274
3 225 226 276
3 225 276 275
3 226 227 277
3 226 277 276
3 227 228 278
3 227 278 277
3 228 229 279
3 228 279 278
3 229 230 280
3 229 280 279
3 230 231 281
3 230 281 280
3 231 232 282
3 231 282 281
3 232 233 283
3 232 283 282
3 233 234 284
3 233 284 283
3 234 235 285
3 234 285 284
3 235 236 286
3 235 286 285
3 236 237 287
3 236 287 286
3 237 238 288
3 237 288 287
3 238 239 289
3 238 289 288
3 239 240 290
3 239 290 289
3 240 241 291
3 240 291 290
3 241 242 292
3 241 292 291
3 242 243 293
3 242 293 292
3 243 244 294
3 243 294 293
3 244 245 295
3 244 295 294
3 245 246 296
3 245 296 295
3 246 247 297
3 246 297 296
3 247 248 298
3 247 298 297
3 248 249 299
3 248 299 298
3 249 250 300
3 249 300 299
3 250 251 301
3 250 301 300
3 251 51 301
3 0 252 302
3 252 253 303
3 252 303 302
3 253 254 304
3 253 304 303
3 254 255 305
3 254 305 304
3 255 256 306
3 255 306 305
3 256 257 307
3 256 307 306
3 257 258 308
3 257 308 307
3 258 259 309
3 258 309 308
3 259 260 310
3 259 310 309
3 260 261 311
3 260 311 310
3 261 262 312
3 261 312 311
3 262 263 313
3 262 313 312
3 263 264 314
3 263 314 313
3 264 265 315
3 264 315 314
3 265 266 316
3 265 316 315
3 266 267 317
3 266 317 316
3 267 268 318
3 267 318 317
3 268 269 319
3 268 319 318
3 269 270 320
3 269 320 319
3 270 271 321
3 270 321 320
3 271 272 322
3 271 322 321
3 272 273 323
3 272 323 322
3 273 274 324
3 273 324 323
3 274 275 325
3 274 325 324
3 275 276 326
3 275 326 325
3 276 277 327
3 276 327 326
3 277 278 328
3 277 328 327
3 278 279 329
3 278 329 328
3 279 280 330
3 279 330 329
3 280 281 331
3 280 331 330
3 281 282 332
3 281 332 331
3 282 283 333
3 282 333 332
3 283 284 334
3 283 334 333
3 284 285 335
3 284 335 334
3 285 286 336
3 285 336 335
3 286 287 337
3 286 337 336
3 287 288 338
3 287 338 337
3 288 289 339
3 288 339 338
3 289 290 340
3 289 340 339
3 290 291 341
3 290 341 340
3 291 292 342
3 291 342 341
3 292 293 343
3 292 343 342
3 293 294 344
3 293 344 343
3 294 295 345
3 294 345 344
3 295 296 346
3 295 346 345
3 296 297 347
3 296 347 346
3 297 298 348
3 297 348 347
3 298 299 349
3 298 349 348
3 299 300 350
3 299 350 349
3 300 301 351
3 300 351 350
3 301 51 351
3 0 302 352
3 302 303 353
3 302 353 352
3 303 304 354
3 303 354 353
3 304 305 355
3 304 355 354
3 305 306 356
3 305 356 355
3 306 307 357
3 306 357 356
3 307 308 358
3 307 358 357
3 308 309 359
3 308 359 358
3 309 310 360
3 309 360 359
3 310 311 361
3 310 361 360
3 311 312 362
3 311 362 361
3 312 313 363
3 312 363 362
3 313 314 364
3 313 364 363
3 314 315 365
3 314 365 364
3 315 316 366
3 315 366 365
3 316 317 367
3 316 367 366
3 317 318 368
3 317 368 367
3 318 319 369
3 318 369 368
3 319 320 370
3 319 370 369
3 320 321 371
3 320 371 370
3 321 322 372
3 321 372 371
3 322 323 373
3 322 373 372
3 323 324 374
3 323 374 373
3 324 325 375
3 324 375 374
3 325 326 376
3 325 376 375
3 326 327 377
3 326 377 376
3 327 328 378
3 327 378 377
3 328 329 379
3 328 379 378
3 329 330 380
3 329 380 379
3 330 331 381
3 330 381 380
3 331 332 382
3 331 382 381
3 332 333 383
3 332 383 382
3 333 334 384
3 333 384 383
3 334 335 385
3 334 385 384
3 335 336 386
3 335 386 385
3 336 337 387
3 336 387 386
3 337 338 388
3 337 388 387
3 338 339 389
3 338 389 388
3 339 340 390
3 339 390 389
3 340 341 391
3 340 391 390
3 341 342 392
3 341 392 391
3 342 343 393
3 342 393 392
3 343 344 394
3 343 394 393
3 344 345 395
3 344 395 394
3 345 346 396
3 345 396 395
3 346 347 397
3 346 397 396
3 347 348 398
3 347 398 397
3 348 349 399
3 348 399 398
3 349 350 400
3 349 400 399
3 350 351 401
3 350 401 400
3 351 51 401
3 0 352 402
3 352 353 403
3 352 403 402
3 353 354 404
3 353 404 403
3 354 355 405
3 354 405 404
3 355 356 406
3 355 406 405
3 356 357 407
3 356 407 406
3 357 358 408
3 357 408 407
3 358 359 409
3 358 409 408
3 359 360 410
3 359 410 409
3 360 361 411
3 360 411 410
3 361 362 412
3 361 412 411
3 362 363 413
3 362 413 412
3 363 364 414
3 363 414 413
3 364 365 415
3 364 415 414
3 365 366 416
3 365 416 415
3 366 367 417
3 366 417 416
3 367 368 418
3 367 418 417
3 368 369 419
3 368 419 418
3 369 370 420
3 369 420 419
3 370 371 421
3 370 421 420
3 371 372 422
3 371 422 421
3 372 373 423
3 372 423 422
3 373 374 424
3 373 424 423
3 374 375 425
3 374 425 424
3 375 376 426
3 375 426 425
3 376 377 427
3 376 427 426
3 377 378 428
3 377 428 427
3 378 379 429
3 378 429 428
3 379 380 430
3 379 430 429
3 380 381 431
3 380 431 430
3 381 382 432
3 381 432 431
3 382 383 433
3 382 433 432
3 383 384 434
3 383 434 433
3 384 385 435
3 384 435 434
3 385 386 436
3 385 436 435
3 386 387 437
3 386 437 436
3 387 388 438
3 387 438 437
3 388 389 439
3 388 439 438
3 389 390 440
3 389 440 439
3 390 391 441
3 390 441 440
3 391 392 442
3 391 442 441
3 392 393 443
3 392 443 442
3 393 394 444
3 393 444 443
3 394 395 445
3 394 445 444
3 395 396 446
3 395 446 445
3 396 397 447
3 396 447 446
3 397 398 448
3 397 448 447
3 398 399 449
3 398 449 448
3 399 400 450
3 399 450 449
3 400 401 451
3 400 451 450
3 401 51 451
3 0 402 452
3 402 403 453
3 402 453 452
3 403 404 454
3 403 454 453
3 404 405 455
3 404 455 454
3 405 406 456
3 405 456 455
3 406 407 457
3 406 457 456
3 407 408 458
3 407 458 457
3 408 409 459
3 408 459 458
3 409 410 460
3 409 460 459
3 410 411 461
3 410 461 460
3 411 412 462
3 411 462 461
3 412 413 463
3 412 463 462
3 413 414 464
3 413 464 463
3 414 415 465
3 414 465 464
3 415 416 466
3 415 466 465
3 416 417 467
3 416 467 466
3 417 418 468
3 417 468 467
3 418 419 469
3 418 469 468
3 419 420 470
3 419 470 469
3 420 421 471
3 420 471 470
3 421 422 472
3 421 472 471
3 422 423 473
3 422 473 472
3 423 424 474
3 423 474 473
3 424 425 475
3 424 475 474
3 425 426 476
3 425 476 475
3 426 427 477
3 426 477 476
3 427 428 478
3 427 478 477
3 428 429 479
3 428 479 478
3 429 430 480
3 429 480 479
3 430 431 481
3 430 481 480
3 431 432 482
3 431 482 481
3 432 433 483
3 432 483 482
3 433 434 484
3 433 484 483
3 434 435 485
3 434 485 484
3 435 436 486
3 435 486 485
3 436 437 487
3 436 487 486
3 437 438 488
3 437 488 487
3 438 439 489
3 438 489 488
3 439 440 490
3 439 490 489
3 440 441 491
3 440 491 490
3 441 442 492
3 441 492 491
3 442 443 493
3 442 493 492
3 443 444 494
3 443 494 493
3 444 445 495
3 444 495 494
3 445 446 496
3 445 496 495
3 446 447 497
3 446 497 496
3 447 448 498
3 447 498 497
3 448 449 499
3 448 499 498
3 449 450 500
3 449 500 499
3 450 451 501
3 450 501 500
3 451 51 501
3 0 452 1
3 452 453 2
3 452 2 1
3 453 454 3
3 453 3 2
3 454 455 4
3 454 4 3
3 455 456 5
3 455 5 4
3 456 457 6
3 456 6 5
3 457 458 7
3 457 7 6
3 458 459 8
3 458 8 7
3 459 460 9
3 459 9 8
3 460 461 10
3 460 10 9
3 461 462 11
3 461 11 10
3 462 463 12
3 462 12 11
3 463 464 13
3 463 13 12
3 464 465 14
3 464 14 13
3 465 466 15
3 465 15 14
3 466 467 16
3 466 16 15
3 467 468 17
3 467 17 16
3 468 469 18
3 468 18 17
3 469 470 19
3 469 19 18
3 470 471 20
3 470 20 19
3 471 472 21
3 471 21 20
3 472 473 22
3 472 22 21
3 473 474 23
3 473 23 22
3 474 475 24
3 474 24 23
3 475 476 25
3 475 25 24
3 476 477 26
3 476 26 25
3 477 478 27
3 477 27 26
3 478 479 28
3 478 28 27
3 479 480 29
3 479 29 28
3 480 481 30
3 480 30 29
3 481 482 31
3 481 31 30
3 482 483 32
3 482 32 31
3 483 484 33
3 483 33 32
3 484 485 34
3 484 34 33
3 485 486 35
3 485 35 34
3 486 487 36
3 486 36 35
3 487 488 37
3 487 37 36
3 488 489 38
3 488 38 37
3 489 490 39
3 489 39 38
3 490 491 40
3 490 40 39
3 491 492 41
3 491 41 40
3 492 493 42
3 492 42 41
3 493 494 43
3 493 43 42
3 494 495 44
3 494 44 43
3 495 496 45
3 495 45 44
3 496 497 46
3 496 46 45
3 497 498 47
3 497 47 46
3 498 499 48
3 498 48 47
3 499 500 49
3 499 49 48
3 500 501 50
3 500 50 49
3 501 51 50
