ply
format ascii 1.0
element vertex 52
property float x
property float y
property float z
element face 70
property list uchar int vertex_indices
end_header
0.02500000037252903 0.02500000037252903 0.8886359930038452
0.02500000037252903 0.3704549968242645 0.8886359930038452
0.32727301120758057 0.5431820154190063 0.9318180084228516
0.32727301120758057 0.5431820154190063 0.8022729754447937
0.45681801438331604 0.5431820154190063 0.8022729754447937
0.45681801438331604 0.5431820154190063 0.9318180084228516
0.7159090042114258 0.3704549968242645 0.9750000238418579
0.7159090042114258 0.02500000037252903 0.9750000238418579
0.45681801438331604 0.02500000037252903 0.9750000238418579
0.45681801438331604 0.02500000037252903 0.8022729754447937
0.32727301120758057 0.02500000037252903 0.8022729754447937
0.32727301120758057 0.02500000037252903 0.9318180084228516
0.45681801438331604 0.3704549968242645 0.9750000238418579
0.45681801438331604 0.3704549968242645 0.9318180084228516
0.32727301120758057 0.3704549968242645 0.8886359930038452
0.32727301120758057 0.02500000037252903 0.8886359930038452
0.45681801438331604 0.02500000037252903 0.9318180084228516
0.5863639712333679 0.45681801438331604 0.9750000238418579
0.7159090042114258 0.02500000037252903 0.7159090042114258
0.7159090042114258 0.3704549968242645 0.7159090042114258
0.7159090042114258 0.45681801438331604 0.8454549908638
0.5863639712333679 0.45681801438331604 0.8454549908638
0.6295449733734131 0.3704549968242645 0.7159090042114258
0.6295449733734131 0.3704549968242645 0.2840909957885742
0.5431820154190063 0.3704549968242645 0.2840909957885742
0.5431820154190063 0.3704549968242645 0.02500000037252903
0.2840909957885742 0.3704549968242645 0.02500000037252903
0.6295449733734131 0.02500000037252903 0.7159090042114258
0.6295449733734131 0.02500000037252903 0.2840909957885742
0.5431820154190063 0.02500000037252903 0.2840909957885742
0.5431820154190063 0.02500000037252903 0.02500000037252903
0.2840909957885742 0.02500000037252903 0.02500000037252903
0.2840909957885742 0.3704549968242645 0.2840909957885742
0.2840909957885742 0.02500000037252903 0.2840909957885742
0.1977269947528839 0.3704549968242645 0.2840909957885742
0.1977269947528839 0.02500000037252903 0.2840909957885742
0.1977269947528839 0.3704549968242645 0.4136359989643097
0.1977269947528839 0.02500000037252903 0.4136359989643097
0.11136399954557419 0.3704549968242645 0.4136359989643097
0.11136399954557419 0.02500000037252903 0.4136359989643097
0.11136399954557419 0.3704549968242645 0.6295449733734131
0.11136399954557419 0.02500000037252903 0.6295449733734131
0.02500000037252903 0.3704549968242645 0.6295449733734131
0.02500000037252903 0.02500000037252903 0.6295449733734131
0.02500000037252903 0.45681801438331604 0.7590910196304321
0.5431820154190063 0.3704549968242645 0.7159090042114258
0.2840909957885742 0.3704549968242645 0.6295449733734131
0.45681801438331604 0.3704549968242645 0.8886359930038452
0.4136359989643097 0.45681801438331604 0.7590910196304321
0.4136359989643097 0.45681801438331604 0.02500000037252903
0.5863639712333679 0.45681801438331604 0.7590910196304321
0.1977269947528839 0.3704549968242645 0.7159090042114258
3 0 15 14
3 11 16 5
3 10 11 2
3 10 3 4
3 8 9 4
3 2 5 4
3 8 7 6
3 16 8 12
3 12 6 17
3 7 18 19
3 6 19 20
3 6 21 17
3 6 20 21
3 50 44 1
3 50 47 12
3 50 21 20
3 48 50 22
3 19 22 50
3 48 45 25
3 45 22 23
3 48 22 45
3 48 49 26
3 48 46 40
3 51 36 38
3 46 32 34
3 19 18 27
3 22 27 28
3 23 28 29
3 24 29 30
3 25 30 31
3 26 31 33
3 32 33 35
3 34 35 37
3 36 37 39
3 38 39 41
3 40 41 43
3 42 43 0
3 0 14 1
3 11 5 2
3 10 2 3
3 10 4 9
3 8 4 5
3 2 4 3
3 8 6 12
3 16 12 13
3 7 19 6
3 50 1 47
3 50 12 17
3 50 20 19
3 48 25 49
3 45 23 24
3 48 26 46
3 48 40 42
3 48 42 44
3 51 38 40
3 46 34 51
3 19 27 22
3 22 28 23
3 23 29 24
3 24 30 25
3 25 31 26
3 25 26 49
3 26 33 32
3 32 35 34
3 34 37 36
3 36 39 38
3 38 41 40
3 40 43 42
3 42 0 1
3 42 1 44
