ply
format ascii 1.0
element vertex 28
property float x
property float y
property float z
element face 46
property list uchar int vertex_indices
end_header
0.9749969840049744 0.6715540289878845 0.20743000507354736
0.9749969840049744 0.6410589814186096 0.1469939947128296
0.9749969840049744 0.6410589814186096 0.3909820020198822
0.02500009909272194 0.6410549879074097 0.1469939947128296
0.02500009909272194 0.6410549879074097 0.3909820020198822
0.9749969840049744 0.6715540289878845 0.33054500818252563
0.02500000037252903 0.6715499758720398 0.33054500818252563
0.02500000037252903 0.6715499758720398 0.20743000507354736
0.9749969840049744 0.5954800248146057 0.11649899929761887
0.9749969840049744 0.5800690054893494 0.05549490079283714
0.9749979972839355 0.5190650224685669 0.02500000037252903
0.9749979972839355 0.5190650224685669 0.5129609704017639
0.9749969840049744 0.5800690054893494 0.4824660122394562
0.9749969840049744 0.5954800248146057 0.42147698998451233
0.025000400841236115 0.595475971698761 0.11649899929761887
0.025000400841236115 0.5800650119781494 0.05549490079283714
0.02500070072710514 0.5190610289573669 0.02500000037252903
0.02500070072710514 0.5190610289573669 0.5129609704017639
0.025000400841236115 0.5800650119781494 0.4824660122394562
0.025000400841236115 0.595475971698761 0.42147698998451233
0.9750000238418579 0.5190629959106445 0.02500000037252903
0.9750000238418579 0.5190629959106445 0.5129609704017639
0.02500299923121929 0.5190629959106445 0.02500000037252903
0.02500299923121929 0.5190629959106445 0.5129609704017639
0.9750000238418579 0.02500000037252903 0.5129609704017639
0.02500299923121929 0.02500000037252903 0.5129609704017639
0.02500299923121929 0.02500000037252903 0.02500000037252903
0.9750000238418579 0.02500000037252903 0.02500000037252903
3 7 0 1
3 4 2 5
3 6 5 0
3 14 8 9
3 15 9 10
3 17 11 12
3 18 12 13
3 4 19 13
3 8 14 3
3 19 14 15
3 19 4 6
3 1 0 5
3 13 12 11
3 22 23 21
3 24 21 23
3 22 20 27
3 23 22 26
3 27 20 21
3 25 26 27
3 7 1 3
3 4 5 6
3 6 0 7
3 14 9 15
3 15 10 16
3 17 12 18
3 18 13 19
3 4 13 2
3 8 3 1
3 19 15 16
3 19 16 17
3 19 17 18
3 19 6 7
3 19 7 3
3 19 3 14
3 1 5 2
3 1 2 13
3 1 13 8
3 13 11 10
3 13 10 9
3 13 9 8
3 22 21 20
3 24 23 25
3 22 27 26
3 23 26 25
3 27 21 24
3 25 27 24
