ply
format ascii 1.0
element vertex 89
property float x
property float y
property float z
element face 168
property list uchar int vertex_indices
end_header
0.6583330035209656 0.02500000037252903 0.3421710133552551
0.5660640001296997 0.02500000037252903 0.11798200011253357
0.3421710133552551 0.02500000037252903 0.02500000037252903
0.11798200011253357 0.02500000037252903 0.11726800352334976
0.02500000037252903 0.02500000037252903 0.3411619961261749
0.11726800352334976 0.02500000037252903 0.5653510093688965
0.3411619961261749 0.02500000037252903 0.6583330035209656
0.5653510093688965 0.02500000037252903 0.5660640001296997
0.6187490224838257 0.09545829892158508 0.34210801124572754
0.5379160046577454 0.09545829892158508 0.14604100584983826
0.34210801124572754 0.09545829892158508 0.06458330154418945
0.14604100584983826 0.09545829892158508 0.1454170048236847
0.06458330154418945 0.09545829892158508 0.3412249982357025
0.1454170048236847 0.09545829892158508 0.5372909903526306
0.3412249982357025 0.09545829892158508 0.6187490224838257
0.5372909903526306 0.09545829892158508 0.5379160046577454
0.6583330035209656 0.16591699421405792 0.3421710133552551
0.5660640001296997 0.16591699421405792 0.11798200011253357
0.3421710133552551 0.16591699421405792 0.02500000037252903
0.11798200011253357 0.16591699421405792 0.11726800352334976
0.02500000037252903 0.16591699421405792 0.3411619961261749
0.11726800352334976 0.16591699421405792 0.5653510093688965
0.3411619961261749 0.16591699421405792 0.6583330035209656
0.5653510093688965 0.16591699421405792 0.5660640001296997
0.5791659951210022 0.2712079882621765 0.34204500913619995
0.5097669959068298 0.2712079882621765 0.17409999668598175
0.34204500913619995 0.2712079882621765 0.10416699945926666
0.17409999668598175 0.2712079882621765 0.17356599867343903
0.10416699945926666 0.2712079882621765 0.3412880003452301
0.17356599867343903 0.2712079882621765 0.5092319846153259
0.3412880003452301 0.2712079882621765 0.5791659951210022
0.5092319846153259 0.2712079882621765 0.5097669959068298
0.6187180280685425 0.3416669964790344 0.3618989884853363
0.5379059910774231 0.3416669964790344 0.151978999376297
0.34210801124572754 0.3416669964790344 0.06458330154418945
0.14603200554847717 0.3416669964790344 0.15135399997234344
0.06455180048942566 0.3416669964790344 0.36101698875427246
0.1453630030155182 0.3416669964790344 0.5709369778633118
0.3411619961261749 0.3416669964790344 0.6583330035209656
0.5372380018234253 0.3416669964790344 0.5715609788894653
0.4208639860153198 0.4825829863548279 0.32200101017951965
0.3977999985218048 0.4825829863548279 0.1402759999036789
0.34210801124572754 0.4825829863548279 0.06458330154418945
0.286175012588501 0.4825829863548279 0.14009800553321838
0.26253101229667664 0.4825829863548279 0.3217490017414093
0.28559601306915283 0.4825829863548279 0.5034729838371277
0.3412880003452301 0.4825829863548279 0.5791659951210022
0.39722099900245667 0.4825829863548279 0.5036510229110718
0.42339399456977844 0.6935629844665527 0.47321298718452454
0.3998369872570038 0.6935629844665527 0.3524459898471832
0.34172898530960083 0.6935629844665527 0.30208298563957214
0.2834619879722595 0.6935629844665527 0.3522610068321228
0.2595199942588806 0.6935629844665527 0.4729520082473755
0.2830770015716553 0.6935629844665527 0.5941150188446045
0.34118399024009705 0.6935629844665527 0.6444780230522156
0.39945098757743835 0.6935629844665527 0.5942999720573425
0.4349620044231415 0.7287920117378235 0.4178149998188019
0.4079129993915558 0.7287920117378235 0.2519170045852661
0.3419179916381836 0.7287920117378235 0.18333299458026886
0.2757050096988678 0.7287920117378235 0.2517069876194
0.2481289952993393 0.7287920117378235 0.4175170063972473
0.2751779854297638 0.7287920117378235 0.5830190181732178
0.3411720097064972 0.7287920117378235 0.6519989967346191
0.40738600492477417 0.7287920117378235 0.5832300186157227
0.46032199263572693 0.7992500066757202 0.40123000741004944
0.42577800154685974 0.7992500066757202 0.21909199655056
0.3419809937477112 0.7992500066757202 0.14374999701976776
0.2579450011253357 0.7992500066757202 0.21882399916648865
0.22282199561595917 0.7992500066757202 0.4008519947528839
0.25736498832702637 0.7992500066757202 0.5829910039901733
0.3411619961261749 0.7992500066757202 0.6583330035209656
0.4251979887485504 0.7992500066757202 0.5832579731941223
0.41286399960517883 0.8693130016326904 0.3746339976787567
0.39218899607658386 0.8693130016326904 0.18341299891471863
0.34204500913619995 0.8693130016326904 0.10416699945926666
0.2916480004787445 0.8693130016326904 0.18325300514698029
0.270363986492157 0.8693130016326904 0.37440699338912964
0.29103899002075195 0.8693130016326904 0.5656279921531677
0.34118300676345825 0.8693130016326904 0.6452699899673462
0.3915799856185913 0.8693130016326904 0.5657879710197449
0.38897499442100525 0.9045420289039612 0.46207499504089355
0.3753010034561157 0.9045420289039612 0.3488450050354004
0.34172898530960083 0.9045420289039612 0.30208298563957214
0.30800899863243103 0.9045420289039612 0.34873801469802856
0.29397499561309814 0.9045420289039612 0.4619239866733551
0.30764898657798767 0.9045420289039612 0.5751540064811707
0.3412199914455414 0.9045420289039612 0.6219159960746765
0.37494000792503357 0.9045420289039612 0.5752609968185425
0.34154000878334045 0.9750000238418579 0.4208329916000366
3 0 9 8
3 0 1 9
3 1 10 9
3 1 2 10
3 2 11 10
3 2 3 11
3 3 12 11
3 3 4 12
3 4 13 12
3 4 5 13
3 5 14 13
3 5 6 14
3 6 15 14
3 6 7 15
3 7 8 15
3 7 0 8
3 8 17 16
3 8 9 17
3 9 18 17
3 9 10 18
3 10 19 18
3 10 11 19
3 11 20 19
3 11 12 20
3 12 21 20
3 12 13 21
3 13 22 21
3 13 14 22
3 14 23 22
3 14 15 23
3 15 16 23
3 15 8 16
3 16 25 24
3 16 17 25
3 17 26 25
3 17 18 26
3 18 27 26
3 18 19 27
3 19 28 27
3 19 20 28
3 20 29 28
3 20 21 29
3 21 30 29
3 21 22 30
3 22 31 30
3 22 23 31
3 23 24 31
3 23 16 24
3 24 33 32
3 24 25 33
3 25 34 33
3 25 26 34
3 26 35 34
3 26 27 35
3 27 36 35
3 27 28 36
3 28 37 36
3 28 29 37
3 29 38 37
3 29 30 38
3 30 39 38
3 30 31 39
3 31 32 39
3 31 24 32
3 32 41 40
3 32 33 41
3 33 42 41
3 33 34 42
3 34 43 42
3 34 35 43
3 35 44 43
3 35 36 44
3 36 45 44
3 36 37 45
3 37 46 45
3 37 38 46
3 38 47 46
3 38 39 47
3 39 40 47
3 39 32 40
3 40 49 48
3 40 41 49
3 41 50 49
3 41 42 50
3 42 51 50
3 42 43 51
3 43 52 51
3 43 44 52
3 44 53 52
3 44 45 53
3 45 54 53
3 45 46 54
3 46 55 54
3 46 47 55
3 47 48 55
3 47 40 48
3 48 57 56
3 48 49 57
3 49 58 57
3 49 50 58
3 50 59 58
3 50 51 59
3 51 60 59
3 51 52 60
3 52 61 60
3 52 53 61
3 53 62 61
3 53 54 62
3 54 63 62
3 54 55 63
3 55 56 63
3 55 48 56
3 56 65 64
3 56 57 65
3 57 66 65
3 57 58 66
3 58 67 66
3 58 59 67
3 59 68 67
3 59 60 68
3 60 69 68
3 60 61 69
3 61 70 69
3 61 62 70
3 62 71 70
3 62 63 71
3 63 64 71
3 63 56 64
3 64 73 72
3 64 65 73
3 65 74 73
3 65 66 74
3 66 75 74
3 66 67 75
3 67 76 75
3 67 68 76
3 68 77 76
3 68 69 77
3 69 78 77
3 69 70 78
3 70 79 78
3 70 71 79
3 71 72 79
3 71 64 72
3 72 81 80
3 72 73 81
3 73 82 81
3 73 74 82
3 74 83 82
3 74 75 83
3 75 84 83
3 75 76 84
3 76 85 84
3 76 77 85
3 77 86 85
3 77 78 86
3 78 87 86
3 78 79 87
3 79 80 87
3 79 72 80
3 80 81 88
3 81 82 88
3 82 83 88
3 83 84 88
3 84 85 88
3 85 86 88
3 86 87 88
3 87 80 88
