ply
format ascii 1.0
element vertex 25
property float x
property float y
property float z
element face 22
property list uchar int vertex_indices
end_header
0.07188410311937332 0.02500000037252903 0.9740809798240662
0.6373170018196106 0.02500000037252903 0.9740809798240662
0.07188410311937332 0.32604798674583435 0.9740809798240662
0.6373170018196106 0.3251290023326874 0.9740809798240662
0.07188410311937332 0.317779004573822 0.02683749981224537
0.6367530226707458 0.34564799070358276 0.02683749981224537
0.07188410311937332 0.02500000037252903 0.02683749981224537
0.6367530226707458 0.02500000037252903 0.02683749981224537
0.35262399911880493 0.6038200259208679 0.9740809798240662
0.35262399911880493 0.6038200259208679 0.02683749981224537
0.1543550044298172 0.5 0.9740809798240662
0.15491999685764313 0.5015310049057007 0.02683749981224537
0.5503280162811279 0.500918984413147 0.9740809798240662
0.563319981098175 0.5012249946594238 0.02591880038380623
0.07188410311937332 0.02500000037252903 0.9060930013656616
0.6367530226707458 0.02500000037252903 0.9060930013656616
0.6344929933547974 0.3312540054321289 0.9060930013656616
0.5503280162811279 0.49816200137138367 0.9060930013656616
0.35262399911880493 0.5995330214500427 0.9060930013656616
0.15491999685764313 0.4972440004348755 0.9060930013656616
0.07470840215682983 0.3312540054321289 0.9060930013656616
0.6796830296516418 0.28531599044799805 0.9722440242767334
0.6802470088005066 0.28531599044799805 0.02500000037252903
0.02669459953904152 0.23478400707244873 0.9750000238418579
0.02500000037252903 0.2182459980249405 0.027756299823522568
3 14 15 16
3 23 10 11
3 4 11 9
3 1 7 5
3 6 0 2
3 8 12 13
3 10 8 9
3 12 21 22
3 14 16 17
3 14 17 18
3 14 18 19
3 14 19 20
3 23 11 24
3 4 9 13
3 4 13 5
3 4 5 7
3 4 7 6
3 1 5 3
3 6 2 4
3 8 13 9
3 10 9 11
3 12 22 13
