ply
format ascii 1.0
element vertex 40
property float x
property float y
property float z
element face 45
property list uchar int vertex_indices
end_header
0.3959290087223053 0.3636910021305084 0.9251880049705505
0.3804599940776825 0.3645929992198944 0.9366940259933472
0.614093005657196 0.6253229975700378 0.7915250062942505
0.6486179828643799 0.681352972984314 0.7214009761810303
0.5438089966773987 0.6883000135421753 0.7754930257797241
0.5691549777984619 0.7523369789123535 0.6912130117416382
0.81489497423172 0.07638289779424667 0.7259219884872437
0.8150720000267029 0.04105360060930252 0.7268620133399963
0.8468170166015625 0.33430400490760803 0.6917600035667419
0.8369429707527161 0.340380996465683 0.6953309774398804
0.1122170016169548 0.33082300424575806 0.4028089940547943
0.08607640117406845 0.3341139853000641 0.4168950021266937
0.4892730116844177 0.6803470253944397 0.671887993812561
0.5434960126876831 0.6870520114898682 0.7755820155143738
0.5695350170135498 0.7508059740066528 0.6905999779701233
0.02500000037252903 0.2476779967546463 0.25078800320625305
0.34236299991607666 0.5928580164909363 0.27882400155067444
0.02951820008456707 0.0726901963353157 0.26227501034736633
0.449196994304657 0.04395129904150963 0.04228129982948303
0.593330979347229 0.6723780035972595 0.6182370185852051
0.6490949988365173 0.680404007434845 0.7204610109329224
0.5676320195198059 0.2973729968070984 0.16554400324821472
0.3901500105857849 0.03773479908704758 0.9522190093994141
0.8199449777603149 0.334087997674942 0.7052209973335266
0.5822749733924866 0.6185780167579651 0.7414770126342773
0.5441550016403198 0.5714820027351379 0.7681090235710144
0.5011360049247742 0.5648630261421204 0.6882110238075256
0.5433470010757446 0.6132400035858154 0.6620439887046814
0.6260600090026855 0.564300000667572 0.7238109707832336
0.5850939750671387 0.5580840110778809 0.6437439918518066
0.3718479871749878 0.36972299218177795 0.9346470236778259
0.11793000251054764 0.2754549980163574 0.40890899300575256
0.25231099128723145 0.49918800592422485 0.11923900246620178
0.3371939957141876 0.5076969861984253 0.2758080065250397
0.5205770134925842 0.08489180356264114 0.17440900206565857
0.5623630285263062 0.3034690022468567 0.1787640005350113
0.5391010046005249 0.24883699417114258 0.1845960021018982
0.46296700835227966 0.22473900020122528 0.02500000037252903
0.4023419916629791 0.30744099617004395 0.051545798778533936
0.13143299520015717 0.0322347991168499 0.4708789885044098
3 37 18 17
3 37 17 15
3 12 4 14
3 8 2 1
3 25 3 4
3 37 15 32
3 35 33 16
3 21 36 33
3 36 32 33
3 18 37 34
3 34 37 36
3 16 9 21
3 9 16 2
3 22 23 0
3 23 22 7
3 9 6 38
3 6 18 38
3 38 32 33
3 33 21 38
3 39 22 10
3 10 22 0
3 11 2 16
3 11 30 2
3 33 31 10
3 33 10 16
3 11 16 10
3 24 28 3
3 28 19 3
3 19 28 29
3 19 5 3
3 5 4 3
3 4 26 25
3 4 12 26
3 33 32 31
3 31 32 15
3 15 17 39
3 31 15 39
3 14 19 12
3 12 13 14
3 12 27 26
3 27 12 19
3 29 27 19
3 19 14 20
3 21 37 38
3 37 21 36
