ply
format ascii 1.0
element vertex 216
property float x
property float y
property float z
element face 426
property list uchar int vertex_indices
end_header
0.36361899971961975 0.38837000727653503 0.19989900290966034
0.44140899181365967 0.48332399129867554 0.2503330111503601
0.4389680027961731 0.401203989982605 0.3445799946784973
0.28672000765800476 0.29779699444770813 0.4856880009174347
0.28672000765800476 0.368478000164032 0.1803790032863617
0.3404819965362549 0.1873610019683838 0.45509999990463257
0.3710089921951294 0.20117400586605072 0.1317940056324005
0.4376530051231384 0.22081300616264343 0.3751800060272217
0.4513469934463501 0.2333730012178421 0.2503019869327545
0.28672000765800476 0.1974489986896515 0.11685899645090103
0.28672000765800476 0.23122499883174896 0.48441699147224426
0.37519198656082153 0.25830599665641785 0.4374130070209503
0.4194459915161133 0.2819080054759979 0.36105799674987793
0.4301620125770569 0.288659006357193 0.27207300066947937
0.35314300656318665 0.2941589951515198 0.18739399313926697
0.28672000765800476 0.2948629856109619 0.16947799921035767
0.28672000765800476 0.18220099806785583 0.4788619875907898
0.3883579969406128 0.3257780075073242 0.44447699189186096
0.28672000765800476 0.02500000037252903 0.5669019818305969
0.34389498829841614 0.060544099658727646 0.5136740207672119
0.4659920036792755 0.15745800733566284 0.4345110058784485
0.4818829894065857 0.2175610065460205 0.25108200311660767
0.431443989276886 0.36090800166130066 0.514689028263092
0.3598789870738983 0.35705000162124634 0.6290270090103149
0.4092099964618683 0.51425701379776 0.07547769695520401
0.49299299716949463 0.5169020295143127 0.16397300362586975
0.4958910048007965 0.4850670099258423 0.3298420011997223
0.43035998940467834 0.4942539930343628 0.6108959913253784
0.3443489968776703 0.49786999821662903 0.6383839845657349
0.4123849868774414 0.5970969796180725 0.0386710986495018
0.5148239731788635 0.5982329845428467 0.1103459969162941
0.5250279903411865 0.6087080240249634 0.3120279908180237
0.3586120009422302 0.6690210103988647 0.6414880156517029
0.40318599343299866 0.7486590147018433 0.06308750063180923
0.5087590217590332 0.7439709901809692 0.12290699779987335
0.5484390258789062 0.7405719757080078 0.3006559908390045
0.4756920039653778 0.7707710266113281 0.5524730086326599
0.3620840013027191 0.8085880279541016 0.6221659779548645
0.36682000756263733 0.8890690207481384 0.12550799548625946
0.46577298641204834 0.8628420233726501 0.157600998878479
0.500944972038269 0.8761979937553406 0.2779949903488159
0.45030298829078674 0.8886500000953674 0.5260559916496277
0.36536601185798645 0.9197720289230347 0.6001570224761963
0.28672000765800476 0.9750000238418579 0.42276400327682495
0.39423298835754395 0.3595469892024994 0.5913329720497131
0.3370319902896881 0.3210889995098114 0.6335960030555725
0.35922300815582275 0.3116239905357361 0.6054649949073792
0.47676900029182434 0.4870089888572693 0.49941200017929077
0.4904190003871918 0.607820987701416 0.49004700779914856
0.5102459788322449 0.7570859789848328 0.48568999767303467
0.4755989909172058 0.8857460021972656 0.4423699975013733
0.28672000765800476 0.4872260093688965 0.6679779887199402
0.28672000765800476 0.3510729968547821 0.656004011631012
0.3028329908847809 0.6180099844932556 0.6377149820327759
0.31522199511528015 0.5051509737968445 0.6917549967765808
0.41061699390411377 0.5821859836578369 0.6002690196037292
0.4585370123386383 0.6043559908866882 0.5550749897956848
0.3494870066642761 0.5834100246429443 0.6129299998283386
0.3711889982223511 0.4214099943637848 0.6235619783401489
0.28672000765800476 0.414014995098114 0.6651530265808105
0.28672000765800476 0.4483700096607208 0.6805179715156555
0.28672000765800476 0.3917500078678131 0.6697959899902344
0.3340199887752533 0.4426169991493225 0.6503859758377075
0.3363809883594513 0.4022290110588074 0.6450750231742859
0.33002299070358276 0.4178900122642517 0.6395819783210754
0.3082129955291748 0.5275200009346008 0.6909629702568054
0.28672000765800476 0.37126898765563965 0.6498799920082092
0.42808499932289124 0.6653500199317932 0.6060439944267273
0.39249899983406067 0.9653090238571167 0.41877999901771545
0.3808169960975647 0.9398840069770813 0.5341780185699463
0.3629719913005829 0.8624849915504456 0.6266109943389893
0.28672000765800476 0.9231380224227905 0.6119949817657471
0.28672000765800476 0.8046969771385193 0.6399800181388855
0.28672000765800476 0.9519199728965759 0.5388820171356201
0.28672000765800476 0.8642860054969788 0.6451719999313354
0.28672000765800476 0.621025025844574 0.6509349942207336
0.28672000765800476 0.5310230255126953 0.7002279758453369
0.28672000765800476 0.5023980140686035 0.6987230181694031
0.28672000765800476 0.3132779896259308 0.6430760025978088
0.28672000765800476 0.29666998982429504 0.617251992225647
0.28672000765800476 0.9035670161247253 0.11858899891376495
0.28672000765800476 0.7502390146255493 0.04985859990119934
0.28672000765800476 0.5964059829711914 0.02500000037252903
0.28672000765800476 0.5128099918365479 0.05831089988350868
0.3157210052013397 0.4878869950771332 0.6532920002937317
0.28672000765800476 0.9739689826965332 0.2200479954481125
0.3796600103378296 0.9624000191688538 0.22735300660133362
0.28672000765800476 0.6699420213699341 0.6583999991416931
0.40152600407600403 0.3180910050868988 0.5223860144615173
0.28672000765800476 0.30034300684928894 0.5252220034599304
0.28672000765800476 0.5681009888648987 0.6713129878044128
0.30334800481796265 0.5639060139656067 0.6625900268554688
0.3336069881916046 0.5423790216445923 0.6349530220031738
0.43715399503707886 0.5385310053825378 0.6050000190734863
0.31783899664878845 0.599918007850647 0.6203830242156982
0.35606199502944946 0.636434018611908 0.613074004650116
0.41830500960350037 0.638018012046814 0.6025909781455994
0.28672000765800476 0.41822999715805054 0.11865899711847305
0.39263400435447693 0.43627700209617615 0.13019199669361115
0.28672000765800476 0.5172709822654724 0.7051569819450378
0.3123050034046173 0.5183789730072021 0.6961910128593445
0.3053709864616394 0.45208001136779785 0.6745219826698303
0.30649998784065247 0.41456300020217896 0.6556829810142517
0.31036999821662903 0.3934580087661743 0.6600610017776489
0.3625729978084564 0.37215301394462585 0.6274480223655701
0.28672000765800476 0.3360460102558136 0.6537250280380249
0.35280099511146545 0.34226199984550476 0.6347560286521912
0.28672000765800476 0.4281350076198578 0.671625018119812
0.3059360086917877 0.4265980124473572 0.6606119871139526
0.3320220112800598 0.4235619902610779 0.6423410177230835
0.3060150146484375 0.44659700989723206 0.66041100025177
0.28672000765800476 0.4465399980545044 0.6720439791679382
0.331369012594223 0.4032459855079651 0.6290169954299927
0.3711889982223511 0.42412999272346497 0.612995982170105
0.28672000765800476 0.39676299691200256 0.6526880264282227
0.3065130114555359 0.4010370075702667 0.6439160108566284
0.3320609927177429 0.4365220069885254 0.631775975227356
0.3317149877548218 0.4232589900493622 0.6303960084915161
0.30601900815963745 0.42158201336860657 0.655655026435852
0.28672000765800476 0.42277199029922485 0.6643009781837463
0.28672000765800476 0.41289299726486206 0.6547819972038269
0.3063890039920807 0.4118970036506653 0.6460719704627991
0.3315419852733612 0.41156500577926636 0.6297060251235962
0.3944090008735657 0.484281986951828 0.514024019241333
0.39436599612236023 0.3596790134906769 0.5060520172119141
0.3577690124511719 0.4596399962902069 0.6309729814529419
0.28672000765800476 0.4953770041465759 0.5174130201339722
0.28672000765800476 0.3682760000228882 0.5082070231437683
0.2098200023174286 0.38837000727653503 0.19989900290966034
0.13202999532222748 0.48332399129867554 0.2503330111503601
0.13447199761867523 0.401203989982605 0.3445799946784973
0.23295700550079346 0.1873610019683838 0.45509999990463257
0.20243099331855774 0.20117400586605072 0.1317940056324005
0.1357869952917099 0.22081300616264343 0.3751800060272217
0.12209200114011765 0.2333730012178421 0.2503019869327545
0.1982479989528656 0.25830700993537903 0.4374130070209503
0.15399199724197388 0.2819080054759979 0.36105799674987793
0.14327700436115265 0.288659006357193 0.27207300066947937
0.2202959954738617 0.2941589951515198 0.18739399313926697
0.18508000671863556 0.3257780075073242 0.44447699189186096
0.229544997215271 0.060544099658727646 0.5136730074882507
0.10744799673557281 0.15745800733566284 0.4345110058784485
0.0915554016828537 0.2175610065460205 0.25108200311660767
0.14199599623680115 0.36090800166130066 0.514689028263092
0.21356000006198883 0.35705000162124634 0.6290270090103149
0.16422900557518005 0.51425701379776 0.07547769695520401
0.08044540137052536 0.5169029831886292 0.16397300362586975
0.07754780352115631 0.4850670099258423 0.3298420011997223
0.1430799961090088 0.4942539930343628 0.6108959913253784
0.22909100353717804 0.49786999821662903 0.6383839845657349
0.16105300188064575 0.5970969796180725 0.0386710986495018
0.05861549824476242 0.5982329845428467 0.1103459969162941
0.048411399126052856 0.6087080240249634 0.3120279908180237
0.21482700109481812 0.6690210103988647 0.6414880156517029
0.1702519953250885 0.7486590147018433 0.06308750063180923
0.06467950344085693 0.7439709901809692 0.12290699779987335
0.02500000037252903 0.7405719757080078 0.3006559908390045
0.09774649888277054 0.7707710266113281 0.5524730086326599
0.21135500073432922 0.8085880279541016 0.6221659779548645
0.20661799609661102 0.8890690207481384 0.12550799548625946
0.1076669991016388 0.8628420233726501 0.157600998878479
0.0724944993853569 0.8761979937553406 0.2779949903488159
0.12313500046730042 0.8886500000953674 0.5260559916496277
0.20807300508022308 0.9197720289230347 0.6001560091972351
0.1792059987783432 0.3595469892024994 0.5913329720497131
0.23640699684619904 0.3210889995098114 0.6335960030555725
0.21421599388122559 0.3116239905357361 0.6054649949073792
0.096669502556324 0.4870089888572693 0.49941200017929077
0.08302079886198044 0.607820987701416 0.49004700779914856
0.0631939023733139 0.7570859789848328 0.48568999767303467
0.09784010052680969 0.8857460021972656 0.4423699975013733
0.27060601115226746 0.6180099844932556 0.6377149820327759
0.2582170069217682 0.5051509737968445 0.6917549967765808
0.16282199323177338 0.5821859836578369 0.6002690196037292
0.11490199714899063 0.6043570041656494 0.5550749897956848
0.2239529937505722 0.5834100246429443 0.6129299998283386
0.20225000381469727 0.4214099943637848 0.6235619783401489
0.23941899836063385 0.4426169991493225 0.6503859758377075
0.23705799877643585 0.4022290110588074 0.6450750231742859
0.24341599643230438 0.4178909957408905 0.6395819783210754
0.26522600650787354 0.5275200009346008 0.6909629702568054
0.1453540027141571 0.6653500199317932 0.6060429811477661
0.18093900382518768 0.9653090238571167 0.41877999901771545
0.19262200593948364 0.9398840069770813 0.5341780185699463
0.21046799421310425 0.8624849915504456 0.6266109943389893
0.2577179968357086 0.4878869950771332 0.6532920002937317
0.19377900660037994 0.9624000191688538 0.22735300660133362
0.1719129979610443 0.3180910050868988 0.5223860144615173
0.2700920104980469 0.5639060139656067 0.6625900268554688
0.23983199894428253 0.5423790216445923 0.6349530220031738
0.13628600537776947 0.5385310053825378 0.6050000190734863
0.2556000053882599 0.599918007850647 0.6203830242156982
0.21737800538539886 0.636434018611908 0.613074004650116
0.15513299405574799 0.638018012046814 0.6025909781455994
0.1808049976825714 0.43627700209617615 0.13019199669361115
0.26113399863243103 0.5183789730072021 0.6961910128593445
0.26806798577308655 0.45208001136779785 0.6745219826698303
0.2669390141963959 0.41456300020217896 0.6556829810142517
0.2630690038204193 0.3934580087661743 0.6600610017776489
0.21086600422859192 0.37215301394462585 0.6274480223655701
0.22063800692558289 0.34226199984550476 0.6347560286521912
0.2675029933452606 0.4265980124473572 0.6606119871139526
0.24141700565814972 0.4235619902610779 0.6423410177230835
0.26742398738861084 0.44659700989723206 0.66041100025177
0.2420700043439865 0.4032459855079651 0.6290169954299927
0.20225000381469727 0.42412999272346497 0.612995982170105
0.28672000765800476 0.39676299691200256 0.6526889801025391
0.26692599058151245 0.4010370075702667 0.6439160108566284
0.24137799441814423 0.4365220069885254 0.631775975227356
0.24172399938106537 0.4232589900493622 0.6303960084915161
0.2674199938774109 0.42158299684524536 0.655655026435852
0.26704999804496765 0.4118970036506653 0.6460719704627991
0.24189700186252594 0.41156500577926636 0.6297060251235962
0.17903099954128265 0.484281986951828 0.514024019241333
0.1790740042924881 0.3596790134906769 0.5060520172119141
0.21567000448703766 0.4596399962902069 0.6309729814529419
3 214 120 127
3 127 126 213
3 187 130 139
3 176 177 215
3 149 148 215
3 185 149 177
3 214 213 205
3 209 205 213
3 205 212 214
3 212 211 214
3 210 209 213
3 211 120 214
3 119 210 213
3 213 126 119
3 207 212 204
3 206 211 207
3 111 203 119
3 203 208 210
3 206 120 211
3 208 205 209
3 207 211 212
3 205 208 176
3 202 176 208
3 207 204 197
3 179 197 204
3 208 203 202
3 201 202 203
3 206 207 59
3 197 59 207
3 204 205 179
3 176 179 205
3 203 111 201
3 107 201 111
3 212 205 204
3 210 208 209
3 119 203 210
3 214 127 213
3 177 176 202
3 177 201 196
3 60 196 107
3 90 75 188
3 52 200 105
3 164 200 144
3 165 105 200
3 178 199 66
3 148 164 176
3 11 5 12
3 12 2 11
3 12 7 13
3 13 1 12
3 13 6 14
3 14 0 13
3 4 0 15
3 16 5 10
3 14 6 9
3 10 5 11
3 2 17 11
3 11 3 10
3 5 7 12
3 1 2 12
3 7 8 13
3 0 1 13
3 8 6 13
3 14 9 15
3 15 0 14
3 3 11 17
3 5 16 19
3 198 178 66
3 20 5 19
3 8 20 21
3 18 19 16
3 20 7 5
3 59 198 61
3 8 7 20
3 6 8 21
3 22 46 88
3 98 24 25
3 0 25 1
3 1 25 31
3 1 26 2
3 2 26 47
3 2 47 22
3 47 27 22
3 27 125 58
3 44 22 27
3 66 23 104
3 83 24 97
3 24 29 30
3 24 30 25
3 25 30 31
3 31 26 1
3 26 31 48
3 26 48 47
3 92 28 27
3 82 29 83
3 29 33 34
3 29 34 30
3 30 34 35
3 30 35 31
3 31 35 49
3 31 49 48
3 37 72 87
3 81 33 82
3 33 38 39
3 33 39 34
3 34 39 40
3 34 40 35
3 35 40 50
3 35 50 49
3 50 41 49
3 41 42 70
3 36 70 37
3 72 37 74
3 80 38 81
3 71 42 73
3 42 41 69
3 68 43 69
3 68 50 40
3 86 68 40
3 86 38 85
3 22 44 46
3 44 104 23
3 88 2 22
3 46 45 79
3 45 44 106
3 78 45 105
3 46 44 45
3 47 93 27
3 48 36 56
3 49 41 36
3 50 68 69
3 84 51 62
3 106 23 52
3 54 28 100
3 75 53 87
3 94 57 95
3 84 28 54
3 77 54 99
3 96 67 32
3 92 27 93
3 93 56 55
3 48 56 93
3 55 95 57
3 94 53 91
3 58 104 44
3 66 52 23
3 101 107 108
3 62 125 28
3 62 51 101
3 104 58 63
3 103 63 102
3 58 64 63
3 76 65 90
3 92 65 100
3 103 61 66
3 67 37 32
3 55 56 96
3 40 39 86
3 69 41 50
3 69 43 73
3 70 36 41
3 74 70 71
3 70 42 71
3 73 42 69
3 74 37 70
3 53 75 91
3 76 100 65
3 51 54 77
3 79 45 78
3 89 3 88
3 85 43 86
3 81 38 33
3 82 33 29
3 83 29 24
3 4 98 0
3 51 84 54
3 85 38 80
3 86 39 38
3 86 43 68
3 87 53 32
3 88 46 89
3 89 46 79
3 90 65 91
3 92 91 65
3 55 57 92
3 91 92 94
3 93 47 48
3 93 55 92
3 94 32 53
3 92 57 94
3 95 32 94
3 95 55 96
3 96 32 95
3 96 56 67
3 102 59 103
3 32 37 87
3 37 67 36
3 67 56 36
3 36 48 49
3 3 17 88
3 97 24 98
3 0 98 25
3 98 4 97
3 99 54 100
3 100 28 92
3 100 76 99
3 101 51 60
3 109 62 108
3 102 63 64
3 103 59 61
3 63 103 66
3 44 27 58
3 104 63 66
3 105 45 106
3 106 44 23
3 106 52 105
3 75 90 91
3 101 60 107
3 108 62 101
3 58 62 109
3 127 124 123
3 110 119 118
3 116 118 117
3 113 122 112
3 108 107 111
3 111 110 108
3 64 58 113
3 113 112 64
3 59 102 115
3 115 114 59
3 109 108 110
3 110 116 109
3 102 64 112
3 112 115 102
3 58 109 116
3 116 113 58
3 121 115 122
3 113 116 117
3 120 114 121
3 116 110 118
3 110 111 119
3 121 114 115
3 122 115 112
3 126 123 119
3 118 119 123
3 120 121 124
3 117 118 123
3 121 122 124
3 122 113 124
3 113 117 123
3 123 124 113
3 28 84 62
3 27 28 125
3 62 58 125
3 2 88 17
3 126 127 123
3 120 124 127
3 131 135 136
3 130 136 135
3 133 136 137
3 129 137 136
3 132 137 138
3 128 138 137
3 128 4 15
3 131 16 10
3 132 138 9
3 131 10 135
3 139 130 135
3 3 135 10
3 133 131 136
3 130 129 136
3 134 133 137
3 129 128 137
3 132 134 137
3 9 138 15
3 128 15 138
3 135 3 139
3 16 131 140
3 178 197 179
3 131 141 140
3 141 134 142
3 140 18 16
3 133 141 131
3 177 202 201
3 133 134 141
3 134 132 142
3 166 143 187
3 145 194 146
3 146 128 129
3 146 129 152
3 147 129 130
3 147 130 167
3 167 130 143
3 148 167 143
3 215 148 176
3 143 164 148
3 144 66 199
3 145 83 97
3 150 145 151
3 151 145 146
3 151 146 152
3 147 152 129
3 152 147 168
3 168 147 167
3 149 189 148
3 150 82 83
3 154 150 155
3 155 150 151
3 155 151 156
3 156 151 152
3 156 152 169
3 169 152 168
3 72 158 87
3 154 81 82
3 159 154 160
3 160 154 155
3 160 155 161
3 161 155 156
3 161 156 170
3 170 156 169
3 162 170 169
3 163 162 184
3 184 157 158
3 158 72 74
3 159 80 81
3 163 71 73
3 162 163 183
3 43 182 183
3 170 182 161
3 182 186 161
3 159 186 85
3 164 143 166
3 199 164 144
3 130 187 143
3 165 166 79
3 164 165 200
3 165 78 105
3 164 166 165
3 190 167 148
3 157 168 174
3 162 169 157
3 182 170 183
3 51 185 177
3 144 200 52
3 149 172 195
3 171 75 87
3 175 191 192
3 149 185 172
3 172 77 99
3 181 193 153
3 148 189 190
3 174 190 173
3 174 168 190
3 192 173 175
3 171 191 188
3 199 176 164
3 52 66 144
3 107 196 201
3 215 177 149
3 51 177 196
3 176 199 178
3 178 198 197
3 179 176 178
3 180 76 90
3 180 189 195
3 61 198 66
3 158 181 153
3 174 173 193
3 160 161 186
3 162 183 170
3 43 183 73
3 157 184 162
3 184 74 71
3 163 184 71
3 163 73 183
3 158 74 184
3 75 171 188
3 195 76 180
3 172 51 77
3 165 79 78
3 3 89 187
3 43 85 186
3 159 81 154
3 154 82 150
3 150 83 145
3 194 4 128
3 185 51 172
3 159 85 80
3 160 186 159
3 43 186 182
3 171 87 153
3 166 187 89
3 166 89 79
3 180 90 188
3 188 189 180
3 175 173 189
3 189 188 191
3 167 190 168
3 173 190 189
3 153 191 171
3 175 189 191
3 153 192 191
3 173 192 193
3 153 193 192
3 174 193 181
3 59 197 198
3 158 153 87
3 181 158 157
3 174 181 157
3 168 157 169
3 139 3 187
3 145 97 194
3 194 128 146
3 4 194 97
3 172 99 195
3 149 195 189
3 76 195 99
3 51 196 60
3 19 18 140
3 20 19 140
3 20 140 141
3 20 141 142
3 20 142 21
3 21 142 132
3 21 132 6
3 6 132 9
