ply
format ascii 1.0
element vertex 197
property float x
property float y
property float z
element face 480
property list uchar int vertex_indices
end_header
0.32267799973487854 0.41810598969459534 0.43715301156044006
0.2854419946670532 0.5005210041999817 0.41909998655319214
0.3213520050048828 0.38373398780822754 0.4694499969482422
0.33169499039649963 0.4541130065917969 0.3978779911994934
0.3230400085449219 0.4876689910888672 0.3734470009803772
0.2889559864997864 0.5277690291404724 0.36118000745773315
0.25359898805618286 0.5408639907836914 0.37445300817489624
0.2903839945793152 0.41810598969459534 0.4601849913597107
0.25031399726867676 0.4541130065917969 0.45592001080513
0.2300329953432083 0.4876689910888672 0.43977999687194824
0.22953499853610992 0.5277690291404724 0.40355899930000305
0.15436799824237823 0.41810598969459534 0.45542800426483154
0.1621679961681366 0.5005210041999817 0.41478800773620605
0.12282799929380417 0.38373398780822754 0.4625059962272644
0.19463799893856049 0.4541130065917969 0.4539720118045807
0.21599699556827545 0.4876689910888672 0.43928900361061096
0.21902400255203247 0.5277690291404724 0.40319201350212097
0.197052001953125 0.5408639907836914 0.3724749982357025
0.12376199662685394 0.41810598969459534 0.43019500374794006
0.11751099675893784 0.4541130065917969 0.39038699865341187
0.12785199284553528 0.4876689910888672 0.3666200041770935
0.16270999610424042 0.5277690291404724 0.3567639887332916
0.09315379709005356 0.41810598969459534 0.2975820004940033
0.1344279944896698 0.5005210041999817 0.2945989966392517
0.07815390080213547 0.38373398780822754 0.2689490020275116
0.10498200356960297 0.4541130065917969 0.33610400557518005
0.12469299882650375 0.4876689910888672 0.35293400287628174
0.16034400463104248 0.5277690291404724 0.3465160131454468
0.18432700634002686 0.5408639907836914 0.31734299659729004
0.10960499942302704 0.41810598969459534 0.26148900389671326
0.14643900096416473 0.4541130065917969 0.24514800310134888
0.17207300662994385 0.4876689910888672 0.24898500740528107
0.1906149983406067 0.5277690291404724 0.28010401129722595
0.054199498146772385 0.4889320135116577 0.23732399940490723
0.10632699728012085 0.5988190174102783 0.21923799812793732
0.02500000037252903 0.44310200214385986 0.20562399923801422
0.08272659778594971 0.5369439721107483 0.28285300731658936
0.11392100155353546 0.581682026386261 0.2977280020713806
0.15762099623680115 0.6351490020751953 0.2771590054035187
0.17844100296497345 0.6526079773902893 0.23130999505519867
0.0629315972328186 0.4889320135116577 0.1851619929075241
0.1047310009598732 0.5369439721107483 0.15140500664710999
0.13906900584697723 0.581682026386261 0.14750100672245026
0.17368799448013306 0.6351490020751953 0.18118000030517578
0.1956540048122406 0.4889320135116577 0.06140980124473572
0.2266159951686859 0.5988190174102783 0.10707999765872955
0.21871699392795563 0.44310200214385986 0.02500000037252903
0.15905900299549103 0.5369439721107483 0.10074900090694427
0.15276600420475006 0.581682026386261 0.1347299963235855
0.1839440017938614 0.6351490020751953 0.17161700129508972
0.23361900448799133 0.6526079773902893 0.17986099421977997
0.2482990026473999 0.4889320135116577 0.056343600153923035
0.29172399640083313 0.5369439721107483 0.08798210322856903
0.30438199639320374 0.581682026386261 0.12013900279998779
0.28081101179122925 0.6351490020751953 0.16229599714279175
0.40218600630760193 0.4889320135116577 0.1525149941444397
0.3660849928855896 0.5988190174102783 0.194241002202034
0.4433239996433258 0.44310200214385986 0.1653680056333542
0.3547149896621704 0.5369439721107483 0.12734800577163696
0.32026299834251404 0.581682026386261 0.130063995718956
0.29270198941230774 0.6351490020751953 0.16972699761390686
0.2975960075855255 0.6526079773902893 0.21984300017356873
0.42070499062538147 0.4889320135116577 0.2020539939403534
0.40138301253318787 0.5369439721107483 0.2521890103816986
0.37359800934791565 0.581682026386261 0.2727380096912384
0.32677701115608215 0.6351490020751953 0.2608799934387207
0.4525029957294464 0.6181960105895996 0.27534401416778564
0.4224959909915924 0.7332490086555481 0.3164840042591095
0.4910129904747009 0.566985011100769 0.2884500026702881
0.40779900550842285 0.6722949743270874 0.24991199374198914
0.37589699029922485 0.7216960191726685 0.2523820102214813
0.3513439893722534 0.7793290019035339 0.2917560040950775
0.35718101263046265 0.7967119812965393 0.34178099036216736
0.4709700047969818 0.6162809729576111 0.32488900423049927
0.4543370008468628 0.6674699783325195 0.37476399540901184
0.429082989692688 0.7161840200424194 0.39507099986076355
0.38532400131225586 0.7758079767227173 0.3829190135002136
0.4181689918041229 0.625993013381958 0.49839699268341064
0.37463998794555664 0.7420539855957031 0.4737370014190674
0.4139460027217865 0.5811619758605957 0.5416970252990723
0.4327229857444763 0.6714479923248291 0.4457879960536957
0.4236319959163666 0.7171840071678162 0.412977010011673
0.3812440037727356 0.776557981967926 0.3963260054588318
0.3352299928665161 0.8007519841194153 0.4139159917831421
0.37528398633003235 0.6324009895324707 0.5290910005569458
0.3246519863605499 0.6875920295715332 0.5231339931488037
0.30012398958206177 0.7356370091438293 0.5013729929924011
0.3023349940776825 0.7883470058441162 0.45280200242996216
0.19461099803447723 0.6575649976730347 0.5226809978485107
0.21089300513267517 0.764860987663269 0.46792900562286377
0.15024200081825256 0.6178920269012451 0.5323429703712463
0.25069600343704224 0.6978939771652222 0.5205109715461731
0.28147798776626587 0.7382339835166931 0.5007110238075256
0.2883729934692383 0.7902899980545044 0.45230600237846375
0.26011601090431213 0.811214029788971 0.4112510085105896
0.1539440006017685 0.6627960205078125 0.48902401328086853
0.14821699261665344 0.7110750079154968 0.435696005821228
0.16436000168323517 0.7532989978790283 0.403779000043869
0.2135470062494278 0.7999160289764404 0.3903779983520508
0.25830399990081787 0.805840015411377 0.47650599479675293
0.23083999752998352 0.9105600118637085 0.42434701323509216
0.23088300228118896 0.7488369941711426 0.5021860003471375
0.29886800050735474 0.8694750070571899 0.45275598764419556
0.3101939857006073 0.9200119972229004 0.4235740005970001
0.28688400983810425 0.9682199954986572 0.3788850009441376
0.24167099595069885 0.9715189933776855 0.3542790114879608
0.20818200707435608 0.7892559766769409 0.4631569981575012
0.17256200313568115 0.8276849985122681 0.41911599040031433
0.16584399342536926 0.8722509741783142 0.38512900471687317
0.1946599930524826 0.9377059936523438 0.35432299971580505
0.09858959913253784 0.756725013256073 0.3199490010738373
0.13151399791240692 0.8810750246047974 0.29455599188804626
0.07092639803886414 0.7013530135154724 0.29316699504852295
0.127701997756958 0.8143680095672607 0.36049601435661316
0.1545339971780777 0.8688949942588806 0.3703500032424927
0.18619099259376526 0.9351919889450073 0.34325700998306274
0.19610899686813354 0.9579939842224121 0.29474198818206787
0.09803090244531631 0.7582629919052124 0.26707300543785095
0.12629400193691254 0.818244993686676 0.22724799811840057
0.15292499959468842 0.8733260035514832 0.21806600689888
0.1851630061864853 0.9380229711532593 0.24596400558948517
0.20458100736141205 0.7991690039634705 0.12241099774837494
0.22808200120925903 0.918150007724762 0.16344699263572693
0.22644299268722534 0.76105797290802 0.08202330023050308
0.16990800201892853 0.834987998008728 0.16803200542926788
0.16392000019550323 0.877547025680542 0.20313799381256104
0.19339600205421448 0.9411839842796326 0.2347860038280487
0.24040600657463074 0.9750000238418579 0.2345999926328659
0.25441300868988037 0.8165469765663147 0.1083889976143837
0.2954860031604767 0.8787829875946045 0.13269799947738647
0.307437002658844 0.9275969862937927 0.16275499761104584
0.2850880026817322 0.9731619954109192 0.20898500084877014
0.35750699043273926 0.0592229999601841 0.28185799717903137
0.34591200947761536 0.0592229999601841 0.2508389949798584
0.29382801055908203 0.0592229999601841 0.28798601031303406
0.3787330090999603 0.2987839877605438 0.2798149883747101
0.3632729947566986 0.2987839877605438 0.23845699429512024
0.3999600112438202 0.2987839877605438 0.2777720093727112
0.38063400983810425 0.2987839877605438 0.22607499361038208
0.3787330090999603 0.02500000037252903 0.2798149883747101
0.3632729947566986 0.02500000037252903 0.23845699429512024
0.29382801055908203 0.02500000037252903 0.28798601031303406
0.320360004901886 0.0592229999601841 0.22977399826049805
0.3292050063610077 0.2987839877605438 0.2103700041770935
0.3380489945411682 0.2987839877605438 0.19096599519252777
0.3292050063610077 0.02500000037252903 0.2103700041770935
0.28769999742507935 0.0592229999601841 0.22430600225925446
0.28565698862075806 0.2987839877605438 0.20307999849319458
0.28361499309539795 0.2987839877605438 0.1818539947271347
0.28565698862075806 0.02500000037252903 0.20307999849319458
0.25668099522590637 0.0592229999601841 0.23590199649333954
0.2442989945411682 0.2987839877605438 0.2185409963130951
0.23191699385643005 0.2987839877605438 0.20117999613285065
0.2442989945411682 0.02500000037252903 0.2185409963130951
0.23561599850654602 0.0592229999601841 0.2614530026912689
0.21621200442314148 0.2987839877605438 0.2526090145111084
0.19680799543857574 0.2987839877605438 0.2437649965286255
0.21621200442314148 0.02500000037252903 0.2526090145111084
0.23014900088310242 0.0592229999601841 0.29411399364471436
0.20892199873924255 0.2987839877605438 0.29615598917007446
0.18769599497318268 0.2987839877605438 0.29819899797439575
0.20892199873924255 0.02500000037252903 0.29615598917007446
0.2417439967393875 0.0592229999601841 0.32513201236724854
0.22438299655914307 0.2987839877605438 0.3375149965286255
0.20702199637889862 0.2987839877605438 0.34989699721336365
0.22438299655914307 0.02500000037252903 0.3375149965286255
0.2672950029373169 0.0592229999601841 0.3461979925632477
0.25845101475715637 0.2987839877605438 0.3656019866466522
0.24960699677467346 0.2987839877605438 0.38500499725341797
0.25845101475715637 0.02500000037252903 0.3656019866466522
0.29995599389076233 0.0592229999601841 0.3516649901866913
0.30199798941612244 0.2987839877605438 0.37289100885391235
0.3040409982204437 0.2987839877605438 0.3941180109977722
0.30199798941612244 0.02500000037252903 0.37289100885391235
0.3309740126132965 0.0592229999601841 0.3400700092315674
0.34335699677467346 0.2987839877605438 0.35743099451065063
0.3557389974594116 0.2987839877605438 0.3747920095920563
0.34335699677467346 0.02500000037252903 0.35743099451065063
0.35203999280929565 0.0592229999601841 0.314518004655838
0.3714430034160614 0.2987839877605438 0.3233630061149597
0.39084699749946594 0.2987839877605438 0.33220699429512024
0.3714430034160614 0.02500000037252903 0.3233630061149597
0.2890320122241974 0.8672040104866028 0.29380300641059875
0.30229800939559937 0.7260339856147766 0.2925260066986084
0.3129119873046875 0.7260339856147766 0.29150500893592834
0.29964500665664673 0.8672040104866028 0.2927820086479187
0.3065829873085022 0.7260339856147766 0.2814030051231384
0.2933169901371002 0.8672040104866028 0.2826789915561676
0.27576500177383423 0.5495730042457581 0.2950800061225891
0.28637900948524475 0.5495730042457581 0.2940579950809479
0.28005099296569824 0.5495730042457581 0.28395599126815796
0.27448898553848267 0.3378179967403412 0.28181299567222595
0.2851020097732544 0.3378179967403412 0.2807919979095459
0.2787739932537079 0.3378179967403412 0.2706890106201172
0.2890320122241974 0.05547970160841942 0.29380300641059875
0.29964500665664673 0.05547970160841942 0.2927820086479187
0.2933169901371002 0.05547970160841942 0.2826789915561676
3 0 1 2
3 2 1 0
3 3 1 0
3 0 1 3
3 4 1 3
3 3 1 4
3 5 1 4
3 4 1 5
3 6 1 5
3 5 1 6
3 2 1 7
3 7 1 2
3 7 1 8
3 8 1 7
3 8 1 9
3 9 1 8
3 9 1 10
3 10 1 9
3 10 1 6
3 6 1 10
3 11 12 13
3 13 12 11
3 14 12 11
3 11 12 14
3 15 12 14
3 14 12 15
3 16 12 15
3 15 12 16
3 17 12 16
3 16 12 17
3 13 12 18
3 18 12 13
3 18 12 19
3 19 12 18
3 19 12 20
3 20 12 19
3 20 12 21
3 21 12 20
3 21 12 17
3 17 12 21
3 22 23 24
3 24 23 22
3 25 23 22
3 22 23 25
3 26 23 25
3 25 23 26
3 27 23 26
3 26 23 27
3 28 23 27
3 27 23 28
3 24 23 29
3 29 23 24
3 29 23 30
3 30 23 29
3 30 23 31
3 31 23 30
3 31 23 32
3 32 23 31
3 32 23 28
3 28 23 32
3 33 34 35
3 35 34 33
3 36 34 33
3 33 34 36
3 37 34 36
3 36 34 37
3 38 34 37
3 37 34 38
3 39 34 38
3 38 34 39
3 35 34 40
3 40 34 35
3 40 34 41
3 41 34 40
3 41 34 42
3 42 34 41
3 42 34 43
3 43 34 42
3 43 34 39
3 39 34 43
3 44 45 46
3 46 45 44
3 47 45 44
3 44 45 47
3 48 45 47
3 47 45 48
3 49 45 48
3 48 45 49
3 50 45 49
3 49 45 50
3 46 45 51
3 51 45 46
3 51 45 52
3 52 45 51
3 52 45 53
3 53 45 52
3 53 45 54
3 54 45 53
3 54 45 50
3 50 45 54
3 55 56 57
3 57 56 55
3 58 56 55
3 55 56 58
3 59 56 58
3 58 56 59
3 60 56 59
3 59 56 60
3 61 56 60
3 60 56 61
3 57 56 62
3 62 56 57
3 62 56 63
3 63 56 62
3 63 56 64
3 64 56 63
3 64 56 65
3 65 56 64
3 65 56 61
3 61 56 65
3 66 67 68
3 68 67 66
3 69 67 66
3 66 67 69
3 70 67 69
3 69 67 70
3 71 67 70
3 70 67 71
3 72 67 71
3 71 67 72
3 68 67 73
3 73 67 68
3 73 67 74
3 74 67 73
3 74 67 75
3 75 67 74
3 75 67 76
3 76 67 75
3 76 67 72
3 72 67 76
3 77 78 79
3 79 78 77
3 80 78 77
3 77 78 80
3 81 78 80
3 80 78 81
3 82 78 81
3 81 78 82
3 83 78 82
3 82 78 83
3 79 78 84
3 84 78 79
3 84 78 85
3 85 78 84
3 85 78 86
3 86 78 85
3 86 78 87
3 87 78 86
3 87 78 83
3 83 78 87
3 88 89 90
3 90 89 88
3 91 89 88
3 88 89 91
3 92 89 91
3 91 89 92
3 93 89 92
3 92 89 93
3 94 89 93
3 93 89 94
3 90 89 95
3 95 89 90
3 95 89 96
3 96 89 95
3 96 89 97
3 97 89 96
3 97 89 98
3 98 89 97
3 98 89 94
3 94 89 98
3 99 100 101
3 101 100 99
3 102 100 99
3 99 100 102
3 103 100 102
3 102 100 103
3 104 100 103
3 103 100 104
3 105 100 104
3 104 100 105
3 101 100 106
3 106 100 101
3 106 100 107
3 107 100 106
3 107 100 108
3 108 100 107
3 108 100 109
3 109 100 108
3 109 100 105
3 105 100 109
3 110 111 112
3 112 111 110
3 113 111 110
3 110 111 113
3 114 111 113
3 113 111 114
3 115 111 114
3 114 111 115
3 116 111 115
3 115 111 116
3 112 111 117
3 117 111 112
3 117 111 118
3 118 111 117
3 118 111 119
3 119 111 118
3 119 111 120
3 120 111 119
3 120 111 116
3 116 111 120
3 121 122 123
3 123 122 121
3 124 122 121
3 121 122 124
3 125 122 124
3 124 122 125
3 126 122 125
3 125 122 126
3 127 122 126
3 126 122 127
3 123 122 128
3 128 122 123
3 128 122 129
3 129 122 128
3 129 122 130
3 130 122 129
3 130 122 131
3 131 122 130
3 131 122 127
3 127 122 131
3 132 133 134
3 134 133 132
3 135 136 133
3 132 133 136
3 137 138 136
3 135 136 138
3 139 140 138
3 137 138 140
3 141 140 139
3 139 140 141
3 133 142 134
3 134 142 133
3 136 143 142
3 133 142 143
3 138 144 143
3 136 143 144
3 140 145 144
3 138 144 145
3 141 145 140
3 140 145 141
3 142 146 134
3 134 146 142
3 143 147 146
3 142 146 147
3 144 148 147
3 143 147 148
3 145 149 148
3 144 148 149
3 141 149 145
3 145 149 141
3 146 150 134
3 134 150 146
3 147 151 150
3 146 150 151
3 148 152 151
3 147 151 152
3 149 153 152
3 148 152 153
3 141 153 149
3 149 153 141
3 150 154 134
3 134 154 150
3 151 155 154
3 150 154 155
3 152 156 155
3 151 155 156
3 153 157 156
3 152 156 157
3 141 157 153
3 153 157 141
3 154 158 134
3 134 158 154
3 155 159 158
3 154 158 159
3 156 160 159
3 155 159 160
3 157 161 160
3 156 160 161
3 141 161 157
3 157 161 141
3 158 162 134
3 134 162 158
3 159 163 162
3 158 162 163
3 160 164 163
3 159 163 164
3 161 165 164
3 160 164 165
3 141 165 161
3 161 165 141
3 162 166 134
3 134 166 162
3 163 167 166
3 162 166 167
3 164 168 167
3 163 167 168
3 165 169 168
3 164 168 169
3 141 169 165
3 165 169 141
3 166 170 134
3 134 170 166
3 167 171 170
3 166 170 171
3 168 172 171
3 167 171 172
3 169 173 172
3 168 172 173
3 141 173 169
3 169 173 141
3 170 174 134
3 134 174 170
3 171 175 174
3 170 174 175
3 172 176 175
3 171 175 176
3 173 177 176
3 172 176 177
3 141 177 173
3 173 177 141
3 174 178 134
3 134 178 174
3 175 179 178
3 174 178 179
3 176 180 179
3 175 179 180
3 177 181 180
3 176 180 181
3 141 181 177
3 177 181 141
3 178 132 134
3 134 132 178
3 179 135 132
3 178 132 135
3 180 137 135
3 179 135 137
3 181 139 137
3 180 137 139
3 141 139 181
3 181 139 141
3 182 183 184
3 185 184 183
3 184 186 187
3 185 187 186
3 186 183 182
3 187 182 183
3 183 188 189
3 184 189 188
3 189 190 186
3 184 186 190
3 190 188 183
3 186 183 188
3 188 191 192
3 189 192 191
3 192 193 190
3 189 190 193
3 193 191 188
3 190 188 191
3 191 194 195
3 192 195 194
3 195 196 193
3 192 193 196
3 196 194 191
3 193 191 194
3 135 133 132
3 132 136 135
3 137 136 135
3 135 138 137
3 139 138 137
3 137 140 139
3 136 142 133
3 133 143 136
3 138 143 136
3 136 144 138
3 140 144 138
3 138 145 140
3 143 146 142
3 142 147 143
3 144 147 143
3 143 148 144
3 145 148 144
3 144 149 145
3 147 150 146
3 146 151 147
3 148 151 147
3 147 152 148
3 149 152 148
3 148 153 149
3 151 154 150
3 150 155 151
3 152 155 151
3 151 156 152
3 153 156 152
3 152 157 153
3 155 158 154
3 154 159 155
3 156 159 155
3 155 160 156
3 157 160 156
3 156 161 157
3 159 162 158
3 158 163 159
3 160 163 159
3 159 164 160
3 161 164 160
3 160 165 161
3 163 166 162
3 162 167 163
3 164 167 163
3 163 168 164
3 165 168 164
3 164 169 165
3 167 170 166
3 166 171 167
3 168 171 167
3 167 172 168
3 169 172 168
3 168 173 169
3 171 174 170
3 170 175 171
3 172 175 171
3 171 176 172
3 173 176 172
3 172 177 173
3 175 178 174
3 174 179 175
3 176 179 175
3 175 180 176
3 177 180 176
3 176 181 177
3 179 132 178
3 178 135 179
3 180 135 179
3 179 137 180
3 181 137 180
3 180 139 181
3 182 184 185
3 185 183 182
3 184 187 185
3 185 186 184
3 186 182 187
3 187 183 186
3 183 189 184
3 184 188 183
3 189 186 184
3 184 190 189
3 190 183 186
3 186 188 190
3 188 192 189
3 189 191 188
3 192 190 189
3 189 193 192
3 193 188 190
3 190 191 193
3 191 195 192
3 192 194 191
3 195 193 192
3 192 196 195
3 196 191 193
3 193 194 196
