ply
format ascii 1.0
element vertex 416
property float x
property float y
property float z
element face 828
property list uchar int vertex_indices
end_header
0.1895579993724823 0.9175800085067749 0.23343700170516968
0.1522960066795349 0.8932269811630249 0.23229600489139557
0.11514800041913986 0.8532339930534363 0.2311599999666214
0.10682699829339981 0.6892629861831665 0.23091000318527222
0.16389599442481995 0.636132001876831 0.23265600204467773
0.14239299297332764 0.5812370181083679 0.23199400305747986
0.13904699683189392 0.5726349949836731 0.23189100623130798
0.1713789999485016 0.40147000551223755 0.23287999629974365
0.148158997297287 0.30843600630760193 0.2321760058403015
0.10207899659872055 0.21692100167274475 0.23076100647449493
0.03313969820737839 0.12732799351215363 0.2286510020494461
0.03026849962770939 0.08666510134935379 0.2285650074481964
0.04095790162682533 0.0737065002322197 0.25948798656463623
0.04148450121283531 0.07303620129823685 0.22891800105571747
0.027038199827075005 0.060971301048994064 0.2612519860267639
0.02500000037252903 0.05538570135831833 0.2284020036458969
0.03067290037870407 0.02500000037252903 0.2607879936695099
0.02913770079612732 0.02500000037252903 0.22852900624275208
0.1789029985666275 0.9318789839744568 0.22420699894428253
0.09475330263376236 0.7397339940071106 0.20822499692440033
0.16512399911880493 0.636132001876831 0.22158800065517426
0.1648470014333725 0.6246479749679565 0.22154000401496887
0.17017799615859985 0.6178560256958008 0.22254900634288788
0.1672230064868927 0.6005409955978394 0.22198300063610077
0.14296799898147583 0.5654630064964294 0.21738499402999878
0.09676039963960648 0.5255820155143738 0.2085999995470047
0.11102399975061417 0.26339399814605713 0.21131299436092377
0.03377490118145943 0.08666510134935379 0.1966329962015152
0.028585100546479225 0.05538570135831833 0.19567100703716278
0.032646600157022476 0.02500000037252903 0.1964389979839325
0.18240800499916077 0.9566789865493774 0.21599599719047546
0.1784449964761734 0.9434970021247864 0.21458500623703003
0.14462299644947052 0.5726349949836731 0.20242300629615784
0.11031100153923035 0.51139897108078 0.19011999666690826
0.1887339949607849 0.49640101194381714 0.21827399730682373
0.03969790041446686 0.104762002825737 0.1647540032863617
0.050885800272226334 0.0737065002322197 0.16878099739551544
0.03769280016422272 0.060971301048994064 0.1640399992465973
0.04113730043172836 0.02500000037252903 0.16526900231838226
0.1956239938735962 0.9678500294685364 0.21330100297927856
0.17262299358844757 0.636132001876831 0.2006859928369522
0.15081000328063965 0.5726349949836731 0.18873099982738495
0.06347650289535522 0.0737065002322197 0.14080600440502167
0.06524389982223511 0.07303620129823685 0.1417749971151352
0.050788700580596924 0.05538570135831833 0.13383899629116058
0.05442050099372864 0.02500000037252903 0.13583199679851532
0.19902199506759644 0.9175800085067749 0.20708100497722626
0.14016200602054596 0.8532339930534363 0.16150400042533875
0.1221029981970787 0.7397339940071106 0.14753900468349457
0.1785140037536621 0.6246479749679565 0.19122099876403809
0.16169999539852142 0.5812370181083679 0.17820100486278534
0.1609009951353073 0.5654630064964294 0.1775819957256317
0.12370199710130692 0.5255820155143738 0.1487780064344406
0.1298220008611679 0.21692100167274475 0.1535169929265976
0.07528519630432129 0.12732799351215363 0.11128699779510498
0.08030389994382858 0.0737065002322197 0.1151529997587204
0.07211239635944366 0.02500000037252903 0.10882999747991562
0.19583599269390106 0.9318789839744568 0.19336499273777008
0.18974199891090393 0.6178560256958008 0.1868869960308075
0.19010800123214722 0.6089640259742737 0.1872909963130951
0.18768399953842163 0.6005409955978394 0.18469400703907013
0.16916799545288086 0.5726349949836731 0.16502200067043304
0.14848899841308594 0.26339399814605713 0.14303499460220337
0.09460420161485672 0.08666510134935379 0.08574429899454117
0.10228700190782547 0.07303620129823685 0.0939112976193428
0.09132389724254608 0.060971301048994064 0.08226510137319565
0.09382370114326477 0.02500000037252903 0.08492010086774826
0.20111699402332306 0.9434970021247864 0.18530599772930145
0.15389299392700195 0.767661988735199 0.1159290000796318
0.16995899379253387 0.6691550016403198 0.13953900337219238
0.18089799582958221 0.5726349949836731 0.15560199320316315
0.1603730022907257 0.51139897108078 0.1254429966211319
0.19909599423408508 0.40147000551223755 0.18234199285507202
0.19214299321174622 0.33824101090431213 0.1721230000257492
0.18602199852466583 0.30843600630760193 0.16312600672245026
0.11816500127315521 0.104762002825737 0.06344620138406754
0.12484200298786163 0.0737065002322197 0.07327260076999664
0.11694999784231186 0.060971301048994064 0.06168629974126816
0.11902400106191635 0.02500000037252903 0.06471080332994461
0.21107499301433563 0.9566789865493774 0.18444399535655975
0.17823100090026855 0.8259760141372681 0.11479300260543823
0.20456400513648987 0.636132001876831 0.170633003115654
0.19395700097084045 0.5726349949836731 0.14813099801540375
0.1949480026960373 0.5654630064964294 0.15025700628757477
0.1748729944229126 0.5255820155143738 0.1076980009675026
0.15146300196647644 0.0737065002322197 0.05804010108113289
0.14548400044441223 0.060971301048994064 0.045377299189567566
0.14705400168895721 0.02500000037252903 0.048691101372241974
0.2221599966287613 0.9175800085067749 0.1913450062274933
0.20643100142478943 0.8775870203971863 0.1373549997806549
0.21490000188350677 0.6246479749679565 0.16643600165843964
0.2089499980211258 0.5812370181083679 0.14602099359035492
0.19767199456691742 0.21692100167274475 0.10732100158929825
0.17838600277900696 0.12732799351215363 0.04110269993543625
0.18015000224113464 0.0737065002322197 0.04718460142612457
0.18070800602436066 0.07303620129823685 0.049095600843429565
0.1760849952697754 0.05538570135831833 0.03328720107674599
0.1772409975528717 0.02500000037252903 0.03723929822444916
0.22764700651168823 0.9318789839744568 0.17835000157356262
0.22653000056743622 0.6178560256958008 0.16955099999904633
0.22659499943256378 0.6089640259742737 0.17008300125598907
0.22614799439907074 0.6005409955978394 0.16655899584293365
0.21893399953842163 0.26339399814605713 0.10981900244951248
0.20900900661945343 0.08666510134935379 0.031802698969841
0.21042700111865997 0.07303620129823685 0.04292859882116318
0.2083429992198944 0.05538570135831833 0.026572100818157196
0.20886699855327606 0.02500000037252903 0.03067220002412796
0.23666499555110931 0.9434970021247864 0.1749510020017624
0.23699800670146942 0.636132001876831 0.16389599442481995
0.23776200413703918 0.5726349949836731 0.13902400434017181
0.2376900017261505 0.5654630064964294 0.14137500524520874
0.2391269952058792 0.5255820155143738 0.09434580057859421
0.23677299916744232 0.40147000551223755 0.1713559925556183
0.24117200076580048 0.104762002825737 0.027599599212408066
0.2408130019903183 0.0737065002322197 0.03946959972381592
0.2412469983100891 0.05538570135831833 0.02500000037252903
0.24111999571323395 0.02500000037252903 0.02913770079612732
0.24317699670791626 0.9678500294685364 0.19088000059127808
0.25959399342536926 0.8259760141372681 0.10444500297307968
0.2481209933757782 0.6246479749679565 0.1648460030555725
0.2592430114746094 0.5436789989471436 0.1062920019030571
0.25950899720191956 0.51139897108078 0.10483899712562561
0.24897299706935883 0.33824101090431213 0.16030000150203705
0.25101399421691895 0.30843600630760193 0.14961299300193787
0.27130401134490967 0.0737065002322197 0.042798999696969986
0.27390098571777344 0.060971301048994064 0.02904530055820942
0.27323299646377563 0.02500000037252903 0.03264379873871803
0.25365400314331055 0.9566789865493774 0.18240800499916077
0.2501380145549774 0.9175800085067749 0.19220200181007385
0.26913800835609436 0.8775870203971863 0.1392900049686432
0.2812129855155945 0.7131239771842957 0.10565999895334244
0.26609399914741516 0.5812370181083679 0.14776299893856049
0.2513810098171234 0.49640101194381714 0.18873299658298492
0.2774220108985901 0.26339399814605713 0.1162320002913475
0.27971699833869934 0.21692100167274475 0.10983700305223465
0.30303600430488586 0.12732799351215363 0.04491189867258072
0.3008899986743927 0.0737065002322197 0.05088299885392189
0.3002069890499115 0.07303620129823685 0.05277160182595253
0.30577701330184937 0.05538570135831833 0.03724350035190582
0.30437999963760376 0.02500000037252903 0.04113730043172836
0.2622169852256775 0.9318789839744568 0.184921994805336
0.2664949893951416 0.6178560256958008 0.17712600529193878
0.26621899008750916 0.6089640259742737 0.17761099338531494
0.2679390013217926 0.6005409955978394 0.17448699474334717
0.2809410095214844 0.5726349949836731 0.1508069932460785
0.279805988073349 0.5654630064964294 0.15286600589752197
0.3024420142173767 0.5255820155143738 0.11160899698734283
0.3332650065422058 0.08666510134935379 0.055391598492860794
0.32787400484085083 0.07303620129823685 0.06524389982223511
0.33581000566482544 0.05538570135831833 0.050788700580596924
0.33381399512290955 0.02500000037252903 0.054398298263549805
0.2715030014514923 0.9434970021247864 0.18745699524879456
0.2782739996910095 0.636132001876831 0.17871400713920593
0.27845099568367004 0.6246479749679565 0.17851099371910095
0.2934980094432831 0.5726349949836731 0.15905199944972992
0.3617669939994812 0.104762002825737 0.07088819891214371
0.35449299216270447 0.0737065002322197 0.08028169721364975
0.36335399746894836 0.05538570135831833 0.06883960217237473
0.360819011926651 0.02500000037252903 0.07211239635944366
0.3315039873123169 0.8259760141372681 0.1439030021429062
0.31880998611450195 0.6691550016403198 0.15583300590515137
0.3046489953994751 0.5726349949836731 0.1691650003194809
0.3301129937171936 0.5436789989471436 0.1451839953660965
0.3312000036239624 0.51139897108078 0.1441670060157776
0.33156201243400574 0.21692100167274475 0.14382800459861755
0.3818109929561615 0.12732799351215363 0.09655959904193878
0.3771840035915375 0.0737065002322197 0.10090900212526321
0.38740599155426025 0.060971301048994064 0.09132099896669388
0.3847289979457855 0.02500000037252903 0.09382370114326477
0.2722809910774231 0.9175800085067749 0.20933599770069122
0.3187510073184967 0.8775870203971863 0.17768700420856476
0.34826600551605225 0.7131239771842957 0.15758199989795685
0.3112879991531372 0.5812370181083679 0.18275800347328186
0.3121179938316345 0.5654630064964294 0.18220199644565582
0.3510029911994934 0.5255820155143738 0.15572500228881836
0.2873069941997528 0.40147000551223755 0.19909599423408508
0.33900099992752075 0.26339399814605713 0.16389599442481995
0.4040060043334961 0.08666510134935379 0.11965999752283096
0.39473798871040344 0.07303620129823685 0.12595100700855255
0.4083560109138489 0.05538570135831833 0.1166749969124794
0.4049359858036041 0.02500000037252903 0.11900100111961365
0.2852039933204651 0.9566789865493774 0.21107099950313568
0.28630900382995605 0.9318789839744568 0.210548996925354
0.29434001445770264 0.6178560256958008 0.20675300061702728
0.2938520014286041 0.6089640259742737 0.20699100196361542
0.29708200693130493 0.6005409955978394 0.20546799898147583
0.3215160071849823 0.5726349949836731 0.19393500685691833
0.30343499779701233 0.33824101090431213 0.2024729996919632
0.31327399611473083 0.30843600630760193 0.19784300029277802
0.42236199975013733 0.104762002825737 0.1464020013809204
0.4116089940071106 0.0737065002322197 0.15146300196647644
0.42469799518585205 0.05538570135831833 0.14529399573802948
0.420958012342453 0.02500000037252903 0.14705400168895721
0.2923550009727478 0.9434970021247864 0.21806399524211884
0.30295199155807495 0.636132001876831 0.21496699750423431
0.3032130002975464 0.6246479749679565 0.2148970067501068
0.3268420100212097 0.5726349949836731 0.20801199972629547
0.4224649965763092 0.0737065002322197 0.18015000224113464
0.43592700362205505 0.060971301048994064 0.1762080043554306
0.43241000175476074 0.02500000037252903 0.1772409975528717
0.26100000739097595 0.9750000238418579 0.23149800300598145
0.27919700741767883 0.9678500294685364 0.22918100655078888
0.3664790093898773 0.8259760141372681 0.21808399260044098
0.32990801334381104 0.5726349949836731 0.22273500263690948
0.327580988407135 0.5654630064964294 0.2230280041694641
0.37425801157951355 0.5255820155143738 0.21709099411964417
0.3665890097618103 0.21692100167274475 0.21806600689888
0.4350090026855469 0.12732799351215363 0.2093680053949356
0.42871400713920593 0.0737065002322197 0.21016499400138855
0.4267190098762512 0.07303620129823685 0.2104170024394989
0.4430769979953766 0.05538570135831833 0.20834499597549438
0.438975989818573 0.02500000037252903 0.20886200666427612
0.28011199831962585 0.9175800085067749 0.23620499670505524
0.33629998564720154 0.8775870203971863 0.23792600631713867
0.3720020055770874 0.7131239771842957 0.23902499675750732
0.3272790014743805 0.5812370181083679 0.23765400052070618
0.3670729994773865 0.51139897108078 0.2388720065355301
0.29829201102256775 0.40147000551223755 0.23676399886608124
0.3607870042324066 0.26339399814605713 0.23868100345134735
0.4393810033798218 0.08666510134935379 0.2410839945077896
0.4281899929046631 0.07303620129823685 0.2407499998807907
0.44467100501060486 0.05538570135831833 0.24124400317668915
0.44053399562835693 0.02500000037252903 0.24111700057983398
0.2907480001449585 0.9318789839744568 0.2454490065574646
0.299470990896225 0.6178560256958008 0.24710099399089813
0.2989400029182434 0.6089640259742737 0.24700100719928741
0.3024260103702545 0.6005409955978394 0.24766400456428528
0.43852698802948 0.104762002825737 0.27351200580596924
0.42684701085090637 0.0737065002322197 0.27128100395202637
0.44106701016426086 0.05538570135831833 0.27399998903274536
0.4370029866695404 0.02500000037252903 0.2732110023498535
0.28724101185798645 0.9566789865493774 0.25365400314331055
0.2912299931049347 0.9434970021247864 0.25508299469947815
0.3016130030155182 0.636132001876831 0.2588079869747162
0.30187100172042847 0.6246479749679565 0.25888800621032715
0.32502299547195435 0.5726349949836731 0.2672039866447449
0.322829008102417 0.5654630064964294 0.2664250135421753
0.3671039938926697 0.5255820155143738 0.28232499957084656
0.2809160053730011 0.49640101194381714 0.2513769865036011
0.35343900322914124 0.26339399814605713 0.27741900086402893
0.4187859892845154 0.0737065002322197 0.3008649945259094
0.4319559931755066 0.060971301048994064 0.30560898780822754
0.42851200699806213 0.02500000037252903 0.30437999963760376
0.3511880040168762 0.8259760141372681 0.29867398738861084
0.34951698780059814 0.5436789989471436 0.297760009765625
0.3013319969177246 0.33824101090431213 0.27129799127578735
0.31087398529052734 0.30843600630760193 0.27654901146888733
0.3512600064277649 0.21692100167274475 0.2987099885940552
0.4117409884929657 0.12732799351215363 0.33189600706100464
0.4061729907989502 0.0737065002322197 0.32884299755096436
0.40442800521850586 0.07303620129823685 0.3278709948062897
0.41888299584388733 0.05538570135831833 0.3358069956302643
0.4152509868144989 0.02500000037252903 0.33381399512290955
0.2706499993801117 0.9175800085067749 0.2625660002231598
0.315093994140625 0.8775870203971863 0.29697999358177185
0.3360790014266968 0.6892629861831665 0.3132300078868866
0.3079490065574646 0.5812370181083679 0.2914479970932007
0.3394489884376526 0.51139897108078 0.31582000851631165
0.3966600000858307 0.08666510134935379 0.3601199984550476
0.3877910077571869 0.07303620129823685 0.35325300693511963
0.40081000328063965 0.05538570135831833 0.36335399746894836
0.3975369930267334 0.02500000037252903 0.360819011926651
0.2738359868526459 0.9318789839744568 0.27628201246261597
0.33251500129699707 0.7397339940071106 0.33868399262428284
0.2799069881439209 0.6178560256958008 0.28276199102401733
0.2795409858226776 0.6089640259742737 0.28235799074172974
0.2819879949092865 0.6005409955978394 0.2849520146846771
0.3005029857158661 0.5726349949836731 0.3046239912509918
0.29888901114463806 0.5654630064964294 0.3029150068759918
0.3311319947242737 0.5255820155143738 0.33719301223754883
0.32582101225852966 0.21692100167274475 0.33156201243400574
0.37689200043678284 0.104762002825737 0.3858549892902374
0.3687399923801422 0.0737065002322197 0.3771840035915375
0.37866100668907166 0.05538570135831833 0.38772401213645935
0.37582600116729736 0.02500000037252903 0.3847289979457855
0.2685540020465851 0.9434970021247864 0.2843410074710846
0.27476200461387634 0.636132001876831 0.29348400235176086
0.27492600679397583 0.6246479749679565 0.29371100664138794
0.2887730002403259 0.5726349949836731 0.3140439987182617
0.27055299282073975 0.40147000551223755 0.2873069941997528
0.30575400590896606 0.26339399814605713 0.33900099992752075
0.3448289930820465 0.0737065002322197 0.396373987197876
0.35269901156425476 0.060971301048994064 0.40796300768852234
0.3506479859352112 0.02500000037252903 0.4049359858036041
0.25390899181365967 0.9678500294685364 0.2752799987792969
0.2585830092430115 0.9566789865493774 0.2852039933204651
0.2757149934768677 0.5726349949836731 0.3215160071849823
0.2906390130519867 0.5436789989471436 0.3531529903411865
0.32326599955558777 0.104762002825737 0.42233699560165405
0.3181860148906708 0.0737065002322197 0.4116089940071106
0.31734499335289 0.07303620129823685 0.40977901220321655
0.32437700033187866 0.05538570135831833 0.4246949851512909
0.32259601354599 0.02500000037252903 0.420958012342453
0.24750499427318573 0.9175800085067749 0.27830201387405396
0.26323598623275757 0.8775870203971863 0.33229199051856995
0.27506598830223083 0.767661988735199 0.3729040026664734
0.2607080042362213 0.5812370181083679 0.3236269950866699
0.2609879970550537 0.5654630064964294 0.3245820105075836
0.2741509974002838 0.5255820155143738 0.36975499987602234
0.2700900137424469 0.26339399814605713 0.3558120131492615
0.2895210087299347 0.0737065002322197 0.42246198654174805
0.29356399178504944 0.05538570135831833 0.43636199831962585
0.29240500926971436 0.02500000037252903 0.4323880076408386
0.24201099574565887 0.9318789839744568 0.2912980020046234
0.243134006857872 0.6178560256958008 0.3000960052013397
0.2430640012025833 0.6089640259742737 0.29956498742103577
0.24351100623607635 0.6005409955978394 0.3030889928340912
0.2469249963760376 0.5726349949836731 0.32990700006484985
0.2515220046043396 0.51139897108078 0.3660790026187897
0.2444009929895401 0.33824101090431213 0.3100700080394745
0.24577400088310242 0.30843600630760193 0.3208639919757843
0.251585990190506 0.21692100167274475 0.366566002368927
0.2602840065956116 0.12732799351215363 0.4349859952926636
0.2594839930534363 0.0737065002322197 0.42871400713920593
0.26125600934028625 0.060971301048994064 0.4426110088825226
0.26079198718070984 0.02500000037252903 0.438975989818573
0.2329999953508377 0.9434970021247864 0.29469600319862366
0.2309119999408722 0.6892629861831665 0.3628210127353668
0.23266099393367767 0.636132001876831 0.3057529926300049
0.2326519936323166 0.6246479749679565 0.3060239851474762
0.23190200328826904 0.5726349949836731 0.3306240141391754
0.2285650074481964 0.08666510134935379 0.4393810033798218
0.22891800105571747 0.07303620129823685 0.4281649887561798
0.2284020036458969 0.05538570135831833 0.44464901089668274
0.22852900624275208 0.02500000037252903 0.44051098823547363
0.20822499692440033 0.7397339940071106 0.37489598989486694
0.2169550061225891 0.5726349949836731 0.3289659917354584
0.2173829972743988 0.5654630064964294 0.3266589939594269
0.20860299468040466 0.5255820155143738 0.3729110062122345
0.2100439965724945 0.21692100167274475 0.3652949929237366
0.19615599513053894 0.104762002825737 0.4385020136833191
0.19836799800395966 0.0737065002322197 0.42684701085090637
0.19567100703716278 0.05538570135831833 0.4410640001296997
0.1964389979839325 0.02500000037252903 0.4370029866695404
0.21601800620555878 0.9566789865493774 0.2872389853000641
0.21952199935913086 0.9175800085067749 0.2774460017681122
0.19436199963092804 0.8532339930534363 0.3475379943847656
0.20357400178909302 0.5812370181083679 0.32186201214790344
0.21828299760818481 0.49640101194381714 0.2809149920940399
0.19224900007247925 0.26339399814605713 0.35341399908065796
0.16878099739551544 0.0737065002322197 0.41876301169395447
0.1640399992465973 0.060971301048994064 0.4319559931755066
0.16529099643230438 0.02500000037252903 0.428508996963501
0.20745499432086945 0.9318789839744568 0.28472399711608887
0.17938899993896484 0.6691550016403198 0.3358829915523529
0.20317600667476654 0.6178560256958008 0.2925199866294861
0.203452005982399 0.6089640259742737 0.2920350134372711
0.20173199474811554 0.6005409955978394 0.2951590120792389
0.1711769998073578 0.51139897108078 0.3508239984512329
0.1351030021905899 0.104762002825737 0.41658300161361694
0.14080600440502167 0.0737065002322197 0.4061729907989502
0.1417749971151352 0.07303620129823685 0.40440499782562256
0.13383899629116058 0.05538570135831833 0.4188610017299652
0.13583500683307648 0.02500000037252903 0.4152509868144989
0.1981460005044937 0.9434970021247864 0.2821919918060303
0.15080900490283966 0.7131239771842957 0.3433240056037903
0.1913750022649765 0.636132001876831 0.2909359931945801
0.19122399389743805 0.6246479749679565 0.291157990694046
0.17615100741386414 0.5726349949836731 0.3105970025062561
0.1775819957256317 0.5654630064964294 0.3087480068206787
0.1487780064344406 0.5255820155143738 0.3459480106830597
0.15767599642276764 0.26339399814605713 0.3344559967517853
0.11517500132322311 0.0737065002322197 0.3893429934978485
0.10629600286483765 0.05538570135831833 0.40081000328063965
0.10882999747991562 0.02500000037252903 0.3975369930267334
0.20225900411605835 0.9678500294685364 0.26547500491142273
0.1795859932899475 0.33824101090431213 0.28678199648857117
0.17166000604629517 0.30843600630760193 0.29423099756240845
0.13808700442314148 0.21692100167274475 0.32582101225852966
0.0878600999712944 0.12732799351215363 0.37308698892593384
0.09246490150690079 0.0737065002322197 0.3687399923801422
0.08226510137319565 0.060971301048994064 0.3783249855041504
0.08492010086774826 0.02500000037252903 0.37582600116729736
0.19739100337028503 0.9175800085067749 0.2603130042552948
0.1358499974012375 0.8532339930534363 0.3022089898586273
0.15838100016117096 0.5812370181083679 0.2868660092353821
0.06566829979419708 0.08666510134935379 0.3500080108642578
0.0749301016330719 0.07303620129823685 0.3436729907989502
0.06129340082406998 0.05538570135831833 0.3529750108718872
0.06471359729766846 0.02500000037252903 0.3506479859352112
0.18444499373435974 0.9566789865493774 0.25857898592948914
0.18333999812602997 0.9318789839744568 0.2591019868850708
0.10474400222301483 0.767661988735199 0.29616498947143555
0.17063400149345398 0.636132001876831 0.2650960087776184
0.1703999936580658 0.6246479749679565 0.2652049958705902
0.1753080040216446 0.6178560256958008 0.26288700103759766
0.1757970005273819 0.6089640259742737 0.2626579999923706
0.1725890040397644 0.6005409955978394 0.2641740143299103
0.14815600216388702 0.5726349949836731 0.2757120132446289
0.1502790004014969 0.5654630064964294 0.2746979892253876
0.047309599816799164 0.104762002825737 0.32324400544166565
0.05806230008602142 0.0737065002322197 0.3181830048561096
0.04495370015501976 0.05538570135831833 0.32437700033187866
0.048691101372241974 0.02500000037252903 0.32259601354599
0.17731699347496033 0.9434970021247864 0.251583993434906
0.14282900094985962 0.651190996170044 0.2616330087184906
0.16643600165843964 0.6246479749679565 0.2547540068626404
0.1716489940881729 0.6178560256958008 0.2532379925251007
0.1687600016593933 0.6005409955978394 0.2540780007839203
0.14282900094985962 0.5726349949836731 0.2616350054740906
0.14506599307060242 0.5654630064964294 0.2609829902648926
0.10923299938440323 0.5436789989471436 0.2714259922504425
0.09989430010318756 0.5255820155143738 0.27414900064468384
0.10779999941587448 0.51139897108078 0.2718470096588135
0.10842899978160858 0.22541199624538422 0.27166101336479187
0.03578529879450798 0.104762002825737 0.29284098744392395
0.0428863987326622 0.07728130370378494 0.29076701402664185
0.04912060126662254 0.07303620129823685 0.2889600098133087
0.3656589984893799 0.8067619800567627 0.2780500054359436
0.3673099875450134 0.7895579934120178 0.2841239869594574
0.34084799885749817 0.8210610151290894 0.3169029951095581
0.2927049994468689 0.8152520060539246 0.35752999782562256
0.23089200258255005 0.8342429995536804 0.3635900020599365
0.18870699405670166 0.8123469948768616 0.3632790148258209
0.17101100087165833 0.8261989951133728 0.35111498832702637
0.11829499900341034 0.7940260171890259 0.3141709864139557
3 11 13 12
3 15 14 13
3 17 16 14
3 15 17 14
3 19 382 2
3 20 21 4
3 32 6 5
3 24 400 6
3 32 24 6
3 24 25 400
3 27 11 10
3 27 13 11
3 28 15 13
3 29 17 15
3 28 29 15
3 17 29 16
3 46 0 18
3 23 32 5
3 53 9 26
3 35 10 9
3 35 27 10
3 35 36 27
3 36 13 27
3 36 43 13
3 43 37 13
3 37 28 13
3 38 29 28
3 57 18 31
3 47 2 1
3 47 19 2
3 69 3 19
3 40 20 3
3 69 40 3
3 49 21 20
3 40 49 20
3 58 22 21
3 49 58 21
3 41 32 23
3 41 24 32
3 52 33 25
3 62 26 8
3 42 36 35
3 42 43 36
3 43 44 37
3 45 28 37
3 44 45 37
3 45 38 28
3 67 31 30
3 67 57 31
3 46 18 57
3 47 1 0
3 48 19 47
3 48 69 19
3 60 23 22
3 50 41 23
3 50 61 41
3 51 24 41
3 61 51 41
3 52 25 24
3 51 52 24
3 71 33 52
3 72 7 34
3 72 73 7
3 74 8 7
3 73 74 7
3 53 26 62
3 54 35 9
3 53 54 9
3 55 42 35
3 54 55 35
3 55 43 42
3 44 56 45
3 45 29 38
3 79 30 39
3 79 67 30
3 46 47 0
3 81 40 69
3 81 49 40
3 59 22 58
3 59 60 22
3 60 50 23
3 34 403 33
3 71 34 33
3 62 8 74
3 63 55 54
3 63 64 55
3 64 43 55
3 65 44 43
3 64 65 43
3 66 56 44
3 88 46 57
3 68 48 47
3 90 49 81
3 90 58 49
3 60 70 50
3 70 61 50
3 70 51 61
3 84 71 52
3 132 72 34
3 62 92 53
3 75 54 53
3 75 63 54
3 75 76 63
3 76 64 63
3 77 65 64
3 65 66 44
3 65 78 66
3 66 45 56
3 117 39 200
3 117 79 39
3 98 57 67
3 80 68 47
3 69 48 68
3 99 58 90
3 100 59 58
3 99 100 58
3 100 60 59
3 82 70 60
3 83 51 70
3 82 83 70
3 84 52 51
3 83 84 51
3 102 62 74
3 85 76 75
3 95 64 76
3 85 95 76
3 95 86 64
3 86 77 64
3 87 78 65
3 77 87 65
3 78 45 66
3 107 67 79
3 107 98 67
3 88 57 98
3 89 47 46
3 89 80 47
3 101 60 100
3 91 82 60
3 91 109 82
3 109 83 82
3 121 71 84
3 71 132 34
3 92 62 102
3 93 75 53
3 92 93 53
3 94 85 75
3 93 94 75
3 94 95 85
3 95 96 86
3 97 77 86
3 96 97 86
3 97 87 77
3 87 45 78
3 88 89 46
3 130 68 80
3 130 69 68
3 108 81 69
3 108 90 81
3 101 91 60
3 111 121 84
3 103 94 93
3 103 104 94
3 104 95 94
3 105 96 95
3 104 105 95
3 105 97 96
3 105 106 97
3 97 45 87
3 127 79 117
3 127 107 79
3 128 88 98
3 118 80 89
3 118 130 80
3 130 108 69
3 119 90 108
3 119 99 90
3 101 109 91
3 110 83 109
3 120 84 83
3 110 120 83
3 120 111 84
3 132 71 121
3 112 72 132
3 122 73 72
3 112 122 72
3 123 74 73
3 122 123 73
3 102 134 92
3 113 93 92
3 113 103 93
3 113 114 103
3 114 104 103
3 115 105 104
3 116 106 105
3 115 116 105
3 106 45 97
3 140 98 107
3 141 99 119
3 142 100 99
3 141 142 99
3 142 101 100
3 133 102 74
3 123 133 74
3 124 114 113
3 137 104 114
3 124 137 114
3 137 125 104
3 125 115 104
3 126 116 115
3 116 45 106
3 151 107 127
3 151 140 107
3 128 98 140
3 129 89 88
3 129 118 89
3 130 152 108
3 152 119 108
3 143 101 142
3 131 109 101
3 131 144 109
3 145 110 109
3 144 145 109
3 145 120 110
3 146 111 120
3 146 121 111
3 134 102 133
3 135 113 92
3 134 135 92
3 136 124 113
3 135 136 113
3 136 137 124
3 137 138 125
3 139 115 125
3 138 139 125
3 139 126 115
3 126 45 116
3 128 129 88
3 160 152 130
3 153 119 152
3 153 141 119
3 143 131 101
3 162 120 145
3 162 146 120
3 163 121 146
3 147 136 135
3 147 148 136
3 148 137 136
3 149 138 137
3 148 149 137
3 149 139 138
3 149 150 139
3 139 45 126
3 169 128 140
3 159 118 129
3 159 130 118
3 143 154 131
3 154 144 131
3 154 145 144
3 163 132 121
3 175 112 132
3 175 122 112
3 176 133 123
3 164 134 133
3 155 135 134
3 155 147 135
3 155 156 147
3 156 148 147
3 157 149 148
3 158 150 149
3 157 158 149
3 150 45 139
3 201 117 200
3 181 127 117
3 201 181 117
3 181 151 127
3 182 140 151
3 183 141 153
3 184 142 141
3 183 184 141
3 184 143 142
3 161 154 143
3 161 145 154
3 174 146 162
3 174 163 146
3 187 122 175
3 188 123 122
3 187 188 122
3 164 133 176
3 165 155 134
3 164 165 134
3 166 156 155
3 178 148 156
3 166 178 156
3 178 167 148
3 167 157 148
3 168 158 157
3 158 45 150
3 193 151 181
3 193 182 151
3 169 140 182
3 170 129 128
3 170 159 129
3 171 130 159
3 171 160 130
3 194 152 160
3 195 153 152
3 194 195 152
3 195 183 153
3 185 143 184
3 172 161 143
3 172 186 161
3 173 145 161
3 186 173 161
3 173 162 145
3 238 175 132
3 176 123 188
3 177 155 165
3 177 166 155
3 177 178 166
3 178 179 167
3 180 157 167
3 179 180 167
3 180 168 157
3 168 45 158
3 169 170 128
3 185 172 143
3 205 162 173
3 205 174 162
3 216 163 174
3 176 206 164
3 189 165 164
3 189 177 165
3 189 190 177
3 190 178 177
3 191 179 178
3 191 180 179
3 191 192 180
3 180 45 168
3 212 169 182
3 202 159 170
3 202 171 159
3 214 160 171
3 214 194 160
3 185 196 172
3 196 186 172
3 196 173 186
3 205 216 174
3 216 238 163
3 238 132 163
3 218 176 188
3 197 190 189
3 209 178 190
3 197 209 190
3 209 198 178
3 198 191 178
3 199 192 191
3 192 45 180
3 223 182 193
3 224 183 195
3 225 184 183
3 224 225 183
3 225 185 184
3 203 196 185
3 204 173 196
3 203 204 196
3 204 205 173
3 206 176 218
3 207 189 164
3 206 207 164
3 208 197 189
3 207 208 189
3 208 209 197
3 209 210 198
3 211 191 198
3 210 211 198
3 211 199 191
3 199 45 192
3 231 181 201
3 232 193 181
3 231 232 181
3 232 223 193
3 212 182 223
3 213 170 169
3 213 202 170
3 214 171 202
3 233 194 214
3 234 195 194
3 233 234 194
3 234 224 195
3 226 185 225
3 215 203 185
3 215 235 203
3 235 204 203
3 217 175 238
3 217 187 175
3 219 208 207
3 219 220 208
3 220 209 208
3 221 210 209
3 220 221 209
3 221 211 210
3 221 222 211
3 211 45 199
3 212 213 169
3 409 214 202
3 226 215 185
3 237 216 205
3 245 187 217
3 246 188 187
3 245 246 187
3 218 247 206
3 227 207 206
3 227 219 207
3 227 228 219
3 228 220 219
3 229 221 220
3 230 222 221
3 229 230 221
3 222 45 211
3 253 212 223
3 243 202 213
3 255 233 214
3 226 235 215
3 236 204 235
3 244 205 204
3 236 244 204
3 244 237 205
3 257 216 237
3 239 188 246
3 239 218 188
3 240 228 227
3 250 220 228
3 240 250 228
3 250 241 220
3 241 229 220
3 242 230 229
3 230 45 222
3 284 201 200
3 284 231 201
3 262 223 232
3 255 214 409
3 264 224 234
3 265 225 224
3 264 265 224
3 265 226 225
3 257 238 216
3 239 247 218
3 248 227 206
3 247 248 206
3 249 240 227
3 248 249 227
3 249 250 240
3 250 251 241
3 252 229 241
3 251 252 241
3 252 242 229
3 242 45 230
3 275 232 231
3 275 262 232
3 253 223 262
3 254 213 212
3 254 243 213
3 255 409 263
3 276 233 255
3 277 234 233
3 276 277 233
3 277 264 234
3 266 226 265
3 256 235 226
3 256 267 235
3 268 236 235
3 267 268 235
3 268 244 236
3 269 237 244
3 269 257 237
3 279 217 238
3 279 245 217
3 280 239 246
3 258 249 248
3 258 259 249
3 259 250 249
3 260 251 250
3 259 260 250
3 260 252 251
3 260 261 252
3 252 45 242
3 285 231 284
3 285 275 231
3 253 254 212
3 266 256 226
3 287 244 268
3 287 269 244
3 270 239 280
3 270 247 239
3 271 248 247
3 271 258 248
3 271 272 258
3 272 259 258
3 273 260 259
3 274 261 260
3 273 274 260
3 261 45 252
3 293 253 262
3 266 278 256
3 278 267 256
3 278 268 267
3 308 257 269
3 338 279 238
3 270 271 247
3 281 272 271
3 290 259 272
3 281 290 272
3 290 282 259
3 282 273 259
3 283 274 273
3 274 45 261
3 303 262 275
3 317 255 263
3 317 276 255
3 304 264 277
3 305 265 264
3 304 305 264
3 305 266 265
3 286 278 266
3 286 268 278
3 298 269 287
3 298 308 269
3 308 238 257
3 309 245 279
3 310 246 245
3 309 310 245
3 280 311 270
3 288 271 270
3 288 281 271
3 288 289 281
3 289 290 281
3 290 291 282
3 292 273 282
3 291 292 282
3 292 283 273
3 283 45 274
3 316 275 285
3 316 303 275
3 293 262 303
3 294 254 253
3 295 317 263
3 319 277 276
3 318 319 276
3 319 304 277
3 306 266 305
3 296 286 266
3 296 307 286
3 297 268 286
3 307 297 286
3 297 287 268
3 299 246 310
3 299 280 246
3 300 289 288
3 300 290 289
3 301 291 290
3 301 292 291
3 301 302 292
3 292 45 283
3 293 294 253
3 317 318 276
3 306 296 266
3 328 287 297
3 328 298 287
3 299 311 280
3 312 288 270
3 311 312 270
3 313 300 288
3 312 313 288
3 322 290 300
3 313 322 300
3 322 314 290
3 314 301 290
3 315 302 301
3 302 45 292
3 334 285 284
3 334 316 285
3 335 293 303
3 306 320 296
3 320 307 296
3 320 297 307
3 328 308 298
3 308 338 238
3 338 309 279
3 339 299 310
3 321 313 312
3 321 322 313
3 322 323 314
3 324 301 314
3 323 324 314
3 324 315 301
3 315 45 302
3 365 284 200
3 365 334 284
3 343 303 316
3 325 317 295
3 345 304 319
3 346 305 304
3 345 346 304
3 346 306 305
3 326 320 306
3 327 297 320
3 326 327 320
3 327 328 297
3 348 308 328
3 329 299 339
3 329 311 299
3 330 312 311
3 330 321 312
3 330 331 321
3 331 322 321
3 332 323 322
3 332 324 323
3 332 333 324
3 324 45 315
3 354 316 334
3 354 343 316
3 335 303 343
3 336 294 293
3 357 319 318
3 356 357 318
3 357 345 319
3 347 306 346
3 337 326 306
3 337 358 326
3 358 327 326
3 329 330 311
3 340 331 330
3 351 322 331
3 340 351 331
3 351 341 322
3 341 332 322
3 342 333 332
3 333 45 324
3 335 336 293
3 344 317 325
3 344 318 317
3 347 337 306
3 360 348 328
3 366 309 338
3 367 310 309
3 366 367 309
3 339 368 329
3 349 330 329
3 349 340 330
3 349 350 340
3 350 351 340
3 351 352 341
3 353 332 341
3 352 353 341
3 353 342 332
3 342 45 333
3 373 335 343
3 355 325 413
3 355 344 325
3 347 358 337
3 359 327 358
3 360 328 327
3 359 360 327
3 361 310 367
3 361 339 310
3 362 350 349
3 362 351 350
3 363 352 351
3 363 353 352
3 363 364 353
3 342 29 45
3 380 334 365
3 380 354 334
3 381 343 354
3 344 356 318
3 385 345 357
3 386 346 345
3 385 386 345
3 386 347 346
3 403 348 360
3 348 338 308
3 361 368 339
3 369 349 329
3 368 369 329
3 370 362 349
3 369 370 349
3 377 351 362
3 370 377 362
3 377 371 351
3 371 363 351
3 372 364 363
3 364 342 353
3 394 354 380
3 394 381 354
3 373 343 381
3 374 336 335
3 395 344 355
3 383 356 344
3 395 383 344
3 384 357 356
3 383 384 356
3 384 385 357
3 387 347 386
3 375 358 347
3 375 388 358
3 389 359 358
3 388 389 358
3 389 360 359
3 402 403 360
3 404 361 367
3 376 370 369
3 376 377 370
3 377 378 371
3 379 363 371
3 378 379 371
3 379 372 363
3 372 342 364
3 373 374 335
3 395 355 382
3 387 375 347
3 401 360 389
3 401 402 360
3 404 368 361
3 390 369 368
3 390 376 369
3 390 391 376
3 391 377 376
3 392 378 377
3 392 379 378
3 392 393 379
3 379 342 372
3 39 365 200
3 39 380 365
3 18 381 394
3 4 383 395
3 396 384 383
3 4 396 383
3 397 385 384
3 396 397 384
3 397 386 385
3 398 387 386
3 397 398 386
3 387 399 375
3 399 388 375
3 400 389 388
3 399 400 388
3 400 401 389
3 403 338 348
3 8 367 366
3 405 368 404
3 405 390 368
3 406 391 390
3 405 406 390
3 406 407 391
3 407 377 391
3 407 392 377
3 16 393 392
3 393 342 379
3 30 380 39
3 31 394 380
3 30 31 380
3 31 18 394
3 0 381 18
3 0 373 381
3 1 373 0
3 1 374 373
3 1 2 374
3 2 382 374
3 19 3 382
3 3 395 382
3 3 20 395
3 20 4 395
3 21 396 4
3 22 397 396
3 21 22 396
3 22 23 397
3 23 398 397
3 5 387 398
3 23 5 398
3 5 399 387
3 5 6 399
3 6 400 399
3 25 401 400
3 25 402 401
3 33 403 402
3 25 33 402
3 34 338 403
3 34 7 338
3 7 366 338
3 7 8 366
3 26 404 367
3 8 26 367
3 26 9 404
3 9 405 404
3 9 10 405
3 10 11 405
3 12 406 405
3 11 12 405
3 12 407 406
3 12 13 407
3 14 392 407
3 13 14 407
3 14 16 392
3 16 342 393
3 16 29 342
3 202 408 409
3 202 243 408
3 243 410 408
3 411 263 409
3 410 243 254
3 263 411 295
3 410 254 294
3 294 412 410
3 295 411 325
3 412 294 336
3 413 325 411
3 336 414 412
3 414 336 374
3 413 415 355
3 355 415 382
3 374 382 415
3 414 374 415
3 410 412 414
3 413 411 409
3 413 409 415
3 414 408 410
3 408 415 409
3 415 408 414
