ply
format ascii 1.0
element vertex 154
property float x
property float y
property float z
element face 304
property list uchar int vertex_indices
end_header
0.02500000037252903 0.028010999783873558 0.2756839990615845
0.02500000037252903 0.11081600189208984 0.2756839990615845
0.06715580075979233 0.06866110116243362 0.2756839990615845
0.08371569961309433 0.31255900859832764 0.2756839990615845
0.09842260181903839 0.028010999783873558 0.09842260181903839
0.09842260181903839 0.028010999783873558 0.4529449939727783
0.09842260181903839 0.11081600189208984 0.09842260181903839
0.09842260181903839 0.11081600189208984 0.4529449939727783
0.11081700026988983 0.6437789797782898 0.2756839990615845
0.11776500195264816 0.8348600268363953 0.2756839990615845
0.11834400147199631 0.31105300784111023 0.2756839990615845
0.12587100267410278 0.031022099778056145 0.2756839990615845
0.12823200225830078 0.06866110116243362 0.12823200225830078
0.12823200225830078 0.06866110116243362 0.42313501238822937
0.13582900166511536 0.7568339705467224 0.2756839990615845
0.1368660032749176 0.9076269865036011 0.2756839990615845
0.13994200527668 0.31255900859832764 0.13994200527668
0.13994200527668 0.31255900859832764 0.41142499446868896
0.1439400017261505 0.6588339805603027 0.2756839990615845
0.15447799861431122 0.31255900859832764 0.2756839990615845
0.15910600125789642 0.6437789797782898 0.15910600125789642
0.15910600125789642 0.6437789797782898 0.39226099848747253
0.16401800513267517 0.8348600268363953 0.16401800513267517
0.16401800513267517 0.8348600268363953 0.387349009513855
0.1644279956817627 0.31105300784111023 0.1644279956817627
0.1644279956817627 0.31105300784111023 0.38693898916244507
0.16975000500679016 0.031022099778056145 0.16975000500679016
0.16975000500679016 0.031022099778056145 0.38161700963974
0.17263400554656982 0.5997560024261475 0.2756839990615845
0.1767919957637787 0.7568339705467224 0.1767919957637787
0.1767919957637787 0.7568339705467224 0.3745749890804291
0.17752599716186523 0.9076269865036011 0.17752599716186523
0.17752599716186523 0.9076269865036011 0.37384098768234253
0.18252600729465485 0.6588339805603027 0.18252600729465485
0.18252600729465485 0.6588339805603027 0.3688409924507141
0.18910600244998932 0.6844300031661987 0.2756839990615845
0.1899780035018921 0.31255900859832764 0.1899780035018921
0.1899780035018921 0.31255900859832764 0.36138901114463806
0.19373799860477448 0.698373019695282 0.2756839990615845
0.19446399807929993 0.434145987033844 0.2756839990615845
0.19518500566482544 0.9496430158615112 0.2756839990615845
0.20281599462032318 0.5997560024261475 0.20281599462032318
0.20281599462032318 0.5997560024261475 0.3485510051250458
0.2078779935836792 0.5354880094528198 0.2756839990615845
0.2144639939069748 0.6844300031661987 0.2144639939069748
0.2144639939069748 0.6844300031661987 0.33690300583839417
0.21773900091648102 0.698373019695282 0.21773900091648102
0.21773900091648102 0.698373019695282 0.33362799882888794
0.2182520031929016 0.434145987033844 0.2182520031929016
0.2182520031929016 0.434145987033844 0.33311501145362854
0.21876199543476105 0.9496430158615112 0.21876199543476105
0.21876199543476105 0.9496430158615112 0.3326050043106079
0.22773799300193787 0.5354880094528198 0.22773799300193787
0.22773799300193787 0.5354880094528198 0.3236289918422699
0.27040600776672363 0.6513069868087769 0.2756839990615845
0.2719520032405853 0.6513069868087769 0.2719520032405853
0.2719520032405853 0.6513069868087769 0.2794159948825836
0.2756839990615845 0.028010999783873558 0.02500000037252903
0.2756839990615845 0.11081600189208984 0.02500000037252903
0.2756839990615845 0.06866110116243362 0.06715580075979233
0.2756839990615845 0.31255900859832764 0.08371569961309433
0.2756839990615845 0.6437789797782898 0.11081700026988983
0.2756839990615845 0.8348600268363953 0.11776500195264816
0.2756839990615845 0.31105300784111023 0.11834400147199631
0.2756839990615845 0.031022099778056145 0.12587100267410278
0.2756839990615845 0.7568339705467224 0.13582900166511536
0.2756839990615845 0.9076269865036011 0.1368660032749176
0.2756839990615845 0.6588339805603027 0.1439400017261505
0.2756839990615845 0.31255900859832764 0.15447799861431122
0.2756839990615845 0.5997560024261475 0.17263400554656982
0.2756839990615845 0.6844300031661987 0.18910600244998932
0.2756839990615845 0.698373019695282 0.19373799860477448
0.2756839990615845 0.434145987033844 0.19446399807929993
0.2756839990615845 0.9496430158615112 0.19518500566482544
0.2756839990615845 0.5354880094528198 0.2078779935836792
0.2756839990615845 0.6513069868087769 0.27040600776672363
0.2756839990615845 0.02500000037252903 0.2756839990615845
0.2756839990615845 0.9750000238418579 0.2756839990615845
0.2756839990615845 0.6513069868087769 0.2809610068798065
0.2756839990615845 0.5354880094528198 0.34348899126052856
0.2756839990615845 0.9496430158615112 0.3561820089817047
0.2756839990615845 0.434145987033844 0.35690298676490784
0.2756839990615845 0.698373019695282 0.3576290011405945
0.2756839990615845 0.6844300031661987 0.36226099729537964
0.2756839990615845 0.5997560024261475 0.3787330090999603
0.2756839990615845 0.31255900859832764 0.39688900113105774
0.2756839990615845 0.6588339805603027 0.40742701292037964
0.2756839990615845 0.9076269865036011 0.41450101137161255
0.2756839990615845 0.7568339705467224 0.4155380129814148
0.2756839990615845 0.031022099778056145 0.42549601197242737
0.2756839990615845 0.31105300784111023 0.43302300572395325
0.2756839990615845 0.8348600268363953 0.4336020052433014
0.2756839990615845 0.6437789797782898 0.4405499994754791
0.2756839990615845 0.31255900859832764 0.46765100955963135
0.2756839990615845 0.06866110116243362 0.4842109978199005
0.2756839990615845 0.028010999783873558 0.5263670086860657
0.2756839990615845 0.11081600189208984 0.5263670086860657
0.2794159948825836 0.6513069868087769 0.2719520032405853
0.2794159948825836 0.6513069868087769 0.2794159948825836
0.2809610068798065 0.6513069868087769 0.2756839990615845
0.3236289918422699 0.5354880094528198 0.22773799300193787
0.3236289918422699 0.5354880094528198 0.3236289918422699
0.3326050043106079 0.9496430158615112 0.21876199543476105
0.3326050043106079 0.9496430158615112 0.3326050043106079
0.33311501145362854 0.434145987033844 0.2182520031929016
0.33311501145362854 0.434145987033844 0.33311501145362854
0.33362799882888794 0.698373019695282 0.21773900091648102
0.33362799882888794 0.698373019695282 0.33362799882888794
0.33690300583839417 0.6844300031661987 0.2144639939069748
0.33690300583839417 0.6844300031661987 0.33690300583839417
0.34348899126052856 0.5354880094528198 0.2756839990615845
0.3485510051250458 0.5997560024261475 0.20281599462032318
0.3485510051250458 0.5997560024261475 0.3485510051250458
0.3561820089817047 0.9496430158615112 0.2756839990615845
0.35690298676490784 0.434145987033844 0.2756839990615845
0.3576290011405945 0.698373019695282 0.2756839990615845
0.36138901114463806 0.31255900859832764 0.1899780035018921
0.36138901114463806 0.31255900859832764 0.36138901114463806
0.36226099729537964 0.6844300031661987 0.2756839990615845
0.3688409924507141 0.6588339805603027 0.18252600729465485
0.3688409924507141 0.6588339805603027 0.3688409924507141
0.37384098768234253 0.9076269865036011 0.17752599716186523
0.37384098768234253 0.9076269865036011 0.37384098768234253
0.3745749890804291 0.7568339705467224 0.1767919957637787
0.3745749890804291 0.7568339705467224 0.3745749890804291
0.3787330090999603 0.5997560024261475 0.2756839990615845
0.38161700963974 0.031022099778056145 0.16975000500679016
0.38161700963974 0.031022099778056145 0.38161700963974
0.38693898916244507 0.31105300784111023 0.1644279956817627
0.38693898916244507 0.31105300784111023 0.38693898916244507
0.387349009513855 0.8348600268363953 0.16401800513267517
0.387349009513855 0.8348600268363953 0.387349009513855
0.39226099848747253 0.6437789797782898 0.15910600125789642
0.39226099848747253 0.6437789797782898 0.39226099848747253
0.39688900113105774 0.31255900859832764 0.2756839990615845
0.40742701292037964 0.6588339805603027 0.2756839990615845
0.41142499446868896 0.31255900859832764 0.13994200527668
0.41142499446868896 0.31255900859832764 0.41142499446868896
0.41450101137161255 0.9076269865036011 0.2756839990615845
0.4155380129814148 0.7568339705467224 0.2756839990615845
0.42313501238822937 0.06866110116243362 0.12823200225830078
0.42313501238822937 0.06866110116243362 0.42313501238822937
0.42549601197242737 0.031022099778056145 0.2756839990615845
0.43302300572395325 0.31105300784111023 0.2756839990615845
0.4336020052433014 0.8348600268363953 0.2756839990615845
0.4405499994754791 0.6437789797782898 0.2756839990615845
0.4529449939727783 0.028010999783873558 0.09842260181903839
0.4529449939727783 0.028010999783873558 0.4529449939727783
0.4529449939727783 0.11081600189208984 0.09842260181903839
0.4529449939727783 0.11081600189208984 0.4529449939727783
0.46765100955963135 0.31255900859832764 0.2756839990615845
0.4842109978199005 0.06866110116243362 0.2756839990615845
0.5263670086860657 0.028010999783873558 0.2756839990615845
0.5263670086860657 0.11081600189208984 0.2756839990615845
3 0 5 2
3 0 2 12
3 0 12 4
3 0 4 11
3 0 11 27
3 0 27 5
3 1 7 3
3 1 3 16
3 1 16 6
3 1 6 2
3 1 2 13
3 1 13 7
3 2 6 12
3 2 5 13
3 3 7 17
3 3 17 10
3 3 10 24
3 3 24 16
3 4 12 59
3 4 59 57
3 4 57 26
3 4 26 11
3 5 95 13
3 5 27 89
3 5 89 95
3 6 16 60
3 6 60 58
3 6 58 12
3 7 96 17
3 7 13 94
3 7 94 96
3 8 42 21
3 8 21 18
3 8 18 33
3 8 33 20
3 8 20 28
3 8 28 42
3 9 23 15
3 9 15 31
3 9 31 22
3 9 22 14
3 9 14 30
3 9 30 23
3 10 36 24
3 10 17 25
3 10 25 19
3 10 19 36
3 11 26 76
3 11 76 27
3 12 58 59
3 13 95 94
3 14 22 29
3 14 29 38
3 14 38 47
3 14 47 30
3 15 23 32
3 15 32 40
3 15 40 50
3 15 50 31
3 16 24 63
3 16 63 60
3 17 96 93
3 17 93 25
3 18 44 33
3 18 21 34
3 18 34 35
3 18 35 44
3 19 37 39
3 19 39 48
3 19 48 36
3 19 25 37
3 20 33 67
3 20 67 61
3 20 61 41
3 20 41 28
3 21 84 92
3 21 92 34
3 21 42 84
3 22 31 66
3 22 66 62
3 22 62 29
3 23 91 32
3 23 30 88
3 23 88 91
3 24 68 63
3 24 36 68
3 25 93 90
3 25 90 37
3 26 57 64
3 26 64 76
3 27 76 89
3 28 41 43
3 28 43 53
3 28 53 42
3 29 62 65
3 29 65 46
3 29 46 38
3 30 47 82
3 30 82 88
3 31 50 73
3 31 73 66
3 32 91 87
3 32 87 51
3 32 51 40
3 33 70 67
3 33 44 70
3 34 92 86
3 34 86 45
3 34 45 35
3 35 45 54
3 35 54 55
3 35 55 44
3 36 48 72
3 36 72 68
3 37 85 49
3 37 49 39
3 37 90 85
3 38 46 54
3 38 54 56
3 38 56 47
3 39 49 43
3 39 43 52
3 39 52 48
3 40 51 77
3 40 77 50
3 41 61 69
3 41 69 52
3 41 52 43
3 42 53 79
3 42 79 84
3 43 49 53
3 44 55 75
3 44 75 70
3 45 83 56
3 45 56 54
3 45 86 83
3 46 65 71
3 46 71 55
3 46 55 54
3 47 56 78
3 47 78 82
3 48 52 74
3 48 74 72
3 49 81 53
3 49 85 81
3 50 77 73
3 51 80 77
3 51 87 80
3 52 69 74
3 53 81 79
3 55 71 75
3 56 83 78
3 57 59 140
3 57 140 146
3 57 146 64
3 58 60 136
3 58 136 148
3 58 148 59
3 59 148 140
3 60 63 128
3 60 128 136
3 61 67 119
3 61 119 132
3 61 132 69
3 62 66 121
3 62 121 130
3 62 130 65
3 63 116 128
3 63 68 116
3 64 146 126
3 64 126 76
3 65 130 123
3 65 123 71
3 66 73 102
3 66 102 121
3 67 108 119
3 67 70 108
3 68 72 104
3 68 104 116
3 69 132 111
3 69 111 74
3 70 75 97
3 70 97 108
3 71 123 106
3 71 106 75
3 72 74 100
3 72 100 104
3 73 77 102
3 74 111 100
3 75 106 97
3 76 142 127
3 76 127 89
3 76 126 142
3 77 80 103
3 77 103 113
3 77 113 102
3 78 98 82
3 78 83 109
3 78 109 98
3 79 101 84
3 79 81 105
3 79 105 101
3 80 87 122
3 80 122 103
3 81 85 117
3 81 117 105
3 82 107 88
3 82 98 107
3 83 86 120
3 83 120 109
3 84 112 92
3 84 101 112
3 85 90 129
3 85 129 117
3 86 92 133
3 86 133 120
3 87 131 122
3 87 91 131
3 88 124 91
3 88 107 124
3 89 127 95
3 90 93 137
3 90 137 129
3 91 124 131
3 92 112 133
3 93 96 149
3 93 149 137
3 94 141 96
3 94 95 147
3 94 147 141
3 95 127 147
3 96 141 149
3 97 106 115
3 97 115 99
3 97 99 108
3 98 99 107
3 98 109 118
3 98 118 99
3 99 115 107
3 99 118 108
3 100 111 125
3 100 125 110
3 100 110 104
3 101 110 112
3 101 105 114
3 101 114 110
3 102 113 121
3 103 122 138
3 103 138 113
3 104 110 114
3 104 114 116
3 105 117 134
3 105 134 114
3 106 123 139
3 106 139 115
3 107 115 124
3 108 118 119
3 109 120 135
3 109 135 118
3 110 125 112
3 111 132 145
3 111 145 125
3 112 125 133
3 113 138 121
3 114 134 116
3 115 139 124
3 116 134 128
3 117 129 143
3 117 143 134
3 118 135 119
3 119 135 132
3 120 133 145
3 120 145 135
3 121 138 130
3 122 144 138
3 122 131 144
3 123 130 144
3 123 144 139
3 124 139 131
3 125 145 133
3 126 152 142
3 126 146 152
3 127 142 147
3 128 134 143
3 128 143 136
3 129 137 150
3 129 150 143
3 130 138 144
3 131 139 144
3 132 135 145
3 136 143 150
3 136 150 148
3 137 149 153
3 137 153 150
3 140 148 153
3 140 153 151
3 140 151 146
3 141 151 149
3 141 147 152
3 141 152 151
3 142 152 147
3 146 151 152
3 148 150 153
3 149 151 153
