ply
format ascii 1.0
element vertex 389
property float x
property float y
property float z
element face 772
property list uchar int vertex_indices
end_header
0.25183600187301636 0.9682490229606628 0.22002999484539032
0.26170799136161804 0.8843880295753479 0.20471400022506714
0.25889700651168823 0.8843880295753479 0.22232800722122192
0.24677400290966034 0.8815320134162903 0.21838699281215668
0.2437880039215088 0.8625789880752563 0.2174150049686432
0.31915000081062317 0.8288260102272034 0.24194499850273132
0.3374690115451813 0.8072770237922668 0.20474499464035034
0.3317149877548218 0.7587770223617554 0.24602599442005157
0.28907299041748047 0.6378660202026367 0.2047249972820282
0.28493499755859375 0.6378660202026367 0.2308180034160614
0.28959301114082336 0.634880006313324 0.20472599565982819
0.27357301115989685 0.6015689969062805 0.20471900701522827
0.27018898725509644 0.6015689969062805 0.2260040044784546
0.2817780077457428 0.5879380106925964 0.20472200214862823
0.2780030071735382 0.5879380106925964 0.22855399549007416
0.2885800004005432 0.5837579965591431 0.2047249972820282
0.30104300379753113 0.5654540061950684 0.20473000407218933
0.3189310133457184 0.554731011390686 0.20473800599575043
0.31333500146865845 0.554731011390686 0.24004699289798737
0.3183859884738922 0.542684018611908 0.20473699271678925
0.31279000639915466 0.542684018611908 0.2398650050163269
0.2582220137119293 0.5178729891777039 0.222120001912117
0.25230300426483154 0.5107460021972656 0.22018399834632874
0.30108198523521423 0.25127100944519043 0.23607000708580017
0.3181009888648987 0.22465799748897552 0.20473699271678925
0.3417530059814453 0.15845200419425964 0.2047470062971115
0.38181498646736145 0.1010729968547821 0.2047629952430725
0.37314701080322266 0.1010729968547821 0.25951799750328064
0.3695859909057617 0.07199370115995407 0.20475800335407257
0.36149099469184875 0.07199370115995407 0.2557229995727539
0.38339799642562866 0.05849279835820198 0.2047639936208725
0.3746260106563568 0.05849279835820198 0.259986013174057
0.3843590021133423 0.037202801555395126 0.2047639936208725
0.3755350112915039 0.037202801555395126 0.26027199625968933
0.3669680058956146 0.02500000037252903 0.25749000906944275
0.2377600073814392 0.9464399814605713 0.228753000497818
0.24183499813079834 0.8573859930038452 0.23171000182628632
0.30825600028038025 0.8202580213546753 0.2800289988517761
0.27292999625205994 0.6378660202026367 0.25433599948883057
0.2733449935913086 0.634880006313324 0.2546220123767853
0.2603929936885834 0.6015689969062805 0.24521799385547638
0.2670379877090454 0.5879380106925964 0.25005000829696655
0.2725149989128113 0.5837579965591431 0.25402501225471497
0.28261199593544006 0.5654540061950684 0.26135000586509705
0.29709500074386597 0.554731011390686 0.27189698815345764
0.2966279983520508 0.542684018611908 0.27156001329421997
0.2963939905166626 0.22465799748897552 0.2714039981365204
0.3155229985713959 0.15845200419425964 0.2853020131587982
0.3479419946670532 0.1010729968547821 0.3088900148868561
0.33805298805236816 0.07199370115995407 0.3016679883003235
0.3492400050163269 0.05849279835820198 0.30982500314712524
0.3499920070171356 0.037202801555395126 0.3103710114955902
0.34269899129867554 0.02500000037252903 0.3050450086593628
0.27991798520088196 0.8202580213546753 0.30834299325942993
0.2542549967765808 0.6378660202026367 0.2729960083961487
0.2451470047235489 0.6015689969062805 0.260452002286911
0.24997299909591675 0.5879380106925964 0.267100989818573
0.27179598808288574 0.554731011390686 0.29714998602867126
0.27145901322364807 0.542684018611908 0.29670798778533936
0.23775100708007812 0.5178729891777039 0.2502720057964325
0.23409299552440643 0.5107460021972656 0.24520699679851532
0.2713029980659485 0.22465799748897552 0.29647400975227356
0.30874699354171753 0.1010729968547821 0.3480530083179474
0.3015590012073517 0.07199370115995407 0.3381580114364624
0.3096809983253479 0.05849279835820198 0.3493250012397766
0.3102259933948517 0.037202801555395126 0.3501040041446686
0.30493301153182983 0.02500000037252903 0.34280699491500854
0.21885299682617188 0.8573859930038452 0.24839499592781067
0.24421100318431854 0.8202580213546753 0.32652899622917175
0.24307000637054443 0.7299579977989197 0.32304900884628296
0.23072700202465057 0.6378660202026367 0.28498199582099915
0.23088300228118896 0.634880006313324 0.2854749858379364
0.22593200206756592 0.6015689969062805 0.27023300528526306
0.22847099602222443 0.5879380106925964 0.2780489921569824
0.23056599497795105 0.5837579965591431 0.2844890058040619
0.23440900444984436 0.5654540061950684 0.2963550090789795
0.23993200063705444 0.554731011390686 0.31338998675346375
0.23975099623203278 0.542684018611908 0.31284400820732117
0.23917999863624573 0.24023599922657013 0.3110789954662323
0.25935500860214233 0.1010729968547821 0.37321698665618896
0.2555690109729767 0.07199370115995407 0.3615579903125763
0.25982099771499634 0.05849279835820198 0.3746969997882843
0.2601329982280731 0.037202801555395126 0.3755800127983093
0.2573319971561432 0.02500000037252903 0.36703699827194214
0.20461399853229523 0.8202580213546753 0.33279600739479065
0.20461499691009521 0.7299579977989197 0.329135000705719
0.2046319991350174 0.639968991279602 0.2874639928340912
0.2046319991350174 0.6336590051651001 0.28725600242614746
0.20463299751281738 0.6335039734840393 0.28491899371147156
0.20463800430297852 0.6015689969062805 0.2735989987850189
0.20463499426841736 0.5879380106925964 0.28180399537086487
0.20462000370025635 0.554731011390686 0.31895700097084045
0.20462000370025635 0.542684018611908 0.31841200590133667
0.20464299619197845 0.5178729891777039 0.26100701093673706
0.2046460062265396 0.5107460021972656 0.2547760009765625
0.20463700592517853 0.3268499970436096 0.2769489884376526
0.2046169936656952 0.18441499769687653 0.3241240084171295
0.20459400117397308 0.1010729968547821 0.3818410038948059
0.20459899306297302 0.07199370115995407 0.3696120083332062
0.2045930027961731 0.05849279835820198 0.3834240138530731
0.2045930027961731 0.037202801555395126 0.3843590021133423
0.20459599792957306 0.02500000037252903 0.3753499984741211
0.19045700132846832 0.8573859930038452 0.24838300049304962
0.1650490015745163 0.8202580213546753 0.32649698853492737
0.1661670058965683 0.7299579977989197 0.32301801443099976
0.17854100465774536 0.6378660202026367 0.2849609851837158
0.17838500440120697 0.634880006313324 0.28545400500297546
0.18335500359535217 0.6015689969062805 0.2702150046825409
0.18080200254917145 0.5879380106925964 0.2780289947986603
0.1787019968032837 0.5837579965591431 0.28446701169013977
0.1748490035533905 0.5654540061950684 0.296330988407135
0.1693120002746582 0.554731011390686 0.3133609890937805
0.1694680005311966 0.542684018611908 0.31281599402427673
0.1700659990310669 0.24023599922657013 0.3110499978065491
0.14984099566936493 0.1010729968547821 0.3731729984283447
0.15363700687885284 0.07199370115995407 0.3615170121192932
0.14937299489974976 0.05849279835820198 0.3746519982814789
0.14908699691295624 0.037202801555395126 0.3755350112915039
0.151868999004364 0.02500000037252903 0.3669939935207367
0.12933099269866943 0.8202580213546753 0.3082819879055023
0.13148699700832367 0.7299579977989197 0.3053230047225952
0.15598399937152863 0.639968991279602 0.27163198590278625
0.15611399710178375 0.6336590051651001 0.2714509963989258
0.15749099850654602 0.6335039734840393 0.26958200335502625
0.1641409993171692 0.6015689969062805 0.26041901111602783
0.1593089997768402 0.5879380106925964 0.26706400513648987
0.13746200501918793 0.554731011390686 0.29709500074386597
0.1377989947795868 0.542684018611908 0.29665398597717285
0.17154499888420105 0.5178729891777039 0.25024500489234924
0.17520800232887268 0.5107460021972656 0.24518300592899323
0.13442200422286987 0.18441499769687653 0.30127400159835815
0.10046900063753128 0.1010729968547821 0.3479680120944977
0.10769099742174149 0.07199370115995407 0.3380790054798126
0.09955979883670807 0.05849279835820198 0.3492400050163269
0.09898830205202103 0.037202801555395126 0.3500179946422577
0.1042879968881607 0.02500000037252903 0.34272500872612
0.1675020009279251 0.8573859930038452 0.2316790074110031
0.10101599991321564 0.8202580213546753 0.2799440026283264
0.10397700220346451 0.7299579977989197 0.27779000997543335
0.13633699715137482 0.6378660202026367 0.25428101420402527
0.13594700396060944 0.634880006313324 0.2545660138130188
0.14890700578689575 0.6015689969062805 0.24517300724983215
0.14225800335407257 0.5879380106925964 0.2499990016222
0.13677799701690674 0.5837579965591431 0.2539690136909485
0.12667499482631683 0.5654540061950684 0.26128700375556946
0.11218400299549103 0.554731011390686 0.2718220055103302
0.11265099793672562 0.542684018611908 0.27148500084877014
0.1226240023970604 0.25127100944519043 0.26424500346183777
0.061280298978090286 0.1010729968547821 0.308773010969162
0.07120130211114883 0.07199370115995407 0.3015590012073517
0.06003370136022568 0.05849279835820198 0.30970698595046997
0.05925460159778595 0.037202801555395126 0.31025201082229614
0.06655249744653702 0.02500000037252903 0.30493301153182983
0.1574849933385849 0.9682490229606628 0.219991996884346
0.1625480055809021 0.8815320134162903 0.2183530032634735
0.16553500294685364 0.8625789880752563 0.2173829972743988
0.08283030241727829 0.8202580213546753 0.24421100318431854
0.08630979806184769 0.7299579977989197 0.2430959939956665
0.12593500316143036 0.639968991279602 0.23022900521755219
0.12614299356937408 0.6336590051651001 0.23016700148582458
0.12835000455379486 0.6335039734840393 0.2294510006904602
0.1391260027885437 0.6015689969062805 0.22595100104808807
0.13131000101566315 0.5879380106925964 0.22849400341510773
0.09596949815750122 0.554731011390686 0.2399580031633377
0.09648880362510681 0.542684018611908 0.23977699875831604
0.15109699964523315 0.5178729891777039 0.22207699716091156
0.157042995095253 0.5107460021972656 0.22014500200748444
0.13593199849128723 0.3268499970436096 0.22698800265789032
0.09828049689531326 0.24023599922657013 0.239206001162529
0.0910618007183075 0.18441499769687653 0.24153999984264374
0.03614189848303795 0.1010729968547821 0.2593809962272644
0.047800999134778976 0.07199370115995407 0.25559499859809875
0.03466179966926575 0.05849279835820198 0.2598469853401184
0.03375300019979477 0.037202801555395126 0.2601329982280731
0.04232209920883179 0.02500000037252903 0.25735801458358765
0.14466500282287598 0.8841279745101929 0.20466700196266174
0.0765891969203949 0.8202580213546753 0.2046390026807785
0.08022409677505493 0.7299579977989197 0.2046400010585785
0.12026000022888184 0.6378660202026367 0.20465700328350067
0.11974000185728073 0.634880006313324 0.20465600490570068
0.13575999438762665 0.6015689969062805 0.2046629935503006
0.1275549978017807 0.5879380106925964 0.20465999841690063
0.12077900022268295 0.5837579965591431 0.20465700328350067
0.10829100012779236 0.5654540061950684 0.20465199649333954
0.09040170162916183 0.554731011390686 0.20464499294757843
0.09094700217247009 0.542684018611908 0.20464499294757843
0.0928163006901741 0.24023599922657013 0.2046460062265396
0.027492500841617584 0.1010729968547821 0.20461900532245636
0.0397472009062767 0.07199370115995407 0.2046239972114563
0.025934699922800064 0.05849279835820198 0.20461800694465637
0.02500000037252903 0.037202801555395126 0.20461800694465637
0.03398330137133598 0.02500000037252903 0.20462200045585632
0.15749700367450714 0.9682490229606628 0.18934500217437744
0.1476069986820221 0.8841279745101929 0.18612100183963776
0.16256000101566315 0.8815320134162903 0.190994992852211
0.1655450016260147 0.8625789880752563 0.19195500016212463
0.0828624963760376 0.8202580213546753 0.16507500410079956
0.08634120225906372 0.7299579977989197 0.16619299352169037
0.1259559988975525 0.639968991279602 0.17907600104808807
0.1261640042066574 0.6336590051651001 0.17914600670337677
0.128370001912117 0.6335039734840393 0.17986899614334106
0.13914400339126587 0.6015689969062805 0.18336500227451324
0.1313299983739853 0.5879380106925964 0.1808280050754547
0.09599819779396057 0.554731011390686 0.16933800280094147
0.09651750326156616 0.542684018611908 0.16949400305747986
0.15111100673675537 0.5178729891777039 0.18726199865341187
0.15705600380897522 0.5107460021972656 0.189193993806839
0.09109179675579071 0.18441499769687653 0.16772599518299103
0.03618659824132919 0.1010729968547821 0.1498669981956482
0.0478425994515419 0.07199370115995407 0.15366299450397491
0.03470680117607117 0.05849279835820198 0.14939899742603302
0.03379819914698601 0.037202801555395126 0.14908699691295624
0.042364999651908875 0.02500000037252903 0.151868999004364
0.17510299384593964 0.973442018032074 0.18319100141525269
0.16726399958133698 0.9698070287704468 0.17749400436878204
0.1715729981660843 0.9464399814605713 0.18060800433158875
0.10107699781656265 0.8202580213546753 0.1293569952249527
0.10403600335121155 0.7299579977989197 0.13151299953460693
0.1363770067691803 0.6378660202026367 0.15504899621009827
0.1359879970550537 0.634880006313324 0.15473699569702148
0.14893999695777893 0.6015689969062805 0.16416700184345245
0.1422950029373169 0.5879380106925964 0.15933500230312347
0.13681800663471222 0.5837579965591431 0.1553339958190918
0.12672199308872223 0.5654540061950684 0.14800900220870972
0.11223799735307693 0.554731011390686 0.13748799264431
0.11270599812269211 0.542684018611908 0.1377989947795868
0.12267299741506577 0.25127100944519043 0.14504699409008026
0.06136519834399223 0.1010729968547821 0.10049500316381454
0.07128030061721802 0.07225330173969269 0.10769099742174149
0.060119301080703735 0.05849279835820198 0.09955979883670807
0.05934059992432594 0.037202801555395126 0.0990142971277237
0.06663420051336288 0.02500000037252903 0.10431399941444397
0.12941500544548035 0.8202580213546753 0.10101599991321564
0.1315689980983734 0.7299579977989197 0.10400299727916718
0.15603800117969513 0.639968991279602 0.13768699765205383
0.15616799890995026 0.6336590051651001 0.1378690004348755
0.15754400193691254 0.6335039734840393 0.13976499438285828
0.1641860008239746 0.6015689969062805 0.14893299341201782
0.15936000645160675 0.5879380106925964 0.14228400588035583
0.13753700256347656 0.554731011390686 0.1122099980711937
0.13787400722503662 0.542684018611908 0.11265099793672562
0.17158199846744537 0.5178729891777039 0.15911300480365753
0.17524099349975586 0.5107460021972656 0.16415199637413025
0.162213996052742 0.3268499970436096 0.14620600640773773
0.1389639973640442 0.24023599922657013 0.11418300122022629
0.13450099527835846 0.18441499769687653 0.10802800208330154
0.10058599710464478 0.1010729968547821 0.06130630150437355
0.10779999941587448 0.07225330173969269 0.0712272971868515
0.09967769682407379 0.05849279835820198 0.06003370136022568
0.0991068035364151 0.037202801555395126 0.059280600398778915
0.10440000146627426 0.02500000037252903 0.06657840311527252
0.16514800488948822 0.8202580213546753 0.0828562006354332
0.16626299917697906 0.7299579977989197 0.08633580058813095
0.17860600352287292 0.6378660202026367 0.12437699735164642
0.17845000326633453 0.634880006313324 0.12391000241041183
0.1834080070257187 0.6015689969062805 0.13915200531482697
0.18086199462413788 0.5879380106925964 0.1313360035419464
0.17876699566841125 0.5837579965591431 0.12487100064754486
0.17492400109767914 0.5654540061950684 0.11303000152111053
0.16940100491046906 0.554731011390686 0.09599539637565613
0.16955600678920746 0.542684018611908 0.09651479870080948
0.17015300691127777 0.24023599922657013 0.09830649942159653
0.14997799694538116 0.1010729968547821 0.03616790100932121
0.15376399457454681 0.07225330173969269 0.04782700166106224
0.14951199293136597 0.05849279835820198 0.03466179966926575
0.14922599494457245 0.037202801555395126 0.033778999000787735
0.15200099349021912 0.02500000037252903 0.04234800115227699
0.2047179937362671 0.8202580213546753 0.0765891969203949
0.2047169953584671 0.7299579977989197 0.0802500993013382
0.20469999313354492 0.639968991279602 0.12189500033855438
0.20469999313354492 0.6336590051651001 0.12212900072336197
0.20469899475574493 0.6335039734840393 0.12443999946117401
0.204694002866745 0.6015689969062805 0.1357859969139099
0.20469799637794495 0.5879380106925964 0.1275549978017807
0.20471300184726715 0.554731011390686 0.09040170162916183
0.20471200346946716 0.542684018611908 0.090972900390625
0.20468899607658386 0.5178729891777039 0.1483519971370697
0.2046860009431839 0.5107460021972656 0.15460899472236633
0.20471499860286713 0.18441499769687653 0.08526100218296051
0.20473800599575043 0.1010729968547821 0.02751840092241764
0.2047329992055893 0.07225330173969269 0.03977319970726967
0.20473900437355042 0.05849279835820198 0.02596060000360012
0.20473900437355042 0.037202801555395126 0.02500000037252903
0.20473599433898926 0.02500000037252903 0.03400930017232895
0.24431000649929047 0.8202580213546753 0.08288849890232086
0.2431669980287552 0.7299579977989197 0.08636710047721863
0.23079200088977814 0.6378660202026367 0.12439800053834915
0.23094800114631653 0.634880006313324 0.12393099814653397
0.22598600387573242 0.6015689969062805 0.13917000591754913
0.22853100299835205 0.5879380106925964 0.13135600090026855
0.2306309938430786 0.5837579965591431 0.12489199638366699
0.234484001994133 0.5654540061950684 0.11305399984121323
0.2400210052728653 0.554731011390686 0.09602420032024384
0.23983900249004364 0.542684018611908 0.09654340147972107
0.2360440045595169 0.25127100944519043 0.10827700048685074
0.25949200987815857 0.1010729968547821 0.0362125001847744
0.25569701194763184 0.07225330173969269 0.047868501394987106
0.25995999574661255 0.05849279835820198 0.03470680117607117
0.26027199625968933 0.037202801555395126 0.03382420167326927
0.2574639916419983 0.02500000037252903 0.04239099845290184
0.28000301122665405 0.8202580213546753 0.10107699781656265
0.27784600853919983 0.7299579977989197 0.10406199842691422
0.2533490061759949 0.639968991279602 0.13772700726985931
0.25321900844573975 0.6336590051651001 0.13790899515151978
0.25186800956726074 0.6335039734840393 0.13980300724506378
0.2451920062303543 0.6015689969062805 0.1489659994840622
0.2500239908695221 0.5879380106925964 0.14232100546360016
0.23778800666332245 0.5178729891777039 0.15914000570774078
0.2341260015964508 0.5107460021972656 0.16417600214481354
0.2471659928560257 0.3268499970436096 0.1462399959564209
0.27044299244880676 0.24023599922657013 0.11423700302839279
0.27491098642349243 0.18441499769687653 0.10808499902486801
0.3088639974594116 0.1010729968547821 0.06139110028743744
0.3016679883003235 0.07225330173969269 0.07130619883537292
0.3097989857196808 0.05849279835820198 0.060119301080703735
0.31034499406814575 0.037202801555395126 0.05936659872531891
0.3050450086593628 0.02500000037252903 0.06666020303964615
0.30831700563430786 0.8202580213546753 0.12944099307060242
0.2729960083961487 0.6378660202026367 0.15510399639606476
0.27338600158691406 0.634880006313324 0.15479299426078796
0.26042601466178894 0.6015689969062805 0.16421200335025787
0.2670750021934509 0.5879380106925964 0.15938599407672882
0.27255499362945557 0.5837579965591431 0.15538999438285828
0.28265801072120667 0.5654540061950684 0.1480720043182373
0.29714998602867126 0.554731011390686 0.13756300508975983
0.2951759994029999 0.24023599922657013 0.13898999989032745
0.34802699089050293 0.1010729968547821 0.10061199963092804
0.33813199400901794 0.07225330173969269 0.10779999941587448
0.3493250012397766 0.05849279835820198 0.09967769682407379
0.3500789999961853 0.037202801555395126 0.09913270175457001
0.3427810072898865 0.02500000037252903 0.10442599654197693
0.23778000473976135 0.9464399814605713 0.180635005235672
0.2467849999666214 0.8815320134162903 0.19102999567985535
0.2483689934015274 0.8573859930038452 0.19051599502563477
0.3265030086040497 0.8202580213546753 0.16517400741577148
0.3230229914188385 0.7299579977989197 0.16628900170326233
0.28339800238609314 0.639968991279602 0.17914000153541565
0.2831900119781494 0.6336590051651001 0.17921000719070435
0.28098300099372864 0.6335039734840393 0.17993099987506866
0.2722319960594177 0.5937280058860779 0.18277299404144287
0.2869029939174652 0.5772929787635803 0.17798399925231934
0.3133639991283417 0.554731011390686 0.16942700743675232
0.25823599100112915 0.5178729891777039 0.1873060017824173
0.2523159980773926 0.5107460021972656 0.18923300504684448
0.2734009921550751 0.3268499970436096 0.1823820024728775
0.31105300784111023 0.24023599922657013 0.17017899453639984
0.3182710111141205 0.18441499769687653 0.16781899333000183
0.37056899070739746 0.08419650048017502 0.150859996676445
0.35955899953842163 0.07173410058021545 0.15441299974918365
0.37191900610923767 0.06290650367736816 0.15041899681091309
0.3755800127983093 0.037202801555395126 0.14922599494457245
0.3716849982738495 0.026817400008440018 0.15049700438976288
0.16396699845790863 0.9682490229606628 0.1767130047082901
0.1661739945411682 0.9692879915237427 0.1767140030860901
0.14760999381542206 0.9430649876594543 0.17670699954032898
0.15571099519729614 0.8843880295753479 0.17670999467372894
0.16804400086402893 0.9698070287704468 0.17671500146389008
0.1754949986934662 0.9464399814605713 0.17671799659729004
0.17082199454307556 0.8815320134162903 0.17671599984169006
0.1751839965581894 0.8625789880752563 0.17671799659729004
0.1723800003528595 0.8602420091629028 0.17671699821949005
0.19134600460529327 0.8602420091629028 0.16363899409770966
0.2137729972600937 0.9750000238418579 0.17673400044441223
0.23388700187206268 0.9464399814605713 0.17674200236797333
0.2385600060224533 0.8815320134162903 0.1767439991235733
0.2369759976863861 0.8602420091629028 0.17674300074577332
0.24541400372982025 0.9682490229606628 0.17674699425697327
0.26174500584602356 0.9430649876594543 0.1767529994249344
0.25364500284194946 0.8843880295753479 0.17675000429153442
0.24560000002384186 0.9682490229606628 0.2322559952735901
0.24256199598312378 0.9695479869842529 0.2322549968957901
0.26193100214004517 0.9430649876594543 0.2322629988193512
0.25712698698043823 0.8841279745101929 0.23226100206375122
0.24666400253772736 0.8841279745101929 0.23225699365139008
0.22466500103473663 0.9739609956741333 0.232247993350029
0.2417050004005432 0.9698070287704468 0.2322549968957901
0.23428000509738922 0.9464399814605713 0.23225200176239014
0.23895299434661865 0.8815320134162903 0.2322539985179901
0.23459100723266602 0.8625789880752563 0.23225200176239014
0.21798700094223022 0.8602420091629028 0.24574600160121918
0.1913120001554489 0.8602420091629028 0.24573500454425812
0.18463799357414246 0.9739609956741333 0.232232004404068
0.17503100633621216 0.9464399814605713 0.23222799599170685
0.17035800218582153 0.8815320134162903 0.23222599923610687
0.1746159940958023 0.8682910203933716 0.23222699761390686
0.17474600672721863 0.8625789880752563 0.23222699761390686
0.16371099650859833 0.9682490229606628 0.2322230041027069
0.14737999439239502 0.9430649876594543 0.2322160005569458
0.1554809957742691 0.8843880295753479 0.23221999406814575
3 2 1 371
3 3 332 1
3 4 333 332
3 3 4 332
3 5 7 6
3 9 8 7
3 9 10 8
3 10 12 11
3 14 13 11
3 12 14 11
3 14 15 13
3 14 16 15
3 18 17 16
3 20 19 17
3 18 20 17
3 27 26 25
3 29 28 26
3 27 29 26
3 31 30 28
3 33 32 30
3 31 33 30
3 34 351 32
3 33 34 32
3 377 3 1
3 377 4 3
3 36 5 4
3 36 37 5
3 37 7 5
3 7 38 9
3 38 39 9
3 39 10 9
3 39 40 10
3 40 12 10
3 41 14 12
3 40 41 12
3 41 42 14
3 43 16 14
3 42 43 14
3 44 18 16
3 43 44 16
3 45 20 18
3 44 45 18
3 61 46 23
3 46 24 23
3 46 47 24
3 47 25 24
3 48 27 25
3 47 48 25
3 49 29 27
3 48 49 27
3 63 28 29
3 49 63 29
3 50 31 28
3 63 50 28
3 51 33 31
3 50 51 31
3 52 34 33
3 51 52 33
3 52 351 34
3 36 53 37
3 69 7 37
3 53 69 37
3 69 54 7
3 54 38 7
3 54 39 38
3 39 55 40
3 56 41 40
3 55 56 40
3 56 42 41
3 56 43 42
3 57 44 43
3 58 45 44
3 57 58 44
3 59 19 20
3 45 59 20
3 59 21 19
3 60 22 21
3 59 60 21
3 95 23 22
3 60 95 22
3 95 61 23
3 61 47 46
3 62 48 47
3 63 49 48
3 62 63 48
3 64 50 63
3 65 51 50
3 64 65 50
3 66 52 51
3 65 66 51
3 68 53 36
3 68 69 53
3 69 70 54
3 70 71 54
3 71 39 54
3 71 72 39
3 72 55 39
3 73 56 55
3 72 73 55
3 73 74 56
3 75 43 56
3 74 75 56
3 76 57 43
3 75 76 43
3 77 58 57
3 76 77 57
3 95 78 61
3 79 62 47
3 80 63 62
3 79 80 62
3 81 64 63
3 82 65 64
3 81 82 64
3 83 66 65
3 82 83 65
3 83 52 66
3 84 68 36
3 67 84 36
3 85 69 68
3 84 85 68
3 86 70 69
3 87 71 70
3 86 87 70
3 87 88 71
3 71 89 72
3 90 73 72
3 89 90 72
3 90 74 73
3 90 75 74
3 91 76 75
3 92 77 76
3 91 92 76
3 93 45 58
3 77 93 58
3 93 59 45
3 94 60 59
3 93 94 59
3 94 95 60
3 96 61 78
3 96 47 61
3 97 79 47
3 96 97 47
3 98 80 79
3 97 98 79
3 115 63 80
3 98 115 80
3 99 81 63
3 115 99 63
3 100 82 81
3 99 100 81
3 101 83 82
3 100 101 82
3 101 52 83
3 103 84 67
3 104 85 84
3 103 104 84
3 85 86 69
3 85 105 86
3 106 87 86
3 105 106 86
3 106 88 87
3 107 71 88
3 106 107 88
3 107 89 71
3 108 90 89
3 107 108 89
3 108 109 90
3 110 75 90
3 109 110 90
3 111 91 75
3 110 111 75
3 112 92 91
3 111 112 91
3 113 78 95
3 113 96 78
3 114 97 96
3 115 98 97
3 114 115 97
3 116 99 115
3 117 100 99
3 116 117 99
3 118 101 100
3 117 118 100
3 118 52 101
3 119 103 67
3 102 119 67
3 120 104 103
3 119 120 103
3 104 121 85
3 121 105 85
3 122 106 105
3 121 122 105
3 122 123 106
3 106 124 107
3 125 108 107
3 124 125 107
3 125 109 108
3 125 110 109
3 126 111 110
3 127 112 111
3 126 127 111
3 128 77 92
3 112 128 92
3 128 93 77
3 129 94 93
3 128 129 93
3 167 95 94
3 129 167 94
3 167 113 95
3 130 96 113
3 131 114 96
3 130 131 96
3 132 115 114
3 131 132 114
3 133 116 115
3 134 117 116
3 133 134 116
3 135 118 117
3 134 135 117
3 135 52 118
3 137 119 102
3 138 120 119
3 137 138 119
3 120 121 104
3 120 139 121
3 140 122 121
3 139 140 121
3 140 123 122
3 141 106 123
3 140 141 123
3 141 124 106
3 142 125 124
3 141 142 124
3 142 143 125
3 144 110 125
3 143 144 125
3 145 126 110
3 144 145 110
3 146 127 126
3 145 146 126
3 147 113 167
3 147 130 113
3 148 131 130
3 149 132 131
3 148 149 131
3 171 115 132
3 149 171 132
3 150 133 115
3 171 150 115
3 151 134 133
3 150 151 133
3 152 135 134
3 151 152 134
3 152 52 135
3 156 102 136
3 155 156 136
3 156 137 102
3 157 138 137
3 156 157 137
3 138 158 120
3 158 139 120
3 159 140 139
3 158 159 139
3 159 160 140
3 140 161 141
3 162 142 141
3 161 162 141
3 162 143 142
3 162 144 143
3 163 145 144
3 164 146 145
3 163 164 145
3 165 112 127
3 146 165 127
3 165 128 112
3 166 129 128
3 165 166 128
3 166 167 129
3 168 147 167
3 169 130 147
3 168 169 147
3 170 148 130
3 169 170 130
3 171 149 148
3 170 171 148
3 172 150 171
3 173 151 150
3 172 173 150
3 174 152 151
3 173 174 151
3 174 52 152
3 215 382 153
3 215 387 382
3 155 176 156
3 177 157 156
3 176 177 156
3 157 158 138
3 157 178 158
3 179 159 158
3 178 179 158
3 179 160 159
3 180 140 160
3 179 180 160
3 180 161 140
3 181 162 161
3 180 181 161
3 181 182 162
3 183 144 162
3 182 183 162
3 184 163 144
3 183 184 144
3 185 164 163
3 184 185 163
3 186 168 167
3 186 169 168
3 187 170 169
3 188 171 170
3 187 188 170
3 189 172 171
3 190 173 172
3 189 190 172
3 191 174 173
3 190 191 173
3 191 52 174
3 192 153 381
3 192 215 153
3 354 387 215
3 193 175 387
3 354 193 387
3 194 154 175
3 195 155 154
3 194 195 154
3 196 176 155
3 197 177 176
3 196 197 176
3 177 198 157
3 198 178 157
3 199 179 178
3 198 199 178
3 199 200 179
3 179 201 180
3 202 181 180
3 201 202 180
3 202 182 181
3 202 183 182
3 203 184 183
3 204 185 184
3 203 204 184
3 205 146 164
3 185 205 164
3 205 165 146
3 206 166 165
3 205 206 165
3 243 167 166
3 206 243 166
3 243 186 167
3 207 169 186
3 208 187 169
3 207 208 169
3 209 188 187
3 208 209 187
3 228 171 188
3 209 228 188
3 210 189 171
3 228 210 171
3 211 190 189
3 210 211 189
3 212 191 190
3 211 212 190
3 212 52 191
3 213 192 381
3 213 214 192
3 358 194 175
3 358 195 194
3 216 196 155
3 195 216 155
3 217 197 196
3 216 217 196
3 197 198 177
3 197 218 198
3 219 199 198
3 218 219 198
3 219 200 199
3 220 179 200
3 219 220 200
3 220 201 179
3 221 202 201
3 220 221 201
3 221 222 202
3 223 183 202
3 222 223 202
3 224 203 183
3 223 224 183
3 225 204 203
3 224 225 203
3 226 186 243
3 226 207 186
3 227 208 207
3 228 209 208
3 227 228 208
3 229 210 228
3 230 211 210
3 229 230 210
3 231 212 211
3 230 231 211
3 231 52 212
3 232 195 360
3 232 216 195
3 233 217 216
3 232 233 216
3 217 234 197
3 234 218 197
3 235 219 218
3 234 235 218
3 235 236 219
3 219 237 220
3 238 221 220
3 237 238 220
3 238 222 221
3 238 223 222
3 239 224 223
3 240 225 224
3 239 240 224
3 241 185 204
3 225 241 204
3 241 205 185
3 242 206 205
3 241 242 205
3 242 243 206
3 244 226 243
3 245 207 226
3 244 245 226
3 246 227 207
3 245 246 207
3 247 228 227
3 246 247 227
3 248 229 228
3 249 230 229
3 248 249 229
3 250 231 230
3 249 250 230
3 250 52 231
3 360 251 232
3 252 233 232
3 251 252 232
3 233 234 217
3 233 253 234
3 254 235 234
3 253 254 234
3 254 236 235
3 255 219 236
3 254 255 236
3 255 237 219
3 256 238 237
3 255 256 237
3 256 257 238
3 258 223 238
3 257 258 238
3 259 239 223
3 258 259 223
3 260 240 239
3 259 260 239
3 261 244 243
3 261 245 244
3 262 246 245
3 263 247 246
3 262 263 246
3 280 228 247
3 263 280 247
3 264 248 228
3 280 264 228
3 265 249 248
3 264 265 248
3 266 250 249
3 265 266 249
3 266 52 250
3 267 251 360
3 361 267 360
3 268 252 251
3 267 268 251
3 252 269 233
3 269 253 233
3 270 254 253
3 269 270 253
3 270 271 254
3 254 272 255
3 273 256 255
3 272 273 255
3 273 257 256
3 273 258 257
3 274 259 258
3 275 260 259
3 274 275 259
3 276 225 240
3 260 276 240
3 276 241 225
3 277 242 241
3 276 277 241
3 309 243 242
3 277 309 242
3 309 261 243
3 278 245 261
3 279 262 245
3 278 279 245
3 280 263 262
3 279 280 262
3 281 264 280
3 282 265 264
3 281 282 264
3 283 266 265
3 282 283 265
3 283 52 266
3 284 267 361
3 285 268 267
3 284 285 267
3 268 269 252
3 268 286 269
3 287 270 269
3 286 287 269
3 287 271 270
3 288 254 271
3 287 288 271
3 288 272 254
3 289 273 272
3 288 289 272
3 289 290 273
3 291 258 273
3 290 291 273
3 292 274 258
3 291 292 258
3 293 275 274
3 292 293 274
3 294 261 309
3 294 278 261
3 295 279 278
3 296 280 279
3 295 296 279
3 297 281 280
3 298 282 281
3 297 298 281
3 299 283 282
3 298 299 282
3 299 52 283
3 300 284 361
3 301 285 284
3 300 301 284
3 285 302 268
3 302 286 268
3 303 287 286
3 302 303 286
3 303 304 287
3 287 305 288
3 306 289 288
3 305 306 288
3 306 290 289
3 306 291 290
3 324 292 291
3 324 293 292
3 307 260 275
3 293 307 275
3 307 276 260
3 308 277 276
3 307 308 276
3 308 309 277
3 310 294 309
3 311 278 294
3 310 311 294
3 312 295 278
3 311 312 278
3 313 296 295
3 312 313 295
3 327 280 296
3 313 327 296
3 314 297 280
3 327 314 280
3 315 298 297
3 314 315 297
3 316 299 298
3 315 316 298
3 316 52 299
3 317 300 361
3 317 301 300
3 301 302 285
3 301 318 302
3 319 303 302
3 318 319 302
3 319 304 303
3 320 287 304
3 319 320 304
3 320 305 287
3 321 306 305
3 320 321 305
3 321 322 306
3 323 291 306
3 322 323 306
3 323 324 291
3 325 310 309
3 325 311 310
3 326 312 311
3 327 313 312
3 326 327 312
3 328 314 327
3 329 315 314
3 328 329 314
3 330 316 315
3 329 330 315
3 330 52 316
3 365 317 361
3 365 334 317
3 334 335 317
3 335 301 317
3 335 336 301
3 336 318 301
3 337 319 318
3 336 337 318
3 337 338 319
3 338 320 319
3 338 339 320
3 339 321 320
3 340 322 321
3 339 340 321
3 340 323 322
3 341 324 323
3 340 341 323
3 341 342 324
3 342 293 324
3 342 307 293
3 342 343 307
3 343 308 307
3 343 309 308
3 343 344 309
3 345 325 309
3 344 345 309
3 345 346 325
3 346 311 325
3 346 326 311
3 346 347 326
3 347 327 326
3 347 348 327
3 349 328 327
3 348 349 327
3 350 329 328
3 349 350 328
3 351 330 329
3 350 351 329
3 351 52 330
3 0 366 362
3 35 331 366
3 0 35 366
3 371 367 331
3 35 371 331
3 371 1 367
3 5 365 333
3 4 5 333
3 5 334 365
3 5 6 334
3 6 335 334
3 6 7 335
3 7 336 335
3 7 8 336
3 10 337 336
3 8 10 336
3 10 338 337
3 10 11 338
3 11 339 338
3 11 13 339
3 15 340 339
3 13 15 339
3 15 16 340
3 17 341 340
3 16 17 340
3 17 19 341
3 19 342 341
3 19 21 342
3 21 343 342
3 21 22 343
3 22 23 343
3 23 344 343
3 23 345 344
3 23 24 345
3 24 346 345
3 24 25 346
3 25 26 346
3 26 347 346
3 26 28 347
3 28 348 347
3 30 349 348
3 28 30 348
3 32 350 349
3 30 32 349
3 32 351 350
3 352 192 214
3 192 352 215
3 214 353 352
3 355 193 354
3 193 355 175
3 175 355 358
3 381 362 213
3 213 353 214
3 353 213 362
3 356 214 353
3 357 215 352
3 358 359 195
3 360 195 359
3 363 331 367
3 364 332 333
3 365 364 333
3 331 363 366
3 368 367 1
3 368 1 332
3 354 215 357
3 332 364 368
3 361 360 365
3 362 352 353
3 352 362 363
3 355 354 364
3 364 358 355
3 359 358 365
3 365 358 364
3 365 360 359
3 362 366 363
3 367 352 363
3 352 367 357
3 354 367 368
3 367 354 357
3 364 354 368
3 0 369 35
3 0 370 369
3 371 372 2
3 2 373 1
3 373 2 372
3 1 373 377
3 362 374 0
3 370 0 374
3 375 0 370
3 376 35 369
3 377 378 4
3 36 4 378
3 36 379 67
3 374 362 381
3 380 67 379
3 67 380 102
3 385 102 380
3 102 385 136
3 154 384 383
3 384 154 155
3 385 155 136
3 385 384 155
3 153 386 381
3 386 153 382
3 388 387 175
3 388 175 154
3 388 154 383
3 376 371 35
3 379 36 380
3 370 374 381
3 380 36 385
3 381 369 370
3 369 381 382
3 373 372 383
3 373 383 384
3 373 384 377
3 378 377 385
3 385 377 384
3 385 36 378
3 382 381 386
3 376 369 388
3 371 388 372
3 388 382 387
3 382 388 369
3 383 372 388
3 388 371 376
