ply
format ascii 1.0
element vertex 214
property float x
property float y
property float z
element face 419
property list uchar int vertex_indices
end_header
0.02500000037252903 0.11830899864435196 0.21953999996185303
0.03499729931354523 0.02833230048418045 0.21953999996185303
0.051660798490047455 0.05999160185456276 0.21953999996185303
0.06332500278949738 0.3040960133075714 0.21953999996185303
0.08081989735364914 0.2541069984436035 0.21953999996185303
0.08197899907827377 0.11830899864435196 0.08197899907827377
0.08197899907827377 0.11830899864435196 0.3571000099182129
0.08904880285263062 0.02833230048418045 0.08904880285263062
0.08904880285263062 0.02833230048418045 0.3500309884548187
0.10083100199699402 0.05999160185456276 0.10083100199699402
0.10083100199699402 0.05999160185456276 0.33824899792671204
0.10907900333404541 0.3040960133075714 0.10907900333404541
0.10907900333404541 0.3040960133075714 0.33000099658966064
0.12144999951124191 0.2541069984436035 0.12144999951124191
0.12144999951124191 0.2541069984436035 0.31762999296188354
0.12414199858903885 0.027499599382281303 0.21953999996185303
0.12497500330209732 0.2990950047969818 0.21953999996185303
0.12624500691890717 0.4422900080680847 0.2585090100765228
0.12748199701309204 0.7214570045471191 0.24432100355625153
0.127701997756958 0.7308070063591003 0.30799800157546997
0.1290069967508316 0.7762429714202881 0.288116991519928
0.13092899322509766 0.8438720107078552 0.25360700488090515
0.13113999366760254 0.7510579824447632 0.2838059961795807
0.1318420022726059 0.6972330212593079 0.23776599764823914
0.13195300102233887 0.7624850273132324 0.2215380072593689
0.1326889991760254 0.4261220097541809 0.32420700788497925
0.13276000320911407 0.7397130131721497 0.22167600691318512
0.1344520002603531 0.32384198904037476 0.2850379943847656
0.13494400680065155 0.7039579749107361 0.2953459918498993
0.13531699776649475 0.359591007232666 0.21667900681495667
0.13711200654506683 0.45974600315093994 0.1881289929151535
0.13862000405788422 0.8678629994392395 0.3142170011997223
0.13984599709510803 0.8188390135765076 0.18733200430870056
0.14052200317382812 0.7121120095252991 0.18042799830436707
0.14167800545692444 0.6900249719619751 0.1787550002336502
0.14388500154018402 0.7883070111274719 0.34350600838661194
0.14597100019454956 0.7607970237731934 0.3341189920902252
0.14706799387931824 0.7289980053901672 0.16206300258636475
0.14720399677753448 0.7386659979820251 0.35978400707244873
0.14820900559425354 0.7498040199279785 0.15932999551296234
0.15029500424861908 0.6466519832611084 0.1784670054912567
0.15182800590991974 0.3935219943523407 0.1519480049610138
0.15208299458026886 0.027499599382281303 0.15208299458026886
0.15208299458026886 0.027499599382281303 0.2869960069656372
0.15267199277877808 0.2990950047969818 0.15267199277877808
0.15267199277877808 0.2990950047969818 0.2864069938659668
0.1555349975824356 0.6347579956054688 0.13938699662685394
0.15554900467395782 0.6586470007896423 0.21779200434684753
0.1582469940185547 0.7090029716491699 0.3431999981403351
0.15934699773788452 0.2944430112838745 0.3416360020637512
0.16031000018119812 0.4737969934940338 0.13156700134277344
0.16079400479793549 0.7983829975128174 0.13266900181770325
0.16118499636650085 0.6839370131492615 0.1309799998998642
0.1647299975156784 0.7042099833488464 0.12754200398921967
0.16647300124168396 0.8822050094604492 0.17531099915504456
0.16840599477291107 0.8990899920463562 0.22081999480724335
0.16994799673557281 0.30758100748062134 0.19026799499988556
0.1729629933834076 0.668628990650177 0.24992400407791138
0.17372499406337738 0.6247529983520508 0.10692200064659119
0.17600099742412567 0.7199519872665405 0.11302799731492996
0.17602099478244781 0.3339950144290924 0.13986800611019135
0.17636099457740784 0.413673996925354 0.37651100754737854
0.17747899889945984 0.8644930124282837 0.12854300439357758
0.17763400077819824 0.4150739908218384 0.11087799817323685
0.180090993642807 0.7394649982452393 0.11008500307798386
0.18400900065898895 0.8907020092010498 0.36213400959968567
0.18422000110149384 0.2856520116329193 0.2326270043849945
0.1910420060157776 0.3523640036582947 0.10474299639463425
0.19298799335956573 0.8539810180664062 0.10167299956083298
0.19628700613975525 0.7853350043296814 0.09896630048751831
0.1971459984779358 0.48184698820114136 0.09903950244188309
0.19988200068473816 0.9101560115814209 0.2524920105934143
0.20238299667835236 0.35830599069595337 0.0932219997048378
0.20500800013542175 0.9555540084838867 0.1167220026254654
0.20721499621868134 0.7697870135307312 0.36996498703956604
0.20784799754619598 0.7997559905052185 0.3856410086154938
0.20841200649738312 0.8492890000343323 0.09055359661579132
0.20918400585651398 0.42369401454925537 0.09452299773693085
0.2110529989004135 0.9305520057678223 0.09165710210800171
0.21504999697208405 0.36104801297187805 0.08777180314064026
0.215256005525589 0.9243959784507751 0.0854543000459671
0.21575799584388733 0.7442049980163574 0.39064300060272217
0.21722500026226044 0.6784219741821289 0.09433309733867645
0.2178110033273697 0.6751000285148621 0.2689819931983948
0.21805499494075775 0.9219679832458496 0.08308490365743637
0.21953999996185303 0.11830899864435196 0.02500000037252903
0.21953999996185303 0.02833230048418045 0.03499729931354523
0.21953999996185303 0.05999160185456276 0.051660798490047455
0.21953999996185303 0.3040960133075714 0.06332500278949738
0.21953999996185303 0.2541069984436035 0.08081989735364914
0.21953999996185303 0.027499599382281303 0.12414199858903885
0.21953999996185303 0.2990950047969818 0.12497500330209732
0.21953999996185303 0.02500000037252903 0.21953999996185303
0.21953999996185303 0.2982639968395233 0.21953999996185303
0.21953999996185303 0.2990950047969818 0.31410500407218933
0.21953999996185303 0.027499599382281303 0.3149369955062866
0.21953999996185303 0.2541069984436035 0.358258992433548
0.21953999996185303 0.3040960133075714 0.3757539987564087
0.21953999996185303 0.05999160185456276 0.3874189853668213
0.21953999996185303 0.02833230048418045 0.4040820002555847
0.21953999996185303 0.11830899864435196 0.4140790104866028
0.22099800407886505 0.9204279780387878 0.08160220086574554
0.2211039960384369 0.6987299919128418 0.09532219916582108
0.22199800610542297 0.9750000238418579 0.12929899990558624
0.22232100367546082 0.6192479729652405 0.09035520255565643
0.22361600399017334 0.946457028388977 0.07952850311994553
0.2239149957895279 0.2749370038509369 0.07820969820022583
0.2239760011434555 0.9197900295257568 0.08098380267620087
0.22398899495601654 0.7102159857749939 0.3680889904499054
0.22405500710010529 0.9462550282478333 0.07915990054607391
0.22409799695014954 0.2747739851474762 0.0781674012541771
0.22427399456501007 0.2746860086917877 0.078125
0.22443799674510956 0.2746570110321045 0.07808680087327957
0.22446799278259277 0.9460610151290894 0.07886909693479538
0.22458599507808685 0.27467501163482666 0.07805539667606354
0.22471199929714203 0.27472299337387085 0.07802949845790863
0.22476600110530853 0.27487000823020935 0.07812230288982391
0.22481200098991394 0.2747870087623596 0.07801169902086258
0.22485099732875824 0.9458889961242676 0.07864929735660553
0.2248629927635193 0.27493301033973694 0.07806909829378128
0.22488200664520264 0.27485498785972595 0.07800629734992981
0.22491200268268585 0.274942010641098 0.07803220301866531
0.2249169945716858 0.27491098642349243 0.07801169902086258
0.22501499950885773 0.8477709889411926 0.08805570006370544
0.22519700229167938 0.9457330107688904 0.07849229872226715
0.22550199925899506 0.9456009864807129 0.07839120179414749
0.22576099634170532 0.9454929828643799 0.07833939790725708
0.22596700489521027 0.945406973361969 0.07832980155944824
0.22611600160598755 0.9453520178794861 0.07835579663515091
0.22616499662399292 0.945389986038208 0.07857149839401245
0.22620199620723724 0.9453290104866028 0.07840900123119354
0.2262199968099594 0.9453439712524414 0.07848270237445831
0.2268819957971573 0.9200999736785889 0.08120489865541458
0.2272450029850006 0.716168999671936 0.09510979801416397
0.22809599339962006 0.36064499616622925 0.08837410062551498
0.22960799932479858 0.9213770031929016 0.08224520087242126
0.23004400730133057 0.7361479997634888 0.09647010266780853
0.2320459932088852 0.9236500263214111 0.08408329635858536
0.2340870052576065 0.9269490242004395 0.086695596575737
0.23755000531673431 0.9539579749107361 0.10781200230121613
0.23764200508594513 0.7849720120429993 0.09788390249013901
0.23879699409008026 0.48179298639297485 0.09940440207719803
0.24054299294948578 0.2842409908771515 0.36238399147987366
0.24057400226593018 0.3571540117263794 0.09501180052757263
0.24104799330234528 0.8494679927825928 0.09402579814195633
0.24229000508785248 0.4206329882144928 0.10056199878454208
0.2433129996061325 0.28248900175094604 0.2404879927635193
0.2515369951725006 0.350629985332489 0.10766399651765823
0.25476300716400146 0.8543999791145325 0.10830999910831451
0.2555310130119324 0.9030119776725769 0.2369450032711029
0.26010000705718994 0.41433000564575195 0.37729600071907043
0.2633030116558075 0.896390974521637 0.35869500041007996
0.2639639973640442 0.6713529825210571 0.2551780045032501
0.2671929895877838 0.32883501052856445 0.15046000480651855
0.26884499192237854 0.6262609958648682 0.11357700079679489
0.26961299777030945 0.8689370155334473 0.14788900315761566
0.26969999074935913 0.3033739924430847 0.20043300092220306
0.27157101035118103 0.4059079885482788 0.12902800738811493
0.27250099182128906 0.8869820237159729 0.1956779956817627
0.27454298734664917 0.7989400029182434 0.1298069953918457
0.27541598677635193 0.723056972026825 0.13006199896335602
0.27542901039123535 0.6813309788703918 0.13026000559329987
0.2760069966316223 0.4737969934940338 0.13260799646377563
0.2766680121421814 0.70415198802948 0.13336299359798431
0.2769559919834137 0.7445080280303955 0.13394099473953247
0.27822500467300415 0.7684929966926575 0.35061201453208923
0.28356099128723145 0.7988970279693604 0.3690600097179413
0.2836340069770813 0.6615170240402222 0.22373299300670624
0.2838500142097473 0.6364380121231079 0.14550599455833435
0.2864069938659668 0.2990950047969818 0.15267199277877808
0.2864069938659668 0.2990950047969818 0.2864069938659668
0.2869960069656372 0.027499599382281303 0.15208299458026886
0.2869960069656372 0.027499599382281303 0.2869960069656372
0.28710898756980896 0.7409819960594177 0.3641220033168793
0.2875550091266632 0.7055220007896423 0.3418860137462616
0.28894200921058655 0.6491940021514893 0.18522599339485168
0.2950479984283447 0.37671899795532227 0.18537700176239014
0.2962679862976074 0.6863240003585815 0.17764100432395935
0.29683199524879456 0.7335669994354248 0.17959900200366974
0.29685598611831665 0.8226829767227173 0.1824209988117218
0.2976120114326477 0.3086110055446625 0.3163979947566986
0.2989319860935211 0.7123649716377258 0.18483400344848633
0.2998430132865906 0.7571970224380493 0.18736200034618378
0.3000270128250122 0.46015000343322754 0.189519003033638
0.3028070032596588 0.8782749772071838 0.3086720108985901
0.3054620027542114 0.7591279745101929 0.30090099573135376
0.30577200651168823 0.3407990038394928 0.2545959949493408
0.30581098794937134 0.4274339973926544 0.3251039981842041
0.3071579933166504 0.699550986289978 0.2945530116558075
0.30786800384521484 0.8519030213356018 0.24759699404239655
0.30801400542259216 0.6928460001945496 0.23663799464702606
0.30817899107933044 0.7467139959335327 0.24126499891281128
0.3106740117073059 0.7328789830207825 0.31181600689888
0.3112489879131317 0.7878490090370178 0.31717801094055176
0.3117179870605469 0.7227630019187927 0.2490060031414032
0.31182700395584106 0.44323500990867615 0.259907990694046
0.3128350079059601 0.7730039954185486 0.2536090016365051
0.31410500407218933 0.2990950047969818 0.21953999996185303
0.3149369955062866 0.027499599382281303 0.21953999996185303
0.31762999296188354 0.2541069984436035 0.12144999951124191
0.31762999296188354 0.2541069984436035 0.31762999296188354
0.33000099658966064 0.3040960133075714 0.10907900333404541
0.33000099658966064 0.3040960133075714 0.33000099658966064
0.33824899792671204 0.05999160185456276 0.10083100199699402
0.33824899792671204 0.05999160185456276 0.33824899792671204
0.3500309884548187 0.02833230048418045 0.08904880285263062
0.3500309884548187 0.02833230048418045 0.3500309884548187
0.3571000099182129 0.11830899864435196 0.08197899907827377
0.3571000099182129 0.11830899864435196 0.3571000099182129
0.358258992433548 0.2541069984436035 0.21953999996185303
0.3757539987564087 0.3040960133075714 0.21953999996185303
0.3874189853668213 0.05999160185456276 0.21953999996185303
0.4040820002555847 0.02833230048418045 0.21953999996185303
0.4140790104866028 0.11830899864435196 0.21953999996185303
3 0 6 4
3 0 4 13
3 0 13 5
3 0 5 2
3 0 2 10
3 0 10 6
3 1 8 2
3 1 2 9
3 1 9 7
3 1 7 15
3 1 15 43
3 1 43 8
3 2 5 9
3 2 8 10
3 3 4 14
3 3 14 12
3 3 12 16
3 3 16 44
3 3 44 11
3 3 11 4
3 4 11 13
3 4 6 14
3 5 13 89
3 5 89 85
3 5 85 9
3 6 100 14
3 6 10 98
3 6 98 100
3 7 9 87
3 7 87 86
3 7 86 42
3 7 42 15
3 8 99 10
3 8 43 95
3 8 95 99
3 9 85 87
3 10 99 98
3 11 44 91
3 11 91 88
3 11 88 13
3 12 14 96
3 12 96 97
3 12 97 45
3 12 45 16
3 13 88 89
3 14 100 96
3 15 42 92
3 15 92 43
3 16 45 93
3 16 93 44
3 17 57 47
3 17 47 30
3 17 30 29
3 17 29 27
3 17 27 25
3 17 25 57
3 18 26 33
3 18 33 23
3 18 23 28
3 18 28 19
3 18 19 22
3 18 22 26
3 19 38 36
3 19 36 22
3 19 28 48
3 19 48 38
3 20 21 24
3 20 24 26
3 20 26 22
3 20 22 36
3 20 36 35
3 20 35 31
3 20 31 21
3 21 54 62
3 21 62 32
3 21 32 24
3 21 31 54
3 23 33 34
3 23 34 40
3 23 40 47
3 23 47 28
3 24 32 39
3 24 39 37
3 24 37 26
3 25 83 57
3 25 27 49
3 25 49 61
3 25 61 83
3 26 37 33
3 27 29 60
3 27 60 56
3 27 56 49
3 28 47 57
3 28 57 48
3 29 30 41
3 29 41 67
3 29 67 60
3 30 40 46
3 30 46 50
3 30 50 41
3 30 47 40
3 31 55 54
3 31 35 75
3 31 75 65
3 31 65 55
3 32 62 68
3 32 68 51
3 32 51 39
3 33 37 53
3 33 53 52
3 33 52 34
3 34 52 46
3 34 46 40
3 35 36 74
3 35 74 75
3 36 38 81
3 36 81 74
3 37 39 59
3 37 59 53
3 38 48 108
3 38 108 81
3 39 51 64
3 39 64 59
3 41 50 63
3 41 63 72
3 41 72 67
3 42 86 90
3 42 90 92
3 43 92 95
3 44 93 91
3 45 94 93
3 45 97 94
3 46 52 58
3 46 58 50
3 48 57 83
3 48 83 108
3 49 142 150
3 49 150 61
3 49 56 66
3 49 66 142
3 50 58 70
3 50 70 77
3 50 77 63
3 51 68 76
3 51 76 69
3 51 69 64
3 52 53 102
3 52 102 82
3 52 82 58
3 53 59 133
3 53 133 102
3 54 80 84
3 54 84 62
3 54 55 80
3 55 78 80
3 55 65 71
3 55 71 78
3 56 60 117
3 56 117 120
3 56 120 122
3 56 122 66
3 58 82 104
3 58 104 70
3 59 64 136
3 59 136 133
3 60 67 117
3 61 150 83
3 62 84 101
3 62 101 68
3 63 77 79
3 63 79 72
3 64 69 140
3 64 140 136
3 65 75 151
3 65 151 71
3 66 121 146
3 66 146 142
3 67 72 115
3 67 115 117
3 68 107 132
3 68 132 76
3 68 101 107
3 69 76 123
3 69 123 144
3 69 144 140
3 70 104 141
3 70 141 77
3 71 73 78
3 71 151 184
3 71 184 149
3 71 149 73
3 72 79 114
3 72 114 115
3 73 109 113
3 73 113 78
3 73 149 103
3 73 103 109
3 74 165 166
3 74 166 75
3 74 81 165
3 75 166 151
3 76 132 135
3 76 135 123
3 77 141 145
3 77 145 134
3 77 134 79
3 78 113 118
3 78 118 80
3 79 134 111
3 79 111 112
3 79 112 114
3 80 118 124
3 80 124 84
3 81 173 165
3 81 108 173
3 82 102 161
3 82 161 154
3 82 154 104
3 83 152 174
3 83 174 108
3 83 150 152
3 84 124 125
3 84 125 126
3 84 126 101
3 85 89 199
3 85 199 207
3 85 207 87
3 86 87 203
3 86 203 205
3 86 205 90
3 87 207 203
3 88 91 169
3 88 169 201
3 88 201 89
3 89 201 199
3 90 205 171
3 90 171 92
3 91 93 169
3 92 198 172
3 92 172 95
3 92 171 198
3 93 170 197
3 93 197 169
3 93 94 170
3 94 97 202
3 94 202 170
3 95 172 99
3 96 200 97
3 96 100 208
3 96 208 200
3 97 200 202
3 98 204 100
3 98 99 206
3 98 206 204
3 99 172 206
3 100 204 208
3 101 126 127
3 101 127 107
3 102 133 160
3 102 160 163
3 102 163 161
3 103 105 109
3 103 149 158
3 103 158 155
3 103 155 139
3 103 139 105
3 104 154 141
3 105 129 126
3 105 126 109
3 105 139 138
3 105 138 129
3 106 147 153
3 106 153 116
3 106 116 110
3 106 110 143
3 106 143 147
3 107 127 132
3 108 174 173
3 109 126 113
3 110 134 143
3 110 116 111
3 110 111 134
3 111 116 122
3 111 122 120
3 111 120 117
3 111 117 115
3 111 115 114
3 111 114 112
3 113 126 118
3 116 153 156
3 116 156 119
3 116 119 122
3 118 126 124
3 119 156 146
3 119 146 121
3 119 121 122
3 123 135 144
3 124 126 125
3 126 128 127
3 126 129 131
3 126 131 130
3 126 130 128
3 127 128 132
3 128 130 135
3 128 135 132
3 129 138 137
3 129 137 131
3 130 131 135
3 131 137 135
3 133 136 160
3 134 145 143
3 135 137 144
3 136 140 164
3 136 164 160
3 137 138 144
3 138 139 148
3 138 148 144
3 139 155 148
3 140 144 148
3 140 148 159
3 140 159 164
3 141 154 162
3 141 162 145
3 142 187 150
3 142 146 180
3 142 180 187
3 143 145 147
3 145 162 157
3 145 157 147
3 146 186 180
3 146 156 186
3 147 157 153
3 148 155 159
3 149 184 189
3 149 189 158
3 150 187 152
3 151 166 193
3 151 193 184
3 152 167 188
3 152 188 174
3 152 187 167
3 153 157 176
3 153 176 156
3 154 161 168
3 154 168 162
3 155 158 179
3 155 179 159
3 156 176 186
3 157 162 176
3 158 189 179
3 159 179 164
3 160 164 178
3 160 178 163
3 161 163 177
3 161 177 168
3 162 168 183
3 162 183 176
3 163 178 181
3 163 181 177
3 164 179 182
3 164 182 178
3 165 185 193
3 165 193 166
3 165 173 192
3 165 192 185
3 167 175 190
3 167 190 188
3 167 187 195
3 167 195 175
3 168 177 175
3 168 175 183
3 169 197 201
3 170 202 210
3 170 210 197
3 171 212 198
3 171 205 212
3 172 198 206
3 173 174 192
3 174 188 192
3 175 177 190
3 175 195 183
3 176 183 186
3 177 181 190
3 178 182 191
3 178 191 181
3 179 189 182
3 180 186 195
3 180 195 187
3 181 191 194
3 181 194 190
3 182 189 196
3 182 196 191
3 183 195 186
3 184 193 196
3 184 196 189
3 185 191 196
3 185 196 193
3 185 192 194
3 185 194 191
3 188 194 192
3 188 190 194
3 197 210 201
3 198 212 206
3 199 201 210
3 199 210 209
3 199 209 207
3 200 209 202
3 200 208 213
3 200 213 209
3 202 209 210
3 203 207 213
3 203 213 211
3 203 211 205
3 204 211 208
3 204 206 212
3 204 212 211
3 205 211 212
3 207 209 213
3 208 211 213
