ply
format ascii 1.0
element vertex 310
property float x
property float y
property float z
element face 616
property list uchar int vertex_indices
end_header
0.20236200094223022 0.2876169979572296 0.15677399933338165
0.1963459998369217 0.295960009098053 0.16444900631904602
0.1596059948205948 0.3200080096721649 0.14915700256824493
0.1963459998369217 0.3594689965248108 0.16444900631904602
0.17695100605487823 0.33727800846099854 0.16482600569725037
0.1596059948205948 0.33542099595069885 0.14915700256824493
0.17695100605487823 0.31815099716186523 0.16482600569725037
0.17373600602149963 0.29726698994636536 0.14898699522018433
0.17373600602149963 0.358161985874176 0.14898699522018433
0.19636400043964386 0.37178999185562134 0.14919300377368927
0.20236200094223022 0.36781200766563416 0.15677399933338165
0.19636400043964386 0.2836399972438812 0.14919300377368927
0.7181000113487244 0.31997400522232056 0.176813006401062
0.9037719964981079 0.3269380033016205 0.3811669945716858
0.9472190141677856 0.3236140012741089 0.3811669945716858
0.891946017742157 0.3277150094509125 0.22000500559806824
0.7181000113487244 0.3354550004005432 0.176813006401062
0.719573974609375 0.3303529918193817 0.19490599632263184
0.9472190141677856 0.3318150043487549 0.3811669945716858
0.719573974609375 0.32507699728012085 0.19490599632263184
0.9037719964981079 0.3284919857978821 0.3811669945716858
0.9750000238418579 0.3277150094509125 0.3811669945716858
0.8427519798278809 0.31925201416015625 0.1895270049571991
0.8427519798278809 0.3361780047416687 0.1895270049571991
0.8428859710693359 0.2928659915924072 0.19741499423980713
0.9159460067749023 0.2565940022468567 0.04082139953970909
0.8428859710693359 0.36256399750709534 0.19741499423980713
0.8428859710693359 0.4020029902458191 0.19385899603366852
0.8428859710693359 0.4200420081615448 0.14097200334072113
0.8428859710693359 0.41195398569107056 0.030928699299693108
0.853941023349762 0.24299399554729462 0.04411869868636131
0.9159460067749023 0.3988350033760071 0.04082139953970909
0.8428859710693359 0.23008599877357483 0.1608850061893463
0.8428859710693359 0.27120599150657654 0.20284700393676758
0.8428859710693359 0.2534259855747223 0.19385899603366852
0.8428859710693359 0.38422301411628723 0.20284700393676758
0.8448230028152466 0.3076449930667877 0.10984200239181519
0.8448230028152466 0.27501800656318665 0.10984300076961517
0.8526679873466492 0.2750149965286255 0.05387990176677704
0.842769980430603 0.31140100955963135 0.18186800181865692
0.84272301197052 0.36034101247787476 0.15361499786376953
0.842674970626831 0.3440299928188324 0.1253580003976822
0.842674970626831 0.3114039897918701 0.12535600364208221
0.8487460017204285 0.2587040066719055 0.08186250180006027
0.853941023349762 0.41243499517440796 0.04411869868636131
0.8526690006256104 0.347788006067276 0.05387730151414871
0.8526690006256104 0.30764201283454895 0.05387730151414871
0.8448230028152466 0.3804109990596771 0.10984300076961517
0.8448230028152466 0.34778499603271484 0.10984200239181519
0.8487460017204285 0.32395699620246887 0.08186069875955582
0.8487460017204285 0.3314720094203949 0.08186069875955582
0.8428859710693359 0.24948400259017944 0.1235790029168129
0.8428859710693359 0.4059450030326843 0.1235790029168129
0.8428859710693359 0.23538699746131897 0.14097200334072113
0.8427219986915588 0.295087993144989 0.15361300110816956
0.842769980430603 0.34402701258659363 0.1818690001964569
0.8428859710693359 0.42534399032592773 0.1608850061893463
0.8526679873466492 0.3804140090942383 0.05387990176677704
0.8487460017204285 0.39672499895095825 0.08186250180006027
0.8428859710693359 0.243476003408432 0.030928699299693108
0.7181000113487244 0.2986760139465332 0.1724800020456314
0.7181000113487244 0.28861498832702637 0.16879700124263763
0.7181000113487244 0.2716909945011139 0.15963099896907806
0.7181000113487244 0.2657110095024109 0.15443000197410583
0.7181000113487244 0.25959399342536926 0.12294500321149826
0.7124770283699036 0.25788700580596924 0.05545260012149811
0.5977510213851929 0.25913500785827637 0.1255670040845871
0.5977510213851929 0.2595599889755249 0.13896599411964417
0.5977510213851929 0.2657710015773773 0.15185099840164185
0.5977510213851929 0.2711319923400879 0.1567389965057373
0.5977510213851929 0.2875309884548187 0.16764900088310242
0.5977510213851929 0.2974979877471924 0.17201800644397736
0.21901799738407135 0.2605009973049164 0.1259319931268692
0.21900199353694916 0.26808199286460876 0.14033600687980652
0.21897800266742706 0.285522997379303 0.16110900044441223
0.1963369995355606 0.26225000619888306 0.11850100010633469
0.19638000428676605 0.2714489996433258 0.13484899699687958
0.19637499749660492 0.27584201097488403 0.13929399847984314
0.17375899851322174 0.2750749886035919 0.12836599349975586
0.17377999424934387 0.2670449912548065 0.11043799668550491
0.09935159981250763 0.28400900959968567 0.08436170220375061
0.09935159981250763 0.28827598690986633 0.10173399746417999
0.09935159981250763 0.3121980130672455 0.11947499960660934
0.02500000037252903 0.3277150094509125 0.07230380177497864
0.7181000113487244 0.35675299167633057 0.1724800020456314
0.7181000113487244 0.366813987493515 0.16879700124263763
0.7181000113487244 0.38373899459838867 0.15963099896907806
0.7181000113487244 0.3897179961204529 0.15443000197410583
0.7181000113487244 0.3958359956741333 0.14147700369358063
0.7181000113487244 0.3958359956741333 0.12294500321149826
0.7124770283699036 0.39754199981689453 0.05545260012149811
0.5977799892425537 0.39754199981689453 0.07124260067939758
0.5977510213851929 0.3962950110435486 0.1255670040845871
0.5977510213851929 0.3958689868450165 0.13896599411964417
0.5977510213851929 0.38965898752212524 0.15185099840164185
0.5977510213851929 0.3842970132827759 0.1567389965057373
0.5977510213851929 0.36789900064468384 0.16764900088310242
0.5977510213851929 0.357930988073349 0.17201800644397736
0.21901799738407135 0.3949280083179474 0.1259319931268692
0.21900199353694916 0.3873479962348938 0.14033600687980652
0.21897800266742706 0.3699060082435608 0.16110900044441223
0.21896900236606598 0.3609899878501892 0.16961699724197388
0.21896199882030487 0.33810800313949585 0.17668700218200684
0.1963369995355606 0.3931789994239807 0.11850100010633469
0.19638000428676605 0.38398000597953796 0.13484899699687958
0.19637499749660492 0.37958699464797974 0.13929399847984314
0.19633400440216064 0.3381060063838959 0.17579400539398193
0.17375899851322174 0.38035398721694946 0.12836599349975586
0.17377999424934387 0.38838401436805725 0.11043799668550491
0.09935159981250763 0.3714199960231781 0.08436170220375061
0.09935490041971207 0.37258198857307434 0.06399360299110413
0.09935159981250763 0.36715298891067505 0.10173399746417999
0.09935159981250763 0.3615280091762543 0.10923399776220322
0.09935159981250763 0.3432309925556183 0.11947499960660934
0.19633400440216064 0.3173240125179291 0.17579400539398193
0.21896199882030487 0.3173219859600067 0.17668700218200684
0.5977510213851929 0.31929799914360046 0.17678900063037872
0.5977510213851929 0.3361310064792633 0.17678900063037872
0.09935490041971207 0.28284698724746704 0.06399360299110413
0.1963369995355606 0.2630600035190582 0.05135739967226982
0.062175799161195755 0.3080559968948364 0.09529290348291397
0.062175799161195755 0.3367359936237335 0.1014380007982254
0.062175799161195755 0.34737300872802734 0.09529290348291397
0.06217709928750992 0.3537989854812622 0.06814870238304138
0.062175799161195755 0.3531239926815033 0.08036959916353226
0.062175799161195755 0.35064300894737244 0.09079310297966003
0.062175799161195755 0.33142900466918945 0.1023619994521141
0.062175799161195755 0.30478599667549133 0.09079310297966003
0.062175799161195755 0.3023050129413605 0.08036959916353226
0.06217709928750992 0.3016299903392792 0.06814870238304138
0.062175799161195755 0.31869399547576904 0.1014380007982254
0.062175799161195755 0.3240000009536743 0.1023619994521141
0.7181000113487244 0.25959399342536926 0.14147700369358063
0.17375299334526062 0.3753789961338043 0.13333499431610107
0.17375299334526062 0.28005000948905945 0.13333499431610107
0.09935159981250763 0.32132500410079956 0.1210160031914711
0.09935159981250763 0.3341040015220642 0.1210160031914711
0.09935159981250763 0.2939009964466095 0.10923399776220322
0.1963369995355606 0.39236998558044434 0.05135739967226982
0.5977799892425537 0.25788700580596924 0.07124260067939758
0.21896900236606598 0.2944389879703522 0.16961699724197388
0.21899700164794922 0.3833419978618622 0.14452199637889862
0.21899700164794922 0.2720870077610016 0.14452199637889862
0.7613570094108582 0.04749950021505356 0.055690500885248184
0.8040930032730103 0.02500000037252903 0.05077800154685974
0.7160329818725586 0.04749950021505356 0.05993429943919182
0.7252140045166016 0.03353489935398102 0.05278240144252777
0.6941800117492676 0.04749950021505356 0.05110130086541176
0.5739219784736633 0.16737000644207 0.044482700526714325
0.7613570094108582 0.6079300045967102 0.055690500885248184
0.8040930032730103 0.6304290294647217 0.05077800154685974
0.7160329818725586 0.6079300045967102 0.05993429943919182
0.7252140045166016 0.6218940019607544 0.05278240144252777
0.6941800117492676 0.6079300045967102 0.05110130086541176
0.5305389761924744 0.4563780128955841 0.04364420101046562
0.5305389761924744 0.19905099272727966 0.04364420101046562
0.5739219784736633 0.48805901408195496 0.044482700526714325
0.7655580043792725 0.6304290294647217 0.05168189853429794
0.7655580043792725 0.02500000037252903 0.05168189853429794
0.5977799892425537 0.25788700580596924 0.02694150060415268
0.5977799892425537 0.39754199981689453 0.02694150060415268
0.7124770283699036 0.25788700580596924 0.02500000037252903
0.7124770283699036 0.39754199981689453 0.02500000037252903
0.9234129786491394 0.31415000557899475 0.09232810139656067
0.9047719836235046 0.3120099902153015 0.0897148996591568
0.88714200258255 0.30398499965667725 0.08724330365657806
0.9206699728965759 0.30274099111557007 0.1118990033864975
0.9022859930992126 0.30167099833488464 0.10745000094175339
0.8856199979782104 0.2976579964160919 0.09809630364179611
0.9206699728965759 0.2799220085144043 0.1118990033864975
0.9022859930992126 0.2809920012950897 0.10745000094175339
0.8856199979782104 0.28500398993492126 0.09809660166501999
0.8773699998855591 0.2913309931755066 0.08587349951267242
0.9234129786491394 0.26851099729537964 0.09232930094003677
0.9047719836235046 0.27065199613571167 0.08971600234508514
0.88714200258255 0.27867600321769714 0.08724399656057358
0.9261569976806641 0.2799200117588043 0.07275799661874771
0.9072589874267578 0.28099000453948975 0.07198049873113632
0.8886629939079285 0.28500300645828247 0.07639069855213165
0.9261569976806641 0.3027389943599701 0.07275629788637161
0.9072589874267578 0.30166900157928467 0.07197889685630798
0.8886629939079285 0.2976570129394531 0.07638970017433167
0.9206699728965759 0.3526880145072937 0.1118990033864975
0.9234129786491394 0.341279000043869 0.09232810139656067
0.9022859930992126 0.3537589907646179 0.10745000094175339
0.9047719836235046 0.34341999888420105 0.0897148996591568
0.8856199979782104 0.35777100920677185 0.09809630364179611
0.88714200258255 0.3514440059661865 0.08724330365657806
0.9206699728965759 0.37550801038742065 0.1118990033864975
0.9022859930992126 0.37443700432777405 0.10745000094175339
0.8856199979782104 0.3704249858856201 0.09809660166501999
0.9234129786491394 0.38691800832748413 0.09232930094003677
0.9047719836235046 0.3847779929637909 0.08971600234508514
0.88714200258255 0.3767530024051666 0.08724399656057358
0.8773699998855591 0.36409899592399597 0.08587349951267242
0.9261569976806641 0.37551000714302063 0.07275799661874771
0.9072589874267578 0.374439001083374 0.07198049873113632
0.8886629939079285 0.3704270124435425 0.07639069855213165
0.9261569976806641 0.35269099473953247 0.07275629788637161
0.9072589874267578 0.3537609875202179 0.07197889685630798
0.8886629939079285 0.35777199268341064 0.07638970017433167
0.9181200265884399 0.3048950135707855 0.1534859985113144
0.9181529879570007 0.316305011510849 0.17324799299240112
0.8992959856987 0.30703601241111755 0.15351800620555878
0.8993260264396667 0.3173750042915344 0.17142599821090698
0.8814929723739624 0.31505998969078064 0.153548002243042
0.8815119862556458 0.32138699293136597 0.16450700163841248
0.8716260194778442 0.3277150094509125 0.15356400609016418
0.9181529879570007 0.33912399411201477 0.1732490062713623
0.8993260264396667 0.33805400133132935 0.17142699658870697
0.8815119862556458 0.3340420126914978 0.16450700163841248
0.9181200265884399 0.35053399205207825 0.15348799526691437
0.8992959856987 0.3483940064907074 0.15351900458335876
0.8814929723739624 0.34036898612976074 0.153548002243042
0.9180859923362732 0.33912599086761475 0.13372500240802765
0.8992660045623779 0.3380550146102905 0.13560999929904938
0.8814749717712402 0.3340429961681366 0.1425890028476715
0.9180859923362732 0.316307008266449 0.13372300565242767
0.8992660045623779 0.3173770010471344 0.1356080025434494
0.8814749717712402 0.32138800621032715 0.14258800446987152
0.8606699705123901 0.3025130033493042 0.08353230357170105
0.8773970007896423 0.3111940026283264 0.08587729930877686
0.8983860015869141 0.31659600138664246 0.08881969749927521
0.9234700202941895 0.31947600841522217 0.09233599901199341
0.8593260049819946 0.2969219982624054 0.09312249720096588
0.8750090003013611 0.3012630045413971 0.10291299968957901
0.8953490257263184 0.3039639890193939 0.11048799753189087
0.9200860261917114 0.30540400743484497 0.11647500097751617
0.8593260049819946 0.2857399880886078 0.093122698366642
0.8750090003013611 0.28139999508857727 0.10291299968957901
0.8953490257263184 0.27869901061058044 0.11048900336027145
0.9200860261917114 0.2772589921951294 0.11647500097751617
0.8606699705123901 0.28014901280403137 0.0835328996181488
0.8773970007896423 0.27146801352500916 0.08587829768657684
0.8983860015869141 0.26606500148773193 0.08882100135087967
0.9234690070152283 0.2631849944591522 0.09233749657869339
0.8620139956474304 0.285739004611969 0.07394249737262726
0.8797850012779236 0.2813979983329773 0.06884259730577469
0.901423990726471 0.27869701385498047 0.06715209782123566
0.9268540143966675 0.2772560119628906 0.0681983008980751
0.8620139956474304 0.2969210147857666 0.07394160330295563
0.8797850012779236 0.3012610077857971 0.06884100288152695
0.901423990726471 0.30396100878715515 0.06715010106563568
0.9268540143966675 0.3054009974002838 0.06819610297679901
0.8593260049819946 0.3585070073604584 0.09312249720096588
0.8606699705123901 0.35291600227355957 0.08353230357170105
0.8750090003013611 0.35416701436042786 0.10291299968957901
0.8773970007896423 0.34423500299453735 0.08587729930877686
0.8953490257263184 0.35146600008010864 0.11048799753189087
0.8983860015869141 0.3388330042362213 0.08881969749927521
0.9200860261917114 0.3500249981880188 0.11647500097751617
0.9234700202941895 0.3359529972076416 0.09233599901199341
0.8593260049819946 0.3696889877319336 0.093122698366642
0.8750090003013611 0.3740290105342865 0.10291299968957901
0.8953490257263184 0.3767299950122833 0.11048900336027145
0.9200860261917114 0.3781700134277344 0.11647500097751617
0.8606699705123901 0.3752810060977936 0.0835328996181488
0.8773970007896423 0.3839620053768158 0.08587829768657684
0.8983860015869141 0.38936400413513184 0.08882100135087967
0.9234690070152283 0.39224401116371155 0.09233749657869339
0.8620139956474304 0.3696900010108948 0.07394249737262726
0.8797850012779236 0.3740310072898865 0.06884259730577469
0.901423990726471 0.3767330050468445 0.06715209782123566
0.9268540143966675 0.37817299365997314 0.0681983008980751
0.8620139956474304 0.35850799083709717 0.07394160330295563
0.8797850012779236 0.35416901111602783 0.06884100288152695
0.901423990726471 0.3514679968357086 0.06715010106563568
0.9268540143966675 0.35002800822257996 0.06819610297679901
0.8547629714012146 0.31653299927711487 0.1535930037498474
0.8547790050506592 0.3221229910850525 0.16327600181102753
0.8716539740562439 0.30785098671913147 0.15356400609016418
0.8716830015182495 0.317782998085022 0.17076599597930908
0.8928490281105042 0.30244898796081543 0.15352900326251984
0.8928850293159485 0.31508201360702515 0.1754090040922165
0.9181770086288452 0.2995690107345581 0.1534859985113144
0.9182170033454895 0.3136410117149353 0.17786100506782532
0.8547790050506592 0.3333050012588501 0.16327700018882751
0.8716830015182495 0.3376460075378418 0.17076699435710907
0.8928850293159485 0.3403469920158386 0.1754090040922165
0.9182170033454895 0.3417870104312897 0.1778620034456253
0.8547629714012146 0.3388969898223877 0.1535930037498474
0.8716539740562439 0.3475779891014099 0.15356500446796417
0.8928490281105042 0.35297998785972595 0.15353000164031982
0.9181770086288452 0.35585999488830566 0.15348799526691437
0.8547469973564148 0.3333060145378113 0.1439090073108673
0.8716250061988831 0.3376469910144806 0.13636299967765808
0.8928120136260986 0.3403489887714386 0.13164900243282318
0.9181360006332397 0.34178900718688965 0.12911200523376465
0.8547469973564148 0.32212400436401367 0.14390799403190613
0.8716250061988831 0.31778499484062195 0.1363610029220581
0.8928120136260986 0.3150840103626251 0.1316470056772232
0.9181360006332397 0.3136439919471741 0.12910999357700348
0.8594939708709717 0.31192201375961304 0.0833674967288971
0.8570190072059631 0.3016270101070404 0.10102800279855728
0.8570190072059631 0.28103598952293396 0.10102800279855728
0.8594939708709717 0.27073898911476135 0.08336859941482544
0.8619700074195862 0.281033992767334 0.06570810079574585
0.8619700074195862 0.30162501335144043 0.06570649892091751
0.8570190072059631 0.35380199551582336 0.10102800279855728
0.8594939708709717 0.34350699186325073 0.0833674967288971
0.8570190072059631 0.3743939995765686 0.10102800279855728
0.8594939708709717 0.38468998670578003 0.08336859941482544
0.8619700074195862 0.3743959963321686 0.06570810079574585
0.8619700074195862 0.35380399227142334 0.06570649892091751
0.8535760045051575 0.30712300539016724 0.1535950005054474
0.8536059856414795 0.31741899251937866 0.17142699658870697
0.8536059856414795 0.3380100131034851 0.17142799496650696
0.8535760045051575 0.34830600023269653 0.15359599888324738
0.8535460233688354 0.3380120098590851 0.13576200604438782
0.8535460233688354 0.31742000579833984 0.13576099276542664
3 6 7 1
3 11 0 1
3 2 6 4
3 7 6 2
3 5 4 8
3 3 10 9
3 8 3 9
3 11 1 7
3 8 4 3
3 4 5 2
3 16 17 23
3 12 19 17
3 18 14 21
3 13 19 22
3 17 20 18
3 13 14 18
3 19 13 20
3 23 18 21
3 22 19 12
3 14 22 15
3 17 16 12
3 22 14 13
3 18 23 17
3 18 20 13
3 20 17 19
3 21 15 23
3 15 21 14
3 24 33 34
3 44 29 52
3 40 56 55
3 53 42 54
3 52 48 47
3 22 23 15
3 37 36 51
3 53 54 32
3 55 56 23
3 40 28 56
3 53 51 42
3 52 47 58
3 30 38 43
3 43 37 51
3 32 54 39
3 57 44 58
3 59 25 30
3 25 31 44
3 22 24 34
3 27 35 26
3 51 59 30
3 22 34 32
3 41 28 40
3 52 41 42
3 52 58 44
3 44 45 46
3 51 36 48
3 32 39 22
3 45 44 57
3 41 52 28
3 50 49 46
3 30 43 51
3 30 46 38
3 49 50 48
3 39 55 23
3 23 56 27
3 44 31 29
3 23 27 26
3 44 30 25
3 42 51 52
3 46 30 44
3 48 52 51
3 46 45 50
3 48 36 49
3 23 22 39
3 100 96 95
3 9 10 141
3 7 82 137
3 133 8 9
3 60 24 22
3 122 83 121
3 112 122 121
3 9 141 105
3 93 88 89
3 83 127 120
3 119 72 75
3 65 64 66
3 63 34 62
3 67 68 73
3 11 134 77
3 86 85 35
3 100 101 96
3 111 108 109
3 114 115 102
3 111 107 108
3 96 101 97
3 90 89 52
3 81 78 134
3 69 74 142
3 34 63 32
3 132 32 63
3 72 66 67
3 77 134 78
3 84 35 85
3 104 99 98
3 113 136 8
3 125 83 122
3 118 80 128
3 81 137 120
3 123 83 124
3 110 109 138
3 141 100 95
3 87 27 56
3 79 78 81
3 1 114 6
3 70 140 74
3 61 62 34
3 139 66 72
3 76 78 79
3 88 56 28
3 93 92 98
3 108 103 138
3 116 12 16
3 112 8 133
3 99 104 105
3 88 93 94
3 23 84 16
3 1 140 114
3 60 71 70
3 12 60 22
3 62 70 69
3 0 74 140
3 26 35 84
3 97 84 85
3 101 106 102
3 135 2 5
3 126 83 131
3 132 64 51
3 136 5 8
3 109 108 138
3 10 100 141
3 142 74 0
3 140 115 114
3 112 113 8
3 11 7 134
3 80 81 127
3 124 83 125
3 107 111 112
3 102 117 97
3 52 89 28
3 134 7 137
3 73 68 69
3 64 65 59
3 53 132 51
3 69 70 74
3 119 80 118
3 88 87 56
3 94 99 141
3 133 105 104
3 136 126 131
3 113 121 126
3 103 98 138
3 89 90 91
3 83 128 127
3 116 115 140
3 33 60 61
3 70 62 61
3 70 71 140
3 79 81 80
3 83 129 128
3 95 86 87
3 106 101 3
3 109 124 125
3 121 83 126
3 82 135 131
3 82 130 120
3 6 114 106
3 105 133 9
3 92 91 138
3 83 130 131
3 76 73 142
3 67 132 63
3 60 33 24
3 62 69 68
3 77 142 11
3 23 26 84
3 96 85 86
3 100 10 3
3 110 123 124
3 111 125 122
3 4 106 3
3 117 16 84
3 7 135 82
3 73 76 75
3 132 67 66
3 32 132 53
3 12 116 71
3 119 75 79
3 87 86 27
3 94 93 98
3 107 104 103
3 115 116 117
3 120 130 83
3 89 88 28
3 7 2 135
3 119 79 80
3 142 0 11
3 121 113 112
3 89 92 93
3 66 139 65
3 73 72 67
3 35 27 86
3 102 106 114
3 52 29 90
3 134 137 81
3 78 76 77
3 98 103 104
3 128 129 118
3 120 127 81
3 34 33 61
3 72 119 139
3 79 75 76
3 16 117 116
3 105 141 99
3 94 87 88
3 70 61 60
3 140 1 0
3 85 96 97
3 5 136 135
3 127 128 80
3 112 133 107
3 97 101 102
3 69 142 73
3 59 51 64
3 141 95 94
3 104 107 133
3 131 135 136
3 126 136 113
3 91 92 89
3 140 71 116
3 87 94 95
3 125 111 109
3 131 130 82
3 120 137 82
3 106 4 6
3 138 98 92
3 142 77 76
3 63 68 67
3 68 63 62
3 86 95 96
3 3 101 100
3 124 109 110
3 122 112 111
3 84 97 117
3 75 72 73
3 66 64 132
3 71 60 12
3 98 99 94
3 103 108 107
3 117 102 115
3 149 90 29
3 143 65 139
3 158 143 145
3 154 91 156
3 156 91 151
3 151 149 157
3 148 139 155
3 155 139 119
3 153 151 152
3 147 145 139
3 90 149 151
3 65 143 144
3 144 143 158
3 152 151 157
3 156 151 153
3 157 149 150
3 158 145 146
3 147 139 148
3 146 145 147
3 138 91 154
3 29 150 149
3 139 145 143
3 151 91 90
3 144 59 65
3 148 159 161
3 162 160 156
3 162 153 152
3 152 157 162
3 162 156 153
3 157 29 162
3 129 123 110
3 147 148 161
3 118 110 138
3 161 59 158
3 129 83 123
3 59 144 158
3 162 29 59
3 161 158 146
3 29 31 25
3 160 154 156
3 162 161 159
3 146 147 161
3 155 154 160
3 148 155 159
3 154 155 119
3 157 150 29
3 110 118 129
3 138 119 118
3 59 161 162
3 25 59 29
3 159 160 162
3 160 159 155
3 119 138 154
3 216 215 212
3 204 202 201
3 194 200 197
3 190 189 184
3 179 180 177
3 171 175 172
3 168 171 172
3 176 177 174
3 186 184 185
3 194 197 193
3 185 183 198
3 213 212 209
3 219 218 215
3 207 205 219
3 209 208 202
3 194 187 200
3 193 192 189
3 163 164 180
3 175 178 172
3 167 168 165
3 170 171 168
3 178 181 172
3 184 182 183
3 197 196 192
3 207 206 205
3 212 211 208
3 205 203 218
3 207 219 216
3 210 209 204
3 199 198 195
3 194 193 190
3 164 165 181
3 173 174 170
3 165 168 172
3 169 170 167
3 180 181 178
3 194 190 186
3 196 195 191
3 206 204 203
3 207 216 213
3 203 201 217
3 215 214 211
3 207 210 206
3 200 199 196
3 189 188 182
3 181 165 172
3 174 175 171
3 166 167 164
3 177 178 175
3 194 186 187
3 192 191 188
3 187 185 199
3 207 213 210
3 218 217 214
3 212 213 216
3 201 203 204
3 184 186 190
3 177 176 179
3 174 173 176
3 185 187 186
3 198 199 185
3 209 210 213
3 215 216 219
3 202 204 209
3 189 190 193
3 180 179 163
3 165 164 167
3 168 167 170
3 183 185 184
3 192 193 197
3 208 209 212
3 218 219 205
3 204 206 210
3 195 196 199
3 181 180 164
3 170 169 173
3 167 166 169
3 178 177 180
3 191 192 196
3 203 205 206
3 217 218 203
3 211 212 215
3 196 197 200
3 182 184 189
3 171 170 174
3 164 163 166
3 175 174 177
3 188 189 192
3 199 200 187
3 214 215 218
3 289 288 284
3 283 282 278
3 249 247 265
3 257 256 252
3 250 248 249
3 237 238 234
3 224 225 221
3 233 234 230
3 222 223 243
3 253 252 244
3 266 265 261
3 279 278 273
3 285 284 280
3 270 268 288
3 287 286 282
3 273 271 270
3 261 260 256
3 255 254 248
3 241 242 238
3 228 229 225
3 226 227 223
3 232 233 229
3 221 222 242
3 259 258 254
3 265 264 260
3 278 277 271
3 291 290 286
3 272 270 289
3 281 280 276
3 275 273 272
3 262 261 257
3 246 244 245
3 242 243 239
3 229 230 226
3 225 226 222
3 238 239 235
3 220 221 241
3 258 257 253
3 251 249 266
3 277 276 269
3 290 289 285
3 274 272 290
3 282 281 277
3 247 245 264
3 263 262 258
3 248 246 247
3 236 237 233
3 230 231 227
3 234 235 231
3 240 241 237
3 254 253 246
3 267 266 262
3 271 269 268
3 286 285 281
3 284 285 289
3 278 279 283
3 265 266 249
3 252 253 257
3 249 251 250
3 234 233 237
3 221 220 224
3 230 229 233
3 243 242 222
3 244 246 253
3 261 262 266
3 273 275 279
3 280 281 285
3 288 289 270
3 282 283 287
3 270 272 273
3 256 257 261
3 248 250 255
3 238 237 241
3 225 224 228
3 223 222 226
3 229 228 232
3 242 241 221
3 254 255 259
3 260 261 265
3 271 273 278
3 286 287 291
3 289 290 272
3 276 277 281
3 272 274 275
3 257 258 262
3 245 247 246
3 239 238 242
3 226 225 229
3 222 221 225
3 235 234 238
3 241 240 220
3 253 254 258
3 266 267 251
3 269 271 277
3 285 286 290
3 290 291 274
3 277 278 282
3 264 265 247
3 258 259 263
3 247 249 248
3 233 232 236
3 227 226 230
3 231 230 234
3 237 236 240
3 246 248 254
3 262 263 267
3 268 270 271
3 281 282 286
3 307 40 55
3 303 45 57
3 298 48 50
3 43 295 294
3 293 224 220
3 297 240 236
3 256 301 300
3 269 305 304
3 288 309 308
3 308 41 40
3 299 50 45
3 300 47 48
3 38 296 295
3 36 293 292
3 46 297 296
3 301 58 47
3 305 39 54
3 309 42 41
3 284 308 307
3 245 299 303
3 252 300 298
3 296 236 232
3 295 232 228
3 244 298 299
3 264 303 302
3 280 307 306
3 304 54 42
3 306 55 39
3 302 57 58
3 49 292 297
3 37 294 293
3 294 228 224
3 292 220 240
3 260 302 301
3 276 306 305
3 268 304 309
3 55 306 307
3 57 302 303
3 50 299 298
3 294 37 43
3 220 292 293
3 236 296 297
3 300 252 256
3 304 268 269
3 308 284 288
3 40 307 308
3 45 303 299
3 48 298 300
3 295 43 38
3 292 49 36
3 296 38 46
3 47 300 301
3 54 304 305
3 41 308 309
3 307 280 284
3 303 264 245
3 298 244 252
3 232 295 296
3 228 294 295
3 299 245 244
3 302 260 264
3 306 276 280
3 42 309 304
3 39 305 306
3 58 301 302
3 297 46 49
3 293 36 37
3 224 293 294
3 240 297 292
3 301 256 260
3 305 269 276
3 309 288 268
3 201 274 291
3 195 263 259
3 231 169 166
3 243 179 176
3 202 275 274
3 211 283 279
3 182 250 251
3 239 176 173
3 183 251 267
3 214 287 283
3 188 255 250
3 235 173 169
3 198 267 263
3 217 291 287
3 191 259 255
3 227 166 163
3 223 163 179
3 208 279 275
3 291 217 201
3 259 191 195
3 166 227 231
3 176 239 243
3 274 201 202
3 279 208 211
3 251 183 182
3 173 235 239
3 267 198 183
3 283 211 214
3 250 182 188
3 169 231 235
3 263 195 198
3 287 214 217
3 255 188 191
3 163 223 227
3 179 243 223
3 275 202 208
