ply
format ascii 1.0
element vertex 357
property float x
property float y
property float z
element face 613
property list uchar int vertex_indices
end_header
0.3459709882736206 0.19747599959373474 0.8550969958305359
0.3413589894771576 0.1882530003786087 0.8541749715805054
0.3349030017852783 0.1799519956111908 0.8532530069351196
0.3256799876689911 0.17533999681472778 0.8523300290107727
0.31645599007606506 0.17533999681472778 0.8523300290107727
0.3496600091457367 0.20577700436115265 0.8550969958305359
0.3072330057621002 0.17718499898910522 0.8514080047607422
0.2906309962272644 0.18456299602985382 0.8514080047607422
0.27218499779701233 0.19470900297164917 0.8504859805107117
0.2620390057563782 0.20300999283790588 0.8504859805107117
0.25742700695991516 0.2113109976053238 0.8504859805107117
0.25650501251220703 0.22053399682044983 0.8504859805107117
0.2583500146865845 0.22975699603557587 0.8514080047607422
0.27218499779701233 0.2537379860877991 0.8532530069351196
0.3542720079421997 0.20485499501228333 0.7766990065574646
0.3505829870700836 0.19747599959373474 0.7766990065574646
0.3459709882736206 0.1919420063495636 0.7757769823074341
0.3376699984073639 0.18917499482631683 0.7757769823074341
0.3293690085411072 0.19009700417518616 0.7748540043830872
0.35611701011657715 0.2113109976053238 0.7776219844818115
0.32014599442481995 0.19286400079727173 0.7748540043830872
0.30446600914001465 0.2002429962158203 0.7739319801330566
0.2860200107097626 0.2113109976053238 0.7730100154876709
0.27587398886680603 0.21868999302387238 0.7730100154876709
0.2703399956226349 0.22606800496578217 0.7730100154876709
0.26849499344825745 0.23344700038433075 0.7730100154876709
0.26941800117492676 0.24082599580287933 0.7739319801330566
0.2786409854888916 0.2592720091342926 0.7748550176620483
0.3570390045642853 0.2076220065355301 0.7536410093307495
0.35519400238990784 0.20208799839019775 0.7536410093307495
0.3505829870700836 0.19839799404144287 0.7536410093307495
0.34320399165153503 0.1965540051460266 0.752718985080719
0.33582499623298645 0.19839799404144287 0.752718985080719
0.3588840067386627 0.21315599977970123 0.7545629739761353
0.3266020119190216 0.20208799839019775 0.7517960071563721
0.3109219968318939 0.20946599543094635 0.7517960071563721
0.29339799284935 0.22053399682044983 0.7508739829063416
0.2823300063610077 0.2279130071401596 0.7508739829063416
0.27679601311683655 0.23436899483203888 0.7508739829063416
0.2740289866924286 0.24082599580287933 0.7508739829063416
0.2740289866924286 0.24636000394821167 0.7508739829063416
0.28140801191329956 0.26111701130867004 0.7517960071563721
0.35980600118637085 0.2113109976053238 0.7370390295982361
0.35980600118637085 0.20854400098323822 0.7370390295982361
0.3570390045642853 0.20669899880886078 0.7370390295982361
0.35150501132011414 0.2076220065355301 0.7361170053482056
0.34412598609924316 0.21038900315761566 0.7361170053482056
0.35980600118637085 0.21407799422740936 0.7370390295982361
0.33582499623298645 0.2150000035762787 0.7361170053482056
0.32014599442481995 0.2233009934425354 0.7351940274238586
0.3026210069656372 0.23436899483203888 0.7351940274238586
0.29155299067497253 0.24174800515174866 0.7342720031738281
0.28509700298309326 0.2472819983959198 0.7342720031738281
0.28140801191329956 0.2518939971923828 0.7342720031738281
0.28048598766326904 0.2555829882621765 0.7342720031738281
0.283253014087677 0.2620390057563782 0.7351940274238586
0.3625729978084564 0.21407799422740936 0.728738009929657
0.3625729978084564 0.21315599977970123 0.728738009929657
0.3616510033607483 0.21315599977970123 0.728738009929657
0.3570390045642853 0.2159229964017868 0.728738009929657
0.3505829870700836 0.2196120023727417 0.7278159856796265
0.360727995634079 0.2150000035762787 0.728738009929657
0.3422819972038269 0.22514599561691284 0.7278159856796265
0.32752400636672974 0.23436899483203888 0.7278159856796265
0.3100000023841858 0.24543699622154236 0.7268930077552795
0.2989319860935211 0.2518939971923828 0.7268930077552795
0.29155299067497253 0.25650501251220703 0.725970983505249
0.2869420051574707 0.2592720091342926 0.725970983505249
0.28417500853538513 0.26111701130867004 0.725970983505249
0.283253014087677 0.2629620134830475 0.725970983505249
0.36349499225616455 0.2233009934425354 0.8532530069351196
0.36349499225616455 0.23252500593662262 0.725970983505249
0.36349499225616455 0.2076220065355301 0.7351940274238586
0.36349499225616455 0.03883500024676323 0.9076700210571289
0.36349499225616455 0.03330099955201149 0.9703879952430725
0.36349499225616455 0.1873299926519394 0.8993690013885498
0.3736410140991211 0.02500000037252903 0.9750000238418579
0.3736410140991211 0.03053409978747368 0.9030579924583435
0.3736410140991211 0.2039320021867752 0.725970983505249
0.3736410140991211 0.23344700038433075 0.7167479991912842
0.38378700613975525 0.2233009934425354 0.8532530069351196
0.38378700613975525 0.23252500593662262 0.725970983505249
0.38378700613975525 0.2076220065355301 0.7351940274238586
0.38378700613975525 0.03883500024676323 0.9076700210571289
0.38378700613975525 0.03330099955201149 0.9703879952430725
0.38378700613975525 0.1873299926519394 0.8993690013885498
0.34412598609924316 0.2039330005645752 0.2389809936285019
0.3625729978084564 0.20208799839019775 0.2389809936285019
0.3625729978084564 0.2002439945936203 0.22053399682044983
0.34412598609924316 0.20208799839019775 0.22145600616931915
0.34043699502944946 0.2076220065355301 0.20854400098323822
0.33213600516319275 0.20577700436115265 0.2583490014076233
0.3856309950351715 0.2002439945936203 0.22053399682044983
0.3856309950351715 0.20208799839019775 0.2389809936285019
0.40407800674438477 0.2039330005645752 0.2389809936285019
0.40407800674438477 0.20208799839019775 0.22145600616931915
0.4160679876804352 0.20854400098323822 0.2583490014076233
0.41422298550605774 0.2076220065355301 0.20854400098323822
0.37640801072120667 0.2076220065355301 0.18917499482631683
0.37640801072120667 0.19932100176811218 0.2583490014076233
0.4160679876804352 0.21038900315761566 0.2583490014076233
0.45849499106407166 0.26111701130867004 0.2583500146865845
0.28878700733184814 0.26111701130867004 0.2583500146865845
0.33213600516319275 0.20669999718666077 0.2583490014076233
0.432669997215271 0.3727189898490906 0.13106800615787506
0.44742700457572937 0.3727189898490906 0.19470900297164917
0.45849499106407166 0.3727189898490906 0.2583500146865845
0.28878700733184814 0.3727189898490906 0.2583500146865845
0.3210679888725281 0.3727189898490906 0.13014599680900574
0.30446600914001465 0.3727189898490906 0.19470900297164917
0.28878700733184814 0.3810200095176697 0.2583500146865845
0.30446600914001465 0.3810200095176697 0.19470900297164917
0.3210679888725281 0.374563992023468 0.12922300398349762
0.338591992855072 0.36072900891304016 0.06927189975976944
0.4133009910583496 0.36072900891304016 0.06742720305919647
0.432669997215271 0.374563992023468 0.13014599680900574
0.44742700457572937 0.3810200095176697 0.19470900297164917
0.45849499106407166 0.3810200095176697 0.2583500146865845
0.37548598647117615 0.3053889870643616 0.0425243005156517
0.33213600516319275 0.2482050061225891 0.1836410015821457
0.4123789966106415 0.2482050061225891 0.18271799385547638
0.37640801072120667 0.2389809936285019 0.1633490025997162
0.3736410140991211 0.28878700733184814 0.06834950298070908
0.3773300051689148 0.2583500146865845 0.13014599680900574
0.30446600914001465 0.27402999997138977 0.19470900297164917
0.3183009922504425 0.24082599580287933 0.20577700436115265
0.3053880035877228 0.22606900334358215 0.2583490014076233
0.44742700457572937 0.27402999997138977 0.19470900297164917
0.43174800276756287 0.2399040013551712 0.20669899880886078
0.44281598925590515 0.2279130071401596 0.2583500146865845
0.35611701011657715 0.3505840003490448 0.04067960008978844
0.36810699105262756 0.33582600951194763 0.026844700798392296
0.35611701011657715 0.3100009858608246 0.03791259974241257
0.36810699105262756 0.32106900215148926 0.02500000037252903
0.3847090005874634 0.33582600951194763 0.025922300294041634
0.3847090005874634 0.3192239999771118 0.025922300294041634
0.39577698707580566 0.3100009858608246 0.03791259974241257
0.39577698707580566 0.3413600027561188 0.031456299126148224
0.3219900131225586 0.27771899104118347 0.13014599680900574
0.34320399165153503 0.30169999599456787 0.06742720305919647
0.3210679888725281 0.3035449981689453 0.13014599680900574
0.338591992855072 0.31645700335502625 0.06742720305919647
0.4123789966106415 0.30169999599456787 0.06834950298070908
0.4335919916629791 0.2786419987678528 0.12737900018692017
0.4169900119304657 0.3155350089073181 0.06834950298070908
0.432669997215271 0.3035449981689453 0.13014599680900574
0.40407800674438477 0.1965540051460266 0.8550969958305359
0.4086889922618866 0.1873299926519394 0.8541749715805054
0.41514599323272705 0.1799519956111908 0.8541749715805054
0.4243690073490143 0.17533999681472778 0.8532530069351196
0.4335919916629791 0.17533999681472778 0.8523300290107727
0.4022330045700073 0.20854400098323822 0.8560199737548828
0.44281598925590515 0.17810699343681335 0.8523300290107727
0.45941799879074097 0.18548600375652313 0.8514080047607422
0.4769420027732849 0.1965540051460266 0.8514080047607422
0.48708799481391907 0.2039320021867752 0.8514080047607422
0.4916990101337433 0.21315599977970123 0.8514080047607422
0.4926219880580902 0.22237899899482727 0.8514080047607422
0.48985499143600464 0.2316019982099533 0.8523300290107727
0.4760200083255768 0.2546600103378296 0.8541749715805054
0.3966990113258362 0.20485499501228333 0.7776219844818115
0.39946600794792175 0.19747599959373474 0.7766990065574646
0.4050000011920929 0.1919420063495636 0.7766990065574646
0.4133009910583496 0.18917499482631683 0.7757769823074341
0.4216020107269287 0.19009700417518616 0.7757769823074341
0.3930099904537201 0.22053399682044983 0.7766990065574646
0.4299030005931854 0.19286400079727173 0.7748540043830872
0.44650501012802124 0.20116500556468964 0.7748540043830872
0.4640290141105652 0.21223300695419312 0.7739319801330566
0.47417500615119934 0.22053399682044983 0.7739319801330566
0.47878700494766235 0.2279130071401596 0.7739319801330566
0.4806309938430786 0.2352920025587082 0.7739319801330566
0.4797089993953705 0.2426699995994568 0.7748550176620483
0.46956300735473633 0.26111701130867004 0.7757769823074341
0.39208701252937317 0.20577700436115265 0.7545629739761353
0.39577698707580566 0.20208799839019775 0.7536410093307495
0.39946600794792175 0.19747599959373474 0.7536410093307495
0.40684500336647034 0.1965540051460266 0.752718985080719
0.41514599323272705 0.19839799404144287 0.752718985080719
0.39208701252937317 0.21684500575065613 0.755486011505127
0.42344701290130615 0.20208799839019775 0.752718985080719
0.43912601470947266 0.21038900315761566 0.7517960071563721
0.4566510021686554 0.22145700454711914 0.7517960071563721
0.46679601073265076 0.22975799441337585 0.7517960071563721
0.4723300039768219 0.23621399700641632 0.7517960071563721
0.47509700059890747 0.2426699995994568 0.7517960071563721
0.47509700059890747 0.24912700057029724 0.7517960071563721
0.4677189886569977 0.2620390057563782 0.752718985080719
0.39116498827934265 0.2159229964017868 0.7361170053482056
0.3902429938316345 0.21223300695419312 0.7370390295982361
0.3930099904537201 0.20669899880886078 0.7361170053482056
0.39946600794792175 0.2076220065355301 0.7370390295982361
0.40407800674438477 0.21407799422740936 0.7370390295982361
0.3902429938316345 0.22145700454711914 0.7398059964179993
0.4133009910583496 0.21868999302387238 0.7361170053482056
0.4299030005931854 0.2242240011692047 0.7361170053482056
0.44650501012802124 0.2352920025587082 0.7351940274238586
0.4575729966163635 0.2426699995994568 0.7351940274238586
0.4640290141105652 0.24912700057029724 0.7351940274238586
0.4677189886569977 0.2537379860877991 0.7351940274238586
0.4686410129070282 0.25742799043655396 0.7351940274238586
0.4649519920349121 0.2657279968261719 0.7361170053482056
0.39116498827934265 0.2159229964017868 0.7296599745750427
0.3883979916572571 0.21223300695419312 0.728738009929657
0.3883979916572571 0.21315599977970123 0.728738009929657
0.38747599720954895 0.23436899483203888 0.728738009929657
0.39208701252937317 0.23436899483203888 0.728738009929657
0.3893199861049652 0.21868999302387238 0.728738009929657
0.405921995639801 0.23713600635528564 0.728738009929657
0.41883501410484314 0.23990300297737122 0.7278159856796265
0.43820399045944214 0.2509709894657135 0.7278159856796265
0.4483500123023987 0.2546609938144684 0.7278159856796265
0.4566510021686554 0.2583500146865845 0.7268930077552795
0.4603399932384491 0.2629620134830475 0.7268930077552795
0.46587398648262024 0.2675729990005493 0.7268930077552795
0.4649519920349121 0.26480600237846375 0.7268930077552795
0.45941799879074097 0.3496609926223755 0.2592720091342926
0.2906309962272644 0.35242798924446106 0.2592720091342926
0.050825200974941254 0.33674800395965576 0.7536410093307495
0.026844700798392296 0.3450489938259125 0.7536410093307495
0.7047579884529114 0.3349030017852783 0.7536410093307495
0.7315049767494202 0.33951500058174133 0.7536410093307495
0.02500000037252903 0.3450489938259125 0.8089810013771057
0.054514601826667786 0.33674800395965576 0.8145149946212769
0.7075240015983582 0.3349030017852783 0.822816014289856
0.7315049767494202 0.33951500058174133 0.8237379789352417
0.47048598527908325 0.3736410140991211 0.4013110101222992
0.5 0.37179699540138245 0.5451939702033997
0.5212140083312988 0.3690299987792969 0.5830100178718567
0.5544180274009705 0.3662630021572113 0.6171360015869141
0.643884003162384 0.3570390045642853 0.68538898229599
0.676164984703064 0.3542720079421997 0.7195150256156921
0.7047579884529114 0.3505829870700836 0.7536410093307495
0.7075240015983582 0.3505829870700836 0.822816014289856
0.054514601826667786 0.3533500134944916 0.8145149946212769
0.050825200974941254 0.3533500134944916 0.7536410093307495
0.06834950298070908 0.35611701011657715 0.7121359705924988
0.1126210018992424 0.34781599044799805 0.6780099868774414
0.1873299926519394 0.365339994430542 0.6171360015869141
0.22422300279140472 0.37087398767471313 0.5830100178718567
0.2472819983959198 0.37179699540138245 0.5479609966278076
0.28048598766326904 0.3782530128955841 0.4022330045700073
0.26941800117492676 0.34873801469802856 0.8514080047607422
0.26941800117492676 0.34873801469802856 0.8523300290107727
0.4833979904651642 0.34873801469802856 0.8532530069351196
0.46587398648262024 0.3727189898490906 0.8569419980049133
0.28140801191329956 0.3727189898490906 0.8569419980049133
0.49077698588371277 0.34873899817466736 0.405921995639801
0.4640290141105652 0.31645700335502625 0.40315499901771545
0.283253014087677 0.3266029953956604 0.4022330045700073
0.2666510045528412 0.34873899817466736 0.4003889858722687
0.676164984703064 0.33305901288986206 0.7195150256156921
0.6429610252380371 0.3339810073375702 0.68538898229599
0.5627189874649048 0.3312140107154846 0.6171360015869141
0.525825023651123 0.3293690085411072 0.5830100178718567
0.5036889910697937 0.3266020119190216 0.5451939702033997
0.2472819983959198 0.3293690085411072 0.5479609966278076
0.2233009934425354 0.3312140107154846 0.5830100178718567
0.1873299926519394 0.33213600516319275 0.6171360015869141
0.10616499930620193 0.33674800395965576 0.6780099868774414
0.06650490313768387 0.33674800395965576 0.7121359705924988
0.27587398886680603 0.3266020119190216 0.5488839745521545
0.03606799989938736 0.3450489938259125 0.7102919816970825
0.08033979684114456 0.3450489938259125 0.6697090268135071
0.15689300000667572 0.34873801469802856 0.6171360015869141
0.2352910041809082 0.34873801469802856 0.52674800157547
0.19286400079727173 0.34873801469802856 0.5830100178718567
0.5156800150871277 0.34873801469802856 0.5230579972267151
0.552573025226593 0.34873801469802856 0.5830100178718567
0.594078004360199 0.34781599044799805 0.6180580258369446
0.6724759936332703 0.3468939960002899 0.6780099868774414
0.7047579884529114 0.34320399165153503 0.7102919816970825
0.46956300735473633 0.32383498549461365 0.5451939702033997
0.29339799284935 0.37179601192474365 0.9122819900512695
0.4575729966163635 0.3727189898490906 0.9122819900512695
0.5876219868659973 0.33951500058174133 0.7637869715690613
0.579321026802063 0.3588840067386627 0.7591750025749207
0.4880099892616272 0.35519498586654663 0.743494987487793
0.4880099892616272 0.3542720079421997 0.743494987487793
0.3782530128955841 0.19932100176811218 0.2583490014076233
0.4133009910583496 0.20485499501228333 0.2583490014076233
0.45849499106407166 0.2795639932155609 0.2583500146865845
0.4492720067501068 0.22514599561691284 0.2583490014076233
0.2897090017795563 0.2795639932155609 0.2583500146865845
0.33674800395965576 0.2039330005645752 0.2583490014076233
0.29708701372146606 0.22145700454711914 0.2583490014076233
0.2897090017795563 0.37917599081993103 0.2583500146865845
0.45849499106407166 0.37917599081993103 0.2583500146865845
0.45849499106407166 0.3256799876689911 0.2583500146865845
0.2897090017795563 0.3256799876689911 0.2583500146865845
0.3745630085468292 0.37917599081993103 0.2583500146865845
0.3745630085468292 0.19932100176811218 0.2583490014076233
0.3782530128955841 0.19932100176811218 0.3727180063724518
0.4133009910583496 0.20485499501228333 0.3727180063724518
0.45849499106407166 0.2795639932155609 0.3727189898490906
0.4492720067501068 0.22606900334358215 0.3727180063724518
0.2897090017795563 0.2795639932155609 0.3727189898490906
0.33674800395965576 0.2039330005645752 0.3727180063724518
0.29708701372146606 0.22145700454711914 0.3727180063724518
0.2897090017795563 0.37917500734329224 0.3727189898490906
0.45849499106407166 0.37917500734329224 0.3727189898490906
0.45849499106407166 0.3256799876689911 0.3727189898490906
0.2897090017795563 0.3256799876689911 0.3727189898490906
0.3745630085468292 0.37917500734329224 0.3727189898490906
0.3745630085468292 0.19932100176811218 0.3727180063724518
0.3782530128955841 0.19932100176811218 0.4935440123081207
0.4133009910583496 0.20485499501228333 0.4935440123081207
0.45849499106407166 0.2795639932155609 0.4935440123081207
0.4492720067501068 0.22606900334358215 0.4935440123081207
0.2897090017795563 0.2795639932155609 0.4935440123081207
0.33674800395965576 0.2039330005645752 0.4935440123081207
0.29708701372146606 0.22145700454711914 0.4935440123081207
0.2897090017795563 0.37917500734329224 0.4935440123081207
0.45849499106407166 0.37917500734329224 0.4935440123081207
0.45849499106407166 0.3256799876689911 0.4935440123081207
0.2897090017795563 0.3256799876689911 0.4935440123081207
0.3745630085468292 0.37917500734329224 0.4935440123081207
0.3745630085468292 0.19932100176811218 0.4935440123081207
0.3782530128955841 0.19932100176811218 0.6152909994125366
0.4133009910583496 0.20485499501228333 0.6152909994125366
0.45849499106407166 0.2795639932155609 0.6152909994125366
0.4492720067501068 0.22606800496578217 0.6152909994125366
0.2897090017795563 0.2795639932155609 0.6152909994125366
0.33674800395965576 0.2039320021867752 0.6152909994125366
0.29708701372146606 0.22145700454711914 0.6152909994125366
0.2897090017795563 0.37917500734329224 0.6152920126914978
0.45849499106407166 0.37917500734329224 0.6152920126914978
0.45849499106407166 0.3256799876689911 0.6152909994125366
0.2897090017795563 0.3256799876689911 0.6152909994125366
0.3745630085468292 0.37917500734329224 0.6152920126914978
0.3745630085468292 0.19932100176811218 0.6152909994125366
0.3782530128955841 0.19932100176811218 0.7001460194587708
0.4133009910583496 0.20485499501228333 0.7001460194587708
0.45849499106407166 0.2795630097389221 0.7001460194587708
0.4492720067501068 0.22606800496578217 0.7001460194587708
0.2897090017795563 0.2795630097389221 0.7001460194587708
0.33674800395965576 0.2039320021867752 0.7001460194587708
0.29708701372146606 0.22145700454711914 0.7001460194587708
0.2897090017795563 0.37917500734329224 0.7001460194587708
0.45849499106407166 0.37917500734329224 0.7001460194587708
0.45849499106407166 0.3256799876689911 0.7001460194587708
0.2897090017795563 0.3256799876689911 0.7001460194587708
0.3745630085468292 0.37917500734329224 0.7001460194587708
0.3745630085468292 0.19932100176811218 0.7001460194587708
0.3773300051689148 0.19932100176811218 0.8274270296096802
0.3939320147037506 0.19932100176811218 0.8274270296096802
0.4723300039768219 0.2897090017795563 0.8366510272026062
0.4677189886569977 0.2546600103378296 0.8311169743537903
0.2823300063610077 0.2906309962272644 0.8366510272026062
0.3579609990119934 0.19839799404144287 0.8274270296096802
0.283253014087677 0.25742700695991516 0.8311169743537903
0.26941800117492676 0.38009700179100037 0.8504859805107117
0.48616498708724976 0.37917500734329224 0.8504859805107117
0.4806309938430786 0.3330579996109009 0.8431069850921631
0.28140801191329956 0.3219909965991974 0.8431069850921631
0.3745630085468292 0.37917500734329224 0.8504859805107117
0.3736410140991211 0.19932100176811218 0.8274270296096802
3 0 14 1
3 15 1 14
3 1 15 2
3 16 2 15
3 2 16 3
3 17 3 16
3 3 17 4
3 18 4 17
3 5 19 0
3 14 0 19
3 6 20 7
3 21 7 20
3 7 21 8
3 22 8 21
3 8 22 9
3 23 9 22
3 9 23 10
3 24 10 23
3 10 24 11
3 25 11 24
3 11 25 12
3 26 12 25
3 4 18 6
3 20 6 18
3 13 19 5
3 19 13 27
3 12 27 13
3 27 12 26
3 14 28 15
3 29 15 28
3 15 29 16
3 30 16 29
3 16 30 17
3 31 17 30
3 17 31 18
3 32 18 31
3 19 33 14
3 28 14 33
3 20 34 21
3 35 21 34
3 21 35 22
3 36 22 35
3 22 36 23
3 37 23 36
3 23 37 24
3 38 24 37
3 24 38 25
3 39 25 38
3 25 39 26
3 40 26 39
3 18 32 20
3 34 20 32
3 27 33 19
3 33 27 41
3 26 41 27
3 41 26 40
3 28 42 29
3 43 29 42
3 29 43 30
3 44 30 43
3 30 44 31
3 45 31 44
3 31 45 32
3 46 32 45
3 33 47 28
3 42 28 47
3 34 48 35
3 49 35 48
3 35 49 36
3 50 36 49
3 36 50 37
3 51 37 50
3 37 51 38
3 52 38 51
3 38 52 39
3 53 39 52
3 39 53 40
3 54 40 53
3 32 46 34
3 48 34 46
3 41 47 33
3 47 41 55
3 40 55 41
3 55 40 54
3 42 56 43
3 57 43 56
3 43 57 44
3 58 44 57
3 44 58 45
3 59 45 58
3 45 59 46
3 60 46 59
3 47 61 42
3 56 42 61
3 48 62 49
3 63 49 62
3 49 63 50
3 64 50 63
3 50 64 51
3 65 51 64
3 51 65 52
3 66 52 65
3 52 66 53
3 67 53 66
3 53 67 54
3 68 54 67
3 46 60 48
3 62 48 60
3 55 61 47
3 61 55 69
3 54 69 55
3 69 54 68
3 72 71 75
3 72 78 79
3 78 72 77
3 77 73 74
3 76 75 84
3 85 74 84
3 77 76 84
3 83 82 77
3 82 79 81
3 85 83 80
3 71 80 81
3 81 70 71
3 75 71 70
3 73 72 74
3 74 72 75
3 71 72 79
3 77 72 73
3 77 74 76
3 74 75 76
3 84 75 85
3 75 74 85
3 84 74 76
3 83 77 84
3 78 77 82
3 82 79 78
3 84 83 85
3 81 80 82
3 82 80 83
3 80 71 70
3 80 70 81
3 90 91 99
3 86 88 89
3 97 98 99
3 92 94 95
3 123 119 121
3 123 121 120
3 114 136 142
3 139 132 113
3 139 122 132
3 136 122 142
3 137 114 130
3 138 108 109
3 127 105 143
3 143 120 127
3 125 119 124
3 120 97 128
3 119 125 90
3 121 90 98
3 121 98 97
3 142 123 143
3 138 123 139
3 109 107 124
3 127 101 106
3 124 102 125
3 90 125 126
3 97 100 129
3 129 101 128
3 130 134 137
3 131 130 133
3 135 134 133
3 135 133 132
3 135 136 137
3 140 139 141
3 113 108 140
3 145 144 142
3 145 104 144
3 112 108 113
3 114 104 115
3 111 109 112
3 111 110 107
3 116 105 106
3 115 105 116
3 98 90 99
3 88 86 87
3 96 97 99
3 94 92 93
3 138 119 123
3 123 120 143
3 136 114 137
3 130 113 132
3 132 122 118
3 118 122 136
3 130 114 113
3 138 109 124
3 143 105 104
3 127 120 128
3 124 119 138
3 90 121 119
3 120 121 97
3 122 123 142
3 139 123 122
3 124 107 102
3 127 106 105
3 125 102 126
3 90 126 103
3 128 97 129
3 128 101 127
3 134 130 131
3 133 130 132
3 131 133 134
3 135 132 136
3 134 135 137
3 138 139 140
3 141 113 140
3 145 142 143
3 144 104 114
3 115 113 114
3 112 110 111
3 115 112 113
3 115 110 112
3 112 109 108
3 111 107 109
3 116 106 117
3 104 105 115
3 147 160 146
3 160 147 161
3 148 161 147
3 161 148 162
3 149 162 148
3 162 149 163
3 150 163 149
3 163 150 164
3 146 165 151
3 165 146 160
3 153 166 152
3 166 153 167
3 154 167 153
3 167 154 168
3 155 168 154
3 168 155 169
3 156 169 155
3 169 156 170
3 157 170 156
3 170 157 171
3 158 171 157
3 171 158 172
3 152 164 150
3 164 152 166
3 151 165 159
3 173 159 165
3 159 173 158
3 172 158 173
3 161 174 160
3 174 161 175
3 162 175 161
3 175 162 176
3 163 176 162
3 176 163 177
3 164 177 163
3 177 164 178
3 160 179 165
3 179 160 174
3 167 180 166
3 180 167 181
3 168 181 167
3 181 168 182
3 169 182 168
3 182 169 183
3 170 183 169
3 183 170 184
3 171 184 170
3 184 171 185
3 172 185 171
3 185 172 186
3 166 178 164
3 178 166 180
3 165 179 173
3 187 173 179
3 173 187 172
3 186 172 187
3 175 188 174
3 188 175 189
3 176 189 175
3 189 176 190
3 177 190 176
3 190 177 191
3 178 191 177
3 191 178 192
3 174 193 179
3 193 174 188
3 181 194 180
3 194 181 195
3 182 195 181
3 195 182 196
3 183 196 182
3 196 183 197
3 184 197 183
3 197 184 198
3 185 198 184
3 198 185 199
3 186 199 185
3 199 186 200
3 180 192 178
3 192 180 194
3 179 193 187
3 201 187 193
3 187 201 186
3 200 186 201
3 189 202 188
3 202 189 203
3 190 203 189
3 203 190 204
3 191 204 190
3 204 191 205
3 192 205 191
3 205 192 206
3 188 207 193
3 207 188 202
3 195 208 194
3 208 195 209
3 196 209 195
3 209 196 210
3 197 210 196
3 210 197 211
3 198 211 197
3 211 198 212
3 199 212 198
3 212 199 213
3 200 213 199
3 213 200 214
3 194 206 192
3 206 194 208
3 193 207 201
3 215 201 207
3 201 215 200
3 214 200 215
3 216 226 247
3 248 216 247
3 247 226 216
3 247 216 248
3 250 249 217
3 250 217 241
3 254 275 244
3 254 220 275
3 244 275 254
3 275 220 254
3 260 243 257
3 272 255 248
3 248 255 272
3 232 221 271
3 270 231 271
3 270 230 269
3 251 220 271
3 252 251 270
3 269 252 253
3 269 229 268
3 267 227 247
3 255 248 247
3 254 253 268
3 268 228 267
3 255 254 267
3 248 255 272
3 272 255 248
3 271 221 232
3 271 231 270
3 269 230 270
3 271 220 251
3 270 251 252
3 253 252 269
3 268 229 269
3 247 227 267
3 247 248 255
3 268 253 254
3 267 228 268
3 267 254 255
3 266 257 265
3 240 239 265
3 264 258 266
3 265 256 250
3 241 240 250
3 239 238 266
3 263 259 264
3 262 260 263
3 219 218 262
3 238 237 264
3 237 236 263
3 236 235 262
3 256 249 261
3 261 249 256
3 235 239 242
3 244 277 276
3 277 228 276
3 228 231 276
3 233 225 224
3 224 225 233
3 233 225 224
3 224 225 233
3 223 234 243
3 223 222 234
3 232 225 233
3 220 224 225
3 233 225 232
3 225 224 220
3 218 219 222
3 235 234 222
3 255 244 248
3 252 251 253
3 224 275 244
3 224 220 275
3 254 244 255
3 251 220 253
3 253 220 254
3 248 244 255
3 253 251 252
3 244 275 224
3 275 220 224
3 255 244 254
3 253 220 251
3 254 220 253
3 243 218 223
3 260 258 259
3 256 243 249
3 218 243 260
3 257 243 256
3 260 257 258
3 231 232 271
3 230 231 270
3 269 230 229
3 271 220 221
3 271 251 270
3 269 252 270
3 268 229 228
3 226 227 247
3 267 247 255
3 269 253 268
3 267 228 227
3 268 254 267
3 271 232 231
3 270 231 230
3 229 230 269
3 221 220 271
3 270 251 271
3 270 252 269
3 228 229 268
3 247 227 226
3 255 247 267
3 268 253 269
3 227 228 267
3 267 254 268
3 265 257 256
3 265 239 266
3 266 258 257
3 249 250 256
3 250 240 265
3 266 238 264
3 264 259 258
3 263 260 259
3 262 218 260
3 264 237 263
3 263 236 262
3 262 235 219
3 242 240 241
3 238 236 237
3 234 235 242
3 242 239 240
3 238 235 236
3 239 235 238
3 244 232 233
3 231 229 230
3 226 278 244
3 226 227 278
3 244 276 232
3 276 231 232
3 244 278 277
3 278 227 277
3 227 228 277
3 231 228 229
3 233 224 244
3 244 224 233
3 233 224 244
3 244 224 233
3 222 223 234
3 234 223 243
3 232 225 221
3 225 220 221
3 221 225 232
3 221 220 225
3 223 218 222
3 235 222 219
3 246 274 245
3 246 273 274
3 293 295 282
3 280 293 282
3 282 295 294
3 282 294 281
3 296 298 285
3 283 296 285
3 285 298 297
3 285 297 284
3 301 300 287
3 288 301 287
3 294 301 288
3 281 294 288
3 286 299 302
3 286 302 289
3 289 302 296
3 289 296 283
3 284 297 304
3 284 304 291
3 292 293 280
3 279 292 280
3 287 300 303
3 287 303 290
3 290 303 299
3 290 299 286
3 306 308 295
3 293 306 295
3 295 308 307
3 295 307 294
3 309 311 298
3 296 309 298
3 298 311 310
3 298 310 297
3 314 313 300
3 301 314 300
3 307 314 301
3 294 307 301
3 299 312 315
3 299 315 302
3 302 315 309
3 302 309 296
3 297 310 317
3 297 317 304
3 305 306 293
3 292 305 293
3 300 313 316
3 300 316 303
3 303 316 312
3 303 312 299
3 319 321 308
3 306 319 308
3 308 321 320
3 308 320 307
3 322 324 311
3 309 322 311
3 311 324 323
3 311 323 310
3 327 326 313
3 314 327 313
3 320 327 314
3 307 320 314
3 312 325 328
3 312 328 315
3 315 328 322
3 315 322 309
3 310 323 330
3 310 330 317
3 318 319 306
3 305 318 306
3 313 326 329
3 313 329 316
3 316 329 325
3 316 325 312
3 332 334 321
3 319 332 321
3 321 334 333
3 321 333 320
3 335 337 324
3 322 335 324
3 324 337 336
3 324 336 323
3 340 339 326
3 327 340 326
3 333 340 327
3 320 333 327
3 325 338 341
3 325 341 328
3 328 341 335
3 328 335 322
3 323 336 343
3 323 343 330
3 331 332 319
3 318 331 319
3 326 339 342
3 326 342 329
3 329 342 338
3 329 338 325
3 345 347 334
3 332 345 334
3 334 347 346
3 334 346 333
3 348 350 337
3 335 348 337
3 337 350 349
3 337 349 336
3 353 352 339
3 340 353 339
3 346 353 340
3 333 346 340
3 338 351 354
3 338 354 341
3 341 354 348
3 341 348 335
3 336 349 356
3 336 356 343
3 344 345 332
3 331 344 332
3 339 352 355
3 339 355 342
3 342 355 351
3 342 351 338
