ply
format ascii 1.0
element vertex 277
property float x
property float y
property float z
element face 588
property list uchar int vertex_indices
end_header
0.32572799921035767 0.13572800159454346 0.1564899981021881
0.32509899139404297 0.13635799288749695 0.165926992893219
0.3458609879016876 0.14453600347042084 0.1571190059185028
0.3144040107727051 0.1130789965391159 0.1571190059185028
0.3081130087375641 0.1130789965391159 0.20115900039672852
0.3615890145301819 0.09357620030641556 0.12817899882793427
0.3653639853000641 0.09043049812316895 0.1571190059185028
0.3458609879016876 0.08791390061378479 0.1571190059185028
0.3458609879016876 0.09231790155172348 0.12188699841499329
0.37731799483299255 0.1130789965391159 0.1571190059185028
0.32635799050331116 0.09043049812316895 0.1571190059185028
0.32509899139404297 0.09043049812316895 0.16781499981880188
0.3615890145301819 0.12943699955940247 0.12692099809646606
0.3659929931163788 0.13572800159454346 0.1564899981021881
0.3458609879016876 0.13509899377822876 0.12314599752426147
0.36662301421165466 0.09043049812316895 0.16781499981880188
0.38360899686813354 0.1130789965391159 0.20115900039672852
0.33013200759887695 0.12943699955940247 0.12692099809646606
0.36662301421165466 0.13635799288749695 0.165926992893219
0.33013200759887695 0.09357620030641556 0.12817899882793427
0.312516987323761 0.14453600347042084 0.3043380081653595
0.32195401191711426 0.15334400534629822 0.3597019910812378
0.32447001338005066 0.16970199346542358 0.3565559983253479
0.31755000352859497 0.17725199460983276 0.2967880070209503
0.3458609879016876 0.18228499591350555 0.3521519899368286
0.3458609879016876 0.19486799836158752 0.28923800587654114
0.3458609879016876 0.15082800388336182 0.20115900039672852
0.32887399196624756 0.17158900201320648 0.24457000195980072
0.3458609879016876 0.18228499591350555 0.23890699446201324
0.32509899139404297 0.14453600347042084 0.2508609890937805
0.3458609879016876 0.16970199346542358 0.4024829864501953
0.367251992225647 0.16970199346542358 0.3565559983253479
0.3697679936885834 0.15334400534629822 0.3597019910812378
0.3628480136394501 0.17158900201320648 0.24457000195980072
0.36662301421165466 0.14453600347042084 0.2508609890937805
0.37417200207710266 0.17725199460983276 0.2967880070209503
0.37920498847961426 0.14453600347042084 0.3043380081653595
0.28294700384140015 0.10678800195455551 0.7736759781837463
0.3018209934234619 0.10678800195455551 0.7736759781837463
0.3018209934234619 0.1130789965391159 0.9309599995613098
0.28294700384140015 0.1130789965391159 0.9309599995613098
0.312516987323761 0.1602649986743927 0.4653970003128052
0.3106290102005005 0.1546030044555664 0.6415560245513916
0.3458609879016876 0.1571190059185028 0.6415560245513916
0.3458609879016876 0.1634110063314438 0.4653970003128052
0.27665600180625916 0.13195399940013885 0.4653970003128052
0.28294700384140015 0.13195399940013885 0.6415560245513916
0.32258298993110657 0.14893999695777893 0.7736759781837463
0.3458609879016876 0.15019899606704712 0.7736759781837463
0.3018209934234619 0.13195399940013885 0.7736759781837463
0.3018209934234619 0.1130789965391159 0.9057949781417847
0.3144040107727051 0.14390699565410614 0.9057949781417847
0.3458609879016876 0.1571190059185028 0.9057949781417847
0.2577809989452362 0.1130789965391159 0.4653970003128052
0.2577809989452362 0.1130789965391159 0.6918870210647583
0.2577809989452362 0.1130789965391159 0.7107620239257812
0.28294700384140015 0.1130789965391159 0.7107620239257812
0.28294700384140015 0.13195399940013885 0.7736759781837463
0.2955299913883209 0.13195399940013885 0.42764899134635925
0.3087419867515564 0.1539739966392517 0.41695401072502136
0.2577809989452362 0.1130789965391159 0.42135798931121826
0.2653310000896454 0.1111920028924942 0.6912580132484436
0.28294700384140015 0.1111920028924942 0.6925169825553894
0.3018209934234619 0.06903970241546631 0.3081130087375641
0.3144040107727051 0.056457001715898514 0.3081130087375641
0.3144040107727051 0.056457001715898514 0.42764899134635925
0.3018209934234619 0.06903970241546631 0.42764899134635925
0.37920498847961426 0.1602649986743927 0.4653970003128052
0.38297998905181885 0.1539739966392517 0.41695401072502136
0.3005630075931549 0.10553000122308731 0.3081130087375641
0.2955299913883209 0.09420529752969742 0.3081130087375641
0.2955299913883209 0.09420529752969742 0.42764899134635925
0.291126012802124 0.09609270095825195 0.46413901448249817
0.28294700384140015 0.10678800195455551 0.6415560245513916
0.28860899806022644 0.10112600028514862 0.5553640127182007
0.297417014837265 0.09860929846763611 0.5622850060462952
0.3018209934234619 0.06903970241546631 0.4553309977054596
0.395563006401062 0.0954635962843895 0.46665599942207336
0.3961920142173767 0.09420529752969742 0.42764899134635925
0.3980790078639984 0.09609270095825195 0.4653970003128052
0.297417014837265 0.08476819843053818 0.5629140138626099
0.3005630075931549 0.073443703353405 0.7183110117912292
0.2961589992046356 0.09168870002031326 0.46413901448249817
0.3144040107727051 0.08162250369787216 0.9057949781417847
0.3018209934234619 0.06903970241546631 0.7736759781837463
0.3458609879016876 0.06903970241546631 0.9057949781417847
0.395563006401062 0.09168870002031326 0.46413901448249817
0.3943049907684326 0.08476819843053818 0.5629140138626099
0.3911589980125427 0.073443703353405 0.7183110117912292
0.3899010121822357 0.06903970241546631 0.7057279944419861
0.3899010121822357 0.06903970241546631 0.6220530271530151
0.28294700384140015 0.1130789965391159 0.7988409996032715
0.21940399706363678 0.09923840314149857 0.834073007106781
0.22003300487995148 0.10049699991941452 0.9309599995613098
0.037582799792289734 0.11937099695205688 0.7170529961585999
0.02500000037252903 0.11937099695205688 0.7170529961585999
0.02500000037252903 0.10678800195455551 0.7170529961585999
0.037582799792289734 0.10678800195455551 0.7170529961585999
0.02500000037252903 0.11937099695205688 0.5660600066184998
0.02500000037252903 0.10678800195455551 0.5660600066184998
0.037582799792289734 0.11937099695205688 0.6415560245513916
0.037582799792289734 0.10678800195455551 0.6415560245513916
0.37102600932121277 0.0910596027970314 0.20115900039672852
0.3911589980125427 0.10553000122308731 0.3081130087375641
0.37228500843048096 0.10301300138235092 0.3081130087375641
0.43142399191856384 0.1111920028924942 0.6918870210647583
0.43393999338150024 0.1130789965391159 0.7107620239257812
0.42639100551605225 0.1111920028924942 0.6912580132484436
0.43393999338150024 0.1130789965391159 0.6918870210647583
0.33768200874328613 0.09986759722232819 0.07658939808607101
0.32698699831962585 0.1105630025267601 0.10364200174808502
0.3458609879016876 0.09923840314149857 0.07407280057668686
0.3458609879016876 0.12125799804925919 0.07470200210809708
0.33768200874328613 0.11811300367116928 0.07596030086278915
0.32195401191711426 0.14013199508190155 0.20052999258041382
0.32447001338005066 0.09043049812316895 0.17662300169467926
0.32069501280784607 0.0910596027970314 0.20115900039672852
0.3458609879016876 0.08791390061378479 0.17033100128173828
0.4911920130252838 0.0954635962843895 0.8441389799118042
0.5088080167770386 0.0910596027970314 0.8542050123214722
0.5075500011444092 0.09294699877500534 0.9322190284729004
0.4911920130252838 0.09672190248966217 0.9315890073776245
0.07470200210809708 0.1130789965391159 0.6119869947433472
0.056457001715898514 0.1130789965391159 0.6264569759368896
0.056457001715898514 0.1130789965391159 0.7107620239257812
0.07470200210809708 0.1130789965391159 0.7107620239257812
0.5975170135498047 0.1130789965391159 0.5962579846382141
0.5553640127182007 0.1130789965391159 0.6415560245513916
0.5553640127182007 0.1130789965391159 0.65413898229599
0.5975170135498047 0.1130789965391159 0.7107620239257812
0.5975170135498047 0.1130789965391159 0.6918870210647583
0.48112601041793823 0.1130789965391159 0.65413898229599
0.48112601041793823 0.1130789965391159 0.6428149938583374
0.43393999338150024 0.1130789965391159 0.4653970003128052
0.6170200109481812 0.1130789965391159 0.6119869947433472
0.6352649927139282 0.1130789965391159 0.6264569759368896
0.6352649927139282 0.1130789965391159 0.7107620239257812
0.6170200109481812 0.1130789965391159 0.7107620239257812
0.367251992225647 0.09043049812316895 0.17662300169467926
0.3697679936885834 0.14013199508190155 0.20052999258041382
0.2105959951877594 0.1130789965391159 0.6428149938583374
0.2105959951877594 0.1130789965391159 0.65413898229599
0.09420529752969742 0.1130789965391159 0.6918870210647583
0.09420529752969742 0.1130789965391159 0.7107620239257812
0.13635799288749695 0.1130789965391159 0.65413898229599
0.13635799288749695 0.1130789965391159 0.6415560245513916
0.09420529752969742 0.1130789965391159 0.5962579846382141
0.2955299913883209 0.1130789965391159 0.3081130087375641
0.20052999258041382 0.0954635962843895 0.8441389799118042
0.18291400372982025 0.0910596027970314 0.8542050123214722
0.18417200446128845 0.09294699877500534 0.9322190284729004
0.20052999258041382 0.09672190248966217 0.9315890073776245
0.3540399968624115 0.11811300367116928 0.07596030086278915
0.3540399968624115 0.09986759722232819 0.07658939808607101
0.3647350072860718 0.1105630025267601 0.10364200174808502
0.65413898229599 0.10678800195455551 0.6415560245513916
0.6667219996452332 0.10678800195455551 0.5660600066184998
0.6667219996452332 0.10678800195455551 0.7170529961585999
0.65413898229599 0.10678800195455551 0.7170529961585999
0.65413898229599 0.11937099695205688 0.7170529961585999
0.6667219996452332 0.11937099695205688 0.7170529961585999
0.6667219996452332 0.11937099695205688 0.5660600066184998
0.65413898229599 0.11937099695205688 0.6415560245513916
0.2602980136871338 0.1111920028924942 0.6918870210647583
0.3194369971752167 0.10301300138235092 0.3081130087375641
0.4087750017642975 0.1130789965391159 0.9309599995613098
0.4087750017642975 0.1130789965391159 0.7988409996032715
0.47231799364089966 0.09923840314149857 0.834073007106781
0.47168898582458496 0.10049699991941452 0.9309599995613098
0.37731799483299255 0.08162250369787216 0.9057949781417847
0.3899010121822357 0.06903970241546631 0.7736759781837463
0.3018209934234619 0.06903970241546631 0.6220530271530151
0.3018209934234619 0.06903970241546631 0.7057279944419861
0.2961589992046356 0.0954635962843895 0.46665599942207336
0.2936420142650604 0.09609270095825195 0.4653970003128052
0.3899010121822357 0.10678800195455551 0.7736759781837463
0.3899010121822357 0.1130789965391159 0.9057949781417847
0.3899010121822357 0.06903970241546631 0.4553309977054596
0.3899010121822357 0.06903970241546631 0.42764899134635925
0.3943049907684326 0.09860929846763611 0.5622850060462952
0.37731799483299255 0.056457001715898514 0.42764899134635925
0.4031130075454712 0.10112600028514862 0.5553640127182007
0.4087750017642975 0.10678800195455551 0.6415560245513916
0.4087750017642975 0.10678800195455551 0.7736759781837463
0.3961920142173767 0.1130789965391159 0.3081130087375641
0.3961920142173767 0.13195399940013885 0.42764899134635925
0.43393999338150024 0.1130789965391159 0.42135798931121826
0.4005959928035736 0.09609270095825195 0.46413901448249817
0.3899010121822357 0.06903970241546631 0.3081130087375641
0.3961920142173767 0.09420529752969742 0.3081130087375641
0.37731799483299255 0.056457001715898514 0.3081130087375641
0.4087750017642975 0.1111920028924942 0.6925169825553894
0.4087750017642975 0.1130789965391159 0.7107620239257812
0.4150660037994385 0.13195399940013885 0.4653970003128052
0.3899010121822357 0.13195399940013885 0.7736759781837463
0.4087750017642975 0.13195399940013885 0.7736759781837463
0.4087750017642975 0.13195399940013885 0.6415560245513916
0.3899010121822357 0.1130789965391159 0.9309599995613098
0.38109299540519714 0.1546030044555664 0.6415560245513916
0.3691389858722687 0.14893999695777893 0.7736759781837463
0.37731799483299255 0.14390699565410614 0.9057949781417847
0.4087750017642975 0.13195399940013885 0.7107620239257812
0.3458609879016876 0.33327800035476685 0.9750000238418579
0.3458609879016876 0.20115900039672852 0.9246690273284912
0.3458609879016876 0.2653310000896454 0.8844040036201477
0.3458609879016876 0.3194369971752167 0.9045360088348389
0.3458609879016876 0.2087090015411377 0.8271520137786865
0.3458609879016876 0.23827800154685974 0.8208609819412231
0.3458609879016876 0.18417200446128845 0.763608992099762
0.3458609879016876 0.2986760139465332 0.8818870186805725
0.3458609879016876 0.1571190059185028 0.9246690273284912
0.17347699403762817 0.1130789965391159 0.6258280277252197
0.18668900430202484 0.1130789965391159 0.6314899921417236
0.1608940064907074 0.1130789965391159 0.6308609843254089
0.15334400534629822 0.1130789965391159 0.6428149938583374
0.19298000633716583 0.1130789965391159 0.6428149938583374
0.18605999648571014 0.1130789965391159 0.6635760068893433
0.17284800112247467 0.1130789965391159 0.6673510074615479
0.1590069979429245 0.1130789965391159 0.6648340225219727
0.19109299778938293 0.1130789965391159 0.65413898229599
0.1539739966392517 0.1130789965391159 0.6553969979286194
0.5188739895820618 0.1130789965391159 0.6673510074615479
0.5056620240211487 0.1130789965391159 0.6635760068893433
0.5327150225639343 0.1130789965391159 0.6648340225219727
0.5006290078163147 0.1130789965391159 0.65413898229599
0.5377479791641235 0.1130789965391159 0.6553969979286194
0.5182449817657471 0.1130789965391159 0.6258280277252197
0.505033016204834 0.1130789965391159 0.6314899921417236
0.5308279991149902 0.1130789965391159 0.6308609843254089
0.5383769869804382 0.1130789965391159 0.6428149938583374
0.498742014169693 0.1130789965391159 0.6428149938583374
0.28294700384140015 0.13195399940013885 0.7107620239257812
0.3458609879016876 0.33327800035476685 0.9202650189399719
0.3458609879016876 0.13509899377822876 0.9498339891433716
0.33013200759887695 0.12817899882793427 0.9498339891433716
0.32384100556373596 0.1130789965391159 0.9498339891433716
0.33013200759887695 0.09735099971294403 0.9498339891433716
0.3458609879016876 0.0910596027970314 0.9498339891433716
0.3615890145301819 0.09735099971294403 0.9498339891433716
0.36788100004196167 0.1130789965391159 0.9498339891433716
0.3615890145301819 0.12817899882793427 0.9498339891433716
0.037582799792289734 0.1130789965391159 0.6415560245513916
0.037582799792289734 0.1130789965391159 0.7107620239257812
0.65413898229599 0.1130789965391159 0.6415560245513916
0.65413898229599 0.1130789965391159 0.7107620239257812
0.1671849936246872 0.1130789965391159 0.6428149938583374
0.5188739895820618 0.1130789965391159 0.6553969979286194
0.17284800112247467 0.1130789965391159 0.6553969979286194
0.164669007062912 0.1130789965391159 0.6503639817237854
0.17913900315761566 0.1130789965391159 0.6428149938583374
0.18228499591350555 0.1130789965391159 0.6497349739074707
0.5094370245933533 0.1130789965391159 0.6497349739074707
0.5125830173492432 0.1130789965391159 0.6428149938583374
0.5245360136032104 0.1130789965391159 0.6428149938583374
0.5270529985427856 0.1130789965391159 0.6503639817237854
0.3458609879016876 0.10049699991941452 0.3081130087375641
0.3458609879016876 0.08791390061378479 0.20115900039672852
0.3458609879016876 0.05016560107469559 0.42764899134635925
0.3458609879016876 0.05016560107469559 0.3081130087375641
0.3093709945678711 0.06086089834570885 0.6918870210647583
0.3005630075931549 0.02500000037252903 0.7107620239257812
0.3024500012397766 0.03003310039639473 0.7736759781837463
0.3093709945678711 0.06086089834570885 0.7736759781837463
0.37731799483299255 0.056457001715898514 0.7736759781837463
0.3144040107727051 0.056457001715898514 0.7736759781837463
0.3458609879016876 0.05016560107469559 0.7736759781837463
0.38235101103782654 0.06086089834570885 0.6918870210647583
0.3911589980125427 0.02500000037252903 0.7107620239257812
0.389272004365921 0.03003310039639473 0.7736759781837463
0.38235101103782654 0.06086089834570885 0.7736759781837463
0.3458609879016876 0.10678800195455551 0.02500000037252903
0.16970199346542358 0.08791390061378479 0.8617550134658813
0.16970199346542358 0.08791390061378479 0.912086009979248
0.5220199823379517 0.08791390061378479 0.8617550134658813
0.5220199823379517 0.08791390061378479 0.912086009979248
0.3458609879016876 0.33327800035476685 0.8932120203971863
0.3458609879016876 0.20115900039672852 0.7485100030899048
3 0 1 2
3 3 4 1
3 5 6 7
3 9 6 5
3 10 11 4
3 7 11 10
3 12 13 9
3 2 13 12
3 6 15 7
3 9 16 15
3 14 17 0
3 13 18 16
3 2 18 13
3 8 7 10
3 19 10 3
3 3 0 17
3 20 21 22
3 23 22 24
3 26 27 28
3 29 27 26
3 22 30 24
3 21 30 22
3 31 30 32
3 24 30 31
3 26 33 34
3 28 33 26
3 25 24 31
3 35 31 32
3 28 25 35
3 33 35 36
3 29 20 23
3 27 23 25
3 37 38 39
3 41 42 43
3 45 46 42
3 42 47 48
3 46 49 47
3 49 50 51
3 47 49 51
3 47 51 52
3 48 47 52
3 46 45 53
3 55 56 46
3 46 57 49
3 58 41 59
3 45 41 58
3 58 60 45
3 53 45 60
3 56 55 61
3 63 64 65
3 30 67 68
3 69 70 71
3 70 63 66
3 44 67 30
3 72 53 60
3 73 38 37
3 38 73 74
3 66 65 76
3 77 78 79
3 75 80 81
3 71 66 76
3 83 50 38
3 83 38 84
3 84 85 83
3 86 78 77
3 87 88 89
3 94 95 96
3 95 98 99
3 98 100 101
3 100 94 97
3 100 98 95
3 97 96 99
3 102 103 104
3 105 106 107
3 108 106 105
3 109 19 3
3 111 8 19
3 14 112 113
3 49 57 40
3 57 37 40
3 1 114 26
3 4 114 1
3 11 115 116
3 7 117 11
3 126 127 128
3 106 131 132
3 15 117 7
3 16 102 138
3 18 139 16
3 2 26 139
3 54 53 140
3 142 143 144
3 4 147 20
3 147 58 59
3 116 69 147
3 12 152 112
3 153 5 8
3 154 9 5
3 155 156 157
3 159 160 161
3 163 55 54
3 61 55 163
3 155 158 159
3 156 155 162
3 157 156 161
3 164 69 116
3 158 157 160
3 169 85 170
3 171 172 81
3 173 71 82
3 174 71 173
3 170 175 169
3 175 176 169
3 86 177 178
3 175 88 87
3 177 180 178
3 179 181 182
3 30 41 44
3 59 41 30
3 183 175 182
3 3 17 113
3 139 36 184
3 36 68 185
3 78 186 133
3 147 69 71
3 16 184 103
3 78 103 184
3 78 178 188
3 78 189 103
3 154 152 12
3 178 180 190
3 191 107 106
3 186 193 133
3 193 186 185
3 185 67 193
3 68 67 185
3 147 71 60
3 147 60 58
3 185 186 184
3 186 78 184
3 194 195 196
3 196 192 106
3 106 108 133
3 165 183 195
3 197 165 195
3 165 197 175
3 44 43 198
3 67 198 196
3 43 48 199
3 198 199 194
3 200 176 194
3 200 194 199
3 52 200 199
3 52 199 48
3 196 201 192
3 201 195 183
3 183 191 192
3 183 182 191
3 36 139 34
3 139 26 34
3 36 32 68
3 32 30 68
3 59 21 20
3 59 30 21
3 29 114 20
3 29 26 114
3 175 197 176
3 197 194 176
3 146 211 53
3 211 212 53
3 212 140 53
3 146 213 211
3 146 145 213
3 145 214 213
3 212 215 140
3 55 216 217
3 217 218 143
3 55 141 216
3 218 144 143
3 141 219 216
3 218 220 144
3 129 221 222
3 129 223 221
3 222 131 106
3 129 128 223
3 222 224 131
3 128 225 223
3 133 226 126
3 133 227 226
3 133 132 227
3 226 228 126
3 228 127 126
3 228 229 127
3 132 230 227
3 50 39 38
3 50 49 39
3 56 231 46
3 56 37 57
3 56 62 37
3 62 73 37
3 187 79 78
3 71 174 72
3 130 129 106
3 126 130 133
3 117 115 11
3 53 142 146
3 54 55 143
3 15 138 117
3 191 182 107
3 61 73 62
3 230 132 131
3 128 127 229
3 220 214 145
3 219 141 140
3 233 234 235
3 237 238 239
3 133 108 105
3 53 54 142
3 72 163 54
3 187 105 107
3 174 74 73
3 130 108 133
3 213 214 245
3 223 246 222
3 217 216 247
3 218 248 214
3 212 211 249
3 250 216 219
3 230 224 222
3 230 252 226
3 226 253 229
3 225 229 254
3 102 104 255
3 256 255 164
3 180 257 258
3 177 90 263
3 90 89 170
3 86 87 90
3 264 265 85
3 85 84 264
3 65 257 265
3 87 86 77
3 117 256 116
3 263 265 257
3 179 77 79
3 88 170 89
3 175 170 88
3 138 102 256
3 64 258 257
3 65 264 171
3 264 84 172
3 85 265 263
3 263 170 85
3 76 171 80
3 75 173 82
3 74 174 173
3 172 84 81
3 81 84 38
3 152 270 112
3 154 270 152
3 109 110 270
3 111 109 270
3 113 270 110
3 112 270 113
3 270 154 153
3 270 153 111
3 238 237 85
3 239 238 169
3 240 239 176
3 52 233 240
3 51 234 233
3 51 50 235
3 50 83 236
3 83 85 237
3 252 230 251
3 254 229 253
3 246 223 254
3 251 222 246
3 252 251 246
3 252 253 226
3 250 215 249
3 245 214 248
3 248 218 247
3 247 216 250
3 245 248 247
3 211 245 249
3 70 69 164
3 258 64 63
3 104 103 189
3 255 104 189
3 40 91 92
3 93 92 91
3 118 119 120
3 121 120 119
3 122 123 124
3 125 124 123
3 134 135 136
3 137 136 135
3 148 149 150
3 151 150 149
3 165 166 167
3 168 167 166
3 202 203 204
3 205 204 203
3 203 52 48
3 204 206 48
3 206 207 204
3 204 207 206
3 48 208 206
3 206 208 48
3 204 209 205
3 205 209 204
3 203 210 52
3 52 210 203
3 202 203 204
3 205 204 203
3 203 52 48
3 204 206 48
3 206 207 204
3 204 207 206
3 48 208 206
3 206 208 48
3 204 209 205
3 205 209 204
3 203 210 52
3 52 210 203
3 126 134 137
3 130 129 137
3 146 122 125
3 142 143 125
3 232 202 205
3 205 202 232
3 232 202 205
3 205 202 232
3 123 241 242
3 124 242 241
3 135 243 244
3 136 244 243
3 167 118 121
3 168 121 118
3 259 260 261
3 262 261 260
3 92 148 151
3 93 151 148
3 266 267 268
3 269 268 267
3 149 271 272
3 150 272 271
3 119 273 274
3 120 274 273
3 232 275 205
3 205 275 232
3 275 209 205
3 205 209 275
3 275 276 207
3 209 207 276
3 207 204 209
3 209 204 207
3 276 208 207
3 207 208 276
3 208 206 207
3 207 206 208
3 276 43 48
3 208 48 43
3 232 275 205
3 205 275 232
3 276 43 48
3 208 48 43
3 208 206 207
3 207 206 208
3 276 208 207
3 207 208 276
3 207 204 209
3 209 204 207
3 275 276 207
3 209 207 276
3 275 209 205
3 205 209 275
3 3 1 0
3 5 7 8
3 10 4 3
3 2 12 14
3 9 15 6
3 14 0 2
3 13 16 9
3 8 10 19
3 20 22 23
3 23 24 25
3 25 31 35
3 35 32 36
3 28 35 33
3 33 36 34
3 29 23 27
3 27 25 28
3 37 39 40
3 41 43 44
3 45 42 41
3 42 48 43
3 46 47 42
3 46 53 54
3 46 54 55
3 56 61 62
3 63 65 66
3 70 66 71
3 72 60 71
3 38 74 75
3 75 81 38
3 71 76 82
3 87 89 90
3 94 96 97
3 95 99 96
3 98 101 99
3 100 97 101
3 100 95 94
3 97 99 101
3 109 3 110
3 111 19 109
3 14 113 17
3 49 40 39
3 1 26 2
3 11 116 4
3 126 128 129
3 126 129 130
3 106 132 133
3 106 133 108
3 16 138 15
3 2 139 18
3 54 140 141
3 54 141 55
3 142 144 145
3 142 145 146
3 4 20 114
3 147 59 20
3 116 147 4
3 12 112 14
3 153 8 111
3 154 5 153
3 155 157 158
3 159 161 162
3 155 159 162
3 156 162 161
3 157 161 160
3 158 160 159
3 171 81 80
3 86 178 78
3 175 87 179
3 179 182 175
3 3 113 110
3 139 184 16
3 36 185 184
3 78 133 187
3 16 103 102
3 78 188 189
3 154 12 9
3 178 190 188
3 191 106 192
3 106 133 193
3 106 193 196
3 197 195 194
3 165 175 183
3 44 198 67
3 67 196 193
3 43 199 198
3 198 194 196
3 201 183 192
3 55 217 143
3 129 222 106
3 56 57 231
3 130 106 108
3 54 143 142
3 230 131 224
3 128 229 225
3 220 145 144
3 219 140 215
3 233 235 236
3 233 236 237
3 237 239 240
3 237 240 233
3 133 105 187
3 72 54 53
3 187 107 182
3 187 182 181
3 187 181 79
3 174 73 61
3 174 61 163
3 174 163 72
3 213 245 211
3 223 222 221
3 217 247 218
3 218 214 220
3 212 249 215
3 250 219 215
3 230 222 251
3 230 226 227
3 226 229 228
3 225 254 223
3 102 255 256
3 256 164 116
3 180 258 190
3 177 263 180
3 90 170 263
3 86 90 177
3 65 265 264
3 87 77 179
3 117 116 115
3 263 257 180
3 179 79 181
3 138 256 117
3 64 257 65
3 65 171 76
3 264 172 171
3 76 80 82
3 75 82 80
3 74 173 75
3 238 85 169
3 239 169 176
3 240 176 200
3 52 240 200
3 51 233 52
3 51 235 234
3 50 236 235
3 83 237 236
3 252 246 254
3 252 254 253
3 245 247 250
3 245 250 249
3 258 63 70
3 258 70 164
3 258 164 255
3 255 189 188
3 255 188 190
3 255 190 258
3 40 92 93
3 93 91 40
3 118 120 121
3 121 119 118
3 122 124 125
3 125 123 122
3 134 136 137
3 137 135 134
3 148 150 151
3 151 149 148
3 165 167 168
3 168 166 165
3 202 204 205
3 205 203 202
3 203 48 206
3 203 206 204
3 204 48 52
3 204 52 203
3 202 204 205
3 205 203 202
3 203 48 206
3 203 206 204
3 204 48 52
3 204 52 203
3 126 137 129
3 126 129 130
3 130 137 134
3 130 134 126
3 146 125 143
3 146 143 142
3 142 125 122
3 142 122 146
3 123 242 124
3 124 241 123
3 135 244 136
3 136 243 135
3 167 121 168
3 168 118 167
3 259 261 262
3 262 260 259
3 92 151 93
3 93 148 92
3 266 268 269
3 269 267 266
3 149 272 150
3 150 271 149
3 119 274 120
3 120 273 119
3 275 207 209
3 209 276 275
3 276 48 208
3 208 43 276
3 276 48 208
3 208 43 276
3 275 207 209
3 209 276 275
