ply
format ascii 1.0
element vertex 478
property float x
property float y
property float z
element face 899
property list uchar int vertex_indices
end_header
0.1679850071668625 0.45552000403404236 0.33720600605010986
0.12490899860858917 0.44712701439857483 0.32697299122810364
0.08714040368795395 0.4550569951534271 0.3115119934082031
0.07841289788484573 0.46951401233673096 0.2844409942626953
0.08671359717845917 0.47694501280784607 0.24901999533176422
0.118367999792099 0.48140498995780945 0.23134399950504303
0.169172003865242 0.4911549985408783 0.22322599589824677
0.17079900205135345 0.4218679964542389 0.28822699189186096
0.19052700698375702 0.35429900884628296 0.3678410053253174
0.17929799854755402 0.35051000118255615 0.336124986410141
0.18744300305843353 0.34454500675201416 0.30350399017333984
0.2214599996805191 0.3425450026988983 0.2971949875354767
0.251010000705719 0.34638500213623047 0.31386798620224
0.25999701023101807 0.3503519892692566 0.34213700890541077
0.24117200076580048 0.3529129922389984 0.3640179932117462
0.21546299755573273 0.35708901286125183 0.3753510117530823
0.15079200267791748 0.35547199845314026 0.2863579988479614
0.11970099806785583 0.3502790033817291 0.30087700486183167
0.09024140238761902 0.3530369997024536 0.28634199500083923
0.08133509755134583 0.35781601071357727 0.2640419900417328
0.08765500038862228 0.361750990152359 0.23432299494743347
0.12107300013303757 0.36289098858833313 0.22303199768066406
0.14921599626541138 0.3644010126590729 0.21897099912166595
0.16021500527858734 0.36024001240730286 0.2583549916744232
0.21452799439430237 0.4733479917049408 0.3507530093193054
0.24647299945354462 0.4702480137348175 0.3307180106639862
0.2635340094566345 0.4661400020122528 0.3013010025024414
0.2528809905052185 0.46045300364494324 0.2680889964103699
0.2212350070476532 0.45076701045036316 0.24789699912071228
0.12407399713993073 0.5213329792022705 0.23803700506687164
0.09028570353984833 0.5270770192146301 0.2600800096988678
0.07883880287408829 0.5281999707221985 0.29744499921798706
0.09354650229215622 0.5198349952697754 0.32545900344848633
0.12468399852514267 0.5144850015640259 0.34358298778533936
0.16845500469207764 0.5137019753456116 0.3467459976673126
0.21427799761295319 0.5151960253715515 0.34380999207496643
0.249099001288414 0.5204280018806458 0.3227579891681671
0.26041701436042786 0.5263310074806213 0.2959260046482086
0.24791200459003448 0.5278630256652832 0.2612740099430084
0.21302899718284607 0.5222499966621399 0.23781999945640564
0.16913500428199768 0.5099920034408569 0.22465099394321442
0.12306299805641174 0.5719479918479919 0.2570109963417053
0.09409759938716888 0.5682139992713928 0.2776319980621338
0.0850692018866539 0.5662329792976379 0.30149200558662415
0.09835100173950195 0.5639849901199341 0.32857900857925415
0.1294579952955246 0.5627020001411438 0.34404900670051575
0.16852900385856628 0.5622050166130066 0.3500320017337799
0.21384799480438232 0.5628229975700378 0.3425750136375427
0.24478499591350555 0.5642610192298889 0.32525399327278137
0.2544960081577301 0.566182017326355 0.30210399627685547
0.24518199265003204 0.5682939887046814 0.27665600180625916
0.21424500644207 0.5696039795875549 0.2584550082683563
0.16846099495887756 0.5708370208740234 0.2460079938173294
0.12317600101232529 0.588263988494873 0.2591719925403595
0.08436159789562225 0.5793899893760681 0.3043439984321594
0.2443999946117401 0.5828920006752014 0.27627798914909363
0.21414099633693695 0.5896440148353577 0.2589010000228882
0.1684660017490387 0.5907040238380432 0.24802400171756744
0.09829679876565933 0.5791339874267578 0.3316439986228943
0.1295749992132187 0.576869010925293 0.3466610014438629
0.09411449730396271 0.582772970199585 0.2779200077056885
0.2535800039768219 0.5815560221672058 0.3042120039463043
0.23921500146389008 0.5784069895744324 0.33188799023628235
0.21346800029277802 0.5760669708251953 0.3473289906978607
0.16813500225543976 0.5755389928817749 0.35135799646377563
0.09896480292081833 0.6062780022621155 0.34200000762939453
0.1301649957895279 0.605991005897522 0.35423600673675537
0.08495499938726425 0.6025909781455994 0.31213998794555664
0.09288950264453888 0.7478370070457458 0.3632250130176544
0.11985199898481369 0.7502959966659546 0.37394100427627563
0.08562640100717545 0.784060001373291 0.36167699098587036
0.11564300209283829 0.7893990278244019 0.3686999976634979
0.08363139629364014 0.8189100027084351 0.3513059914112091
0.1118210032582283 0.8148509860038757 0.35926300287246704
0.1427460014820099 0.8318039774894714 0.3522779941558838
0.13836300373077393 0.8426380157470703 0.3363949954509735
0.09175650030374527 0.6111909747123718 0.27414798736572266
0.10992100089788437 0.6145319938659668 0.25457799434661865
0.09737910330295563 0.7533800005912781 0.2647329866886139
0.07966309785842896 0.8096579909324646 0.2845210134983063
0.07622270286083221 0.822393000125885 0.30622801184654236
0.0959831029176712 0.8262670040130615 0.2937079966068268
0.14084799587726593 0.8487889766693115 0.3270989954471588
0.1481180042028427 0.8535900115966797 0.31894999742507935
0.16932900249958038 0.6195160150527954 0.24603399634361267
0.2334049940109253 0.6158900260925293 0.25089800357818604
0.16922399401664734 0.7577750086784363 0.26047399640083313
0.2462719976902008 0.7594940066337585 0.26267701387405396
0.16978999972343445 0.8087589740753174 0.2766450047492981
0.2608779966831207 0.8050869703292847 0.2811509966850281
0.1695449948310852 0.8345900177955627 0.29148799180984497
0.24244999885559082 0.8273509740829468 0.2938840091228485
0.16987000405788422 0.8565130233764648 0.3111009895801544
0.19070200622081757 0.8530489802360535 0.31864699721336365
0.24236799776554108 0.6106320023536682 0.26719599962234497
0.2515130043029785 0.6069440245628357 0.3120810091495514
0.26256000995635986 0.8201799988746643 0.30277198553085327
0.19884300231933594 0.8487290143966675 0.32769501209259033
0.20206700265407562 0.8448420166969299 0.3321340084075928
0.23968499898910522 0.6026999950408936 0.34509700536727905
0.21065999567508698 0.6059780120849609 0.3554230034351349
0.2455729991197586 0.7472749948501587 0.36645400524139404
0.2184620052576065 0.7508959770202637 0.3765209913253784
0.2521440088748932 0.7859770059585571 0.3614319860935211
0.22101299464702606 0.790690004825592 0.37049600481987
0.2522040009498596 0.8129310011863708 0.3495039939880371
0.2229280024766922 0.8133640289306641 0.356671005487442
0.20231999456882477 0.8376700282096863 0.34519100189208984
0.19624699652194977 0.8302080035209656 0.35250699520111084
0.16815799474716187 0.6072310209274292 0.35849300026893616
0.16845600306987762 0.7512040138244629 0.37374499440193176
0.16968899965286255 0.7904239892959595 0.3688870072364807
0.16908800601959229 0.8130170106887817 0.3626289963722229
0.30228298902511597 0.6953380107879639 0.26028698682785034
0.26069900393486023 0.6813949942588806 0.2661699950695038
0.2684299945831299 0.6694669723510742 0.30330100655555725
0.30399900674819946 0.6786029934883118 0.31114399433135986
0.31310799717903137 0.6909369826316833 0.29284799098968506
0.27544599771499634 0.807869017124176 0.300121009349823
0.2567580044269562 0.7440599799156189 0.2971290051937103
0.2584959864616394 0.7478209733963013 0.3521040081977844
0.274522989988327 0.7865599989891052 0.35737699270248413
0.2761250138282776 0.8111400008201599 0.3278459906578064
0.059877198189496994 0.8075569868087769 0.3017120063304901
0.08516839891672134 0.7465639710426331 0.27785301208496094
0.08539369702339172 0.7446439862251282 0.34445101022720337
0.07429859787225723 0.7813330292701721 0.3562380075454712
0.06229420006275177 0.8147090077400208 0.33739998936653137
0.032422300428152084 0.6943119764328003 0.2921000123023987
0.07053550332784653 0.6879919767379761 0.28189700841903687
0.07712610065937042 0.6851739883422852 0.32583099603652954
0.050449300557374954 0.6897029876708984 0.34848499298095703
0.028960900381207466 0.6954370141029358 0.3265810012817383
0.1705940067768097 0.8898699879646301 0.4184499979019165
0.16107399761676788 0.8872420191764832 0.405443012714386
0.14948299527168274 0.8680559992790222 0.40180298686027527
0.13955800235271454 0.8732699751853943 0.38420799374580383
0.13650700449943542 0.8785780072212219 0.3687869906425476
0.13513299822807312 0.8861730098724365 0.34888899326324463
0.18052400648593903 0.8865950107574463 0.40707600116729736
0.1913750022649765 0.8677399754524231 0.4014410078525543
0.20007599890232086 0.8732280135154724 0.3822369873523712
0.20401400327682495 0.8782870173454285 0.36834898591041565
0.2047329992055893 0.883122980594635 0.34845098853111267
0.17064300179481506 0.900098979473114 0.4136810004711151
0.17068800330162048 0.9155110120773315 0.40768200159072876
0.17072400450706482 0.9322670102119446 0.40969499945640564
0.17090600728988647 0.9370030164718628 0.40672001242637634
0.14115899801254272 0.8759300112724304 0.3324199914932251
0.19981899857521057 0.8780419826507568 0.3328090012073517
0.20938700437545776 0.8987939953804016 0.3315820097923279
0.13208800554275513 0.8991310000419617 0.3324880003929138
0.17053799331188202 0.867671012878418 0.40352898836135864
0.15902499854564667 0.8544960021972656 0.3974129855632782
0.18231600522994995 0.854341983795166 0.3976539969444275
0.15376299619674683 0.8557609915733337 0.3782230019569397
0.17162199318408966 0.8474259972572327 0.374675989151001
0.18893200159072876 0.8554419875144958 0.3784169852733612
0.15152600407600403 0.8587070107460022 0.3527419865131378
0.18867500126361847 0.8565800189971924 0.352198988199234
0.17697900533676147 0.8984559774398804 0.40880000591278076
0.20217899978160858 0.901606023311615 0.4042539894580841
0.18811100721359253 0.9178439974784851 0.40409600734710693
0.2097969949245453 0.9004859924316406 0.38829898834228516
0.20734600722789764 0.9311659932136536 0.39765700697898865
0.19284500181674957 0.9338499903678894 0.40617701411247253
0.21186000108718872 0.9094319939613342 0.36016300320625305
0.2131810039281845 0.9239559769630432 0.37201499938964844
0.16467800736427307 0.8988109827041626 0.40863901376724243
0.1532360017299652 0.9178630113601685 0.4047060012817383
0.1397780030965805 0.9014700055122375 0.40452200174331665
0.1497430056333542 0.9337769746780396 0.40631499886512756
0.1346299946308136 0.9314010143280029 0.39802101254463196
0.1299699991941452 0.899278998374939 0.3882330060005188
0.14764200150966644 0.941586971282959 0.40607398748397827
0.12821200489997864 0.9245449900627136 0.3726310133934021
0.12909799814224243 0.9101489782333374 0.3610770106315613
0.14210499823093414 0.880636990070343 0.317782998085022
0.15873099863529205 0.8772090077400208 0.3123370110988617
0.1823049932718277 0.877813994884491 0.3135010004043579
0.1965470016002655 0.8804609775543213 0.3156859874725342
0.1699109971523285 0.8468800187110901 0.3610230088233948
0.14311100542545319 0.8414350152015686 0.32669198513031006
0.19734899699687958 0.842100977897644 0.32730400562286377
0.15251800417900085 0.8319860100746155 0.3465319871902466
0.19051499664783478 0.8318279981613159 0.34727999567985535
0.14840300381183624 0.847648024559021 0.31605398654937744
0.15853199362754822 0.8526520133018494 0.3085060119628906
0.18162299692630768 0.8503919839859009 0.3116750121116638
0.19165100157260895 0.8483070135116577 0.31777000427246094
0.16945099830627441 0.8274109959602356 0.35321998596191406
0.13700799643993378 0.15383100509643555 0.08869700133800507
0.13083399832248688 0.18244600296020508 0.07111810147762299
0.1109279990196228 0.1823669970035553 0.06934569776058197
0.10479799658060074 0.15378299355506897 0.0887283980846405
0.12091600149869919 0.13977299630641937 0.1077359989285469
0.14188799262046814 0.17933399975299835 0.11692500114440918
0.13384400308132172 0.19911199808120728 0.09774570167064667
0.10790500044822693 0.19908800721168518 0.09776890277862549
0.09991700202226639 0.17929600179195404 0.11696299910545349
0.12092000246047974 0.16708700358867645 0.12880200147628784
0.15276600420475006 0.2561509907245636 0.2089889943599701
0.14055299758911133 0.2814770042896271 0.18304699659347534
0.10116700083017349 0.28144699335098267 0.18307800590991974
0.08903919905424118 0.2561019957065582 0.20903900265693665
0.12092900276184082 0.24046799540519714 0.22505299746990204
0.1469240039587021 0.28309398889541626 0.24313899874687195
0.13695000112056732 0.3083980083465576 0.21721899509429932
0.10478600114583969 0.3083679974079132 0.2172500044107437
0.09488119930028915 0.2830449938774109 0.2431890070438385
0.12092400342226028 0.267425000667572 0.25918900966644287
0.14895200729370117 0.3015829920768738 0.25808098912239075
0.13820099830627441 0.31898701190948486 0.22450900077819824
0.10352999716997147 0.3181290030479431 0.22362400591373444
0.09285339713096619 0.30155399441719055 0.2581480145454407
0.12092600017786026 0.2872219979763031 0.27943798899650574
0.1533769965171814 0.3648650050163269 0.27334699034690857
0.1387770026922226 0.377595990896225 0.23420999944210052
0.10294400155544281 0.3787589967250824 0.23335599899291992
0.0884288027882576 0.36483898758888245 0.27342501282691956
0.12092900276184082 0.3567740023136139 0.2984139919281006
0.2346400022506714 0.06666979938745499 0.37706100940704346
0.228411003947258 0.07056870311498642 0.3422270119190216
0.20832200348377228 0.07056599855422974 0.34226399660110474
0.20213599503040314 0.0666654035449028 0.3771210014820099
0.2184009999036789 0.0683630034327507 0.3963190019130707
0.23956599831581116 0.10671000182628632 0.36951300501823425
0.2314479947090149 0.10400199890136719 0.34240400791168213
0.20527100563049316 0.10400500148534775 0.3424369990825653
0.19720999896526337 0.10671500116586685 0.3695659935474396
0.21840499341487885 0.10838700085878372 0.3862999975681305
0.2505429983139038 0.25042200088500977 0.35793599486351013
0.23821799457073212 0.24708999693393707 0.32107800245285034
0.19847199320793152 0.24709400534629822 0.3211219906806946
0.18623299896717072 0.2504290044307709 0.35800701379776
0.21841399371623993 0.2524850070476532 0.3807600140571594
0.24464799463748932 0.29500600695610046 0.35798901319503784
0.23458200693130493 0.29167699813842773 0.32116198539733887
0.2021239995956421 0.2916809916496277 0.3212060034275055
0.1921280026435852 0.2950119972229004 0.3580609858036041
0.21841000020503998 0.29706600308418274 0.3807939887046814
0.24669399857521057 0.3118799924850464 0.3542729914188385
0.23584400117397308 0.30539900064468384 0.3172279894351959
0.20085600018501282 0.30540698766708374 0.31727200746536255
0.19008199870586395 0.31189200282096863 0.3543449938297272
0.21841099858283997 0.3158920109272003 0.3772130012512207
0.25115901231765747 0.3561230003833771 0.34505099058151245
0.23644599318504333 0.3488070070743561 0.3032979965209961
0.19916699826717377 0.3488219976425171 0.303288996219635
0.18561699986457825 0.3561370074748993 0.3451319932937622
0.2184150069952011 0.3606500029563904 0.3709309995174408
0.2896209955215454 0.702489972114563 0.2687070071697235
0.2645519971847534 0.6919500231742859 0.2897369861602783
0.2798149883747101 0.691586971282959 0.30768799781799316
0.2965100109577179 0.6952109932899475 0.3094649910926819
0.3041900098323822 0.7053329944610596 0.29165300726890564
0.2784540057182312 0.46253299713134766 0.3403890132904053
0.282260000705719 0.45816901326179504 0.3397490084171295
0.28289198875427246 0.45925799012184143 0.3455590009689331
0.27870801091194153 0.4635309875011444 0.3450930118560791
0.28656598925590515 0.47619199752807617 0.333622008562088
0.29409700632095337 0.47450700402259827 0.3313109874725342
0.2961440086364746 0.4766010046005249 0.34046700596809387
0.2881920039653778 0.4778040051460266 0.3410030007362366
0.2903040051460266 0.4987320005893707 0.322270005941391
0.29702600836753845 0.49738800525665283 0.32088199257850647
0.27566900849342346 0.4624130129814148 0.35366401076316833
0.2793959975242615 0.4577009975910187 0.35345301032066345
0.2799859941005707 0.4589729905128479 0.35951900482177734
0.27611398696899414 0.46374601125717163 0.3593110144138336
0.2885580062866211 0.47716501355171204 0.3455030024051666
0.2972410023212433 0.47543999552726746 0.3459169864654541
0.2972950041294098 0.4782080054283142 0.3545440137386322
0.2886109948158264 0.47984999418258667 0.35384899377822876
0.2900339961051941 0.4991909861564636 0.3336760103702545
0.29822900891304016 0.49799299240112305 0.3349269926548004
0.28134000301361084 0.47474101185798645 0.32506999373435974
0.2839440107345581 0.4711579978466034 0.32359200716018677
0.2854059934616089 0.4713430106639862 0.32822901010513306
0.2823199927806854 0.4749949872493744 0.32892099022865295
0.2859559953212738 0.4863069951534271 0.3191030025482178
0.29130101203918457 0.48444101214408875 0.3157980144023895
0.2948470115661621 0.48560699820518494 0.3225719928741455
0.2887980043888092 0.48715901374816895 0.32465898990631104
0.28901800513267517 0.5005199909210205 0.3132520020008087
0.29535600543022156 0.49972400069236755 0.31121399998664856
0.2790580093860626 0.46867701411247253 0.3674739897251129
0.28224700689315796 0.46400800347328186 0.3690269887447357
0.2816709876060486 0.46636098623275757 0.3745479881763458
0.2784079909324646 0.47098401188850403 0.3725750148296356
0.28936100006103516 0.4802359938621521 0.3581539988517761
0.2970840036869049 0.47818899154663086 0.35915398597717285
0.29691699147224426 0.48239201307296753 0.36827701330184937
0.28918901085853577 0.4843040108680725 0.3670499920845032
0.289029985666275 0.5022760033607483 0.3445110023021698
0.297107994556427 0.5020139813423157 0.3469899892807007
0.2874940037727356 0.49449801445007324 0.3749920129776001
0.28426000475883484 0.4956029951572418 0.3726780116558075
0.28649601340293884 0.49476000666618347 0.36832699179649353
0.29047998785972595 0.49352899193763733 0.36834999918937683
0.2925710082054138 0.5143510103225708 0.3690359890460968
0.2850160002708435 0.5134980082511902 0.36714598536491394
0.28709399700164795 0.5093470215797424 0.35797300934791565
0.29480698704719543 0.5107380151748657 0.3587940037250519
0.29003599286079407 0.5275760293006897 0.3597530126571655
0.28235799074172974 0.5233299732208252 0.35919898748397827
0.28937798738479614 0.5132150053977966 0.3544040024280548
0.2961120009422302 0.5133990049362183 0.35605499148368835
0.28121501207351685 0.5356169939041138 0.3214130103588104
0.28457799553871155 0.5342159867286682 0.306427001953125
0.27979400753974915 0.5399150252342224 0.33418700098991394
0.2899410128593445 0.5469020009040833 0.3400169909000397
0.2986280024051666 0.5381760001182556 0.3241730034351349
0.2982819974422455 0.5378749966621399 0.30748701095581055
0.2907480001449585 0.6437109708786011 0.2552820146083832
0.27428698539733887 0.6441770195960999 0.2868419885635376
0.2892700135707855 0.6467549800872803 0.3002839982509613
0.3068329989910126 0.6497939825057983 0.29664701223373413
0.31237098574638367 0.6487870216369629 0.28086501359939575
0.2933579981327057 0.6563209891319275 0.24983499944210052
0.2734619975090027 0.6549469828605652 0.2868340015411377
0.2883189916610718 0.6528390049934387 0.2996309995651245
0.3060150146484375 0.6570979952812195 0.29756900668144226
0.3134180009365082 0.6625109910964966 0.2785930037498474
0.04779379814863205 0.7176709771156311 0.2925739884376526
0.07514840364456177 0.7090780138969421 0.29763099551200867
0.07180780172348022 0.6995400190353394 0.3289619982242584
0.04947609826922417 0.7126489877700806 0.34084099531173706
0.03828280046582222 0.713346004486084 0.32168999314308167
0.062206100672483444 0.573632001876831 0.5196070075035095
0.06449320167303085 0.5754299759864807 0.514985978603363
0.06480900198221207 0.5792480111122131 0.5173599720001221
0.06249170005321503 0.5778229832649231 0.5222690105438232
0.048217300325632095 0.5770519971847534 0.5061129927635193
0.05415799841284752 0.5794299840927124 0.5024290084838867
0.05402800068259239 0.5855129957199097 0.5051429867744446
0.048169299960136414 0.5847730040550232 0.5093870162963867
0.0656673014163971 0.5822290182113647 0.5261750221252441
0.06829659640789032 0.583836019039154 0.5191090106964111
0.06888139992952347 0.5886560082435608 0.5230249762535095
0.06684070080518723 0.5872330069541931 0.5288249850273132
0.048152100294828415 0.5865079760551453 0.5129340291023254
0.054413601756095886 0.5868510007858276 0.5074260234832764
0.05627639964222908 0.5941950082778931 0.509880006313324
0.05008459836244583 0.594057023525238 0.5154799818992615
0.040980901569128036 0.591867983341217 0.49086999893188477
0.04787119850516319 0.590736985206604 0.4874649941921234
0.055427998304367065 0.5702329874038696 0.5018259882926941
0.05714549869298935 0.5722929835319519 0.498522013425827
0.056481100618839264 0.5751519799232483 0.5007690191268921
0.054638300091028214 0.5732799768447876 0.5042949914932251
0.04613620042800903 0.5720999836921692 0.48990800976753235
0.05039599910378456 0.5751950144767761 0.4874979853630066
0.04906979948282242 0.5797960162162781 0.4900650084018707
0.04440410062670708 0.5777170062065125 0.49296098947525024
0.03996000066399574 0.5774030089378357 0.47608399391174316
0.04566400125622749 0.5788419842720032 0.47551700472831726
0.04613399878144264 0.5840669870376587 0.48212701082229614
0.04025319963693619 0.5833140015602112 0.48381099104881287
0.06604690104722977 0.5945209860801697 0.5263919830322266
0.06706800311803818 0.5946189761161804 0.5205320119857788
0.0687536969780922 0.6002389788627625 0.5218949913978577
0.06767000257968903 0.5999760031700134 0.5278549790382385
0.05036989971995354 0.5982289910316467 0.5146980285644531
0.0553290992975235 0.5981850028038025 0.5088980197906494
0.057082101702690125 0.6059899926185608 0.5101029872894287
0.05214570090174675 0.6062639951705933 0.5159149765968323
0.04416149854660034 0.6031110286712646 0.4934009909629822
0.05099330097436905 0.6016669869422913 0.49036499857902527
0.06286539882421494 0.6206380128860474 0.5048120021820068
0.06040960177779198 0.6222550272941589 0.5072799921035767
0.05639690160751343 0.6170399785041809 0.5053920149803162
0.05992890149354935 0.6169499754905701 0.5038350224494934
0.06069650128483772 0.6227269768714905 0.4910149872303009
0.05331360176205635 0.6260210275650024 0.49204498529434204
0.04972279816865921 0.6168599724769592 0.4921950101852417
0.05653280019760132 0.6158000230789185 0.4893929958343506
0.05856110155582428 0.6204220056533813 0.47890999913215637
0.05157890170812607 0.6242780089378357 0.4769740104675293
0.04838090017437935 0.6128360033035278 0.48771199584007263
0.05381159856915474 0.6143590211868286 0.4850580096244812
0.04728110134601593 0.6011390089988708 0.449506014585495
0.039226699620485306 0.6572390198707581 0.2933970093727112
0.06357759982347488 0.6452400088310242 0.3037559986114502
0.06011449918150902 0.6569730043411255 0.33139199018478394
0.04367930069565773 0.66280597448349 0.3422499895095825
0.028435299172997475 0.6595789790153503 0.3259269893169403
0.03306889906525612 0.6237940192222595 0.29981398582458496
0.061889998614788055 0.6348000168800354 0.31235501170158386
0.058719899505376816 0.6451339721679688 0.33355599641799927
0.04115080088376999 0.6532160043716431 0.34252598881721497
0.02500000037252903 0.6430109739303589 0.3275119960308075
0.037838298827409744 0.5902280211448669 0.44798898696899414
0.040435999631881714 0.5953779816627502 0.4470509886741638
0.05248349905014038 0.6142680048942566 0.4485520124435425
0.044862501323223114 0.6188740134239197 0.4506329894065857
0.034759100526571274 0.6034319996833801 0.45111799240112305
0.17090100049972534 0.939041018486023 0.4114069938659668
0.17075100541114807 0.952597975730896 0.4056369960308075
0.1699790060520172 0.9703009724617004 0.381415992975235
0.20969699323177338 0.900297999382019 0.3294279873371124
0.21194800734519958 0.918159008026123 0.3227140009403229
0.20988500118255615 0.950905978679657 0.3319289982318878
0.1977130025625229 0.971917986869812 0.341744989156723
0.18432499468326569 0.9748049974441528 0.3514460027217865
0.15616300702095032 0.9750000238418579 0.3522830009460449
0.14268900454044342 0.9713450074195862 0.34180501103401184
0.13168999552726746 0.9509310126304626 0.33173999190330505
0.1298220008611679 0.9181839823722839 0.32309800386428833
0.13086000084877014 0.8996289968490601 0.326557993888855
0.2091740071773529 0.9338510036468506 0.39643800258636475
0.1937749981880188 0.9356579780578613 0.4066599905490875
0.2129569947719574 0.9110109806060791 0.35843199491500854
0.2148669958114624 0.9252510070800781 0.37045198678970337
0.20847700536251068 0.9578279852867126 0.373881995677948
0.19520199298858643 0.9673320055007935 0.37815800309181213
0.14732800424098969 0.944042980670929 0.40580201148986816
0.1317480057477951 0.9332180023193359 0.3977389931678772
0.14708200097084045 0.9663479924201965 0.37701499462127686
0.13292400538921356 0.9574159979820251 0.3738439977169037
0.1265379935503006 0.9276890158653259 0.3718560039997101
0.12751099467277527 0.9122459888458252 0.3575400114059448
0.1431639939546585 0.881974995136261 0.31421899795532227
0.14071999490261078 0.9237390160560608 0.31018298864364624
0.1596679985523224 0.8788880109786987 0.3108380138874054
0.15678900480270386 0.9543420076370239 0.314518004655838
0.17033499479293823 0.9234610199928284 0.3042390048503876
0.18168899416923523 0.879381000995636 0.30925101041793823
0.16860699653625488 0.971327006816864 0.32899799942970276
0.18099400401115417 0.9550120234489441 0.31222400069236755
0.19979800283908844 0.9237110018730164 0.30979201197624207
0.19647499918937683 0.8815019726753235 0.31119900941848755
0.11126700043678284 0.17622999846935272 0.04611140117049217
0.13315199315547943 0.1755629926919937 0.0478455014526844
0.14291499555110931 0.10589399933815002 0.10226599872112274
0.11756899952888489 0.11068599671125412 0.10863199830055237
0.09650509804487228 0.10806699842214584 0.10056199878454208
0.09068100154399872 0.12609000504016876 0.07760039716959
0.10356400161981583 0.17027400434017181 0.04196089878678322
0.12378799915313721 0.17541499435901642 0.037933100014925
0.1405249983072281 0.16912700235843658 0.04336889833211899
0.1451600044965744 0.11799900233745575 0.08343040198087692
0.1435140073299408 0.07394380122423172 0.116627998650074
0.12162300199270248 0.04932130128145218 0.13379600644111633
0.0970304012298584 0.0554829016327858 0.12849199771881104
0.0860653966665268 0.07750599831342697 0.11291100084781647
0.09502279758453369 0.14608800411224365 0.04547550156712532
0.10356400161981583 0.16208000481128693 0.029026299715042114
0.12378799915313721 0.16721899807453156 0.02500000037252903
0.1450980007648468 0.16050800681114197 0.03025840036571026
0.14889299869537354 0.13781900703907013 0.051955100148916245
0.14348700642585754 0.07115960121154785 0.10164099931716919
0.12355499714612961 0.044217098504304886 0.12761199474334717
0.09248530119657516 0.04898589849472046 0.12281499803066254
0.08476710319519043 0.07575590163469315 0.09870350360870361
0.20253700017929077 0.049887001514434814 0.3321149945259094
0.22787700593471527 0.04981590062379837 0.3320850133895874
0.24350599944591522 0.04718469828367233 0.4157319962978363
0.22000400722026825 0.052540700882673264 0.4212630093097687
0.19549399614334106 0.04835139960050583 0.4250510036945343
0.18953299522399902 0.04194739833474159 0.39595699310302734
0.1932010054588318 0.04194220155477524 0.33501899242401123
0.21208100020885468 0.04278640076518059 0.3267950117588043
0.2326190024614334 0.04230939969420433 0.3338269889354706
0.24465599656105042 0.040455300360918045 0.3940050005912781
0.25157999992370605 0.03707389906048775 0.45354700088500977
0.23538300395011902 0.03689419850707054 0.4833180010318756
0.20955100655555725 0.03707209974527359 0.48590898513793945
0.19044999778270721 0.037102699279785156 0.4578459858894348
0.18645599484443665 0.030166199430823326 0.3601279854774475
0.18984100222587585 0.028462199494242668 0.33496999740600586
0.21174299716949463 0.028085699304938316 0.326557993888855
0.2343129962682724 0.027569100260734558 0.3334769904613495
0.24198000133037567 0.02903830073773861 0.3576360046863556
0.25300899147987366 0.02500000037252903 0.4458009898662567
0.2382429987192154 0.027319099754095078 0.4841890037059784
0.20666499435901642 0.02779660001397133 0.4886929988861084
0.1882389932870865 0.026545200496912003 0.4520629942417145
3 0 7 9
3 0 9 8
3 7 6 10
3 7 10 9
3 6 28 11
3 6 11 10
3 28 27 12
3 28 12 11
3 27 26 13
3 27 13 12
3 26 25 14
3 26 14 13
3 25 24 15
3 25 15 14
3 24 0 8
3 24 8 15
3 0 1 17
3 0 17 16
3 1 2 18
3 1 18 17
3 2 3 19
3 2 19 18
3 3 4 20
3 3 20 19
3 4 5 21
3 4 21 20
3 5 6 22
3 5 22 21
3 6 7 23
3 6 23 22
3 7 0 16
3 7 16 23
3 5 4 30
3 5 30 29
3 4 3 31
3 4 31 30
3 3 2 32
3 3 32 31
3 2 1 33
3 2 33 32
3 1 0 34
3 1 34 33
3 0 24 35
3 0 35 34
3 24 25 36
3 24 36 35
3 25 26 37
3 25 37 36
3 26 27 38
3 26 38 37
3 27 28 39
3 27 39 38
3 28 6 40
3 28 40 39
3 6 5 29
3 6 29 40
3 29 30 42
3 29 42 41
3 30 31 43
3 30 43 42
3 31 32 44
3 31 44 43
3 32 33 45
3 32 45 44
3 33 34 46
3 33 46 45
3 34 35 47
3 34 47 46
3 35 36 48
3 35 48 47
3 36 37 49
3 36 49 48
3 37 38 50
3 37 50 49
3 38 39 51
3 38 51 50
3 39 40 52
3 39 52 51
3 40 29 41
3 40 41 52
3 41 42 60
3 41 60 53
3 42 43 54
3 42 54 60
3 43 44 58
3 43 58 54
3 44 45 59
3 44 59 58
3 48 49 61
3 49 50 55
3 49 55 61
3 50 51 56
3 50 56 55
3 51 52 57
3 51 57 56
3 52 41 53
3 52 53 57
3 63 64 46
3 64 59 45
3 64 45 46
3 63 46 47
3 63 47 62
3 62 47 48
3 61 62 48
3 65 58 59
3 59 66 65
3 67 54 58
3 58 65 67
3 68 65 66
3 66 69 68
3 125 67 65
3 65 68 125
3 70 68 69
3 69 71 70
3 126 125 68
3 68 70 126
3 72 70 71
3 71 73 72
3 127 126 70
3 70 72 127
3 74 72 73
3 75 127 72
3 72 74 75
3 76 60 54
3 54 67 76
3 77 53 60
3 60 76 77
3 124 76 67
3 67 125 124
3 78 77 76
3 76 124 78
3 79 78 124
3 124 123 79
3 81 79 123
3 123 80 81
3 82 80 127
3 127 75 82
3 83 81 80
3 80 82 83
3 84 57 53
3 53 77 84
3 85 56 57
3 57 84 85
3 86 84 77
3 77 78 86
3 87 85 84
3 84 86 87
3 88 86 78
3 78 79 88
3 89 87 86
3 86 88 89
3 90 88 79
3 79 81 90
3 91 89 88
3 88 90 91
3 92 90 81
3 81 83 92
3 93 91 90
3 90 92 93
3 94 55 56
3 56 85 94
3 95 61 55
3 55 94 95
3 119 94 85
3 85 87 119
3 120 95 94
3 94 119 120
3 118 119 87
3 87 89 118
3 96 118 89
3 89 91 96
3 97 96 91
3 91 93 97
3 98 122 96
3 96 97 98
3 99 62 61
3 61 95 99
3 100 63 62
3 62 99 100
3 101 99 95
3 95 120 101
3 102 100 99
3 99 101 102
3 107 105 122
3 122 98 107
3 108 106 105
3 105 107 108
3 106 112 104
3 112 111 104
3 104 111 102
3 111 110 102
3 102 110 100
3 110 109 100
3 100 109 63
3 109 64 63
3 112 73 71
3 112 71 111
3 111 71 69
3 111 69 110
3 110 69 66
3 110 66 109
3 109 66 59
3 109 59 64
3 108 112 106
3 74 73 112
3 127 80 123
3 122 118 96
3 113 114 119
3 113 119 118
3 114 115 120
3 114 120 119
3 115 116 121
3 115 121 120
3 116 117 122
3 116 122 121
3 117 113 118
3 117 118 122
3 120 121 122
3 120 122 118
3 119 120 118
3 127 126 125
3 123 127 125
3 123 125 124
3 123 124 129
3 123 129 128
3 124 125 130
3 124 130 129
3 125 126 131
3 125 131 130
3 126 127 132
3 126 132 131
3 127 123 128
3 127 128 132
3 103 104 102
3 103 102 101
3 105 106 104
3 105 104 103
3 121 101 120
3 121 103 101
3 122 103 121
3 122 105 103
3 133 134 139
3 134 135 152
3 134 152 139
3 139 152 140
3 135 136 153
3 135 153 152
3 152 153 154
3 152 154 140
3 140 154 141
3 136 137 155
3 136 155 153
3 153 155 156
3 153 156 154
3 154 156 157
3 154 157 141
3 141 157 142
3 137 138 158
3 137 158 155
3 157 159 142
3 142 159 143
3 138 148 158
3 159 149 143
3 133 139 144
3 139 140 160
3 139 160 144
3 144 160 145
3 140 141 161
3 140 161 160
3 160 161 162
3 160 162 145
3 145 162 146
3 141 142 163
3 141 163 161
3 161 163 164
3 161 164 162
3 162 164 165
3 162 165 146
3 146 165 147
3 142 143 166
3 142 166 163
3 163 166 167
3 163 167 164
3 143 150 166
3 133 144 134
3 144 145 168
3 144 168 134
3 134 168 135
3 145 146 169
3 145 169 168
3 168 169 170
3 168 170 135
3 135 170 136
3 146 147 171
3 146 171 169
3 169 171 172
3 169 172 170
3 170 172 173
3 170 173 136
3 136 173 137
3 147 174 171
3 171 174 172
3 172 175 173
3 173 175 176
3 173 176 137
3 137 176 138
3 176 151 138
3 151 177 148
3 180 150 149
3 150 143 149
3 151 148 138
3 159 157 156
3 158 156 155
3 159 156 181
3 158 181 156
3 181 184 190
3 181 190 185
3 159 181 185
3 159 185 183
3 149 159 183
3 149 183 189
3 180 149 189
3 180 189 188
3 179 180 188
3 181 158 184
3 158 182 184
3 158 148 182
3 148 186 182
3 148 177 186
3 177 187 186
3 177 178 187
3 178 179 188
3 178 188 187
3 182 82 75
3 184 182 75
3 184 75 74
3 184 74 112
3 190 184 112
3 190 112 108
3 185 190 108
3 185 108 107
3 183 185 107
3 183 107 98
3 183 98 97
3 189 183 97
3 189 97 93
3 188 189 93
3 188 93 92
3 187 188 92
3 187 92 83
3 186 187 83
3 186 83 82
3 182 186 82
3 191 192 197
3 191 197 196
3 192 193 198
3 192 198 197
3 193 194 199
3 193 199 198
3 194 195 200
3 194 200 199
3 195 191 196
3 195 196 200
3 196 197 202
3 196 202 201
3 197 198 203
3 197 203 202
3 198 199 204
3 198 204 203
3 199 200 205
3 199 205 204
3 200 196 201
3 200 201 205
3 201 202 207
3 201 207 206
3 202 203 208
3 202 208 207
3 203 204 209
3 203 209 208
3 204 205 210
3 204 210 209
3 205 201 206
3 205 206 210
3 206 207 212
3 206 212 211
3 207 208 213
3 207 213 212
3 208 209 214
3 208 214 213
3 209 210 215
3 209 215 214
3 210 206 211
3 210 211 215
3 211 212 217
3 211 217 216
3 212 213 218
3 212 218 217
3 213 214 219
3 213 219 218
3 214 215 220
3 214 220 219
3 215 211 216
3 215 216 220
3 221 222 227
3 221 227 226
3 222 223 228
3 222 228 227
3 223 224 229
3 223 229 228
3 224 225 230
3 224 230 229
3 225 221 226
3 225 226 230
3 226 227 232
3 226 232 231
3 227 228 233
3 227 233 232
3 228 229 234
3 228 234 233
3 229 230 235
3 229 235 234
3 230 226 231
3 230 231 235
3 231 232 237
3 231 237 236
3 232 233 238
3 232 238 237
3 233 234 239
3 233 239 238
3 234 235 240
3 234 240 239
3 235 231 236
3 235 236 240
3 236 237 242
3 236 242 241
3 237 238 243
3 237 243 242
3 238 239 244
3 238 244 243
3 239 240 245
3 239 245 244
3 240 236 241
3 240 241 245
3 241 242 247
3 241 247 246
3 242 243 248
3 242 248 247
3 243 244 249
3 243 249 248
3 244 245 250
3 244 250 249
3 245 241 246
3 245 246 250
3 256 260 257
3 260 261 257
3 257 261 258
3 261 262 258
3 258 262 259
3 262 263 259
3 259 263 256
3 263 260 256
3 260 264 261
3 264 265 261
3 261 265 262
3 265 275 262
3 262 275 263
3 275 274 263
3 263 274 260
3 274 264 260
3 259 256 257
3 257 258 259
3 266 270 267
3 270 271 267
3 267 271 268
3 271 272 268
3 268 272 269
3 272 273 269
3 269 273 266
3 273 270 266
3 270 274 271
3 274 275 271
3 271 275 272
3 275 295 272
3 272 295 273
3 295 294 273
3 273 294 270
3 294 274 270
3 269 266 267
3 267 268 269
3 276 280 277
3 280 281 277
3 277 281 278
3 281 282 278
3 278 282 279
3 282 283 279
3 279 283 276
3 283 280 276
3 280 284 281
3 284 285 281
3 281 285 282
3 285 265 282
3 282 265 283
3 265 264 283
3 283 264 280
3 264 284 280
3 279 276 277
3 277 278 279
3 286 290 287
3 290 291 287
3 287 291 288
3 291 292 288
3 288 292 289
3 292 293 289
3 289 293 286
3 293 290 286
3 290 294 291
3 294 295 291
3 291 295 292
3 295 307 292
3 292 307 293
3 307 306 293
3 293 306 290
3 306 294 290
3 289 286 287
3 287 288 289
3 296 300 297
3 300 301 297
3 297 301 298
3 301 302 298
3 298 302 299
3 302 303 299
3 299 303 296
3 303 300 296
3 300 304 301
3 304 305 301
3 301 305 302
3 305 306 302
3 302 306 303
3 306 307 303
3 303 307 300
3 307 304 300
3 299 296 297
3 297 298 299
3 312 304 307
3 312 307 295
3 312 295 275
3 312 275 265
3 312 265 285
3 294 306 308
3 274 294 308
3 264 274 308
3 284 264 308
3 311 304 312
3 312 285 313
3 308 309 284
3 310 308 305
3 285 284 309
3 313 285 309
3 311 310 305
3 304 311 305
3 306 305 308
3 310 311 316
3 310 316 315
3 311 312 317
3 311 317 316
3 312 313 318
3 312 318 317
3 313 309 314
3 313 314 318
3 314 315 320
3 314 320 319
3 315 316 321
3 315 321 320
3 316 317 322
3 316 322 321
3 317 318 323
3 317 323 322
3 318 314 319
3 318 319 323
3 315 314 308
3 314 309 308
3 315 308 310
3 253 321 322
3 254 253 322
3 255 254 322
3 255 322 323
3 251 255 323
3 251 323 319
3 252 251 319
3 252 319 320
3 253 252 320
3 253 320 321
3 329 333 330
3 333 334 330
3 330 334 331
3 334 335 331
3 331 335 332
3 335 336 332
3 332 336 329
3 336 333 329
3 333 358 334
3 358 357 334
3 334 357 335
3 357 346 335
3 335 346 336
3 346 345 336
3 336 345 333
3 345 358 333
3 332 329 330
3 330 331 332
3 337 341 338
3 341 342 338
3 338 342 339
3 342 343 339
3 339 343 340
3 343 344 340
3 340 344 337
3 344 341 337
3 341 345 342
3 345 346 342
3 342 346 343
3 346 368 343
3 343 368 344
3 368 367 344
3 344 367 341
3 367 345 341
3 340 337 338
3 338 339 340
3 347 351 348
3 351 352 348
3 348 352 349
3 352 353 349
3 349 353 350
3 353 354 350
3 350 354 347
3 354 351 347
3 351 355 352
3 355 356 352
3 352 356 353
3 356 357 353
3 353 357 354
3 357 358 354
3 354 358 351
3 358 355 351
3 350 347 348
3 348 349 350
3 359 363 360
3 363 364 360
3 360 364 361
3 364 365 361
3 361 365 362
3 365 366 362
3 362 366 359
3 366 363 359
3 363 367 364
3 367 368 364
3 364 368 365
3 368 380 365
3 365 380 366
3 380 379 366
3 366 379 363
3 379 367 363
3 362 359 360
3 360 361 362
3 369 373 370
3 373 374 370
3 370 374 371
3 374 375 371
3 371 375 372
3 375 376 372
3 372 376 369
3 376 373 369
3 373 377 374
3 377 378 374
3 374 378 375
3 378 379 375
3 375 379 376
3 379 380 376
3 376 380 373
3 380 377 373
3 372 369 370
3 370 371 372
3 396 355 358
3 396 358 345
3 396 345 367
3 396 367 379
3 396 379 378
3 357 356 381
3 346 357 381
3 368 346 381
3 380 368 381
3 377 380 381
3 396 378 395
3 394 377 381
3 393 381 356
3 355 396 392
3 395 378 377
3 394 395 377
3 392 393 356
3 392 356 355
3 382 383 388
3 382 388 387
3 383 384 389
3 383 389 388
3 384 385 390
3 384 390 389
3 385 386 391
3 385 391 390
3 386 382 387
3 386 387 391
3 387 388 393
3 387 393 392
3 389 390 395
3 389 395 394
3 390 391 396
3 390 396 395
3 391 387 392
3 391 392 396
3 389 381 388
3 381 393 388
3 394 381 389
3 328 386 385
3 327 328 385
3 328 324 382
3 328 382 386
3 324 325 383
3 324 383 382
3 325 326 384
3 325 384 383
3 326 327 385
3 326 385 384
3 397 411 398
3 410 413 414
3 410 414 411
3 411 414 415
3 411 415 398
3 398 415 399
3 412 400 401
3 412 401 413
3 413 401 402
3 413 402 414
3 414 402 403
3 414 403 415
3 415 403 404
3 415 404 399
3 397 398 416
3 398 399 418
3 398 418 416
3 416 418 419
3 416 419 417
3 417 419 420
3 399 405 418
3 418 405 406
3 418 406 419
3 419 406 407
3 419 407 420
3 420 407 408
3 420 408 421
3 421 408 409
3 409 408 422
3 408 407 423
3 408 423 422
3 422 423 424
3 407 406 425
3 407 425 423
3 423 425 426
3 423 426 424
3 424 426 427
3 406 405 428
3 406 428 425
3 425 428 429
3 425 429 426
3 426 429 430
3 426 430 427
3 427 430 431
3 405 404 428
3 428 404 403
3 428 403 429
3 429 403 402
3 429 402 430
3 430 402 401
3 430 401 431
3 431 401 400
3 405 399 404
3 413 167 166
3 413 412 166
3 413 166 412
3 412 166 150
3 412 150 400
3 400 150 180
3 400 180 431
3 410 164 167
3 410 167 413
3 411 165 164
3 411 164 410
3 397 147 165
3 397 165 411
3 416 174 147
3 416 147 397
3 416 417 172
3 416 172 174
3 417 420 175
3 417 175 172
3 420 421 176
3 420 176 175
3 421 409 176
3 176 409 151
3 409 422 177
3 409 177 151
3 431 180 179
3 431 179 427
3 422 424 178
3 422 178 177
3 424 179 178
3 424 427 179
3 434 435 443
3 434 443 442
3 435 436 445
3 435 445 444
3 437 438 447
3 437 447 446
3 438 439 448
3 438 448 447
3 439 440 449
3 439 449 448
3 440 441 450
3 440 450 449
3 441 442 451
3 441 451 450
3 442 443 452
3 442 452 451
3 443 444 453
3 443 453 452
3 444 445 454
3 444 454 453
3 445 437 446
3 445 446 454
3 441 434 442
3 433 441 440
3 433 440 439
3 432 439 438
3 432 433 439
3 432 438 437
3 436 437 445
3 436 432 437
3 433 434 441
3 435 444 443
3 192 433 432
3 193 192 432
3 193 432 436
3 194 193 436
3 195 194 436
3 195 436 435
3 195 435 434
3 191 195 434
3 191 434 433
3 192 191 433
3 457 458 466
3 457 466 465
3 458 459 468
3 458 468 467
3 460 461 470
3 460 470 469
3 461 462 471
3 461 471 470
3 462 463 472
3 462 472 471
3 463 464 473
3 463 473 472
3 464 465 474
3 464 474 473
3 465 466 475
3 465 475 474
3 466 467 476
3 466 476 475
3 467 468 477
3 467 477 476
3 468 460 469
3 468 469 477
3 464 457 465
3 456 464 463
3 456 463 462
3 455 462 461
3 455 456 462
3 455 461 460
3 459 460 468
3 459 455 460
3 456 457 464
3 458 467 466
3 225 458 457
3 221 225 457
3 221 457 456
3 222 221 456
3 223 222 456
3 223 456 455
3 224 223 455
3 224 455 459
3 225 224 459
3 225 459 458
