ply
format ascii 1.0
element vertex 448
property float x
property float y
property float z
element face 768
property list uchar int vertex_indices
end_header
0.27061301469802856 0.4094809889793396 0.0720549002289772
0.28252100944519043 0.4094809889793396 0.08231359720230103
0.2944279909133911 0.4094809889793396 0.08487830311059952
0.306335985660553 0.4094809889793396 0.08744300156831741
0.31824299693107605 0.4094809889793396 0.08808410167694092
0.342058002948761 0.4094809889793396 0.08872529864311218
0.4135029911994934 0.4094809889793396 0.08744300156831741
0.5087630152702332 0.4094809889793396 0.0720549002289772
0.4135029911994934 0.4094809889793396 0.056666698306798935
0.342058002948761 0.4094809889793396 0.055384401232004166
0.31824299693107605 0.4094809889793396 0.05602559819817543
0.306335985660553 0.4094809889793396 0.056666698306798935
0.2944279909133911 0.4094809889793396 0.05923140048980713
0.28252100944519043 0.4094809889793396 0.061796098947525024
0.3810479938983917 0.540556013584137 0.08996830135583878
0.3875179886817932 0.540556013584137 0.09474600106477737
0.3939880132675171 0.540556013584137 0.095940500497818
0.4004580080509186 0.540556013584137 0.09713490307331085
0.40692800283432007 0.540556013584137 0.09743349999189377
0.41986700892448425 0.540556013584137 0.09773209691047668
0.4586859941482544 0.540556013584137 0.09713490307331085
0.5104449987411499 0.540556013584137 0.08996830135583878
0.4586859941482544 0.540556013584137 0.08280179649591446
0.41986700892448425 0.540556013584137 0.08220449835062027
0.40692800283432007 0.540556013584137 0.08250310271978378
0.4004580080509186 0.540556013584137 0.08280179649591446
0.3939880132675171 0.540556013584137 0.08399619907140732
0.3875179886817932 0.540556013584137 0.08519060164690018
0.27061301469802856 0.4101020097732544 0.0720549002289772
0.28252100944519043 0.4101020097732544 0.08231359720230103
0.2944279909133911 0.4101020097732544 0.08487830311059952
0.306335985660553 0.4101020097732544 0.08744300156831741
0.31824299693107605 0.4101020097732544 0.08808410167694092
0.342058002948761 0.4101020097732544 0.08872529864311218
0.4135029911994934 0.4101020097732544 0.08744300156831741
0.5087630152702332 0.4101020097732544 0.0720549002289772
0.4135029911994934 0.4101020097732544 0.056666698306798935
0.342058002948761 0.4101020097732544 0.055384401232004166
0.31824299693107605 0.4101020097732544 0.05602559819817543
0.306335985660553 0.4101020097732544 0.056666698306798935
0.2944279909133911 0.4101020097732544 0.05923140048980713
0.28252100944519043 0.4101020097732544 0.061796098947525024
0.3810479938983917 0.27902600169181824 0.08996830135583878
0.3875179886817932 0.27902600169181824 0.09474600106477737
0.3939880132675171 0.27902600169181824 0.095940500497818
0.4004580080509186 0.27902600169181824 0.09713490307331085
0.40692800283432007 0.27902600169181824 0.09743349999189377
0.41986700892448425 0.27902600169181824 0.09773209691047668
0.4586859941482544 0.27902600169181824 0.09713490307331085
0.5104449987411499 0.27902600169181824 0.08996830135583878
0.4586859941482544 0.27902600169181824 0.08280179649591446
0.41986700892448425 0.27902600169181824 0.08220449835062027
0.40692800283432007 0.27902600169181824 0.08250310271978378
0.4004580080509186 0.27902600169181824 0.08280179649591446
0.3939880132675171 0.27902600169181824 0.08399619907140732
0.3875179886817932 0.27902600169181824 0.08519060164690018
0.5960440039634705 0.7945830225944519 0.11145199835300446
0.5970690250396729 0.7945830225944519 0.11220800131559372
0.5980929732322693 0.7945830225944519 0.11239700019359589
0.5991179943084717 0.7945830225944519 0.11258599907159805
0.6001420021057129 0.7945830225944519 0.11263400316238403
0.6021909713745117 0.7945830225944519 0.11268100142478943
0.6083369851112366 0.7945830225944519 0.11258599907159805
0.6165329813957214 0.7945830225944519 0.11145199835300446
0.6083369851112366 0.7945830225944519 0.11031699925661087
0.6021909713745117 0.7945830225944519 0.1102219969034195
0.6001420021057129 0.7945830225944519 0.11027000099420547
0.5991179943084717 0.7945830225944519 0.11031699925661087
0.5980929732322693 0.7945830225944519 0.11050599813461304
0.5970690250396729 0.7945830225944519 0.1106949970126152
0.5960440039634705 0.02500000037252903 0.11145199835300446
0.5970690250396729 0.02500000037252903 0.11220800131559372
0.5980929732322693 0.02500000037252903 0.11239700019359589
0.5991179943084717 0.02500000037252903 0.11258599907159805
0.6001420021057129 0.02500000037252903 0.11263400316238403
0.6021909713745117 0.02500000037252903 0.11268100142478943
0.6083369851112366 0.02500000037252903 0.11258599907159805
0.6165329813957214 0.02500000037252903 0.11145199835300446
0.6083369851112366 0.02500000037252903 0.11031699925661087
0.6021909713745117 0.02500000037252903 0.1102219969034195
0.6001420021057129 0.02500000037252903 0.11027000099420547
0.5991179943084717 0.02500000037252903 0.11031699925661087
0.5980929732322693 0.02500000037252903 0.11050599813461304
0.5970690250396729 0.02500000037252903 0.1106949970126152
0.8352710008621216 0.4097909927368164 0.11339899897575378
0.8403779864311218 0.4097909927368164 0.11717099696397781
0.8454849720001221 0.4097909927368164 0.11811400204896927
0.8505929708480835 0.4097909927368164 0.11905699968338013
0.8557000160217285 0.4097909927368164 0.1192919984459877
0.865913987159729 0.4097909927368164 0.11952800303697586
0.8965579867362976 0.4097909927368164 0.11905699968338013
0.9374150037765503 0.4097909927368164 0.11339899897575378
0.8965579867362976 0.4097909927368164 0.10774199664592743
0.865913987159729 0.4097909927368164 0.10727100074291229
0.8557000160217285 0.4097909927368164 0.10750699788331985
0.8505929708480835 0.4097909927368164 0.10774199664592743
0.8454849720001221 0.4097909927368164 0.10868500173091888
0.8403779864311218 0.4097909927368164 0.10962799936532974
0.9457430243492126 0.5817170143127441 0.13429899513721466
0.9471870064735413 0.5817170143127441 0.13536499440670013
0.948632001876831 0.5817170143127441 0.1356319934129715
0.9500759840011597 0.5817170143127441 0.13589900732040405
0.9515209794044495 0.5817170143127441 0.1359650045633316
0.9544090032577515 0.5817170143127441 0.13603200018405914
0.9630759954452515 0.5817170143127441 0.13589900732040405
0.9746320247650146 0.5817170143127441 0.13429899513721466
0.9630759954452515 0.5817170143127441 0.13269799947738647
0.9544090032577515 0.5817170143127441 0.13256500661373138
0.9515209794044495 0.5817170143127441 0.13263200223445892
0.9500759840011597 0.5817170143127441 0.13269799947738647
0.948632001876831 0.5817170143127441 0.13296499848365784
0.9471870064735413 0.5817170143127441 0.1332319974899292
0.9457430243492126 0.23786500096321106 0.13429899513721466
0.9471870064735413 0.23786500096321106 0.13536499440670013
0.948632001876831 0.23786500096321106 0.1356319934129715
0.9500759840011597 0.23786500096321106 0.13589900732040405
0.9515209794044495 0.23786500096321106 0.1359650045633316
0.9544090032577515 0.23786500096321106 0.13603200018405914
0.9630759954452515 0.23786500096321106 0.13589900732040405
0.9746320247650146 0.23786500096321106 0.13429899513721466
0.9630759954452515 0.23786500096321106 0.13269799947738647
0.9544090032577515 0.23786500096321106 0.13256500661373138
0.9515209794044495 0.23786500096321106 0.13263200223445892
0.9500759840011597 0.23786500096321106 0.13269799947738647
0.948632001876831 0.23786500096321106 0.13296499848365784
0.9471870064735413 0.23786500096321106 0.1332319974899292
0.02500000037252903 0.4097909927368164 0.07245159894227982
0.03238220140337944 0.41965800523757935 0.07340700179338455
0.03238220140337944 0.4189069867134094 0.07717269659042358
0.03238220140337944 0.41676801443099976 0.08036509901285172
0.03238220140337944 0.4135670065879822 0.08249820023775101
0.03238220140337944 0.4097909927368164 0.08324729651212692
0.03238220140337944 0.4060159921646118 0.08249820023775101
0.03238220140337944 0.4028150141239166 0.08036509901285172
0.03238220140337944 0.40067601203918457 0.07717269659042358
0.03238220140337944 0.39992499351501465 0.07340700179338455
0.03238220140337944 0.40067601203918457 0.06964129954576492
0.03238220140337944 0.4028150141239166 0.06644889712333679
0.03238220140337944 0.4060159921646118 0.0643158033490181
0.03238220140337944 0.4097909927368164 0.06356679648160934
0.03238220140337944 0.4135670065879822 0.0643158033490181
0.03238220140337944 0.41676801443099976 0.06644889712333679
0.03238220140337944 0.4189069867134094 0.06964129954576492
0.06367199867963791 0.43558499217033386 0.07466880232095718
0.06367199867963791 0.43362200260162354 0.08499640226364136
0.06367199867963791 0.42803001403808594 0.0937516987323761
0.06367199867963791 0.4196619987487793 0.09960179775953293
0.06367199867963791 0.4097909927368164 0.1016559973359108
0.06367199867963791 0.3999199867248535 0.09960179775953293
0.06367199867963791 0.39155200123786926 0.0937516987323761
0.06367199867963791 0.38596099615097046 0.08499640226364136
0.06367199867963791 0.38399699330329895 0.07466880232095718
0.06367199867963791 0.38596099615097046 0.06434120237827301
0.06367199867963791 0.39155200123786926 0.05558589845895767
0.06367199867963791 0.3999199867248535 0.04973579943180084
0.06367199867963791 0.4097909927368164 0.047681499272584915
0.06367199867963791 0.4196619987487793 0.04973579943180084
0.06367199867963791 0.42803001403808594 0.05558589845895767
0.06367199867963791 0.43362200260162354 0.06434120237827301
0.10500600188970566 0.4532040059566498 0.08491480350494385
0.10500600188970566 0.44989898800849915 0.10155099630355835
0.10500600188970566 0.4404889941215515 0.11565399914979935
0.10500600188970566 0.42640501260757446 0.1250779926776886
0.10500600188970566 0.4097909927368164 0.12838700413703918
0.10500600188970566 0.39317798614501953 0.1250779926776886
0.10500600188970566 0.3790940046310425 0.11565399914979935
0.10500600188970566 0.36968299746513367 0.10155099630355835
0.10500600188970566 0.3663789927959442 0.08491480350494385
0.10500600188970566 0.36968299746513367 0.06827879697084427
0.10500600188970566 0.3790940046310425 0.054175399243831635
0.10500600188970566 0.39317798614501953 0.04475180059671402
0.10500600188970566 0.4097909927368164 0.04144269973039627
0.10500600188970566 0.42640501260757446 0.04475180059671402
0.10500600188970566 0.4404889941215515 0.054175399243831635
0.10500600188970566 0.44989898800849915 0.06827879697084427
0.16803599894046783 0.45912399888038635 0.09077510237693787
0.16803599894046783 0.4553680121898651 0.109654001891613
0.16803599894046783 0.4446749985218048 0.12565800547599792
0.16803599894046783 0.4286699891090393 0.13635200262069702
0.16803599894046783 0.4097909927368164 0.14010700583457947
0.16803599894046783 0.3909130096435547 0.13635200262069702
0.16803599894046783 0.3749080002307892 0.12565800547599792
0.16803599894046783 0.3642140030860901 0.109654001891613
0.16803599894046783 0.36045899987220764 0.09077510237693787
0.16803599894046783 0.3642140030860901 0.07189639657735825
0.16803599894046783 0.3749080002307892 0.05589180067181587
0.16803599894046783 0.3909130096435547 0.045197900384664536
0.16803599894046783 0.4097909927368164 0.04144269973039627
0.16803599894046783 0.4286699891090393 0.045197900384664536
0.16803599894046783 0.4446749985218048 0.05589180067181587
0.16803599894046783 0.4553680121898651 0.07189639657735825
0.7917659878730774 0.45912399888038635 0.09077510237693787
0.7917659878730774 0.4553680121898651 0.109654001891613
0.7917659878730774 0.4446749985218048 0.12565800547599792
0.7917659878730774 0.4286699891090393 0.13635200262069702
0.7917659878730774 0.4097909927368164 0.14010700583457947
0.7917659878730774 0.3909130096435547 0.13635200262069702
0.7917659878730774 0.3749080002307892 0.12565800547599792
0.7917659878730774 0.3642140030860901 0.109654001891613
0.7917659878730774 0.36045899987220764 0.09077510237693787
0.7917659878730774 0.3642140030860901 0.07189639657735825
0.7917659878730774 0.3749080002307892 0.05589180067181587
0.7917659878730774 0.3909130096435547 0.045197900384664536
0.7917659878730774 0.4097909927368164 0.04144269973039627
0.7917659878730774 0.4286699891090393 0.045197900384664536
0.7917659878730774 0.4446749985218048 0.05589180067181587
0.7917659878730774 0.4553680121898651 0.07189639657735825
0.8292379975318909 0.44838300347328186 0.0967193990945816
0.8292379975318909 0.44570600986480713 0.11363500356674194
0.8292379975318909 0.43796399235725403 0.1262580007314682
0.8292379975318909 0.42592498660087585 0.13437600433826447
0.8292379975318909 0.4097909927368164 0.13718199729919434
0.8292379975318909 0.39365801215171814 0.13437600433826447
0.8292379975318909 0.38161900639533997 0.1262580007314682
0.8292379975318909 0.37387698888778687 0.11363500356674194
0.8292379975318909 0.37119999527931213 0.0967193990945816
0.8292379975318909 0.37387698888778687 0.07980380207300186
0.8292379975318909 0.38161900639533997 0.06718049943447113
0.8292379975318909 0.39365801215171814 0.05906309932470322
0.8292379975318909 0.4097909927368164 0.0562564991414547
0.8292379975318909 0.42592498660087585 0.05906309932470322
0.8292379975318909 0.43796399235725403 0.06718049943447113
0.8292379975318909 0.44570600986480713 0.07980380207300186
0.9750000238418579 0.4097909927368164 0.12057600170373917
0.9750000238418579 0.4097909927368164 0.12452500313520432
0.9750000238418579 0.4097909927368164 0.1261110007762909
0.9750000238418579 0.4097909927368164 0.1269879937171936
0.9750000238418579 0.4097909927368164 0.12727400660514832
0.9750000238418579 0.4097909927368164 0.116627998650074
0.9750000238418579 0.4097909927368164 0.11504100263118744
0.9750000238418579 0.4097909927368164 0.11416400223970413
0.9750000238418579 0.4097909927368164 0.1138790026307106
0.4477890133857727 0.6213780045509338 0.06399469822645187
0.4477890133857727 0.6189969778060913 0.06399469822645187
0.4477890133857727 0.6122140288352966 0.06399469822645187
0.4477890133857727 0.6020619869232178 0.06399469822645187
0.4477890133857727 0.5900880098342896 0.06399469822645187
0.4477890133857727 0.5781130194664001 0.06399469822645187
0.4477890133857727 0.5679619908332825 0.06399469822645187
0.4477890133857727 0.561178982257843 0.06399469822645187
0.4477890133857727 0.5587970018386841 0.06399469822645187
0.3546150028705597 0.6214969754219055 0.06392549723386765
0.3546150028705597 0.6191059947013855 0.07568150013685226
0.3546150028705597 0.6122980117797852 0.08564779907464981
0.3546150028705597 0.6021080017089844 0.09230700135231018
0.3546150028705597 0.5900880098342896 0.09464540332555771
0.3546150028705597 0.5780680179595947 0.09230700135231018
0.3546150028705597 0.567878007888794 0.08564779907464981
0.3546150028705597 0.5610690116882324 0.07568150013685226
0.3546150028705597 0.5586779713630676 0.06392549723386765
0.3546150028705597 0.5610690116882324 0.05216950178146362
0.3546150028705597 0.567878007888794 0.04220319911837578
0.3546150028705597 0.5780680179595947 0.03554400056600571
0.3546150028705597 0.5900880098342896 0.03320559859275818
0.3546150028705597 0.6021080017089844 0.03554400056600571
0.3546150028705597 0.6122980117797852 0.04220319911837578
0.3546150028705597 0.6191059947013855 0.05216950178146362
0.40992799401283264 0.6272979974746704 0.062172699719667435
0.40992799401283264 0.6244660019874573 0.07639800012111664
0.40992799401283264 0.6164000034332275 0.08845770359039307
0.40992799401283264 0.6043270230293274 0.0965157002210617
0.40992799401283264 0.5900880098342896 0.09934529662132263
0.40992799401283264 0.5758479833602905 0.0965157002210617
0.40992799401283264 0.5637760162353516 0.08845770359039307
0.40992799401283264 0.5557090044021606 0.07639800012111664
0.40992799401283264 0.5528770089149475 0.062172699719667435
0.40992799401283264 0.5557090044021606 0.04794729873538017
0.40992799401283264 0.5637760162353516 0.03588759899139404
0.40992799401283264 0.5758479833602905 0.027829600498080254
0.40992799401283264 0.5900880098342896 0.02500000037252903
0.40992799401283264 0.6043270230293274 0.027829600498080254
0.40992799401283264 0.6164000034332275 0.03588759899139404
0.40992799401283264 0.6244660019874573 0.04794729873538017
0.4556550085544586 0.6225060224533081 0.0604666993021965
0.4556550085544586 0.6200379729270935 0.07212390005588531
0.4556550085544586 0.6130110025405884 0.0820062980055809
0.4556550085544586 0.6024940013885498 0.08860950171947479
0.4556550085544586 0.5900880098342896 0.09092830121517181
0.4556550085544586 0.5776820182800293 0.08860950171947479
0.4556550085544586 0.5671640038490295 0.0820062980055809
0.4556550085544586 0.5601369738578796 0.07212390005588531
0.4556550085544586 0.5576689839363098 0.0604666993021965
0.4556550085544586 0.5601369738578796 0.04880959913134575
0.4556550085544586 0.5671640038490295 0.03892720118165016
0.4556550085544586 0.5776820182800293 0.03232400119304657
0.4556550085544586 0.5900880098342896 0.0300051998347044
0.4556550085544586 0.6024940013885498 0.03232400119304657
0.4556550085544586 0.6130110025405884 0.03892720118165016
0.4556550085544586 0.6200379729270935 0.04880959913134575
0.44873300194740295 0.6088340282440186 0.05976669862866402
0.44873300194740295 0.6074069738388062 0.06694090366363525
0.44873300194740295 0.6033430099487305 0.0730229988694191
0.44873300194740295 0.5972610116004944 0.07708679884672165
0.44873300194740295 0.5900880098342896 0.07851389795541763
0.44873300194740295 0.5829139947891235 0.07708679884672165
0.44873300194740295 0.5768319964408875 0.0730229988694191
0.44873300194740295 0.572767972946167 0.06694090366363525
0.44873300194740295 0.5713409781455994 0.05976669862866402
0.44873300194740295 0.572767972946167 0.052592501044273376
0.44873300194740295 0.5768319964408875 0.046510498970746994
0.44873300194740295 0.5829139947891235 0.042446598410606384
0.44873300194740295 0.5900880098342896 0.04101959988474846
0.44873300194740295 0.5972610116004944 0.042446598410606384
0.44873300194740295 0.6033430099487305 0.046510498970746994
0.44873300194740295 0.6074069738388062 0.052592501044273376
0.47740599513053894 0.6060150265693665 0.06029900163412094
0.47740599513053894 0.6048020124435425 0.0664656013250351
0.47740599513053894 0.6013500094413757 0.07169350236654282
0.47740599513053894 0.5961830019950867 0.0751866027712822
0.47740599513053894 0.5900880098342896 0.07641319930553436
0.47740599513053894 0.5839920043945312 0.0751866027712822
0.47740599513053894 0.5788249969482422 0.07169350236654282
0.47740599513053894 0.5753729939460754 0.0664656013250351
0.47740599513053894 0.5741599798202515 0.06029900163412094
0.47740599513053894 0.5753729939460754 0.05413239821791649
0.47740599513053894 0.5788249969482422 0.048904601484537125
0.47740599513053894 0.5839920043945312 0.045411400496959686
0.47740599513053894 0.5900880098342896 0.04418480023741722
0.47740599513053894 0.5961830019950867 0.045411400496959686
0.47740599513053894 0.6013500094413757 0.048904601484537125
0.47740599513053894 0.6048020124435425 0.05413239821791649
0.511385977268219 0.5900880098342896 0.05835669860243797
0.4477890133857727 0.2607859969139099 0.06399469822645187
0.4477890133857727 0.2584039866924286 0.06399469822645187
0.4477890133857727 0.2516210079193115 0.06399469822645187
0.4477890133857727 0.24146899580955505 0.06399469822645187
0.4477890133857727 0.22949500381946564 0.06399469822645187
0.4477890133857727 0.21752099692821503 0.06399469822645187
0.4477890133857727 0.20736899971961975 0.06399469822645187
0.4477890133857727 0.2005860060453415 0.06399469822645187
0.4477890133857727 0.19820399582386017 0.06399469822645187
0.3546150028705597 0.260904997587204 0.06392549723386765
0.3546150028705597 0.2585139870643616 0.07568150013685226
0.3546150028705597 0.25170499086380005 0.08564779907464981
0.3546150028705597 0.24151499569416046 0.09230700135231018
0.3546150028705597 0.22949500381946564 0.09464540332555771
0.3546150028705597 0.21747499704360962 0.09230700135231018
0.3546150028705597 0.20728500187397003 0.08564779907464981
0.3546150028705597 0.2004760056734085 0.07568150013685226
0.3546150028705597 0.1980849951505661 0.06392549723386765
0.3546150028705597 0.2004760056734085 0.05216950178146362
0.3546150028705597 0.20728500187397003 0.04220319911837578
0.3546150028705597 0.21747499704360962 0.03554400056600571
0.3546150028705597 0.22949500381946564 0.03320559859275818
0.3546150028705597 0.24151499569416046 0.03554400056600571
0.3546150028705597 0.25170499086380005 0.04220319911837578
0.3546150028705597 0.2585139870643616 0.05216950178146362
0.40992799401283264 0.2667059898376465 0.062172699719667435
0.40992799401283264 0.26387301087379456 0.07639800012111664
0.40992799401283264 0.2558070123195648 0.08845770359039307
0.40992799401283264 0.24373500049114227 0.0965157002210617
0.40992799401283264 0.22949500381946564 0.09934529662132263
0.40992799401283264 0.215255007147789 0.0965157002210617
0.40992799401283264 0.20318299531936646 0.08845770359039307
0.40992799401283264 0.19511699676513672 0.07639800012111664
0.40992799401283264 0.1922840029001236 0.062172699719667435
0.40992799401283264 0.19511699676513672 0.04794729873538017
0.40992799401283264 0.20318299531936646 0.03588759899139404
0.40992799401283264 0.215255007147789 0.027829600498080254
0.40992799401283264 0.22949500381946564 0.02500000037252903
0.40992799401283264 0.24373500049114227 0.027829600498080254
0.40992799401283264 0.2558070123195648 0.03588759899139404
0.40992799401283264 0.26387301087379456 0.04794729873538017
0.4556550085544586 0.261913001537323 0.0604666993021965
0.4556550085544586 0.25944599509239197 0.07212390005588531
0.4556550085544586 0.25241801142692566 0.0820062980055809
0.4556550085544586 0.2419009953737259 0.08860950171947479
0.4556550085544586 0.22949500381946564 0.09092830121517181
0.4556550085544586 0.2170889973640442 0.08860950171947479
0.4556550085544586 0.20657199621200562 0.0820062980055809
0.4556550085544586 0.1995439976453781 0.07212390005588531
0.4556550085544586 0.19707700610160828 0.0604666993021965
0.4556550085544586 0.1995439976453781 0.04880959913134575
0.4556550085544586 0.20657199621200562 0.03892720118165016
0.4556550085544586 0.2170889973640442 0.03232400119304657
0.4556550085544586 0.22949500381946564 0.0300051998347044
0.4556550085544586 0.2419009953737259 0.03232400119304657
0.4556550085544586 0.25241801142692566 0.03892720118165016
0.4556550085544586 0.25944599509239197 0.04880959913134575
0.44873300194740295 0.24824100732803345 0.05976669862866402
0.44873300194740295 0.24681399762630463 0.06694090366363525
0.44873300194740295 0.24275100231170654 0.0730229988694191
0.44873300194740295 0.23666900396347046 0.07708679884672165
0.44873300194740295 0.22949500381946564 0.07851389795541763
0.44873300194740295 0.22232100367546082 0.07708679884672165
0.44873300194740295 0.21623900532722473 0.0730229988694191
0.44873300194740295 0.21217599511146545 0.06694090366363525
0.44873300194740295 0.21074900031089783 0.05976669862866402
0.44873300194740295 0.21217599511146545 0.052592501044273376
0.44873300194740295 0.21623900532722473 0.046510498970746994
0.44873300194740295 0.22232100367546082 0.042446598410606384
0.44873300194740295 0.22949500381946564 0.04101959988474846
0.44873300194740295 0.23666900396347046 0.042446598410606384
0.44873300194740295 0.24275100231170654 0.046510498970746994
0.44873300194740295 0.24681399762630463 0.052592501044273376
0.47740599513053894 0.24542200565338135 0.06029900163412094
0.47740599513053894 0.24421000480651855 0.0664656013250351
0.47740599513053894 0.24075700342655182 0.07169350236654282
0.47740599513053894 0.23558999598026276 0.0751866027712822
0.47740599513053894 0.22949500381946564 0.07641319930553436
0.47740599513053894 0.22339999675750732 0.0751866027712822
0.47740599513053894 0.21823300421237946 0.07169350236654282
0.47740599513053894 0.21478000283241272 0.0664656013250351
0.47740599513053894 0.21356800198554993 0.06029900163412094
0.47740599513053894 0.21478000283241272 0.05413239821791649
0.47740599513053894 0.21823300421237946 0.048904601484537125
0.47740599513053894 0.22339999675750732 0.045411400496959686
0.47740599513053894 0.22949500381946564 0.04418480023741722
0.47740599513053894 0.23558999598026276 0.045411400496959686
0.47740599513053894 0.24075700342655182 0.048904601484537125
0.47740599513053894 0.24421000480651855 0.05413239821791649
0.511385977268219 0.22949500381946564 0.05835669860243797
0.7216020226478577 0.4097909927368164 0.12327700108289719
0.7308470010757446 0.41548100113868713 0.12327700108289719
0.7400919795036316 0.41690298914909363 0.12327700108289719
0.7493379712104797 0.4183250069618225 0.12327700108289719
0.7585830092430115 0.41868099570274353 0.12327700108289719
0.7770730257034302 0.41903600096702576 0.12327700108289719
0.8325440287590027 0.4183250069618225 0.12327700108289719
0.9065049886703491 0.4097909927368164 0.12327700108289719
0.8325440287590027 0.4012570083141327 0.12327700108289719
0.7770730257034302 0.40054601430892944 0.12327700108289719
0.7585830092430115 0.40090200304985046 0.12327700108289719
0.7493379712104797 0.4012570083141327 0.12327700108289719
0.7400919795036316 0.40268000960350037 0.12327700108289719
0.7308470010757446 0.40410199761390686 0.12327700108289719
0.9099709987640381 0.4097909927368164 0.27184098958969116
0.9117699861526489 0.41089800000190735 0.27184098958969116
0.9135680198669434 0.411175012588501 0.27184098958969116
0.9153670072555542 0.4114519953727722 0.27184098958969116
0.917165994644165 0.41152098774909973 0.27184098958969116
0.9207630157470703 0.41159000992774963 0.27184098958969116
0.9315540194511414 0.4114519953727722 0.27184098958969116
0.9459429979324341 0.4097909927368164 0.27184098958969116
0.9315540194511414 0.4081310033798218 0.27184098958969116
0.9207630157470703 0.40799298882484436 0.27184098958969116
0.917165994644165 0.40806201100349426 0.27184098958969116
0.9153670072555542 0.4081310033798218 0.27184098958969116
0.9135680198669434 0.408407986164093 0.27184098958969116
0.9117699861526489 0.40868398547172546 0.27184098958969116
0.16803599894046783 0.4070169925689697 0.09693469852209091
0.2013310045003891 0.4070169925689697 0.09693469852209091
0.2013310045003891 0.42366400361061096 0.09693469852209091
0.16803599894046783 0.42366400361061096 0.09693469852209091
0.16803599894046783 0.4070169925689697 0.1246810033917427
0.2013310045003891 0.4070169925689697 0.1246810033917427
0.2013310045003891 0.42366400361061096 0.1246810033917427
0.16803599894046783 0.42366400361061096 0.1246810033917427
3 0 15 14
3 1 16 15
3 2 17 16
3 3 18 17
3 4 19 18
3 5 20 19
3 6 21 20
3 7 22 21
3 8 23 22
3 9 24 23
3 10 25 24
3 11 26 25
3 12 27 26
3 13 14 27
3 0 1 15
3 1 2 16
3 2 3 17
3 3 4 18
3 4 5 19
3 5 6 20
3 6 7 21
3 7 8 22
3 8 9 23
3 9 10 24
3 10 11 25
3 11 12 26
3 12 13 27
3 13 0 14
3 28 43 42
3 29 44 43
3 30 45 44
3 31 46 45
3 32 47 46
3 33 48 47
3 34 49 48
3 35 50 49
3 36 51 50
3 37 52 51
3 38 53 52
3 39 54 53
3 40 55 54
3 41 42 55
3 28 29 43
3 29 30 44
3 30 31 45
3 31 32 46
3 32 33 47
3 33 34 48
3 34 35 49
3 35 36 50
3 36 37 51
3 37 38 52
3 38 39 53
3 39 40 54
3 40 41 55
3 41 28 42
3 14 57 56
3 15 58 57
3 16 59 58
3 17 60 59
3 18 61 60
3 19 62 61
3 20 63 62
3 21 64 63
3 22 65 64
3 23 66 65
3 24 67 66
3 25 68 67
3 26 69 68
3 27 56 69
3 14 15 57
3 15 16 58
3 16 17 59
3 17 18 60
3 18 19 61
3 19 20 62
3 20 21 63
3 21 22 64
3 22 23 65
3 23 24 66
3 24 25 67
3 25 26 68
3 26 27 69
3 27 14 56
3 42 71 70
3 43 72 71
3 44 73 72
3 45 74 73
3 46 75 74
3 47 76 75
3 48 77 76
3 49 78 77
3 50 79 78
3 51 80 79
3 52 81 80
3 53 82 81
3 54 83 82
3 55 70 83
3 42 43 71
3 43 44 72
3 44 45 73
3 45 46 74
3 46 47 75
3 47 48 76
3 48 49 77
3 49 50 78
3 50 51 79
3 51 52 80
3 52 53 81
3 53 54 82
3 54 55 83
3 55 42 70
3 84 99 98
3 85 100 99
3 86 101 100
3 87 102 101
3 88 103 102
3 89 104 103
3 90 105 104
3 91 106 105
3 92 107 106
3 93 108 107
3 94 109 108
3 95 110 109
3 96 111 110
3 97 98 111
3 84 85 99
3 85 86 100
3 86 87 101
3 87 88 102
3 88 89 103
3 89 90 104
3 90 91 105
3 91 92 106
3 92 93 107
3 93 94 108
3 94 95 109
3 95 96 110
3 96 97 111
3 97 84 98
3 84 113 112
3 85 114 113
3 86 115 114
3 87 116 115
3 88 117 116
3 89 118 117
3 90 119 118
3 91 120 119
3 92 121 120
3 93 122 121
3 94 123 122
3 95 124 123
3 96 125 124
3 97 112 125
3 84 85 113
3 85 86 114
3 86 87 115
3 87 88 116
3 88 89 117
3 89 90 118
3 90 91 119
3 91 92 120
3 92 93 121
3 93 94 122
3 94 95 123
3 95 96 124
3 96 97 125
3 97 84 112
3 126 128 127
3 126 129 128
3 126 130 129
3 126 131 130
3 126 132 131
3 126 133 132
3 126 134 133
3 126 135 134
3 126 136 135
3 126 137 136
3 126 138 137
3 126 139 138
3 126 140 139
3 126 141 140
3 126 142 141
3 126 127 142
3 127 144 143
3 128 145 144
3 129 146 145
3 130 147 146
3 131 148 147
3 132 149 148
3 133 150 149
3 134 151 150
3 135 152 151
3 136 153 152
3 137 154 153
3 138 155 154
3 139 156 155
3 140 157 156
3 141 158 157
3 142 143 158
3 143 160 159
3 144 161 160
3 145 162 161
3 146 163 162
3 147 164 163
3 148 165 164
3 149 166 165
3 150 167 166
3 151 168 167
3 152 169 168
3 153 170 169
3 154 171 170
3 155 172 171
3 156 173 172
3 157 174 173
3 158 159 174
3 159 176 175
3 160 177 176
3 161 178 177
3 162 179 178
3 163 180 179
3 164 181 180
3 165 182 181
3 166 183 182
3 167 184 183
3 168 185 184
3 169 186 185
3 170 187 186
3 171 188 187
3 172 189 188
3 173 190 189
3 174 175 190
3 175 192 191
3 176 193 192
3 177 194 193
3 178 195 194
3 179 196 195
3 180 197 196
3 181 198 197
3 182 199 198
3 183 200 199
3 184 201 200
3 185 202 201
3 186 203 202
3 187 204 203
3 188 205 204
3 189 206 205
3 190 191 206
3 191 208 207
3 192 209 208
3 193 210 209
3 194 211 210
3 195 212 211
3 196 213 212
3 197 214 213
3 198 215 214
3 199 216 215
3 200 217 216
3 201 218 217
3 202 219 218
3 203 220 219
3 204 221 220
3 205 222 221
3 206 207 222
3 207 224 223
3 208 225 224
3 209 226 225
3 210 227 226
3 211 226 227
3 212 225 226
3 213 224 225
3 214 223 224
3 215 228 223
3 216 229 228
3 217 230 229
3 218 231 230
3 219 230 231
3 220 229 230
3 221 228 229
3 222 223 228
3 127 128 144
3 128 129 145
3 129 130 146
3 130 131 147
3 131 132 148
3 132 133 149
3 133 134 150
3 134 135 151
3 135 136 152
3 136 137 153
3 137 138 154
3 138 139 155
3 139 140 156
3 140 141 157
3 141 142 158
3 142 127 143
3 143 144 160
3 144 145 161
3 145 146 162
3 146 147 163
3 147 148 164
3 148 149 165
3 149 150 166
3 150 151 167
3 151 152 168
3 152 153 169
3 153 154 170
3 154 155 171
3 155 156 172
3 156 157 173
3 157 158 174
3 158 143 159
3 159 160 176
3 160 161 177
3 161 162 178
3 162 163 179
3 163 164 180
3 164 165 181
3 165 166 182
3 166 167 183
3 167 168 184
3 168 169 185
3 169 170 186
3 170 171 187
3 171 172 188
3 172 173 189
3 173 174 190
3 174 159 175
3 175 176 192
3 176 177 193
3 177 178 194
3 178 179 195
3 179 180 196
3 180 181 197
3 181 182 198
3 182 183 199
3 183 184 200
3 184 185 201
3 185 186 202
3 186 187 203
3 187 188 204
3 188 189 205
3 189 190 206
3 190 175 191
3 191 192 208
3 192 193 209
3 193 194 210
3 194 195 211
3 195 196 212
3 196 197 213
3 197 198 214
3 198 199 215
3 199 200 216
3 200 201 217
3 201 202 218
3 202 203 219
3 203 204 220
3 204 205 221
3 205 206 222
3 206 191 207
3 207 208 224
3 208 209 225
3 209 210 226
3 210 211 227
3 211 212 226
3 212 213 225
3 213 214 224
3 214 215 223
3 215 216 228
3 216 217 229
3 217 218 230
3 218 219 231
3 219 220 230
3 220 221 229
3 221 222 228
3 222 207 223
3 232 242 241
3 233 243 242
3 234 244 243
3 235 245 244
3 236 246 245
3 237 247 246
3 238 248 247
3 239 249 248
3 240 250 249
3 239 251 250
3 238 252 251
3 237 253 252
3 236 254 253
3 235 255 254
3 234 256 255
3 233 241 256
3 241 258 257
3 242 259 258
3 243 260 259
3 244 261 260
3 245 262 261
3 246 263 262
3 247 264 263
3 248 265 264
3 249 266 265
3 250 267 266
3 251 268 267
3 252 269 268
3 253 270 269
3 254 271 270
3 255 272 271
3 256 257 272
3 257 274 273
3 258 275 274
3 259 276 275
3 260 277 276
3 261 278 277
3 262 279 278
3 263 280 279
3 264 281 280
3 265 282 281
3 266 283 282
3 267 284 283
3 268 285 284
3 269 286 285
3 270 287 286
3 271 288 287
3 272 273 288
3 273 290 289
3 274 291 290
3 275 292 291
3 276 293 292
3 277 294 293
3 278 295 294
3 279 296 295
3 280 297 296
3 281 298 297
3 282 299 298
3 283 300 299
3 284 301 300
3 285 302 301
3 286 303 302
3 287 304 303
3 288 289 304
3 289 306 305
3 290 307 306
3 291 308 307
3 292 309 308
3 293 310 309
3 294 311 310
3 295 312 311
3 296 313 312
3 297 314 313
3 298 315 314
3 299 316 315
3 300 317 316
3 301 318 317
3 302 319 318
3 303 320 319
3 304 305 320
3 232 233 242
3 233 234 243
3 234 235 244
3 235 236 245
3 236 237 246
3 237 238 247
3 238 239 248
3 239 240 249
3 240 239 250
3 239 238 251
3 238 237 252
3 237 236 253
3 236 235 254
3 235 234 255
3 234 233 256
3 233 232 241
3 241 242 258
3 242 243 259
3 243 244 260
3 244 245 261
3 245 246 262
3 246 247 263
3 247 248 264
3 248 249 265
3 249 250 266
3 250 251 267
3 251 252 268
3 252 253 269
3 253 254 270
3 254 255 271
3 255 256 272
3 256 241 257
3 257 258 274
3 258 259 275
3 259 260 276
3 260 261 277
3 261 262 278
3 262 263 279
3 263 264 280
3 264 265 281
3 265 266 282
3 266 267 283
3 267 268 284
3 268 269 285
3 269 270 286
3 270 271 287
3 271 272 288
3 272 257 273
3 273 274 290
3 274 275 291
3 275 276 292
3 276 277 293
3 277 278 294
3 278 279 295
3 279 280 296
3 280 281 297
3 281 282 298
3 282 283 299
3 283 284 300
3 284 285 301
3 285 286 302
3 286 287 303
3 287 288 304
3 288 273 289
3 289 290 306
3 290 291 307
3 291 292 308
3 292 293 309
3 293 294 310
3 294 295 311
3 295 296 312
3 296 297 313
3 297 298 314
3 298 299 315
3 299 300 316
3 300 301 317
3 301 302 318
3 302 303 319
3 303 304 320
3 304 289 305
3 305 306 321
3 306 307 321
3 307 308 321
3 308 309 321
3 309 310 321
3 310 311 321
3 311 312 321
3 312 313 321
3 313 314 321
3 314 315 321
3 315 316 321
3 316 317 321
3 317 318 321
3 318 319 321
3 319 320 321
3 320 305 321
3 322 332 331
3 323 333 332
3 324 334 333
3 325 335 334
3 326 336 335
3 327 337 336
3 328 338 337
3 329 339 338
3 330 340 339
3 329 341 340
3 328 342 341
3 327 343 342
3 326 344 343
3 325 345 344
3 324 346 345
3 323 331 346
3 331 348 347
3 332 349 348
3 333 350 349
3 334 351 350
3 335 352 351
3 336 353 352
3 337 354 353
3 338 355 354
3 339 356 355
3 340 357 356
3 341 358 357
3 342 359 358
3 343 360 359
3 344 361 360
3 345 362 361
3 346 347 362
3 347 364 363
3 348 365 364
3 349 366 365
3 350 367 366
3 351 368 367
3 352 369 368
3 353 370 369
3 354 371 370
3 355 372 371
3 356 373 372
3 357 374 373
3 358 375 374
3 359 376 375
3 360 377 376
3 361 378 377
3 362 363 378
3 363 380 379
3 364 381 380
3 365 382 381
3 366 383 382
3 367 384 383
3 368 385 384
3 369 386 385
3 370 387 386
3 371 388 387
3 372 389 388
3 373 390 389
3 374 391 390
3 375 392 391
3 376 393 392
3 377 394 393
3 378 379 394
3 379 396 395
3 380 397 396
3 381 398 397
3 382 399 398
3 383 400 399
3 384 401 400
3 385 402 401
3 386 403 402
3 387 404 403
3 388 405 404
3 389 406 405
3 390 407 406
3 391 408 407
3 392 409 408
3 393 410 409
3 394 395 410
3 322 323 332
3 323 324 333
3 324 325 334
3 325 326 335
3 326 327 336
3 327 328 337
3 328 329 338
3 329 330 339
3 330 329 340
3 329 328 341
3 328 327 342
3 327 326 343
3 326 325 344
3 325 324 345
3 324 323 346
3 323 322 331
3 331 332 348
3 332 333 349
3 333 334 350
3 334 335 351
3 335 336 352
3 336 337 353
3 337 338 354
3 338 339 355
3 339 340 356
3 340 341 357
3 341 342 358
3 342 343 359
3 343 344 360
3 344 345 361
3 345 346 362
3 346 331 347
3 347 348 364
3 348 349 365
3 349 350 366
3 350 351 367
3 351 352 368
3 352 353 369
3 353 354 370
3 354 355 371
3 355 356 372
3 356 357 373
3 357 358 374
3 358 359 375
3 359 360 376
3 360 361 377
3 361 362 378
3 362 347 363
3 363 364 380
3 364 365 381
3 365 366 382
3 366 367 383
3 367 368 384
3 368 369 385
3 369 370 386
3 370 371 387
3 371 372 388
3 372 373 389
3 373 374 390
3 374 375 391
3 375 376 392
3 376 377 393
3 377 378 394
3 378 363 379
3 379 380 396
3 380 381 397
3 381 382 398
3 382 383 399
3 383 384 400
3 384 385 401
3 385 386 402
3 386 387 403
3 387 388 404
3 388 389 405
3 389 390 406
3 390 391 407
3 391 392 408
3 392 393 409
3 393 394 410
3 394 379 395
3 395 396 411
3 396 397 411
3 397 398 411
3 398 399 411
3 399 400 411
3 400 401 411
3 401 402 411
3 402 403 411
3 403 404 411
3 404 405 411
3 405 406 411
3 406 407 411
3 407 408 411
3 408 409 411
3 409 410 411
3 410 395 411
3 412 427 426
3 413 428 427
3 414 429 428
3 415 430 429
3 416 431 430
3 417 432 431
3 418 433 432
3 419 434 433
3 420 435 434
3 421 436 435
3 422 437 436
3 423 438 437
3 424 439 438
3 425 426 439
3 412 413 427
3 413 414 428
3 414 415 429
3 415 416 430
3 416 417 431
3 417 418 432
3 418 419 433
3 419 420 434
3 420 421 435
3 421 422 436
3 422 423 437
3 423 424 438
3 424 425 439
3 425 412 426
3 440 443 441
3 441 443 442
3 440 445 444
3 440 441 445
3 440 444 443
3 443 444 447
3 443 447 446
3 443 446 442
3 441 446 445
3 441 442 446
3 445 447 444
3 445 446 447
