ply
format ascii 1.0
element vertex 296
property float x
property float y
property float z
element face 558
property list uchar int vertex_indices
end_header
0.029619500041007996 0.08693250268697739 0.3377619981765747
0.02500000037252903 0.07712829858064651 0.3299430012702942
0.02928359992802143 0.0895209014415741 0.3299430012702942
0.030558699741959572 0.07983130216598511 0.34167200326919556
0.031581901013851166 0.07207349687814713 0.340366005897522
0.032261498272418976 0.06691189855337143 0.33385300636291504
0.032261498272418976 0.06691189855337143 0.32602599263191223
0.031581901013851166 0.07207349687814713 0.3195129930973053
0.030558699741959572 0.07983130216598511 0.3182080090045929
0.029619500041007996 0.08693250268697739 0.32211700081825256
0.06827860325574875 0.10780800133943558 0.3090830147266388
0.06726309657096863 0.11555799841880798 0.3299359977245331
0.07082889974117279 0.0884137973189354 0.29801100492477417
0.07363879680633545 0.06710279732942581 0.301921010017395
0.07550960034132004 0.052885301411151886 0.31885701417922974
0.07550960034132004 0.052885301411151886 0.3410229980945587
0.07363879680633545 0.06710279732942581 0.35795900225639343
0.07082889974117279 0.0884137973189354 0.3618679940700531
0.06827860325574875 0.10780800133943558 0.35079601407051086
0.1147259995341301 0.12443099915981293 0.30061501264572144
0.11327499896287918 0.13541899621486664 0.3299359977245331
0.11829199641942978 0.09729400277137756 0.28432801365852356
0.12229300290346146 0.06693480163812637 0.29019200801849365
0.12501099705696106 0.04625749960541725 0.31429800391197205
0.12501099705696106 0.04625749960541725 0.3455809950828552
0.12229300290346146 0.06693480163812637 0.3696869909763336
0.11829199641942978 0.09729400277137756 0.3755509853363037
0.1147259995341301 0.12443099915981293 0.35926398634910583
0.16012699902057648 0.13895399868488312 0.29344499111175537
0.1584250032901764 0.15187300741672516 0.3299359977245331
0.16454799473285675 0.10536500066518784 0.27389800548553467
0.16948099434375763 0.06788919866085052 0.2804189920425415
0.17280299961566925 0.04269170016050339 0.3103890120983124
0.17280299961566925 0.04269170016050339 0.3494910001754761
0.16948099434375763 0.06788919866085052 0.37946000695228577
0.16454799473285675 0.10536500066518784 0.3859809935092926
0.16012699902057648 0.13895399868488312 0.3664340078830719
0.49869000911712646 0.06409429758787155 0.4341920018196106
0.484358012676239 0.046501901000738144 0.4420109987258911
0.19636599719524384 0.06149059906601906 0.39575499296188354
0.5104190111160278 0.06995850056409836 0.42312100529670715
0.25109800696372986 0.0673547014594078 0.3996640145778656
0.5182380080223083 0.07973209768533707 0.39900800585746765
0.5703660249710083 0.0582301989197731 0.4732869863510132
0.5703660249710083 0.04780760034918785 0.48501500487327576
0.5703660249710083 0.06474339962005615 0.45895498991012573
0.5703660249710083 0.07517360150814056 0.42767900228500366
0.5703660249710083 0.07908300310373306 0.39900800585746765
0.7208870053291321 0.05562639981508255 0.6348789930343628
0.7208870053291321 0.05953589826822281 0.6211959719657898
0.7208870053291321 0.06409429758787155 0.6088190078735352
0.7756189703941345 0.060833901166915894 0.6348789930343628
0.7234910130500793 0.0543208010494709 0.3983590006828308
0.7756189703941345 0.0536716990172863 0.5358380079269409
0.7756189703941345 0.04780760034918785 0.4074830114841461
0.7756189703941345 0.0536716990172863 0.5319280028343201
0.7756189703941345 0.04780760034918785 0.40357398986816406
0.19636599719524384 0.042592499405145645 0.3833700120449066
0.25109800696372986 0.036079298704862595 0.3299430012702942
0.19636599719524384 0.038033999502658844 0.3299430012702942
0.5175889730453491 0.030864199623465538 0.3299430012702942
0.19636599719524384 0.05562639981508255 0.39575499296188354
0.5104190111160278 0.034124601632356644 0.42312100529670715
0.5703660249710083 0.03933199867606163 0.45895498991012573
0.5703660249710083 0.02955850027501583 0.3299430012702942
0.7208870053291321 0.05106030032038689 0.6088190078735352
0.7234910130500793 0.02500000037252903 0.3299430012702942
0.7756189703941345 0.053015101701021194 0.6348789930343628
0.7756189703941345 0.02955850027501583 0.40813198685646057
0.7756189703941345 0.02955850027501583 0.4042229950428009
0.7756189703941345 0.03998870030045509 0.5319280028343201
0.7756189703941345 0.03998870030045509 0.5358380079269409
0.19636599719524384 0.13056200742721558 0.3937999904155731
0.25109800696372986 0.12404900044202805 0.3983590006828308
0.24928799271583557 0.15141500532627106 0.39770999550819397
0.19636599719524384 0.1716109961271286 0.3599129915237427
0.24744799733161926 0.17942999303340912 0.3644790053367615
0.19636599719524384 0.17942999303340912 0.3299359977245331
0.247189000248909 0.18333999812602997 0.3299359977245331
0.25109800696372986 0.09341509640216827 0.3892340064048767
0.7234910130500793 0.09341509640216827 0.3892340064048767
0.7234910130500793 0.12404900044202805 0.3892340064048767
0.25109800696372986 0.12404900044202805 0.3892340064048767
0.25109800696372986 0.06278859823942184 0.37034299969673157
0.7234910130500793 0.06278859823942184 0.37034299969673157
0.25109800696372986 0.05627550184726715 0.3299430012702942
0.7234910130500793 0.05627550184726715 0.3299430012702942
0.4830529987812042 0.12404900044202805 0.3983590006828308
0.7234910130500793 0.12404900044202805 0.3983590006828308
0.7234910130500793 0.18333999812602997 0.3299359977245331
0.7234910130500793 0.17942999303340912 0.3644790053367615
0.7234910130500793 0.15141500532627106 0.39770999550819397
0.25109800696372986 0.12404900044202805 0.3299359977245331
0.8635810017585754 0.036079298704862595 0.4133470058441162
0.8453400135040283 0.12730200588703156 0.4113929867744446
0.8603209853172302 0.053015101701021194 0.4133470058441162
0.756721019744873 0.13121099770069122 0.40487200021743774
0.7925620079040527 0.19115899503231049 0.3410229980945587
0.7560719847679138 0.18203400075435638 0.35209399461746216
0.8270909786224365 0.1944189965724945 0.3390679955482483
0.8290449976921082 0.18789799511432648 0.34623000025749207
0.8635810017585754 0.036079298704862595 0.3299430012702942
0.8453400135040283 0.12730200588703156 0.3299359977245331
0.846638023853302 0.11948300153017044 0.36577698588371277
0.8505470156669617 0.10123399645090103 0.39444899559020996
0.8570680022239685 0.06930950284004211 0.39444899559020996
0.8603209853172302 0.053015101701021194 0.36577698588371277
0.8603209853172302 0.053015101701021194 0.3299430012702942
0.857716977596283 0.0666980966925621 0.3345020115375519
0.8505470156669617 0.10254000127315521 0.3332040011882782
0.8431329727172852 0.13644899427890778 0.3599129915237427
0.8479819893836975 0.11953700333833694 0.3299359977245331
0.8337950110435486 0.16901500523090363 0.3599129915237427
0.8270909786224365 0.1944189965724945 0.3299359977245331
0.8289459943771362 0.18592800199985504 0.3299359977245331
0.49869000911712646 0.06409429758787155 0.22568699717521667
0.484358012676239 0.046501901000738144 0.21786800026893616
0.19636599719524384 0.06149059906601906 0.2641240060329437
0.5104190111160278 0.06995850056409836 0.23675799369812012
0.25109800696372986 0.0673547014594078 0.26021501421928406
0.5182380080223083 0.07973209768533707 0.2608720064163208
0.5703660249710083 0.0582301989197731 0.1865919977426529
0.5703660249710083 0.04780760034918785 0.1748639941215515
0.5703660249710083 0.06474339962005615 0.20092499256134033
0.5703660249710083 0.07517360150814056 0.2321999967098236
0.5703660249710083 0.07908300310373306 0.2608720064163208
0.7208870053291321 0.05562639981508255 0.02500000037252903
0.7208870053291321 0.05953589826822281 0.038683000952005386
0.7208870053291321 0.06409429758787155 0.05106030032038689
0.7756189703941345 0.060833901166915894 0.02500000037252903
0.7234910130500793 0.0543208010494709 0.26152101159095764
0.7756189703941345 0.0536716990172863 0.12404199689626694
0.7756189703941345 0.0536716990172863 0.1279509961605072
0.7756189703941345 0.04780760034918785 0.25239598751068115
0.7756189703941345 0.04780760034918785 0.256305992603302
0.19636599719524384 0.042592499405145645 0.27650898694992065
0.19636599719524384 0.05562639981508255 0.2641240060329437
0.5104190111160278 0.034124601632356644 0.23675799369812012
0.5703660249710083 0.03933199867606163 0.20092499256134033
0.7208870053291321 0.05106030032038689 0.05106030032038689
0.7756189703941345 0.053015101701021194 0.02500000037252903
0.7756189703941345 0.02955850027501583 0.2517470121383667
0.7756189703941345 0.02955850027501583 0.25565698742866516
0.7756189703941345 0.03998870030045509 0.1279509961605072
0.7756189703941345 0.03998870030045509 0.12404199689626694
0.19636599719524384 0.13056200742721558 0.26607900857925415
0.25109800696372986 0.12404900044202805 0.26152101159095764
0.24928799271583557 0.15141500532627106 0.2621699869632721
0.19636599719524384 0.1716109961271286 0.2999660074710846
0.24744799733161926 0.17942999303340912 0.2953999936580658
0.25109800696372986 0.09341509640216827 0.27064499258995056
0.7234910130500793 0.09341509640216827 0.27064499258995056
0.7234910130500793 0.12404900044202805 0.27064499258995056
0.25109800696372986 0.12404900044202805 0.27064499258995056
0.25109800696372986 0.06278859823942184 0.2895359992980957
0.7234910130500793 0.06278859823942184 0.2895359992980957
0.4830529987812042 0.12404900044202805 0.26152101159095764
0.7234910130500793 0.12404900044202805 0.26152101159095764
0.7234910130500793 0.17942999303340912 0.2953999936580658
0.7234910130500793 0.15141500532627106 0.2621699869632721
0.8635810017585754 0.036079298704862595 0.24653199315071106
0.8453400135040283 0.12730200588703156 0.24848699569702148
0.8603209853172302 0.053015101701021194 0.24653199315071106
0.756721019744873 0.13121099770069122 0.2550080120563507
0.7925620079040527 0.19115899503231049 0.31885701417922974
0.7560719847679138 0.18203400075435638 0.3077850043773651
0.8270909786224365 0.1944189965724945 0.320811003446579
0.8290449976921082 0.18789799511432648 0.3136489987373352
0.846638023853302 0.11948300153017044 0.2941020131111145
0.8505470156669617 0.10123399645090103 0.2654300034046173
0.8570680022239685 0.06930950284004211 0.2654300034046173
0.8603209853172302 0.053015101701021194 0.2941020131111145
0.857716977596283 0.0666980966925621 0.3253769874572754
0.8505470156669617 0.10254000127315521 0.3266749978065491
0.8431329727172852 0.13644899427890778 0.2999660074710846
0.8337950110435486 0.16901500523090363 0.2999660074710846
0.8433619737625122 0.17582599818706512 0.3299359977245331
0.8462409973144531 0.16580800712108612 0.3481850028038025
0.8519830107688904 0.1457650065422058 0.3481850028038025
0.8548610210418701 0.13573899865150452 0.3299359977245331
0.8519830107688904 0.1457650065422058 0.3116939961910248
0.8462409973144531 0.16580800712108612 0.3116939961910248
0.8453400135040283 0.1689389944076538 0.3299359977245331
0.8473169803619385 0.1620520055294037 0.34167200326919556
0.8509060144424438 0.14952200651168823 0.34167200326919556
0.8528839945793152 0.14263400435447693 0.3299359977245331
0.8509060144424438 0.14952200651168823 0.3182080090045929
0.8473169803619385 0.1620520055294037 0.3182080090045929
0.8453400135040283 0.1689389944076538 0.3299430012702942
0.8473169803619385 0.1620520055294037 0.318215012550354
0.8509060144424438 0.14952200651168823 0.318215012550354
0.8528839945793152 0.14263400435447693 0.3299430012702942
0.8509060144424438 0.14952200651168823 0.34166398644447327
0.8473169803619385 0.1620520055294037 0.34166398644447327
0.8719040155410767 0.18740199506282806 0.3299359977245331
0.8753169775009155 0.17549799382686615 0.35079601407051086
0.8817840218544006 0.1529500037431717 0.35079601407051086
0.8851900100708008 0.14105400443077087 0.3299359977245331
0.8817840218544006 0.1529500037431717 0.3090830147266388
0.8753169775009155 0.17549799382686615 0.3090830147266388
0.8999040126800537 0.20085600018501282 0.3299359977245331
0.9040349721908569 0.18644699454307556 0.35535499453544617
0.9119369983673096 0.1588899940252304 0.35535499453544617
0.9160680174827576 0.14448200166225433 0.3299359977245331
0.9119369983673096 0.1588899940252304 0.3045249879360199
0.9040349721908569 0.18644699454307556 0.3045249879360199
0.7404339909553528 0.20093199610710144 0.3332040011882782
0.7261019945144653 0.2048420011997223 0.3299359977245331
0.9000719785690308 0.3814150094985962 0.3299359977245331
0.9144039750099182 0.38858500123023987 0.3312489986419678
0.9144039750099182 0.38858500123023987 0.3299359977245331
0.9398149847984314 0.38858500123023987 0.3345020115375519
0.9750000238418579 0.38858500123023987 0.3299359977245331
0.8994150161743164 0.23285700380802155 0.3299359977245331
0.8609769940376282 0.10710600018501282 0.3664340078830719
0.8622750043869019 0.09732449799776077 0.3846760094165802
0.8655359745025635 0.07647170126438141 0.38532501459121704
0.8687959909439087 0.06604909896850586 0.36708301305770874
0.8681399822235107 0.07647170126438141 0.34884199500083923
0.8642299771308899 0.09732449799776077 0.3481850028038025
0.8625349998474121 0.10030999779701233 0.366564005613327
0.8630539774894714 0.09324710071086884 0.3783459961414337
0.8653140068054199 0.08041930198669434 0.37848299741744995
0.8672770261764526 0.07335630059242249 0.3668540120124817
0.8667500019073486 0.08041930198669434 0.3550719916820526
0.8644899725914001 0.09324710071086884 0.3549349904060364
0.8625349998474121 0.10030999779701233 0.36655598878860474
0.8644899725914001 0.09324710071086884 0.3549270033836365
0.8667500019073486 0.08041930198669434 0.3550649881362915
0.8672770261764526 0.07335630059242249 0.3668459951877594
0.8653140068054199 0.08041930198669434 0.37847501039505005
0.8630539774894714 0.09324710071086884 0.3783380091190338
0.8908249735832214 0.11590199917554855 0.3682970106601715
0.8917030096054077 0.10370799899101257 0.3892419934272766
0.8957650065422058 0.0806024968624115 0.38948601484298706
0.8991860151290894 0.06840849667787552 0.3688090145587921
0.8983079791069031 0.0806024968624115 0.3478640019893646
0.894245982170105 0.10370799899101257 0.3476119935512543
0.9200239777565002 0.12635500729084015 0.3700839877128601
0.9210699796676636 0.11159499734640121 0.3956019878387451
0.92603999376297 0.08335140347480774 0.395907998085022
0.9301869869232178 0.06859169900417328 0.37070199847221375
0.9291409850120544 0.08335140347480774 0.3451769948005676
0.9241769909858704 0.11159499734640121 0.34487900137901306
0.7560719847679138 0.16053199768066406 0.4087809920310974
0.7560719847679138 0.18269099295139313 0.3964039981365204
0.7560719847679138 0.19376200437545776 0.3742530047893524
0.8538079857826233 0.16053199768066406 0.4250760078430176
0.8564109802246094 0.1279589980840683 0.40943801403045654
0.8609769940376282 0.10710600018501282 0.2926819920539856
0.8622750043869019 0.09732449799776077 0.27521100640296936
0.8622750043869019 0.09732449799776077 0.27520400285720825
0.8655359745025635 0.07647170126438141 0.2745549976825714
0.8687959909439087 0.06604909896850586 0.29279598593711853
0.8681399822235107 0.07647170126438141 0.31103798747062683
0.8642299771308899 0.09732449799776077 0.3116939961910248
0.8609769940376282 0.10710600018501282 0.29344499111175537
0.8625349998474121 0.10030999779701233 0.29331499338150024
0.8630539774894714 0.09324710071086884 0.28153398633003235
0.8653140068054199 0.08041930198669434 0.2813960015773773
0.8672770261764526 0.07335630059242249 0.2930249869823456
0.8667500019073486 0.08041930198669434 0.30480700731277466
0.8644899725914001 0.09324710071086884 0.3049440085887909
0.8625349998474121 0.10030999779701233 0.29332301020622253
0.8644899725914001 0.09324710071086884 0.3049519956111908
0.8667500019073486 0.08041930198669434 0.30481499433517456
0.8672770261764526 0.07335630059242249 0.29303300380706787
0.8653140068054199 0.08041930198669434 0.2814039885997772
0.8630539774894714 0.09324710071086884 0.28154098987579346
0.8908249735832214 0.11590199917554855 0.29158198833465576
0.8917030096054077 0.10370799899101257 0.27063798904418945
0.8957650065422058 0.0806024968624115 0.2703930139541626
0.8991860151290894 0.06840849667787552 0.29107099771499634
0.8983079791069031 0.0806024968624115 0.31201499700546265
0.894245982170105 0.10370799899101257 0.312267005443573
0.9200239777565002 0.12635500729084015 0.28979501128196716
0.9210699796676636 0.11159499734640121 0.26427701115608215
0.92603999376297 0.08335140347480774 0.2639720141887665
0.9301869869232178 0.06859169900417328 0.2891770005226135
0.9291409850120544 0.08335140347480774 0.31470298767089844
0.9241769909858704 0.11159499734640121 0.3150010108947754
0.7560719847679138 0.16053199768066406 0.25109800696372986
0.7560719847679138 0.18269099295139313 0.2634750008583069
0.7560719847679138 0.19376200437545776 0.28562599420547485
0.8538079857826233 0.16053199768066406 0.23480400443077087
0.8564109802246094 0.1279589980840683 0.2504410147666931
0.9000719785690308 0.3814150094985962 0.3299430012702942
0.7404339909553528 0.20093199610710144 0.3266749978065491
0.7261019945144653 0.2048420011997223 0.3299430012702942
0.9144039750099182 0.38858500123023987 0.3286300003528595
0.9144039750099182 0.38858500123023987 0.3299430012702942
0.9398149847984314 0.38858500123023987 0.3253769874572754
0.9750000238418579 0.38858500123023987 0.3299430012702942
0.8994150161743164 0.23285700380802155 0.3299430012702942
0.8270909786224365 0.1944189965724945 0.3208189904689789
0.8270909786224365 0.1944189965724945 0.3299430012702942
3 0 1 2
3 3 1 0
3 4 1 3
3 5 1 4
3 6 1 5
3 7 1 6
3 8 1 7
3 9 1 8
3 2 1 9
3 9 10 11
3 8 12 10
3 7 13 12
3 6 14 13
3 5 15 14
3 4 16 15
3 3 17 16
3 0 18 17
3 2 11 18
3 10 19 20
3 12 21 19
3 13 22 21
3 14 23 22
3 15 24 23
3 16 25 24
3 17 26 25
3 18 27 26
3 11 20 27
3 19 28 29
3 21 30 28
3 22 31 30
3 23 32 31
3 24 33 32
3 25 34 33
3 26 35 34
3 27 36 35
3 20 29 36
3 37 38 39
3 40 37 39
3 41 40 39
3 42 40 41
3 43 44 38
3 37 43 38
3 45 43 37
3 40 45 37
3 46 45 40
3 42 46 40
3 47 46 42
3 44 43 48
3 43 49 48
3 43 45 49
3 45 50 49
3 45 46 50
3 46 51 50
3 46 47 51
3 48 49 51
3 49 50 51
3 47 52 51
3 52 53 51
3 52 54 55
3 52 56 54
3 57 58 59
3 57 60 58
3 60 57 61
3 61 62 60
3 60 62 63
3 60 63 64
3 64 63 65
3 65 66 64
3 65 67 66
3 68 69 66
3 70 68 66
3 71 70 66
3 67 71 66
3 38 61 39
3 61 38 62
3 38 44 63
3 38 63 62
3 63 48 65
3 63 44 48
3 65 48 67
3 67 48 51
3 69 68 54
3 68 70 55
3 70 71 53
3 71 67 51
3 59 58 39
3 58 41 39
3 72 41 39
3 72 73 41
3 72 74 73
3 75 74 72
3 75 76 74
3 77 76 75
3 77 78 76
3 79 80 81
3 83 84 80
3 85 86 84
3 82 87 73
3 81 88 87
3 42 41 73
3 87 42 73
3 88 47 42
3 52 47 88
3 89 81 80
3 89 90 91
3 83 79 82
3 82 73 74
3 92 82 78
3 66 69 93
3 94 56 52
3 95 69 56
3 93 69 95
3 88 96 94
3 88 91 96
3 97 98 89
3 98 90 89
3 97 99 98
3 99 100 98
3 66 93 101
3 102 103 94
3 94 103 104
3 94 104 105
3 95 105 106
3 93 106 101
3 107 106 108
3 107 108 109
3 102 109 103
3 94 110 111
3 111 102 94
3 94 112 110
3 94 100 112
3 99 113 114
3 112 99 114
3 100 99 112
3 101 106 107
3 95 106 93
3 29 77 36
3 77 75 36
3 75 72 36
3 36 72 35
3 72 39 35
3 35 39 34
3 39 61 34
3 61 57 34
3 34 57 33
3 57 59 33
3 33 32 59
3 117 116 115
3 117 115 118
3 117 118 119
3 119 118 120
3 116 122 121
3 116 121 115
3 115 121 123
3 115 123 118
3 118 123 124
3 118 124 120
3 120 124 125
3 126 121 122
3 126 127 121
3 127 123 121
3 127 128 123
3 128 124 123
3 128 129 124
3 129 125 124
3 129 127 126
3 129 128 127
3 129 130 125
3 129 131 130
3 131 132 130
3 132 133 130
3 133 134 130
3 135 58 59
3 58 60 135
3 136 135 60
3 60 137 136
3 138 137 60
3 64 138 60
3 139 138 64
3 64 66 139
3 66 140 139
3 66 142 141
3 66 141 143
3 66 143 144
3 66 144 140
3 117 136 116
3 137 116 136
3 138 122 116
3 137 138 116
3 139 126 138
3 126 122 138
3 140 126 139
3 129 126 140
3 134 133 141
3 133 132 143
3 132 131 144
3 131 129 140
3 59 58 117
3 58 119 117
3 117 119 145
3 119 146 145
3 146 147 145
3 145 147 148
3 147 149 148
3 148 149 77
3 149 78 77
3 153 152 151
3 150 151 155
3 154 155 86
3 146 156 153
3 153 156 157
3 146 119 120
3 146 120 156
3 156 120 125
3 157 125 130
3 86 155 151
3 152 157 159
3 92 153 150
3 78 149 147
3 78 153 92
3 160 142 66
3 157 130 134
3 161 134 142
3 162 142 160
3 161 163 157
3 163 159 157
3 89 165 164
3 89 158 165
3 165 166 164
3 165 167 166
3 101 160 66
3 161 168 102
3 169 168 161
3 162 170 169
3 171 170 162
3 101 171 160
3 172 171 107
3 102 173 172
3 168 173 102
3 111 174 161
3 161 102 111
3 174 175 161
3 175 167 161
3 114 113 166
3 114 166 175
3 175 166 167
3 160 171 162
3 107 171 101
3 28 77 29
3 28 148 77
3 28 145 148
3 30 145 28
3 117 145 30
3 31 117 30
3 136 117 31
3 135 136 31
3 31 135 32
3 32 135 59
3 114 176 177
3 112 177 178
3 110 178 179
3 111 179 180
3 174 180 181
3 175 181 176
3 176 182 183
3 177 183 184
3 178 184 185
3 179 185 186
3 180 186 187
3 181 187 182
3 182 194 195
3 183 195 196
3 184 196 197
3 185 197 198
3 186 198 199
3 187 199 194
3 194 200 201
3 195 201 202
3 196 202 203
3 197 203 204
3 198 204 205
3 199 205 200
3 194 200 201
3 195 201 202
3 196 202 203
3 197 203 204
3 198 204 205
3 199 205 200
3 206 89 207
3 97 89 206
3 208 206 207
3 209 206 208
3 208 210 209
3 97 206 209
3 209 211 97
3 211 212 97
3 212 213 97
3 213 99 97
3 212 211 209
3 113 99 213
3 103 214 215
3 104 215 216
3 105 216 217
3 106 217 218
3 108 218 219
3 109 219 214
3 214 220 221
3 215 221 222
3 216 222 223
3 217 223 224
3 218 224 225
3 219 225 220
3 220 232 233
3 221 233 234
3 222 234 235
3 223 235 236
3 224 236 237
3 225 237 232
3 232 238 239
3 233 239 240
3 234 240 241
3 235 241 242
3 236 242 243
3 237 243 238
3 232 238 239
3 233 239 240
3 234 240 241
3 235 241 242
3 236 242 243
3 237 243 238
3 244 96 91
3 245 244 91
3 90 245 91
3 246 245 90
3 98 246 90
3 247 94 244
3 247 248 94
3 244 94 96
3 169 250 249
3 170 252 251
3 171 253 252
3 172 254 253
3 173 255 254
3 168 256 255
3 251 258 257
3 252 259 258
3 253 260 259
3 254 261 260
3 255 262 261
3 256 257 262
3 258 270 269
3 259 271 270
3 260 272 271
3 261 273 272
3 262 274 273
3 257 269 274
3 270 276 275
3 271 277 276
3 272 278 277
3 273 279 278
3 274 280 279
3 269 275 280
3 269 275 276
3 270 276 277
3 271 277 278
3 272 278 279
3 273 279 280
3 274 280 275
3 159 163 281
3 159 281 282
3 159 282 158
3 158 282 283
3 158 283 165
3 281 161 284
3 161 285 284
3 163 161 281
3 188 189 190
3 226 227 228
3 263 264 265
3 286 287 288
3 289 287 286
3 286 290 289
3 164 287 289
3 289 291 164
3 291 292 164
3 292 293 164
3 293 294 164
3 292 291 289
3 295 294 293
3 9 11 2
3 8 10 9
3 7 12 8
3 6 13 7
3 5 14 6
3 4 15 5
3 3 16 4
3 0 17 3
3 2 18 0
3 10 20 11
3 12 19 10
3 13 21 12
3 14 22 13
3 15 23 14
3 16 24 15
3 17 25 16
3 18 26 17
3 11 27 18
3 19 29 20
3 21 28 19
3 22 30 21
3 23 31 22
3 24 32 23
3 25 33 24
3 26 34 25
3 27 35 26
3 20 36 27
3 69 54 56
3 68 55 54
3 70 53 55
3 71 51 53
3 79 81 82
3 83 80 79
3 85 84 83
3 81 87 82
3 88 42 87
3 89 80 84
3 89 84 86
3 89 91 88
3 89 88 81
3 83 82 92
3 82 74 76
3 82 76 78
3 94 52 88
3 95 56 94
3 94 105 95
3 107 109 102
3 134 141 142
3 133 143 141
3 132 144 143
3 131 140 144
3 153 151 150
3 150 155 154
3 154 86 85
3 153 157 152
3 156 125 157
3 86 151 152
3 86 152 89
3 152 159 158
3 152 158 89
3 92 150 154
3 92 154 85
3 78 147 146
3 78 146 153
3 157 134 161
3 161 142 162
3 162 169 161
3 102 172 107
3 114 177 112
3 112 178 110
3 110 179 111
3 111 180 174
3 174 181 175
3 175 176 114
3 176 183 177
3 177 184 178
3 178 185 179
3 179 186 180
3 180 187 181
3 181 182 176
3 182 195 183
3 183 196 184
3 184 197 185
3 185 198 186
3 186 199 187
3 187 194 182
3 194 201 195
3 195 202 196
3 196 203 197
3 197 204 198
3 198 205 199
3 199 200 194
3 194 201 195
3 195 202 196
3 196 203 197
3 197 204 198
3 198 205 199
3 199 200 194
3 212 209 210
3 103 215 104
3 104 216 105
3 105 217 106
3 106 218 108
3 108 219 109
3 109 214 103
3 214 221 215
3 215 222 216
3 216 223 217
3 217 224 218
3 218 225 219
3 219 220 214
3 220 233 221
3 221 234 222
3 222 235 223
3 223 236 224
3 224 237 225
3 225 232 220
3 232 239 233
3 233 240 234
3 234 241 235
3 235 242 236
3 236 243 237
3 237 238 232
3 232 239 233
3 233 240 234
3 234 241 235
3 235 242 236
3 236 243 237
3 237 238 232
3 169 249 168
3 170 251 169
3 171 252 170
3 172 253 171
3 173 254 172
3 168 255 173
3 251 257 256
3 252 258 251
3 253 259 252
3 254 260 253
3 255 261 254
3 256 262 255
3 258 269 257
3 259 270 258
3 260 271 259
3 261 272 260
3 262 273 261
3 257 274 262
3 270 275 269
3 271 276 270
3 272 277 271
3 273 278 272
3 274 279 273
3 269 280 274
3 269 276 270
3 270 277 271
3 271 278 272
3 272 279 273
3 273 280 274
3 274 275 269
3 188 190 191
3 188 191 192
3 188 192 193
3 226 228 229
3 226 229 230
3 226 230 231
3 263 265 266
3 263 266 267
3 263 267 268
3 292 289 290
