ply
format ascii 1.0
element vertex 486
property float x
property float y
property float z
element face 852
property list uchar int vertex_indices
end_header
0.7999500036239624 0.14691099524497986 0.5598250031471252
0.850246012210846 0.14691700041294098 0.6405150294303894
0.8707889914512634 0.14690899848937988 0.586974024772644
0.8707939982414246 0.1464180052280426 0.4183819890022278
0.8502489924430847 0.14641399681568146 0.36485299468040466
0.7999460101127625 0.14641399681568146 0.445576012134552
0.8491899967193604 0.14952999353408813 0.6156309843063354
0.826511025428772 0.14953400194644928 0.5832239985466003
0.8309440016746521 0.14952999353408813 0.5802900195121765
0.853626012802124 0.14953400194644928 0.6126949787139893
0.8536229729652405 0.14678899943828583 0.39349400997161865
0.8309440016746521 0.1467839926481247 0.42588698863983154
0.8265089988708496 0.1467760056257248 0.4227829873561859
0.8491880297660828 0.1467839926481247 0.39039701223373413
0.5095850229263306 0.06540899723768234 0.23078200221061707
0.48173001408576965 0.06541900336742401 0.2312680035829544
0.5096489787101746 0.05180380120873451 0.2344290018081665
0.5096549987792969 0.07900000363588333 0.23443199694156647
0.4817950129508972 0.05179779976606369 0.23491300642490387
0.48179298639297485 0.07900220155715942 0.23491500318050385
0.5208209753036499 0.06540510058403015 0.23616699874401093
0.5208770036697388 0.054589301347732544 0.2390580028295517
0.5208730101585388 0.07621269673109055 0.23906700313091278
0.4484800100326538 0.06541509926319122 0.24299900233745575
0.5098299980163574 0.0889625996351242 0.2443930059671402
0.5098220109939575 0.04183740168809891 0.24439699947834015
0.4819679856300354 0.0889625996351242 0.24487799406051636
0.48197200894355774 0.041845500469207764 0.24488100409507751
0.44852399826049805 0.0573807992041111 0.24515900015830994
0.4485200047492981 0.07343719899654388 0.24515299499034882
0.521016001701355 0.08414030075073242 0.24698400497436523
0.5210180282592773 0.04667370021343231 0.2469860017299652
0.44862100481987 0.0793100968003273 0.2510380148887634
0.4486289918422699 0.051499899476766586 0.2510339915752411
0.5212010145187378 0.04377150163054466 0.25780999660491943
0.5212029814720154 0.08704040199518204 0.2578029930591583
0.5100650191307068 0.09261330217123032 0.2580009996891022
0.5100640058517456 0.038204800337553024 0.2579970061779022
0.4822070002555847 0.09261330217123032 0.2584820091724396
0.4822070002555847 0.03820059821009636 0.25848400592803955
0.44876399636268616 0.049346499145030975 0.2590639889240265
0.44876599311828613 0.08146960288286209 0.2590720057487488
0.4489069879055023 0.07931400090456009 0.26710501313209534
0.44891101121902466 0.05150189995765686 0.267098993062973
0.5213930010795593 0.046665601432323456 0.2686220109462738
0.5213950276374817 0.08414439857006073 0.26862800121307373
0.5102970004081726 0.041845500469207764 0.27160701155662537
0.5103009939193726 0.0889706015586853 0.271602988243103
0.4824410080909729 0.08896870166063309 0.2720920145511627
0.4824410080909729 0.041841499507427216 0.27208998799324036
0.4490109980106354 0.0573807992041111 0.2729809880256653
0.4490090012550354 0.07343529909849167 0.2729800045490265
0.44904398918151855 0.06541509926319122 0.2751289904117584
0.5215309858322144 0.05460340157151222 0.2765420079231262
0.5215309858322144 0.07622479647397995 0.27654001116752625
0.5215820074081421 0.06540709733963013 0.27945199608802795
0.5104699730873108 0.0518019013106823 0.2815690040588379
0.5104740262031555 0.07901030033826828 0.2815670073032379
0.4826180040836334 0.05181189998984337 0.28205400705337524
0.4826180040836334 0.07900810241699219 0.2820560038089752
0.5105329751968384 0.06541319936513901 0.28520798683166504
0.4826819896697998 0.06541100144386292 0.28569701313972473
0.4815810024738312 0.07316769659519196 0.7879469990730286
0.5094479918479919 0.07315350323915482 0.7876309752464294
0.48151499032974243 0.08675479888916016 0.7843499779701233
0.48151901364326477 0.059556398540735245 0.7843459844589233
0.5093730092048645 0.08675479888916016 0.7840359807014465
0.5093669891357422 0.059560298919677734 0.7840319871902466
0.5204809904098511 0.07315549999475479 0.7817220091819763
0.5204330086708069 0.08397520333528519 0.7789890170097351
0.5204280018806458 0.06235190108418465 0.7789869904518127
0.4479449987411499 0.07316350191831589 0.777580976486206
0.4479140043258667 0.08118390291929245 0.7753120064735413
0.4479120075702667 0.06512729823589325 0.7753099799156189
0.48134198784828186 0.04959600046277046 0.7741820216178894
0.4813399910926819 0.09671510010957718 0.7741860151290894
0.5092059969902039 0.09671899676322937 0.773872971534729
0.5091959834098816 0.04960000142455101 0.7738620042800903
0.5202919840812683 0.09189499914646149 0.77081298828125
0.5202919840812683 0.054422300308942795 0.77081298828125
0.44780799746513367 0.05925050005316734 0.7695140242576599
0.44780999422073364 0.08706659823656082 0.7695109844207764
0.44766101241111755 0.08921410143375397 0.7614489793777466
0.4476670026779175 0.05710100010037422 0.7614489793777466
0.48110800981521606 0.045961201190948486 0.7608150243759155
0.4811039865016937 0.10035999864339828 0.7608259916305542
0.5089550018310547 0.04595930129289627 0.7601010203361511
0.5089629888534546 0.10035999864339828 0.7600970268249512
0.5201060175895691 0.09479299932718277 0.7598959803581238
0.5201039910316467 0.051528200507164 0.7598959803581238
0.4475260078907013 0.05925239995121956 0.7533749938011169
0.44752201437950134 0.08706259727478027 0.7533820271492004
0.5199189782142639 0.05443429946899414 0.7493730187416077
0.5199130177497864 0.09189499914646149 0.7493799924850464
0.44742101430892944 0.08118979632854462 0.7475839853286743
0.44742101430892944 0.06513140350580215 0.7475900053977966
0.4808729887008667 0.04960609972476959 0.747052013874054
0.4808709919452667 0.09671320021152496 0.7470589876174927
0.5087190270423889 0.049598000943660736 0.746737003326416
0.5087270140647888 0.09671899676322937 0.7467430233955383
0.4473870098590851 0.07316350191831589 0.745307981967926
0.5197759866714478 0.0839712992310524 0.7411980032920837
0.5197780132293701 0.06235380098223686 0.741204023361206
0.5197219848632812 0.07315350323915482 0.7384610176086426
0.4806919991970062 0.08675669878721237 0.7372999787330627
0.48069798946380615 0.059560298919677734 0.7372940182685852
0.5085539817810059 0.08675059676170349 0.7365750074386597
0.508545994758606 0.05956859886646271 0.7365710139274597
0.4806329905986786 0.07316350191831589 0.7336919903755188
0.5084919929504395 0.0731595978140831 0.7329760193824768
0.889710009098053 0.1455570012331009 0.5087419748306274
0.8897119760513306 0.14556099474430084 0.49891000986099243
0.8752380013465881 0.0986270010471344 0.49376600980758667
0.8740509748458862 0.09418729692697525 0.4950900077819824
0.8731039762496948 0.0906710997223854 0.4975920021533966
0.8724939823150635 0.08840689808130264 0.5003029704093933
0.8722890019416809 0.0876322016119957 0.503508985042572
0.8724920153617859 0.08840300142765045 0.5070970058441162
0.8731020092964172 0.09065719693899155 0.5098159909248352
0.8740509748458862 0.09418729692697525 0.5123220086097717
0.8752380013465881 0.09862510114908218 0.5136479735374451
0.8766660094261169 0.10392799973487854 0.5147389769554138
0.8796359896659851 0.11500000208616257 0.514045000076294
0.8823009729385376 0.12498600035905838 0.5127270221710205
0.8844280242919922 0.13291999697685242 0.5102090239524841
0.885791003704071 0.13800999522209167 0.5075079798698425
0.886256992816925 0.1397709995508194 0.5039029717445374
0.8857889771461487 0.13800400495529175 0.5007010102272034
0.8844280242919922 0.13291800022125244 0.49799200892448425
0.88230299949646 0.1249919980764389 0.4954789876937866
0.8796290159225464 0.114997997879982 0.49415600299835205
0.8766639828681946 0.10391999781131744 0.4934700131416321
0.7399129867553711 0.14553900063037872 0.5098829865455627
0.8337579965591431 0.1455489993095398 0.6833950281143188
0.8897190093994141 0.1455489993095398 0.6833930015563965
0.8899890184402466 0.13898000121116638 0.5159069895744324
0.8899999856948853 0.13898199796676636 0.6834030151367188
0.8340470194816589 0.13897199928760529 0.6834049820899963
0.7401900291442871 0.13897199928760529 0.5098810195922852
0.7393670082092285 0.1389639973640442 0.49640798568725586
0.8340380191802979 0.13897599279880524 0.3245239853858948
0.8899949789047241 0.13898800313472748 0.3245300054550171
0.8899909853935242 0.13898999989032745 0.4917050004005432
0.8897190093994141 0.14555099606513977 0.32452601194381714
0.8337550163269043 0.14555299282073975 0.3245219886302948
0.7390900254249573 0.14553900063037872 0.49640798568725586
0.9087510108947754 0.1529330015182495 0.5094259977340698
0.7243450284004211 0.1529030054807663 0.5094199776649475
0.7235130071640015 0.15290899574756622 0.4966199994087219
0.9079210162162781 0.15293699502944946 0.496616005897522
0.6625329852104187 0.1344590038061142 0.5227779746055603
0.9094560146331787 0.1290919929742813 0.5198869705200195
0.6625329852104187 0.1247830018401146 0.5157229900360107
0.9094560146331787 0.12206199765205383 0.5102390050888062
0.6625310182571411 0.12108799815177917 0.5041409730911255
0.9094579815864563 0.1220640018582344 0.4984149932861328
0.6625400185585022 0.12478499859571457 0.49294498562812805
0.9094579815864563 0.12909799814224243 0.4887630045413971
0.6625360250473022 0.13446499407291412 0.4858810007572174
0.9094650149345398 0.1404629945755005 0.4848160147666931
0.6625310182571411 0.1464100033044815 0.48588699102401733
0.9094560146331787 0.15183000266551971 0.488768994808197
0.6625360250473022 0.15609100461006165 0.4929470121860504
0.9094629883766174 0.15886199474334717 0.4984149932861328
0.6625329852104187 0.15977799892425537 0.504135012626648
0.9094579815864563 0.1588599979877472 0.5102390050888062
0.6625379920005798 0.15609100461006165 0.5157150030136108
0.9094539880752563 0.15182800590991974 0.5198869705200195
0.6625310182571411 0.1464100033044815 0.5227779746055603
0.9094650149345398 0.14045900106430054 0.5234320163726807
0.6625360250473022 0.14043700695037842 0.5041329860687256
0.9094610214233398 0.1404549926519394 0.504131019115448
0.30218198895454407 0.05963889881968498 0.46946799755096436
0.3021860122680664 0.05349849909543991 0.47432398796081543
0.3021860122680664 0.0486299991607666 0.4818840026855469
0.3021880090236664 0.04551050066947937 0.491007000207901
0.30219000577926636 0.04442780092358589 0.501803994178772
0.3021860122680664 0.045502498745918274 0.5121930241584778
0.30218398571014404 0.0486299991607666 0.5219950079917908
0.3021860122680664 0.05349849909543991 0.5293329954147339
0.30218198895454407 0.05963499844074249 0.5341410040855408
0.5392929911613464 0.05377820134162903 0.4413900077342987
0.5392869710922241 0.04232250154018402 0.45044100284576416
0.5392889976501465 0.033241599798202515 0.46453699469566345
0.5392869710922241 0.02739899978041649 0.4822860062122345
0.5392829775810242 0.025390399619936943 0.5018060207366943
0.5392869710922241 0.02740110084414482 0.5215920209884644
0.5392869710922241 0.033237699419260025 0.539268970489502
0.5392839908599854 0.04231639951467514 0.5533609986305237
0.5392839908599854 0.05376819893717766 0.562421977519989
0.4176490008831024 0.055647898465394974 0.4503079950809479
0.41764700412750244 0.045882899314165115 0.4580259919166565
0.41764700412750244 0.038134198635816574 0.47004300355911255
0.41765499114990234 0.03314900025725365 0.48515400290489197
0.41764700412750244 0.03143030032515526 0.501803994178772
0.4176509976387024 0.033142898231744766 0.5184530019760132
0.41765299439430237 0.038130298256874084 0.5335010290145874
0.41764700412750244 0.04587259888648987 0.5456410050392151
0.4176490008831024 0.05564180016517639 0.5532199740409851
0.6618800163269043 0.05403580144047737 0.44269001483917236
0.6618800163269043 0.04282569885253906 0.4515460133552551
0.6618800163269043 0.03392789885401726 0.46533599495887756
0.6618800163269043 0.02822829969227314 0.4827069938182831
0.6618819832801819 0.026257799938321114 0.5018060207366943
0.6618819832801819 0.028230300173163414 0.52080899477005
0.6618850231170654 0.03393400087952614 0.5384560227394104
0.6618850231170654 0.04283370077610016 0.5520390272140503
0.3595390021800995 0.0573728010058403 0.4585939943790436
0.35954299569129944 0.049179501831531525 0.4650680124759674
0.35954299569129944 0.04266669973731041 0.4751549959182739
0.3595390021800995 0.038492601364851 0.48769599199295044
0.35954299569129944 0.0370635986328125 0.5018020272254944
0.3595390021800995 0.038492601364851 0.5159040093421936
0.35954099893569946 0.04267679899930954 0.5285540223121643
0.3595390021800995 0.04917740076780319 0.5385990142822266
0.35954299569129944 0.057378899306058884 0.5450050234794617
0.2460079938173294 0.06243240088224411 0.4828290045261383
0.24600599706172943 0.0588097982108593 0.4854480028152466
0.24600599706172943 0.05593569949269295 0.4898509979248047
0.24600400030612946 0.05409419909119606 0.4955190122127533
0.24600599706172943 0.053460098803043365 0.501800000667572
0.24600200355052948 0.05410030111670494 0.5080879926681519
0.24600599706172943 0.05594180151820183 0.5137450098991394
0.24600599706172943 0.05881369858980179 0.5181469917297363
0.24600200355052948 0.062430500984191895 0.5209360122680664
0.6006690263748169 0.05363930016756058 0.44082000851631165
0.6006709933280945 0.04208710044622421 0.44995400309562683
0.6006749868392944 0.03291960060596466 0.46417298913002014
0.6006709933280945 0.027020800858736038 0.4820930063724518
0.6006709933280945 0.02500000037252903 0.5018060207366943
0.6006709933280945 0.027028800919651985 0.5214030146598816
0.6006690263748169 0.0329136997461319 0.5393170118331909
0.6006730198860168 0.04208710044622421 0.5536770224571228
0.6006690263748169 0.05363930016756058 0.5630559921264648
0.4781219959259033 0.05443429946899414 0.44453001022338867
0.4781239926815033 0.043566200882196426 0.45309901237487793
0.47811898589134216 0.034952301532030106 0.46647098660469055
0.4781219959259033 0.02941969968378544 0.4833039939403534
0.4781239926815033 0.027511799708008766 0.5017979741096497
0.47811898589134216 0.029421700164675713 0.5201969742774963
0.4781219959259033 0.034952301532030106 0.5371760129928589
0.47811800241470337 0.043570298701524734 0.5503860116004944
0.4781239926815033 0.05443229898810387 0.5591109991073608
0.30218198895454407 0.06739149987697601 0.5381760001182556
0.3021860122680664 0.08270929753780365 0.5366299748420715
0.30218398571014404 0.0965259000658989 0.5318260192871094
0.3021880090236664 0.10749500244855881 0.5240880250930786
0.3021799921989441 0.114546999335289 0.5146989822387695
0.30218398571014404 0.11696399748325348 0.5039010047912598
0.30218198895454407 0.11454500257968903 0.49351000785827637
0.30218398571014404 0.10749699920415878 0.4841090142726898
0.3021860122680664 0.09653399884700775 0.4766570031642914
0.30218398571014404 0.08271930366754532 0.47180598974227905
0.30218198895454407 0.0673953965306282 0.47014400362968445
0.5392810106277466 0.06742759793996811 0.5678380131721497
0.5392829775810242 0.0959462970495224 0.5645130276679993
0.5392829775810242 0.12169399857521057 0.5554419755935669
0.5392869710922241 0.1421550065279007 0.5413560271263123
0.5392889976501465 0.1552879959344864 0.5236889719963074
0.5392829775810242 0.1597999930381775 0.5039070248603821
0.5392889976501465 0.1552879959344864 0.48451799154281616
0.5392889976501465 0.14215199649333954 0.46686801314353943
0.5392869710922241 0.12170200049877167 0.45278099179267883
0.5392810106277466 0.09595829993486404 0.44373899698257446
0.5392810106277466 0.06741560250520706 0.4406229853630066
0.1929280012845993 0.07203049957752228 0.5038830041885376
0.4176490008831024 0.06741560250520706 0.5582939982414246
0.4176509976387024 0.0917339026927948 0.5557199716567993
0.4176410138607025 0.09174799919128418 0.45264801383018494
0.4176509976387024 0.06741759926080704 0.44999000430107117
0.6618779897689819 0.12055400013923645 0.5545340180397034
0.6618850231170654 0.1405480057001114 0.5405409932136536
0.6618850231170654 0.15340599417686462 0.5233029723167419
0.6618819832801819 0.15782999992370605 0.503911018371582
0.661886990070343 0.15340599417686462 0.4849100112915039
0.6618850231170654 0.1405559927225113 0.4676649868488312
0.6618819832801819 0.1205499991774559 0.4538779854774475
0.6618779897689819 0.09536869823932648 0.44503098726272583
0.6618800163269043 0.0674055963754654 0.441974014043808
0.3595370054244995 0.0674055963754654 0.5496960282325745
0.35953500866889954 0.08782730251550674 0.5475019812583923
0.35953301191329956 0.08784560114145279 0.4609319865703583
0.3595390021800995 0.06741149723529816 0.45870599150657654
0.24601000547409058 0.06738340109586716 0.5240510106086731
0.24600400030612946 0.07640379667282104 0.523019015789032
0.2460000067949295 0.08455900102853775 0.5202419757843018
0.24600599706172943 0.09099730104207993 0.5158420205116272
0.2460079938173294 0.09514530003070831 0.5101649761199951
0.2460079938173294 0.09657619893550873 0.5038970112800598
0.2460079938173294 0.09514719992876053 0.4980289936065674
0.24600599706172943 0.09100929647684097 0.4923489987850189
0.2460000067949295 0.08455289900302887 0.4879469871520996
0.24600400030612946 0.07640600204467773 0.4851660132408142
0.2460079938173294 0.06738950312137604 0.4841339886188507
0.6006709933280945 0.06742169708013535 0.5684329867362976
0.6006690263748169 0.096220001578331 0.5651509761810303
0.6006709933280945 0.12222100049257278 0.5561609864234924
0.6006770133972168 0.14285999536514282 0.541799008846283
0.6006749868392944 0.15612700581550598 0.5239070057868958
0.6006730198860168 0.16068199276924133 0.5039089918136597
0.6006749868392944 0.15612700581550598 0.48430100083351135
0.6006730198860168 0.14285999536514282 0.46650901436805725
0.6006709933280945 0.12222299724817276 0.45228999853134155
0.6006709933280945 0.09623809903860092 0.4431610107421875
0.6006690263748169 0.06741960346698761 0.44001299142837524
0.47811800241470337 0.06742370128631592 0.5642790198326111
0.4781300127506256 0.09446900337934494 0.5616090297698975
0.4781239926815033 0.09448319673538208 0.44686999917030334
0.4781219959259033 0.06742169708013535 0.44391000270843506
0.8425710201263428 0.31777501106262207 0.5013149976730347
0.9172660112380981 0.3177730143070221 0.5013129711151123
0.918097972869873 0.31776899099349976 0.5043219923973083
0.8434029817581177 0.317766010761261 0.5043259859085083
0.6211429834365845 0.06541319936513901 0.23441199958324432
0.5821250081062317 0.06540510058403015 0.2350890040397644
0.6211990118026733 0.054585400968790054 0.2373100072145462
0.6211950182914734 0.07622479647397995 0.23731200397014618
0.5821769833564758 0.054585400968790054 0.23798899352550507
0.5821750164031982 0.07622270286083221 0.2379940003156662
0.6435350179672241 0.06540100276470184 0.23959000408649445
0.6435689926147461 0.05736669898033142 0.24174299836158752
0.6435750126838684 0.07344330102205276 0.24175000190734863
0.5599259734153748 0.06540709733963013 0.24105900526046753
0.5599679946899414 0.05737670138478279 0.24321499466896057
0.5599660277366638 0.07343719899654388 0.2432059943675995
0.6213319897651672 0.04666360095143318 0.2452310025691986
0.6213300228118896 0.0841464027762413 0.24523299932479858
0.5823140144348145 0.046669699251651764 0.24591299891471863
0.582315981388092 0.08414030075073242 0.2459149956703186
0.6436799764633179 0.07931619882583618 0.24762600660324097
0.6436780095100403 0.0514959990978241 0.24762199819087982
0.560064971446991 0.0514959990978241 0.24908499419689178
0.5600690245628357 0.07931400090456009 0.2490919977426529
0.6438130140304565 0.04933629930019379 0.25565800070762634
0.6438189744949341 0.0814715027809143 0.2556670010089874
0.6215149760246277 0.04377150163054466 0.2560479938983917
0.6215199828147888 0.08705049753189087 0.25605499744415283
0.5825049877166748 0.08704239875078201 0.2567340135574341
0.5824990272521973 0.04376960173249245 0.2567340135574341
0.5602099895477295 0.04934459924697876 0.2571209967136383
0.5602099895477295 0.0814715027809143 0.25712400674819946
0.6439539790153503 0.05149789899587631 0.2636899948120117
0.6439539790153503 0.07932010293006897 0.2636899948120117
0.5603479743003845 0.07931820303201675 0.26514899730682373
0.5603460073471069 0.05149180069565773 0.2651579976081848
0.6217129826545715 0.04666779935359955 0.2668670117855072
0.621703028678894 0.0841464027762413 0.2668670117855072
0.5826900005340576 0.046665601432323456 0.26754799485206604
0.58269202709198 0.08414240181446075 0.26755398511886597
0.6440560221672058 0.05737080052495003 0.269569993019104
0.6440590023994446 0.07344330102205276 0.269569993019104
0.6440969705581665 0.06540899723768234 0.27172398567199707
0.5604490041732788 0.05737670138478279 0.27103298902511597
0.5604490041732788 0.07343939691781998 0.27104198932647705
0.5604869723320007 0.06540899723768234 0.2731870114803314
0.621845006942749 0.05459120124578476 0.27479100227355957
0.6218469738960266 0.0762329027056694 0.2747949957847595
0.5828289985656738 0.054593201726675034 0.2754710018634796
0.5828310251235962 0.07622680068016052 0.27547699213027954
0.6219000220298767 0.06540510058403015 0.27768900990486145
0.5828800201416016 0.06540290266275406 0.2783749997615814
0.5817790031433105 0.0731595978140831 0.7807790040969849
0.6207990050315857 0.0731595978140831 0.7798579931259155
0.5817340016365051 0.0839712992310524 0.7776439785957336
0.5817300081253052 0.06234600022435188 0.7776439785957336
0.6207510232925415 0.08397740125656128 0.7771210074424744
0.6207510232925415 0.06233770027756691 0.777118980884552
0.5593900084495544 0.07316569983959198 0.7754989862442017
0.5593479871749878 0.08118779957294464 0.7732300162315369
0.5593479871749878 0.06512729823589325 0.7732260227203369
0.6429979801177979 0.07316160202026367 0.7741469740867615
0.6429579854011536 0.0811920017004013 0.7718719840049744
0.6429579854011536 0.06512729823589325 0.7718690037727356
0.581591010093689 0.09189890325069427 0.7698659896850586
0.5815889835357666 0.05441819876432419 0.7698730230331421
0.6206079721450806 0.09190090000629425 0.7693439722061157
0.6206079721450806 0.05441819876432419 0.7693390250205994
0.5592479705810547 0.059256598353385925 0.7674319744110107
0.5592430233955383 0.08706659823656082 0.7674340009689331
0.642857015132904 0.08706880360841751 0.7660840153694153
0.6428530216217041 0.05924639850854874 0.7660800218582153
0.5591089725494385 0.08922020345926285 0.7593650221824646
0.5591089725494385 0.057103000581264496 0.7593629956245422
0.5813980102539062 0.05152599886059761 0.7589560151100159
0.5814039707183838 0.09478910267353058 0.7589489817619324
0.6204209923744202 0.09479910135269165 0.7584220170974731
0.6204249858856201 0.051530200988054276 0.7584199905395508
0.6427199840545654 0.08922410011291504 0.7580069899559021
0.6427199840545654 0.057103000581264496 0.7580090165138245
0.5589699745178223 0.08707070350646973 0.7512959837913513
0.5589699745178223 0.05924849957227707 0.7512980103492737
0.6425790190696716 0.059256598353385925 0.7499399781227112
0.6425769925117493 0.08706880360841751 0.7499369978904724
0.5812150239944458 0.09189499914646149 0.7480390071868896
0.5812169909477234 0.05442029982805252 0.7480369806289673
0.6202329993247986 0.09190090000629425 0.7475100159645081
0.620235025882721 0.05443229898810387 0.7475079894065857
0.5588669776916504 0.08118779957294464 0.7455090284347534
0.5588690042495728 0.06512729823589325 0.7455040216445923
0.5588250160217285 0.07315549999475479 0.7432330250740051
0.6424750089645386 0.08118589967489243 0.7441570162773132
0.6424790024757385 0.06513140350580215 0.7441499829292297
0.6424360275268555 0.0731595978140831 0.741877019405365
0.5810779929161072 0.08396930247545242 0.7402549982070923
0.5810760259628296 0.062335699796676636 0.7402570247650146
0.6200960278511047 0.08396930247545242 0.7397300004959106
0.6200960278511047 0.06234600022435188 0.7397279739379883
0.581030011177063 0.07316350191831589 0.7375199794769287
0.6200460195541382 0.07316160202026367 0.7365930080413818
0.6285110116004944 0.08841110020875931 0.3969799876213074
0.6313869953155518 0.08001860231161118 0.44464200735092163
0.44429200887680054 0.08001639693975449 0.4446440041065216
0.6313869953155518 0.05338370054960251 0.43994900584220886
0.6285070180892944 0.06178230047225952 0.39228400588035583
0.5766850113868713 0.1332399994134903 0.08545970171689987
0.5363860130310059 0.1437380015850067 0.02587530016899109
0.5766929984092712 0.1261489987373352 0.08421210199594498
0.4442940056324005 0.0720243975520134 0.44323301315307617
0.44429200887680054 0.061383798718452454 0.44135400652885437
0.5363900065422058 0.14159999787807465 0.025505099445581436
0.5363860130310059 0.13877199590206146 0.02500000037252903
0.5384529829025269 0.1388690024614334 0.9750000238418579
0.5384529829025269 0.1417129933834076 0.974291980266571
0.44635099172592163 0.06148660182952881 0.5585409998893738
0.4463549852371216 0.07212519645690918 0.5568000078201294
0.5787519812583923 0.12623000144958496 0.9154660105705261
0.5787559747695923 0.13333599269390106 0.9143009781837463
0.5384529829025269 0.14383800327777863 0.9738630056381226
0.6305739879608154 0.061893101781606674 0.6076809763908386
0.6334499716758728 0.053486499935388565 0.5599480271339417
0.6334459781646729 0.08011720329523087 0.5553879737854004
0.6305739879608154 0.08850769698619843 0.6027219891548157
0.4463549852371216 0.08010920137166977 0.5553960204124451
0.2112559974193573 0.06954699754714966 0.5086629986763
0.21125400066375732 0.07534930109977722 0.5086590051651001
0.21125400066375732 0.07825949788093567 0.5036240220069885
0.21125400066375732 0.07534930109977722 0.49857598543167114
0.2112559974193573 0.06954090297222137 0.49857598543167114
0.2112559974193573 0.06663069874048233 0.5036219954490662
0.2112559974193573 0.07244720309972763 0.5036219954490662
0.02500000037252903 0.07245109975337982 0.5036259889602661
0.8004080057144165 0.19556200504302979 0.49686700105667114
0.868520975112915 0.18596699833869934 0.4968009889125824
0.8838880062103271 0.2863669991493225 0.500141978263855
0.8553850054740906 0.20167399942874908 0.4970589876174927
0.8553869724273682 0.20194000005722046 0.5083270072937012
0.8838899731636047 0.2866419851779938 0.5056560039520264
0.868520975112915 0.18621699512004852 0.508991003036499
0.800400972366333 0.19583000242710114 0.5085240006446838
0.8390269875526428 0.22249099612236023 0.49793800711631775
0.8697350025177002 0.28543299436569214 0.5001699924468994
0.8489289879798889 0.21061399579048157 0.49755600094795227
0.802606999874115 0.20901800692081451 0.49761199951171875
0.8026130199432373 0.2092750072479248 0.508188009262085
0.8489289879798889 0.21087299287319183 0.5082340240478516
0.8697350025177002 0.2857060134410858 0.5056179761886597
0.839024007320404 0.22275499999523163 0.5078380107879639
0.8030509948730469 0.22164499759674072 0.49797001481056213
0.8361999988555908 0.23227399587631226 0.49841099977493286
0.8574860095977783 0.283627986907959 0.500245988368988
0.8281440138816833 0.241907000541687 0.49847498536109924
0.8281490206718445 0.24216799437999725 0.5069159865379333
0.8574879765510559 0.28389400243759155 0.5055519938468933
0.8361939787864685 0.23253999650478363 0.5073789954185486
0.8030530214309692 0.221903994679451 0.5078139901161194
0.41764700412750244 0.11370799690485 0.5481420159339905
0.4176509976387024 0.1311510056257248 0.5360000133514404
0.41764700412750244 0.14233699440956116 0.5209500193595886
0.4176490008831024 0.1461929976940155 0.5038989782333374
0.4176490008831024 0.14233900606632233 0.48725301027297974
0.41764500737190247 0.13114899396896362 0.4723820090293884
0.41764500737190247 0.11370500177145004 0.4603630006313324
0.35953500866889954 0.10627499967813492 0.5410940051078796
0.3595370054244995 0.12091899663209915 0.5310530066490173
0.3595390021800995 0.13032500445842743 0.5180040001869202
0.3595370054244995 0.1335580050945282 0.5039010047912598
0.3595390021800995 0.13032500445842743 0.49019598960876465
0.3595390021800995 0.12092100083827972 0.47749999165534973
0.35953500866889954 0.10628099739551544 0.4674130082130432
0.4781219959259033 0.11889799684286118 0.552869975566864
0.47811800241470337 0.13828299939632416 0.5396630167961121
0.47811898589134216 0.150737002491951 0.522691011428833
0.4781219959259033 0.15501999855041504 0.5039029717445374
0.47811898589134216 0.150737002491951 0.485509991645813
0.4781239926815033 0.13828499615192413 0.4688040018081665
0.4781239926815033 0.1188879981637001 0.45544201135635376
3 0 1 2
3 3 5 4
3 6 7 8
3 8 9 6
3 11 13 12
3 11 13 10
3 14 15 19
3 14 15 16
3 16 14 21
3 14 17 20
3 14 17 19
3 20 14 21
3 15 16 18
3 18 15 23
3 15 19 29
3 23 15 29
3 16 18 25
3 16 21 31
3 25 16 31
3 17 19 26
3 17 20 22
3 22 17 24
3 24 17 26
3 18 23 28
3 18 25 27
3 27 18 28
3 19 26 32
3 19 29 32
3 22 24 30
3 24 26 38
3 24 30 36
3 36 24 38
3 25 27 37
3 25 31 34
3 34 25 37
3 26 32 41
3 26 38 41
3 27 28 33
3 33 27 39
3 27 37 39
3 35 30 36
3 33 39 40
3 34 37 44
3 35 36 47
3 35 45 47
3 36 38 48
3 36 47 48
3 37 39 46
3 37 44 46
3 38 41 42
3 42 38 48
3 39 40 49
3 39 46 49
3 40 43 49
3 42 48 51
3 43 49 58
3 43 50 58
3 44 46 53
3 45 47 57
3 45 54 57
3 46 49 56
3 46 53 56
3 47 48 59
3 47 57 59
3 48 51 59
3 49 56 58
3 50 52 61
3 50 58 61
3 51 52 59
3 52 59 61
3 53 55 56
3 54 55 60
3 54 57 60
3 55 56 60
3 56 58 60
3 57 59 61
3 57 60 61
3 58 60 61
3 100 95 105
3 94 100 108
3 91 94 104
3 82 91 97
3 81 82 85
3 72 81 75
3 71 72 64
3 73 71 62
3 80 73 65
3 83 80 74
3 90 83 84
3 95 90 96
3 108 105 107
3 108 105 100
3 104 108 109
3 104 108 94
3 97 104 106
3 97 104 91
3 85 97 99
3 85 97 82
3 75 85 87
3 75 85 81
3 64 75 76
3 64 75 72
3 62 64 66
3 62 64 71
3 65 62 63
3 65 62 73
3 74 65 67
3 74 65 80
3 84 74 77
3 84 74 83
3 96 84 86
3 96 84 90
3 105 96 98
3 105 96 95
3 109 107 102
3 109 107 108
3 106 109 103
3 106 109 104
3 99 106 101
3 99 106 97
3 87 99 93
3 87 99 85
3 76 87 88
3 76 87 75
3 66 76 78
3 66 76 64
3 63 66 69
3 63 66 62
3 67 63 68
3 67 63 65
3 77 67 70
3 77 67 74
3 86 77 79
3 86 77 84
3 98 86 89
3 98 86 96
3 107 98 92
3 107 98 105
3 103 102 109
3 101 103 106
3 93 101 99
3 88 93 87
3 78 88 76
3 69 78 66
3 68 69 63
3 70 68 67
3 79 70 77
3 89 79 86
3 92 89 98
3 102 92 107
3 307 262 263
3 280 245 244
3 118 115 114
3 118 115 117
3 119 114 113
3 119 114 118
3 120 113 112
3 120 113 119
3 121 112 131
3 121 112 120
3 131 122 121
3 131 122 130
3 130 123 122
3 130 123 129
3 129 124 123
3 129 124 128
3 128 125 124
3 128 125 127
3 117 115 116
3 127 125 126
3 133 132 137
3 133 132 134
3 133 134 136
3 110 134 135
3 110 134 132
3 110 132 138
3 138 136 137
3 138 136 135
3 138 135 110
3 135 136 134
3 136 137 133
3 137 138 132
3 140 145 144
3 140 145 139
3 141 144 143
3 141 144 140
3 142 143 111
3 142 143 141
3 139 111 145
3 139 111 142
3 140 139 141
3 142 141 139
3 145 143 144
3 145 143 111
3 149 147 148
3 149 147 146
3 310 146 149
3 310 146 311
3 309 311 310
3 309 311 312
3 148 312 309
3 148 312 147
3 147 146 312
3 146 311 312
3 149 309 148
3 149 309 310
3 151 150 152
3 151 150 169
3 169 150 168
3 168 150 170
3 151 169 171
3 150 152 170
3 152 151 153
3 152 153 154
3 153 151 171
3 152 154 170
3 154 153 155
3 154 155 156
3 155 153 171
3 154 156 170
3 156 155 157
3 156 157 158
3 157 155 171
3 156 158 170
3 158 157 159
3 158 159 160
3 159 157 171
3 158 160 170
3 160 159 161
3 160 161 162
3 161 159 171
3 160 162 170
3 162 161 163
3 162 163 164
3 163 161 171
3 162 164 170
3 164 163 165
3 164 165 166
3 165 163 171
3 164 166 170
3 166 165 167
3 166 167 168
3 167 165 171
3 166 168 170
3 168 167 169
3 169 167 171
3 253 207 172
3 253 207 282
3 253 282 252
3 252 282 281
3 252 281 251
3 280 244 243
3 243 280 279
3 243 279 180
3 180 279 215
3 180 215 179
3 179 215 214
3 179 214 178
3 178 214 213
3 178 213 177
3 177 213 212
3 177 212 176
3 176 212 211
3 176 211 175
3 175 211 210
3 175 210 174
3 174 210 209
3 174 209 173
3 173 209 208
3 173 208 172
3 172 208 207
3 282 190 207
3 282 190 269
3 282 269 281
3 281 269 268
3 280 267 279
3 279 267 266
3 279 266 215
3 215 266 198
3 215 198 214
3 214 198 197
3 214 197 213
3 213 197 196
3 213 196 212
3 212 196 195
3 212 195 211
3 211 195 194
3 211 194 210
3 210 194 193
3 210 193 209
3 209 193 192
3 209 192 208
3 208 192 191
3 208 191 207
3 207 191 190
3 265 293 216
3 265 293 292
3 265 292 291
3 265 291 290
3 265 290 289
3 265 289 288
3 265 288 287
3 265 287 286
3 265 286 285
3 265 285 284
3 265 284 283
3 265 283 224
3 265 224 223
3 265 223 222
3 265 222 221
3 265 221 220
3 265 220 219
3 265 219 218
3 265 218 217
3 265 217 216
3 293 172 216
3 293 172 253
3 293 253 292
3 292 253 252
3 292 252 291
3 291 252 251
3 291 251 290
3 290 251 250
3 290 250 289
3 289 250 249
3 289 249 288
3 288 249 248
3 288 248 287
3 287 248 247
3 287 247 286
3 286 247 246
3 286 246 285
3 285 246 245
3 285 245 284
3 284 245 244
3 284 244 283
3 283 244 243
3 283 243 224
3 224 243 180
3 224 180 223
3 223 180 179
3 223 179 222
3 222 179 178
3 222 178 221
3 221 178 177
3 221 177 220
3 220 177 176
3 220 176 219
3 219 176 175
3 219 175 218
3 218 175 174
3 218 174 217
3 217 174 173
3 217 173 216
3 216 173 172
3 264 225 181
3 264 225 304
3 264 304 263
3 263 304 303
3 263 303 262
3 262 303 302
3 262 302 261
3 261 302 301
3 261 301 260
3 260 301 300
3 260 300 259
3 259 300 299
3 259 299 258
3 258 299 298
3 258 298 257
3 257 298 297
3 257 297 256
3 256 297 296
3 256 296 255
3 255 296 295
3 255 295 254
3 254 295 294
3 254 294 189
3 189 294 233
3 189 233 188
3 188 233 232
3 188 232 187
3 187 232 231
3 187 231 186
3 186 231 230
3 186 230 185
3 185 230 229
3 185 229 184
3 184 229 228
3 184 228 183
3 183 228 227
3 183 227 182
3 182 227 226
3 182 226 181
3 181 226 225
3 304 199 225
3 304 199 278
3 304 278 303
3 303 278 277
3 303 277 302
3 302 277 276
3 302 276 301
3 301 276 275
3 301 275 300
3 300 275 274
3 300 274 299
3 299 274 273
3 299 273 298
3 298 273 272
3 298 272 297
3 297 272 271
3 297 271 296
3 296 271 270
3 296 270 295
3 206 232 231
3 231 206 205
3 231 205 230
3 230 205 204
3 230 204 229
3 229 204 203
3 229 203 228
3 228 203 202
3 228 202 227
3 227 202 201
3 227 201 226
3 226 201 200
3 226 200 225
3 225 200 199
3 269 234 190
3 269 234 308
3 269 308 268
3 268 308 307
3 267 306 266
3 266 306 305
3 266 305 198
3 198 305 242
3 198 242 197
3 197 242 241
3 197 241 196
3 196 241 240
3 196 240 195
3 195 240 239
3 195 239 194
3 194 239 238
3 194 238 193
3 193 238 237
3 193 237 192
3 192 237 236
3 192 236 191
3 191 236 235
3 191 235 190
3 190 235 234
3 308 181 234
3 308 181 264
3 308 264 307
3 307 264 263
3 306 256 255
3 306 255 305
3 305 255 254
3 305 254 242
3 242 254 189
3 242 189 241
3 241 189 188
3 241 188 240
3 240 188 187
3 240 187 239
3 239 187 186
3 239 186 238
3 238 186 185
3 238 185 237
3 237 185 184
3 237 184 236
3 236 184 183
3 236 183 235
3 235 183 182
3 235 182 234
3 234 182 181
3 199 131 112
3 199 131 278
3 278 131 130
3 278 130 277
3 277 130 129
3 277 129 276
3 276 129 128
3 276 128 275
3 275 128 127
3 275 127 274
3 274 127 126
3 274 126 273
3 273 126 125
3 273 125 272
3 272 125 124
3 272 124 271
3 271 124 123
3 271 123 270
3 270 123 122
3 119 206 118
3 206 118 205
3 205 118 117
3 205 117 204
3 204 117 116
3 204 116 203
3 203 116 115
3 203 115 202
3 202 115 114
3 202 114 201
3 201 114 113
3 201 113 200
3 200 113 112
3 200 112 199
3 313 314 318
3 313 314 315
3 315 313 320
3 313 316 319
3 313 316 318
3 319 313 320
3 314 315 317
3 317 314 322
3 314 318 324
3 322 314 324
3 315 317 325
3 315 320 330
3 325 315 330
3 316 318 328
3 316 319 321
3 321 316 326
3 326 316 328
3 20 21 323
3 20 22 322
3 322 20 323
3 317 322 323
3 323 317 327
3 317 325 327
3 318 324 332
3 318 328 332
3 319 320 330
3 319 321 329
3 329 319 330
3 21 323 331
3 21 31 331
3 22 322 324
3 324 22 30
3 321 326 329
3 323 327 331
3 324 30 332
3 325 327 335
3 325 330 333
3 333 325 335
3 326 328 337
3 326 329 336
3 336 326 337
3 327 331 338
3 327 335 338
3 328 332 340
3 328 337 340
3 329 330 351
3 329 334 342
3 329 334 336
3 342 329 351
3 330 333 341
3 341 330 351
3 30 332 35
3 31 331 339
3 339 31 34
3 331 338 339
3 332 340 35
3 333 335 341
3 334 336 346
3 334 342 346
3 335 338 345
3 335 341 345
3 336 337 348
3 336 346 348
3 337 340 343
3 343 337 348
3 338 339 347
3 338 345 347
3 339 34 344
3 344 339 347
3 340 35 45
3 340 343 45
3 34 344 44
3 341 345 349
3 349 341 351
3 342 346 356
3 342 350 356
3 342 350 351
3 343 348 353
3 343 45 54
3 353 343 54
3 344 347 357
3 344 44 352
3 352 344 357
3 345 347 355
3 345 349 355
3 346 348 358
3 346 356 358
3 347 355 357
3 348 353 358
3 349 351 355
3 350 351 359
3 350 356 359
3 44 352 53
3 351 355 359
3 352 354 360
3 352 354 53
3 352 357 360
3 353 354 55
3 353 354 358
3 353 54 55
3 354 358 360
3 354 53 55
3 355 357 359
3 356 358 360
3 356 359 360
3 357 359 360
3 391 370 380
3 391 370 392
3 370 392 379
3 392 391 402
3 380 391 388
3 370 380 372
3 379 370 371
3 392 379 387
3 402 392 400
3 391 402 401
3 103 102 398
3 101 103 399
3 93 101 397
3 88 93 389
3 78 88 381
3 69 78 378
3 68 69 368
3 70 68 367
3 79 70 369
3 89 79 377
3 92 89 382
3 102 92 390
3 399 398 404
3 399 398 103
3 397 399 407
3 397 399 101
3 389 397 403
3 389 397 93
3 381 389 393
3 381 389 88
3 378 381 384
3 378 381 78
3 368 378 373
3 368 378 69
3 367 368 363
3 367 368 68
3 369 367 361
3 369 367 70
3 377 369 364
3 377 369 79
3 382 377 374
3 382 377 89
3 390 382 383
3 390 382 92
3 398 390 394
3 398 390 102
3 407 404 406
3 407 404 399
3 403 407 408
3 403 407 397
3 393 403 405
3 393 403 389
3 384 393 395
3 384 393 381
3 373 384 385
3 373 384 378
3 363 373 375
3 363 373 368
3 361 363 365
3 361 363 367
3 364 361 362
3 364 361 369
3 374 364 366
3 374 364 377
3 383 374 376
3 383 374 382
3 394 383 386
3 394 383 390
3 404 394 396
3 404 394 398
3 408 406 401
3 408 406 407
3 405 408 402
3 405 408 403
3 395 405 400
3 395 405 393
3 385 395 392
3 385 395 384
3 375 385 387
3 375 385 373
3 365 375 379
3 365 375 363
3 362 365 371
3 362 365 361
3 366 362 370
3 366 362 364
3 376 366 372
3 376 366 374
3 386 376 380
3 386 376 383
3 396 386 388
3 396 386 394
3 406 396 391
3 406 396 404
3 402 401 408
3 400 402 405
3 392 400 395
3 387 392 385
3 379 387 375
3 371 379 365
3 370 371 362
3 372 370 366
3 380 372 376
3 388 380 386
3 391 388 396
3 401 391 406
3 415 414 409
3 411 415 419
3 411 415 410
3 410 411 417
3 409 410 415
3 410 419 417
3 410 419 409
3 419 409 414
3 409 414 413
3 409 410 412
3 417 410 418
3 419 417 420
3 419 417 411
3 414 419 416
3 414 419 415
3 420 416 419
3 420 416 413
3 418 420 417
3 418 420 412
3 412 418 410
3 413 412 409
3 413 412 420
3 416 413 414
3 426 428 431
3 426 428 425
3 431 429 430
3 431 429 428
3 430 423 424
3 430 423 429
3 424 421 422
3 424 421 423
3 422 425 426
3 422 425 421
3 429 421 423
3 429 421 428
3 421 428 425
3 427 426 422
3 432 422 427
3 432 422 424
3 430 424 432
3 426 422 431
3 422 424 430
3 430 431 422
3 430 427 432
3 430 427 431
3 427 431 426
3 433 438 439
3 433 438 440
3 433 440 434
3 433 434 439
3 434 440 435
3 434 435 439
3 435 440 436
3 435 436 439
3 436 440 437
3 436 437 439
3 437 440 438
3 437 438 439
3 441 442 444
3 442 443 444
3 447 445 448
3 447 445 446
3 451 449 452
3 451 449 450
3 453 454 456
3 454 455 456
3 457 458 460
3 458 459 460
3 463 461 464
3 463 461 462
3 307 262 485
3 280 245 472
3 251 281 478
3 251 478 250
3 250 478 477
3 250 477 249
3 249 477 476
3 249 476 248
3 248 476 475
3 248 475 247
3 247 475 474
3 247 474 246
3 246 474 473
3 246 473 245
3 245 473 472
3 281 268 478
3 478 268 471
3 478 471 477
3 477 471 470
3 477 470 476
3 476 470 469
3 476 469 475
3 475 469 468
3 475 468 474
3 474 468 467
3 474 467 473
3 473 467 466
3 473 466 472
3 472 466 465
3 472 465 280
3 280 465 267
3 268 307 471
3 471 307 485
3 471 485 470
3 470 485 484
3 470 484 469
3 469 484 483
3 469 483 468
3 468 483 482
3 468 482 467
3 467 482 481
3 467 481 466
3 466 481 480
3 466 480 465
3 465 480 479
3 465 479 267
3 267 479 306
3 262 485 484
3 484 262 261
3 484 261 483
3 483 261 260
3 483 260 482
3 482 260 259
3 482 259 481
3 481 259 258
3 481 258 480
3 480 258 257
3 480 257 479
3 479 257 256
3 479 256 306
