ply
format ascii 1.0
element vertex 366
property float x
property float y
property float z
element face 784
property list uchar int vertex_indices
end_header
0.3824180066585541 0.11922100186347961 0.2897540032863617
0.3808610141277313 0.13012300431728363 0.3987700045108795
0.38319700956344604 0.1456969976425171 0.3987700045108795
0.38319700956344604 0.12623000144958496 0.2897540032863617
0.49221301078796387 0.13012300431728363 0.41278699040412903
0.5311480164527893 0.11143399775028229 0.616802990436554
0.4820899963378906 0.11844299733638763 0.605122983455658
0.5677459836006165 0.09118849784135818 0.9664340019226074
0.593442976474762 0.08729510009288788 0.9750000238418579
0.586434006690979 0.08807379752397537 0.936843991279602
0.5739750266075134 0.0896311029791832 0.9111480116844177
0.5545079708099365 0.09274590015411377 0.8979099988937378
0.6136890053749084 0.09897539764642715 0.6370490193367004
0.425246000289917 0.08340159803628922 0.8659840226173401
0.4182380139827728 0.08340159803628922 0.8659840226173401
0.4182380139827728 0.06782790273427963 0.7569670081138611
0.44159799814224243 0.06782790273427963 0.7569670081138611
0.4400410056114197 0.06549180299043655 0.7445080280303955
0.4182380139827728 0.06081970036029816 0.724261999130249
0.44938498735427856 0.056147500872612 0.7569670081138611
0.4890980124473572 0.056147500872612 0.6907789707183838
0.49221301078796387 0.052254099398851395 0.6635249853134155
0.49221301078796387 0.056147500872612 0.6635249853134155
0.5 0.052254099398851395 0.4688520133495331
0.49922099709510803 0.056147500872612 0.4688520133495331
0.5038930177688599 0.052254099398851395 0.4182380139827728
0.5038930177688599 0.056147500872612 0.4166800081729889
0.5038930177688599 0.056147500872612 0.4050000011920929
0.4945490062236786 0.056147500872612 0.3325819969177246
0.49221301078796387 0.052254099398851395 0.32868900895118713
0.49221301078796387 0.056147500872612 0.3271310031414032
0.4649589955806732 0.056147500872612 0.3271310031414032
0.4649589955806732 0.052254099398851395 0.32868900895118713
0.46417999267578125 0.056147500872612 0.32791000604629517
0.46340200304985046 0.03823769837617874 0.3754099905490875
0.46184399724006653 0.056147500872612 0.3754099905490875
0.44393399357795715 0.025778699666261673 0.4182380139827728
0.45249998569488525 0.05069670081138611 0.3987700045108795
0.45561501383781433 0.056147500872612 0.3909839987754822
0.44159799814224243 0.05069670081138611 0.3987700045108795
0.4462699890136719 0.056147500872612 0.39176198840141296
0.44159799814224243 0.05069670081138611 0.2897540032863617
0.44704899191856384 0.056147500872612 0.2897540032863617
0.42991799116134644 0.049139298498630524 0.2897540032863617
0.42991799116134644 0.049139298498630524 0.3987700045108795
0.4283609986305237 0.049139298498630524 0.09118849784135818
0.43459001183509827 0.05069670081138611 0.09118849784135818
0.44159799814224243 0.05069670081138611 0.14959000051021576
0.42991799116134644 0.049139298498630524 0.14959000051021576
0.44159799814224243 0.05069670081138611 0.21967199444770813
0.42991799116134644 0.049139298498630524 0.21967199444770813
0.39487698674201965 0.15348400175571442 0.4688520133495331
0.4182380139827728 0.16126999258995056 0.4688520133495331
0.3816390037536621 0.137131005525589 0.4400410056114197
0.38631099462509155 0.14102500677108765 0.4688520133495331
0.3956559896469116 0.1511480063199997 0.5342620015144348
0.4182380139827728 0.1542620062828064 0.5903279781341553
0.42291000485420227 0.049139298498630524 0.044467199593782425
0.44704899191856384 0.056147500872612 0.21967199444770813
0.44704899191856384 0.056147500872612 0.14959000051021576
0.4400410056114197 0.056147500872612 0.09118849784135818
0.4283609986305237 0.056147500872612 0.044467199593782425
0.4182380139827728 0.06782790273427963 0.02500000037252903
0.4182380139827728 0.1885250061750412 0.6985660195350647
0.4182380139827728 0.3247950077056885 0.8698769807815552
0.4182380139827728 0.3325819969177246 0.8854510188102722
0.4182380139827728 0.3325819969177246 0.9204919934272766
0.4182380139827728 0.23991799354553223 0.8940160274505615
0.4532789885997772 0.1106560006737709 0.21967199444770813
0.4532789885997772 0.12623000144958496 0.2897540032863617
0.4540570080280304 0.11922100186347961 0.2897540032863617
0.49221301078796387 0.02500000037252903 0.4182380139827728
0.47897499799728394 0.02500000037252903 0.4688520133495331
0.4820899963378906 0.031229499727487564 0.517130970954895
0.48676198720932007 0.04524590075016022 0.6635249853134155
0.4766390025615692 0.04057380184531212 0.6635249853134155
0.47274601459503174 0.056147500872612 0.7569670081138611
0.46106600761413574 0.052254099398851395 0.7569670081138611
0.42991799116134644 0.04836070165038109 0.6635249853134155
0.4330329895019531 0.04057380184531212 0.6635249853134155
0.42991799116134644 0.04836070165038109 0.4688520133495331
0.43536901473999023 0.025778699666261673 0.4688520133495331
0.4182380139827728 0.09897539764642715 0.9204919934272766
0.39487698674201965 0.05069670081138611 0.3987700045108795
0.40655699372291565 0.049139298498630524 0.3987700045108795
0.40655699372291565 0.049917999655008316 0.43536901473999023
0.40655699372291565 0.04836070165038109 0.4688520133495331
0.42991799116134644 0.049917999655008316 0.43536901473999023
0.45483601093292236 0.137131005525589 0.4400410056114197
0.45561501383781433 0.13012300431728363 0.3987700045108795
0.4532789885997772 0.1456969976425171 0.3987700045108795
0.44082000851631165 0.1511480063199997 0.5342620015144348
0.45016399025917053 0.14102500677108765 0.4688520133495331
0.44159799814224243 0.15348400175571442 0.4688520133495331
0.4112299978733063 0.08340159803628922 0.8659840226173401
0.35438498854637146 0.11844299733638763 0.605122983455658
0.30532801151275635 0.11143399775028229 0.616802990436554
0.3442620038986206 0.13012300431728363 0.41278699040412903
0.2687300145626068 0.09118849784135818 0.9664340019226074
0.2430330067873001 0.08729510009288788 0.9750000238418579
0.25004100799560547 0.08807379752397537 0.936843991279602
0.26249998807907104 0.0896311029791832 0.9111480116844177
0.28196701407432556 0.09274590015411377 0.8979099988937378
0.22278699278831482 0.09897539764642715 0.6370490193367004
0.39254099130630493 0.025778699666261673 0.4182380139827728
0.38397499918937683 0.05069670081138611 0.3987700045108795
0.4011070132255554 0.025778699666261673 0.4688520133495331
0.35749998688697815 0.02500000037252903 0.4688520133495331
0.3442620038986206 0.02500000037252903 0.4182380139827728
0.40344300866127014 0.04057380184531212 0.6635249853134155
0.35983601212501526 0.04057380184531212 0.6635249853134155
0.40655699372291565 0.04836070165038109 0.6635249853134155
0.3754099905490875 0.052254099398851395 0.7569670081138611
0.39487698674201965 0.06782790273427963 0.7569670081138611
0.3870899975299835 0.056147500872612 0.7569670081138611
0.3442620038986206 0.052254099398851395 0.6635249853134155
0.349712997674942 0.04524590075016022 0.6635249853134155
0.3637300133705139 0.056147500872612 0.7569670081138611
0.3473770022392273 0.056147500872612 0.6907789707183838
0.35438498854637146 0.031229499727487564 0.517130970954895
0.3364750146865845 0.052254099398851395 0.4688520133495331
0.3325819969177246 0.052254099398851395 0.4182380139827728
0.3325819969177246 0.056147500872612 0.4050000011920929
0.3419260084629059 0.056147500872612 0.3325819969177246
0.3442620038986206 0.052254099398851395 0.32868900895118713
0.3964340090751648 0.06549180299043655 0.7445080280303955
0.3442620038986206 0.056147500872612 0.6635249853134155
0.33725398778915405 0.056147500872612 0.4688520133495331
0.3325819969177246 0.056147500872612 0.4166800081729889
0.3442620038986206 0.056147500872612 0.3271310031414032
0.37229499220848083 0.056147500872612 0.32791000604629517
0.37151598930358887 0.052254099398851395 0.32868900895118713
0.37151598930358887 0.056147500872612 0.3271310031414032
0.37463098764419556 0.056147500872612 0.3754099905490875
0.3730739951133728 0.03823769837617874 0.3754099905490875
0.3808610141277313 0.056147500872612 0.3909839987754822
0.3902049958705902 0.056147500872612 0.39176198840141296
0.38942599296569824 0.056147500872612 0.2897540032863617
0.39487698674201965 0.05069670081138611 0.2897540032863617
0.40655699372291565 0.049139298498630524 0.2897540032863617
0.40655699372291565 0.049139298498630524 0.14959000051021576
0.39487698674201965 0.05069670081138611 0.14959000051021576
0.4018850028514862 0.05069670081138611 0.09118849784135818
0.4081149995326996 0.049139298498630524 0.09118849784135818
0.40655699372291565 0.049139298498630524 0.21967199444770813
0.39487698674201965 0.05069670081138611 0.21967199444770813
0.413565993309021 0.049139298498630524 0.044467199593782425
0.38942599296569824 0.056147500872612 0.21967199444770813
0.38942599296569824 0.056147500872612 0.14959000051021576
0.3964340090751648 0.056147500872612 0.09118849784135818
0.4081149995326996 0.056147500872612 0.044467199593782425
0.38319700956344604 0.1106560006737709 0.21967199444770813
0.15659800171852112 0.09352459758520126 0.5802050232887268
0.15815599262714386 0.0896311029791832 0.5132380127906799
0.1511480063199997 0.09196720272302628 0.5965570211410522
0.13245899975299835 0.0849590003490448 0.6596310138702393
0.15036900341510773 0.09274590015411377 0.5638520121574402
0.13479499518871307 0.08885250240564346 0.6035659909248352
0.13323800265789032 0.09040980041027069 0.5584020018577576
0.11766400188207626 0.08729510009288788 0.5646309852600098
0.05069670081138611 0.07717210054397583 0.5809839963912964
0.15893399715423584 0.09352459758520126 0.5054510235786438
0.11143399775028229 0.08651640266180038 0.5809839963912964
0.11844299733638763 0.08651640266180038 0.5973359942436218
0.02500000037252903 0.06782790273427963 0.6868849992752075
0.031229499727487564 0.07327870279550552 0.6175820231437683
0.6783199906349182 0.0896311029791832 0.5132380127906799
0.679876983165741 0.09352459758520126 0.5802050232887268
0.6853280067443848 0.09196720272302628 0.5965570211410522
0.7040159702301025 0.0849590003490448 0.6596310138702393
0.6861069798469543 0.09274590015411377 0.5638520121574402
0.7016800045967102 0.08885250240564346 0.6035659909248352
0.7032380104064941 0.09040980041027069 0.5584020018577576
0.6775410175323486 0.09352459758520126 0.5054510235786438
0.7857789993286133 0.07717210054397583 0.5809839963912964
0.7188109755516052 0.08729510009288788 0.5646309852600098
0.7250409722328186 0.08651640266180038 0.5809839963912964
0.8052459955215454 0.07327870279550552 0.6175820231437683
0.8114749789237976 0.06782790273427963 0.6868849992752075
0.7180330157279968 0.08651640266180038 0.5973359942436218
0.4182380139827728 0.04836070165038109 0.4688520133495331
0.3824180066585541 0.07483609765768051 0.7569670081138611
0.38631099462509155 0.06782790273427963 0.7569670081138611
0.3870899975299835 0.07950820028781891 0.7569670081138611
0.3824180066585541 0.060040999203920364 0.7569670081138611
0.3754099905490875 0.05692619830369949 0.7569670081138611
0.3676230013370514 0.060040999203920364 0.7569670081138611
0.3325819969177246 0.07249999791383743 0.350492000579834
0.3559429943561554 0.06782790273427963 0.7569670081138611
0.3645080029964447 0.06782790273427963 0.7569670081138611
0.3676230013370514 0.07483609765768051 0.7569670081138611
0.3668439984321594 0.08729510009288788 0.7569670081138611
0.3754099905490875 0.07872950285673141 0.7569670081138611
0.3754099905490875 0.08729510009288788 0.7569670081138611
0.3325819969177246 0.08340159803628922 0.3473770022392273
0.3325819969177246 0.10831999778747559 0.3987700045108795
0.3325819969177246 0.09819670021533966 0.3434840142726898
0.3442620038986206 0.1106560006737709 0.3131150007247925
0.4018850028514862 0.08340159803628922 0.8659840226173401
0.37463098764419556 0.06782790273427963 0.3754099905490875
0.3793030083179474 0.06782790273427963 0.3754099905490875
0.3987700045108795 0.06782790273427963 0.044467199593782425
0.3870899975299835 0.06782790273427963 0.09118849784135818
0.39254099130630493 0.09352459758520126 0.0896311029791832
0.4011070132255554 0.0810656026005745 0.04290980100631714
0.3730739951133728 0.10053300112485886 0.3209019899368286
0.4182380139827728 0.11454900354146957 0.9360659718513489
0.40655699372291565 0.1106560006737709 0.9204919934272766
0.3793030083179474 0.06782790273427963 0.14959000051021576
0.3870899975299835 0.10286899656057358 0.1480329930782318
0.3442620038986206 0.10209000110626221 0.31467199325561523
0.3442620038986206 0.08340159803628922 0.32012298703193665
0.3356969952583313 0.08340159803628922 0.34036898612976074
0.3442620038986206 0.06549180299043655 0.3247950077056885
0.4182380139827728 0.13012300431728363 0.9204919934272766
0.3940980136394501 0.09352459758520126 0.8659840226173401
0.458730012178421 0.09663929790258408 0.2897540032863617
0.458730012178421 0.10053300112485886 0.3209019899368286
0.4571720063686371 0.06782790273427963 0.3754099905490875
0.4571720063686371 0.06782790273427963 0.2897540032863617
0.43536901473999023 0.0810656026005745 0.04290980100631714
0.44393399357795715 0.09352459758520126 0.0896311029791832
0.44938498735427856 0.06782790273427963 0.09118849784135818
0.43770501017570496 0.06782790273427963 0.044467199593782425
0.43459001183509827 0.08340159803628922 0.8659840226173401
0.44938498735427856 0.10286899656057358 0.1480329930782318
0.4571720063686371 0.06782790273427963 0.14959000051021576
0.45795100927352905 0.08729510009288788 0.21967199444770813
0.4571720063686371 0.07795079797506332 0.19008199870586395
0.4182380139827728 0.04836070165038109 0.09118849784135818
0.4182380139827728 0.04836070165038109 0.044467199593782425
0.4182380139827728 0.04836070165038109 0.14959000051021576
0.4571720063686371 0.06782790273427963 0.21967199444770813
0.4182380139827728 0.04836070165038109 0.21967199444770813
0.4182380139827728 0.04836070165038109 0.2897540032863617
0.4182380139827728 0.04836070165038109 0.3987700045108795
0.3793030083179474 0.07795079797506332 0.19008199870586395
0.3785249888896942 0.08729510009288788 0.21967199444770813
0.3870899975299835 0.09897539764642715 0.8659840226173401
0.3824180066585541 0.09430330246686935 0.8231559991836548
0.4602870047092438 0.13012300431728363 0.3987700045108795
0.46340200304985046 0.10053300112485886 0.3209019899368286
0.46184399724006653 0.06782790273427963 0.3754099905490875
0.48053300380706787 0.06782790273427963 0.7569670081138611
0.4649589955806732 0.1106560006737709 0.3131150007247925
0.49221301078796387 0.11844299733638763 0.32868900895118713
0.49221301078796387 0.1106560006737709 0.3131150007247925
0.4649589955806732 0.11844299733638763 0.32868900895118713
0.49221301078796387 0.13012300431728363 0.3987700045108795
0.4571720063686371 0.13012300431728363 0.4688520133495331
0.49221301078796387 0.13012300431728363 0.4688520133495331
0.5038930177688599 0.09819670021533966 0.3434840142726898
0.5038930177688599 0.10831999778747559 0.3987700045108795
0.49844300746917725 0.11844299733638763 0.4688520133495331
0.4937700033187866 0.12623000144958496 0.4688520133495331
0.4571720063686371 0.11454900354146957 0.6635249853134155
0.4766390025615692 0.11221300065517426 0.6658610105514526
0.49221301078796387 0.08651640266180038 0.6635249853134155
0.46106600761413574 0.08729510009288788 0.7569670081138611
0.46963098645210266 0.08729510009288788 0.7569670081138611
0.4182380139827728 0.1456969976425171 0.7569670081138611
0.42680299282073975 0.1456969976425171 0.7569670081138611
0.4384840130805969 0.14491799473762512 0.6635249853134155
0.4182380139827728 0.14959000051021576 0.6635249853134155
0.4182380139827728 0.13790999352931976 0.8659840226173401
0.42680299282073975 0.13868899643421173 0.8659840226173401
0.42680299282073975 0.14180299639701843 0.8231559991836548
0.42991799116134644 0.1106560006737709 0.9204919934272766
0.44938498735427856 0.09897539764642715 0.8659840226173401
0.44315600395202637 0.10987699776887894 0.8659840226173401
0.4182380139827728 0.04836070165038109 0.6635249853134155
0.4540570080280304 0.09430330246686935 0.8231559991836548
0.4423770010471344 0.09352459758520126 0.8659840226173401
0.44938498735427856 0.07950820028781891 0.7569670081138611
0.3933199942111969 0.10987699776887894 0.8659840226173401
0.40967199206352234 0.13868899643421173 0.8659840226173401
0.40967199206352234 0.1456969976425171 0.7569670081138611
0.40967199206352234 0.14180299639701843 0.8231559991836548
0.39799201488494873 0.14491799473762512 0.6635249853134155
0.3793030083179474 0.11454900354146957 0.6635249853134155
0.3442620038986206 0.08651640266180038 0.6635249853134155
0.35983601212501526 0.11221300065517426 0.6658610105514526
0.338032990694046 0.11844299733638763 0.4688520133495331
0.3793030083179474 0.13012300431728363 0.4688520133495331
0.3442620038986206 0.13012300431728363 0.4688520133495331
0.34270501136779785 0.12623000144958496 0.4688520133495331
0.3442620038986206 0.13012300431728363 0.3987700045108795
0.3442620038986206 0.11844299733638763 0.32868900895118713
0.3761889934539795 0.13012300431728363 0.3987700045108795
0.5038930177688599 0.08340159803628922 0.3473770022392273
0.5038930177688599 0.07249999791383743 0.350492000579834
0.4540570080280304 0.07483609765768051 0.7569670081138611
0.46106600761413574 0.07872950285673141 0.7569670081138611
0.4688520133495331 0.07483609765768051 0.7569670081138611
0.47196701169013977 0.06782790273427963 0.7569670081138611
0.4688520133495331 0.060040999203920364 0.7569670081138611
0.46106600761413574 0.05692619830369949 0.7569670081138611
0.4540570080280304 0.060040999203920364 0.7569670081138611
0.45016399025917053 0.06782790273427963 0.7569670081138611
0.3793030083179474 0.06782790273427963 0.21967199444770813
0.37774598598480225 0.09663929790258408 0.2897540032863617
0.37774598598480225 0.10053300112485886 0.3209019899368286
0.40889298915863037 0.0841803029179573 0.04368849843740463
0.4026640057563782 0.09741800278425217 0.09040980041027069
0.3987700045108795 0.10754100233316422 0.1488109976053238
0.39721301198005676 0.10909800231456757 0.1713930070400238
0.44393399357795715 0.1106560006737709 0.8231559991836548
0.4392620027065277 0.10909800231456757 0.1713930070400238
0.43770501017570496 0.10754100233316422 0.1488109976053238
0.4338110089302063 0.09741800278425217 0.09040980041027069
0.4275819957256317 0.0841803029179573 0.04368849843740463
0.37151598930358887 0.11844299733638763 0.32868900895118713
0.39254099130630493 0.1106560006737709 0.8231559991836548
0.37151598930358887 0.1106560006737709 0.3131150007247925
0.3793030083179474 0.06782790273427963 0.2897540032863617
0.5007789731025696 0.08340159803628922 0.34036898612976074
0.49221301078796387 0.08340159803628922 0.32012298703193665
0.49221301078796387 0.10209000110626221 0.31467199325561523
0.49221301078796387 0.06549180299043655 0.3247950077056885
0.3785249888896942 0.09430330246686935 0.27340200543403625
0.3785249888896942 0.07950820028781891 0.2804099917411804
0.3793030083179474 0.06782790273427963 0.27417999505996704
0.3785249888896942 0.09040980041027069 0.24458999931812286
0.37696701288223267 0.09975410252809525 0.25938498973846436
0.3793030083179474 0.06782790273427963 0.2461480051279068
0.3785249888896942 0.07950820028781891 0.23991799354553223
0.38319700956344604 0.06237709894776344 0.2601639926433563
0.4571720063686371 0.06782790273427963 0.27417999505996704
0.45795100927352905 0.07950820028781891 0.2804099917411804
0.45795100927352905 0.09430330246686935 0.27340200543403625
0.45795100927352905 0.09040980041027069 0.24458999931812286
0.4595080018043518 0.09975410252809525 0.25938498973846436
0.45795100927352905 0.07950820028781891 0.23991799354553223
0.4571720063686371 0.06782790273427963 0.2461480051279068
0.4532789885997772 0.06237709894776344 0.2601639926433563
0.4182380139827728 0.11454900354146957 0.14959000051021576
0.3995490074157715 0.1223360002040863 0.17061500251293182
0.4182380139827728 0.17684400081634521 0.35983601212501526
0.44938498735427856 0.15737700462341309 0.338032990694046
0.44704899191856384 0.15893399715423584 0.28819701075553894
0.4182380139827728 0.17684400081634521 0.2897540032863617
0.436926007270813 0.1223360002040863 0.17061500251293182
0.4182380139827728 0.1340160071849823 0.17295099794864655
0.4486069977283478 0.13557399809360504 0.21811500191688538
0.4182380139827728 0.15348400175571442 0.21967199444770813
0.3878690004348755 0.13557399809360504 0.21811500191688538
0.38942599296569824 0.15893399715423584 0.28819701075553894
0.3870899975299835 0.15737700462341309 0.338032990694046
0.3676230013370514 0.07483609765768051 0.7764340043067932
0.3645080029964447 0.06782790273427963 0.7764340043067932
0.3676230013370514 0.060040999203920364 0.7764340043067932
0.3754099905490875 0.05692619830369949 0.7764340043067932
0.3824180066585541 0.060040999203920364 0.7764340043067932
0.38631099462509155 0.06782790273427963 0.7764340043067932
0.3824180066585541 0.07483609765768051 0.7764340043067932
0.3754099905490875 0.07872950285673141 0.7764340043067932
0.46106600761413574 0.07872950285673141 0.7764340043067932
0.4540570080280304 0.07483609765768051 0.7764340043067932
0.45016399025917053 0.06782790273427963 0.7764340043067932
0.4540570080280304 0.060040999203920364 0.7764340043067932
0.46106600761413574 0.05692619830369949 0.7764340043067932
0.4688520133495331 0.060040999203920364 0.7764340043067932
0.47196701169013977 0.06782790273427963 0.7764340043067932
0.4688520133495331 0.07483609765768051 0.7764340043067932
0.4182380139827728 0.08729510009288788 0.044467199593782425
0.4182380139827728 0.10286899656057358 0.09118849784135818
3 0 1 2
3 4 5 6
3 4 5 12
3 13 14 15
3 17 16 15
3 19 16 17
3 20 21 22
3 22 21 23
3 24 23 25
3 26 25 27
3 28 29 30
3 31 32 33
3 33 32 34
3 35 34 36
3 38 37 39
3 40 39 41
3 43 41 39
3 45 46 47
3 48 47 49
3 50 49 41
3 2 51 52
3 2 53 54
3 52 51 55
3 51 54 55
3 57 46 45
3 42 41 49
3 58 49 47
3 59 47 46
3 60 46 57
3 61 57 62
3 68 69 70
3 2 1 53
3 29 28 27
3 71 25 23
3 71 23 72
3 73 72 23
3 73 23 21
3 74 75 72
3 76 77 75
3 20 76 74
3 19 78 79
3 79 77 19
3 77 79 75
3 80 81 79
3 81 72 75
3 39 36 81
3 36 71 72
3 39 37 36
3 14 13 82
3 83 84 85
3 83 85 86
3 80 87 39
3 87 44 39
3 88 89 90
3 91 92 93
3 56 91 93
3 93 92 88
3 52 93 90
3 69 90 89
3 82 94 14
3 95 96 97
3 103 96 97
3 104 105 83
3 106 107 108
3 86 106 104
3 109 110 107
3 111 109 106
3 110 109 112
3 113 15 14
3 114 112 109
3 109 111 114
3 115 116 117
3 116 110 112
3 119 107 110
3 116 115 120
3 120 107 119
3 107 120 108
3 120 121 108
3 108 121 122
3 18 15 113
3 125 113 114
3 126 115 118
3 127 120 115
3 128 121 120
3 122 121 128
3 129 124 123
3 130 131 132
3 133 134 131
3 135 105 104
3 136 83 105
3 137 138 83
3 84 83 138
3 140 141 142
3 144 145 141
3 139 138 145
3 143 142 146
3 147 145 138
3 148 141 145
3 149 142 141
3 150 146 142
3 62 146 150
3 0 3 151
3 103 152 153
3 103 154 152
3 103 155 154
3 152 156 153
3 155 157 154
3 156 158 153
3 108 134 104
3 108 124 131
3 159 160 161
3 159 162 160
3 162 163 155
3 163 157 155
3 161 153 158
3 36 34 71
3 34 32 29
3 4 166 167
3 167 168 12
3 168 169 12
3 166 170 167
3 168 171 169
3 166 172 170
3 172 173 174
3 174 176 175
3 174 177 178
3 169 171 179
3 172 166 173
3 85 180 86
3 4 12 5
3 181 182 113
3 182 184 114
3 112 114 184
3 117 112 185
3 122 187 123
3 188 117 186
3 188 189 190
3 191 190 192
3 193 192 181
3 117 188 118
3 194 187 122
3 197 194 196
3 111 125 114
3 82 198 94
3 135 133 199
3 136 135 199
3 201 202 203
3 199 133 130
3 206 207 82
3 96 103 97
3 202 208 209
3 129 123 187
3 210 211 212
3 212 211 213
3 214 207 206
3 82 215 198
3 216 217 218
3 220 221 222
3 13 224 82
3 221 225 226
3 68 227 228
3 225 228 226
3 223 222 60
3 57 45 229
3 222 226 59
3 45 48 231
3 226 232 58
3 48 50 233
3 50 43 234
3 219 218 40
3 43 44 235
3 209 236 237
3 220 223 62
3 223 61 62
3 57 230 62
3 82 207 215
3 238 215 207
3 183 113 198
3 193 183 215
3 240 241 217
3 241 242 218
3 20 243 76
3 241 240 244
3 31 33 241
3 245 246 244
3 247 244 240
3 247 240 248
3 113 94 198
3 249 240 89
3 249 250 4
3 245 251 246
3 248 252 251
3 253 24 26
3 248 4 250
3 255 256 6
3 257 22 24
3 258 259 256
3 259 243 257
3 243 20 22
3 260 261 262
3 261 258 255
3 264 265 266
3 214 265 264
3 265 214 267
3 111 270 18
3 270 111 86
3 180 80 78
3 17 18 270
3 224 13 16
3 271 268 272
3 272 224 16
3 267 272 268
3 272 267 82
3 224 272 82
3 274 238 207
3 206 267 214
3 82 267 206
3 264 275 214
3 241 33 35
3 218 242 38
3 242 35 38
3 260 276 277
3 278 279 193
3 263 278 276
3 280 126 118
3 281 280 188
3 19 17 78
3 279 281 191
3 282 127 126
3 283 284 95
3 195 282 285
3 195 128 127
3 287 196 195
3 197 196 287
3 288 286 97
3 1 288 283
3 251 289 246
3 251 252 26
3 273 291 292
3 258 292 293
3 259 293 294
3 294 295 76
3 295 296 77
3 296 297 19
3 16 19 297
3 273 16 298
3 208 236 209
3 150 149 202
3 230 229 143
3 149 148 208
3 28 290 27
3 229 231 140
3 148 147 299
3 231 233 144
3 233 234 139
3 53 283 54
3 0 300 301
3 62 204 302
3 302 204 203
3 303 203 209
3 304 209 151
3 271 258 261
3 307 68 225
3 308 225 221
3 309 221 220
3 310 220 62
3 287 286 288
3 89 217 216
3 92 249 88
3 88 249 89
3 91 262 255
3 56 263 262
3 312 277 276
3 288 313 311
3 311 313 197
3 313 205 130
3 313 288 205
3 137 136 200
3 301 200 199
3 1 301 205
3 62 230 146
3 62 150 201
3 62 201 204
3 80 180 87
3 234 235 84
3 87 180 235
3 284 285 95
3 285 282 280
3 280 281 95
3 277 312 274
3 312 239 238
3 265 269 306
3 269 268 271
3 6 254 250
3 6 257 253
3 6 256 257
3 232 228 227
3 232 226 228
3 237 236 299
3 236 208 299
3 4 254 5
3 254 6 5
3 12 167 166
3 12 168 167
3 12 169 168
3 167 170 166
3 169 171 168
3 170 172 166
3 169 179 171
3 169 178 177
3 174 175 176
3 174 173 172
3 84 235 180
3 289 290 28
3 315 316 317
3 318 316 315
3 314 200 301
3 1 283 53
3 54 283 279
3 55 278 263
3 173 166 172
3 319 320 314
3 320 321 314
3 151 322 323
3 323 319 0
3 151 237 322
3 319 300 0
3 299 324 325
3 325 322 237
3 147 324 299
3 147 326 324
3 147 137 326
3 137 321 326
3 137 314 321
3 157 163 155
3 163 162 160
3 162 159 160
3 159 158 161
3 219 327 328
3 216 219 328
3 70 216 329
3 330 227 68
3 70 329 331
3 70 331 330
3 227 330 332
3 227 332 333
3 327 219 42
3 334 327 42
3 334 42 58
3 333 334 58
3 232 333 58
3 96 95 285
3 96 285 97
3 153 158 156
3 154 157 155
3 153 156 152
3 154 155 103
3 152 154 103
3 97 153 152
3 158 153 161
3 335 305 336
3 337 52 90
3 339 338 90
3 337 338 339
3 341 307 335
3 342 341 335
3 343 339 69
3 344 340 339
3 335 336 342
3 341 343 68
3 342 344 343
3 336 345 344
3 305 151 345
3 345 346 340
3 340 346 347
3 3 2 347
3 347 2 52
3 151 3 346
3 289 30 318
3 197 210 212
3 212 213 129
3 289 315 317
3 323 322 325
3 329 328 327
3 348 349 350
3 356 357 358
3 354 353 182
3 355 354 181
3 353 352 184
3 352 351 185
3 351 350 186
3 350 349 189
3 349 348 190
3 293 292 356
3 348 355 192
3 294 293 363
3 295 294 362
3 296 295 361
3 297 296 360
3 298 297 359
3 291 298 358
3 292 291 357
3 244 246 317
3 364 310 62
3 335 307 308
3 304 305 335
3 365 335 308
3 364 365 309
3 303 304 335
3 302 303 365
3 132 131 124
3 62 302 364
3 7 8 9
3 11 10 9
3 63 64 65
3 67 66 65
3 98 99 100
3 102 101 100
3 63 64 65
3 67 66 65
3 56 63 263
3 263 63 56
3 63 260 263
3 263 260 63
3 63 67 264
3 260 264 67
3 312 274 102
3 102 274 312
3 274 207 98
3 102 98 207
3 306 269 11
3 11 269 306
3 269 267 7
3 11 7 267
3 56 63 263
3 263 63 56
3 63 260 263
3 263 260 63
3 63 67 264
3 260 264 67
3 157 154 152
3 163 162 159
3 171 168 167
3 179 176 175
3 0 2 3
3 13 15 16
3 17 15 18
3 22 23 24
3 24 25 26
3 33 34 35
3 35 36 37
3 35 37 38
3 38 39 40
3 40 41 42
3 43 39 44
3 45 47 48
3 48 49 50
3 50 41 43
3 2 54 51
3 52 55 56
3 42 49 58
3 58 47 59
3 59 46 60
3 60 57 61
3 29 27 25
3 29 25 71
3 73 21 74
3 74 72 73
3 76 75 74
3 20 74 21
3 80 79 78
3 81 75 79
3 39 81 80
3 36 72 81
3 56 93 52
3 93 88 90
3 69 89 70
3 106 108 104
3 86 104 83
3 109 107 106
3 111 106 86
3 113 14 94
3 115 117 118
3 116 112 117
3 119 110 116
3 116 120 119
3 108 122 123
3 108 123 124
3 18 113 125
3 127 115 126
3 128 120 127
3 133 131 130
3 135 104 134
3 135 134 133
3 136 105 135
3 137 83 136
3 84 138 139
3 140 142 143
3 144 141 140
3 139 145 144
3 147 138 137
3 148 145 147
3 149 141 148
3 150 142 149
3 103 153 97
3 108 131 134
3 159 161 158
3 162 155 164
3 162 164 165
3 162 165 160
3 34 29 71
3 4 167 12
3 172 174 175
3 174 178 169
3 174 169 179
3 174 179 176
3 181 113 183
3 182 114 113
3 112 184 185
3 117 185 186
3 188 186 189
3 188 190 191
3 191 192 193
3 193 181 183
3 194 122 128
3 194 128 195
3 194 195 196
3 136 199 200
3 201 203 204
3 199 130 205
3 202 209 203
3 129 187 194
3 216 218 219
3 220 222 223
3 221 226 222
3 68 228 225
3 223 60 61
3 57 229 230
3 222 59 60
3 45 231 229
3 226 58 59
3 48 233 231
3 50 234 233
3 219 40 42
3 43 235 234
3 209 237 151
3 183 198 215
3 193 215 238
3 193 238 239
3 240 217 89
3 241 218 217
3 31 241 244
3 245 244 247
3 247 248 245
3 249 4 248
3 249 248 240
3 248 251 245
3 253 26 252
3 248 250 254
3 248 254 253
3 248 253 252
3 255 6 250
3 255 250 249
3 257 24 253
3 258 256 255
3 259 257 256
3 243 22 257
3 260 262 263
3 261 255 262
3 264 266 261
3 264 261 260
3 265 267 268
3 265 268 269
3 111 18 125
3 270 86 180
3 180 78 270
3 17 270 78
3 271 272 273
3 271 273 258
3 272 16 273
3 274 207 214
3 274 214 275
3 241 35 242
3 218 38 40
3 260 277 275
3 260 275 264
3 278 193 276
3 263 276 260
3 280 118 188
3 281 188 191
3 279 191 193
3 282 126 280
3 283 95 281
3 283 281 279
3 195 285 284
3 195 284 97
3 195 97 286
3 195 127 282
3 287 195 286
3 288 97 284
3 288 284 283
3 251 26 27
3 251 27 290
3 251 290 289
3 273 292 258
3 258 293 259
3 259 294 243
3 294 76 243
3 295 77 76
3 296 19 77
3 16 297 298
3 273 298 291
3 150 202 201
3 230 143 146
3 149 208 202
3 229 140 143
3 148 299 208
3 231 144 140
3 233 139 144
3 0 301 1
3 302 203 303
3 303 209 304
3 304 151 305
3 271 261 266
3 271 266 306
3 307 225 308
3 308 221 309
3 309 220 310
3 287 288 311
3 89 216 70
3 91 255 249
3 91 249 92
3 56 262 91
3 312 276 193
3 312 193 239
3 311 197 287
3 313 130 132
3 137 200 314
3 301 199 205
3 1 205 288
3 234 84 139
3 87 235 44
3 285 280 95
3 277 274 275
3 312 238 274
3 265 306 266
3 269 271 306
3 6 253 254
3 12 166 4
3 169 177 174
3 169 174 176
3 169 176 179
3 174 172 175
3 84 180 85
3 289 28 30
3 314 301 300
3 54 279 278
3 54 278 55
3 55 263 56
3 319 314 300
3 151 323 0
3 299 325 237
3 163 160 165
3 163 165 164
3 163 164 155
3 159 161 160
3 216 328 329
3 70 330 68
3 227 333 232
3 97 152 103
3 337 90 338
3 339 90 69
3 337 339 340
3 343 69 68
3 344 339 343
3 341 68 307
3 342 343 341
3 336 344 342
3 305 345 336
3 345 340 344
3 340 347 337
3 3 347 346
3 347 52 337
3 151 346 345
3 289 318 315
3 197 212 194
3 212 129 194
3 289 317 246
3 323 325 324
3 323 324 326
3 323 326 321
3 323 321 320
3 323 320 319
3 329 327 334
3 329 334 333
3 329 333 332
3 329 332 330
3 329 330 331
3 348 350 351
3 348 351 352
3 348 352 353
3 348 353 354
3 348 354 355
3 356 358 359
3 356 359 360
3 356 360 361
3 356 361 362
3 356 362 363
3 354 182 181
3 355 181 192
3 353 184 182
3 352 185 184
3 351 186 185
3 350 189 186
3 349 190 189
3 293 356 363
3 348 192 190
3 294 363 362
3 295 362 361
3 296 361 360
3 297 360 359
3 298 359 358
3 291 358 357
3 292 357 356
3 244 317 316
3 244 316 318
3 244 318 30
3 244 30 29
3 244 29 32
3 244 32 31
3 365 308 309
3 364 309 310
3 303 335 365
3 302 365 364
3 132 124 129
3 132 129 213
3 132 213 211
3 132 211 210
3 132 210 197
3 132 197 313
3 7 9 10
3 7 10 11
3 11 9 8
3 11 8 7
3 63 65 66
3 63 66 67
3 67 65 64
3 67 64 63
3 98 100 101
3 98 101 102
3 102 100 99
3 102 99 98
3 63 65 66
3 63 66 67
3 67 65 64
3 67 64 63
3 63 264 260
3 260 67 63
3 274 98 102
3 102 207 274
3 269 7 11
3 11 267 269
3 63 264 260
3 260 67 63
3 157 152 156
3 157 156 158
3 157 158 159
3 157 159 162
3 157 162 163
3 163 159 158
3 163 158 156
3 163 156 152
3 163 152 154
3 163 154 157
3 171 167 170
3 171 170 172
3 171 172 175
3 171 175 176
3 171 176 179
3 179 175 172
3 179 172 170
3 179 170 167
3 179 167 168
3 179 168 171
