ply
format ascii 1.0
element vertex 507
property float x
property float y
property float z
element face 1010
property list uchar int vertex_indices
end_header
0.4411419928073883 0.11037600040435791 0.07614730298519135
0.4411419928073883 0.12521199882030487 0.1404390037059784
0.46046799421310425 0.11877000331878662 0.1404390037059784
0.45428600907325745 0.10601600259542465 0.07614730298519135
0.4693180024623871 0.1049100011587143 0.1404390037059784
0.45942699909210205 0.09794680029153824 0.07614730298519135
0.4411419928073883 0.09215530008077621 0.02500000037252903
0.4506419897079468 0.08922699838876724 0.07614730298519135
0.4411419928073883 0.08629869669675827 0.07614730298519135
0.45493701100349426 0.09052850306034088 0.1404390037059784
0.4411419928073883 0.08629869669675827 0.1404390037059784
0.4833739995956421 0.09508360177278519 0.8173930048942566
0.48311400413513184 0.09508360177278519 0.9238529801368713
0.484609991312027 0.1213729977607727 0.9238529801368713
0.4848710000514984 0.1213729977607727 0.8190850019454956
0.3377409875392914 0.10536500066518784 0.9250239729881287
0.258417010307312 0.08115799725055695 0.9274970293045044
0.3014949858188629 0.09163469821214676 0.9600980281829834
0.34860798716545105 0.10770799964666367 0.9371280074119568
0.3694959878921509 0.10822799801826477 0.9603589773178101
0.31685200333595276 0.09319649636745453 0.9018579721450806
0.258417010307312 0.08115799725055695 0.8799930214881897
0.28236401081085205 0.08610349893569946 0.8635299801826477
0.06293749809265137 0.10894399881362915 0.6195719838142395
0.03189770132303238 0.10926900058984756 0.6310240030288696
0.03189770132303238 0.11115700006484985 0.6096150279045105
0.047189898788928986 0.11115700006484985 0.6021320223808289
0.06306769698858261 0.11362899839878082 0.6197670102119446
0.03189770132303238 0.11323899775743484 0.6312199831008911
0.03189770132303238 0.11323899775743484 0.6651229858398438
0.10041999816894531 0.11401999741792679 0.6613479852676392
0.7397609949111938 0.10809800028800964 0.6586800217628479
0.750889003276825 0.10822799801826477 0.6593310236930847
0.750889003276825 0.10913900285959244 0.6711090207099915
0.7730140089988708 0.10848899930715561 0.6606330275535583
0.7730140089988708 0.11109200119972229 0.6956419944763184
0.7730140089988708 0.11122199892997742 0.6956419944763184
0.7730140089988708 0.11415000259876251 0.6608279943466187
0.750889003276825 0.11440999805927277 0.659591019153595
0.750889003276825 0.11343400180339813 0.6711090207099915
0.7400220036506653 0.11454000324010849 0.6590059995651245
0.4344390034675598 0.1749279946088791 0.7630569934844971
0.4411419928073883 0.1615229994058609 0.6241269707679749
0.43404901027679443 0.15905000269412994 0.6826919913291931
0.43385300040245056 0.17375700175762177 0.7624070048332214
0.5992040038108826 0.08714470267295837 0.9461730122566223
0.6238660216331482 0.08115799725055695 0.9274970293045044
0.5812439918518066 0.09417250007390976 0.9261950254440308
0.47484898567199707 0.13712100684642792 0.8079580068588257
0.48500099778175354 0.1213729977607727 0.7849869728088379
0.4689280092716217 0.14837799966335297 0.7849869728088379
0.47094500064849854 0.14395299553871155 0.8035979866981506
0.4613789916038513 0.15000499784946442 0.792926013469696
0.4542210102081299 0.15267300605773926 0.7849869728088379
0.4604029953479767 0.15475499629974365 0.6826919913291931
0.4482339918613434 0.15905000269412994 0.6826919913291931
0.44810399413108826 0.15475499629974365 0.7782189846038818
0.43782299757003784 0.17616400122642517 0.7667670249938965
0.4411419928073883 0.17616400122642517 0.7594130039215088
0.4411419928073883 0.186380997300148 0.7704759836196899
0.4092560112476349 0.13764099776744843 0.7350760102272034
0.42188000679016113 0.15475499629974365 0.6826919913291931
0.4013170003890991 0.1234550029039383 0.6826919913291931
0.39969000220298767 0.12260899692773819 0.724403977394104
0.43417900800704956 0.15540599822998047 0.7627320289611816
0.4168039858341217 0.15098099410533905 0.7434049844741821
0.5527420043945312 0.11115700006484985 0.7141879796981812
0.5361480116844177 0.11115700006484985 0.7155539989471436
0.5361480116844177 0.10965999960899353 0.6957719922065735
0.49404600262641907 0.09729599952697754 0.6489840149879456
0.48343899846076965 0.09508360177278519 0.6826919913291931
0.48343899846076965 0.09508360177278519 0.6372060179710388
0.39272698760032654 0.12130799889564514 0.7166600227355957
0.3830310106277466 0.11883500218391418 0.7058579921722412
0.3603860139846802 0.11694800108671188 0.6806750297546387
0.3461349904537201 0.11694800108671188 0.6476179957389832
0.3461349904537201 0.11545100063085556 0.6648619771003723
0.3313629925251007 0.1167529970407486 0.648464024066925
0.3461349904537201 0.11694800108671188 0.5153250098228455
0.24514199793338776 0.11577700078487396 0.5526109933853149
0.3461349904537201 0.11395499855279922 0.484609991312027
0.32837000489234924 0.11115700006484985 0.4648280143737793
0.21566399931907654 0.11115700006484985 0.5198799967765808
0.37346601486206055 0.12020199745893478 0.5149989724159241
0.4926140010356903 0.12208899855613708 0.6473580002784729
0.4809660017490387 0.1234550029039383 0.6826919913291931
0.5085570216178894 0.12020199745893478 0.6651229858398438
0.5361480116844177 0.11284799873828888 0.6957719922065735
0.13139399886131287 0.11135199666023254 0.6957070231437683
0.10926900058984756 0.11330399662256241 0.6711090207099915
0.10926900058984756 0.11115700006484985 0.6962929964065552
0.13139399886131287 0.11115700006484985 0.6981149911880493
0.40691301226615906 0.05669049918651581 0.7324079871177673
0.4091910123825073 0.06762280315160751 0.7349460124969482
0.4080840051174164 0.06788309663534164 0.7216709852218628
0.40144699811935425 0.02500000037252903 0.6968129873275757
0.4083450138568878 0.06384850293397903 0.6826919913291931
0.4030739963054657 0.029229700565338135 0.7281129956245422
0.03189770132303238 0.11115700006484985 0.6899809837341309
0.4809660017490387 0.1234550029039383 0.6344730257987976
0.4604029953479767 0.15475499629974365 0.6116330027580261
0.10926900058984756 0.10926900058984756 0.6711090207099915
0.13139399886131287 0.11096099764108658 0.6957070231437683
0.1002890020608902 0.10855399817228317 0.6611530184745789
0.03189770132303238 0.10926900058984756 0.6651229858398438
0.34860798716545105 0.1002890020608902 0.9371280074119568
0.48278799653053284 0.11037600040435791 0.8142049908638
0.48051100969314575 0.11701299995183945 0.8142049908638
0.3377409875392914 0.0974913015961647 0.9250239729881287
0.31685200333595276 0.09898789972066879 0.9018579721450806
0.39734700322151184 0.1213729977607727 0.7996280193328857
0.39767301082611084 0.1213729977607727 0.9238529801368713
0.399168998003006 0.09508360177278519 0.9238529801368713
0.39884400367736816 0.09508360177278519 0.7996280193328857
0.4510979950428009 0.15800899267196655 0.6012210249900818
0.4411419928073883 0.1615229994058609 0.590224027633667
0.40125200152397156 0.1234550029039383 0.5459089875221252
0.4334630072116852 0.15885500609874725 0.581633985042572
0.42181500792503357 0.15475499629974365 0.5687500238418579
0.43164101243019104 0.08922699838876724 0.07614730298519135
0.42734599113464355 0.09052850306034088 0.1404390037059784
0.41296499967575073 0.1049100011587143 0.1404390037059784
0.42285600304603577 0.09794680029153824 0.07614730298519135
0.42799699306488037 0.10601600259542465 0.07614730298519135
0.42181500792503357 0.11877000331878662 0.1404390037059784
0.44843000173568726 0.17616400122642517 0.7754859924316406
0.44830000400543213 0.1693969964981079 0.7784799933433533
0.8503850102424622 0.11323899775743484 0.6651229858398438
0.8503850102424622 0.11323899775743484 0.6312199831008911
0.7730140089988708 0.11415000259876251 0.6027179956436157
0.7730140089988708 0.11115700006484985 0.5718079805374146
0.750889003276825 0.11115700006484985 0.5610060095787048
0.750889003276825 0.11440999805927277 0.5945839881896973
0.7730140089988708 0.10848899930715561 0.6025220155715942
0.750889003276825 0.10822799801826477 0.5943880081176758
0.6476830244064331 0.10718700289726257 0.5563859939575195
0.5742160081863403 0.11115700006484985 0.4747839868068695
0.6478130221366882 0.11564700305461884 0.5565159916877747
0.46938300132751465 0.065215103328228 0.721019983291626
0.47393798828125 0.06384850293397903 0.6826919913291931
0.48083600401878357 0.02500000037252903 0.6968129873275757
0.4778429865837097 0.03287379816174507 0.7552490234375
0.4713999927043915 0.06729739904403687 0.7553790211677551
0.47419899702072144 0.06788309663534164 0.7216709852218628
0.7730140089988708 0.11115700006484985 0.6962929964065552
0.8503850102424622 0.11115700006484985 0.6899809837341309
0.8503850102424622 0.11115700006484985 0.6096150279045105
0.8503850102424622 0.10926900058984756 0.6310240030288696
0.7620810270309448 0.11428000032901764 0.6226950287818909
0.7673519849777222 0.11421500146389008 0.6247770190238953
0.7698249816894531 0.11421500146389008 0.630308985710144
0.4482339918613434 0.17915800213813782 0.7784150242805481
0.7673519849777222 0.11421500146389008 0.6358399987220764
0.7620810270309448 0.11428000032901764 0.6380519866943359
0.7565500140190125 0.1143449991941452 0.6358399987220764
0.7540119886398315 0.11440999805927277 0.6304389834403992
0.5069299936294556 0.11694800108671188 0.7155539989471436
0.5221570134162903 0.11694800108671188 0.6802200078964233
0.5069299936294556 0.10530000180006027 0.7155539989471436
0.7565500140190125 0.1143449991941452 0.6249079704284668
0.5069299936294556 0.11694800108671188 0.7849869728088379
0.5069299936294556 0.10530000180006027 0.7849869728088379
0.7620159983634949 0.1083580031991005 0.6381819844245911
0.7566149830818176 0.10829299688339233 0.6359699964523315
0.7674170136451721 0.10842400044202805 0.6360999941825867
0.484935998916626 0.1213729977607727 0.7996280193328857
0.5068650245666504 0.11694800108671188 0.7996280193328857
0.5068650245666504 0.10530000180006027 0.7996280193328857
0.769760012626648 0.10842400044202805 0.6302430033683777
0.48343899846076965 0.09508360177278519 0.7996280193328857
0.48343899846076965 0.09508360177278519 0.7849869728088379
0.7539470195770264 0.10829299688339233 0.6306989789009094
0.5067350268363953 0.11694800108671188 0.8433570265769958
0.5067350268363953 0.10939999669790268 0.8433570265769958
0.6238660216331482 0.08115799725055695 0.8799930214881897
0.5608760118484497 0.10035400092601776 0.9035500288009644
0.7566149830818176 0.10829299688339233 0.6251680254936218
0.7620159983634949 0.1083580031991005 0.6226300001144409
0.767221987247467 0.10842400044202805 0.6247119903564453
0.8503850102424622 0.10926900058984756 0.6651229858398438
0.3987790048122406 0.09501849859952927 0.5431110262870789
0.39884400367736816 0.09508360177278519 0.6826919913291931
0.3461349904537201 0.10601600259542465 0.5153250098228455
0.37346601486206055 0.1002890020608902 0.5149340033531189
0.41290000081062317 0.065215103328228 0.721019983291626
0.4009909927845001 0.07386980205774307 0.6826919913291931
0.4411419928073883 0.05922840163111687 0.6826919913291931
0.4812920093536377 0.07386980205774307 0.6826919913291931
0.4812920093536377 0.07386980205774307 0.6348639726638794
0.47393798828125 0.06384850293397903 0.6266649961471558
0.4784280061721802 0.07972639799118042 0.7849869728088379
0.5812439918518066 0.0899427980184555 0.9261950254440308
0.461899995803833 0.06599599868059158 0.7553790211677551
0.44686800241470337 0.06371840089559555 0.7768530249595642
0.4411419928073883 0.06235190108418465 0.7704759836196899
0.48051100969314575 0.10373800247907639 0.8142049908638
0.4746539890766144 0.08291489630937576 0.8076969981193542
0.5608760118484497 0.0941075012087822 0.9035500288009644
0.4737429916858673 0.07946609705686569 0.8067209720611572
0.5067350268363953 0.10530000180006027 0.8433570265769958
0.4703589975833893 0.06872899830341339 0.7849869728088379
0.46183499693870544 0.06807830184698105 0.7935119867324829
0.4542210102081299 0.06547539681196213 0.7849869728088379
0.39884400367736816 0.09508360177278519 0.7234929800033569
0.38257598876953125 0.10217700153589249 0.7054029703140259
0.37535300850868225 0.10224200040102005 0.6973339915275574
0.3461349904537201 0.10738199949264526 0.6648619771003723
0.3461349904537201 0.10601600259542465 0.6469020247459412
0.4715310037136078 0.07575690001249313 0.8042489886283875
0.3461349904537201 0.1086840033531189 0.484609991312027
0.5088170170783997 0.10035400092601776 0.665448009967804
0.40827998518943787 0.06378349661827087 0.5537179708480835
0.42903798818588257 0.06092030182480812 0.5767539739608765
0.4411419928073883 0.05922840163111687 0.590224027633667
0.40092599391937256 0.07386980205774307 0.5455189943313599
0.45994800329208374 0.06189639866352081 0.6111119985580444
0.40938600897789 0.05181010067462921 0.7352060079574585
0.41192400455474854 0.06625620275735855 0.7380040287971497
0.4221400022506714 0.0654103010892868 0.7493270039558411
0.40730398893356323 0.06996539980173111 0.732928991317749
0.4022279977798462 0.07640759646892548 0.7272019982337952
0.40007999539375305 0.08258959650993347 0.7248600125312805
0.33077800273895264 0.10614600032567978 0.6478130221366882
0.2450769990682602 0.10705699771642685 0.5525460243225098
0.4801200032234192 0.09514860063791275 0.3903850018978119
0.5361480116844177 0.11115700006484985 0.4342440068721771
0.4835039973258972 0.09501849859952927 0.5146089792251587
0.4674310088157654 0.1343879997730255 0.22906899452209473
0.46782100200653076 0.13529899716377258 0.23453499376773834
0.48135700821876526 0.11480099707841873 0.23694300651550293
0.46710601449012756 0.1337369978427887 0.22496899962425232
0.47641101479530334 0.11037600040435791 0.1927579939365387
0.47400298714637756 0.10822799801826477 0.17115400731563568
0.4411419928073883 0.1615229994058609 0.3903850018978119
0.46079400181770325 0.15488600730895996 0.3892129957675934
0.46183499693870544 0.15065599977970123 0.3407990038394928
0.45975199341773987 0.1513720005750656 0.3407990038394928
0.5361480116844177 0.11115700006484985 0.45617300271987915
0.46196499466896057 0.15013499557971954 0.3348119854927063
0.463331013917923 0.12469200044870377 0.17017799615859985
0.4506419897079468 0.12905199825763702 0.17076300084590912
0.48103100061416626 0.1234550029039383 0.5146089792251587
0.48135700821876526 0.12352000176906586 0.3896690011024475
0.45701900124549866 0.09117919951677322 0.17160899937152863
0.4612489938735962 0.09462810307741165 0.23726800084114075
0.4411419928073883 0.08844610303640366 0.23694300651550293
0.4411419928073883 0.08629869669675827 0.17115400731563568
0.4737429916858673 0.10718700289726257 0.23707300424575806
0.750889003276825 0.11115700006484985 0.6981149911880493
0.4654789865016937 0.14122000336647034 0.2743600010871887
0.48135700821876526 0.11824999749660492 0.2953779995441437
0.5215070247650146 0.11115700006484985 0.3903850018978119
0.44843000173568726 0.17616400122642517 0.881816029548645
0.44843000173568726 0.17616400122642517 0.7785450220108032
0.4411419928073883 0.3076770007610321 0.9019230008125305
0.4411419928073883 0.3076770007610321 0.9750000238418579
0.4411419928073883 0.17616400122642517 0.9092109799385071
0.44843000173568726 0.17616400122642517 0.9092109799385071
0.4411419928073883 0.17616400122642517 0.9457820057868958
0.44843000173568726 0.17616400122642517 0.9457820057868958
0.4795350134372711 0.09944350272417068 0.33559298515319824
0.48135700821876526 0.12065699696540833 0.33559298515319824
0.4922890067100525 0.11115700006484985 0.2953779995441437
0.47257199883461 0.10191600024700165 0.2953779995441437
0.4411419928073883 0.13230499625205994 0.17115400731563568
0.48500099778175354 0.11115700006484985 0.23694300651550293
0.47471898794174194 0.10445400327444077 0.26987001299858093
0.5361480116844177 0.10601600259542465 0.6469020247459412
0.5065400004386902 0.11694800108671188 0.9238529801368713
0.37574300169944763 0.11694800108671188 0.9238529801368713
0.3754180073738098 0.10530000180006027 0.7996280193328857
0.37574300169944763 0.10530000180006027 0.9238529801368713
0.37535300850868225 0.10965999960899353 0.9603589773178101
0.10926900058984756 0.10848899930715561 0.6606330275535583
0.13139399886131287 0.10822799801826477 0.6593310236930847
0.10926900058984756 0.10848899930715561 0.6025220155715942
0.13139399886131287 0.11440999805927277 0.659591019153595
0.10926900058984756 0.11415000259876251 0.6608279943466187
0.10926900058984756 0.11415000259876251 0.6027179956436157
0.10926900058984756 0.11115700006484985 0.5718079805374146
0.5361480116844177 0.10601600259542465 0.5153250098228455
0.5361480116844177 0.11694800108671188 0.5153250098228455
0.5361480116844177 0.11694800108671188 0.6476179957389832
0.44797399640083313 0.14649100601673126 0.8533139824867249
0.4480389952659607 0.1513720005750656 0.8142049908638
0.4480389952659607 0.15280300378799438 0.8069170117378235
0.4483650028705597 0.1738869994878769 0.7785450220108032
0.3461349904537201 0.11115700006484985 0.7155539989471436
0.4411419928073883 0.15716299414634705 0.9457820057868958
0.44843000173568726 0.15716299414634705 0.9457820057868958
0.39884400367736816 0.09508360177278519 0.7849869728088379
0.37535300850868225 0.10530000180006027 0.7849869728088379
0.37535300850868225 0.10530000180006027 0.7155539989471436
0.4411419928073883 0.14421400427818298 0.894635021686554
0.44843000173568726 0.1440179944038391 0.894635021686554
0.44790899753570557 0.14135000109672546 0.894635021686554
0.4551970064640045 0.13829199969768524 0.894635021686554
0.4411419928073883 0.0628724992275238 0.7849869728088379
0.4411419928073883 0.06651650369167328 0.8142049908638
0.46489301323890686 0.13432300090789795 0.894635021686554
0.47211599349975586 0.14141599833965302 0.8142049908638
0.47211599349975586 0.07940100133419037 0.8142049908638
0.4825280010700226 0.11037600040435791 0.8164820075035095
0.5065400004386902 0.10530000180006027 0.9238529801368713
0.5807880163192749 0.09163469821214676 0.9600980281829834
0.44810399413108826 0.15443000197410583 0.7849869728088379
0.4411419928073883 0.07660280168056488 0.894635021686554
0.4551970064640045 0.08245939761400223 0.894635021686554
0.4696429967880249 0.09651520103216171 0.2953779995441437
0.4741330146789551 0.06378349661827087 0.33559298515319824
0.4411419928073883 0.05922840163111687 0.3903850018978119
0.44127199053764343 0.05935849994421005 0.33559298515319824
0.47432899475097656 0.06391359865665436 0.3903850018978119
0.47400298714637756 0.06378349661827087 0.5146089792251587
0.4411419928073883 0.05922840163111687 0.5146089792251587
0.46489301323890686 0.08649390190839767 0.894635021686554
0.47075000405311584 0.10068000108003616 0.894635021686554
0.4788840115070343 0.1251469999551773 0.34880301356315613
0.40827998518943787 0.10822799801826477 0.17115400731563568
0.41517698764801025 0.1337369978427887 0.22496899962425232
0.41895198822021484 0.12469200044870377 0.17017799615859985
0.40092599391937256 0.11824999749660492 0.2953779995441437
0.40092599391937256 0.12065699696540833 0.33559298515319824
0.42031800746917725 0.15013499557971954 0.3348119854927063
0.40814998745918274 0.06378349661827087 0.33559298515319824
0.40795400738716125 0.06391359865665436 0.3903850018978119
0.397022008895874 0.0741301029920578 0.3903850018978119
0.39715200662612915 0.07399989664554596 0.33559298515319824
0.4023579955101013 0.09495340287685394 0.33559298515319824
0.40216299891471863 0.09514860063791275 0.3903850018978119
0.4027479887008667 0.09944350272417068 0.33559298515319824
0.4411419928073883 0.09065859764814377 0.2953779995441437
0.4126400053501129 0.09651520103216171 0.2953779995441437
0.4210340082645416 0.09462810307741165 0.23726800084114075
0.40144699811935425 0.08747000247240067 0.2953130006790161
0.4001460075378418 0.07380469888448715 0.2953130006790161
0.40535101294517517 0.09267590194940567 0.2953130006790161
0.4411419928073883 0.08747000247240067 0.2953130006790161
0.40971100330352783 0.10191600024700165 0.2953779995441437
0.4089300036430359 0.13295599818229675 0.3392370045185089
0.41277000308036804 0.13900800049304962 0.34190499782562256
0.42148900032043457 0.15488600730895996 0.3892129957675934
0.40092599391937256 0.12352000176906586 0.3896690011024475
0.40125200152397156 0.1234550029039383 0.5146089792251587
0.42181500792503357 0.15475499629974365 0.5146089792251587
0.40092599391937256 0.07386980205774307 0.5146089792251587
0.3987790048122406 0.09501849859952927 0.5146089792251587
0.40827998518943787 0.06378349661827087 0.5146089792251587
0.4771920144557953 0.12723000347614288 0.3419699966907501
0.4740679860115051 0.11037600040435791 0.894635021686554
0.47075000405311584 0.12007199972867966 0.894635021686554
0.3972820043563843 0.1213729977607727 0.7849869728088379
0.4133549928665161 0.14837799966335297 0.7849869728088379
0.40385499596595764 0.07972639799118042 0.7849869728088379
0.4203830063343048 0.06599599868059158 0.7553790211677551
0.41016700863838196 0.14141599833965302 0.8142049908638
0.399495005607605 0.11037600040435791 0.8142049908638
0.41016700863838196 0.07940100133419037 0.8142049908638
0.41192400455474854 0.06872899830341339 0.7849869728088379
0.47335299849510193 0.13295599818229675 0.3392370045185089
0.4411419928073883 0.1615229994058609 0.5146089792251587
0.40509098768234253 0.12723000347614288 0.3419699966907501
0.4033989906311035 0.1251469999551773 0.34880301356315613
0.4410110116004944 0.05935849994421005 0.33559298515319824
0.4075640141963959 0.10445400327444077 0.26987001299858093
0.4085400104522705 0.10718700289726257 0.23707300424575806
0.4058719873428345 0.11037600040435791 0.1927579939365387
0.3972820043563843 0.11115700006484985 0.23694300651550293
0.40092599391937256 0.11480099707841873 0.23694300651550293
0.3899939954280853 0.11115700006484985 0.2953779995441437
0.36077600717544556 0.11115700006484985 0.3903850018978119
0.3461349904537201 0.11115700006484985 0.4342440068721771
0.3461349904537201 0.11115700006484985 0.45617300271987915
0.46046799421310425 0.15475499629974365 0.5146089792251587
0.47745200991630554 0.12761999666690826 0.3557009994983673
0.37535300850868225 0.11694800108671188 0.7155539989471436
0.47387298941612244 0.13328100740909576 0.35856398940086365
0.37535300850868225 0.11694800108671188 0.7849869728088379
0.4082149863243103 0.11037600040435791 0.894635021686554
0.411532998085022 0.12007199972867966 0.894635021686554
0.4048309922218323 0.12761999666690826 0.3557009994983673
0.4084100127220154 0.13328100740909576 0.35856398940086365
0.3754180073738098 0.11694800108671188 0.7996280193328857
0.5069299936294556 0.10965999960899353 0.9603589773178101
0.13139399886131287 0.11440999805927277 0.5945839881896973
0.4695129990577698 0.13900800049304962 0.34190499782562256
0.4682120084762573 0.14141599833965302 0.34880301356315613
0.13139399886131287 0.10822799801826477 0.5943880081176758
0.13139399886131287 0.11115700006484985 0.5610060095787048
0.41244399547576904 0.13926799595355988 0.35583099722862244
0.4204480051994324 0.15065599977970123 0.3407990038394928
0.4140709936618805 0.14141599833965302 0.34880301356315613
0.11252299696207047 0.10842400044202805 0.6302430033683777
0.11506099998950958 0.10842400044202805 0.6247119903564453
0.12026699632406235 0.1083580031991005 0.6226300001144409
0.125668004155159 0.10829299688339233 0.6251680254936218
0.12833599746227264 0.10829299688339233 0.6306989789009094
0.125668004155159 0.10829299688339233 0.6359699964523315
0.11486600339412689 0.10842400044202805 0.6360999941825867
0.12026699632406235 0.1083580031991005 0.6381819844245911
0.12020199745893478 0.11428000032901764 0.6226950287818909
0.12573300302028656 0.1143449991941452 0.6249079704284668
0.12827099859714508 0.11440999805927277 0.6304389834403992
0.12573300302028656 0.1143449991941452 0.6358399987220764
0.12020199745893478 0.11428000032901764 0.6380519866943359
0.41738998889923096 0.13432300090789795 0.894635021686554
0.11493100225925446 0.11421500146389008 0.6358399987220764
0.411532998085022 0.10068000108003616 0.894635021686554
0.41738998889923096 0.08649390190839767 0.894635021686554
0.4270859956741333 0.08245939761400223 0.894635021686554
0.43417900800704956 0.15443000197410583 0.7849869728088379
0.4342440068721771 0.15280300378799438 0.8069170117378235
0.4342440068721771 0.1513720005750656 0.8142049908638
0.4270859956741333 0.13829199969768524 0.894635021686554
0.4343090057373047 0.14649100601673126 0.8533139824867249
0.43437400460243225 0.14135000109672546 0.894635021686554
0.1124579980969429 0.11421500146389008 0.630308985710144
0.43385300040245056 0.1440179944038391 0.894635021686554
0.43385300040245056 0.17616400122642517 0.9457820057868958
0.43385300040245056 0.17616400122642517 0.9092109799385071
0.43385300040245056 0.15716299414634705 0.9457820057868958
0.43385300040245056 0.17616400122642517 0.7754859924316406
0.43385300040245056 0.17616400122642517 0.881816029548645
0.4168039858341217 0.14122000336647034 0.2743600010871887
0.41446200013160706 0.13529899716377258 0.23453499376773834
0.11493100225925446 0.11421500146389008 0.6247770190238953
0.41485199332237244 0.1343879997730255 0.22906899452209473
0.42253100872039795 0.1513720005750656 0.3407990038394928
0.43164101243019104 0.12905199825763702 0.17076300084590912
0.42526400089263916 0.09117919951677322 0.17160899937152863
0.4698390066623688 0.13926799595355988 0.35583099722862244
0.48135700821876526 0.07386980205774307 0.5146089792251587
0.4852609932422638 0.0741301029920578 0.3903850018978119
0.41088300943374634 0.06729739904403687 0.7553790211677551
0.4044399857521057 0.03287379816174507 0.7552490234375
0.48513099551200867 0.07399989664554596 0.33559298515319824
0.4799250066280365 0.09495340287685394 0.33559298515319824
0.48083600401878357 0.08747000247240067 0.2953130006790161
0.482136994600296 0.07380469888448715 0.2953130006790161
0.47693198919296265 0.09267590194940567 0.2953130006790161
0.40860500931739807 0.06469450145959854 0.2953130006790161
0.4411419928073883 0.05922840163111687 0.2953779995441437
0.47367799282073975 0.06469450145959854 0.2953130006790161
0.02532540075480938 0.11772900074720383 0.5292500257492065
0.02532540075480938 0.10308799892663956 0.5292500257492065
0.025195199996232986 0.10308799892663956 0.6096150279045105
0.025195199996232986 0.11772900074720383 0.6096150279045105
0.03189770132303238 0.10308799892663956 0.5292500257492065
0.031767599284648895 0.10308799892663956 0.6096150279045105
0.03157240152359009 0.11772900074720383 0.7119100093841553
0.02500000037252903 0.11772900074720383 0.7119100093841553
0.02500000037252903 0.10308799892663956 0.7119100093841553
0.03157240152359009 0.10308799892663956 0.7119100093841553
0.03157240152359009 0.11772900074720383 0.6899809837341309
0.02500000037252903 0.11772900074720383 0.6899809837341309
0.02500000037252903 0.10308799892663956 0.6899809837341309
0.03157240152359009 0.10308799892663956 0.6899809837341309
0.031767599284648895 0.11772900074720383 0.6096150279045105
0.03189770132303238 0.11772900074720383 0.5292500257492065
0.8505150079727173 0.11772900074720383 0.6096150279045105
0.8507109880447388 0.11772900074720383 0.6899809837341309
0.8503850102424622 0.11772900074720383 0.5292500257492065
0.8503850102424622 0.10308799892663956 0.5292500257492065
0.857088029384613 0.10308799892663956 0.6096150279045105
0.8572829961776733 0.10308799892663956 0.6899809837341309
0.8507109880447388 0.10308799892663956 0.6899809837341309
0.8505150079727173 0.10308799892663956 0.6096150279045105
0.857088029384613 0.11772900074720383 0.6096150279045105
0.8572829961776733 0.11772900074720383 0.6899809837341309
0.8572829961776733 0.10308799892663956 0.7119100093841553
0.8507109880447388 0.10308799892663956 0.7119100093841553
0.8572829961776733 0.11772900074720383 0.7119100093841553
0.8507109880447388 0.11772900074720383 0.7119100093841553
0.8569579720497131 0.10308799892663956 0.5292500257492065
0.8569579720497131 0.11772900074720383 0.5292500257492065
0.4566290080547333 0.15612199902534485 0.21982799470424652
0.4411419928073883 0.15898500382900238 0.2191780060529709
0.4411419928073883 0.16809499263763428 0.3413200080394745
0.45669400691986084 0.1652970016002655 0.3411889970302582
0.4231809973716736 0.17115400731563568 0.270455002784729
0.4207090139389038 0.1637360006570816 0.2354460060596466
0.4411419928073883 0.1747329980134964 0.2668760120868683
0.4411419928073883 0.16887600719928741 0.23694300651550293
0.4226610064506531 0.15748900175094604 0.223798006772995
0.4233120083808899 0.15547099709510803 0.2200240045785904
0.425588995218277 0.1652970016002655 0.3411889970302582
0.42565399408340454 0.15612199902534485 0.21982799470424652
0.42441800236701965 0.15800899267196655 0.22366799414157867
0.4411419928073883 0.16887600719928741 0.33559298515319824
0.45858100056648254 0.16575300693511963 0.33520299196243286
0.45910200476646423 0.17115400731563568 0.270455002784729
0.461573988199234 0.1637360006570816 0.2354460060596466
0.45786499977111816 0.15800899267196655 0.22366799414157867
0.4411419928073883 0.16113300621509552 0.2229519933462143
0.4589720070362091 0.15547099709510803 0.2200240045785904
0.45962199568748474 0.15748900175094604 0.223798006772995
0.4237020015716553 0.16575300693511963 0.33520299196243286
0.461573988199234 0.13106900453567505 0.9311410188674927
0.447843998670578 0.13679499924182892 0.9311410188674927
0.4411419928073883 0.13965900242328644 0.9311410188674927
0.461573988199234 0.0897476002573967 0.9311410188674927
0.4411419928073883 0.08115799725055695 0.9311410188674927
0.4701640009880066 0.11037600040435791 0.9311410188674927
0.4207090139389038 0.13106900453567505 0.9311410188674927
0.4344390034675598 0.13679499924182892 0.9311410188674927
0.4121190011501312 0.11037600040435791 0.9311410188674927
0.4207090139389038 0.0897476002573967 0.9311410188674927
3 0 1 2
3 3 2 4
3 6 0 3
3 6 3 5
3 6 5 7
3 6 7 8
3 7 9 10
3 5 4 9
3 11 12 13
3 15 16 17
3 18 17 19
3 20 21 22
3 23 24 25
3 27 28 29
3 31 32 33
3 33 32 34
3 36 37 38
3 39 38 40
3 41 42 43
3 45 46 47
3 48 49 50
3 51 50 52
3 53 50 54
3 52 50 53
3 57 58 42
3 59 58 57
3 60 61 62
3 64 43 61
3 65 61 60
3 66 67 68
3 69 70 71
3 63 62 72
3 72 62 73
3 74 75 76
3 77 75 78
3 79 78 80
3 80 78 83
3 84 85 86
3 87 67 66
3 64 44 43
3 88 89 90
3 92 93 94
3 95 94 96
3 95 97 92
3 89 30 29
3 54 85 99
3 101 102 91
3 24 23 103
3 49 85 54
3 50 49 54
3 104 103 101
3 28 27 26
3 77 76 75
3 105 19 17
3 106 49 48
3 108 105 17
3 20 108 16
3 15 109 21
3 109 22 21
3 110 111 112
3 75 74 73
3 54 100 114
3 42 55 54
3 116 83 78
3 62 78 75
3 115 117 61
3 117 118 61
3 118 116 62
3 119 120 121
3 8 10 120
3 8 119 6
3 119 122 6
3 122 123 6
3 123 0 6
3 122 121 124
3 123 124 1
3 55 125 126
3 125 55 42
3 42 58 125
3 37 127 128
3 130 131 132
3 131 130 133
3 32 31 135
3 131 136 137
3 138 139 140
3 141 138 140
3 142 138 141
3 143 142 141
3 139 143 140
3 143 141 140
3 144 145 127
3 130 146 147
3 129 148 149
3 129 149 150
3 37 129 150
3 125 58 59
3 37 150 152
3 85 84 99
3 152 153 37
3 153 38 37
3 153 154 38
3 38 154 155
3 85 156 157
3 156 158 67
3 156 67 87
3 155 132 38
3 155 159 132
3 160 85 49
3 156 85 160
3 132 159 148
3 158 156 160
3 148 129 132
3 32 162 34
3 32 163 162
3 162 164 34
3 165 166 160
3 166 167 161
3 34 164 168
3 169 165 49
3 32 171 163
3 166 172 173
3 165 14 172
3 169 11 14
3 134 171 32
3 174 167 173
3 176 171 134
3 46 174 175
3 134 177 176
3 133 178 177
3 177 134 133
3 133 168 178
3 34 168 133
3 131 134 135
3 179 34 133
3 38 132 137
3 146 130 129
3 145 144 35
3 180 181 182
3 95 96 184
3 185 96 94
3 184 96 186
3 70 187 188
3 187 139 189
3 170 190 187
3 170 187 70
3 46 45 191
3 192 193 194
3 106 195 196
3 174 46 191
3 170 196 198
3 167 199 11
3 200 201 202
3 167 169 170
3 203 204 181
3 205 206 207
3 190 198 208
3 209 183 182
3 70 158 161
3 67 158 70
3 70 210 68
3 207 182 181
3 211 212 96
3 212 213 186
3 214 211 96
3 70 69 210
3 180 214 185
3 139 186 213
3 139 215 189
3 216 184 217
3 97 95 184
3 199 167 174
3 201 200 208
3 218 186 194
3 217 184 186
3 219 94 93
3 220 185 94
3 221 185 220
3 203 181 185
3 205 181 204
3 222 207 206
3 223 182 207
3 82 81 209
3 143 139 187
3 190 143 187
3 190 142 143
3 186 139 138
3 142 192 186
3 192 200 202
3 190 200 142
3 142 200 192
3 224 225 226
3 227 228 229
3 230 227 229
3 233 234 235
3 226 225 237
3 235 238 236
3 230 239 240
3 241 225 242
3 243 244 245
3 232 231 247
3 144 248 33
3 237 225 241
3 249 238 250
3 251 242 225
3 228 249 250
3 251 225 224
3 252 253 151
3 255 256 252
3 257 252 256
3 257 256 258
3 251 224 260
3 261 242 251
3 262 251 260
3 261 251 262
3 262 250 261
3 262 260 263
3 1 264 240
3 2 239 232
3 4 232 243
3 9 243 246
3 247 265 266
3 248 144 36
3 248 66 68
3 262 263 266
3 262 266 265
3 231 265 247
3 250 262 265
3 172 268 173
3 109 269 270
3 15 269 109
3 105 271 272
3 108 271 105
3 20 271 108
3 101 273 274
3 103 273 101
3 23 275 273
3 88 276 277
3 89 277 30
3 27 278 279
3 135 280 237
3 31 267 280
3 137 281 282
3 136 237 281
3 252 257 283
3 284 285 286
3 125 286 126
3 205 287 206
3 259 258 288
3 203 290 291
3 289 288 293
3 289 294 283
3 294 293 295
3 294 295 283
3 282 281 84
3 295 296 283
3 193 297 194
3 202 297 193
3 201 298 297
3 283 296 299
3 198 301 208
3 196 301 198
3 195 301 196
3 195 106 302
3 199 303 12
3 284 300 51
3 191 303 197
3 45 304 303
3 285 52 53
3 306 298 307
3 253 125 151
3 229 250 265
3 229 265 231
3 266 308 244
3 305 53 56
3 263 308 266
3 309 310 311
3 309 312 310
3 313 310 312
3 313 314 310
3 307 298 301
3 315 301 316
3 261 317 242
3 175 268 47
3 173 268 175
3 14 13 268
3 302 106 107
3 48 300 107
3 239 230 232
3 238 261 250
3 126 305 56
3 286 285 305
3 286 125 253
3 59 254 151
3 318 319 320
3 321 322 323
3 324 325 326
3 328 329 330
3 331 332 333
3 245 331 333
3 327 328 334
3 327 334 335
3 327 329 328
3 336 328 337
3 330 331 337
3 328 330 337
3 332 331 330
3 330 338 332
3 327 326 329
3 339 340 323
3 341 342 343
3 326 345 346
3 329 326 346
3 325 347 345
3 326 325 345
3 348 317 261
3 316 301 195
3 350 300 299
3 60 63 351
3 65 60 351
3 221 220 353
3 203 221 290
3 218 194 297
3 352 351 355
3 355 351 356
3 290 357 356
3 353 357 290
3 358 298 357
3 297 298 358
3 290 356 351
3 358 357 353
3 359 348 261
3 261 238 359
3 233 341 344
3 233 344 360
3 339 323 322
3 322 361 339
3 322 362 361
3 342 362 322
3 226 280 69
3 241 281 237
3 310 314 347
3 325 310 347
3 310 325 324
3 363 310 324
3 364 332 338
3 365 333 332
3 366 367 368
3 367 321 368
3 367 369 321
3 365 367 366
3 367 364 369
3 364 338 369
3 364 367 365
3 338 330 369
3 322 321 369
3 369 370 322
3 330 370 369
3 370 342 322
3 330 329 370
3 343 371 372
3 342 371 343
3 372 371 346
3 346 371 329
3 371 342 370
3 329 371 370
3 360 373 233
3 373 234 233
3 280 226 237
3 180 183 346
3 372 80 83
3 350 349 302
3 317 374 242
3 287 292 375
3 74 76 287
3 242 374 376
3 205 204 292
3 351 63 72
3 377 72 73
3 242 376 234
3 291 377 375
3 355 356 378
3 342 380 362
3 381 380 342
3 341 381 342
3 351 377 382
3 377 291 270
3 291 290 113
3 290 351 110
3 111 269 271
3 270 269 382
3 382 269 111
3 49 106 170
3 113 112 271
3 12 303 268
3 20 22 270
3 301 298 201
3 303 199 197
3 18 19 272
3 15 18 269
3 268 383 304
3 300 48 51
3 269 272 271
3 268 304 45
3 77 79 384
3 304 383 303
3 238 235 385
3 235 386 385
3 82 223 387
3 389 381 341
3 389 341 390
3 390 391 389
3 340 391 390
3 340 390 323
3 275 392 273
3 393 392 275
3 275 387 394
3 394 393 275
3 395 394 387
3 387 396 395
3 274 396 387
3 397 396 274
3 392 398 273
3 273 398 399
3 399 397 274
3 273 399 274
3 384 278 400
3 400 401 384
3 384 401 402
3 276 384 402
3 402 403 276
3 276 403 404
3 277 276 404
3 405 355 379
3 277 404 406
3 378 356 357
3 407 357 408
3 408 357 298
3 409 298 306
3 410 352 411
3 411 352 355
3 412 355 405
3 414 413 415
3 406 416 277
3 414 415 417
3 415 293 417
3 418 419 414
3 417 293 288
3 420 288 258
3 410 411 421
3 422 421 411
3 412 414 419
3 418 258 256
3 256 422 419
3 422 256 255
3 255 254 421
3 254 59 57
3 368 321 423
3 416 278 277
3 321 323 423
3 416 425 278
3 368 424 426
3 318 366 368
3 427 390 341
3 425 400 278
3 427 323 390
3 428 320 319
3 275 23 26
3 246 245 333
3 429 333 365
3 430 386 235
3 431 312 432
3 354 358 433
3 433 358 353
3 297 358 354
3 217 218 354
3 235 234 430
3 219 93 433
3 220 219 353
3 234 376 430
3 431 313 312
3 226 432 224
3 226 431 432
3 434 216 217
3 97 216 434
3 303 383 268
3 124 320 428
3 121 318 320
3 120 429 318
3 10 246 429
3 384 79 82
3 373 241 242
3 102 274 222
3 387 223 222
3 387 275 279
3 278 384 388
3 278 27 30
3 435 432 312
3 64 410 421
3 260 224 436
3 244 308 331
3 244 331 245
3 437 436 435
3 438 437 435
3 436 224 435
3 337 436 439
3 74 375 73
3 77 276 88
3 337 331 260
3 337 260 436
3 81 372 209
3 209 372 346
3 282 87 66
3 180 346 345
3 214 345 347
3 212 314 213
3 211 347 314
3 213 314 215
3 215 314 313
3 189 313 431
3 97 434 92
3 69 280 267
3 210 267 68
3 92 434 433
3 80 372 81
3 260 331 308
3 116 343 83
3 118 344 343
3 117 360 344
3 115 360 117
3 114 360 115
3 100 373 360
3 99 241 373
3 84 281 241
3 308 263 260
3 157 282 86
3 87 282 157
3 224 432 435
3 64 65 352
3 421 57 41
3 41 44 421
3 238 385 359
3 188 431 226
3 363 440 441
3 363 324 440
3 324 335 440
3 324 327 335
3 441 442 311
3 442 309 311
3 442 438 309
3 438 435 309
3 443 444 445
3 444 447 448
3 449 450 451
3 453 98 29
3 454 450 449
3 455 451 450
3 456 452 451
3 446 454 453
3 445 455 454
3 448 456 455
3 447 458 25
3 457 25 458
3 457 28 25
3 453 29 28
3 459 128 127
3 146 128 459
3 461 146 459
3 146 461 462
3 463 464 465
3 467 468 464
3 459 460 468
3 464 469 470
3 468 471 469
3 460 472 471
3 127 145 460
3 470 469 471
3 463 466 462
3 467 463 473
3 459 467 474
3 461 474 473
3 145 470 472
3 466 146 462
3 465 179 147
3 466 147 146
3 179 465 145
3 145 465 470
3 460 145 472
3 449 98 453
3 452 456 98
3 98 456 104
3 25 24 448
3 448 24 104
3 447 25 448
3 449 452 98
3 447 444 443
3 458 443 446
3 475 264 476
3 477 233 478
3 424 423 479
3 480 479 481
3 483 424 480
3 319 426 484
3 485 233 477
3 476 264 486
3 483 480 487
3 481 488 489
3 490 489 238
3 482 491 492
3 475 494 240
3 494 230 240
3 236 478 233
3 491 490 249
3 482 481 490
3 491 228 495
3 494 227 230
3 233 485 427
3 492 491 495
3 428 319 484
3 264 428 484
3 493 487 480
3 423 323 496
3 479 496 488
3 296 497 299
3 498 497 296
3 307 315 500
3 501 306 307
3 500 315 316
3 499 415 413
3 405 503 413
3 378 505 379
3 499 293 415
3 316 349 502
3 502 350 299
3 506 408 409
3 506 409 306
3 503 405 379
3 505 378 407
3 505 407 408
3 295 293 499
3 350 502 349
3 493 476 486
3 485 496 323
3 492 475 476
3 475 492 495
3 236 238 489
3 484 426 483
3 426 424 483
3 495 227 494
3 495 228 227
3 477 478 489
3 488 496 485
3 484 483 487
3 150 149 148
3 393 394 395
3 406 404 403
3 359 385 386
3 361 362 380
3 168 164 162
3 441 337 442
3 439 437 438
3 335 334 336
3 336 337 440
3 440 337 441
3 501 499 504
3 500 502 497
3 336 328 334
3 334 328 336
3 439 436 437
3 437 436 439
3 0 2 3
3 3 4 5
3 7 10 8
3 5 9 7
3 11 13 14
3 15 17 18
3 23 25 26
3 27 29 30
3 33 34 35
3 36 38 39
3 41 43 44
3 48 50 51
3 53 54 55
3 53 55 56
3 57 42 41
3 60 62 63
3 64 61 65
3 77 78 79
3 79 80 81
3 79 81 82
3 88 90 91
3 95 92 94
3 89 29 98
3 89 98 90
3 54 99 100
3 101 91 90
3 24 103 104
3 104 101 90
3 104 90 98
3 28 26 25
3 106 48 107
3 108 17 16
3 20 16 21
3 15 21 16
3 110 112 113
3 75 73 62
3 42 54 114
3 42 114 115
3 116 78 62
3 115 61 43
3 115 43 42
3 118 62 61
3 119 121 122
3 8 120 119
3 122 124 123
3 123 1 0
3 55 126 56
3 37 128 129
3 130 132 129
3 131 133 134
3 32 135 134
3 131 137 132
3 144 127 37
3 144 37 36
3 130 147 133
3 125 59 151
3 85 157 86
3 156 87 157
3 158 160 161
3 165 160 49
3 166 161 160
3 169 49 170
3 166 173 167
3 165 172 166
3 169 14 165
3 174 173 175
3 46 175 47
3 131 135 136
3 179 133 147
3 38 137 40
3 146 129 128
3 145 35 34
3 145 34 179
3 180 182 183
3 70 188 71
3 187 189 188
3 192 194 186
3 106 196 170
3 174 191 197
3 170 198 190
3 167 11 169
3 167 170 161
3 205 207 181
3 190 208 200
3 70 161 170
3 70 68 67
3 212 186 96
3 214 96 185
3 180 185 181
3 139 213 215
3 97 184 216
3 199 174 197
3 217 186 218
3 220 94 219
3 203 185 221
3 223 207 222
3 82 209 182
3 82 182 223
3 142 186 138
3 192 202 193
3 230 229 231
3 230 231 232
3 233 235 236
3 243 245 246
3 232 247 244
3 232 244 243
3 144 33 35
3 228 250 229
3 252 151 254
3 252 254 255
3 257 258 259
3 1 240 239
3 1 239 2
3 2 232 4
3 4 243 9
3 9 246 10
3 248 36 39
3 248 68 267
3 248 267 31
3 248 31 33
3 109 270 22
3 105 272 19
3 101 274 102
3 23 273 103
3 88 277 89
3 27 279 26
3 135 237 136
3 31 280 135
3 137 282 40
3 136 281 137
3 252 283 284
3 284 286 253
3 284 253 252
3 259 288 289
3 203 291 292
3 203 292 204
3 289 293 294
3 289 283 257
3 289 257 259
3 282 84 86
3 201 297 202
3 283 299 300
3 283 300 284
3 199 12 11
3 284 51 52
3 284 52 285
3 45 303 191
3 285 53 305
3 266 244 247
3 307 301 315
3 14 268 172
3 286 305 126
3 324 326 327
3 341 343 344
3 316 195 302
3 316 302 349
3 65 351 352
3 221 353 290
3 218 297 354
3 226 69 71
3 365 332 364
3 372 83 343
3 350 302 107
3 350 107 300
3 74 287 375
3 205 292 287
3 351 72 377
3 377 73 375
3 291 375 292
3 355 378 379
3 351 382 110
3 377 270 382
3 291 113 270
3 290 110 113
3 111 271 112
3 382 111 110
3 113 271 270
3 12 268 13
3 20 270 271
3 301 201 208
3 18 272 269
3 268 45 47
3 77 384 276
3 82 387 388
3 378 357 407
3 408 298 409
3 411 355 412
3 412 405 413
3 412 413 414
3 418 414 417
3 418 417 420
3 417 288 420
3 420 258 418
3 422 411 412
3 412 419 422
3 418 256 419
3 255 421 422
3 254 57 421
3 368 423 424
3 318 368 426
3 318 426 319
3 427 341 233
3 275 26 279
3 246 333 429
3 429 365 366
3 429 366 318
3 217 354 433
3 219 433 353
3 434 217 433
3 124 428 264
3 124 264 1
3 121 320 124
3 120 318 121
3 10 429 120
3 384 82 388
3 373 242 234
3 102 222 206
3 102 206 287
3 102 287 91
3 387 222 274
3 387 279 388
3 278 388 279
3 278 30 277
3 435 312 309
3 64 421 44
3 77 88 91
3 77 91 287
3 77 287 76
3 209 346 183
3 282 66 248
3 282 248 39
3 282 39 40
3 180 345 214
3 214 347 211
3 211 314 212
3 215 313 189
3 189 431 188
3 69 267 210
3 92 433 93
3 118 343 116
3 117 344 118
3 100 360 114
3 99 373 100
3 84 241 99
3 64 352 410
3 188 226 71
3 443 445 446
3 444 448 445
3 449 451 452
3 454 449 453
3 455 450 454
3 456 451 455
3 446 453 457
3 445 454 446
3 448 455 445
3 453 28 457
3 459 127 460
3 463 465 466
3 467 464 463
3 459 468 467
3 464 470 465
3 468 469 464
3 460 471 468
3 470 471 472
3 463 462 473
3 467 473 474
3 459 474 461
3 461 473 462
3 465 147 466
3 448 104 456
3 447 443 458
3 458 446 457
3 424 479 480
3 480 481 482
3 481 489 490
3 490 238 249
3 482 492 493
3 475 240 264
3 491 249 228
3 482 490 491
3 264 484 486
3 493 480 482
3 423 496 479
3 479 488 481
3 498 296 295
3 498 295 499
3 501 307 500
3 500 316 502
3 499 413 503
3 499 503 504
3 502 299 497
3 506 306 501
3 503 379 505
3 505 408 506
3 493 486 487
3 485 323 427
3 492 476 493
3 475 495 494
3 236 489 478
3 477 489 488
3 488 485 477
3 484 487 486
3 150 148 159
3 150 159 155
3 150 155 154
3 150 154 153
3 150 153 152
3 393 395 396
3 393 396 397
3 393 397 399
3 393 399 398
3 393 398 392
3 406 403 402
3 406 402 401
3 406 401 400
3 406 400 425
3 406 425 416
3 359 386 430
3 359 430 376
3 359 376 374
3 359 374 317
3 359 317 348
3 361 380 381
3 361 381 389
3 361 389 391
3 361 391 340
3 361 340 339
3 168 162 163
3 168 163 171
3 168 171 176
3 168 176 177
3 168 177 178
3 439 438 442
3 439 442 337
3 336 440 335
3 501 504 503
3 501 503 505
3 501 505 506
3 500 497 498
3 500 498 499
3 500 499 501
