ply
format ascii 1.0
element vertex 279
property float x
property float y
property float z
element face 538
property list uchar int vertex_indices
end_header
0.48179200291633606 0.05099400132894516 0.6159809827804565
0.4815720021724701 0.06332000344991684 0.6159809827804565
0.4409250020980835 0.06362529844045639 0.615979015827179
0.4164089858531952 0.04323979839682579 0.19995099306106567
0.4138079881668091 0.02500000037252903 0.33184200525283813
0.4120579957962036 0.054659899324178696 0.19995099306106567
0.4138079881668091 0.10886300355195999 0.33184200525283813
0.4164089858531952 0.08892039954662323 0.19995099306106567
0.4062429964542389 0.07750009745359421 0.19995099306106567
0.43741199374198914 0.1023700013756752 0.3318440020084381
0.43741801381111145 0.09838110208511353 0.19995300471782684
0.4584279954433441 0.08892039954662323 0.19995300471782684
0.48156100511550903 0.10685600340366364 0.6197159886360168
0.4812059998512268 0.08711419999599457 0.6066250205039978
0.4707930088043213 0.06568100303411484 0.3318459987640381
0.4707759916782379 0.03005550056695938 0.3318459987640381
0.46713000535964966 0.06608010083436966 0.19995500147342682
0.43741199374198914 0.02978990040719509 0.3318440020084381
0.43741801381111145 0.033778999000787735 0.19995300471782684
0.3919749855995178 0.054659899324178696 0.19994999468326569
0.3963269889354706 0.06608010083436966 0.19994999468326569
0.40770599246025085 0.06608010083436966 0.19995099306106567
0.39779001474380493 0.07750009745359421 0.19994999468326569
0.46998700499534607 0.10113999992609024 0.3318459987640381
0.4584279954433441 0.04323979839682579 0.19995300471782684
0.47702300548553467 0.032517701387405396 0.4879840016365051
0.47391700744628906 0.05936900153756142 0.4191649854183197
0.437404990196228 0.0322519987821579 0.48798200488090515
0.3902119994163513 0.02500000037252903 0.33184200525283813
0.4020029902458191 0.027462100610136986 0.4879800081253052
0.4256030023097992 0.10406699776649475 0.48798099160194397
0.4256100058555603 0.10160499811172485 0.3318440020084381
0.47311100363731384 0.10331399738788605 0.4191649854183197
0.42785000801086426 0.11024399846792221 0.5550360083580017
0.41380101442337036 0.11788000166416168 0.48798099160194397
0.480989009141922 0.10149399936199188 0.5550389885902405
0.4762350022792816 0.10302600264549255 0.4879840016365051
0.437404990196228 0.10425800085067749 0.48798200488090515
0.47703999280929565 0.0505950003862381 0.4879840016365051
0.4490770101547241 0.05099400132894516 0.5550379753112793
0.43457600474357605 0.0322519987821579 0.5550370216369629
0.4020000100135803 0.027462100610136986 0.5550349950790405
0.4020000100135803 0.13129299879074097 0.5550349950790405
0.4020029902458191 0.12366600334644318 0.4879800081253052
0.3902060091495514 0.11788000166416168 0.487978994846344
0.38607099652290344 0.1298149973154068 0.605679988861084
0.40199801325798035 0.13576599955558777 0.6056810021400452
0.4259060025215149 0.10904700309038162 0.6056820154190063
0.4178819954395294 0.12342999875545502 0.5550360083580017
0.480987012386322 0.10120999813079834 0.6066250205039978
0.44081801176071167 0.10272499918937683 0.5550370216369629
0.4410400092601776 0.05099400132894516 0.6066229939460754
0.48142799735069275 0.05099400132894516 0.5550389885902405
0.44102999567985535 0.032517701387405396 0.5905839800834656
0.4490649998188019 0.032517701387405396 0.5550379753112793
0.4290139973163605 0.0322519987821579 0.5905830264091492
0.40199801325798035 0.027462100610136986 0.590582013130188
0.4408070147037506 0.10013899952173233 0.6708549857139587
0.44081100821495056 0.10243800282478333 0.6066229939460754
0.44103699922561646 0.05099400132894516 0.6708549857139587
0.4359839856624603 0.034337300807237625 0.6708549857139587
0.4290109872817993 0.03225180134177208 0.6708549857139587
0.4019950032234192 0.027462100610136986 0.6708530187606812
0.44080299139022827 0.09602130204439163 0.7585009932518005
0.4338349997997284 0.10904700309038162 0.6954600214958191
0.4410319924354553 0.05099400132894516 0.7585009932518005
0.4359799921512604 0.034337300807237625 0.7585009932518005
0.42900601029396057 0.0322519987821579 0.7585009932518005
0.40198999643325806 0.027462100610136986 0.758499026298523
0.4024119973182678 0.027462100610136986 0.8378120064735413
0.43733298778533936 0.0896046981215477 0.8378159999847412
0.43524301052093506 0.10904700309038162 0.7585009932518005
0.4375399947166443 0.05396290123462677 0.8378159999847412
0.43299400806427 0.035582300275564194 0.8378139734268188
0.4267190098762512 0.0322519987821579 0.8378139734268188
0.4015029966831207 0.06375080347061157 0.9749979972839355
0.40446600317955017 0.06322559714317322 0.9749979972839355
0.4074290096759796 0.06375080347061157 0.9749979972839355
0.42000898718833923 0.09708330035209656 0.9059590101242065
0.42392298579216003 0.10904700309038162 0.8378139734268188
0.4024119973182678 0.10920500010251999 0.8378120064735413
0.4295769929885864 0.08305550366640091 0.9059609770774841
0.4297240078449249 0.0573389008641243 0.9059609770774841
0.4264810085296631 0.04407690092921257 0.9059609770774841
0.4220049977302551 0.041673898696899414 0.9059609770774841
0.40466299653053284 0.038217999041080475 0.9059590101242065
0.42011699080467224 0.05262729898095131 0.944096028804779
0.4169059991836548 0.051093801856040955 0.944096028804779
0.40446698665618896 0.048888299614191055 0.944096028804779
0.4154750108718872 0.08645410090684891 0.944096028804779
0.40466299653053284 0.09719730168581009 0.9059590101242065
0.42233800888061523 0.07750199735164642 0.944096028804779
0.4224439859390259 0.06109070032835007 0.944096028804779
0.4070880115032196 0.07217220216989517 0.9749979972839355
0.40446698665618896 0.08652690052986145 0.944096028804779
0.40872201323509216 0.07004020363092422 0.9750000238418579
0.40874698758125305 0.06613170355558395 0.9750000238418579
0.4081929922103882 0.06411600112915039 0.9750000238418579
0.4062429964542389 0.11371699720621109 0.19995099306106567
0.4138079881668091 0.12071400135755539 0.3453719913959503
0.4020079970359802 0.1307010054588318 0.39559701085090637
0.3902119994163513 0.12071400135755539 0.34536999464035034
0.44103899598121643 0.05099400132894516 0.615979015827179
0.4814260005950928 0.05099400132894516 0.6066250205039978
0.44080498814582825 0.10243800282478333 0.714335024356842
0.44096899032592773 0.10809999704360962 0.6197140216827393
0.481563001871109 0.10685600340366364 0.6056849956512451
0.4813480079174042 0.10119400173425674 0.7143369913101196
0.4409709870815277 0.10809999704360962 0.6056830286979675
0.5186079740524292 0.10411199927330017 0.5021029710769653
0.5186079740524292 0.08560249954462051 0.5021029710769653
0.5121369957923889 0.08560249954462051 0.45761001110076904
0.5186070203781128 0.10258100181818008 0.5193579792976379
0.5186070203781128 0.08552180230617523 0.5193579792976379
0.4810599982738495 0.09338320046663284 0.6066250205039978
0.47351399064064026 0.08560249954462051 0.4191649854183197
0.47663700580596924 0.08560249954462051 0.4879840016365051
0.4812079966068268 0.08989380300045013 0.5550389885902405
0.48113301396369934 0.08871640264987946 0.6066250205039978
0.5186049938201904 0.09446989744901657 0.5549049973487854
0.5186049938201904 0.0898033007979393 0.5549049973487854
0.5121369957923889 0.10440099984407425 0.45761001110076904
0.2842940092086792 0.0898033007979393 0.5548930168151855
0.32286399602890015 0.08871640264987946 0.6066160202026367
0.32293701171875 0.09338320046663284 0.6066160202026367
0.2842960059642792 0.08552180230617523 0.5193459987640381
0.3227919936180115 0.08989380300045013 0.5550299882888794
0.28429698944091797 0.08560249954462051 0.5020920038223267
0.32736900448799133 0.08560249954462051 0.48797500133514404
0.2907730042934418 0.08560249954462051 0.457599014043808
0.3305000066757202 0.08560249954462051 0.4191569983959198
0.2907730042934418 0.10440099984407425 0.457599014043808
0.33090299367904663 0.10331399738788605 0.4191569983959198
0.28429698944091797 0.10411199927330017 0.5020920038223267
0.32777199149131775 0.10302600264549255 0.48797500133514404
0.2842960059642792 0.10258100181818008 0.5193459987640381
0.32301199436187744 0.10149399936199188 0.5550299882888794
0.2842940092086792 0.09446989744901657 0.5548930168151855
0.3227910101413727 0.08711419999599457 0.6066160202026367
0.3225710093975067 0.05099400132894516 0.6066160202026367
0.3225730061531067 0.05099400132894516 0.5550299882888794
0.32696598768234253 0.0505950003862381 0.48797500133514404
0.3332279920578003 0.06568100303411484 0.331838995218277
0.3300969898700714 0.05936900153756142 0.4191569983959198
0.32300999760627747 0.10120999813079834 0.6066160202026367
0.3549230098724365 0.05099400132894516 0.5550320148468018
0.3340330123901367 0.10113999992609024 0.331838995218277
0.33690300583839417 0.06608010083436966 0.19994600117206573
0.3224329948425293 0.10685600340366364 0.6197069883346558
0.32263699173927307 0.10119400173425674 0.7143279910087585
0.363180011510849 0.10243800282478333 0.7143300175666809
0.3630259931087494 0.10809999704360962 0.6056789755821228
0.3631860017776489 0.10243800282478333 0.6066190004348755
0.3630250096321106 0.10809999704360962 0.6197090148925781
0.32242199778556824 0.06332000344991684 0.6159719824790955
0.363070011138916 0.06362529844045639 0.6159740090370178
0.3224340081214905 0.10685600340366364 0.605675995349884
0.3629550039768219 0.05099400132894516 0.6159740090370178
0.3629559874534607 0.05099400132894516 0.6066190004348755
0.32220301032066345 0.05099400132894516 0.6159719824790955
0.3902119994163513 0.10886300355195999 0.33184200525283813
0.39779001474380493 0.11371699720621109 0.19994999468326569
0.39202699065208435 0.051093801856040955 0.9440940022468567
0.40073901414871216 0.06411600112915039 0.9749979972839355
0.3888159990310669 0.05262729898095131 0.9440940022468567
0.4001849889755249 0.06613170355558395 0.9749979972839355
0.38648998737335205 0.06109070032835007 0.9440940022468567
0.4002099931240082 0.07004020363092422 0.9749979972839355
0.3865950107574463 0.07750199735164642 0.9440940022468567
0.40184399485588074 0.07217220216989517 0.9749979972839355
0.3934580087661743 0.08645410090684891 0.9440940022468567
0.40446600317955017 0.07218959927558899 0.9749979972839355
0.37974798679351807 0.08305550366640091 0.9059579968452454
0.37960100173950195 0.0573389008641243 0.9059579968452454
0.38931599259376526 0.09708330035209656 0.9059579968452454
0.38732001185417175 0.041673898696899414 0.9059579968452454
0.3828440010547638 0.04407690092921257 0.9059579968452454
0.37810400128364563 0.0322519987821579 0.8378099799156189
0.3718299865722656 0.035582300275564194 0.8378099799156189
0.36728399991989136 0.05396290123462677 0.8378099799156189
0.3674899935722351 0.0896046981215477 0.8378099799156189
0.3809010088443756 0.10904700309038162 0.8378099799156189
0.36660799384117126 0.02978990040719509 0.33184000849723816
0.3680010139942169 0.034337300807237625 0.7584980130195618
0.37497401237487793 0.0322519987821579 0.7584980130195618
0.3629480004310608 0.05099400132894516 0.7584959864616394
0.363178014755249 0.09602130204439163 0.7584959864616394
0.36873799562454224 0.10904700309038162 0.7584980130195618
0.3749789893627167 0.03225180134177208 0.6708509922027588
0.36800500750541687 0.034337300807237625 0.6708509922027588
0.36295199394226074 0.05099400132894516 0.6708509922027588
0.363182008266449 0.10013899952173233 0.6708509922027588
0.3701539933681488 0.10904700309038162 0.6954569816589355
0.37498199939727783 0.0322519987821579 0.5905799865722656
0.36296701431274414 0.032517701387405396 0.5905789732933044
0.3780910074710846 0.10904700309038162 0.605679988861084
0.3761500120162964 0.11024399846792221 0.5550330281257629
0.36660799384117126 0.1023700013756752 0.33184000849723816
0.3784100115299225 0.10160499811172485 0.33184000849723816
0.38762399554252625 0.08892039954662323 0.19994999468326569
0.363182008266449 0.10272499918937683 0.5550330281257629
0.37840399146080017 0.10406699776649475 0.4879780113697052
0.36660200357437134 0.10425800085067749 0.4879780113697052
0.3694239854812622 0.0322519987821579 0.5550330281257629
0.35493600368499756 0.032517701387405396 0.5550320148468018
0.38611799478530884 0.12342999875545502 0.5550339818000793
0.36660200357437134 0.0322519987821579 0.4879780113697052
0.3269830048084259 0.032517701387405396 0.48797500133514404
0.38762399554252625 0.04323979839682579 0.19994999468326569
0.3666149973869324 0.033778999000787735 0.1999479979276657
0.3456049859523773 0.04323979839682579 0.1999479979276657
0.33324500918388367 0.03005550056695938 0.331838995218277
0.3456049859523773 0.08892039954662323 0.1999479979276657
0.3666149973869324 0.09838110208511353 0.1999479979276657
0.41792601346969604 0.1298149973154068 0.6056820154190063
0.40198999643325806 0.1388320028781891 0.758499026298523
0.37813401222229004 0.1388320028781891 0.67085200548172
0.4019950032234192 0.14203399419784546 0.6708530187606812
0.37671801447868347 0.1388320028781891 0.7584980130195618
0.42585501074790955 0.1388320028781891 0.6708539724349976
0.42726200819015503 0.1388320028781891 0.7585009932518005
0.21542100608348846 0.04673289880156517 0.13047699630260468
0.21570800244808197 0.04954959824681282 0.17346400022506714
0.3457289934158325 0.04954959824681282 0.3760879933834076
0.3457289934158325 0.04531969875097275 0.3760879933834076
0.21570800244808197 0.04531969875097275 0.17346400022506714
0.21542100608348846 0.04531969875097275 0.13047699630260468
0.3724929988384247 0.04954959824681282 0.17802700400352478
0.3724929988384247 0.04531969875097275 0.17802700400352478
0.596746027469635 0.04954959824681282 0.17346400022506714
0.5970330238342285 0.04673289880156517 0.13047699630260468
0.4399609863758087 0.04954959824681282 0.17802700400352478
0.596746027469635 0.04531969875097275 0.17346400022506714
0.4667249917984009 0.04531969875097275 0.3760879933834076
0.4399609863758087 0.04531969875097275 0.17802700400352478
0.5970330238342285 0.04531969875097275 0.13047699630260468
0.4667249917984009 0.04954959824681282 0.3760879933834076
0.4153969883918762 0.06608010083436966 0.16167500615119934
0.42184698581695557 0.04915010184049606 0.16167500615119934
0.4374200105667114 0.042137499898672104 0.16167700290679932
0.4529930055141449 0.04915010184049606 0.16167700290679932
0.45944300293922424 0.06608010083436966 0.1616780012845993
0.4529930055141449 0.08300989866256714 0.16167700290679932
0.4374200105667114 0.0900224968791008 0.16167700290679932
0.42184698581695557 0.08300989866256714 0.16167500615119934
0.3821899890899658 0.08300989866256714 0.16167299449443817
0.38863998651504517 0.06608010083436966 0.16167299449443817
0.3821899890899658 0.04915010184049606 0.16167299449443817
0.36661699414253235 0.0900224968791008 0.16167299449443817
0.3510439991950989 0.08300989866256714 0.1616709977388382
0.34459298849105835 0.06608010083436966 0.1616709977388382
0.3510439991950989 0.04915010184049606 0.1616709977388382
0.36661699414253235 0.042137499898672104 0.16167299449443817
0.4035399854183197 0.2738170027732849 0.07106029987335205
0.40202000737190247 0.2738170027732849 0.07106029987335205
0.4020189940929413 0.2745020091533661 0.14189399778842926
0.40626099705696106 0.27522000670433044 0.12562599778175354
0.4005039930343628 0.274167001247406 0.02500000037252903
0.40354299545288086 0.274167001247406 0.02500000037252903
0.40624600648880005 0.11617899686098099 0.1543949991464615
0.3977929949760437 0.11617899686098099 0.1543949991464615
0.400501012802124 0.2738170027732849 0.07106029987335205
0.3977789878845215 0.27522000670433044 0.12562599778175354
0.3011150062084198 0.08909089863300323 0.5594030022621155
0.0417357012629509 0.08909089863300323 0.44116300344467163
0.02500000037252903 0.08909089863300323 0.3620699942111969
0.02500000037252903 0.0909406989812851 0.3620699942111969
0.0417357012629509 0.09446989744901657 0.44116300344467163
0.3011150062084198 0.09446989744901657 0.5594030022621155
0.39083001017570496 0.09446989744901657 0.44776099920272827
0.39083001017570496 0.08909089863300323 0.44776099920272827
0.7707189917564392 0.08909089863300323 0.44116300344467163
0.511339008808136 0.08909089863300323 0.5594030022621155
0.42162400484085083 0.08909089863300323 0.44776099920272827
0.7707189917564392 0.09446989744901657 0.44116300344467163
0.7874540090560913 0.0909406989812851 0.3620699942111969
0.42162400484085083 0.09446989744901657 0.44776099920272827
0.7874540090560913 0.08909089863300323 0.3620699942111969
0.511339008808136 0.09446989744901657 0.5594030022621155
3 0 1 2
3 3 4 5
3 6 7 8
3 9 10 7
3 9 11 10
3 12 1 13
3 14 15 16
3 17 18 15
3 17 4 18
3 19 5 4
3 20 21 5
3 22 8 21
3 23 16 11
3 24 16 15
3 25 15 26
3 27 17 15
3 28 4 29
3 30 31 6
3 32 23 9
3 23 11 9
3 6 31 7
3 24 15 18
3 3 18 4
3 33 30 34
3 35 36 37
3 25 38 39
3 40 27 25
3 41 29 27
3 42 43 44
3 45 46 42
3 47 33 48
3 49 35 50
3 51 39 52
3 53 54 39
3 55 40 54
3 56 41 40
3 9 31 30
3 37 30 33
3 9 7 31
3 50 33 47
3 57 58 47
3 59 51 58
3 60 53 51
3 61 55 53
3 62 56 55
3 63 57 64
3 65 59 57
3 66 60 59
3 67 61 60
3 68 62 61
3 69 68 67
3 70 63 71
3 72 65 63
3 73 66 65
3 74 67 66
3 75 76 77
3 27 29 4
3 78 79 80
3 81 70 79
3 82 72 70
3 83 73 72
3 84 74 73
3 85 69 74
3 86 83 82
3 87 84 83
3 88 85 84
3 89 78 90
3 91 81 78
3 92 82 81
3 93 89 94
3 95 91 89
3 96 92 91
3 97 86 92
3 77 87 86
3 76 88 87
3 98 8 22
3 99 6 8
3 6 99 34
3 100 101 44
3 102 51 103
3 104 58 2
3 105 12 106
3 107 1 12
3 104 2 1
3 108 58 104
3 106 49 58
3 105 104 107
3 14 16 23
3 109 110 111
3 52 39 38
3 112 113 110
3 49 114 35
3 32 115 26
3 26 115 116
3 38 116 117
3 52 117 13
3 13 117 118
3 119 120 113
3 112 35 114
3 109 36 35
3 121 32 36
3 111 115 32
3 110 116 115
3 113 117 116
3 120 118 117
3 119 114 118
3 122 123 124
3 125 126 123
3 127 128 126
3 129 130 128
3 131 132 130
3 133 134 132
3 135 136 134
3 137 124 136
3 135 125 122
3 138 123 126
3 139 138 126
3 140 126 128
3 141 128 130
3 142 143 130
3 144 136 124
3 133 127 125
3 140 141 145
3 131 129 127
3 142 146 147
3 148 149 150
3 151 152 144
3 153 150 152
3 149 154 155
3 149 148 154
3 151 156 148
3 157 158 152
3 159 139 158
3 160 44 101
3 161 22 160
3 75 162 88
3 163 164 162
3 165 166 164
3 167 168 166
3 169 170 168
3 171 94 170
3 168 172 173
3 170 174 172
3 94 90 174
3 162 175 85
3 164 176 175
3 166 173 176
3 175 177 69
3 176 178 177
3 173 179 178
3 172 180 179
3 174 181 180
3 90 80 181
3 182 28 29
3 178 183 184
3 179 185 183
3 180 186 185
3 181 187 186
3 177 184 68
3 184 188 62
3 183 189 188
3 185 190 189
3 186 191 190
3 187 192 191
3 188 193 56
3 189 194 193
3 190 158 194
3 191 152 158
3 192 195 152
3 152 195 196
3 197 198 199
3 200 196 201
3 202 201 198
3 193 203 41
3 194 204 203
3 158 145 204
3 139 140 145
3 152 200 136
3 45 205 196
3 203 206 29
3 204 207 206
3 204 145 141
3 200 202 134
3 205 44 201
3 208 28 209
3 210 209 211
3 160 199 198
3 146 197 212
3 134 202 132
3 44 160 198
3 207 211 182
3 143 142 211
3 210 211 147
3 146 212 147
3 182 209 28
3 182 211 209
3 142 147 211
3 154 138 139
3 197 213 212
3 197 199 213
3 160 22 199
3 208 19 28
3 157 155 154
3 123 138 154
3 141 143 211
3 146 132 202
3 150 155 152
3 102 2 58
3 43 100 44
3 36 32 37
3 14 26 15
3 103 13 1
3 99 100 43
3 34 43 42
3 48 42 46
3 2 102 0
3 13 118 114
3 13 114 49
3 13 49 106
3 13 106 12
3 4 28 19
3 5 19 20
3 21 20 22
3 26 38 25
3 15 25 27
3 6 34 30
3 9 37 32
3 34 48 33
3 37 50 35
3 39 54 25
3 25 54 40
3 27 40 41
3 44 205 42
3 42 205 45
3 48 214 47
3 50 58 49
3 52 103 51
3 39 51 53
3 54 53 55
3 40 55 56
3 30 37 9
3 33 50 37
3 47 58 50
3 47 64 57
3 58 57 59
3 51 59 60
3 53 60 61
3 55 61 62
3 64 71 63
3 57 63 65
3 59 65 66
3 60 66 67
3 61 67 68
3 67 74 69
3 71 79 70
3 63 70 72
3 65 72 73
3 66 73 74
3 77 97 96
3 77 96 95
3 77 95 93
3 77 93 171
3 77 171 169
3 77 169 167
3 77 167 165
3 77 165 163
3 77 163 75
3 4 17 27
3 80 90 78
3 79 78 81
3 70 81 82
3 72 82 83
3 73 83 84
3 74 84 85
3 82 92 86
3 83 86 87
3 84 87 88
3 90 94 89
3 78 89 91
3 81 91 92
3 94 171 93
3 89 93 95
3 91 95 96
3 92 96 97
3 86 97 77
3 87 77 76
3 22 161 98
3 8 98 99
3 103 0 102
3 106 108 105
3 1 107 104
3 104 105 108
3 58 108 106
3 107 12 105
3 111 121 109
3 110 109 112
3 26 14 23
3 26 23 32
3 116 38 26
3 117 52 38
3 13 103 52
3 113 112 119
3 114 119 112
3 35 112 109
3 36 109 121
3 32 121 111
3 115 111 110
3 116 110 113
3 117 113 120
3 118 120 119
3 124 137 122
3 123 122 125
3 126 125 127
3 128 127 129
3 130 129 131
3 132 131 133
3 134 133 135
3 136 135 137
3 122 137 135
3 126 140 139
3 128 141 140
3 130 143 141
3 130 132 146
3 130 146 142
3 125 135 133
3 127 133 131
3 150 153 148
3 144 156 151
3 152 151 153
3 155 150 149
3 148 153 151
3 152 155 157
3 158 157 159
3 160 101 161
3 88 76 75
3 162 75 163
3 164 163 165
3 166 165 167
3 168 167 169
3 170 169 171
3 173 166 168
3 172 168 170
3 174 170 94
3 85 88 162
3 175 162 164
3 176 164 166
3 69 85 175
3 177 175 176
3 178 176 173
3 179 173 172
3 180 172 174
3 181 174 90
3 29 206 182
3 184 177 178
3 183 178 179
3 185 179 180
3 186 180 181
3 68 69 177
3 62 68 184
3 188 184 183
3 189 183 185
3 190 185 186
3 191 186 187
3 56 62 188
3 193 188 189
3 194 189 190
3 158 190 191
3 152 191 192
3 196 200 152
3 201 202 200
3 198 197 202
3 41 56 193
3 203 193 194
3 204 194 158
3 145 158 139
3 136 144 152
3 196 195 45
3 29 41 203
3 206 203 204
3 141 207 204
3 134 136 200
3 201 196 205
3 198 201 44
3 182 206 207
3 139 159 154
3 154 159 157
3 154 148 156
3 154 156 144
3 154 144 124
3 154 124 123
3 211 207 141
3 202 197 146
3 58 51 102
3 1 0 103
3 43 34 99
3 42 48 34
3 46 214 48
3 215 80 79
3 216 217 46
3 64 47 214
3 218 215 217
3 71 64 219
3 71 220 79
3 187 181 218
3 218 216 192
3 216 45 195
3 218 181 80
3 214 46 217
3 219 217 215
3 79 220 215
3 46 45 216
3 214 219 64
3 217 216 218
3 219 220 71
3 192 187 218
3 195 192 216
3 80 215 218
3 217 219 214
3 215 220 219
3 221 222 223
3 224 225 226
3 221 226 225
3 227 228 226
3 223 224 228
3 222 225 224
3 229 230 231
3 232 233 234
3 235 230 229
3 234 231 230
3 233 236 231
3 232 229 236
3 223 227 221
3 226 228 224
3 225 222 221
3 226 221 227
3 228 227 223
3 224 223 222
3 231 236 229
3 234 235 232
3 229 232 235
3 230 235 234
3 231 234 233
3 236 233 232
3 5 21 237
3 18 3 238
3 24 18 239
3 16 24 240
3 11 16 241
3 10 11 242
3 7 10 243
3 8 7 244
3 239 238 237
3 245 246 247
3 246 245 199
3 245 248 213
3 248 249 212
3 249 250 147
3 250 251 210
3 251 252 209
3 252 247 208
3 247 246 20
3 237 238 3
3 237 3 5
3 238 239 18
3 239 240 24
3 240 241 16
3 241 242 11
3 242 243 10
3 243 244 7
3 244 237 21
3 244 21 8
3 237 244 243
3 237 243 242
3 237 242 241
3 237 241 240
3 237 240 239
3 247 252 251
3 247 251 250
3 247 250 249
3 247 249 248
3 247 248 245
3 199 22 20
3 199 20 246
3 213 199 245
3 212 213 248
3 147 212 249
3 210 147 250
3 209 210 251
3 208 209 252
3 20 19 208
3 20 208 247
3 253 254 255
3 256 99 98
3 255 100 99
3 257 258 259
3 260 259 98
3 258 253 98
3 257 254 253
3 260 161 261
3 262 101 100
3 261 161 101
3 262 255 254
3 255 256 253
3 98 253 256
3 99 256 255
3 259 260 257
3 98 161 260
3 98 259 258
3 253 258 257
3 257 261 254
3 261 257 260
3 100 255 262
3 101 262 261
3 254 261 262
3 263 264 265
3 266 267 268
3 266 265 264
3 269 270 265
3 268 263 270
3 267 264 263
3 271 272 273
3 274 275 276
3 277 275 274
3 273 276 275
3 272 278 276
3 271 274 278
3 265 270 263
3 268 269 266
3 264 267 266
3 265 266 269
3 270 269 268
3 263 268 267
3 273 277 271
3 276 278 274
3 274 271 277
3 275 277 273
3 276 273 272
3 278 272 271
