ply
format ascii 1.0
element vertex 423
property float x
property float y
property float z
element face 698
property list uchar int vertex_indices
end_header
0.26009300351142883 0.45150700211524963 0.4433870017528534
0.26009300351142883 0.5032680034637451 0.30122101306915283
0.29997000098228455 0.4804620146751404 0.3432779908180237
0.3246139883995056 0.4725329875946045 0.3707590103149414
0.3246139883995056 0.46525099873542786 0.420771986246109
0.29997000098228455 0.470194011926651 0.44152599573135376
0.26009300351142883 0.4739820063114166 0.4539160132408142
0.2202170044183731 0.470194011926651 0.44152599573135376
0.19557200372219086 0.46525099873542786 0.41885998845100403
0.19557200372219086 0.4725329875946045 0.3707590103149414
0.2202170044183731 0.4946269989013672 0.3336679935455322
0.26009300351142883 0.47922301292419434 0.24135099351406097
0.3293519914150238 0.4672980010509491 0.2604359984397888
0.3721559941768646 0.4407930076122284 0.34443798661231995
0.3721559941768646 0.40473198890686035 0.42214900255203247
0.3293519914150238 0.36510801315307617 0.4753020107746124
0.26009300351142883 0.35318300127983093 0.4943859875202179
0.19083499908447266 0.36510801315307617 0.4753020107746124
0.14802999794483185 0.40473198890686035 0.42214900255203247
0.14802999794483185 0.4388990104198456 0.3460859954357147
0.19083499908447266 0.4672980010509491 0.2604359984397888
0.26009300351142883 0.37442201375961304 0.1794690042734146
0.33904799818992615 0.36713600158691406 0.20406599342823029
0.3878450095653534 0.2918359935283661 0.33139801025390625
0.3878450095653534 0.2595149874687195 0.3948630094528198
0.33904799818992615 0.241006001830101 0.4286389946937561
0.26009300351142883 0.23372000455856323 0.45323601365089417
0.1811390072107315 0.241006001830101 0.4286389946937561
0.13234199583530426 0.2595149874687195 0.3948630094528198
0.13234199583530426 0.2918359935283661 0.33139801025390625
0.1811390072107315 0.36713600158691406 0.20406599342823029
0.26009300351142883 0.3224110007286072 0.17647799849510193
0.33904799818992615 0.3013969957828522 0.19119200110435486
0.3878450095653534 0.29747000336647034 0.20749400556087494
0.3878450095653534 0.18307800590991974 0.27497801184654236
0.33904799818992615 0.15260100364685059 0.3025830090045929
0.26009300351142883 0.1315860003232956 0.3172970116138458
0.1811390072107315 0.15260100364685059 0.3025830090045929
0.13234199583530426 0.18307800590991974 0.27497801184654236
0.13234199583530426 0.29747000336647034 0.20749400556087494
0.1811390072107315 0.3013969957828522 0.19119200110435486
0.26009300351142883 0.21924300491809845 0.055178798735141754
0.269679993391037 0.2162339985370636 0.05598460137844086
0.2756040096282959 0.2083580046892166 0.0580952987074852
0.2756040096282959 0.19862100481987 0.06070369854569435
0.269679993391037 0.19074499607086182 0.06281439960002899
0.26009300351142883 0.18773500621318817 0.06362160295248032
0.2505069971084595 0.19074499607086182 0.06281439960002899
0.24458199739456177 0.19862100481987 0.06070369854569435
0.24458199739456177 0.2083580046892166 0.0580952987074852
0.2505069971084595 0.2162339985370636 0.05598460137844086
0.26009300351142883 0.2034900039434433 0.059400200843811035
0.26009300351142883 0.47922199964523315 0.24135099351406097
0.3293519914150238 0.4672960042953491 0.2604359984397888
0.3721559941768646 0.4407919943332672 0.34443798661231995
0.3721559941768646 0.40473100543022156 0.42214900255203247
0.3293519914150238 0.365106999874115 0.4753020107746124
0.26009300351142883 0.35318198800086975 0.4943859875202179
0.19083499908447266 0.365106999874115 0.4753020107746124
0.14802999794483185 0.40473100543022156 0.42214900255203247
0.14802999794483185 0.4388979971408844 0.3460859954357147
0.19083499908447266 0.4672960042953491 0.2604359984397888
0.26009300351142883 0.37442100048065186 0.1794690042734146
0.33904799818992615 0.3671349883079529 0.20406599342823029
0.3878450095653534 0.2918350100517273 0.33139801025390625
0.3878450095653534 0.2595140039920807 0.3948630094528198
0.33904799818992615 0.24100500345230103 0.4286389946937561
0.26009300351142883 0.23371900618076324 0.45323601365089417
0.1811390072107315 0.24100500345230103 0.4286389946937561
0.13234199583530426 0.2595140039920807 0.3948630094528198
0.13234199583530426 0.2918350100517273 0.33139801025390625
0.1811390072107315 0.3671349883079529 0.20406599342823029
0.15551699697971344 0.4735789895057678 0.4228230118751526
0.12739799916744232 0.4646959900856018 0.46126899123191833
0.15551699697971344 0.4651789963245392 0.47371700406074524
0.19915199279785156 0.456496000289917 0.43292999267578125
0.12739799916744232 0.4336250126361847 0.40339499711990356
0.13839800655841827 0.4197689890861511 0.4710949957370758
0.18359500169754028 0.41040900349617004 0.4548819959163666
0.13839800655841827 0.4010480046272278 0.43866899609565735
0.13690100610256195 0.28585198521614075 0.55206298828125
0.185712993144989 0.2757419943809509 0.5345529913902283
0.13690100610256195 0.2656320035457611 0.5170429944992065
0.1555269956588745 0.04668879881501198 0.4840250015258789
0.14728400111198425 0.04668879881501198 0.4840250015258789
0.15140600502490997 0.05012400075793266 0.4842219948768616
0.15964800119400024 0.05012400075793266 0.4842219948768616
0.16377000510692596 0.04668879881501198 0.4840250015258789
0.15964800119400024 0.04132530093193054 0.4842529892921448
0.15140600502490997 0.04132530093193054 0.4842529892921448
0.1206590011715889 0.04863649979233742 0.4978789985179901
0.1380929946899414 0.06306970119476318 0.4987100064754486
0.17296099662780762 0.06306970119476318 0.4987100064754486
0.19039399921894073 0.04853909835219383 0.4978789985179901
0.17296099662780762 0.025851499289274216 0.4988439977169037
0.1380929946899414 0.025851499289274216 0.4988439977169037
0.1390019953250885 0.02855820022523403 0.560126006603241
0.1472650021314621 0.035444699227809906 0.5605220198631287
0.16378900408744812 0.035444699227809906 0.5605220198631287
0.17205199599266052 0.02855820022523403 0.560126006603241
0.16378900408744812 0.025818100199103355 0.5610730051994324
0.1472650021314621 0.025818100199103355 0.5610730051994324
0.1555269956588745 0.02855820022523403 0.560126006603241
0.15632399916648865 0.30493900179862976 0.5489929914474487
0.12777400016784668 0.28669801354408264 0.5427780151367188
0.13646699488162994 0.27426400780677795 0.5611249804496765
0.15632399916648865 0.26558300852775574 0.5674970149993896
0.1784439980983734 0.27426400780677795 0.5611249804496765
0.18713800609111786 0.28669801354408264 0.5427780151367188
0.1784439980983734 0.2848750054836273 0.5159159898757935
0.15632399916648865 0.2758919894695282 0.5090339779853821
0.13646699488162994 0.2848750054836273 0.5159159898757935
0.14786800742149353 0.1866690069437027 0.5222489833831787
0.15067599713802338 0.18549199402332306 0.5289260149002075
0.15745599567890167 0.18500499427318573 0.5316920280456543
0.16423499584197998 0.18549199402332306 0.5289260149002075
0.16704300045967102 0.1866690069437027 0.5222489833831787
0.16423499584197998 0.18784700334072113 0.5155730247497559
0.15745599567890167 0.18833500146865845 0.5128070116043091
0.15067599713802338 0.18784700334072113 0.5155730247497559
0.1559009999036789 0.025270000100135803 0.4949829876422882
0.15635600686073303 0.02507909946143627 0.49606600403785706
0.15745599567890167 0.02500000037252903 0.4965139925479889
0.15855500102043152 0.02507909946143627 0.49606600403785706
0.15900999307632446 0.025270000100135803 0.4949829876422882
0.15855500102043152 0.025460900738835335 0.49390000104904175
0.15745599567890167 0.025539999827742577 0.4934520125389099
0.15635600686073303 0.025460900738835335 0.49390000104904175
0.17557699978351593 0.025270000100135803 0.4949829876422882
0.3738740086555481 0.4735789895057678 0.4228230118751526
0.4019930064678192 0.4646959900856018 0.46126899123191833
0.3738740086555481 0.4651789963245392 0.47371700406074524
0.33023801445961 0.456496000289917 0.43292999267578125
0.4019930064678192 0.4336250126361847 0.40339499711990356
0.3909919857978821 0.4197689890861511 0.4710949957370758
0.34579500555992126 0.41040900349617004 0.4548819959163666
0.3909919857978821 0.4010480046272278 0.43866899609565735
0.3924899995326996 0.28585198521614075 0.55206298828125
0.34367701411247253 0.2757419943809509 0.5345529913902283
0.3924899995326996 0.2656320035457611 0.5170429944992065
0.37386399507522583 0.04668879881501198 0.4840250015258789
0.3821069896221161 0.04668879881501198 0.4840250015258789
0.37798500061035156 0.05012400075793266 0.4842219948768616
0.3697420060634613 0.05012400075793266 0.4842219948768616
0.36562100052833557 0.04668879881501198 0.4840250015258789
0.3697420060634613 0.04132530093193054 0.4842529892921448
0.37798500061035156 0.04132530093193054 0.4842529892921448
0.40873101353645325 0.04863649979233742 0.4978789985179901
0.39129799604415894 0.06306970119476318 0.4987100064754486
0.3564299941062927 0.06306970119476318 0.4987100064754486
0.3389959931373596 0.04853909835219383 0.4978789985179901
0.3564299941062927 0.025851499289274216 0.4988439977169037
0.39129799604415894 0.025851499289274216 0.4988439977169037
0.39038899540901184 0.02855820022523403 0.560126006603241
0.38212600350379944 0.035444699227809906 0.5605220198631287
0.3656010031700134 0.035444699227809906 0.5605220198631287
0.3573389947414398 0.02855820022523403 0.560126006603241
0.3656010031700134 0.025818100199103355 0.5610730051994324
0.38212600350379944 0.025818100199103355 0.5610730051994324
0.37386399507522583 0.02855820022523403 0.560126006603241
0.3730669915676117 0.30493900179862976 0.5489929914474487
0.40161699056625366 0.28669801354408264 0.5427780151367188
0.3929240107536316 0.27426400780677795 0.5611249804496765
0.3730669915676117 0.26558300852775574 0.5674970149993896
0.35094699263572693 0.27426400780677795 0.5611249804496765
0.3422529995441437 0.28669801354408264 0.5427780151367188
0.35094699263572693 0.2848750054836273 0.5159159898757935
0.3730669915676117 0.2758919894695282 0.5090339779853821
0.3929240107536316 0.2848750054836273 0.5159159898757935
0.3815230131149292 0.1866690069437027 0.5222489833831787
0.37871500849723816 0.18549199402332306 0.5289260149002075
0.37193500995635986 0.18500499427318573 0.5316920280456543
0.36515501141548157 0.18549199402332306 0.5289260149002075
0.3623470067977905 0.1866690069437027 0.5222489833831787
0.36515501141548157 0.18784700334072113 0.5155730247497559
0.37193500995635986 0.18833500146865845 0.5128070116043091
0.37871500849723816 0.18784700334072113 0.5155730247497559
0.37349000573158264 0.025270000100135803 0.4949829876422882
0.3730340003967285 0.02507909946143627 0.49606600403785706
0.37193500995635986 0.02500000037252903 0.4965139925479889
0.3708359897136688 0.02507909946143627 0.49606600403785706
0.3703800141811371 0.025270000100135803 0.4949829876422882
0.3708359897136688 0.025460900738835335 0.49390000104904175
0.37193500995635986 0.025539999827742577 0.4934520125389099
0.3730340003967285 0.025460900738835335 0.49390000104904175
0.44190001487731934 0.6839050054550171 0.11037600040435791
0.4655640125274658 0.9628350138664246 0.02500000037252903
0.45607998967170715 0.974265992641449 0.04408759996294975
0.3148899972438812 0.7005550265312195 0.382752001285553
0.31083399057388306 0.6788399815559387 0.3941819965839386
0.31537801027297974 0.6406980156898499 0.3890480101108551
0.323947012424469 0.6169729828834534 0.3734470009803772
0.3322719931602478 0.6178060173988342 0.35535699129104614
0.47793999314308167 0.9354230165481567 0.03562479838728905
0.4784890115261078 0.9635689854621887 0.030982699245214462
0.4690049886703491 0.9750000238418579 0.050070300698280334
0.4249710142612457 0.9408149719238281 0.1494089961051941
0.3985939919948578 0.8858320116996765 0.21315200626850128
0.3786199986934662 0.8098350167274475 0.2656390070915222
0.35269901156425476 0.7169880270957947 0.33304300904273987
0.3278160095214844 0.7012889981269836 0.38873499631881714
0.3237600028514862 0.6795750260353088 0.40016400814056396
0.3283030092716217 0.6414330005645752 0.3950299918651581
0.33687201142311096 0.6177070140838623 0.37942901253700256
0.34519699215888977 0.6185399889945984 0.3613390028476715
0.3591029942035675 0.6467040181159973 0.3278369903564453
0.06158930063247681 0.6839050054550171 0.11037600040435791
0.037925198674201965 0.9628350138664246 0.02500000037252903
0.04740909859538078 0.974265992641449 0.04408759996294975
0.18859900534152985 0.7005550265312195 0.382752001285553
0.19265499711036682 0.6788399815559387 0.3941819965839386
0.18811100721359253 0.6406980156898499 0.3890480101108551
0.17954200506210327 0.6169729828834534 0.3734470009803772
0.17121699452400208 0.6178060173988342 0.35535699129104614
0.02554910071194172 0.9354230165481567 0.03562479838728905
0.02500000037252903 0.9635689854621887 0.030982699245214462
0.0344838984310627 0.9750000238418579 0.050070300698280334
0.0785176008939743 0.9408149719238281 0.1494089961051941
0.10489600151777267 0.8858320116996765 0.21315200626850128
0.12487000226974487 0.8098350167274475 0.2656390070915222
0.1507900059223175 0.7169880270957947 0.33304300904273987
0.17567400634288788 0.7012889981269836 0.38873499631881714
0.17972999811172485 0.6795750260353088 0.40016400814056396
0.17518599331378937 0.6414330005645752 0.3950299918651581
0.1666170060634613 0.6177070140838623 0.37942901253700256
0.1582919955253601 0.6185399889945984 0.3613390028476715
0.14438599348068237 0.6467040181159973 0.3278369903564453
0.26009300351142883 0.6973819732666016 0.5667750239372253
0.26009300351142883 0.764024019241333 0.5748779773712158
0.29997000098228455 0.7539539933204651 0.5830320119857788
0.3246139883995056 0.7243679761886597 0.5721529722213745
0.3246139883995056 0.6810889840126038 0.5799670219421387
0.29997000098228455 0.6547279953956604 0.6013140082359314
0.26009300351142883 0.6446589827537537 0.6094689965248108
0.2202170044183731 0.6547279953956604 0.6013140082359314
0.19557200372219086 0.6810889840126038 0.5799670219421387
0.19557200372219086 0.7243679761886597 0.5721529722213745
0.2202170044183731 0.7539539933204651 0.5830320119857788
0.26009300351142883 0.7598559856414795 0.36554500460624695
0.3293519914150238 0.7503460049629211 0.38593998551368713
0.3721559941768646 0.710722029209137 0.41959598660469055
0.3721559941768646 0.65556401014328 0.4567300081253052
0.3293519914150238 0.5984460115432739 0.5371289849281311
0.26009300351142883 0.588936984539032 0.5575240254402161
0.19083499908447266 0.5984460115432739 0.5371289849281311
0.14802999794483185 0.65556401014328 0.4567300081253052
0.14802999794483185 0.710722029209137 0.41959598660469055
0.19083499908447266 0.7503460049629211 0.38593998551368713
0.26009300351142883 0.5922139883041382 0.24753299355506897
0.33904799818992615 0.5879799723625183 0.27283498644828796
0.3878450095653534 0.5571879744529724 0.3275899887084961
0.3878450095653534 0.5370309948921204 0.41706299781799316
0.33904799818992615 0.5172280073165894 0.4868760108947754
0.26009300351142883 0.5129929780960083 0.5121780037879944
0.1811390072107315 0.5172280073165894 0.4868760108947754
0.13234199583530426 0.5367119908332825 0.4168440103530884
0.13234199583530426 0.5571879744529724 0.3275899887084961
0.1811390072107315 0.5879799723625183 0.27283498644828796
0.26009300351142883 0.4374609887599945 0.2786319851875305
0.3130829930305481 0.4395590126514435 0.29572099447250366
0.3458330035209656 0.44505199790000916 0.34046098589897156
0.3458330035209656 0.44167599081993103 0.3920939862728119
0.3130829930305481 0.4293240010738373 0.4059939980506897
0.20710399746894836 0.4293240010738373 0.4059939980506897
0.17435400187969208 0.44167599081993103 0.3920939862728119
0.17435400187969208 0.44505199790000916 0.34046098589897156
0.20710399746894836 0.4395590126514435 0.29572099447250366
0.26009300351142883 0.7598559856414795 0.365543007850647
0.3293519914150238 0.7503470182418823 0.38593798875808716
0.3721559941768646 0.7107229828834534 0.4195939898490906
0.3721559941768646 0.6555650234222412 0.4567280113697052
0.3293519914150238 0.5984479784965515 0.5371270179748535
0.26009300351142883 0.5889379978179932 0.5575219988822937
0.19083499908447266 0.5984479784965515 0.5371270179748535
0.14802999794483185 0.6555650234222412 0.4567280113697052
0.14802999794483185 0.7107229828834534 0.4195939898490906
0.19083499908447266 0.7503470182418823 0.38593798875808716
0.26009300351142883 0.5922150015830994 0.24753199517726898
0.33904799818992615 0.5879809856414795 0.272832989692688
0.3878450095653534 0.5571889877319336 0.3275879919528961
0.3878450095653534 0.5370320081710815 0.41706201434135437
0.33904799818992615 0.5172290205955505 0.4868740141391754
0.26009300351142883 0.5129939913749695 0.5121769905090332
0.1811390072107315 0.5172290205955505 0.4868740141391754
0.13234199583530426 0.5367130041122437 0.4168429970741272
0.13234199583530426 0.5571889877319336 0.3275879919528961
0.1811390072107315 0.5879809856414795 0.272832989692688
0.18001900613307953 0.702629029750824 0.619379997253418
0.1954520046710968 0.7632610201835632 0.6285989880561829
0.1954520046710968 0.7424619793891907 0.5935119986534119
0.1954520046710968 0.7196499705314636 0.5750380158424377
0.1954520046710968 0.6903349757194519 0.5735020041465759
0.1954520046710968 0.6657170057296753 0.5894910097122192
0.1954520046710968 0.6551979780197144 0.616894006729126
0.1954520046710968 0.6627950072288513 0.6452490091323853
0.1954520046710968 0.6856070160865784 0.6637229919433594
0.1954520046710968 0.7149220108985901 0.6652590036392212
0.1954520046710968 0.7395399808883667 0.6492710113525391
0.23585499823093414 0.792576014995575 0.6301349997520447
0.23585499823093414 0.7670819759368896 0.5775240063667297
0.23585499823093414 0.7301689982414246 0.5476329922676086
0.23585499823093414 0.6827380061149597 0.5451470017433167
0.23585499823093414 0.6429039835929871 0.5710160136222839
0.23585499823093414 0.6312749981880188 0.6574640274047852
0.23585499823093414 0.6322919726371765 0.7459880113601685
0.24679699540138245 0.6731129884719849 0.7540580034255981
0.23585499823093414 0.7141730189323425 0.702318012714386
0.23585499823093414 0.7455340027809143 0.7062000036239624
0.2857950031757355 0.792576014995575 0.6301349997520447
0.28579598665237427 0.7670819759368896 0.5775240063667297
0.28579598665237427 0.7301689982414246 0.5476329922676086
0.28579598665237427 0.6827380061149597 0.5451470017433167
0.2857950031757355 0.6429039835929871 0.5710160136222839
0.2857950031757355 0.6312749981880188 0.6574640274047852
0.2857950031757355 0.6322919726371765 0.7459880113601685
0.274852991104126 0.6731129884719849 0.7540580034255981
0.2857950031757355 0.7141730189323425 0.702318012714386
0.2857950031757355 0.7455340027809143 0.7062000036239624
0.326198011636734 0.7632610201835632 0.6285989880561829
0.326198011636734 0.7424619793891907 0.5935119986534119
0.326198011636734 0.7196499705314636 0.5750380158424377
0.326198011636734 0.6903349757194519 0.5735020041465759
0.326198011636734 0.6657170057296753 0.5894910097122192
0.326198011636734 0.6551979780197144 0.6168959736824036
0.326198011636734 0.6627950072288513 0.6452490091323853
0.326198011636734 0.6856070160865784 0.6637229919433594
0.326198011636734 0.7149220108985901 0.6652590036392212
0.326198011636734 0.7395399808883667 0.6492710113525391
0.3416309952735901 0.702629029750824 0.6193810105323792
0.37951400876045227 0.7079929709434509 0.678642988204956
0.35779300332069397 0.7453340291976929 0.6740580201148987
0.35779300332069397 0.7306349873542786 0.7086880207061768
0.35779300332069397 0.6932939887046814 0.7132729887962341
0.35779300332069397 0.6706529855728149 0.683227002620697
0.35779300332069397 0.6853529810905457 0.648597002029419
0.35779300332069397 0.7226930260658264 0.6440119743347168
0.31435200572013855 0.7453340291976929 0.6740580201148987
0.31435200572013855 0.7306349873542786 0.7086880207061768
0.31435200572013855 0.6932939887046814 0.7132729887962341
0.31435200572013855 0.6706529855728149 0.683227002620697
0.31435200572013855 0.6853529810905457 0.648597002029419
0.31435200572013855 0.7226930260658264 0.6440119743347168
0.29263201355934143 0.7079929709434509 0.678642988204956
0.22879600524902344 0.7079929709434509 0.678642988204956
0.20707499980926514 0.7453340291976929 0.6740580201148987
0.20707499980926514 0.7306349873542786 0.7086880207061768
0.20707499980926514 0.6932939887046814 0.7132729887962341
0.20707499980926514 0.6706529855728149 0.683227002620697
0.20707499980926514 0.6853529810905457 0.648597002029419
0.20707499980926514 0.7226930260658264 0.6440119743347168
0.1636350005865097 0.7453340291976929 0.6740580201148987
0.1636350005865097 0.7306349873542786 0.7086880207061768
0.1636350005865097 0.6932939887046814 0.7132729887962341
0.1636350005865097 0.6706529855728149 0.683227002620697
0.1636350005865097 0.6853529810905457 0.648597002029419
0.1636350005865097 0.7226930260658264 0.6440119743347168
0.1419139951467514 0.7079929709434509 0.678642988204956
0.278889000415802 0.6401280164718628 0.7359880208969116
0.2737619876861572 0.6438819766044617 0.7385089993476868
0.2737619876861572 0.6370959877967834 0.739342987537384
0.32134899497032166 0.6318380236625671 0.8111010193824768
0.31622201204299927 0.635591983795166 0.8136230111122131
0.31622201204299927 0.6288059949874878 0.8144559860229492
0.32607901096343994 0.6146990060806274 0.8333889842033386
0.32607901096343994 0.6079139709472656 0.8342220187187195
0.32778799533843994 0.6111860275268555 0.8328260183334351
0.24554799497127533 0.6395530104637146 0.7313039898872375
0.2506749927997589 0.6433069705963135 0.7338259816169739
0.2506749927997589 0.6365209817886353 0.7346590161323547
0.20308800041675568 0.631263017654419 0.8064180016517639
0.20821499824523926 0.6350169777870178 0.8089389801025391
0.20821499824523926 0.6282309889793396 0.8097720146179199
0.19835799932479858 0.6141240000724792 0.8287060260772705
0.19835799932479858 0.607338011264801 0.8295390009880066
0.1966490000486374 0.6106110215187073 0.8281430006027222
0.14616499841213226 0.5225830078125 0.5603320002555847
0.12533600628376007 0.5053989887237549 0.5839769840240479
0.14616499841213226 0.5021250247955322 0.5926030278205872
0.17848700284957886 0.5080090165138245 0.5622789859771729
0.16936799883842468 0.5009629726409912 0.5355209708213806
0.12533600628376007 0.5009629726409912 0.5355209708213806
0.13348400592803955 0.47192201018333435 0.5776730179786682
0.16121900081634521 0.4685409963130951 0.5501440167427063
0.13348400592803955 0.4685409963130951 0.5501440167427063
0.14777100086212158 0.32169899344444275 0.6077449917793274
0.1531360000371933 0.32142800092697144 0.6055390238761902
0.14777100086212158 0.3211570084095001 0.6033340096473694
0.14501799643039703 0.7274510264396667 0.5339210033416748
0.11689899861812592 0.7042509913444519 0.565841019153595
0.14501799643039703 0.699832022190094 0.5774869918823242
0.18865400552749634 0.7077749967575073 0.536549985408783
0.17634199559688568 0.6982629895210266 0.5004249811172485
0.11689899861812592 0.6982629895210266 0.5004249811172485
0.12790000438690186 0.6590570211410522 0.5573310256004333
0.16534200310707092 0.654492974281311 0.5201669931411743
0.12790000438690186 0.654492974281311 0.5201669931411743
0.12640200555324554 0.5041490197181702 0.5795360207557678
0.1752139925956726 0.5016840100288391 0.5594670176506042
0.12640200555324554 0.49922001361846924 0.5393990278244019
0.3896079957485199 0.5225269794464111 0.5598800182342529
0.41043800115585327 0.5053439736366272 0.5835239887237549
0.3896079957485199 0.5020689964294434 0.5921509861946106
0.3572860062122345 0.5079540014266968 0.5618270039558411
0.36640501022338867 0.5009070038795471 0.5350679755210876
0.41043800115585327 0.5009070038795471 0.5350679755210876
0.4022890031337738 0.4718649983406067 0.5772200226783752
0.37455400824546814 0.4684849977493286 0.5496910214424133
0.4022890031337738 0.4684849977493286 0.5496910214424133
0.3880020081996918 0.32164299488067627 0.6072919964790344
0.38263699412345886 0.32137200236320496 0.6050860285758972
0.3880020081996918 0.32110100984573364 0.6028810143470764
0.39002400636672974 0.7274510264396667 0.5339210033416748
0.41814300417900085 0.7042509913444519 0.565841019153595
0.39002400636672974 0.699832022190094 0.5774869918823242
0.3463889956474304 0.7077749967575073 0.536549985408783
0.3587000072002411 0.6982629895210266 0.5004249811172485
0.41814300417900085 0.6982629895210266 0.5004249811172485
0.4071420133113861 0.6590570211410522 0.5573310256004333
0.36970001459121704 0.654492974281311 0.5201669931411743
0.4071420133113861 0.654492974281311 0.5201669931411743
0.4086410105228424 0.5041490197181702 0.5795360207557678
0.35982799530029297 0.5016840100288391 0.5594670176506042
0.4086410105228424 0.49922001361846924 0.5393990278244019
3 0 2 1
3 0 3 2
3 0 4 3
3 0 5 4
3 0 6 5
3 0 7 6
3 0 8 7
3 0 9 8
3 0 10 9
3 0 1 10
3 1 12 11
3 1 2 12
3 2 13 12
3 2 3 13
3 3 14 13
3 3 4 14
3 4 15 14
3 4 5 15
3 5 16 15
3 5 6 16
3 6 17 16
3 6 7 17
3 7 18 17
3 7 8 18
3 8 19 18
3 8 9 19
3 9 20 19
3 9 10 20
3 10 11 20
3 10 1 11
3 21 32 31
3 21 22 32
3 22 33 32
3 22 23 33
3 23 34 33
3 23 24 34
3 24 35 34
3 24 25 35
3 25 36 35
3 25 26 36
3 26 37 36
3 26 27 37
3 27 38 37
3 27 28 38
3 28 39 38
3 28 29 39
3 29 40 39
3 29 30 40
3 30 31 40
3 30 21 31
3 31 42 41
3 31 32 42
3 32 43 42
3 32 33 43
3 33 44 43
3 33 34 44
3 34 45 44
3 34 35 45
3 35 46 45
3 35 36 46
3 36 47 46
3 36 37 47
3 37 48 47
3 37 38 48
3 38 49 48
3 38 39 49
3 39 50 49
3 39 40 50
3 40 41 50
3 40 31 41
3 51 41 42
3 51 42 43
3 51 43 44
3 51 44 45
3 51 45 46
3 51 46 47
3 51 47 48
3 51 48 49
3 51 49 50
3 51 50 41
3 53 64 63
3 53 54 64
3 54 65 64
3 54 55 65
3 55 66 65
3 55 56 66
3 56 67 66
3 56 57 67
3 57 68 67
3 57 58 68
3 58 69 68
3 58 59 69
3 59 70 69
3 59 60 70
3 60 71 70
3 60 61 71
3 61 62 71
3 61 52 62
3 52 63 62
3 52 53 63
3 74 72 73
3 75 72 74
3 76 72 75
3 73 72 76
3 74 73 77
3 78 74 77
3 75 74 78
3 79 75 78
3 76 75 79
3 77 76 79
3 73 76 77
3 81 77 80
3 78 77 81
3 82 78 81
3 79 78 82
3 80 79 82
3 77 79 80
3 81 80 82
3 83 85 84
3 83 86 85
3 83 87 86
3 83 88 87
3 83 89 88
3 83 84 89
3 84 91 90
3 84 85 91
3 85 92 91
3 85 86 92
3 86 93 92
3 86 87 93
3 87 94 93
3 87 88 94
3 88 95 94
3 88 89 95
3 89 90 95
3 89 84 90
3 90 97 96
3 90 91 97
3 91 98 97
3 91 92 98
3 92 99 98
3 92 93 99
3 93 100 99
3 93 94 100
3 94 101 100
3 94 95 101
3 95 96 101
3 95 90 96
3 102 96 97
3 102 97 98
3 102 98 99
3 102 99 100
3 102 100 101
3 102 101 96
3 105 103 104
3 106 103 105
3 107 103 106
3 108 103 107
3 109 103 108
3 110 103 109
3 111 103 110
3 104 103 111
3 113 104 112
3 105 104 113
3 114 105 113
3 106 105 114
3 115 106 114
3 107 106 115
3 116 107 115
3 108 107 116
3 117 108 116
3 109 108 117
3 118 109 117
3 110 109 118
3 119 110 118
3 111 110 119
3 112 111 119
3 104 111 112
3 121 112 120
3 113 112 121
3 122 113 121
3 114 113 122
3 123 114 122
3 115 114 123
3 124 115 123
3 116 115 124
3 125 116 124
3 117 116 125
3 126 117 125
3 118 117 126
3 127 118 126
3 119 118 127
3 120 119 127
3 112 119 120
3 120 128 121
3 121 128 122
3 122 128 123
3 123 128 124
3 124 128 125
3 125 128 126
3 126 128 127
3 127 128 120
3 129 131 130
3 129 132 131
3 129 133 132
3 129 130 133
3 130 131 134
3 131 135 134
3 131 132 135
3 132 136 135
3 132 133 136
3 133 134 136
3 133 130 134
3 134 138 137
3 134 135 138
3 135 139 138
3 135 136 139
3 136 137 139
3 136 134 137
3 137 138 139
3 140 142 141
3 140 143 142
3 140 144 143
3 140 145 144
3 140 146 145
3 140 141 146
3 141 148 147
3 141 142 148
3 142 149 148
3 142 143 149
3 143 150 149
3 143 144 150
3 144 151 150
3 144 145 151
3 145 152 151
3 145 146 152
3 146 147 152
3 146 141 147
3 147 154 153
3 147 148 154
3 148 155 154
3 148 149 155
3 149 156 155
3 149 150 156
3 150 157 156
3 150 151 157
3 151 158 157
3 151 152 158
3 152 153 158
3 152 147 153
3 159 153 154
3 159 154 155
3 159 155 156
3 159 156 157
3 159 157 158
3 159 158 153
3 160 162 161
3 160 163 162
3 160 164 163
3 160 165 164
3 160 166 165
3 160 167 166
3 160 168 167
3 160 161 168
3 161 170 169
3 161 162 170
3 162 171 170
3 162 163 171
3 163 172 171
3 163 164 172
3 164 173 172
3 164 165 173
3 165 174 173
3 165 166 174
3 166 175 174
3 166 167 175
3 167 176 175
3 167 168 176
3 168 169 176
3 168 161 169
3 169 178 177
3 169 170 178
3 170 179 178
3 170 171 179
3 171 180 179
3 171 172 180
3 172 181 180
3 172 173 181
3 173 182 181
3 173 174 182
3 174 183 182
3 174 175 183
3 175 184 183
3 175 176 184
3 176 177 184
3 176 169 177
3 182 177 178
3 182 178 179
3 182 179 180
3 182 180 181
3 182 183 184
3 182 184 177
3 185 186 193
3 186 194 193
3 186 187 195
3 186 195 194
3 187 196 195
3 188 200 199
3 188 189 201
3 188 201 200
3 189 190 202
3 189 202 201
3 190 191 203
3 190 203 202
3 191 192 204
3 191 204 203
3 192 205 204
3 186 196 187
3 185 196 186
3 185 197 196
3 185 198 197
3 205 198 185
3 205 199 198
3 205 188 199
3 192 188 205
3 192 189 188
3 192 190 189
3 192 191 190
3 193 194 195
3 193 195 196
3 185 193 196
3 185 196 197
3 185 197 198
3 205 185 198
3 205 198 199
3 204 205 199
3 204 199 200
3 204 200 201
3 204 201 202
3 204 202 203
3 207 206 214
3 215 207 214
3 208 207 216
3 216 207 215
3 217 208 216
3 221 209 220
3 210 209 222
3 222 209 221
3 211 210 223
3 223 210 222
3 212 211 224
3 224 211 223
3 213 212 225
3 225 212 224
3 226 213 225
3 217 207 208
3 217 206 207
3 218 206 217
3 219 206 218
3 219 226 206
3 220 226 219
3 209 226 220
3 209 213 226
3 210 213 209
3 211 213 210
3 212 213 211
3 215 214 216
3 216 214 217
3 214 206 217
3 217 206 218
3 218 206 219
3 206 226 219
3 219 226 220
3 226 225 220
3 220 225 221
3 221 225 222
3 222 225 223
3 223 225 224
3 227 229 228
3 227 230 229
3 227 231 230
3 227 232 231
3 227 233 232
3 227 234 233
3 227 235 234
3 227 236 235
3 227 237 236
3 227 228 237
3 228 239 238
3 228 229 239
3 229 240 239
3 229 230 240
3 230 241 240
3 230 231 241
3 231 242 241
3 231 232 242
3 232 243 242
3 232 233 243
3 233 244 243
3 233 234 244
3 234 245 244
3 234 235 245
3 235 246 245
3 235 236 246
3 236 247 246
3 236 237 247
3 237 238 247
3 237 228 238
3 248 259 258
3 248 249 259
3 249 260 259
3 249 250 260
3 250 261 260
3 250 251 261
3 251 262 261
3 251 252 262
3 252 253 262
3 253 263 262
3 253 254 263
3 254 264 263
3 254 255 264
3 255 265 264
3 255 256 265
3 256 266 265
3 256 257 266
3 257 258 266
3 257 248 258
3 259 260 261
3 259 262 261
3 261 262 259
3 259 258 262
3 258 266 259
3 259 266 258
3 266 265 264
3 265 259 266
3 266 259 265
3 265 264 259
3 259 264 265
3 264 263 259
3 259 263 264
3 263 262 259
3 259 262 263
3 267 278 277
3 267 268 278
3 268 279 278
3 268 269 279
3 269 280 279
3 269 270 280
3 270 281 280
3 270 271 281
3 271 282 281
3 271 272 282
3 272 283 282
3 272 273 283
3 273 284 283
3 273 274 284
3 274 285 284
3 274 275 285
3 275 286 285
3 275 276 286
3 276 277 286
3 276 267 277
3 287 288 289
3 287 289 290
3 287 290 291
3 287 291 292
3 287 292 293
3 287 293 294
3 287 294 295
3 287 295 296
3 287 296 297
3 287 297 288
3 288 298 299
3 288 299 289
3 289 299 300
3 289 300 290
3 290 300 301
3 290 301 291
3 291 301 302
3 291 302 292
3 292 302 303
3 292 303 293
3 293 303 304
3 293 304 294
3 294 304 305
3 294 305 295
3 295 305 306
3 295 306 296
3 296 306 307
3 296 307 297
3 297 307 298
3 297 298 288
3 298 308 309
3 298 309 299
3 299 309 310
3 299 310 300
3 300 310 311
3 300 311 301
3 301 311 312
3 301 312 302
3 302 312 313
3 302 313 303
3 303 313 314
3 303 314 304
3 304 314 315
3 304 315 305
3 305 315 316
3 305 316 306
3 306 316 317
3 306 317 307
3 307 317 308
3 307 308 298
3 308 318 319
3 308 319 309
3 309 319 320
3 309 320 310
3 310 320 321
3 310 321 311
3 311 321 322
3 311 322 312
3 312 322 323
3 312 323 313
3 313 323 324
3 313 324 314
3 314 324 325
3 314 325 315
3 315 325 326
3 315 326 316
3 316 326 327
3 316 327 317
3 317 327 318
3 317 318 308
3 328 319 318
3 328 320 319
3 328 321 320
3 328 322 321
3 328 323 322
3 328 324 323
3 328 325 324
3 328 326 325
3 328 327 326
3 328 318 327
3 329 330 331
3 329 331 332
3 329 332 333
3 329 333 334
3 329 334 335
3 329 335 330
3 330 336 337
3 330 337 331
3 331 337 338
3 331 338 332
3 332 338 339
3 332 339 333
3 333 339 340
3 333 340 334
3 334 340 341
3 334 341 335
3 335 341 336
3 335 336 330
3 342 337 336
3 342 338 337
3 342 339 338
3 342 340 339
3 342 341 340
3 342 336 341
3 343 344 345
3 343 345 346
3 343 346 347
3 343 347 348
3 343 348 349
3 343 349 344
3 344 350 351
3 344 351 345
3 345 351 352
3 345 352 346
3 346 352 353
3 346 353 347
3 347 353 354
3 347 354 348
3 348 354 355
3 348 355 349
3 349 355 350
3 349 350 344
3 356 351 350
3 356 352 351
3 356 353 352
3 356 354 353
3 356 355 354
3 356 350 355
3 358 357 359
3 357 358 360
3 358 359 362
3 359 360 362
3 359 357 360
3 360 358 361
3 358 362 361
3 360 363 365
3 360 361 363
3 361 364 363
3 361 362 364
3 362 365 364
3 362 360 365
3 365 363 364
3 367 366 368
3 366 367 369
3 367 368 371
3 368 369 371
3 368 366 369
3 369 367 370
3 367 371 370
3 369 372 374
3 369 370 372
3 370 373 372
3 370 371 373
3 371 374 373
3 371 369 374
3 374 372 373
3 377 375 376
3 378 375 377
3 379 375 378
3 380 375 379
3 376 375 380
3 377 376 381
3 382 377 381
3 378 377 382
3 379 378 382
3 383 379 382
3 380 379 383
3 381 380 383
3 376 380 381
3 382 381 385
3 383 382 385
3 385 381 384
3 383 385 386
3 384 383 386
3 381 383 384
3 385 384 386
3 389 387 388
3 390 387 389
3 391 387 390
3 392 387 391
3 388 387 392
3 389 388 393
3 394 389 393
3 390 389 394
3 391 390 394
3 395 391 394
3 392 391 395
3 393 392 395
3 388 392 393
3 394 393 397
3 395 394 397
3 397 393 396
3 395 397 398
3 396 395 398
3 393 395 396
3 397 396 398
3 399 401 400
3 399 402 401
3 399 403 402
3 399 404 403
3 399 400 404
3 400 401 405
3 401 406 405
3 401 402 406
3 402 403 406
3 403 407 406
3 403 404 407
3 404 405 407
3 404 400 405
3 405 406 409
3 406 407 409
3 405 409 408
3 409 407 410
3 407 408 410
3 407 405 408
3 408 409 410
3 411 413 412
3 411 414 413
3 411 415 414
3 411 416 415
3 411 412 416
3 412 413 417
3 413 418 417
3 413 414 418
3 414 415 418
3 415 419 418
3 415 416 419
3 416 417 419
3 416 412 417
3 417 418 421
3 418 419 421
3 417 421 420
3 421 419 422
3 419 420 422
3 419 417 420
3 420 421 422
