ply
format ascii 1.0
element vertex 443
property float x
property float y
property float z
element face 830
property list uchar int vertex_indices
end_header
0.15307900309562683 0.8949450254440308 0.14340899884700775
0.14459200203418732 0.8910530209541321 0.13202300667762756
0.13425800204277039 0.8726800084114075 0.13096100091934204
0.12541000545024872 0.8756260275840759 0.11454799771308899
0.12268999963998795 0.8788999915122986 0.10007800161838531
0.12146499752998352 0.8838229775428772 0.08132140338420868
0.16193200647830963 0.8906270265579224 0.1335649937391281
0.17160500586032867 0.8723440170288086 0.13067199289798737
0.17936299741268158 0.8753700256347656 0.11278200149536133
0.18287299573421478 0.8785780072212219 0.09971850365400314
0.1844639927148819 0.8809170126914978 0.08127900213003159
0.15312300622463226 0.9040030241012573 0.1379449963569641
0.15316300094127655 0.9177790284156799 0.1307779997587204
0.15319499373435974 0.933696985244751 0.13065700232982635
0.15244300663471222 0.9381639957427979 0.12460000067949295
0.12773999571800232 0.8702309727668762 0.06781890243291855
0.17868900299072266 0.8735939860343933 0.06773559749126434
0.1876630038022995 0.8942980170249939 0.06492459774017334
0.11875099688768387 0.8941540122032166 0.06508920341730118
0.15302899479866028 0.8725090026855469 0.1325570046901703
0.14276500046253204 0.8594949841499329 0.12857800722122192
0.16352899372577667 0.8593770265579224 0.1288120001554489
0.13807399570941925 0.8585649728775024 0.11118599772453308
0.1530669927597046 0.8527860045433044 0.10843399912118912
0.1694280058145523 0.85828697681427 0.11139799654483795
0.13607899844646454 0.8585169911384583 0.08794759958982468
0.17139600217342377 0.8574979901313782 0.08774670213460922
0.15877099335193634 0.9019269943237305 0.13374799489974976
0.18123699724674225 0.9043779969215393 0.12929899990558624
0.16869600117206573 0.9195690155029297 0.12728700041770935
0.18802900612354279 0.9015709757804871 0.11508999764919281
0.186148002743721 0.9310060143470764 0.12005200237035751
0.17296500504016876 0.9341790080070496 0.12709400057792664
0.1898680031299591 0.9068520069122314 0.0887741968035698
0.19104500114917755 0.921763002872467 0.0977523997426033
0.14780500531196594 0.9022409915924072 0.13356199860572815
0.1376049965620041 0.9196550250053406 0.12783299386501312
0.12560699880123138 0.9042779803276062 0.12955600023269653
0.1344899982213974 0.9347389936447144 0.1274459958076477
0.12101700156927109 0.9315999746322632 0.12026599794626236
0.11732599884271622 0.9004319906234741 0.11516900360584259
0.13323399424552917 0.9404879808425903 0.12061899900436401
0.11622299998998642 0.9223799705505371 0.09823770076036453
0.11701299995183945 0.9071589708328247 0.08951269835233688
0.13245199620723724 0.8759120106697083 0.054579198360443115
0.14427399635314941 0.8773819804191589 0.05100389942526817
0.1623779982328415 0.8775150179862976 0.049395401030778885
0.17442800104618073 0.8770710229873657 0.053996700793504715
0.15279600024223328 0.847802996635437 0.10164500027894974
0.12619200348854065 0.8431699872016907 0.06611070036888123
0.17945699393749237 0.8425729870796204 0.06546130031347275
0.12904199957847595 0.8340070247650146 0.08550269901752472
0.17634600400924683 0.8324620127677917 0.08584629744291306
0.1285340040922165 0.847898006439209 0.054009098559617996
0.15256300568580627 0.8208850026130676 0.09585639834403992
0.1527470052242279 0.8504989743232727 0.050007499754428864
0.17782700061798096 0.8473759889602661 0.05356470122933388
0.13339699804782867 0.07322949916124344 0.0900425985455513
0.12805700302124023 0.08058690279722214 0.06001580134034157
0.11083400249481201 0.08057799935340881 0.0600477010011673
0.1055309996008873 0.07321520149707794 0.09009429812431335
0.11947599798440933 0.068675696849823 0.10657600313425064
0.1376200020313263 0.11481200158596039 0.08608180284500122
0.1306609958410263 0.10632599890232086 0.062710702419281
0.10821899771690369 0.10633599758148193 0.06273859739303589
0.10130800306797028 0.11482899636030197 0.08612699806690216
0.11947900056838989 0.12006700038909912 0.10055399686098099
0.1496499925851822 0.2579919993877411 0.08841530233621597
0.13808000087738037 0.25799301266670227 0.052787598222494125
0.10076799988746643 0.25799301266670227 0.05283010005950928
0.08927880227565765 0.2579919993877411 0.08848430216312408
0.11948899924755096 0.25799301266670227 0.11047700047492981
0.14411500096321106 0.3199029862880707 0.09439510107040405
0.13466699421405792 0.3199029862880707 0.058797601610422134
0.10419599711894989 0.3199029862880707 0.05883989855647087
0.09481289982795715 0.3199029862880707 0.09446399658918381
0.11948499828577042 0.3199029862880707 0.11643800139427185
0.14603599905967712 0.3364030122756958 0.09453380107879639
0.13585099577903748 0.3364030122756958 0.05820799991488457
0.10300599783658981 0.3364030122756958 0.05825129896402359
0.09289199858903885 0.3364030122756958 0.0946040004491806
0.1194859966635704 0.3364030122756958 0.11702799797058105
0.15022799372673035 0.3863469958305359 0.09422290325164795
0.13843600451946259 0.3863469958305359 0.05324219912290573
0.10040999948978424 0.3863469958305359 0.053290899842977524
0.08870039880275726 0.3863469958305359 0.09430210292339325
0.11948899924755096 0.3863469958305359 0.11959899961948395
0.10721199959516525 0.07430969923734665 0.05634770169854164
0.13241000473499298 0.07432779669761658 0.056494999676942825
0.1340239942073822 0.04949419945478439 0.12078599631786346
0.1185230016708374 0.04776889830827713 0.1283310055732727
0.10591000318527222 0.04927559942007065 0.12110000103712082
0.09929069876670837 0.05532919988036156 0.0989115983247757
0.14020299911499023 0.05544620007276535 0.09912329912185669
0.20723499357700348 0.07300560176372528 0.09020949900150299
0.20189499855041504 0.08036290109157562 0.06018270179629326
0.18467199802398682 0.08035410195589066 0.06021469831466675
0.1793690025806427 0.07299119979143143 0.09026110172271729
0.19331300258636475 0.06845200061798096 0.10674300044775009
0.2114579975605011 0.11458799988031387 0.08624880015850067
0.2044990062713623 0.10610199719667435 0.06287769973278046
0.1820569932460785 0.10611200332641602 0.06290549784898758
0.17514599859714508 0.11460500210523605 0.08629400283098221
0.1933169960975647 0.1198429986834526 0.10072100162506104
0.2234880030155182 0.25776800513267517 0.08858229964971542
0.2119169980287552 0.25777000188827515 0.052954599261283875
0.17460599541664124 0.25777000188827515 0.05299700051546097
0.16311700642108917 0.25776800513267517 0.08865109831094742
0.19332699477672577 0.25777000188827515 0.11064399778842926
0.21795299649238586 0.31968000531196594 0.0945620983839035
0.20850400626659393 0.31968000531196594 0.05896449834108353
0.1780339926481247 0.31968000531196594 0.05900689959526062
0.16865099966526031 0.31968000531196594 0.0946308970451355
0.19332200288772583 0.31968000531196594 0.1166049987077713
0.21987399458885193 0.3361800014972687 0.09470070153474808
0.20968900620937347 0.3361800014972687 0.058375000953674316
0.17684400081634521 0.3361800014972687 0.05841830000281334
0.16673000156879425 0.3361800014972687 0.0947709009051323
0.1933239996433258 0.3361800014972687 0.1171950027346611
0.22406600415706635 0.38612401485443115 0.09438980370759964
0.2122740000486374 0.38612401485443115 0.05340909957885742
0.17424799501895905 0.38612401485443115 0.05345790088176727
0.16253800690174103 0.38612401485443115 0.09446900337934494
0.19332699477672577 0.38612401485443115 0.1197659969329834
0.18122899532318115 0.07408569753170013 0.05651469901204109
0.20642699301242828 0.0741036981344223 0.056661900132894516
0.2082269936800003 0.04927010089159012 0.12096700072288513
0.1925390064716339 0.04754500091075897 0.12849800288677216
0.17973999679088593 0.04905160143971443 0.12125299870967865
0.17330700159072876 0.0551052987575531 0.09907860308885574
0.21421900391578674 0.055222198367118835 0.09929029643535614
0.2447739988565445 0.6867309808731079 0.06634970009326935
0.2391040027141571 0.6902089715003967 0.09191209822893143
0.254381000995636 0.6986039876937866 0.10736700147390366
0.26678600907325745 0.699163019657135 0.10141699761152267
0.2744100093841553 0.6971449851989746 0.08225300163030624
0.2272389978170395 0.5661550164222717 0.26622799038887024
0.22978000342845917 0.5647779703140259 0.26973700523376465
0.22805899381637573 0.5684800148010254 0.2711179852485657
0.22568200528621674 0.5691379904747009 0.26720601320266724
0.235726997256279 0.5715050101280212 0.25709301233291626
0.24146300554275513 0.5715919733047485 0.25920701026916504
0.23945799469947815 0.5779039859771729 0.26138898730278015
0.23409199714660645 0.5765489935874939 0.2588939964771271
0.24347199499607086 0.5775539875030518 0.23965899646282196
0.2483450025320053 0.5780590176582336 0.2416670024394989
0.22041399776935577 0.5721819996833801 0.27005600929260254
0.2227250039577484 0.5708360075950623 0.27391499280929565
0.22088900208473206 0.5747479796409607 0.27525201439857483
0.21864299476146698 0.5758669972419739 0.2711789906024933
0.2326119989156723 0.5786679983139038 0.26089200377464294
0.23807600140571594 0.5804650187492371 0.2642129957675934
0.23499299585819244 0.5862730145454407 0.2653070092201233
0.2296299934387207 0.5842900276184082 0.26194700598716736
0.2390269935131073 0.5835949778556824 0.24309200048446655
0.2438810020685196 0.5859439969062805 0.2462339997291565
0.2354470044374466 0.5649330019950867 0.2539390027523041
0.23754900693893433 0.563165009021759 0.25638100504875183
0.2367739975452423 0.5660560131072998 0.2581529915332794
0.2346539944410324 0.567317008972168 0.2552900016307831
0.24124599993228912 0.5687140226364136 0.2455890029668808
0.24591200053691864 0.5675920248031616 0.24696899950504303
0.2457450032234192 0.5726420283317566 0.24931299686431885
0.24106000363826752 0.5727859735488892 0.24756400287151337
0.2461010068655014 0.5734000205993652 0.2351980060338974
0.25099098682403564 0.5737259984016418 0.23654599487781525
0.21773000061511993 0.583283007144928 0.27141401171684265
0.21902699768543243 0.5827190279960632 0.2757039964199066
0.21668000519275665 0.5865470170974731 0.2758829891681671
0.21548999845981598 0.5868510007858276 0.271467000246048
0.22852100431919098 0.5869110226631165 0.2633090019226074
0.23312099277973175 0.5885879993438721 0.26680299639701843
0.22977100312709808 0.5952829718589783 0.2670849859714508
0.22524699568748474 0.593421995639801 0.2635990083217621
0.23443399369716644 0.5904020071029663 0.24446499347686768
0.23879200220108032 0.5938029885292053 0.2473839968442917
0.22161200642585754 0.6019729971885681 0.2592580020427704
0.22041000425815582 0.600409984588623 0.2570039927959442
0.2229290008544922 0.5984519720077515 0.25644001364707947
0.2256609946489334 0.5989530086517334 0.2582570016384125
0.228084996342659 0.6098870038986206 0.24567200243473053
0.223798006772995 0.6063969731330872 0.24379299581050873
0.22842299938201904 0.6002320051193237 0.24391700327396393
0.2328750044107437 0.6035230159759521 0.24500100314617157
0.23051199316978455 0.6107659935951233 0.2334430068731308
0.22573499381542206 0.6063989996910095 0.2341029942035675
0.2314389944076538 0.6008890271186829 0.24077700078487396
0.23524700105190277 0.6037049889564514 0.24281300604343414
0.24190300703048706 0.5928599834442139 0.21262699365615845
0.2472829967737198 0.584896981716156 0.21012000739574432
0.2343199998140335 0.6036790013313293 0.21466900408267975
0.23733699321746826 0.6086249947547913 0.2151709944009781
0.2515450119972229 0.5990960001945496 0.21715599298477173
0.2529120147228241 0.5863170027732849 0.21124500036239624
0.26051199436187744 0.6264619827270508 0.08998309820890427
0.24632400274276733 0.6454470157623291 0.11739899963140488
0.26038500666618347 0.6511269807815552 0.12208200246095657
0.2706789970397949 0.6492840051651001 0.1190899983048439
0.28012600541114807 0.6408370137214661 0.10128600150346756
0.25388699769973755 0.6411719918251038 0.08287680149078369
0.24658800661563873 0.6520730257034302 0.11154100298881531
0.26088300347328186 0.6586350202560425 0.11750800162553787
0.2720319926738739 0.6572679877281189 0.11323700100183487
0.28129899501800537 0.6510589718818665 0.09632480144500732
0.042433001101017 0.687237024307251 0.05263129994273186
0.06438379734754562 0.6825090050697327 0.060756199061870575
0.06581220030784607 0.6857680082321167 0.08356290310621262
0.042135901749134064 0.6903290152549744 0.09184789657592773
0.03282430022954941 0.6911420226097107 0.07824239879846573
0.047947801649570465 0.46101900935173035 0.11284899711608887
0.05048149824142456 0.46476900577545166 0.11163199692964554
0.05149880051612854 0.4648979902267456 0.1152459979057312
0.049012698233127594 0.4611339867115021 0.11685000360012054
0.03810270130634308 0.47465699911117554 0.11103200167417526
0.04369189962744713 0.4773919880390167 0.11010800302028656
0.044857099652290344 0.4784649908542633 0.11546999961137772
0.03968700021505356 0.4761199951171875 0.11774399876594543
0.052411600947380066 0.45997199416160583 0.12114600092172623
0.055311400443315506 0.46529799699783325 0.11863899976015091
0.05669790133833885 0.46477898955345154 0.12359300255775452
0.0543891005218029 0.4603379964828491 0.12556399405002594
0.03988350182771683 0.47446000576019287 0.12053199857473373
0.04535920172929764 0.47743698954582214 0.11735799908638
0.04845409840345383 0.4789629876613617 0.1231670007109642
0.043078601360321045 0.4760110080242157 0.12651200592517853
0.03650509938597679 0.49392199516296387 0.11514800041913986
0.04203309863805771 0.49458301067352295 0.11184299737215042
0.042612601071596146 0.4731079936027527 0.10343799740076065
0.04467029869556427 0.4761529862880707 0.10308100283145905
0.04467479884624481 0.4760740101337433 0.1061289981007576
0.04254620149731636 0.4729880094528198 0.10673300176858902
0.036139000207185745 0.4840579926967621 0.10061399638652802
0.04045780003070831 0.4865350127220154 0.1009960025548935
0.04031269997358322 0.4871949851512909 0.10546299815177917
0.03587359935045242 0.4849419891834259 0.10604599863290787
0.03310669958591461 0.4974919855594635 0.0987967997789383
0.038114599883556366 0.4976069927215576 0.09869050234556198
0.03935470059514046 0.495400995016098 0.10515899956226349
0.03430259972810745 0.49486300349235535 0.10626199841499329
0.05557730048894882 0.4657529890537262 0.12949399650096893
0.056750599294900894 0.4697670042514801 0.1267469972372055
0.059358399361371994 0.47125500440597534 0.13092100620269775
0.05808969959616661 0.46709999442100525 0.13360999524593353
0.04432680085301399 0.478549987077713 0.12893299758434296
0.04866759851574898 0.48177099227905273 0.1255519986152649
0.051848698407411575 0.48442399501800537 0.1311189979314804
0.04757989943027496 0.48130500316619873 0.13465900719165802
0.04157799854874611 0.49706798791885376 0.12343599647283554
0.04696450009942055 0.4973269999027252 0.12009699642658234
0.06026089936494827 0.49431198835372925 0.13777600228786469
0.05850460007786751 0.49378201365470886 0.14034399390220642
0.05412689968943596 0.4932689964771271 0.1365399956703186
0.057064201682806015 0.49371200799942017 0.13526299595832825
0.059736501425504684 0.5054649710655212 0.13322299718856812
0.05542429909110069 0.507623016834259 0.13697800040245056
0.04970400035381317 0.503669023513794 0.1313749998807907
0.054822299629449844 0.5039520263671875 0.12840400636196136
0.058122798800468445 0.513267993927002 0.1264670044183731
0.05344749987125397 0.5177299976348877 0.1291940063238144
0.04759090021252632 0.5051069855690002 0.1268099993467331
0.05250890180468559 0.506784975528717 0.12585100531578064
0.04550290107727051 0.5271729826927185 0.10309000313282013
0.03897320106625557 0.6406009793281555 0.05831599980592728
0.05663309991359711 0.6373180150985718 0.06539689749479294
0.0597647987306118 0.6345900297164917 0.08966950327157974
0.04464370012283325 0.633895993232727 0.095347099006176
0.026801100000739098 0.641273021697998 0.0827827975153923
0.038089901208877563 0.6331700086593628 0.05911169946193695
0.05552079901099205 0.6261379718780518 0.0694563016295433
0.060224499553442 0.6270290017127991 0.09129440039396286
0.04439530149102211 0.6288859844207764 0.09580239653587341
0.02783459983766079 0.6325110197067261 0.08399520069360733
0.0359066016972065 0.5239869952201843 0.09498350322246552
0.03927300125360489 0.5267120003700256 0.09766200184822083
0.051558300852775574 0.5331100225448608 0.10937300324440002
0.04848770052194595 0.5345540046691895 0.11452700197696686
0.03631160035729408 0.5287529826164246 0.10576999932527542
0.08172699809074402 0.7122510075569153 0.12627699971199036
0.10397200286388397 0.7103899717330933 0.13361400365829468
0.07480169832706451 0.7182790040969849 0.09644089639186859
0.07272350043058395 0.7417060136795044 0.131305992603302
0.10028800368309021 0.747635006904602 0.14623700082302094
0.07320400327444077 0.7735990285873413 0.11770399659872055
0.1041719987988472 0.7820870280265808 0.12367399781942368
0.07990779727697372 0.8056660294532776 0.09871839731931686
0.10885600000619888 0.8047189712524414 0.10884899646043777
0.07827410101890564 0.718546986579895 0.054779600352048874
0.09260839968919754 0.7113040089607239 0.03501420095562935
0.08355569839477539 0.7314280271530151 0.030720099806785583
0.08658640086650848 0.7985619902610779 0.03243980184197426
0.06906019896268845 0.8207910060882568 0.056224700063467026
0.08614010363817215 0.8249980211257935 0.041328299790620804
0.15195100009441376 0.7100859880447388 0.03197329863905907
0.21775099635124207 0.7113019824028015 0.03511200100183487
0.1519940048456192 0.7317960262298584 0.02959289960563183
0.22528600692749023 0.7314019799232483 0.030077900737524033
0.15174700319766998 0.7998390197753906 0.031516000628471375
0.21950699388980865 0.7955219745635986 0.03355430066585541
0.15224899351596832 0.826587975025177 0.03862110152840614
0.224931001663208 0.822996973991394 0.04002559930086136
0.22613100707530975 0.6233540177345276 0.08837579935789108
0.22841699421405792 0.7150620222091675 0.053818799555301666
0.22801600396633148 0.7148650288581848 0.0976037010550499
0.23758099973201752 0.8201249837875366 0.056463900953531265
0.21702800691127777 0.6229230165481567 0.1216999962925911
0.2209320068359375 0.7122899889945984 0.12604199349880219
0.19879299402236938 0.7097359895706177 0.13373300433158875
0.22894799709320068 0.7417730093002319 0.13192500174045563
0.20619100332260132 0.7487120032310486 0.14532199501991272
0.22977900505065918 0.7783070206642151 0.12016300112009048
0.20000700652599335 0.7830190062522888 0.12253999710083008
0.22436000406742096 0.8050640225410461 0.09639090299606323
0.19841299951076508 0.8047890067100525 0.10751499980688095
0.15291300415992737 0.7062060236930847 0.13907399773597717
0.15278099477291107 0.7423080205917358 0.14610299468040466
0.15242800116539001 0.7824990153312683 0.12034700065851212
0.26951101422309875 0.6729940176010132 0.06737890094518661
0.2374430000782013 0.6683589816093445 0.07435359805822372
0.24258600175380707 0.6805710196495056 0.11836100369691849
0.2661069929599762 0.6865749955177307 0.1179559975862503
0.2816750109195709 0.6826919913291931 0.0956168994307518
0.24903500080108643 0.7989709973335266 0.038810599595308304
0.22679300606250763 0.7292029857635498 0.04303960129618645
0.23346200585365295 0.7385150194168091 0.0998924970626831
0.250093013048172 0.792822003364563 0.09326940029859543
0.2524679899215698 0.8151569962501526 0.06266629695892334
0.055619098246097565 0.8045989871025085 0.038318898528814316
0.0725196972489357 0.727554976940155 0.043120499700307846
0.07050129771232605 0.7405009865760803 0.0999056026339531
0.05551930144429207 0.7911139726638794 0.09707330167293549
0.05157170072197914 0.8185840249061584 0.06238820031285286
0.03789370134472847 0.6726970076560974 0.048356298357248306
0.06877549737691879 0.6704859733581543 0.051316700875759125
0.06608209758996964 0.670225977897644 0.08943749964237213
0.04279680177569389 0.6761230230331421 0.09410169720649719
0.02500000037252903 0.6771020293235779 0.07603920251131058
0.08239679783582687 0.6221060156822205 0.09332539886236191
0.0931100994348526 0.6221060156822205 0.11660099774599075
0.2176939994096756 0.6230279803276062 0.07262609899044037
0.19310900568962097 0.6212149858474731 0.052495699375867844
0.15347400307655334 0.6221060156822205 0.0472026988863945
0.12055499851703644 0.6236799955368042 0.13197599351406097
0.09553830325603485 0.6241049766540527 0.06578479707241058
0.11533500254154205 0.6211400032043457 0.052059900015592575
0.1900549978017807 0.623956024646759 0.13539400696754456
0.15490800142288208 0.6239449977874756 0.1314380019903183
0.10221800208091736 0.06452730298042297 0.05465039983391762
0.11961700022220612 0.06462930142879486 0.049142200499773026
0.1346849948167801 0.06505800038576126 0.05437840148806572
0.1343269944190979 0.03535889834165573 0.13012699782848358
0.12479499727487564 0.03502500057220459 0.1563439965248108
0.11123500019311905 0.034872498363256454 0.1569720059633255
0.10485599935054779 0.03591249883174896 0.13019999861717224
0.09901689738035202 0.052400100976228714 0.07100989669561386
0.10514000058174133 0.052309200167655945 0.05423799902200699
0.11961700022220612 0.052630700170993805 0.049142200499773026
0.13383400440216064 0.05209159851074219 0.05397069826722145
0.14175300300121307 0.05254049971699715 0.07124529778957367
0.1369740068912506 0.02555369958281517 0.12942400574684143
0.11727800220251083 0.025436600670218468 0.16104699671268463
0.10159900039434433 0.02570359967648983 0.12905800342559814
0.11601299792528152 0.025223899632692337 0.05437469854950905
0.12309899926185608 0.025334300473332405 0.054666098207235336
0.11601299792528152 0.025223899632692337 0.061117999255657196
0.12309899926185608 0.025334300473332405 0.061409298330545425
0.17623500525951385 0.06430330127477646 0.05481730028986931
0.19363300502300262 0.0644053965806961 0.049309201538562775
0.2087009996175766 0.0648341029882431 0.05454539880156517
0.20723600685596466 0.03528309985995293 0.13021400570869446
0.19881199300289154 0.034800998866558075 0.15651099383831024
0.18525099754333496 0.034648701548576355 0.15713900327682495
0.17899499833583832 0.035606998950242996 0.13040900230407715
0.1730329990386963 0.0521760992705822 0.07117690145969391
0.17915700376033783 0.05208519846200943 0.05440500006079674
0.19363300502300262 0.05240679904818535 0.049309201538562775
0.20784999430179596 0.05186770111322403 0.05413759872317314
0.21577000617980957 0.05231650173664093 0.07141219824552536
0.21170400083065033 0.0261400006711483 0.12957799434661865
0.19129399955272675 0.025212600827217102 0.16121399402618408
0.17490200698375702 0.025479599833488464 0.12923699617385864
0.19002899527549744 0.02500000037252903 0.0545416995882988
0.1971150040626526 0.02511039935052395 0.054833099246025085
0.19002899527549744 0.02500000037252903 0.06128489971160889
0.1971150040626526 0.02511039935052395 0.061576299369335175
0.23532900214195251 0.5306490063667297 0.1287889927625656
0.2040410041809082 0.5330320000648499 0.13812999427318573
0.2467930018901825 0.530003011226654 0.09112460166215897
0.23883700370788574 0.5341600179672241 0.04821170121431351
0.22371099889278412 0.5364559888839722 0.02867100015282631
0.15254899859428406 0.5433980226516724 0.02500000037252903
0.08319520205259323 0.5358970165252686 0.02963539958000183
0.1001409962773323 0.5340229868888855 0.13978999853134155
0.15386199951171875 0.5352100133895874 0.14364199340343475
0.07695650309324265 0.3514710068702698 0.12278400361537933
0.10960700362920761 0.3518980145454407 0.1324950009584427
0.06788770109415054 0.35145100951194763 0.08300899714231491
0.07409609854221344 0.5319949984550476 0.13038699328899384
0.06349530071020126 0.5304759740829468 0.08969839662313461
0.08176209777593613 0.3502480089664459 0.05747009813785553
0.10627300292253494 0.3509100079536438 0.04504600167274475
0.07103189826011658 0.5342580080032349 0.04787459969520569
0.15203499794006348 0.35085999965667725 0.037863001227378845
0.20062899589538574 0.3515999913215637 0.0443171001970768
0.22680099308490753 0.35379698872566223 0.05362650007009506
0.24003399908542633 0.3525109887123108 0.08302369713783264
0.22565199434757233 0.35278698801994324 0.12150900065898895
0.19906699657440186 0.3507780134677887 0.13777999579906464
0.15387199819087982 0.3509399890899658 0.13774700462818146
0.15515199303627014 0.9504939913749695 0.1288910061120987
0.15312999486923218 0.9567660093307495 0.12885600328445435
0.1522819995880127 0.9703620076179504 0.10295700281858444
0.20178300142288208 0.8981119990348816 0.05981979891657829
0.2009589970111847 0.9143570065498352 0.05574309825897217
0.19612400233745575 0.9467470049858093 0.060658399015665054
0.18551300466060638 0.9677140116691589 0.06733980029821396
0.16844099760055542 0.9746670126914978 0.07608020305633545
0.13750199973583221 0.9750000238418579 0.07626409828662872
0.12045300006866455 0.9692310094833374 0.0686120018362999
0.11021599918603897 0.9467489719390869 0.06048030033707619
0.10774800181388855 0.9149690270423889 0.0575718991458416
0.10554700344800949 0.9008659720420837 0.059940800070762634
0.19710099697113037 0.9430760145187378 0.11657799780368805
0.17907199263572693 0.9460449814796448 0.12543100118637085
0.20483900606632233 0.9143440127372742 0.08363509923219681
0.20443299412727356 0.9267190098762512 0.09549570083618164
0.19592300057411194 0.9586989879608154 0.09877000004053116
0.17999300360679626 0.9687700271606445 0.10163900256156921
0.13085199892520905 0.9515590071678162 0.12397699803113937
0.11206500232219696 0.9452069997787476 0.11198800057172775
0.1266700029373169 0.9675779938697815 0.10069099813699722
0.1111299991607666 0.9584029912948608 0.09889669716358185
0.10261300206184387 0.9320489764213562 0.09499180316925049
0.10116499662399292 0.9194599986076355 0.0790724977850914
0.11944500356912613 0.8744040131568909 0.04835199937224388
0.12013699859380722 0.9132890105247498 0.040645498782396317
0.14281800389289856 0.861624002456665 0.04445059970021248
0.1377899944782257 0.9466300010681152 0.03750240057706833
0.15267300605773926 0.9095960259437561 0.03482149913907051
0.161422997713089 0.8615779876708984 0.0434981994330883
0.1507750004529953 0.9656019806861877 0.05420460179448128
0.16438399255275726 0.9484189748764038 0.04133950173854828
0.18504199385643005 0.9148300290107727 0.04384639859199524
0.18690399825572968 0.8712319731712341 0.04959399998188019
3 0 1 6
3 1 2 19
3 1 19 6
3 6 19 7
3 2 3 20
3 2 20 19
3 19 20 21
3 19 21 7
3 7 21 8
3 3 4 22
3 3 22 20
3 20 22 23
3 20 23 21
3 21 23 24
3 21 24 8
3 8 24 9
3 4 5 25
3 4 25 22
3 24 26 9
3 9 26 10
3 5 15 25
3 26 16 10
3 0 6 11
3 6 7 27
3 6 27 11
3 11 27 12
3 7 8 28
3 7 28 27
3 27 28 29
3 27 29 12
3 12 29 13
3 8 9 30
3 8 30 28
3 28 30 31
3 28 31 29
3 29 31 32
3 29 32 13
3 13 32 14
3 9 10 33
3 9 33 30
3 30 33 34
3 30 34 31
3 10 17 33
3 0 11 1
3 11 12 35
3 11 35 1
3 1 35 2
3 12 13 36
3 12 36 35
3 35 36 37
3 35 37 2
3 2 37 3
3 13 14 38
3 13 38 36
3 36 38 39
3 36 39 37
3 37 39 40
3 37 40 3
3 3 40 4
3 14 41 38
3 38 41 39
3 39 42 40
3 40 42 43
3 40 43 4
3 4 43 5
3 43 18 5
3 18 44 15
3 17 10 16
3 18 15 5
3 26 24 23
3 25 23 22
3 26 23 48
3 25 48 23
3 48 51 54
3 48 54 52
3 26 48 52
3 26 52 50
3 16 26 50
3 16 50 56
3 47 16 56
3 47 56 55
3 46 47 55
3 48 25 51
3 25 49 51
3 25 15 49
3 15 53 49
3 15 44 53
3 44 55 53
3 44 45 55
3 45 46 55
3 17 16 47
3 57 58 63
3 57 63 62
3 58 59 64
3 58 64 63
3 59 60 65
3 59 65 64
3 60 61 66
3 60 66 65
3 61 57 62
3 61 62 66
3 62 63 68
3 62 68 67
3 63 64 69
3 63 69 68
3 64 65 70
3 64 70 69
3 65 66 71
3 65 71 70
3 66 62 67
3 66 67 71
3 67 68 73
3 67 73 72
3 68 69 74
3 68 74 73
3 69 70 75
3 69 75 74
3 70 71 76
3 70 76 75
3 71 67 72
3 71 72 76
3 72 73 78
3 72 78 77
3 73 74 79
3 73 79 78
3 74 75 80
3 74 80 79
3 75 76 81
3 75 81 80
3 76 72 77
3 76 77 81
3 77 78 83
3 77 83 82
3 78 79 84
3 78 84 83
3 79 80 85
3 79 85 84
3 80 81 86
3 80 86 85
3 81 77 82
3 81 82 86
3 60 92 91
3 60 91 61
3 59 87 92
3 59 92 60
3 57 93 88
3 58 57 88
3 57 89 93
3 57 61 89
3 61 90 89
3 61 91 90
3 59 58 88
3 59 88 87
3 94 95 100
3 94 100 99
3 95 96 101
3 95 101 100
3 96 97 102
3 96 102 101
3 97 98 103
3 97 103 102
3 98 94 99
3 98 99 103
3 99 100 105
3 99 105 104
3 100 101 106
3 100 106 105
3 101 102 107
3 101 107 106
3 102 103 108
3 102 108 107
3 103 99 104
3 103 104 108
3 104 105 110
3 104 110 109
3 105 106 111
3 105 111 110
3 106 107 112
3 106 112 111
3 107 108 113
3 107 113 112
3 108 104 109
3 108 109 113
3 109 110 115
3 109 115 114
3 110 111 116
3 110 116 115
3 111 112 117
3 111 117 116
3 112 113 118
3 112 118 117
3 113 109 114
3 113 114 118
3 114 115 120
3 114 120 119
3 115 116 121
3 115 121 120
3 116 117 122
3 116 122 121
3 117 118 123
3 117 123 122
3 118 114 119
3 118 119 123
3 97 129 128
3 97 128 98
3 96 124 129
3 96 129 97
3 98 128 127
3 95 94 130
3 95 130 125
3 94 98 126
3 94 126 130
3 98 127 126
3 96 95 125
3 96 125 124
3 136 140 137
3 140 141 137
3 137 141 138
3 141 142 138
3 138 142 139
3 142 143 139
3 139 143 136
3 143 140 136
3 140 144 141
3 144 145 141
3 141 145 142
3 145 155 142
3 142 155 143
3 155 154 143
3 143 154 140
3 154 144 140
3 139 136 137
3 137 138 139
3 146 150 147
3 150 151 147
3 147 151 148
3 151 152 148
3 148 152 149
3 152 153 149
3 149 153 146
3 153 150 146
3 150 154 151
3 154 155 151
3 151 155 152
3 155 175 152
3 152 175 153
3 175 174 153
3 153 174 150
3 174 154 150
3 149 146 147
3 147 148 149
3 156 160 157
3 160 161 157
3 157 161 158
3 161 162 158
3 158 162 159
3 162 163 159
3 159 163 156
3 163 160 156
3 160 164 161
3 164 165 161
3 161 165 162
3 165 145 162
3 162 145 163
3 145 144 163
3 163 144 160
3 144 164 160
3 159 156 157
3 157 158 159
3 166 170 167
3 170 171 167
3 167 171 168
3 171 172 168
3 168 172 169
3 172 173 169
3 169 173 166
3 173 170 166
3 170 174 171
3 174 175 171
3 171 175 172
3 175 187 172
3 172 187 173
3 187 186 173
3 173 186 170
3 186 174 170
3 169 166 167
3 167 168 169
3 176 180 177
3 180 181 177
3 177 181 178
3 181 182 178
3 178 182 179
3 182 183 179
3 179 183 176
3 183 180 176
3 180 184 181
3 184 185 181
3 181 185 182
3 185 186 182
3 182 186 183
3 186 187 183
3 183 187 180
3 187 184 180
3 179 176 177
3 177 178 179
3 192 184 187
3 192 187 175
3 192 175 155
3 192 155 145
3 192 145 165
3 174 186 188
3 154 174 188
3 144 154 188
3 164 144 188
3 191 184 192
3 192 165 193
3 188 189 164
3 190 188 185
3 165 164 189
3 193 165 189
3 191 190 185
3 184 191 185
3 186 185 188
3 190 191 196
3 190 196 195
3 191 192 197
3 191 197 196
3 192 193 198
3 192 198 197
3 193 189 194
3 193 194 198
3 194 195 200
3 194 200 199
3 195 196 201
3 195 201 200
3 196 197 202
3 196 202 201
3 197 198 203
3 197 203 202
3 198 194 199
3 198 199 203
3 195 194 188
3 194 189 188
3 195 188 190
3 133 201 202
3 134 133 202
3 135 134 202
3 135 202 203
3 131 135 203
3 131 203 199
3 132 131 199
3 132 199 200
3 133 132 200
3 133 200 201
3 209 213 210
3 213 214 210
3 210 214 211
3 214 215 211
3 211 215 212
3 215 216 212
3 212 216 209
3 216 213 209
3 213 238 214
3 238 237 214
3 214 237 215
3 237 226 215
3 215 226 216
3 226 225 216
3 216 225 213
3 225 238 213
3 212 209 210
3 210 211 212
3 217 221 218
3 221 222 218
3 218 222 219
3 222 223 219
3 219 223 220
3 223 224 220
3 220 224 217
3 224 221 217
3 221 225 222
3 225 226 222
3 222 226 223
3 226 248 223
3 223 248 224
3 248 247 224
3 224 247 221
3 247 225 221
3 220 217 218
3 218 219 220
3 227 231 228
3 231 232 228
3 228 232 229
3 232 233 229
3 229 233 230
3 233 234 230
3 230 234 227
3 234 231 227
3 231 235 232
3 235 236 232
3 232 236 233
3 236 237 233
3 233 237 234
3 237 238 234
3 234 238 231
3 238 235 231
3 230 227 228
3 228 229 230
3 239 243 240
3 243 244 240
3 240 244 241
3 244 245 241
3 241 245 242
3 245 246 242
3 242 246 239
3 246 243 239
3 243 247 244
3 247 248 244
3 244 248 245
3 248 260 245
3 245 260 246
3 260 259 246
3 246 259 243
3 259 247 243
3 242 239 240
3 240 241 242
3 249 253 250
3 253 254 250
3 250 254 251
3 254 255 251
3 251 255 252
3 255 256 252
3 252 256 249
3 256 253 249
3 253 257 254
3 257 258 254
3 254 258 255
3 258 259 255
3 255 259 256
3 259 260 256
3 256 260 253
3 260 257 253
3 252 249 250
3 250 251 252
3 276 235 238
3 276 238 225
3 276 225 247
3 276 247 259
3 276 259 258
3 237 236 261
3 226 237 261
3 248 226 261
3 260 248 261
3 257 260 261
3 276 258 275
3 274 257 261
3 273 261 236
3 235 276 272
3 275 258 257
3 274 275 257
3 272 273 236
3 272 236 235
3 262 263 268
3 262 268 267
3 263 264 269
3 263 269 268
3 264 265 270
3 264 270 269
3 265 266 271
3 265 271 270
3 266 262 267
3 266 267 271
3 267 268 273
3 267 273 272
3 269 270 275
3 269 275 274
3 270 271 276
3 270 276 275
3 271 267 272
3 271 272 276
3 269 261 268
3 261 273 268
3 274 261 269
3 208 266 265
3 207 208 265
3 208 204 262
3 208 262 266
3 204 205 263
3 204 263 262
3 205 206 264
3 205 264 263
3 206 207 265
3 206 265 264
3 282 280 281
3 281 283 282
3 284 282 283
3 283 285 284
3 51 284 285
3 49 330 284
3 284 51 49
3 286 342 336
3 336 279 286
3 327 286 279
3 279 328 327
3 288 287 286
3 286 327 288
3 289 288 327
3 327 326 289
3 291 289 326
3 326 290 291
3 53 291 290
3 290 49 53
3 293 339 340
3 340 292 293
3 295 293 292
3 292 294 295
3 297 295 294
3 294 296 297
3 298 296 289
3 289 291 298
3 55 298 291
3 291 53 55
3 55 299 298
3 301 338 339
3 339 293 301
3 302 300 338
3 338 301 302
3 56 303 299
3 299 55 56
3 303 56 50
3 306 344 304
3 304 305 306
3 307 305 302
3 302 323 307
3 308 306 305
3 305 307 308
3 309 307 323
3 323 324 309
3 311 309 324
3 324 325 311
3 50 311 325
3 52 312 311
3 311 50 52
3 312 54 310
3 54 315 310
3 310 315 308
3 315 314 308
3 54 285 283
3 54 283 315
3 315 283 281
3 315 281 314
3 52 54 312
3 51 285 54
3 330 290 326
3 325 321 303
3 316 317 322
3 316 322 321
3 317 318 323
3 317 323 322
3 318 319 324
3 318 324 323
3 319 320 325
3 319 325 324
3 320 316 321
3 320 321 325
3 323 324 325
3 323 325 321
3 322 323 321
3 330 329 328
3 326 330 328
3 326 328 327
3 326 327 332
3 326 332 331
3 327 328 333
3 327 333 332
3 328 329 334
3 328 334 333
3 329 330 335
3 329 335 334
3 330 326 331
3 330 331 335
3 309 308 307
3 309 310 308
3 312 310 311
3 311 310 309
3 308 313 306
3 308 314 313
3 306 345 344
3 306 313 345
3 278 341 345
3 313 278 345
3 278 337 341
3 278 277 337
3 281 278 313
3 314 281 313
3 281 277 278
3 281 280 277
3 284 329 282
3 284 330 329
3 280 279 277
3 280 328 279
3 282 328 280
3 282 329 328
3 277 279 336
3 287 340 343
3 287 292 340
3 286 343 342
3 286 287 343
3 288 294 292
3 288 292 287
3 289 296 294
3 289 294 288
3 298 297 296
3 298 299 297
3 299 321 297
3 299 303 321
3 295 301 293
3 295 322 301
3 297 322 295
3 297 321 322
3 277 336 337
3 322 302 301
3 323 302 322
3 305 304 300
3 302 305 300
3 49 290 330
3 50 325 303
3 89 90 350
3 89 350 349
3 90 91 352
3 90 352 351
3 92 346 354
3 92 354 353
3 346 347 355
3 346 355 354
3 347 348 356
3 347 356 355
3 348 93 357
3 348 357 356
3 93 349 358
3 93 358 357
3 349 350 359
3 349 359 358
3 350 351 359
3 351 352 360
3 351 360 359
3 352 92 353
3 352 353 360
3 93 89 349
3 88 93 348
3 88 348 347
3 87 347 346
3 87 88 347
3 87 346 92
3 91 92 352
3 90 351 350
3 355 361 354
3 356 362 355
3 355 362 361
3 353 354 363
3 354 361 363
3 357 364 356
3 356 364 362
3 353 363 364
3 357 353 364
3 126 127 369
3 126 369 368
3 127 128 371
3 127 371 370
3 129 365 373
3 129 373 372
3 365 366 374
3 365 374 373
3 366 367 375
3 366 375 374
3 367 130 376
3 367 376 375
3 130 368 377
3 130 377 376
3 368 369 378
3 368 378 377
3 369 370 378
3 370 371 379
3 370 379 378
3 371 129 372
3 371 372 379
3 130 126 368
3 125 130 367
3 125 367 366
3 124 366 365
3 124 125 366
3 124 365 129
3 128 129 371
3 127 370 369
3 374 380 373
3 375 381 374
3 374 381 380
3 372 373 382
3 373 380 382
3 376 383 375
3 375 383 381
3 372 382 383
3 376 372 383
3 387 338 300
3 300 386 387
3 390 343 340
3 340 389 390
3 400 342 343
3 343 390 400
3 397 336 342
3 342 400 397
3 391 341 337
3 337 396 391
3 391 345 341
3 391 392 345
3 385 344 345
3 392 385 345
3 385 304 344
3 385 384 304
3 384 386 300
3 388 340 339
3 388 389 340
3 387 339 338
3 387 388 339
3 384 300 304
3 396 337 336
3 397 396 336
3 400 398 395
3 395 397 400
3 388 402 401
3 401 389 388
3 387 403 402
3 402 388 387
3 386 404 403
3 403 387 386
3 385 406 405
3 405 384 385
3 385 407 406
3 385 392 407
3 391 394 407
3 392 391 407
3 391 393 394
3 391 396 393
3 396 397 395
3 390 401 399
3 390 389 401
3 400 399 398
3 400 390 399
3 396 395 393
3 384 405 404
3 386 384 404
3 408 422 409
3 421 424 425
3 421 425 422
3 422 425 426
3 422 426 409
3 409 426 410
3 423 411 412
3 423 412 424
3 424 412 413
3 424 413 425
3 425 413 414
3 425 414 426
3 426 414 415
3 426 415 410
3 408 409 427
3 409 410 429
3 409 429 427
3 427 429 430
3 427 430 428
3 428 430 431
3 410 416 429
3 429 416 417
3 429 417 430
3 430 417 418
3 430 418 431
3 431 418 419
3 431 419 432
3 432 419 420
3 420 419 433
3 419 418 434
3 419 434 433
3 433 434 435
3 418 417 436
3 418 436 434
3 434 436 437
3 434 437 435
3 435 437 438
3 417 416 439
3 417 439 436
3 436 439 440
3 436 440 437
3 437 440 441
3 437 441 438
3 438 441 442
3 416 415 439
3 439 415 414
3 439 414 440
3 440 414 413
3 440 413 441
3 441 413 412
3 441 412 442
3 442 412 411
3 416 410 415
3 427 41 14
3 427 14 408
3 408 14 32
3 408 32 422
3 422 32 31
3 421 422 31
3 421 31 34
3 421 34 424
3 424 34 33
3 424 33 423
3 423 33 17
3 423 17 411
3 411 17 47
3 411 47 442
3 427 428 41
3 428 39 41
3 428 431 42
3 428 42 39
3 431 432 43
3 431 43 42
3 432 420 18
3 432 18 43
3 420 433 44
3 420 44 18
3 47 438 442
3 44 433 435
