ply
format ascii 1.0
element vertex 450
property float x
property float y
property float z
element face 837
property list uchar int vertex_indices
end_header
0.060335900634527206 0.5208320021629333 0.22875499725341797
0.06248430162668228 0.5248780250549316 0.22637300193309784
0.061168499290943146 0.527101993560791 0.22993600368499756
0.05882909893989563 0.5232369899749756 0.23269400000572205
0.04909979924559593 0.527006983757019 0.21531200408935547
0.05411519855260849 0.531844973564148 0.21494099497795105
0.05163149908185005 0.535742998123169 0.2195740044116974
0.04607649892568588 0.5320540070533752 0.22108599543571472
0.0595908984541893 0.5258370041847229 0.23853200674057007
0.06248129904270172 0.5308859944343567 0.23418599367141724
0.0608397014439106 0.5333189964294434 0.23948200047016144
0.058602698147296906 0.5291100144386292 0.24303899705410004
0.04495289921760559 0.5319250226020813 0.22466200590133667
0.051184799522161484 0.5359259843826294 0.22207699716091156
0.05008310079574585 0.5413990020751953 0.2275650054216385
0.043832000344991684 0.5375459790229797 0.2303290069103241
0.040402501821517944 0.544933021068573 0.2069530040025711
0.047328799962997437 0.5468680262565613 0.2056480050086975
0.05826450139284134 0.5245929956436157 0.21107199788093567
0.05962439998984337 0.5281569957733154 0.20970700681209564
0.057777199894189835 0.5294340252876282 0.21250499784946442
0.056213099509477615 0.5259039998054504 0.2140910029411316
0.0513916015625 0.5296769738197327 0.19958199560642242
0.05450709909200668 0.5342170000076294 0.20006799697875977
0.051472801715135574 0.5366929769515991 0.20364899933338165
0.047601498663425446 0.532712996006012 0.20385600626468658
0.04644500091671944 0.5391370058059692 0.18880900740623474
0.05106709897518158 0.5417370200157166 0.19051800668239594
0.04877509921789169 0.5432800054550171 0.19812999665737152
0.043604400008916855 0.5407260060310364 0.19755400717258453
0.055955998599529266 0.5362039804458618 0.2438039928674698
0.05773279815912247 0.5391169786453247 0.23937499523162842
0.05719820037484169 0.5435889959335327 0.24323000013828278
0.05540329962968826 0.540477991104126 0.2476540058851242
0.042869098484516144 0.5414800047874451 0.23146699368953705
0.04812999814748764 0.5450260043144226 0.2281239926815033
0.04697979986667633 0.5514280200004578 0.23275700211524963
0.04166309908032417 0.5480759739875793 0.2362080067396164
0.03919469937682152 0.553928017616272 0.21445399522781372
0.04611239954829216 0.5554230213165283 0.21330499649047852
0.04818199947476387 0.5673249959945679 0.23601999878883362
0.0451291985809803 0.5670980215072632 0.2379940003156662
0.04357919842004776 0.5627449750900269 0.23323099315166473
0.046943701803684235 0.5640649795532227 0.232914999127388
0.04776829853653908 0.5748509764671326 0.22507700324058533
0.040089499205350876 0.5757099986076355 0.2251960039138794
0.039853401482105255 0.5671910047531128 0.22060200572013855
0.04659250006079674 0.5688999891281128 0.21979199349880219
0.04852540045976639 0.577908992767334 0.2137330025434494
0.04148099943995476 0.5806540250778198 0.21178500354290009
0.040665801614522934 0.5655350089073181 0.21495899558067322
0.04534750059247017 0.5690879821777344 0.2149360030889511
0.042194999754428864 0.5730800032615662 0.17937900125980377
0.04790620133280754 0.5734090209007263 0.17964600026607513
0.04735000059008598 0.5639939904212952 0.17098599672317505
0.0444381982088089 0.5913969874382019 0.1900150030851364
0.05259279906749725 0.5662350058555603 0.17413699626922607
0.05044740065932274 0.5883039832115173 0.1895579993724823
0.043425898998975754 0.5777959823608398 0.15890799462795258
0.05468669906258583 0.578898012638092 0.15979599952697754
0.05160029977560043 0.5986499786376953 0.17646899819374084
0.040338099002838135 0.5979200005531311 0.17717300355434418
0.23740899562835693 0.4789760112762451 0.1447020024061203
0.23957599699497223 0.4749020040035248 0.14370299875736237
0.24070300161838531 0.47546300292015076 0.14824700355529785
0.2381410002708435 0.47956499457359314 0.14840799570083618
0.24533000588417053 0.48914700746536255 0.1392499953508377
0.250667005777359 0.48677000403404236 0.13673099875450134
0.25331300497055054 0.4878079891204834 0.14381900429725647
0.24743300676345825 0.4899269938468933 0.14496299624443054
0.25096601247787476 0.5073500275611877 0.13093000650405884
0.2558090090751648 0.5053309798240662 0.1292169988155365
0.23630499839782715 0.4787609875202179 0.1553409993648529
0.2383899986743927 0.47439900040626526 0.15467099845409393
0.23953500390052795 0.4751040041446686 0.15942800045013428
0.23731499910354614 0.4795539975166321 0.1597840040922165
0.24796999990940094 0.4891760051250458 0.14843399822711945
0.2544029951095581 0.4864889979362488 0.14795300364494324
0.2555820047855377 0.48838698863983154 0.1548209935426712
0.24911299347877502 0.49101799726486206 0.15508000552654266
0.25174298882484436 0.507311999797821 0.13991299271583557
0.2579529881477356 0.5050910115242004 0.14014999568462372
0.24039199948310852 0.4890739917755127 0.13293200731277466
0.24169400334358215 0.4858419895172119 0.13141000270843506
0.24321900308132172 0.4855929911136627 0.13492800295352936
0.24149499833583832 0.48898300528526306 0.13587799668312073
0.2453480064868927 0.49802500009536743 0.12832200527191162
0.24889299273490906 0.4958589971065521 0.1252020001411438
0.25235098600387573 0.4960179924964905 0.1302579939365387
0.24811600148677826 0.4980809986591339 0.1324699968099594
0.24954700469970703 0.5093479752540588 0.12404000014066696
0.2541320025920868 0.5078549981117249 0.12187200039625168
0.24103300273418427 0.48280400037765503 0.1661289930343628
0.24285200238227844 0.47848400473594666 0.1668899953365326
0.24323199689388275 0.4802609980106354 0.17136099934577942
0.24131500720977783 0.4845699965953827 0.1702760010957718
0.25009700655937195 0.49105098843574524 0.15840700268745422
0.2557849884033203 0.4882189929485321 0.15845300257205963
0.257068008184433 0.4912939965724945 0.1657869964838028
0.2513349950313568 0.4940269887447357 0.16555799543857574
0.2523370087146759 0.5095340013504028 0.1486160010099411
0.2587069869041443 0.5080419778823853 0.14986300468444824
0.2523219883441925 0.5022349953651428 0.1723340004682541
0.2498289942741394 0.5036979913711548 0.17083899676799774
0.2510649859905243 0.5028589963912964 0.16720399260520935
0.25393199920654297 0.5012750029563904 0.1668349951505661
0.25898098945617676 0.5178490281105042 0.1680230051279068
0.25287899374961853 0.5183359980583191 0.16715000569820404
0.25307101011276245 0.5150250196456909 0.15961700677871704
0.2592970132827759 0.5149940252304077 0.1596599966287613
0.2584399878978729 0.5293239951133728 0.16148699820041656
0.25179898738861084 0.5270209908485413 0.16153700649738312
0.2551720142364502 0.5179719924926758 0.1567779928445816
0.2605159878730774 0.517071008682251 0.1575080007314682
0.2595809996128082 0.5387250185012817 0.1313679963350296
0.2551079988479614 0.5391319990158081 0.13198700547218323
0.2572369873523712 0.5363680124282837 0.1194240003824234
0.25933200120925903 0.5468199849128723 0.14782500267028809
0.25333699584007263 0.5456110239028931 0.14562800526618958
0.2508839964866638 0.5368930101394653 0.12389899790287018
0.2625429928302765 0.5598919987678528 0.13895100355148315
0.2532770037651062 0.5598170161247253 0.13750900328159332
0.2507460117340088 0.5527250170707703 0.11741799861192703
0.259537011384964 0.5515710115432739 0.1148499995470047
0.15264500677585602 0.8931499719619751 0.16657400131225586
0.14420899748802185 0.8896780014038086 0.15512800216674805
0.1339389979839325 0.8714630007743835 0.15343700349330902
0.12514400482177734 0.8749589920043945 0.13723500072956085
0.12244100123643875 0.8787140250205994 0.12297499924898148
0.12122300267219543 0.8842549920082092 0.10451400279998779
0.16144399344921112 0.8892009854316711 0.1566449999809265
0.1710599958896637 0.8711410164833069 0.15313799679279327
0.1787700057029724 0.874767005443573 0.13547199964523315
0.1822589933872223 0.8784059882164001 0.12260700017213821
0.18384000658988953 0.8813689947128296 0.10437099635601044
0.15268899500370026 0.9023360013961792 0.1614599972963333
0.15272900462150574 0.9162690043449402 0.15481899678707123
0.15275999903678894 0.9320840239524841 0.15525099635124207
0.15201300382614136 0.9367340207099915 0.14938999712467194
0.12746000289916992 0.8712220191955566 0.09062989801168442
0.17810000479221344 0.8745650053024292 0.09066379815340042
0.18702000379562378 0.8952289819717407 0.08858969807624817
0.11852499842643738 0.8950799703598022 0.08874829858541489
0.15259599685668945 0.8712379932403564 0.1550150066614151
0.14239400625228882 0.8584499955177307 0.1506119966506958
0.16303199529647827 0.8583239912986755 0.15084099769592285
0.13773100078105927 0.8581290245056152 0.13330399990081787
0.15263399481773376 0.8524829745292664 0.13036899268627167
0.16889500617980957 0.8578469753265381 0.1335040032863617
0.1357489973306656 0.8588889837265015 0.11021800339221954
0.17085100710391998 0.857882022857666 0.10998299717903137
0.15830299258232117 0.9004179835319519 0.15721899271011353
0.18063299357891083 0.903007984161377 0.15288500487804413
0.16816699504852295 0.9181690216064453 0.1514129936695099
0.1873829960823059 0.9007130265235901 0.13867299258708954
0.18551400303840637 0.9297800064086914 0.14462299644947052
0.1724099963903427 0.932686984539032 0.15172900259494781
0.18921099603176117 0.9068710207939148 0.11271599680185318
0.1903810054063797 0.9213719964027405 0.12215200066566467
0.14740300178527832 0.9007369875907898 0.15704500675201416
0.13726399838924408 0.9182350039482117 0.15195900201797485
0.12533900141716003 0.902899980545044 0.1531369984149933
0.13416899740695953 0.9332320094108582 0.15209700167179108
0.12077700346708298 0.9303629994392395 0.14485600590705872
0.11710900068283081 0.8995800018310547 0.13871300220489502
0.1329209953546524 0.9391800165176392 0.14551599323749542
0.11601199954748154 0.9219679832458496 0.1226549968123436
0.11679799854755402 0.9071509838104248 0.1134599968791008
0.13214300572872162 0.877780020236969 0.07725109905004501
0.1438940018415451 0.8789070248603821 0.0741749033331871
0.1618880033493042 0.8790959715843201 0.07258179783821106
0.17386500537395477 0.8776170015335083 0.0771062970161438
0.15236400067806244 0.8477699756622314 0.12345200031995773
0.12592099606990814 0.8443999886512756 0.08799439668655396
0.1788640022277832 0.8438299894332886 0.08732870221138
0.12875300645828247 0.8346260190010071 0.10693900287151337
0.17577199637889862 0.8330780267715454 0.10722699761390686
0.12824800610542297 0.8495169878005981 0.07613740116357803
0.1521330028772354 0.8212329745292664 0.11676900088787079
0.08085200190544128 0.8098090291023254 0.11915100365877151
0.10869000107049942 0.8047239780426025 0.12911400198936462
0.06737100332975388 0.820252001285553 0.07418490201234818
0.08225979655981064 0.8185470104217529 0.06244419887661934
0.15280400216579437 0.8154169917106628 0.059475600719451904
0.2211730033159256 0.819491982460022 0.06118150055408478
0.15231500566005707 0.8522390127182007 0.0722528025507927
0.23879699409008026 0.818444013595581 0.07304490357637405
0.17724299430847168 0.849012017250061 0.0756777971982956
0.2234950065612793 0.8083850145339966 0.11685200035572052
0.1967409998178482 0.8038759827613831 0.1277579963207245
0.15199799835681915 0.7822510004043579 0.13976499438285828
0.25143200159072876 0.8176550269126892 0.08363480120897293
0.050898898392915726 0.8201349973678589 0.08347740024328232
0.130514994263649 0.0801888033747673 0.06770910322666168
0.12520599365234375 0.09083180129528046 0.03888389840722084
0.10808800160884857 0.09081950038671494 0.03891430050134659
0.10281699895858765 0.08016890287399292 0.06775859743356705
0.11667700111865997 0.07383009791374207 0.08352400362491608
0.13471099734306335 0.12169799953699112 0.06847629696130753
0.12779399752616882 0.11594799906015396 0.04444120079278946
0.10548800230026245 0.11595500260591507 0.04446990042924881
0.09861999750137329 0.12171000242233276 0.06852290034294128
0.11668000370264053 0.12525999546051025 0.08335970342159271
0.14666800200939178 0.26283401250839233 0.08689109981060028
0.13516800105571747 0.2668440043926239 0.05170689895749092
0.09808299690485 0.26684001088142395 0.05174890160560608
0.08666300028562546 0.26282599568367004 0.08695919811725616
0.1166900023818016 0.2603529989719391 0.10867799818515778
0.1411679983139038 0.3233020007610321 0.09976260364055634
0.13177600502967834 0.32730698585510254 0.06460809707641602
0.10148999840021133 0.3273020088672638 0.06464999914169312
0.09216360002756119 0.3232940137386322 0.0998305007815361
0.11668600142002106 0.32082200050354004 0.12153100222349167
0.10448800027370453 0.08504539728164673 0.0345550999045372
0.12953299283981323 0.08504690229892731 0.034702498465776443
0.13113699853420258 0.053288400173187256 0.0953989028930664
0.11573000252246857 0.050735700875520706 0.10265599936246872
0.10319399833679199 0.053036998957395554 0.09568510204553604
0.09661459922790527 0.06151210144162178 0.07445350289344788
0.13727900385856628 0.06160379946231842 0.07467590272426605
0.20011499524116516 0.0782708004117012 0.11418399959802628
0.1948069930076599 0.08558379858732224 0.08433879911899567
0.17768900096416473 0.08557499945163727 0.08437050133943558
0.17241699993610382 0.07825659960508347 0.11423499882221222
0.18627700209617615 0.07374490052461624 0.13061699271202087
0.20431199669837952 0.11960200220346451 0.11024700105190277
0.19739499688148499 0.11116699874401093 0.08701740205287933
0.1750890016555786 0.111176997423172 0.0870451033115387
0.16822099685668945 0.1196179986000061 0.11029200255870819
0.1862809956073761 0.12482500076293945 0.12463100254535675
0.21626900136470795 0.2619140148162842 0.11256600171327591
0.20476900041103363 0.26191699504852295 0.07715439796447754
0.16768400371074677 0.26191699504852295 0.07719659805297852
0.15626400709152222 0.2619140148162842 0.11263500154018402
0.18629099428653717 0.26191699504852295 0.13449400663375854
0.21076799929141998 0.3234510123729706 0.11851000040769577
0.2013770043849945 0.3234510123729706 0.08312790095806122
0.1710910052061081 0.3234510123729706 0.0831701010465622
0.161763995885849 0.3234510123729706 0.1185780018568039
0.18628600239753723 0.3234510123729706 0.14041900634765625
0.1742659956216812 0.07934439927339554 0.08069299906492233
0.1993120014667511 0.0793623998761177 0.08083929866552353
0.20110100507736206 0.05467920005321503 0.14475500583648682
0.18550799787044525 0.052964601665735245 0.15223999321460724
0.17278699576854706 0.054461900144815445 0.14503900706768036
0.1663919985294342 0.06047780066728592 0.12299899756908417
0.20705699920654297 0.06059399992227554 0.12320999801158905
0.09659410268068314 0.6244710087776184 0.13639600574970245
0.12231100350618362 0.6241269707679749 0.14466999471187592
0.08694220334291458 0.6259520053863525 0.1025099977850914
0.08049990236759186 0.7122669816017151 0.143217995762825
0.1010579988360405 0.7101619839668274 0.15044300258159637
0.07313960045576096 0.7206680178642273 0.11383900046348572
0.07277649641036987 0.7413510084152222 0.14923599362373352
0.10017400234937668 0.7403259873390198 0.1701499968767166
0.07518020272254944 0.7783160209655762 0.1369989961385727
0.10403399914503098 0.7823429703712463 0.14514000713825226
0.0989995002746582 0.6267820000648499 0.08074329793453217
0.11744599789381027 0.6243000030517578 0.06738179922103882
0.07402969896793365 0.7203109860420227 0.07239170372486115
0.08910640329122543 0.7144920229911804 0.05253079906105995
0.08354330062866211 0.7346299886703491 0.04896340146660805
0.09137050062417984 0.8012570142745972 0.053000498563051224
0.15083500742912292 0.6238139867782593 0.060871899127960205
0.18826699256896973 0.6263290047645569 0.07025519758462906
0.15152299404144287 0.7133870124816895 0.049467798322439194
0.21789200603961945 0.7144849896430969 0.05262799933552742
0.1515669971704483 0.7350339889526367 0.0478564016520977
0.22441500425338745 0.7346270084381104 0.048324499279260635
0.15324699878692627 0.8025569915771484 0.05212699994444847
0.21674500405788422 0.7981989979743958 0.054002098739147186
0.2076999992132187 0.6262909770011902 0.08046960085630417
0.21744799613952637 0.6270020008087158 0.10260099917650223
0.23273199796676636 0.7205299735069275 0.07144380360841751
0.2323099970817566 0.7188180088996887 0.11492999643087387
0.20703299343585968 0.6242280006408691 0.13528800010681152
0.1870719939470291 0.6242870092391968 0.14798200130462646
0.22123700380325317 0.7094749808311462 0.14288699626922607
0.20079000294208527 0.709509015083313 0.15053799748420715
0.22805500030517578 0.7413960099220276 0.14985300600528717
0.20543600618839264 0.741428017616272 0.16927799582481384
0.22888100147247314 0.7780929803848267 0.1394370049238205
0.1992889940738678 0.7826930284500122 0.1419609934091568
0.15432099997997284 0.6244080066680908 0.14416000247001648
0.15253399312496185 0.7058169841766357 0.15572099387645721
0.15234899520874023 0.7442139983177185 0.16272200644016266
0.25384199619293213 0.674472987651825 0.06537900120019913
0.2370389997959137 0.6631489992141724 0.07010190188884735
0.24758200347423553 0.6594759821891785 0.11172100156545639
0.2657240033149719 0.6616060137748718 0.10953900218009949
0.27750200033187866 0.6683570146560669 0.08631820231676102
0.2480199933052063 0.8014429807662964 0.059342898428440094
0.22591300308704376 0.7319920063018799 0.06112369894981384
0.2358430027961731 0.7414680123329163 0.11799799650907516
0.24907200038433075 0.7934460043907166 0.11322599649429321
0.05577550083398819 0.8070499897003174 0.05904969945549965
0.07379189878702164 0.7274289727210999 0.06104480102658272
0.0700232982635498 0.7384899854660034 0.11790700256824493
0.055676400661468506 0.7916160225868225 0.11694499850273132
0.036384399980306625 0.6643540263175964 0.07275210320949554
0.06707890331745148 0.6620550155639648 0.07561609894037247
0.06440199911594391 0.6604740023612976 0.11347399652004242
0.04064229875802994 0.6661700010299683 0.11831200122833252
0.0268396008759737 0.6666799783706665 0.10036499798297882
0.23439699411392212 0.5331439971923828 0.14233200252056122
0.20329900085926056 0.5355110168457031 0.15161600708961487
0.2457910031080246 0.5325000286102295 0.10489600151777267
0.23788399994373322 0.5366309881210327 0.062242500483989716
0.22284899652004242 0.5437470078468323 0.04282030090689659
0.1521179974079132 0.5467569828033447 0.04046789929270744
0.08472739905118942 0.5422509908676147 0.044878799468278885
0.10002800077199936 0.5364969968795776 0.15326599776744843
0.1534239947795868 0.537676990032196 0.15709500014781952
0.0752691999077797 0.4030739963054657 0.12946699559688568
0.10844899713993073 0.4023759961128235 0.13935799896717072
0.06835369765758514 0.4076470136642456 0.09052810072898865
0.07414069771766663 0.534479022026062 0.14392000436782837
0.06360399723052979 0.532971978187561 0.10347799956798553
0.08245260268449783 0.4094099998474121 0.06450500339269638
0.10506100207567215 0.4114989936351776 0.04930749908089638
0.07320279628038406 0.5340740084648132 0.06360960006713867
0.15156500041484833 0.405689001083374 0.057287998497486115
0.20094600319862366 0.40642499923706055 0.06145690008997917
0.22754299640655518 0.40860700607299805 0.07095450162887573
0.24098999798297882 0.4073289930820465 0.10094600170850754
0.22637499868869781 0.407602995634079 0.14020900428295135
0.1993589997291565 0.4056070148944855 0.156809002161026
0.1534309983253479 0.4057689905166626 0.15677599608898163
0.032997600734233856 0.6360269784927368 0.0838266983628273
0.06545829772949219 0.6292930245399475 0.08615069836378098
0.06390500068664551 0.6578699946403503 0.11957100033760071
0.04015669971704483 0.6627770066261292 0.11988399922847748
0.02500000037252903 0.6525539755821228 0.10143200308084488
0.03739289939403534 0.5644050240516663 0.16876299679279327
0.06140900030732155 0.5655289888381958 0.16170699894428253
0.05633179843425751 0.5904729962348938 0.19498899579048157
0.04208429902791977 0.5923259854316711 0.20167599618434906
0.029888799414038658 0.5774319767951965 0.18785500526428223
0.2609879970550537 0.5329819917678833 0.11472199857234955
0.2425830066204071 0.5407959818840027 0.11367099732160568
0.24673500657081604 0.5521789789199829 0.14697299897670746
0.25661501288414 0.5485849976539612 0.15632300078868866
0.2708739936351776 0.5383279919624329 0.1348869949579239
0.2669680118560791 0.6407449841499329 0.06809650361537933
0.23980100452899933 0.6483950018882751 0.07342849671840668
0.24911199510097504 0.6512550115585327 0.10919900238513947
0.26513999700546265 0.6524220108985901 0.11274699866771698
0.2789910137653351 0.6489089727401733 0.0954321026802063
0.08895239979028702 0.26464998722076416 0.1082720011472702
0.11623100191354752 0.26420798897743225 0.11590900272130966
0.08137580007314682 0.2681719958782196 0.07718139886856079
0.09296750277280807 0.2692579925060272 0.05708489939570427
0.11344599723815918 0.27101901173591614 0.041088998317718506
0.15167999267578125 0.26787400245666504 0.05659810081124306
0.19227899610996246 0.26649099588394165 0.07439520210027695
0.21414600312709808 0.26867398619651794 0.08171849697828293
0.22520199418067932 0.2673960030078888 0.10484399646520615
0.21318599581718445 0.26767000555992126 0.13511799275875092
0.19097399711608887 0.2656730115413666 0.1479180008172989
0.1532139927148819 0.2658349871635437 0.14789199829101562
0.0995241031050682 0.0755757987499237 0.03177820146083832
0.11681699752807617 0.07629639655351639 0.026350000873208046
0.1317940056324005 0.07613059878349304 0.03156929835677147
0.1314380019903183 0.03827790170907974 0.10303299874067307
0.1219640001654625 0.03499830141663551 0.12888699769973755
0.10848599672317505 0.03477710112929344 0.12949000298976898
0.10214599967002869 0.03881629928946495 0.10316800326108932
0.09634219855070114 0.061758898198604584 0.046569500118494034
0.10242799669504166 0.06355609744787216 0.029996100813150406
0.11681699752807617 0.06444700062274933 0.02500000037252903
0.130948007106781 0.06337130069732666 0.02970770001411438
0.13882000744342804 0.06187089905142784 0.04681779816746712
0.13406899571418762 0.028673900291323662 0.1012360006570816
0.11449199914932251 0.02500000037252903 0.13245299458503723
0.09890840202569962 0.028862999752163887 0.10089100152254105
0.1132349967956543 0.03679259866476059 0.02708359993994236
0.120278000831604 0.03686879947781563 0.027383899316191673
0.1132349967956543 0.03603380173444748 0.03374280035495758
0.120278000831604 0.03611009940505028 0.034043099731206894
0.16930200159549713 0.06962139904499054 0.07900600135326385
0.18659499287605286 0.06972280144691467 0.07353100180625916
0.2015720009803772 0.0701489970088005 0.07873570173978806
0.20011599361896515 0.040776800364255905 0.15394599735736847
0.19174200296401978 0.040297698229551315 0.1800840049982071
0.17826400697231293 0.04014639928936958 0.18070800602436066
0.1720460057258606 0.0410986989736557 0.15413999557495117
0.1661199927330017 0.05756630003452301 0.09526640176773071
0.17220599949359894 0.05747729912400246 0.07859600335359573
0.18659499287605286 0.0577968992292881 0.07353100180625916
0.2007260024547577 0.05726109817624092 0.07833030074834824
0.20859800279140472 0.057705800980329514 0.09550029784440994
0.20455600321292877 0.031689099967479706 0.1533139944076538
0.1842699944972992 0.030767399817705154 0.1847590059041977
0.16797800362110138 0.031032800674438477 0.15297499299049377
0.18301300704479218 0.030556000769138336 0.07873199880123138
0.1900559961795807 0.030665799975395203 0.07902160286903381
0.18301300704479218 0.030556000769138336 0.08543430268764496
0.1900559961795807 0.030665799975395203 0.08572400361299515
0.18421299755573273 0.8914710283279419 0.09969189763069153
0.11852499842643738 0.8918840289115906 0.09987010061740875
0.1287750005722046 0.8706759810447693 0.08767479658126831
0.1755490005016327 0.8716350197792053 0.08756919950246811
0.128261998295784 0.8505579829216003 0.0765577033162117
0.15118999779224396 0.8381999731063843 0.07176250219345093
0.17335499823093414 0.8476470112800598 0.076801598072052
0.19169799983501434 0.89478999376297 0.08857429772615433
0.11298300325870514 0.8950799703598022 0.08874829858541489
0.19193799793720245 0.9068710207939148 0.11271599680185318
0.11423899978399277 0.9071509838104248 0.1134599968791008
0.11279900372028351 0.8780800104141235 0.0812629982829094
0.19086900353431702 0.8759980201721191 0.09001319855451584
0.15470600128173828 0.9488319754600525 0.15407900512218475
0.15269599854946136 0.9550639986991882 0.1542620062828064
0.15185299515724182 0.9694669842720032 0.1290069967508316
0.20318199694156647 0.8987540006637573 0.08359380066394806
0.20320899784564972 0.9177060127258301 0.07886750251054764
0.1967339962720871 0.9474639892578125 0.08614999800920486
0.1848820000886917 0.9680719971656799 0.09353549778461456
0.1679140031337738 0.9746760129928589 0.10245899856090546
0.1371619999408722 0.9750000238418579 0.10265299677848816
0.1202159970998764 0.9695349931716919 0.09485179930925369
0.11004199832677841 0.9474859833717346 0.08599440008401871
0.1036050021648407 0.9182980060577393 0.07934069633483887
0.10099399834871292 0.8992869853973389 0.08377479761838913
0.19640100002288818 0.9418910145759583 0.14159099757671356
0.17848099768161774 0.9445329904556274 0.1504880040884018
0.20453199744224548 0.9149309992790222 0.10788600146770477
0.20368799567222595 0.9263719916343689 0.12008199840784073
0.19522899389266968 0.9580249786376953 0.12444400042295456
0.17939600348472595 0.9679309725761414 0.12764300405979156
0.1305530071258545 0.9500589966773987 0.14923499524593353
0.11187899857759476 0.9417999982833862 0.14186500012874603
0.12639600038528442 0.9667800068855286 0.12666000425815582
0.11095000058412552 0.9577280282974243 0.12455900013446808
0.10248400270938873 0.9263929724693298 0.1200219988822937
0.10104499757289886 0.9151970148086548 0.10732000321149826
0.10259900242090225 0.8762120008468628 0.07144329696893692
0.11990299820899963 0.9149349927902222 0.06513109803199768
0.13013599812984467 0.8729320168495178 0.05817350000143051
0.1374489963054657 0.9481629729270935 0.06316550076007843
0.1522420048713684 0.9102579951286316 0.05609409883618355
0.17578700184822083 0.8728340268135071 0.05888139829039574
0.15316200256347656 0.9675499796867371 0.08045370131731033
0.16388100385665894 0.9481719732284546 0.06346040219068527
0.18441499769687653 0.9147189855575562 0.06478539854288101
0.20149900019168854 0.8780840039253235 0.07103720307350159
0.11878500133752823 0.8659300208091736 0.08493129909038544
0.18735000491142273 0.86319899559021 0.08716800063848495
0.106625996530056 0.8402040004730225 0.06838320195674896
0.19757699966430664 0.8409600257873535 0.06269749999046326
3 0 4 1
3 4 5 1
3 1 5 2
3 5 6 2
3 2 6 3
3 6 7 3
3 3 7 0
3 7 4 0
3 4 29 5
3 29 28 5
3 5 28 6
3 28 17 6
3 6 17 7
3 17 16 7
3 7 16 4
3 16 29 4
3 3 0 1
3 1 2 3
3 8 12 9
3 12 13 9
3 9 13 10
3 13 14 10
3 10 14 11
3 14 15 11
3 11 15 8
3 15 12 8
3 12 16 13
3 16 17 13
3 13 17 14
3 17 39 14
3 14 39 15
3 39 38 15
3 15 38 12
3 38 16 12
3 11 8 9
3 9 10 11
3 18 22 19
3 22 23 19
3 19 23 20
3 23 24 20
3 20 24 21
3 24 25 21
3 21 25 18
3 25 22 18
3 22 26 23
3 26 27 23
3 23 27 24
3 27 28 24
3 24 28 25
3 28 29 25
3 25 29 22
3 29 26 22
3 21 18 19
3 19 20 21
3 30 34 31
3 34 35 31
3 31 35 32
3 35 36 32
3 32 36 33
3 36 37 33
3 33 37 30
3 37 34 30
3 34 38 35
3 38 39 35
3 35 39 36
3 39 51 36
3 36 51 37
3 51 50 37
3 37 50 34
3 50 38 34
3 33 30 31
3 31 32 33
3 40 44 41
3 44 45 41
3 41 45 42
3 45 46 42
3 42 46 43
3 46 47 43
3 43 47 40
3 47 44 40
3 44 48 45
3 48 49 45
3 45 49 46
3 49 50 46
3 46 50 47
3 50 51 47
3 47 51 44
3 51 48 44
3 43 40 41
3 41 42 43
3 52 26 29
3 52 29 16
3 52 16 38
3 52 38 50
3 52 50 49
3 28 27 53
3 17 28 53
3 39 17 53
3 51 39 53
3 48 51 53
3 52 49 55
3 57 48 53
3 56 53 27
3 26 52 54
3 55 49 48
3 57 55 48
3 54 56 27
3 54 27 26
3 56 54 58
3 58 59 56
3 61 55 60
3 55 57 60
3 52 55 61
3 54 52 58
3 52 61 58
3 60 57 53
3 59 53 56
3 60 53 59
3 62 66 63
3 66 67 63
3 63 67 64
3 67 68 64
3 64 68 65
3 68 69 65
3 65 69 62
3 69 66 62
3 66 70 67
3 70 71 67
3 67 71 68
3 71 81 68
3 68 81 69
3 81 80 69
3 69 80 66
3 80 70 66
3 65 62 63
3 63 64 65
3 72 76 73
3 76 77 73
3 73 77 74
3 77 78 74
3 74 78 75
3 78 79 75
3 75 79 72
3 79 76 72
3 76 80 77
3 80 81 77
3 77 81 78
3 81 101 78
3 78 101 79
3 101 100 79
3 79 100 76
3 100 80 76
3 75 72 73
3 73 74 75
3 82 86 83
3 86 87 83
3 83 87 84
3 87 88 84
3 84 88 85
3 88 89 85
3 85 89 82
3 89 86 82
3 86 90 87
3 90 91 87
3 87 91 88
3 91 71 88
3 88 71 89
3 71 70 89
3 89 70 86
3 70 90 86
3 85 82 83
3 83 84 85
3 92 96 93
3 96 97 93
3 93 97 94
3 97 98 94
3 94 98 95
3 98 99 95
3 95 99 92
3 99 96 92
3 96 100 97
3 100 101 97
3 97 101 98
3 101 113 98
3 98 113 99
3 113 112 99
3 99 112 96
3 112 100 96
3 95 92 93
3 93 94 95
3 102 106 103
3 106 107 103
3 103 107 104
3 107 108 104
3 104 108 105
3 108 109 105
3 105 109 102
3 109 106 102
3 106 110 107
3 110 111 107
3 107 111 108
3 111 112 108
3 108 112 109
3 112 113 109
3 109 113 106
3 113 110 106
3 105 102 103
3 103 104 105
3 114 110 113
3 114 113 101
3 114 101 81
3 114 81 71
3 114 71 91
3 100 112 115
3 80 100 115
3 70 80 115
3 90 70 115
3 117 110 114
3 114 91 116
3 115 119 90
3 118 115 111
3 91 90 119
3 116 91 119
3 117 118 111
3 110 117 111
3 112 111 115
3 118 120 121
3 117 120 118
3 123 116 119
3 123 119 122
3 120 117 114
3 114 116 123
3 120 114 123
3 118 121 115
3 115 122 119
3 121 122 115
3 124 125 130
3 125 126 143
3 125 143 130
3 130 143 131
3 126 127 144
3 126 144 143
3 143 144 145
3 143 145 131
3 131 145 132
3 127 128 146
3 127 146 144
3 144 146 147
3 144 147 145
3 145 147 148
3 145 148 132
3 132 148 133
3 128 129 149
3 128 149 146
3 148 150 133
3 133 150 134
3 129 139 149
3 150 140 134
3 124 130 135
3 130 131 151
3 130 151 135
3 135 151 136
3 131 132 152
3 131 152 151
3 151 152 153
3 151 153 136
3 136 153 137
3 132 133 154
3 132 154 152
3 152 154 155
3 152 155 153
3 153 155 156
3 153 156 137
3 137 156 138
3 133 134 157
3 133 157 154
3 154 157 158
3 154 158 155
3 134 141 157
3 124 135 125
3 135 136 159
3 135 159 125
3 125 159 126
3 136 137 160
3 136 160 159
3 159 160 161
3 159 161 126
3 126 161 127
3 137 138 162
3 137 162 160
3 160 162 163
3 160 163 161
3 161 163 164
3 161 164 127
3 127 164 128
3 138 165 162
3 162 165 163
3 163 166 164
3 164 166 167
3 164 167 128
3 128 167 129
3 167 142 129
3 142 168 139
3 141 134 140
3 142 139 129
3 150 148 147
3 149 147 146
3 150 147 172
3 149 172 147
3 172 175 178
3 172 178 176
3 150 172 176
3 150 176 174
3 140 150 174
3 140 174 187
3 171 140 187
3 171 187 185
3 170 171 185
3 172 149 175
3 149 173 175
3 149 139 173
3 139 177 173
3 139 168 177
3 168 185 177
3 168 169 185
3 175 179 180
3 173 192 179
3 179 175 173
3 177 182 181
3 181 173 177
3 185 183 182
3 182 177 185
3 185 184 183
3 187 186 184
3 184 185 187
3 186 187 174
3 174 188 191
3 176 189 188
3 188 174 176
3 176 178 189
3 175 180 178
3 173 181 192
3 174 191 186
3 169 170 185
3 141 140 171
3 178 180 189
3 180 190 189
3 193 194 199
3 193 199 198
3 194 195 200
3 194 200 199
3 195 196 201
3 195 201 200
3 196 197 202
3 196 202 201
3 197 193 198
3 197 198 202
3 198 199 204
3 198 204 203
3 199 200 205
3 199 205 204
3 200 201 206
3 200 206 205
3 201 202 207
3 201 207 206
3 202 198 203
3 202 203 207
3 203 204 209
3 203 209 208
3 204 205 210
3 204 210 209
3 205 206 211
3 205 211 210
3 206 207 212
3 206 212 211
3 207 203 208
3 207 208 212
3 196 218 217
3 196 217 197
3 195 213 218
3 195 218 196
3 193 219 214
3 194 193 214
3 193 215 219
3 193 197 215
3 197 216 215
3 197 217 216
3 195 194 214
3 195 214 213
3 220 221 226
3 220 226 225
3 221 222 227
3 221 227 226
3 222 223 228
3 222 228 227
3 223 224 229
3 223 229 228
3 224 220 225
3 224 225 229
3 225 226 231
3 225 231 230
3 226 227 232
3 226 232 231
3 227 228 233
3 227 233 232
3 228 229 234
3 228 234 233
3 229 225 230
3 229 230 234
3 230 231 236
3 230 236 235
3 231 232 237
3 231 237 236
3 232 233 238
3 232 238 237
3 233 234 239
3 233 239 238
3 234 230 235
3 234 235 239
3 223 245 244
3 223 244 224
3 222 240 245
3 222 245 223
3 224 244 243
3 221 220 246
3 221 246 241
3 220 224 242
3 220 242 246
3 224 243 242
3 222 221 241
3 222 241 240
3 255 253 254
3 254 256 255
3 179 255 256
3 256 180 179
3 259 257 249
3 249 252 259
3 296 259 252
3 252 297 296
3 261 260 259
3 259 296 261
3 262 261 296
3 296 295 262
3 182 262 295
3 295 181 182
3 266 264 263
3 263 265 266
3 268 266 265
3 265 267 268
3 270 268 267
3 267 269 270
3 183 269 262
3 262 182 183
3 273 271 264
3 264 266 273
3 274 272 271
3 271 273 274
3 278 276 275
3 275 277 278
3 279 277 274
3 274 293 279
3 280 278 277
3 277 279 280
3 281 279 293
3 293 294 281
3 188 281 294
3 294 191 188
3 282 190 280
3 190 285 280
3 190 256 254
3 190 254 285
3 192 181 295
3 191 291 186
3 343 344 287
3 343 287 286
3 344 345 288
3 344 288 287
3 345 346 289
3 345 289 288
3 346 347 290
3 346 290 289
3 347 343 286
3 347 286 290
3 286 287 292
3 286 292 291
3 287 288 293
3 287 293 292
3 288 289 294
3 288 294 293
3 289 290 191
3 289 191 294
3 290 286 291
3 290 291 191
3 293 294 191
3 293 191 291
3 292 293 291
3 192 298 297
3 295 192 297
3 295 297 296
3 295 296 300
3 295 300 299
3 296 297 301
3 296 301 300
3 297 298 302
3 297 302 301
3 298 192 303
3 298 303 302
3 192 295 299
3 192 299 303
3 299 300 329
3 299 329 328
3 300 301 330
3 300 330 329
3 301 302 331
3 301 331 330
3 302 303 332
3 302 332 331
3 303 299 328
3 303 328 332
3 281 280 279
3 281 282 280
3 189 282 188
3 188 282 281
3 280 284 278
3 280 285 284
3 278 283 276
3 278 284 283
3 251 248 283
3 284 251 283
3 251 247 248
3 251 250 247
3 254 251 284
3 285 254 284
3 254 250 251
3 254 253 250
3 179 298 255
3 179 192 298
3 253 252 250
3 253 297 252
3 255 297 253
3 255 298 297
3 250 252 249
3 260 263 258
3 260 265 263
3 259 258 257
3 259 260 258
3 261 267 265
3 261 265 260
3 262 269 267
3 262 267 261
3 183 270 269
3 183 184 270
3 184 291 270
3 184 186 291
3 268 273 266
3 268 292 273
3 270 292 268
3 270 291 292
3 250 249 247
3 292 274 273
3 293 274 292
3 277 275 272
3 274 277 272
3 307 271 272
3 272 306 307
3 310 258 263
3 263 309 310
3 320 257 258
3 258 310 320
3 317 249 257
3 257 320 317
3 311 248 247
3 247 316 311
3 311 283 248
3 311 312 283
3 305 276 283
3 312 305 283
3 305 275 276
3 305 304 275
3 304 306 272
3 308 263 264
3 308 309 263
3 307 264 271
3 307 308 264
3 304 272 275
3 316 247 249
3 317 316 249
3 320 318 315
3 315 317 320
3 308 322 321
3 321 309 308
3 307 323 322
3 322 308 307
3 306 324 323
3 323 307 306
3 305 326 325
3 325 304 305
3 305 327 326
3 305 312 327
3 311 314 327
3 312 311 327
3 311 313 314
3 311 316 313
3 316 317 315
3 310 321 319
3 310 309 321
3 320 319 318
3 320 310 319
3 316 315 313
3 304 325 324
3 306 304 324
3 328 329 334
3 328 334 333
3 329 330 335
3 329 335 334
3 330 331 336
3 330 336 335
3 331 332 337
3 331 337 336
3 332 328 333
3 332 333 337
3 338 339 344
3 338 344 343
3 339 340 345
3 339 345 344
3 340 341 346
3 340 346 345
3 341 342 347
3 341 347 346
3 342 338 343
3 342 343 347
3 318 351 350
3 350 315 318
3 322 354 353
3 353 321 322
3 323 355 354
3 354 322 323
3 324 356 355
3 355 323 324
3 326 358 357
3 357 325 326
3 326 359 358
3 326 327 359
3 314 349 359
3 327 314 359
3 314 348 349
3 314 313 348
3 313 315 350
3 319 353 352
3 319 321 353
3 318 352 351
3 318 319 352
3 313 350 348
3 325 357 356
3 324 325 356
3 180 256 190
3 189 190 282
3 215 216 364
3 215 364 363
3 216 217 366
3 216 366 365
3 218 360 368
3 218 368 367
3 360 361 369
3 360 369 368
3 361 362 370
3 361 370 369
3 362 219 371
3 362 371 370
3 219 363 372
3 219 372 371
3 363 364 373
3 363 373 372
3 364 365 373
3 365 366 374
3 365 374 373
3 366 218 367
3 366 367 374
3 219 215 363
3 214 219 362
3 214 362 361
3 213 361 360
3 213 214 361
3 213 360 218
3 217 218 366
3 216 365 364
3 369 375 368
3 370 376 369
3 369 376 375
3 367 368 377
3 368 375 377
3 371 378 370
3 370 378 376
3 367 377 378
3 371 367 378
3 242 243 383
3 242 383 382
3 243 244 385
3 243 385 384
3 245 379 387
3 245 387 386
3 379 380 388
3 379 388 387
3 380 381 389
3 380 389 388
3 381 246 390
3 381 390 389
3 246 382 391
3 246 391 390
3 382 383 392
3 382 392 391
3 383 384 392
3 384 385 393
3 384 393 392
3 385 245 386
3 385 386 393
3 246 242 382
3 241 246 381
3 241 381 380
3 240 380 379
3 240 241 380
3 240 379 245
3 244 245 385
3 243 384 383
3 388 394 387
3 389 395 388
3 388 395 394
3 386 387 396
3 387 394 396
3 390 397 389
3 389 397 395
3 386 396 397
3 390 386 397
3 411 425 412
3 424 427 428
3 424 428 425
3 425 428 429
3 425 429 412
3 412 429 413
3 426 414 415
3 426 415 427
3 427 415 416
3 427 416 428
3 428 416 417
3 428 417 429
3 429 417 418
3 429 418 413
3 411 412 430
3 412 413 432
3 412 432 430
3 430 432 433
3 430 433 431
3 431 433 434
3 413 419 432
3 432 419 420
3 432 420 433
3 433 420 421
3 433 421 434
3 434 421 422
3 434 422 435
3 435 422 423
3 423 422 436
3 422 421 437
3 422 437 436
3 436 437 438
3 421 420 439
3 421 439 437
3 437 439 440
3 437 440 438
3 438 440 441
3 420 419 442
3 420 442 439
3 439 442 443
3 439 443 440
3 440 443 444
3 440 444 441
3 441 444 445
3 419 418 442
3 442 418 417
3 442 417 443
3 443 417 416
3 444 416 415
3 444 415 445
3 445 415 414
3 419 413 418
3 430 165 138
3 430 138 411
3 411 138 156
3 411 156 425
3 425 156 155
3 424 425 155
3 424 155 158
3 424 158 427
3 427 158 407
3 427 407 426
3 426 407 405
3 426 405 414
3 414 405 410
3 414 410 445
3 430 431 165
3 431 163 165
3 431 434 166
3 431 166 163
3 434 435 408
3 434 408 166
3 435 423 406
3 435 406 408
3 423 436 409
3 423 409 406
3 166 408 167
3 408 406 399
3 167 408 399
3 399 406 409
3 399 409 400
3 158 157 407
3 407 157 398
3 407 398 405
3 401 405 398
3 410 405 401
3 445 447 449
3 445 410 447
3 409 436 448
3 409 448 446
3 400 409 446
3 410 401 447
3 436 438 448
3 445 449 441
3 400 446 402
3 446 448 402
3 401 404 447
3 447 404 449
3 438 403 448
3 438 441 403
3 441 449 403
3 448 403 402
3 449 404 403
3 443 416 444
