ply
format ascii 1.0
element vertex 445
property float x
property float y
property float z
element face 730
property list uchar int vertex_indices
end_header
0.17098000645637512 0.4689970016479492 0.13927599787712097
0.15373100340366364 0.4657439887523651 0.11063200235366821
0.1882299929857254 0.4657439887523651 0.11063200235366821
0.09320960193872452 0.5462260246276855 0.11557299643754959
0.24875099956989288 0.5462260246276855 0.11557299643754959
0.09956730157136917 0.6206449866294861 0.14072999358177185
0.24239400029182434 0.6206449866294861 0.14072999358177185
0.17098000645637512 0.4869860112667084 0.1573289930820465
0.17098000645637512 0.5329189896583557 0.18384400010108948
0.14325299859046936 0.6408519744873047 0.17807699739933014
0.19870799779891968 0.6408519744873047 0.17807699739933014
0.22598199546337128 0.528482973575592 0.05806979909539223
0.11597900092601776 0.528482973575592 0.05806979909539223
0.2164350003004074 0.6452869772911072 0.08727090060710907
0.12552499771118164 0.6452869772911072 0.08727090060710907
0.17098000645637512 0.528482973575592 0.07966630160808563
0.17098000645637512 0.6452869772911072 0.09900549799203873
0.11573299765586853 0.6004379987716675 0.14791500568389893
0.07812859863042831 0.6630300283432007 0.12725499272346497
0.2262279987335205 0.6004379987716675 0.14791500568389893
0.2638320028781891 0.6630300283432007 0.12725499272346497
0.2600870132446289 0.6980220079421997 0.12509199976921082
0.08187419921159744 0.6980220079421997 0.12509199976921082
0.2136559933423996 0.6630300283432007 0.19286300241947174
0.12830500304698944 0.6630300283432007 0.19286300241947174
0.2136559933423996 0.6980220079421997 0.17891499400138855
0.12830500304698944 0.6980220079421997 0.17891499400138855
0.17098000645637512 0.6048740148544312 0.17935900390148163
0.11524000018835068 0.6674649715423584 0.060336899012327194
0.1280979961156845 0.6048740148544312 0.08951819688081741
0.22672100365161896 0.6674649715423584 0.060336899012327194
0.21386300027370453 0.6048740148544312 0.08951819688081741
0.1220950037240982 0.6960499882698059 0.06859210133552551
0.21986599266529083 0.6960499882698059 0.06859210133552551
0.17098000645637512 0.6674649715423584 0.07887770235538483
0.17098000645637512 0.6960499882698059 0.08435820043087006
0.17098000645637512 0.6048740148544312 0.10049399733543396
0.20451800525188446 0.574317991733551 0.10110999643802643
0.18548500537872314 0.5728390216827393 0.09743329882621765
0.17098000645637512 0.5408040285110474 0.08460459858179092
0.2076379954814911 0.539326012134552 0.0827810987830162
0.22277800738811493 0.5856530070304871 0.11870300024747849
0.24510399997234344 0.574317991733551 0.11661600321531296
0.18548500537872314 0.5728390216827393 0.13749699294567108
0.2441679984331131 0.282602995634079 0.11426900327205658
0.20818500220775604 0.26387500762939453 0.08349069952964783
0.1686760038137436 0.26269200444221497 0.09290900081396103
0.270238995552063 0.33262699842453003 0.11578799784183502
0.23574000597000122 0.32863500714302063 0.04510800167918205
0.13098600506782532 0.3022179901599884 0.06699030101299286
0.20451800525188446 0.574317991733551 0.14198599755764008
0.2076379954814911 0.539326012134552 0.16139499843120575
0.17098000645637512 0.5408040285110474 0.14979800581932068
0.20818500220775604 0.2710210084915161 0.15179899334907532
0.1686760038137436 0.26752200722694397 0.1391180008649826
0.23574000597000122 0.3375549912452698 0.19128599762916565
0.13098600506782532 0.3117299973964691 0.16595299541950226
0.16410000622272491 0.11015699803829193 0.12294299900531769
0.19972799718379974 0.10724899917840958 0.13766400516033173
0.1913450062274933 0.07585509866476059 0.1300790011882782
0.17833399772644043 0.07054220139980316 0.10572300106287003
0.17864899337291718 0.16392600536346436 0.11610600352287292
0.20112299919128418 0.15086600184440613 0.1312370002269745
0.22573499381542206 0.09512530267238617 0.12239599972963333
0.20901800692081451 0.0703795999288559 0.10565900057554245
0.22440500557422638 0.14500099420547485 0.11750900000333786
0.19803300499916077 0.22730599343776703 0.14969000220298767
0.16394799947738647 0.21187999844551086 0.1290300041437149
0.24466100335121155 0.24889299273490906 0.13075000047683716
0.21936799585819244 0.2973890006542206 0.12321899831295013
0.19933900237083435 0.29319900274276733 0.13923600316047668
0.1825380027294159 0.28960201144218445 0.12500299513339996
0.1776140034198761 0.10936799645423889 0.09098690003156662
0.18949200212955475 0.15949100255966187 0.08231289684772491
0.21461699903011322 0.09936369955539703 0.08797559887170792
0.21536099910736084 0.14751499891281128 0.086319699883461
0.17967399954795837 0.20276199281215668 0.0693017989397049
0.2257850021123886 0.23563499748706818 0.0670396015048027
0.1910640001296997 0.29034098982810974 0.09424459934234619
0.2110140025615692 0.29615598917007446 0.09574290364980698
0.18394699692726135 0.05704319849610329 0.19153200089931488
0.1758439987897873 0.036521200090646744 0.1387680023908615
0.16776399314403534 0.04101099818944931 0.08771439641714096
0.17694400250911713 0.09921590238809586 0.10346599668264389
0.18029500544071198 0.10596799850463867 0.12672799825668335
0.23613399267196655 0.05704319849610329 0.1840900033712387
0.20996899902820587 0.10596799850463867 0.12308599799871445
0.20451399683952332 0.09921590238809586 0.10000599920749664
0.21004800498485565 0.04101099818944931 0.08303730189800262
0.222680002450943 0.036521200090646744 0.13368700444698334
0.23840199410915375 0.025177599862217903 0.16782599687576294
0.17621900141239166 0.025177599862217903 0.17295199632644653
0.222680002450943 0.025289300829172134 0.13818199932575226
0.1758439987897873 0.025289300829172134 0.1432580053806305
0.2115119993686676 0.025289300829172134 0.09190849959850311
0.1690559983253479 0.025289300829172134 0.09660530090332031
0.1960269957780838 0.025289300829172134 0.2323399931192398
0.17514300346374512 0.025289300829172134 0.16989600658416748
0.1820400059223175 0.058980099856853485 0.18546999990940094
0.1969289928674698 0.04101099818944931 0.2390419989824295
0.23160000145435333 0.025289300829172134 0.2276580035686493
0.23199500143527985 0.04101099818944931 0.2343599945306778
0.2339169979095459 0.058980099856853485 0.1803939938545227
0.23751400411128998 0.025289300829172134 0.16466200351715088
0.133775994181633 0.2710210084915161 0.15179899334907532
0.0977931022644043 0.282602995634079 0.11426900327205658
0.17328399419784546 0.26752200722694397 0.1391180008649826
0.1191829964518547 0.5856530070304871 0.11870300024747849
0.1564760059118271 0.5728390216827393 0.13749699294567108
0.1374419927597046 0.574317991733551 0.14198599755764008
0.09685669839382172 0.574317991733551 0.11661600321531296
0.13432300090789795 0.539326012134552 0.16139499843120575
0.10622099786996841 0.3375549912452698 0.19128599762916565
0.07172159850597382 0.33262699842453003 0.11578799784183502
0.21097500622272491 0.3117299973964691 0.16595299541950226
0.133775994181633 0.26387500762939453 0.08349069952964783
0.17328399419784546 0.26269200444221497 0.09290900081396103
0.1564760059118271 0.5728390216827393 0.09743329882621765
0.1374419927597046 0.574317991733551 0.10110999643802643
0.13432300090789795 0.539326012134552 0.0827810987830162
0.10622099786996841 0.32863500714302063 0.04510800167918205
0.21097500622272491 0.3022179901599884 0.06699030101299286
0.17786100506782532 0.11015699803829193 0.12294299900531769
0.1422329992055893 0.10724899917840958 0.13766400516033173
0.15061600506305695 0.07585509866476059 0.1300790011882782
0.1636269986629486 0.07054220139980316 0.10572300106287003
0.16331200301647186 0.16392600536346436 0.11610600352287292
0.14083799719810486 0.15086600184440613 0.1312370002269745
0.1162249967455864 0.09512530267238617 0.12239599972963333
0.13294300436973572 0.0703795999288559 0.10565900057554245
0.11755599826574326 0.14500099420547485 0.11750900000333786
0.14392800629138947 0.22730599343776703 0.14969000220298767
0.17801299691200256 0.21187999844551086 0.1290300041437149
0.0973002016544342 0.24889299273490906 0.13075000047683716
0.1225930005311966 0.2973890006542206 0.12321899831295013
0.1426219940185547 0.29319900274276733 0.13923600316047668
0.15942299365997314 0.28960201144218445 0.12500299513339996
0.16434699296951294 0.10936799645423889 0.09098690003156662
0.1524689942598343 0.15949100255966187 0.08231289684772491
0.12734399735927582 0.09936369955539703 0.08797559887170792
0.1265999972820282 0.14751499891281128 0.086319699883461
0.16228699684143066 0.20276199281215668 0.0693017989397049
0.11617600172758102 0.23563499748706818 0.0670396015048027
0.15089699625968933 0.29034098982810974 0.09424459934234619
0.13094699382781982 0.29615598917007446 0.09574290364980698
0.15801399946212769 0.05704319849610329 0.19153200089931488
0.16611699759960175 0.036521200090646744 0.1387680023908615
0.1741970032453537 0.04101099818944931 0.08771439641714096
0.1650169938802719 0.09921590238809586 0.10346599668264389
0.16166600584983826 0.10596799850463867 0.12672799825668335
0.1058259978890419 0.05704319849610329 0.1840900033712387
0.13199199736118317 0.10596799850463867 0.12308599799871445
0.13744699954986572 0.09921590238809586 0.10000599920749664
0.13191300630569458 0.04101099818944931 0.08303730189800262
0.11928100138902664 0.036521200090646744 0.13368700444698334
0.10355900228023529 0.025177599862217903 0.16782599687576294
0.16574199497699738 0.025177599862217903 0.17295199632644653
0.11928100138902664 0.025289300829172134 0.13818199932575226
0.16611699759960175 0.025289300829172134 0.1432580053806305
0.13044899702072144 0.025289300829172134 0.09190849959850311
0.17290499806404114 0.025289300829172134 0.09660530090332031
0.14578500390052795 0.02518239989876747 0.2323399931192398
0.16666799783706665 0.02500000037252903 0.16989600658416748
0.16006599366664886 0.05874979868531227 0.18546999990940094
0.1450210064649582 0.04091139882802963 0.2390419989824295
0.11021299660205841 0.02549310028553009 0.2276580035686493
0.10995599627494812 0.04121769964694977 0.2343599945306778
0.10819099843502045 0.0592028982937336 0.1803939938545227
0.10429900139570236 0.025544799864292145 0.16466200351715088
0.1250230073928833 0.6339520215988159 0.05959770083427429
0.08054350316524506 0.7847620248794556 0.05959770083427429
0.055309899151325226 0.7773690223693848 0.04500950127840042
0.1358110010623932 0.5629820227622986 0.04500950127840042
0.14298699796199799 0.6467660069465637 0.04500950127840042
0.10355900228023529 0.7916619777679443 0.04500950127840042
0.26230400800704956 0.5053690075874329 0.04500950127840042
0.1250230073928833 0.6339520215988159 0.0304212998598814
0.08054350316524506 0.7847620248794556 0.0304212998598814
0.08833049982786179 0.6541579961776733 0.11557299643754959
0.12420500069856644 0.7891979813575745 0.10524000227451324
0.07280589640140533 0.7014719843864441 0.1604979932308197
0.11602800339460373 0.6674649715423584 0.060336899012327194
0.25363001227378845 0.6541579961776733 0.11557299643754959
0.2177560031414032 0.7891979813575745 0.10524000227451324
0.26915499567985535 0.7014719843864441 0.1604979932308197
0.2259330004453659 0.6674649715423584 0.060336899012327194
0.17098000645637512 0.7891979813575745 0.12320899963378906
0.2136559933423996 0.7014719843864441 0.19508099555969238
0.12830500304698944 0.7014719843864441 0.19508099555969238
0.2136559933423996 0.6541579961776733 0.17260700464248657
0.12830500304698944 0.6541579961776733 0.17260700464248657
0.06413179636001587 0.7463200092315674 0.0792326033115387
0.27782899141311646 0.7463200092315674 0.0792326033115387
0.17098000645637512 0.6674649715423584 0.08114969730377197
0.10774900019168854 0.7596269845962524 0.05215569958090782
0.2342119961977005 0.7596269845962524 0.05215569958090782
0.17098000645637512 0.7596269845962524 0.07574319839477539
0.129488006234169 0.85868901014328 0.0782862976193428
0.13997599482536316 0.874459981918335 0.12994599342346191
0.10883300006389618 0.750756025314331 0.10408700257539749
0.21247300505638123 0.85868901014328 0.0782862976193428
0.20198500156402588 0.874459981918335 0.12994599342346191
0.23312799632549286 0.750756025314331 0.10408700257539749
0.17098000645637512 0.8473529815673828 0.06255470216274261
0.17098000645637512 0.7532200217247009 0.06255470216274261
0.15043899416923523 0.771947979927063 0.1460919976234436
0.13997599482536316 0.8473529815673828 0.1126990020275116
0.20198500156402588 0.8473529815673828 0.1126990020275116
0.1915220022201538 0.7916619777679443 0.11898700147867203
0.15043899416923523 0.7916619777679443 0.11898700147867203
0.17098000645637512 0.720691978931427 0.17236000299453735
0.1915220022201538 0.771947979927063 0.1460919976234436
0.17098000645637512 0.7280849814414978 0.1329129934310913
0.21219199895858765 0.899101972579956 0.145564004778862
0.1297689974308014 0.899101972579956 0.145564004778862
0.23110699653625488 0.8853020071983337 0.08048439770936966
0.11085300147533417 0.8853020071983337 0.08048439770936966
0.2143460065126419 0.8468610048294067 0.03781399875879288
0.12761500477790833 0.8468610048294067 0.03781399875879288
0.17098000645637512 0.8976230025291443 0.16679100692272186
0.17098000645637512 0.9434580206871033 0.15668299794197083
0.17098000645637512 0.9750000238418579 0.13422399759292603
0.18557800352573395 0.9518359899520874 0.13841800391674042
0.1563819944858551 0.9518359899520874 0.13841800391674042
0.17098000645637512 0.9035379886627197 0.16263699531555176
0.17098000645637512 0.9064949750900269 0.0847524031996727
0.17098000645637512 0.8340470194816589 0.02500000037252903
0.1145009994506836 0.8685460090637207 0.15303100645542145
0.22745999693870544 0.8685460090637207 0.15303100645542145
0.08877400308847427 0.8340470194816589 0.09328360110521317
0.25318700075149536 0.8340470194816589 0.09328360110521317
0.11538799852132797 0.812853991985321 0.06339260190725327
0.22657300531864166 0.812853991985321 0.06339260190725327
0.17098000645637512 0.8724880218505859 0.17009299993515015
0.17098000645637512 0.8340470194816589 0.09328360110521317
0.17098000645637512 0.8000400066375732 0.059154100716114044
0.17098000645637512 0.8483390212059021 0.16561800241470337
0.17098000645637512 0.8724880218505859 0.16166099905967712
0.19986599683761597 0.8488320112228394 0.15726499259471893
0.19929400086402893 0.8719959855079651 0.14955200254917145
0.1426669955253601 0.8719959855079651 0.14955200254917145
0.14209499955177307 0.8488320112228394 0.15726499259471893
0.18022599816322327 0.7749050259590149 0.15518000721931458
0.18022599816322327 0.7793409824371338 0.16282400488853455
0.20348399877548218 0.7689909934997559 0.11476299911737442
0.19986599683761597 0.8256679773330688 0.15223300457000732
0.14209499955177307 0.8256679773330688 0.15223300457000732
0.16173499822616577 0.7793409824371338 0.16282400488853455
0.13847699761390686 0.7689909934997559 0.11476299911737442
0.16173499822616577 0.7749050259590149 0.15518000721931458
0.20851099491119385 0.8394680023193359 0.09893649816513062
0.19640100002288818 0.8374959826469421 0.148034006357193
0.14555999636650085 0.8374959826469421 0.148034006357193
0.1334500014781952 0.8394680023193359 0.09893649816513062
0.17098000645637512 0.8370040059089661 0.1576489955186844
0.16558900475502014 0.8572099804878235 0.15810200572013855
0.16712899506092072 0.8192610144615173 0.17236000299453735
0.16096599400043488 0.8084189891815186 0.14897499978542328
0.16712899506092072 0.8103899955749512 0.1721629947423935
0.1763720065355301 0.8572099804878235 0.15810200572013855
0.17483200132846832 0.8192610144615173 0.17236000299453735
0.17483200132846832 0.8103899955749512 0.1721629947423935
0.18099500238895416 0.8084189891815186 0.14897499978542328
0.17098000645637512 0.7793409824371338 0.16282400488853455
0.17098000645637512 0.8266540169715881 0.1607239991426468
0.10474199801683426 0.7620909810066223 0.07271719723939896
0.06768029928207397 0.7655410170555115 0.09106580168008804
0.10474199801683426 0.7620909810066223 0.11206900328397751
0.08133210241794586 0.7497699856758118 0.11501199752092361
0.06358969956636429 0.5979740023612976 0.07095769792795181
0.07778359949588776 0.6078310012817383 0.09327860176563263
0.06358969956636429 0.5979740023612976 0.11531300097703934
0.0634910985827446 0.6374019980430603 0.12200699746608734
0.08492989838123322 0.6374019980430603 0.09455019980669022
0.04293949902057648 0.6078310012817383 0.10766000300645828
0.04293949902057648 0.6078310012817383 0.07927200198173523
0.02500000037252903 0.6250810027122498 0.09055320173501968
0.03470899909734726 0.6822509765625 0.09618639945983887
0.04791729897260666 0.6250810027122498 0.12994599342346191
0.0543241985142231 0.6822509765625 0.12770399451255798
0.05762629956007004 0.7137929797172546 0.138931006193161
0.026084300130605698 0.7113280296325684 0.09677290171384811
0.03919389843940735 0.6482440233230591 0.08072590082883835
0.03919389843940735 0.6482440233230591 0.10867500305175781
0.09010469913482666 0.6250810027122498 0.06851810216903687
0.08714769780635834 0.6758440136909485 0.07301290333271027
0.08714769780635834 0.6758440136909485 0.11613000184297562
0.09010469913482666 0.6250810027122498 0.11610200256109238
0.11031100153923035 0.7128069996833801 0.12508699297904968
0.11031100153923035 0.7128069996833801 0.06556110084056854
0.08133210241794586 0.7497699856758118 0.0672810971736908
0.0634910985827446 0.6374019980430603 0.06845410168170929
0.0543241985142231 0.6822509765625 0.060336899012327194
0.04791729897260666 0.6250810027122498 0.05580279976129532
0.05762629956007004 0.7137929797172546 0.04910010099411011
0.06437820196151733 0.5343970060348511 0.06482180207967758
0.07980430126190186 0.539326012134552 0.09659550338983536
0.08113499730825424 0.47022899985313416 0.09991230070590973
0.0698980987071991 0.4603720009326935 0.0857430025935173
0.06541319936513901 0.5679110288619995 0.06634960323572159
0.08561979979276657 0.5679110288619995 0.09522540122270584
0.06437820196151733 0.5388330221176147 0.1232289969921112
0.0698980987071991 0.46214601397514343 0.11508800089359283
0.06541319936513901 0.5679110288619995 0.12629400193691254
0.06314609944820404 0.6236019730567932 0.1131490021944046
0.07679790258407593 0.6142380237579346 0.09250979870557785
0.06314609944820404 0.6236019730567932 0.07400839775800705
0.05644350126385689 0.46510300040245056 0.09065180271863937
0.0384053997695446 0.5358759760856628 0.08052379637956619
0.03396980091929436 0.5866389870643616 0.0812876969575882
0.05644350126385689 0.4664340019226074 0.10813300311565399
0.03850390017032623 0.5383399724960327 0.1088619977235794
0.03396980091929436 0.5866389870643616 0.10935500264167786
0.0427917018532753 0.6132519841194153 0.08237689733505249
0.0427917018532753 0.6132519841194153 0.1035740002989769
0.055753499269485474 0.4565280079841614 0.0782862976193428
0.055753499269485474 0.46101298928260803 0.12994599342346191
0.05811909958720207 0.4785580039024353 0.11603199690580368
0.05811909958720207 0.47495999932289124 0.08457010239362717
0.08670409768819809 0.46101298928260803 0.12994599342346191
0.07679790258407593 0.4785580039024353 0.11603199690580368
0.08670409768819809 0.4565280079841614 0.0782862976193428
0.07679790258407593 0.47495999932289124 0.08457010239362717
0.07551649957895279 0.4161149859428406 0.12770399451255798
0.07551649957895279 0.4183819890022278 0.0782862976193428
0.055753499269485474 0.4161149859428406 0.12770399451255798
0.055753499269485474 0.4183819890022278 0.0782862976193428
0.08721569925546646 0.4411120116710663 0.13741500675678253
0.08519499748945236 0.46348699927330017 0.12701599299907684
0.0773094967007637 0.43549299240112305 0.14212200045585632
0.0637563019990921 0.45924800634384155 0.126459002494812
0.06045420095324516 0.45146098732948303 0.1177700012922287
0.07509169727563858 0.42977601289749146 0.1385979950428009
0.09278479963541031 0.41173800826072693 0.14026400446891785
0.09490399807691574 0.41370999813079834 0.14014600217342377
0.09470690041780472 0.4154840111732483 0.13555699586868286
0.09081339836120605 0.41183701157569885 0.13576899468898773
0.08307579904794693 0.42923399806022644 0.12965799868106842
0.07903440296649933 0.4490959942340851 0.11092399805784225
0.07886789739131927 0.3930000066757202 0.12604300677776337
0.07886789739131927 0.40389201045036316 0.07915859669446945
0.07438299804925919 0.4339059889316559 0.07843419909477234
0.07438299804925919 0.42996400594711304 0.12682700157165527
0.06541319936513901 0.38851499557495117 0.12294299900531769
0.05644350126385689 0.42099401354789734 0.12582600116729736
0.05644350126385689 0.4247890114784241 0.07829619944095612
0.06541319936513901 0.3974359929561615 0.0807752013206482
0.06314609944820404 0.39748498797416687 0.12294299900531769
0.06768029928207397 0.36032500863075256 0.11991699784994125
0.06768029928207397 0.3711180090904236 0.08565930277109146
0.06314609944820404 0.4017240107059479 0.0821354016661644
0.07886789739131927 0.39748498797416687 0.12604300677776337
0.07438299804925919 0.36259201169013977 0.12194699794054031
0.07438299804925919 0.37471601366996765 0.08383569866418839
0.07886789739131927 0.4068489968776703 0.07906989753246307
0.27837100625038147 0.5979740023612976 0.11531300097703934
0.2518559992313385 0.6250810027122498 0.11610200256109238
0.29902100563049316 0.6078310012817383 0.07927200198173523
0.27837100625038147 0.5979740023612976 0.07095769792795181
0.2518559992313385 0.6250810027122498 0.06851810216903687
0.29902100563049316 0.6078310012817383 0.10766000300645828
0.29404398798942566 0.6250810027122498 0.12994599342346191
0.2316499948501587 0.7128069996833801 0.12508699297904968
0.2316499948501587 0.7128069996833801 0.06556110084056854
0.2843349874019623 0.7137929797172546 0.138931006193161
0.23721900582313538 0.7620909810066223 0.11206900328397751
0.23721900582313538 0.7620909810066223 0.07271719723939896
0.26062899827957153 0.7497699856758118 0.11501199752092361
0.2784700095653534 0.6374019980430603 0.12200699746608734
0.25481298565864563 0.6758440136909485 0.11613000184297562
0.25481298565864563 0.6758440136909485 0.07301290333271027
0.3027670085430145 0.6482440233230591 0.08072590082883835
0.3027670085430145 0.6482440233230591 0.10867500305175781
0.28763699531555176 0.6822509765625 0.12770399451255798
0.31696099042892456 0.6250810027122498 0.09055320173501968
0.3072519898414612 0.6822509765625 0.09618639945983887
0.3158769905567169 0.7113280296325684 0.09677290171384811
0.27428099513053894 0.7655410170555115 0.09106580168008804
0.26417699456214905 0.6078310012817383 0.09327860176563263
0.25703099370002747 0.6374019980430603 0.09455019980669022
0.29404398798942566 0.6250810027122498 0.05580279976129532
0.2843349874019623 0.7137929797172546 0.04910010099411011
0.26062899827957153 0.7497699856758118 0.0672810971736908
0.2784700095653534 0.6374019980430603 0.06845410168170929
0.28763699531555176 0.6822509765625 0.060336899012327194
0.2720629870891571 0.46214601397514343 0.11508800089359283
0.2720629870891571 0.4603720009326935 0.0857430025935173
0.27654799818992615 0.5679110288619995 0.12629400193691254
0.27654799818992615 0.5679110288619995 0.06634960323572159
0.27881500124931335 0.6236019730567932 0.1131490021944046
0.27881500124931335 0.6236019730567932 0.07400839775800705
0.2608259916305542 0.47022899985313416 0.09991230070590973
0.25634101033210754 0.5679110288619995 0.09522540122270584
0.26516300439834595 0.6142380237579346 0.09250979870557785
0.2775830030441284 0.5343970060348511 0.06482180207967758
0.26215699315071106 0.539326012134552 0.09659550338983536
0.2775830030441284 0.5388330221176147 0.1232289969921112
0.28551700711250305 0.46510300040245056 0.09065180271863937
0.28551700711250305 0.4664340019226074 0.10813300311565399
0.30799099802970886 0.5866389870643616 0.0812876969575882
0.30799099802970886 0.5866389870643616 0.10935500264167786
0.29916900396347046 0.6132519841194153 0.08237689733505249
0.29916900396347046 0.6132519841194153 0.1035740002989769
0.30355599522590637 0.5358759760856628 0.08052379637956619
0.30345699191093445 0.5383399724960327 0.1088619977235794
0.286206990480423 0.4565280079841614 0.0782862976193428
0.286206990480423 0.46101298928260803 0.12994599342346191
0.283841997385025 0.4785580039024353 0.11603199690580368
0.283841997385025 0.47495999932289124 0.08457010239362717
0.2552570104598999 0.46101298928260803 0.12994599342346191
0.26516300439834595 0.4785580039024353 0.11603199690580368
0.2552570104598999 0.4565280079841614 0.0782862976193428
0.26516300439834595 0.47495999932289124 0.08457010239362717
0.26644399762153625 0.4161149859428406 0.12770399451255798
0.26644399762153625 0.4183819890022278 0.0782862976193428
0.286206990480423 0.4161149859428406 0.12770399451255798
0.286206990480423 0.4183819890022278 0.0782862976193428
0.24682800471782684 0.41291099786758423 0.14007799327373505
0.24894699454307556 0.4109399914741516 0.14019599556922913
0.2666409909725189 0.42897799611091614 0.13853000104427338
0.2644230127334595 0.4346950054168701 0.1420540064573288
0.2470249980688095 0.4146850109100342 0.13548900187015533
0.25451698899269104 0.4403130114078522 0.1373469978570938
0.25091901421546936 0.41103801131248474 0.1357010006904602
0.25653699040412903 0.46268799901008606 0.12694799900054932
0.27797600626945496 0.45844998955726624 0.1263909935951233
0.28127801418304443 0.4506630003452301 0.11770199984312057
0.25865599513053894 0.4284360110759735 0.1295900046825409
0.2626979947090149 0.44829699397087097 0.11085599660873413
0.27654799818992615 0.38851499557495117 0.12294299900531769
0.28551700711250305 0.42099401354789734 0.12582600116729736
0.28551700711250305 0.4247890114784241 0.07829619944095612
0.27654799818992615 0.3974359929561615 0.0807752013206482
0.2630929946899414 0.3930000066757202 0.12604300677776337
0.2630929946899414 0.40389201045036316 0.07915859669446945
0.26757800579071045 0.4339059889316559 0.07843419909477234
0.26757800579071045 0.42996400594711304 0.12682700157165527
0.27881500124931335 0.39748498797416687 0.12294299900531769
0.27428099513053894 0.36032500863075256 0.11991699784994125
0.27428099513053894 0.3711180090904236 0.08565930277109146
0.27881500124931335 0.4017240107059479 0.0821354016661644
0.2630929946899414 0.39748498797416687 0.12604300677776337
0.26757800579071045 0.36259201169013977 0.12194699794054031
0.26757800579071045 0.37471601366996765 0.08383569866418839
0.2630929946899414 0.4068489968776703 0.07906989753246307
3 1 0 3
3 4 0 2
3 7 8 3
3 0 7 3
3 5 3 8
3 8 9 5
3 10 9 8
3 8 4 6
3 6 10 8
3 4 8 7
3 7 0 4
3 0 1 2
3 1 15 2
3 1 12 15
3 12 1 3
3 15 11 2
3 13 11 15
3 15 16 13
3 15 12 14
3 14 16 15
3 16 14 5
3 16 5 9
3 16 9 10
3 6 13 16
3 10 6 16
3 4 2 11
3 3 5 14
3 14 12 3
3 4 11 13
3 6 4 13
3 27 23 24
3 26 24 23
3 23 25 26
3 25 23 20
3 21 25 20
3 20 23 27
3 27 19 20
3 18 24 26
3 26 22 18
3 27 24 18
3 17 27 18
3 36 31 19
3 36 19 27
3 17 29 36
3 27 17 36
3 33 30 34
3 35 33 34
3 34 30 31
3 31 36 34
3 20 30 33
3 33 21 20
3 20 19 31
3 31 30 20
3 34 28 32
3 32 35 34
3 29 28 34
3 36 29 34
3 25 21 33
3 26 25 33
3 32 22 26
3 35 32 26
3 33 35 26
3 32 28 18
3 22 32 18
3 29 17 18
3 18 28 29
3 38 43 41
3 37 38 41
3 38 37 40
3 40 39 38
3 40 37 41
3 42 40 41
3 48 47 44
3 44 45 48
3 47 48 40
3 40 42 47
3 46 49 48
3 48 45 46
3 48 49 39
3 40 48 39
3 45 44 53
3 54 46 45
3 54 45 53
3 43 50 41
3 51 50 43
3 52 51 43
3 41 50 51
3 51 42 41
3 52 43 38
3 39 52 38
3 47 55 53
3 53 44 47
3 47 42 51
3 51 55 47
3 54 56 49
3 49 46 54
3 54 53 55
3 56 54 55
3 56 52 39
3 39 49 56
3 55 51 52
3 52 56 55
3 59 58 57
3 60 59 57
3 62 61 57
3 57 58 62
3 64 63 58
3 59 64 58
3 65 62 58
3 58 63 65
3 61 62 66
3 67 61 66
3 65 68 66
3 66 62 65
3 71 67 66
3 66 70 71
3 70 66 68
3 68 69 70
3 64 59 60
3 60 57 72
3 72 57 61
3 73 72 61
3 64 60 72
3 74 64 72
3 72 73 75
3 75 74 72
3 63 64 74
3 65 63 74
3 65 74 75
3 76 73 61
3 76 61 67
3 73 76 77
3 75 73 77
3 77 68 65
3 65 75 77
3 78 76 67
3 71 78 67
3 77 76 78
3 78 79 77
3 68 77 79
3 79 69 68
3 81 80 84
3 83 82 81
3 84 83 81
3 86 85 89
3 87 86 89
3 89 88 87
3 89 85 90
3 80 81 91
3 88 82 83
3 87 88 83
3 80 85 86
3 84 80 86
3 87 83 84
3 86 87 84
3 93 92 89
3 89 81 93
3 89 92 94
3 88 89 94
3 88 94 95
3 82 88 95
3 95 93 81
3 81 82 95
3 89 90 91
3 81 89 91
3 94 92 93
3 95 94 93
3 98 97 96
3 99 98 96
3 98 99 101
3 102 98 101
3 98 102 103
3 103 97 98
3 102 101 100
3 103 102 100
3 99 96 100
3 101 99 100
3 97 103 100
3 100 96 97
3 109 108 107
3 111 52 108
3 109 111 108
3 111 109 107
3 107 110 111
3 104 112 113
3 113 105 104
3 113 112 111
3 111 110 113
3 106 114 112
3 104 106 112
3 52 111 112
3 112 114 52
3 105 115 104
3 116 106 115
3 115 106 104
3 108 117 107
3 117 118 107
3 119 118 117
3 117 39 119
3 119 110 107
3 118 119 107
3 52 39 117
3 108 52 117
3 105 113 120
3 120 115 105
3 119 120 113
3 113 110 119
3 121 114 106
3 106 116 121
3 120 121 116
3 116 115 120
3 39 52 114
3 114 121 39
3 120 119 39
3 121 120 39
3 124 125 122
3 123 124 122
3 122 126 127
3 127 123 122
3 129 124 123
3 128 129 123
3 123 127 130
3 130 128 123
3 126 132 131
3 127 126 131
3 131 133 130
3 130 127 131
3 131 132 136
3 136 135 131
3 133 131 135
3 135 134 133
3 124 129 125
3 122 125 137
3 137 138 126
3 122 137 126
3 129 139 137
3 125 129 137
3 140 138 137
3 137 139 140
3 129 128 139
3 130 140 139
3 139 128 130
3 141 132 126
3 126 138 141
3 138 140 142
3 141 138 142
3 130 133 142
3 142 140 130
3 143 136 132
3 141 143 132
3 143 141 142
3 142 144 143
3 144 142 133
3 133 134 144
3 149 145 146
3 148 149 146
3 146 147 148
3 154 150 151
3 152 153 154
3 151 152 154
3 150 154 155
3 146 145 156
3 153 152 148
3 147 153 148
3 145 149 151
3 150 145 151
3 152 151 149
3 148 152 149
3 154 157 158
3 158 146 154
3 154 153 159
3 157 154 159
3 153 147 160
3 159 153 160
3 146 158 160
3 160 147 146
3 154 146 156
3 155 154 156
3 159 160 158
3 157 159 158
3 163 164 161
3 162 163 161
3 163 167 166
3 164 163 166
3 168 167 163
3 163 162 168
3 167 168 165
3 166 167 165
3 164 166 165
3 161 164 165
3 165 168 162
3 162 161 165
3 173 169 175
3 171 172 169
3 171 169 170
3 169 172 175
3 174 170 169
3 174 169 173
3 176 173 175
3 176 172 171
3 176 171 177
3 172 176 175
3 176 177 174
3 176 174 173
3 189 187 188
3 188 190 189
3 187 186 188
3 192 183 184
3 192 184 182
3 187 184 183
3 183 186 187
3 182 184 187
3 189 182 187
3 179 191 180
3 178 180 191
3 179 180 188
3 186 179 188
3 190 188 180
3 178 190 180
3 193 185 182
3 193 182 189
3 193 189 190
3 178 181 193
3 190 178 193
3 196 186 183
3 183 195 196
3 196 195 185
3 185 193 196
3 183 192 195
3 192 185 195
3 182 185 192
3 196 194 179
3 179 186 196
3 181 194 196
3 193 181 196
3 191 179 194
3 181 191 194
3 191 181 178
3 201 207 208
3 205 209 206
3 198 205 206
3 203 204 199
3 197 203 199
3 202 204 203
3 203 200 202
3 211 201 208
3 210 212 209
3 205 210 209
3 211 208 212
3 210 211 212
3 208 209 212
3 198 197 199
3 202 200 201
3 199 210 205
3 205 198 199
3 211 210 202
3 202 201 211
3 225 216 214
3 214 224 225
3 213 215 225
3 224 213 225
3 218 216 225
3 225 226 218
3 225 215 217
3 217 226 225
3 221 223 220
3 223 219 220
3 222 221 220
3 219 222 220
3 233 228 213
3 213 224 233
3 214 227 233
3 224 214 233
3 234 230 228
3 228 233 234
3 227 229 234
3 233 227 234
3 232 230 234
3 234 235 232
3 234 229 231
3 231 235 234
3 232 235 226
3 226 217 232
3 226 235 231
3 218 226 231
3 228 230 215
3 215 213 228
3 227 214 216
3 229 227 216
3 230 232 217
3 217 215 230
3 229 216 218
3 231 229 218
3 238 237 236
3 239 237 238
3 241 237 240
3 236 237 241
3 244 243 242
3 245 243 244
3 248 247 246
3 249 247 248
3 250 245 244
3 251 245 250
3 253 246 252
3 248 246 253
3 238 250 239
3 253 241 240
3 251 250 238
3 251 238 236
3 254 251 236
3 254 236 241
3 252 254 241
3 253 252 241
3 257 256 255
3 257 258 256
3 259 255 256
3 256 260 259
3 256 258 261
3 261 260 256
3 260 262 259
3 261 262 260
3 263 247 249
3 263 249 242
3 263 242 243
3 264 246 247
3 247 263 264
3 243 245 264
3 263 243 264
3 254 252 246
3 264 254 246
3 254 264 245
3 251 254 245
3 222 223 221
3 223 222 219
3 244 249 248
3 242 249 244
3 287 278 276
3 265 266 267
3 266 268 267
3 270 271 269
3 272 271 270
3 270 273 272
3 275 269 271
3 271 274 275
3 277 276 278
3 278 279 277
3 279 280 281
3 281 277 279
3 266 281 280
3 268 266 280
3 282 275 274
3 283 282 274
3 272 283 274
3 274 271 272
3 287 284 285
3 285 286 287
3 289 288 286
3 286 285 289
3 286 279 278
3 278 287 286
3 286 288 280
3 280 279 286
3 289 265 267
3 288 289 267
3 288 267 268
3 280 288 268
3 284 287 276
3 276 293 284
3 290 266 265
3 270 269 291
3 273 270 291
3 276 277 292
3 293 276 292
3 292 277 281
3 294 292 281
3 290 294 281
3 281 266 290
3 275 282 291
3 291 269 275
3 293 292 285
3 285 284 293
3 294 289 285
3 285 292 294
3 290 265 289
3 289 294 290
3 297 298 295
3 296 297 295
3 296 295 299
3 300 296 299
3 301 302 297
3 297 296 301
3 300 303 301
3 301 296 300
3 305 306 304
3 298 297 302
3 305 300 299
3 306 305 299
3 305 304 303
3 300 305 303
3 307 308 295
3 298 307 295
3 308 309 299
3 299 295 308
3 310 311 308
3 307 310 308
3 311 312 309
3 308 311 309
3 310 302 301
3 311 310 301
3 303 312 311
3 311 301 303
3 298 302 310
3 310 307 298
3 314 304 306
3 306 313 314
3 313 306 299
3 299 309 313
3 314 313 309
3 309 312 314
3 303 304 314
3 312 303 314
3 320 317 316
3 319 320 316
3 320 319 321
3 321 322 320
3 322 321 315
3 315 318 322
3 321 319 323
3 324 321 323
3 316 325 323
3 323 319 316
3 318 317 320
3 320 322 318
3 324 326 315
3 321 324 315
3 325 326 324
3 324 323 325
3 317 318 315
3 316 317 315
3 315 326 325
3 316 315 325
3 332 333 334
3 329 332 334
3 329 334 335
3 327 329 335
3 336 333 332
3 330 329 327
3 327 328 330
3 331 332 329
3 330 331 329
3 335 336 337
3 337 327 335
3 332 337 336
3 338 328 327
3 337 338 327
3 337 332 331
3 338 337 331
3 335 334 333
3 336 335 333
3 342 339 340
3 340 341 342
3 344 343 339
3 339 342 344
3 341 345 344
3 342 341 344
3 340 346 345
3 341 340 345
3 343 346 340
3 340 339 343
3 346 343 344
3 344 345 346
3 349 348 347
3 350 349 347
3 353 354 351
3 352 353 351
3 352 351 347
3 348 352 347
3 353 352 348
3 349 353 348
3 353 349 350
3 350 354 353
3 354 350 347
3 347 351 354
3 374 361 356
3 367 377 365
3 355 378 358
3 368 379 378
3 378 355 368
3 357 360 355
3 357 355 358
3 361 374 375
3 375 373 361
3 376 364 373
3 373 375 376
3 377 367 364
3 376 377 364
3 371 372 360
3 357 371 360
3 360 372 368
3 368 355 360
3 370 359 356
3 356 369 370
3 369 362 363
3 363 370 369
3 361 373 369
3 369 356 361
3 364 362 369
3 369 373 364
3 363 362 365
3 366 363 365
3 362 364 367
3 365 362 367
3 374 356 359
3 359 380 374
3 377 382 366
3 377 366 365
3 378 379 383
3 358 378 383
3 374 380 384
3 375 374 384
3 384 381 376
3 375 384 376
3 376 381 382
3 382 377 376
3 383 371 357
3 357 358 383
3 370 384 380
3 380 359 370
3 370 363 381
3 381 384 370
3 363 366 382
3 382 381 363
3 391 395 394
3 386 391 394
3 395 392 388
3 394 395 388
3 396 395 391
3 391 385 396
3 392 395 396
3 392 396 387
3 390 393 389
3 391 386 385
3 393 390 388
3 392 393 388
3 393 392 387
3 389 393 387
3 397 386 394
3 403 397 394
3 388 399 403
3 403 394 388
3 398 397 403
3 404 398 403
3 404 403 399
3 400 404 399
3 398 404 396
3 385 398 396
3 404 400 387
3 387 396 404
3 398 385 386
3 386 397 398
3 390 389 402
3 402 401 390
3 388 390 401
3 401 399 388
3 399 401 402
3 402 400 399
3 387 400 402
3 389 387 402
3 407 406 405
3 408 407 405
3 410 409 406
3 407 410 406
3 405 411 412
3 412 408 405
3 413 415 406
3 406 409 413
3 410 407 408
3 408 412 410
3 414 411 405
3 416 414 405
3 414 416 415
3 415 413 414
3 405 406 415
3 416 405 415
3 411 409 410
3 410 412 411
3 411 414 413
3 409 411 413
3 419 420 417
3 418 419 417
3 420 422 421
3 417 420 421
3 419 418 423
3 422 420 425
3 425 424 422
3 426 425 420
3 419 426 420
3 427 423 421
3 421 422 427
3 423 427 419
3 428 427 422
3 424 428 422
3 427 428 426
3 419 427 426
3 421 423 418
3 417 421 418
3 430 429 432
3 432 431 430
3 434 433 436
3 436 435 434
3 433 429 430
3 430 436 433
3 435 436 430
3 431 435 430
3 434 435 431
3 432 434 431
3 434 432 429
3 429 433 434
3 439 440 437
3 438 439 437
3 443 442 441
3 444 443 441
3 442 438 437
3 441 442 437
3 443 439 438
3 442 443 438
3 440 439 443
3 443 444 440
3 437 440 444
3 444 441 437
