ply
format ascii 1.0
element vertex 467
property float x
property float y
property float z
element face 870
property list uchar int vertex_indices
end_header
0.14444600045681 0.894195020198822 0.18524600565433502
0.13600100576877594 0.8905190229415894 0.17385099828243256
0.12571999430656433 0.8722599744796753 0.17247599363327026
0.1169160008430481 0.8754760026931763 0.15619899332523346
0.11421000212430954 0.8789830207824707 0.14186100661754608
0.11299099773168564 0.8842080235481262 0.12328699976205826
0.15325500071048737 0.8900690078735352 0.1753779947757721
0.16288000345230103 0.8719320297241211 0.17218300700187683
0.17059800028800964 0.8752509951591492 0.15443800389766693
0.17408999800682068 0.8786699771881104 0.14149799942970276
0.1756729930639267 0.8813170194625854 0.12319400161504745
0.14449000358581543 0.9032999873161316 0.179967999458313
0.14452999830245972 0.9171280264854431 0.17307700216770172
0.14456099271774292 0.9329670071601868 0.1732330024242401
0.14381299912929535 0.937516987323761 0.1672849953174591
0.11923500150442123 0.8709189891815186 0.10961800068616867
0.16992700099945068 0.8742669820785522 0.10959400236606598
0.1788569986820221 0.8949130177497864 0.10715699940919876
0.11028999835252762 0.8947669863700867 0.10731799900531769
0.14439700543880463 0.8720620274543762 0.17406000196933746
0.13418400287628174 0.8591840267181396 0.16987699270248413
0.1548440009355545 0.8590630292892456 0.17010800540447235
0.12951600551605225 0.8585609793663025 0.15255899727344513
0.14443400502204895 0.8528590202331543 0.1497199982404709
0.16071300208568573 0.8582829833030701 0.15276400744915009
0.1275320053100586 0.8589180111885071 0.12943899631500244
0.16267099976539612 0.8579069972038269 0.12922200560569763
0.15011000633239746 0.9013069868087769 0.17575600743293762
0.17246299982070923 0.9038220047950745 0.17137299478054047
0.15998399257659912 0.9189710021018982 0.16963499784469604
0.17922000586986542 0.9012759923934937 0.15718799829483032
0.1773490011692047 0.9304739832878113 0.16263599693775177
0.16423200070858002 0.9335089921951294 0.16969700157642365
0.18105000257492065 0.9069870114326477 0.13110099732875824
0.18222199380397797 0.9216650128364563 0.1402910053730011
0.13919800519943237 0.901623010635376 0.17557699978351593
0.12905000150203705 0.9190459847450256 0.17017999291419983
0.11711200326681137 0.9037190079689026 0.1716269999742508
0.12595100700855255 0.9340590238571167 0.17005600035190582
0.11254499852657318 0.9310600161552429 0.1628589928150177
0.10887300223112106 0.900143027305603 0.15724800527095795
0.12470100075006485 0.9398970007896423 0.16336500644683838
0.1077750027179718 0.9222710132598877 0.14078499376773834
0.10856100171804428 0.9072809815406799 0.1318410038948059
0.12392300367355347 0.8768010139465332 0.09654580056667328
0.135684996843338 0.8783259987831116 0.09301450103521347
0.15369799733161926 0.8784859776496887 0.09141670167446136
0.16568799316883087 0.877964973449707 0.09598640352487564
0.14416499435901642 0.8480209708213806 0.14287999272346497
0.11769399791955948 0.8440290093421936 0.1074490025639534
0.17069199681282043 0.8434470295906067 0.10679300129413605
0.12053000181913376 0.8345760107040405 0.12658199667930603
0.1675969958305359 0.83303302526474 0.12689700722694397
0.12002400308847427 0.8489429950714111 0.0954924002289772
0.1439329981803894 0.8213430047035217 0.13665400445461273
0.14411500096321106 0.8515980243682861 0.09155680239200592
0.16907000541687012 0.8484309911727905 0.0950412005186081
0.185712993144989 0.07698380202054977 0.0908190980553627
0.20376600325107574 0.12254700064659119 0.07795199751853943
0.1968419998884201 0.12802700698375702 0.053320299834012985
0.17451299726963043 0.1280200034379959 0.05334969982504845
0.16763700544834137 0.12253600358963013 0.07799959927797318
0.18571600317955017 0.11915399879217148 0.09320460259914398
0.21573500335216522 0.2574920058250427 0.11103200167417526
0.20422300696372986 0.2651660144329071 0.07642419636249542
0.1670989990234375 0.26515600085258484 0.07646539807319641
0.1556680053472519 0.2574769854545593 0.1110989972949028
0.18572600185871124 0.2527430057525635 0.1324629932641983
0.21022899448871613 0.3163450062274933 0.130172997713089
0.2008270025253296 0.3240100145339966 0.09559410065412521
0.17050999402999878 0.3240019977092743 0.0956353023648262
0.1611739993095398 0.3163299858570099 0.13023999333381653
0.1857219934463501 0.3115989863872528 0.15158599615097046
0.21213999390602112 0.32832300662994385 0.13109999895095825
0.202005997300148 0.3291099965572357 0.09496550261974335
0.16932600736618042 0.3291099965572357 0.09500859677791595
0.1592629998922348 0.32832199335098267 0.13117000460624695
0.18572300672531128 0.32783499360084534 0.15347500145435333
0.22036099433898926 0.4190869927406311 0.13304799795150757
0.203452005982399 0.39677900075912476 0.09292919933795929
0.17239999771118164 0.3967980146408081 0.09202100336551666
0.15447300672531128 0.41908499598503113 0.1331299990415573
0.1879960000514984 0.41851699352264404 0.15918399393558502
0.20005500316619873 0.07990819960832596 0.07561089843511581
0.19505199790000916 0.0886847972869873 0.0410224013030529
0.1789180040359497 0.08867719769477844 0.04105129837989807
0.17395000159740448 0.0798954963684082 0.07565770298242569
0.1268720030784607 0.11398299783468246 0.12437800318002701
0.11994799971580505 0.11443399637937546 0.0996427983045578
0.09761880338191986 0.11443299800157547 0.09967239946126938
0.09074299782514572 0.11398199945688248 0.12442599982023239
0.10882200300693512 0.11370299756526947 0.13969500362873077
0.13884100317955017 0.25795501470565796 0.1295589953660965
0.1273290067911148 0.2587299942970276 0.09411860257387161
0.0902056023478508 0.2587279975414276 0.09416099637746811
0.07877379655838013 0.2579529881477356 0.12962700426578522
0.10883200168609619 0.2574790120124817 0.1515049934387207
0.13333499431610107 0.3194110095500946 0.1368509978055954
0.12393300235271454 0.32018300890922546 0.10144100338220596
0.09361600130796432 0.32018300890922546 0.10148300230503082
0.0842801034450531 0.31940901279449463 0.13691900670528412
0.10882800072431564 0.3189319968223572 0.15877799689769745
0.13524599373340607 0.33438101410865784 0.13545799255371094
0.12511199712753296 0.32748299837112427 0.09997929632663727
0.09243220090866089 0.32749199867248535 0.10002200305461884
0.08236870169639587 0.3343929946422577 0.13552699983119965
0.10882899910211563 0.33783599734306335 0.15905900299549103
0.1397310048341751 0.4255169928073883 0.12694799900054932
0.12195499986410141 0.3965969979763031 0.09023790061473846
0.09103850275278091 0.396602988243103 0.09028760343790054
0.07334929704666138 0.42552998661994934 0.12702900171279907
0.10656700283288956 0.42938199639320374 0.15769599378108978
0.12164299935102463 0.07201860100030899 0.1301559954881668
0.11668600142002106 0.07492340356111526 0.09557600319385529
0.10069800168275833 0.07364819943904877 0.09486790001392365
0.09577479958534241 0.07201319932937622 0.13020500540733337
0.10871999710798264 0.07209189981222153 0.1470929980278015
0.24456700682640076 0.6920220255851746 0.09644979983568192
0.2289620041847229 0.6961920261383057 0.11486200243234634
0.24341000616550446 0.6994450092315674 0.1375419944524765
0.2555679976940155 0.7024710178375244 0.12846200168132782
0.26401400566101074 0.7002630233764648 0.109654001891613
0.24226799607276917 0.46177101135253906 0.16773000359535217
0.245510995388031 0.45846301317214966 0.16848300397396088
0.24404199421405792 0.45944198966026306 0.1725669950246811
0.24088600277900696 0.46264100074768066 0.1709579974412918
0.2491540014743805 0.4737449884414673 0.1654050052165985
0.25537601113319397 0.4729590117931366 0.16610300540924072
0.2537800073623657 0.4749029874801636 0.17284700274467468
0.247856006026268 0.4752489924430847 0.1708340048789978
0.2537029981613159 0.4927090108394623 0.15858399868011475
0.2590309977531433 0.492141991853714 0.1596599966287613
0.23609599471092224 0.4614979922771454 0.17584100365638733
0.23917299509048462 0.4578950107097626 0.17686299979686737
0.23757900297641754 0.45902401208877563 0.18110600113868713
0.23452599346637726 0.46266400814056396 0.1797569990158081
0.24674299359321594 0.47476598620414734 0.1739799976348877
0.2529259920120239 0.4740529954433441 0.17685499787330627
0.25002801418304443 0.47639000415802 0.18264199793338776
0.24393799901008606 0.4770340025424957 0.1795790046453476
0.24987000226974487 0.49311500787734985 0.1661749929189682
0.25540098547935486 0.4928019940853119 0.16946199536323547
0.2482450008392334 0.47207701206207275 0.15811799466609955
0.2508380115032196 0.46931201219558716 0.15794099867343903
0.25040000677108765 0.4696039855480194 0.16149300336837769
0.24770699441432953 0.4723829925060272 0.16099700331687927
0.2525460124015808 0.4820300042629242 0.15532200038433075
0.2575390040874481 0.48090699315071106 0.15470600128173828
0.2578350007534027 0.4821949899196625 0.16030099987983704
0.2527489960193634 0.4829930067062378 0.1598930060863495
0.25550299882888794 0.4940490126609802 0.1521099954843521
0.2607229948043823 0.4939019978046417 0.15262700617313385
0.23366999626159668 0.46703198552131653 0.18606099486351013
0.23580199480056763 0.46342599391937256 0.18811100721359253
0.23346899449825287 0.46535399556159973 0.19162599742412567
0.23141999542713165 0.4689129889011383 0.18927200138568878
0.24308200180530548 0.4774329960346222 0.18269400298595428
0.24842199683189392 0.476375013589859 0.1856829971075058
0.2451000064611435 0.4798850119113922 0.19171999394893646
0.23983900249004364 0.4808320105075836 0.1885789930820465
0.24549500644207 0.4956369996070862 0.17313100397586823
0.25048500299453735 0.4960959851741791 0.17719699442386627
0.23535099625587463 0.4891819953918457 0.19329200685024261
0.23369500041007996 0.48982200026512146 0.190760999917984
0.2361370027065277 0.48941099643707275 0.18851299583911896
0.23925699293613434 0.4886769950389862 0.18972299993038177
0.23935000598430634 0.5060489773750305 0.19053399562835693
0.2346310019493103 0.5047100186347961 0.18703299760818481
0.23932600021362305 0.5013989806175232 0.1815280020236969
0.2440599948167801 0.5032740235328674 0.18435299396514893
0.23948100209236145 0.516772985458374 0.18336500227451324
0.23474599421024323 0.5127710103988647 0.18078500032424927
0.24178899824619293 0.5047810077667236 0.17975300550460815
0.24604900181293488 0.5054960250854492 0.18285900354385376
0.2470030039548874 0.523838996887207 0.15446700155735016
0.2519550025463104 0.5216130018234253 0.14576900005340576
0.24116399884223938 0.5270829796791077 0.1637440025806427
0.2429099977016449 0.5310919880867004 0.1694529950618744
0.25766900181770325 0.5255849957466125 0.1612119972705841
0.25788500905036926 0.5224469900131226 0.14695300161838531
0.24472999572753906 0.6325910091400146 0.10558000206947327
0.23736999928951263 0.6357070207595825 0.13575699925422668
0.2502650022506714 0.6355109810829163 0.14555999636650085
0.2626279890537262 0.6379340291023254 0.13853499293327332
0.2716529965400696 0.6402220129966736 0.11943099647760391
0.24427899718284607 0.6444960236549377 0.10377699881792068
0.2378620058298111 0.6447359919548035 0.13347099721431732
0.2505649924278259 0.6438390016555786 0.14330899715423584
0.26281800866127014 0.6457909941673279 0.13586799800395966
0.27150899171829224 0.6491529941558838 0.11664199829101562
0.04299150034785271 0.6972470283508301 0.0650395005941391
0.06565169990062714 0.6906970143318176 0.0722000002861023
0.06446990370750427 0.6868640184402466 0.09672299772500992
0.04888390004634857 0.6886940002441406 0.10561499744653702
0.03199649974703789 0.6916829943656921 0.09163899719715118
0.049541499465703964 0.4764010012149811 0.16833600401878357
0.05224810168147087 0.47982001304626465 0.16587699949741364
0.05333530157804489 0.4811280071735382 0.16951200366020203
0.05067969858646393 0.4778200089931488 0.17237000167369843
0.03902279958128929 0.4896849989891052 0.16204600036144257
0.04499420151114464 0.49216800928115845 0.16021500527858734
0.04623920097947121 0.4950059950351715 0.16532200574874878
0.04071569815278053 0.4933600127696991 0.16839900612831116
0.05431060120463371 0.4780380129814148 0.17712000012397766
0.05740920081734657 0.48263999819755554 0.17283500730991364
0.05888960137963295 0.48372599482536316 0.17804400622844696
0.05642310157418251 0.4798479974269867 0.18149599432945251
0.040925901383161545 0.49258100986480713 0.17177599668502808
0.046775199472904205 0.49457600712776184 0.16757699847221375
0.0500825010240078 0.4980199933052063 0.17299099266529083
0.044339701533317566 0.49610498547554016 0.1773570030927658
0.03731660172343254 0.5106310248374939 0.15995800495147705
0.04322139918804169 0.5102260112762451 0.15638099610805511
0.04384069889783859 0.48563700914382935 0.15482300519943237
0.046039700508117676 0.48861798644065857 0.15346799790859222
0.04604420065879822 0.4895319938659668 0.15659500658512115
0.04377000033855438 0.4865860044956207 0.1582150012254715
0.03692470118403435 0.49585801362991333 0.1483830064535141
0.041539501398801804 0.4985029995441437 0.14796499907970428
0.041384000331163406 0.5006300210952759 0.15229499340057373
0.036641500890254974 0.49852800369262695 0.15362200140953064
0.03368460014462471 0.5089370012283325 0.14215800166130066
0.03903549909591675 0.5090190172195435 0.14201200008392334
0.04036010056734085 0.5088819861412048 0.14931200444698334
0.03496289998292923 0.5086939930915833 0.15060999989509583
0.05769279971718788 0.48663899302482605 0.18373200297355652
0.05894630029797554 0.48982900381088257 0.17962899804115295
0.06173260137438774 0.49270299077033997 0.1833920031785965
0.0603765994310379 0.4893510043621063 0.18748199939727783
0.045672498643398285 0.4994780123233795 0.17899300158023834
0.05031000077724457 0.5016540288925171 0.17450299859046936
0.053708601742982864 0.5061669945716858 0.17930500209331512
0.049147799611091614 0.5041459798812866 0.18392199277877808
0.042735300958156586 0.5165320038795471 0.16736799478530884
0.04849090054631233 0.5157060027122498 0.16388599574565887
0.06269679963588715 0.5183979868888855 0.18285700678825378
0.060820501297712326 0.5186939835548401 0.1856430023908615
0.05614349991083145 0.5169320106506348 0.1819390058517456
0.059281498193740845 0.5169680118560791 0.1804949939250946
0.06213710084557533 0.5282620191574097 0.1745920032262802
0.05752990022301674 0.531682014465332 0.17770899832248688
0.05141729861497879 0.5258319973945618 0.1732960045337677
0.05688590183854103 0.5251550078392029 0.170181006193161
0.06041169911623001 0.5340030193328857 0.16517500579357147
0.05541739985346794 0.5394309759140015 0.16649700701236725
0.04915979877114296 0.5258100032806396 0.16818200051784515
0.05441480129957199 0.5272060036659241 0.16665999591350555
0.04692859947681427 0.5405359864234924 0.1368589997291565
0.03906739875674248 0.6561939716339111 0.05537769943475723
0.05927259847521782 0.6511819958686829 0.06905870139598846
0.05936700105667114 0.6454039812088013 0.09201990067958832
0.043928198516368866 0.6480600237846375 0.09669630229473114
0.027883199974894524 0.653643012046814 0.08327270299196243
0.03710370138287544 0.632332980632782 0.054378099739551544
0.05758339911699295 0.628931999206543 0.07175900042057037
0.059339698404073715 0.6337590217590332 0.09174700081348419
0.04501760005950928 0.6388120055198669 0.09885039925575256
0.027844199910759926 0.6371369957923889 0.08457949757575989
0.03667619824409485 0.5346540212631226 0.12964800000190735
0.04027330130338669 0.5382999777793884 0.13148599863052368
0.055656798183918 0.5486239790916443 0.14131799340248108
0.050118301063776016 0.5517740249633789 0.1460929960012436
0.037108998745679855 0.5430160164833069 0.1390710026025772
0.11295100301504135 0.623665988445282 0.16914799809455872
0.0734528973698616 0.7127439975738525 0.16503199934959412
0.09558559954166412 0.7107639908790588 0.17229899764060974
0.06656250357627869 0.7192569971084595 0.13545499742031097
0.06813690066337585 0.7419580221176147 0.17054599523544312
0.09192050248384476 0.7475969791412354 0.1855030059814453
0.06497280299663544 0.7739229798316956 0.15756799280643463
0.09578490257263184 0.7822629809379578 0.16365399956703186
0.07164280116558075 0.8061519861221313 0.13923700153827667
0.10044500231742859 0.8050349950790405 0.14929799735546112
0.07001739740371704 0.7202469706535339 0.09401369839906693
0.08427970111370087 0.7133859992027283 0.07422500103712082
0.07527250051498413 0.7334790229797363 0.07030250132083893
0.07828780263662338 0.8002359867095947 0.0731784999370575
0.06084970012307167 0.8219370245933533 0.09722600132226944
0.07784389704465866 0.8263800144195557 0.08247970044612885
0.14332400262355804 0.7122269868850708 0.07117860019207001
0.2087939977645874 0.7133820056915283 0.0743224024772644
0.1433670073747635 0.7338650226593018 0.06918749958276749
0.21629099547863007 0.7334650158882141 0.06966300308704376
0.14312100410461426 0.8015220165252686 0.07228150218725204
0.2105409950017929 0.7971929907798767 0.0742345005273819
0.14362099766731262 0.8280100226402283 0.07981409877538681
0.21593700349330902 0.824413001537323 0.08114899694919586
0.21713100373744965 0.6249650120735168 0.1257839947938919
0.21940499544143677 0.7167969942092896 0.09299760311841965
0.2190060019493103 0.7158420085906982 0.13655200600624084
0.22852300107479095 0.8212710022926331 0.09745249897241592
0.20807400345802307 0.6239569783210754 0.1589280068874359
0.18037199974060059 0.6238809823989868 0.17255400121212006
0.21195800602436066 0.712785005569458 0.16479800641536713
0.1899310052394867 0.7101110219955444 0.17240500450134277
0.21671299636363983 0.7476209998130798 0.17279399931430817
0.1972920000553131 0.7486850023269653 0.1846109926700592
0.21851900219917297 0.7729570269584656 0.16009600460529327
0.19113799929618835 0.7832090258598328 0.16254200041294098
0.21536900103092194 0.8055949807167053 0.13691100478172302
0.18955199420452118 0.8051270246505737 0.14797300100326538
0.1454010009765625 0.6239399909973145 0.16861900687217712
0.14428099989891052 0.7065079808235168 0.17765800654888153
0.1441500037908554 0.7423009872436523 0.18527700006961823
0.14379900693893433 0.7827290296554565 0.16035200655460358
0.2595219910144806 0.6702669858932495 0.09434089809656143
0.22804999351501465 0.6668969988822937 0.10369499772787094
0.23414300382137299 0.679302990436554 0.14305700361728668
0.2584480047225952 0.6843950152397156 0.14164899289608002
0.2723959982395172 0.682220995426178 0.12039700150489807
0.2399200052022934 0.8005329966545105 0.07952339947223663
0.21996599435806274 0.7318189740180969 0.08331160247325897
0.21983399987220764 0.7441269755363464 0.1417810022830963
0.23443999886512756 0.7953289747238159 0.13359299302101135
0.24557800590991974 0.8151000142097473 0.10353700071573257
0.04747610166668892 0.8061400055885315 0.07913190126419067
0.06429190188646317 0.7294110059738159 0.08257140219211578
0.058978501707315445 0.7435070276260376 0.13932600617408752
0.04737690091133118 0.7917050123214722 0.1373479962348938
0.04382710158824921 0.8149780035018921 0.10468299686908722
0.037828899919986725 0.6803039908409119 0.06114409863948822
0.06855560094118118 0.677528977394104 0.06355589628219604
0.06587570160627365 0.6692289710044861 0.10056699812412262
0.042707398533821106 0.6739779710769653 0.10634700208902359
0.02500000037252903 0.6787430047988892 0.0889907032251358
0.10516300052404404 0.6242020130157471 0.0982804000377655
0.0855725035071373 0.623986005783081 0.11067099869251251
0.07411929965019226 0.62363600730896 0.13068599998950958
0.0847788006067276 0.6232330203056335 0.15384100377559662
0.20873600244522095 0.6249129772186279 0.11010999977588654
0.18427500128746033 0.6245660185813904 0.09703239798545837
0.14483900368213654 0.6244369745254517 0.0848022997379303
0.14650900661945343 0.9497079849243164 0.171766996383667
0.14449700713157654 0.955947995185852 0.17184099555015564
0.143653005361557 0.9699220061302185 0.14631199836730957
0.19290600717067719 0.8987950086593628 0.1021450012922287
0.19208499789237976 0.9150270223617554 0.09837090224027634
0.1872750073671341 0.947163999080658 0.10382299870252609
0.17671699821949005 0.9679049849510193 0.11083400249481201
0.15973100066184998 0.9746720194816589 0.11964999884366989
0.12894800305366516 0.9750000238418579 0.11983799934387207
0.1119839996099472 0.9693940281867981 0.11212600022554398
0.10179899632930756 0.9471700191497803 0.10364600270986557
0.09934280067682266 0.9156039953231812 0.10020100325345993
0.09715309739112854 0.901531994342804 0.10231299698352814
0.18824699521064758 0.9425430297851562 0.15939000248908997
0.17030900716781616 0.9453409910202026 0.1682479977607727
0.19594599306583405 0.9145299792289734 0.126118004322052
0.19554199278354645 0.9266350269317627 0.1381320059299469
0.18707500398159027 0.9583920240402222 0.1419450044631958
0.17122499644756317 0.9683610200881958 0.1449739933013916
0.12233000248670578 0.9508519768714905 0.1668969988822937
0.10363800078630447 0.9447420239448547 0.1548600047826767
0.11817000061273575 0.9671919941902161 0.1440100073814392
0.10270799696445465 0.9580960273742676 0.14206600189208984
0.09423349797725677 0.9319459795951843 0.13772399723529816
0.0927928015589714 0.9196990132331848 0.1216680034995079
0.11098100244998932 0.8754090070724487 0.09032449871301651
0.11167000234127045 0.9142259955406189 0.08333290368318558
0.13423700630664825 0.862762987613678 0.0862215980887413
0.12923400104045868 0.9474499821662903 0.08078479766845703
0.1440420001745224 0.9106550216674805 0.07747499644756317
0.1527480036020279 0.8627340197563171 0.08527339994907379
0.14215399324893951 0.9660329818725586 0.09772980213165283
0.15569399297237396 0.949163019657135 0.08463320136070251
0.17624899744987488 0.9157029986381531 0.08654399961233139
0.17810200154781342 0.8722320199012756 0.09150519967079163
0.14681200683116913 0.5327190160751343 0.1720069944858551
0.10322099924087524 0.5215309858322144 0.16837100684642792
0.07748579978942871 0.521589994430542 0.154666006565094
0.05966620147228241 0.524653971195221 0.12874899804592133
0.0732194036245346 0.5184450149536133 0.09923259913921356
0.10095100104808807 0.5160199999809265 0.07477109879255295
0.14545799791812897 0.5213260054588318 0.07234200090169907
0.14688299596309662 0.4848800003528595 0.12796899676322937
0.1543789952993393 0.38187599182128906 0.15894900262355804
0.15165899693965912 0.3840770125389099 0.12211599946022034
0.1577489972114563 0.3842729926109314 0.08648750185966492
0.18813399970531464 0.38288700580596924 0.08253730088472366
0.21647100150585175 0.3831470012664795 0.10060899704694748
0.22455300390720367 0.3821290135383606 0.12758199870586395
0.2131360024213791 0.3815760016441345 0.15088999271392822
0.18569600582122803 0.38194599747657776 0.16280800104141235
0.1406860053539276 0.38362500071525574 0.15234699845314026
0.10479599982500076 0.3827579915523529 0.16283300518989563
0.0770173966884613 0.38278600573539734 0.14915600419044495
0.06791190057992935 0.38373100757598877 0.12896600365638733
0.07666870206594467 0.38337600231170654 0.10086800158023834
0.10608900338411331 0.38177499175071716 0.08285920321941376
0.13331399857997894 0.3821679949760437 0.09345710277557373
0.14299799501895905 0.38318100571632385 0.12234999984502792
0.18865300714969635 0.5221260190010071 0.1674710065126419
0.21707099676132202 0.5224260091781616 0.153096005320549
0.23158399760723114 0.5223919749259949 0.1283240020275116
0.21879200637340546 0.5223219990730286 0.1001880019903183
0.19106799364089966 0.5163999795913696 0.07261340320110321
0.09927009791135788 0.5666859745979309 0.08395589888095856
0.07634860277175903 0.5728549957275391 0.10170499980449677
0.062212198972702026 0.5733270049095154 0.12955500185489655
0.08078529685735703 0.5708739757537842 0.15643100440502167
0.10648400336503983 0.5683910250663757 0.17312300205230713
0.14655999839305878 0.5687999725341797 0.17705300450325012
0.1873520016670227 0.5698819756507874 0.17192700505256653
0.21643200516700745 0.5738890171051025 0.15407200157642365
0.22951200604438782 0.5755969882011414 0.13140200078487396
0.21539300680160522 0.5736770033836365 0.1026260033249855
0.18769599497318268 0.5675100088119507 0.08369889855384827
0.1454250067472458 0.554186999797821 0.07385300099849701
0.10506399720907211 0.6120240092277527 0.09959950298070908
0.07968799769878387 0.6111840009689331 0.11275500059127808
0.06961610168218613 0.6110159754753113 0.13265299797058105
0.0846313014626503 0.611644983291626 0.15523500740528107
0.11066599935293198 0.6108919978141785 0.16814100742340088
0.14575999975204468 0.6109359860420227 0.17313000559806824
0.18373200297355652 0.6117470264434814 0.1669050008058548
0.21074500679969788 0.6116210222244263 0.15246200561523438
0.22229300439357758 0.6123179793357849 0.13315199315547943
0.212458997964859 0.6108980178833008 0.11071400344371796
0.18592099845409393 0.6098589897155762 0.09684570133686066
0.1448349952697754 0.6119089722633362 0.08637890219688416
0.1185469999909401 0.05350859835743904 0.08991439640522003
0.18701300024986267 0.07672479748725891 0.09080159664154053
0.17427299916744232 0.06946349889039993 0.032707199454307556
0.19462400674819946 0.06940069794654846 0.032673001289367676
0.20717599987983704 0.053912900388240814 0.10293400287628174
0.1882999986410141 0.05816270038485527 0.10812199860811234
0.16861599683761597 0.05365769937634468 0.11048100143671036
0.16382800042629242 0.051849398761987686 0.0865010991692543
0.16677400469779968 0.061543699353933334 0.03379650041460991
0.18193699419498444 0.06353700160980225 0.027421699836850166
0.19843199849128723 0.062063898891210556 0.03290979936718941
0.20809899270534515 0.05072470009326935 0.08473079651594162
0.21366000175476074 0.038868699222803116 0.13130100071430206
0.20065200328826904 0.03436730057001114 0.15481700003147125
0.1799049973487854 0.034157998859882355 0.15689300000667572
0.16456499695777893 0.03827039897441864 0.13470500707626343
0.16135700047016144 0.04594559967517853 0.056377798318862915
0.16407600045204163 0.04882960021495819 0.03170910105109215
0.18166600167751312 0.04969840124249458 0.02500000037252903
0.1997929960489273 0.04820429906249046 0.03039260022342205
0.20723900198936462 0.04528139904141426 0.05401179939508438
0.21480800211429596 0.02860260009765625 0.12334100157022476
0.20294900238513947 0.025203900411725044 0.15404999256134033
0.17758700251579285 0.02500000037252903 0.15768499672412872
0.1627890020608902 0.029149500653147697 0.12852799892425537
0.10097099840641022 0.052690498530864716 0.08866450190544128
0.12638799846172333 0.05024410039186478 0.17007499933242798
0.10603199899196625 0.05742470175027847 0.1692509949207306
0.0891147032380104 0.050315599888563156 0.16771200299263
0.08443719893693924 0.044477399438619614 0.14428800344467163
0.0947842001914978 0.046080298721790314 0.09130989760160446
0.11102599650621414 0.04624930024147034 0.0857234001159668
0.12446899712085724 0.046395398676395416 0.09277819842100143
0.1281909942626953 0.04385820031166077 0.15286000072956085
0.12686899304389954 0.04149160161614418 0.20016799867153168
0.10928799957036972 0.04319579899311066 0.21987000107765198
0.08953659981489182 0.03908110037446022 0.21910500526428223
0.08073029667139053 0.04096699878573418 0.1958950012922287
0.08792419731616974 0.03371749818325043 0.11542300134897232
0.0947842001914978 0.032381001859903336 0.09183070063591003
0.11102599650621414 0.03254999965429306 0.08624430000782013
0.12814100086688995 0.03232939913868904 0.09353890269994736
0.1311890035867691 0.03344539925456047 0.1244100034236908
0.12917199730873108 0.029246900230646133 0.19542400538921356
0.11091099679470062 0.034074798226356506 0.22287499904632568
0.08509320020675659 0.0337287001311779 0.2172130048274994
0.07968760281801224 0.030099499970674515 0.19104699790477753
3 0 1 6
3 1 2 19
3 1 19 6
3 6 19 7
3 2 3 20
3 2 20 19
3 19 20 21
3 19 21 7
3 7 21 8
3 3 4 22
3 3 22 20
3 20 22 23
3 20 23 21
3 21 23 24
3 21 24 8
3 8 24 9
3 4 5 25
3 4 25 22
3 24 26 9
3 9 26 10
3 5 15 25
3 26 16 10
3 0 6 11
3 6 7 27
3 6 27 11
3 11 27 12
3 7 8 28
3 7 28 27
3 27 28 29
3 27 29 12
3 12 29 13
3 8 9 30
3 8 30 28
3 28 30 31
3 28 31 29
3 29 31 32
3 29 32 13
3 13 32 14
3 9 10 33
3 9 33 30
3 30 33 34
3 30 34 31
3 10 17 33
3 0 11 1
3 11 12 35
3 11 35 1
3 1 35 2
3 12 13 36
3 12 36 35
3 35 36 37
3 35 37 2
3 2 37 3
3 13 14 38
3 13 38 36
3 36 38 39
3 36 39 37
3 37 39 40
3 37 40 3
3 3 40 4
3 14 41 38
3 38 41 39
3 39 42 40
3 40 42 43
3 40 43 4
3 4 43 5
3 43 18 5
3 18 44 15
3 17 10 16
3 18 15 5
3 26 24 23
3 25 23 22
3 26 23 48
3 25 48 23
3 48 51 54
3 48 54 52
3 26 48 52
3 26 52 50
3 16 26 50
3 16 50 56
3 47 16 56
3 47 56 55
3 46 47 55
3 48 25 51
3 25 49 51
3 25 15 49
3 15 53 49
3 15 44 53
3 44 55 53
3 44 45 55
3 45 46 55
3 17 16 47
3 83 84 59
3 83 59 58
3 84 85 60
3 84 60 59
3 85 86 61
3 85 61 60
3 86 57 62
3 86 62 61
3 57 83 58
3 57 58 62
3 58 59 64
3 58 64 63
3 59 60 65
3 59 65 64
3 60 61 66
3 60 66 65
3 61 62 67
3 61 67 66
3 62 58 63
3 62 63 67
3 63 64 69
3 63 69 68
3 64 65 70
3 64 70 69
3 65 66 71
3 65 71 70
3 66 67 72
3 66 72 71
3 67 63 68
3 67 68 72
3 68 69 74
3 68 74 73
3 69 70 75
3 69 75 74
3 70 71 76
3 70 76 75
3 71 72 77
3 71 77 76
3 72 68 73
3 72 73 77
3 73 74 79
3 73 79 78
3 74 75 80
3 74 80 79
3 75 76 81
3 75 81 80
3 76 77 82
3 76 82 81
3 77 73 78
3 77 78 82
3 112 113 88
3 112 88 87
3 113 114 89
3 113 89 88
3 114 115 90
3 114 90 89
3 115 116 91
3 115 91 90
3 116 112 87
3 116 87 91
3 87 88 93
3 87 93 92
3 88 89 94
3 88 94 93
3 89 90 95
3 89 95 94
3 90 91 96
3 90 96 95
3 91 87 92
3 91 92 96
3 92 93 98
3 92 98 97
3 93 94 99
3 93 99 98
3 94 95 100
3 94 100 99
3 95 96 101
3 95 101 100
3 96 92 97
3 96 97 101
3 97 98 103
3 97 103 102
3 98 99 104
3 98 104 103
3 99 100 105
3 99 105 104
3 100 101 106
3 100 106 105
3 101 97 102
3 101 102 106
3 102 103 108
3 102 108 107
3 103 104 109
3 103 109 108
3 104 105 110
3 104 110 109
3 105 106 111
3 105 111 110
3 106 102 107
3 106 107 111
3 122 126 123
3 126 127 123
3 123 127 124
3 127 128 124
3 124 128 125
3 128 129 125
3 125 129 122
3 129 126 122
3 126 130 127
3 130 131 127
3 127 131 128
3 131 141 128
3 128 141 129
3 141 140 129
3 129 140 126
3 140 130 126
3 125 122 123
3 123 124 125
3 132 136 133
3 136 137 133
3 133 137 134
3 137 138 134
3 134 138 135
3 138 139 135
3 135 139 132
3 139 136 132
3 136 140 137
3 140 141 137
3 137 141 138
3 141 161 138
3 138 161 139
3 161 160 139
3 139 160 136
3 160 140 136
3 135 132 133
3 133 134 135
3 142 146 143
3 146 147 143
3 143 147 144
3 147 148 144
3 144 148 145
3 148 149 145
3 145 149 142
3 149 146 142
3 146 150 147
3 150 151 147
3 147 151 148
3 151 131 148
3 148 131 149
3 131 130 149
3 149 130 146
3 130 150 146
3 145 142 143
3 143 144 145
3 152 156 153
3 156 157 153
3 153 157 154
3 157 158 154
3 154 158 155
3 158 159 155
3 155 159 152
3 159 156 152
3 156 160 157
3 160 161 157
3 157 161 158
3 161 173 158
3 158 173 159
3 173 172 159
3 159 172 156
3 172 160 156
3 155 152 153
3 153 154 155
3 162 166 163
3 166 167 163
3 163 167 164
3 167 168 164
3 164 168 165
3 168 169 165
3 165 169 162
3 169 166 162
3 166 170 167
3 170 171 167
3 167 171 168
3 171 172 168
3 168 172 169
3 172 173 169
3 169 173 166
3 173 170 166
3 165 162 163
3 163 164 165
3 178 170 173
3 178 173 161
3 178 161 141
3 178 141 131
3 178 131 151
3 160 172 174
3 140 160 174
3 130 140 174
3 150 130 174
3 177 170 178
3 178 151 179
3 174 175 150
3 176 174 171
3 151 150 175
3 179 151 175
3 177 176 171
3 170 177 171
3 172 171 174
3 176 177 182
3 176 182 181
3 177 178 183
3 177 183 182
3 178 179 184
3 178 184 183
3 179 175 180
3 179 180 184
3 180 181 186
3 180 186 185
3 181 182 187
3 181 187 186
3 182 183 188
3 182 188 187
3 183 184 189
3 183 189 188
3 184 180 185
3 184 185 189
3 181 180 174
3 180 175 174
3 181 174 176
3 119 187 188
3 120 119 188
3 121 120 188
3 121 188 189
3 117 121 189
3 117 189 185
3 118 117 185
3 118 185 186
3 119 118 186
3 119 186 187
3 195 199 196
3 199 200 196
3 196 200 197
3 200 201 197
3 197 201 198
3 201 202 198
3 198 202 195
3 202 199 195
3 199 224 200
3 224 223 200
3 200 223 201
3 223 212 201
3 201 212 202
3 212 211 202
3 202 211 199
3 211 224 199
3 198 195 196
3 196 197 198
3 203 207 204
3 207 208 204
3 204 208 205
3 208 209 205
3 205 209 206
3 209 210 206
3 206 210 203
3 210 207 203
3 207 211 208
3 211 212 208
3 208 212 209
3 212 234 209
3 209 234 210
3 234 233 210
3 210 233 207
3 233 211 207
3 206 203 204
3 204 205 206
3 213 217 214
3 217 218 214
3 214 218 215
3 218 219 215
3 215 219 216
3 219 220 216
3 216 220 213
3 220 217 213
3 217 221 218
3 221 222 218
3 218 222 219
3 222 223 219
3 219 223 220
3 223 224 220
3 220 224 217
3 224 221 217
3 216 213 214
3 214 215 216
3 225 229 226
3 229 230 226
3 226 230 227
3 230 231 227
3 227 231 228
3 231 232 228
3 228 232 225
3 232 229 225
3 229 233 230
3 233 234 230
3 230 234 231
3 234 246 231
3 231 246 232
3 246 245 232
3 232 245 229
3 245 233 229
3 228 225 226
3 226 227 228
3 235 239 236
3 239 240 236
3 236 240 237
3 240 241 237
3 237 241 238
3 241 242 238
3 238 242 235
3 242 239 235
3 239 243 240
3 243 244 240
3 240 244 241
3 244 245 241
3 241 245 242
3 245 246 242
3 242 246 239
3 246 243 239
3 238 235 236
3 236 237 238
3 262 221 224
3 262 224 211
3 262 211 233
3 262 233 245
3 262 245 244
3 223 222 247
3 212 223 247
3 234 212 247
3 246 234 247
3 243 246 247
3 262 244 261
3 260 243 247
3 259 247 222
3 221 262 258
3 261 244 243
3 260 261 243
3 258 259 222
3 258 222 221
3 248 249 254
3 248 254 253
3 249 250 255
3 249 255 254
3 250 251 256
3 250 256 255
3 251 252 257
3 251 257 256
3 252 248 253
3 252 253 257
3 253 254 259
3 253 259 258
3 255 256 261
3 255 261 260
3 256 257 262
3 256 262 261
3 257 253 258
3 257 258 262
3 255 247 254
3 247 259 254
3 260 247 255
3 194 252 251
3 193 194 251
3 194 190 248
3 194 248 252
3 190 191 249
3 190 249 248
3 191 192 250
3 191 250 249
3 192 193 251
3 192 251 250
3 269 267 268
3 268 270 269
3 271 269 270
3 270 272 271
3 51 271 272
3 49 319 271
3 271 51 49
3 273 326 327
3 327 266 273
3 316 273 266
3 266 317 316
3 275 274 273
3 273 316 275
3 276 275 316
3 316 315 276
3 278 276 315
3 315 277 278
3 53 278 277
3 277 49 53
3 280 330 331
3 331 279 280
3 282 280 279
3 279 281 282
3 284 282 281
3 281 283 284
3 285 283 276
3 276 278 285
3 55 285 278
3 278 53 55
3 55 286 285
3 288 329 330
3 330 280 288
3 289 287 329
3 329 288 289
3 56 290 286
3 286 55 56
3 290 56 50
3 294 292 291
3 291 293 294
3 295 293 289
3 289 312 295
3 296 294 293
3 293 295 296
3 297 295 312
3 312 313 297
3 299 297 313
3 313 314 299
3 50 299 314
3 52 300 299
3 299 50 52
3 300 54 298
3 54 304 298
3 298 304 296
3 304 303 296
3 54 272 270
3 54 270 304
3 304 270 268
3 304 268 303
3 52 54 300
3 51 272 54
3 319 277 315
3 314 310 290
3 305 306 311
3 305 311 310
3 306 307 312
3 306 312 311
3 307 308 313
3 307 313 312
3 308 309 314
3 308 314 313
3 309 305 310
3 309 310 314
3 312 313 314
3 312 314 310
3 311 312 310
3 319 318 317
3 315 319 317
3 315 317 316
3 315 316 321
3 315 321 320
3 316 317 322
3 316 322 321
3 317 318 323
3 317 323 322
3 318 319 324
3 318 324 323
3 319 315 320
3 319 320 324
3 297 296 295
3 297 298 296
3 300 298 299
3 299 298 297
3 296 302 294
3 296 303 302
3 294 301 292
3 294 302 301
3 265 263 301
3 302 265 301
3 265 328 263
3 265 264 328
3 268 265 302
3 303 268 302
3 268 264 265
3 268 267 264
3 271 318 269
3 271 319 318
3 267 266 264
3 267 317 266
3 269 317 267
3 269 318 317
3 264 266 327
3 274 331 325
3 274 279 331
3 273 325 326
3 273 274 325
3 275 281 279
3 275 279 274
3 276 283 281
3 276 281 275
3 285 284 283
3 285 286 284
3 286 310 284
3 286 290 310
3 282 288 280
3 282 311 288
3 284 311 282
3 284 310 311
3 264 327 328
3 311 289 288
3 312 289 311
3 293 291 287
3 289 293 287
3 49 277 319
3 50 314 290
3 332 346 333
3 345 348 349
3 345 349 346
3 346 349 350
3 346 350 333
3 333 350 334
3 347 335 336
3 347 336 348
3 348 336 337
3 348 337 349
3 349 337 338
3 349 338 350
3 350 338 339
3 350 339 334
3 332 333 351
3 333 334 353
3 333 353 351
3 351 353 354
3 351 354 352
3 352 354 355
3 334 340 353
3 353 340 341
3 353 341 354
3 354 341 342
3 354 342 355
3 355 342 343
3 355 343 356
3 356 343 344
3 344 343 357
3 343 342 358
3 343 358 357
3 357 358 359
3 342 341 360
3 342 360 358
3 358 360 361
3 358 361 359
3 359 361 362
3 341 340 363
3 341 363 360
3 360 363 364
3 360 364 361
3 361 364 365
3 361 365 362
3 362 365 366
3 340 339 363
3 363 339 338
3 363 338 364
3 364 338 337
3 364 337 365
3 365 337 336
3 365 336 366
3 366 336 335
3 340 334 339
3 351 41 14
3 351 14 332
3 332 14 32
3 332 32 346
3 346 32 31
3 345 346 31
3 345 31 34
3 345 34 348
3 348 34 33
3 348 33 347
3 347 33 17
3 347 17 335
3 335 17 47
3 335 47 366
3 351 352 41
3 352 39 41
3 352 355 42
3 352 42 39
3 355 356 43
3 355 43 42
3 356 344 18
3 356 18 43
3 344 357 44
3 344 44 18
3 47 362 366
3 44 357 359
3 367 374 376
3 367 376 375
3 374 373 377
3 374 377 376
3 373 395 378
3 373 378 377
3 395 394 379
3 395 379 378
3 394 393 380
3 394 380 379
3 393 392 381
3 393 381 380
3 392 391 382
3 392 382 381
3 391 367 375
3 391 375 382
3 367 368 384
3 367 384 383
3 368 369 385
3 368 385 384
3 369 370 386
3 369 386 385
3 370 371 387
3 370 387 386
3 371 372 388
3 371 388 387
3 372 373 389
3 372 389 388
3 373 374 390
3 373 390 389
3 374 367 383
3 374 383 390
3 372 371 397
3 372 397 396
3 371 370 398
3 371 398 397
3 370 369 399
3 370 399 398
3 369 368 400
3 369 400 399
3 368 367 401
3 368 401 400
3 367 391 402
3 367 402 401
3 391 392 403
3 391 403 402
3 392 393 404
3 392 404 403
3 393 394 405
3 393 405 404
3 394 395 406
3 394 406 405
3 395 373 407
3 395 407 406
3 373 372 396
3 373 396 407
3 396 397 409
3 396 409 408
3 397 398 410
3 397 410 409
3 398 399 411
3 398 411 410
3 399 400 412
3 399 412 411
3 400 401 413
3 400 413 412
3 401 402 414
3 401 414 413
3 402 403 415
3 402 415 414
3 403 404 416
3 403 416 415
3 404 405 417
3 404 417 416
3 405 406 418
3 405 418 417
3 406 407 419
3 406 419 418
3 407 396 408
3 407 408 419
3 408 409 326
3 408 326 325
3 409 410 327
3 409 327 326
3 410 411 328
3 410 328 327
3 411 412 263
3 411 263 328
3 412 413 301
3 412 301 263
3 413 414 292
3 413 292 301
3 414 415 291
3 414 291 292
3 415 416 287
3 415 287 291
3 416 417 329
3 416 329 287
3 417 418 330
3 417 330 329
3 418 419 331
3 418 331 330
3 419 408 325
3 419 325 331
3 113 112 420
3 424 425 433
3 424 433 432
3 425 426 435
3 425 435 434
3 427 428 437
3 427 437 436
3 428 429 438
3 428 438 437
3 429 430 439
3 429 439 438
3 430 431 440
3 430 440 439
3 431 432 441
3 431 441 440
3 432 433 442
3 432 442 441
3 433 434 443
3 433 443 442
3 434 435 444
3 434 444 443
3 435 427 436
3 435 436 444
3 431 424 432
3 423 431 430
3 423 430 429
3 422 429 428
3 422 423 429
3 422 428 427
3 426 427 435
3 426 422 427
3 423 424 431
3 425 434 433
3 421 425 424
3 83 421 424
3 83 424 423
3 84 83 423
3 85 84 423
3 85 423 422
3 86 85 422
3 86 422 426
3 421 86 426
3 421 426 425
3 446 447 455
3 446 455 454
3 447 448 457
3 447 457 456
3 449 450 459
3 449 459 458
3 450 451 460
3 450 460 459
3 451 452 461
3 451 461 460
3 452 453 462
3 452 462 461
3 453 454 463
3 453 463 462
3 454 455 464
3 454 464 463
3 455 456 465
3 455 465 464
3 456 457 466
3 456 466 465
3 457 449 458
3 457 458 466
3 453 446 454
3 420 453 452
3 420 452 451
3 445 451 450
3 445 420 451
3 445 450 449
3 448 449 457
3 448 445 449
3 420 446 453
3 447 456 455
3 113 420 445
3 114 113 445
3 114 445 448
3 115 114 448
3 116 115 448
3 116 448 447
3 116 447 446
3 112 116 446
3 112 446 420
