ply
format ascii 1.0
element vertex 472
property float x
property float y
property float z
element face 888
property list uchar int vertex_indices
end_header
0.11288099735975266 0.07391370087862015 0.08581539988517761
0.10808400064706802 0.082361601293087 0.0564470998942852
0.09115179628133774 0.0833301991224289 0.05647839978337288
0.08548309653997421 0.07548130303621292 0.08586589992046356
0.09891530126333237 0.06971780210733414 0.10197299718856812
0.11935800313949585 0.11536400020122528 0.08298839628696442
0.11207699775695801 0.1078839972615242 0.05976340174674988
0.09001410007476807 0.10916800051927567 0.05979109928011894
0.08365990221500397 0.11744199693202972 0.08303330093622208
0.1017950028181076 0.12127000093460083 0.09736999869346619
0.12293600291013718 0.17146000266075134 0.08888419717550278
0.11541300266981125 0.17260000109672546 0.06246589869260788
0.09102849662303925 0.17400899529457092 0.062497399747371674
0.0834800973534584 0.1737380027770996 0.08893530070781708
0.10320000350475311 0.17216500639915466 0.10524299740791321
0.08724670112133026 0.0773639976978302 0.05267459899187088
0.11202099919319153 0.07594680041074753 0.05281990021467209
0.11212699860334396 0.04933600127696991 0.11546699702739716
0.09677989780902863 0.04829379916191101 0.12285000085830688
0.08447480201721191 0.050706200301647186 0.11577100306749344
0.07833710312843323 0.057717401534318924 0.09408450126647949
0.11856599897146225 0.0555046983063221 0.09429600089788437
0.21027199923992157 0.07412759959697723 0.08469060063362122
0.20501300692558289 0.08150000125169754 0.0551224984228611
0.18805299699306488 0.08149109780788422 0.055153898894786835
0.18283100426197052 0.07411330193281174 0.08474139869213104
0.1965630054473877 0.06956470012664795 0.10097099840641022
0.21443000435829163 0.11579500138759613 0.08079040050506592
0.20757700502872467 0.10729199647903442 0.05777629837393761
0.18547800183296204 0.10730200260877609 0.05780370160937309
0.17867299914360046 0.11581099778413773 0.08083490282297134
0.19656600058078766 0.12105999886989594 0.09504140168428421
0.2173130065202713 0.17452099919319153 0.08548449724912643
0.2093620002269745 0.17452099919319153 0.057662200182676315
0.18372200429439545 0.17452099919319153 0.05769539996981621
0.17582599818706512 0.17452099919319153 0.08553829789161682
0.1965869963169098 0.17452099919319153 0.10271299630403519
0.18466299772262573 0.07520990073680878 0.05151050165295601
0.20947599411010742 0.07522810250520706 0.051655400544404984
0.2112479954957962 0.05034400150179863 0.11497800052165985
0.19580000638961792 0.04861539974808693 0.12239400297403336
0.1831970065832138 0.05012509971857071 0.11525999754667282
0.17686200141906738 0.05619100108742714 0.09342409670352936
0.21714900434017181 0.05630819872021675 0.09363269805908203
0.04996100068092346 0.49257299304008484 0.17457599937915802
0.0524228997528553 0.4969539940357208 0.1733189970254898
0.0510684996843338 0.49836599826812744 0.1772249937057495
0.04840930178761482 0.49408501386642456 0.1788800060749054
0.03986300155520439 0.5025539994239807 0.1627199947834015
0.04510119929909706 0.5070390105247498 0.16368499398231506
0.04263149946928024 0.5099080204963684 0.16897499561309814
0.03686650097370148 0.5063109993934631 0.16936099529266357
0.04901500046253204 0.4951860010623932 0.18513399362564087
0.052362099289894104 0.5009639859199524 0.18225300312042236
0.05061139911413193 0.5021889805793762 0.18786199390888214
0.047995198518037796 0.4973759949207306 0.19020800292491913
0.03557230159640312 0.505407989025116 0.1727290004491806
0.042076099663972855 0.509522020816803 0.17140799760818481
0.04101569950580597 0.5136370062828064 0.17794199287891388
0.03449200093746185 0.5096250176429749 0.17946800589561462
0.03266429901123047 0.5226410031318665 0.15862399339675903
0.039677999913692474 0.5243849754333496 0.15806999802589417
0.04899489879608154 0.5006009936332703 0.158393993973732
0.05060109868645668 0.5043179988861084 0.1579730063676834
0.04870770126581192 0.5050209760665894 0.16089999675750732
0.04689060151576996 0.5012980103492737 0.16153499484062195
0.043051499873399734 0.5087599754333496 0.14831100404262543
0.04635379835963249 0.5128769874572754 0.14996199309825897
0.04331450164318085 0.5146420001983643 0.15388399362564087
0.03926150128245354 0.5109599828720093 0.15300500392913818
0.03921449929475784 0.5209000110626221 0.1400199979543686
0.043838899582624435 0.5227289795875549 0.1424410045146942
0.04128250107169151 0.5225740075111389 0.15004299581050873
0.03606250137090683 0.5205559730529785 0.14870400726795197
0.04573019966483116 0.5043010115623474 0.19252899289131165
0.047864798456430435 0.5080860257148743 0.18902400135993958
0.0473904013633728 0.5115739703178406 0.19377000629901886
0.04522800073027611 0.5075989961624146 0.19722400605678558
0.033699698746204376 0.5132610201835632 0.1814589947462082
0.039257001131772995 0.5171769857406616 0.17926999926567078
0.03824179992079735 0.5224059820175171 0.18519900739192963
0.03263460099697113 0.5186579823493958 0.18753699958324432
0.03159249946475029 0.5297240018844604 0.1679220050573349
0.03856540098786354 0.5310019850730896 0.16741299629211426
0.04013799875974655 0.537086009979248 0.19214199483394623
0.037011899054050446 0.5365949869155884 0.19388000667095184
0.03547779843211174 0.5335779786109924 0.1882150024175644
0.03888950124382973 0.5347219705581665 0.18834200501441956
0.040681999176740646 0.5470759868621826 0.18338899314403534
0.03313690051436424 0.5483940243721008 0.1834380030632019
0.032664500176906586 0.541176974773407 0.17699499428272247
0.03945630043745041 0.5425959825515747 0.17685799300670624
0.042158499360084534 0.5527169704437256 0.1732330024242401
0.03544529899954796 0.5563300251960754 0.17176400125026703
0.03365569934248924 0.5408509969711304 0.171207994222641
0.038476601243019104 0.5440189838409424 0.17218999564647675
0.03733919933438301 0.5565999746322632 0.13884100317955017
0.04298650100827217 0.5564820170402527 0.13937599956989288
0.042350299656391144 0.5493800044059753 0.12880200147628784
0.040031798183918 0.5718219876289368 0.15348200500011444
0.04749700054526329 0.5504739880561829 0.13254499435424805
0.04582209885120392 0.5685089826583862 0.15251900255680084
0.039826199412345886 0.5660060048103333 0.12031999975442886
0.05096780136227608 0.5661290287971497 0.12182900309562683
0.04817499965429306 0.5816659927368164 0.142425999045372
0.036973100155591965 0.581525981426239 0.142535999417305
0.25702399015426636 0.4716860055923462 0.07554139941930771
0.25929999351501465 0.4683850109577179 0.07305449992418289
0.26101401448249817 0.46761998534202576 0.07733509689569473
0.2582310140132904 0.4711630046367645 0.07909490168094635
0.26322999596595764 0.48400598764419556 0.07285790145397186
0.2682589888572693 0.4831719994544983 0.06914730370044708
0.271789014339447 0.4822379946708679 0.07577589899301529
0.2660500109195709 0.4831950068473816 0.07818520069122314
0.2661939859390259 0.5045909881591797 0.07035329937934875
0.2708300054073334 0.503786027431488 0.06756380200386047
0.2574940025806427 0.4679970145225525 0.08549109846353531
0.25975701212882996 0.4643099904060364 0.08322679996490479
0.2615100145339966 0.4636169970035553 0.08774910122156143
0.2590619921684265 0.46747100353240967 0.08976490050554276
0.2671310007572174 0.48145100474357605 0.08111070096492767
0.2735469937324524 0.47981101274490356 0.07907179743051529
0.2755489945411682 0.4795899987220764 0.0859386995434761
0.26906898617744446 0.48124200105667114 0.08775629848241806
0.2682510018348694 0.5018159747123718 0.07860790193080902
0.2745189964771271 0.5003659725189209 0.07741250097751617
0.25749799609184265 0.48534199595451355 0.06751489639282227
0.2587909996509552 0.48290500044822693 0.06491009891033173
0.26080700755119324 0.4817410111427307 0.06793040037155151
0.2590070068836212 0.48445799946784973 0.07010059803724289
0.26101699471473694 0.49588701128959656 0.06555470079183578
0.26419299840927124 0.4952310025691986 0.061555199325084686
0.2682889997959137 0.4941990077495575 0.06591910123825073
0.26431599259376526 0.4949600100517273 0.06911829859018326
0.2636680006980896 0.5084940195083618 0.06474959850311279
0.2679469883441925 0.5083000063896179 0.061734799295663834
0.26337099075317383 0.4690000116825104 0.09629449993371964
0.26557600498199463 0.46487000584602356 0.09540499746799469
0.26646101474761963 0.46519601345062256 0.10009299963712692
0.26411300897598267 0.46940499544143677 0.10068800300359726
0.27050700783729553 0.4803430140018463 0.09075059741735458
0.27628299593925476 0.4783110022544861 0.08923929929733276
0.27836599946022034 0.4790729880332947 0.09690699726343155
0.2725270092487335 0.48106399178504944 0.09822069853544235
0.2699199914932251 0.5012570023536682 0.08735129982233047
0.2764360010623932 0.5001999735832214 0.08731129765510559
0.27386200428009033 0.486845999956131 0.10705699771642685
0.27110201120376587 0.488413006067276 0.10641899704933167
0.27184799313545227 0.48890599608421326 0.10262899845838547
0.27471399307250977 0.48785701394081116 0.10145200043916702
0.27859601378440857 0.5038290023803711 0.10733199864625931
0.27246901392936707 0.5038449764251709 0.1073639988899231
0.27181699872016907 0.5030949711799622 0.09926869720220566
0.2779099941253662 0.5037890076637268 0.09859789907932281
0.27627700567245483 0.516730010509491 0.10501299798488617
0.26996299624443054 0.5137400031089783 0.1050650030374527
0.2732439935207367 0.5070390105247498 0.09734240174293518
0.27863800525665283 0.5065860152244568 0.09712869673967361
0.2723590135574341 0.5352879762649536 0.07990480214357376
0.26804599165916443 0.5349509716033936 0.08111560344696045
0.2685219943523407 0.5365340113639832 0.06830109655857086
0.2738879919052124 0.5377650260925293 0.09784729778766632
0.2678009867668152 0.5366010069847107 0.09608960151672363
0.26291799545288086 0.5348730087280273 0.07334750145673752
0.2747820019721985 0.5533639788627625 0.09344629943370819
0.2655229866504669 0.5526520013809204 0.0931255966424942
0.2606799900531769 0.551941990852356 0.07243979722261429
0.2689880132675171 0.5526949763298035 0.06868860125541687
0.1569419950246811 0.8947820067405701 0.13707800209522247
0.1485850065946579 0.8908810019493103 0.12586499750614166
0.13841000199317932 0.8724700212478638 0.12482000142335892
0.12969599664211273 0.875423014163971 0.10865700244903564
0.127018004655838 0.8787029981613159 0.0944083034992218
0.12581199407577515 0.883637011051178 0.07593829929828644
0.16565999388694763 0.8904539942741394 0.12738299369812012
0.17518599331378937 0.8721349835395813 0.12453500181436539
0.1828249990940094 0.8751659989356995 0.10691799968481064
0.1862809956073761 0.8783820271492004 0.09405440092086792
0.18784800171852112 0.8807250261306763 0.0758965015411377
0.15698599815368652 0.9038569927215576 0.13169699907302856
0.15702499449253082 0.9176620244979858 0.12464000284671783
0.15705600380897522 0.9336109757423401 0.12452100217342377
0.15631599724292755 0.9380879998207092 0.11855600029230118
0.13199099898338318 0.8700180053710938 0.06264209747314453
0.18216100335121155 0.8733869791030884 0.06256009638309479
0.19099900126457214 0.8941329717636108 0.05979190021753311
0.12313900142908096 0.8939890265464783 0.05995409935712814
0.1568939983844757 0.8723000288009644 0.1263909935951233
0.14678700268268585 0.8592600226402283 0.12247300148010254
0.16723300516605377 0.8591409921646118 0.12270399928092957
0.14216700196266174 0.8583269715309143 0.10534700006246567
0.15693099796772003 0.8525360226631165 0.10263600200414658
0.17304199934005737 0.8580499887466431 0.10555499792098999
0.14020299911499023 0.8582800030708313 0.08246319741010666
0.17497999966144562 0.8572580218315125 0.08226539939641953
0.1625480055809021 0.9017770290374756 0.12756399810314178
0.18467099964618683 0.9042329788208008 0.1231829971075058
0.17232100665569305 0.9194560050964355 0.1212019994854927
0.19135800004005432 0.9014210104942322 0.10919100046157837
0.18950599431991577 0.9309160113334656 0.11407700181007385
0.17652499675750732 0.9340959787368774 0.12101200222969055
0.1931699961423874 0.9067109823226929 0.08327720314264297
0.19432899355888367 0.9216539859771729 0.09211830049753189
0.15174899995326996 0.9020919799804688 0.12738099694252014
0.1417050063610077 0.9195420145988464 0.12173900008201599
0.12988999485969543 0.9041339755058289 0.12343599647283554
0.13863800466060638 0.9346550107002258 0.1213579997420311
0.12536999583244324 0.9315099716186523 0.11428800225257874
0.12173599749803543 0.9002799987792969 0.10926900058984756
0.13740099966526031 0.9404169917106628 0.11463599652051926
0.12065000087022781 0.9222729802131653 0.09259620308876038
0.1214279979467392 0.9070190191268921 0.08400440216064453
0.13663099706172943 0.8757100105285645 0.04960459843277931
0.14827199280261993 0.8771820068359375 0.046083901077508926
0.16609899699687958 0.8773159980773926 0.04450000077486038
0.17796500027179718 0.8768720030784607 0.049031101167201996
0.15666399896144867 0.8475440144538879 0.09595099836587906
0.1304669976234436 0.8429009914398193 0.06095990166068077
0.1829179972410202 0.8423029780387878 0.060320500284433365
0.13327200710773468 0.83371901512146 0.08005569875240326
0.17985500395298004 0.8321710228919983 0.08039399981498718
0.13277199864387512 0.8476390242576599 0.04904310032725334
0.15643499791622162 0.8205710053443909 0.09025119990110397
0.1566150039434433 0.8502449989318848 0.0451028011739254
0.18131299316883087 0.8471159934997559 0.048605598509311676
0.08179330080747604 0.06790900230407715 0.05075160041451454
0.09891220182180405 0.06716710329055786 0.04533199965953827
0.11374200135469437 0.06660260260105133 0.050497498363256454
0.11162299662828445 0.03493779897689819 0.12429700046777725
0.10219399631023407 0.03445880115032196 0.15009699761867523
0.08885309845209122 0.035060301423072815 0.15071099996566772
0.08267900347709656 0.03716360032558441 0.12438400089740753
0.07794520258903503 0.055534299463033676 0.06654299795627594
0.08398459851741791 0.05553470179438591 0.050030600279569626
0.09824260324239731 0.0551672987639904 0.04502269998192787
0.11218299716711044 0.05369419977068901 0.049761898815631866
0.1199679970741272 0.05324079841375351 0.06677830219268799
0.11367800086736679 0.02500000037252903 0.12335299700498581
0.09426160156726837 0.025173500180244446 0.1544799953699112
0.07890880107879639 0.02716900035738945 0.12299700081348419
0.09316200017929077 0.027826299890875816 0.04946700111031532
0.1001340001821518 0.027526499703526497 0.049756698310375214
0.09315209835767746 0.02764960005879402 0.05610499903559685
0.10012400150299072 0.02734990045428276 0.05639459937810898
0.17974500358104706 0.06540770083665848 0.04983919858932495
0.19687700271606445 0.0655101016163826 0.04441500082612038
0.2117149978876114 0.06593970209360123 0.04957130178809166
0.21027199923992157 0.03632869943976402 0.1240840032696724
0.20197699964046478 0.035845499485731125 0.14997899532318115
0.18862299621105194 0.03569290041923523 0.15059800446033478
0.18246300518512726 0.036653198301792145 0.12427599728107452
0.17659200727939606 0.053255900740623474 0.06594870239496231
0.1826220005750656 0.053164999932050705 0.04943300038576126
0.19687700271606445 0.05348709970712662 0.04441500082612038
0.21087700128555298 0.052946798503398895 0.04916970059275627
0.21867600083351135 0.05339660122990608 0.06618049740791321
0.2146719992160797 0.027166899293661118 0.12345799803733826
0.1945739984512329 0.026237700134515762 0.1546110063791275
0.17843200266361237 0.026505200192332268 0.12312199920415878
0.19332799315452576 0.026024699211120605 0.04956769943237305
0.2003059983253479 0.02613529935479164 0.04985459893941879
0.19332799315452576 0.026024699211120605 0.05620789900422096
0.2003059983253479 0.02613529935479164 0.05649479851126671
0.12577199935913086 0.6220930218696594 0.12581899762153625
0.08265429735183716 0.7117170095443726 0.12020699679851532
0.105833999812603 0.7098510265350342 0.12743200361728668
0.07543809711933136 0.7177550196647644 0.09082680195569992
0.07781489938497543 0.7412319779396057 0.12515999376773834
0.10495799779891968 0.7409350275993347 0.1435369998216629
0.0782879963517189 0.7731900215148926 0.11176499724388123
0.10878299921751022 0.7823870182037354 0.11968699842691422
0.08488939702510834 0.8053209781646729 0.09306950122117996
0.11339499801397324 0.804373025894165 0.10304500162601471
0.07905630022287369 0.7180259823799133 0.04980190098285675
0.09399320185184479 0.7107679843902588 0.030338499695062637
0.0884815976023674 0.7309319972991943 0.026109900325536728
0.09146600216627121 0.7982029914855957 0.02780349925160408
0.0742075964808464 0.8204770088195801 0.051224999129772186
0.09102640300989151 0.8246920108795166 0.036556098610162735
0.1558299958705902 0.7095469832420349 0.027343900874257088
0.2243960052728653 0.71076500415802 0.030434800311923027
0.15587499737739563 0.7313010096549988 0.02500000037252903
0.22804699838161469 0.7309070229530334 0.02547750063240528
0.15563100576400757 0.799481987953186 0.026893699541687965
0.22235600650310516 0.7951570153236389 0.02890090085566044
0.156126007437706 0.8262860178947449 0.03389029949903488
0.2276969999074936 0.8226879835128784 0.03527320176362991
0.22887900471687317 0.6226400136947632 0.08288490027189255
0.236285999417305 0.7175170183181763 0.04885590076446533
0.23586800694465637 0.71732097864151 0.09197170287370682
0.2401529997587204 0.8198099732398987 0.05146050080657005
0.2199150025844574 0.6222059726715088 0.11569999903440475
0.19249799847602844 0.6223710179328918 0.1291850060224533
0.22770999372005463 0.7117540240287781 0.1199750006198883
0.20464099943637848 0.7091959714889526 0.12754899263381958
0.23165300488471985 0.7412980198860168 0.1257690042257309
0.2092439979314804 0.74201500415802 0.14263500273227692
0.23247100412845612 0.7779060006141663 0.11418700218200684
0.20315399765968323 0.7826290130615234 0.1165269985795021
0.22713500261306763 0.8047189712524414 0.09077750146389008
0.20158399641513824 0.8044419884681702 0.10173100233078003
0.15788699686527252 0.6223599910736084 0.12528899312019348
0.1568329930305481 0.7056599855422974 0.13280899822711945
0.15665000677108765 0.7445899844169617 0.13841399550437927
0.15630200505256653 0.7821069955825806 0.11436700075864792
0.2595610022544861 0.6736099720001221 0.04866940155625343
0.2400819957256317 0.6633740067481995 0.04994190111756325
0.24724699556827545 0.6656010150909424 0.09521660208702087
0.2620680034160614 0.6647469997406006 0.09559380263090134
0.27708300948143005 0.6691319942474365 0.07494010031223297
0.25143301486968994 0.7986130118370056 0.03407689929008484
0.22953100502490997 0.7287030220031738 0.03824140131473541
0.2393690049648285 0.7402520179748535 0.09422560036182404
0.25247400999069214 0.7924519777297974 0.08770380169153214
0.25481298565864563 0.8148319721221924 0.05756809934973717
0.060971699655056 0.804252028465271 0.03359270095825195
0.07471620291471481 0.7241029739379883 0.03832089900970459
0.07090649753808975 0.7407680153846741 0.09423849731683731
0.060873501002788544 0.7907389998435974 0.09144949913024902
0.05698620155453682 0.818265974521637 0.05729430168867111
0.039959799498319626 0.665897011756897 0.05343789979815483
0.0703698992729187 0.6636819839477539 0.05635320022702217
0.06771770119667053 0.6634209752082825 0.09389150142669678
0.044787999242544174 0.6693310141563416 0.09848450124263763
0.030503999441862106 0.6692119836807251 0.08069779723882675
0.11806400120258331 0.6213889718055725 0.05568210035562515
0.09867549687623978 0.6213889718055725 0.06794659793376923
0.08734030276536942 0.6213889718055725 0.08775889873504639
0.09788999706506729 0.6213889718055725 0.11067900061607361
0.22056999802589417 0.6223130226135254 0.0673758015036583
0.19636200368404388 0.6217330098152161 0.054441001266241074
0.15733100473880768 0.6213889718055725 0.042340800166130066
0.03722979873418808 0.6410120129585266 0.061782099306583405
0.06972409784793854 0.6356170177459717 0.06180569902062416
0.06571879982948303 0.6566810011863708 0.0989656001329422
0.04418709874153137 0.6589499711990356 0.10264399647712708
0.02909659966826439 0.6525430083274841 0.08277209848165512
0.032645899802446365 0.5509700179100037 0.1264130026102066
0.056783199310302734 0.5521630048751831 0.1207360029220581
0.05148560181260109 0.5689470171928406 0.15846100449562073
0.037180300801992416 0.570106029510498 0.16482999920845032
0.02500000037252903 0.5596479773521423 0.14758899807929993
0.2717610001564026 0.5352429747581482 0.06241409853100777
0.253042995929718 0.5408220291137695 0.06602860242128372
0.25832098722457886 0.5418279767036438 0.10071399807929993
0.2723259925842285 0.5364450216293335 0.106625996530056
0.28393301367759705 0.5351380109786987 0.08177720010280609
0.26406198740005493 0.6522560119628906 0.04959519952535629
0.24155199527740479 0.6425169706344604 0.05354459956288338
0.24997100234031677 0.6440569758415222 0.0931657999753952
0.2646329998970032 0.6455140113830566 0.09569600224494934
0.2796329855918884 0.6485729813575745 0.07577139884233475
0.15928399562835693 0.5295100212097168 0.12836499512195587
0.11614199727773666 0.5182260274887085 0.1248140037059784
0.09067220240831375 0.5182260274887085 0.11124999821186066
0.07303609699010849 0.5211970210075378 0.0855875015258789
0.08644960075616837 0.5148159861564636 0.05640219897031784
0.1138949990272522 0.5122659802436829 0.041549600660800934
0.157943993806839 0.5175989866256714 0.03178400173783302
0.15935499966144562 0.4811379909515381 0.08498679846525192
0.16769400238990784 0.3545359969139099 0.12134599685668945
0.1644199937582016 0.3562679886817932 0.09208810329437256
0.17085500061511993 0.357699990272522 0.06659899652004242
0.19715499877929688 0.3585749864578247 0.06268049776554108
0.22107799351215363 0.35650700330734253 0.07505019754171371
0.2281789928674698 0.35509398579597473 0.09645839780569077
0.21709699928760529 0.3541080057621002 0.11786700040102005
0.19468699395656586 0.3546769917011261 0.12440600246191025
0.14435000717639923 0.3618530035018921 0.1120849996805191
0.11359599977731705 0.36464500427246094 0.12079299986362457
0.08959530293941498 0.3632679879665375 0.10971599817276001
0.0825238972902298 0.35964301228523254 0.09334269911050797
0.08874230086803436 0.3533630073070526 0.07037880271673203
0.1138869971036911 0.3499000072479248 0.0583466999232769
0.13739299774169922 0.35096099972724915 0.0642893984913826
0.14602899551391602 0.3562670052051544 0.08768650144338608
0.1685130000114441 0.33958500623703003 0.119439996778965
0.16498300433158875 0.3399159908294678 0.09267409890890121
0.17092500627040863 0.34160900115966797 0.06586570292711258
0.1963140070438385 0.3406270146369934 0.060120198875665665
0.22053499519824982 0.3397209942340851 0.07425229996442795
0.22740499675273895 0.3383530080318451 0.094964899122715
0.21617700159549713 0.33741098642349243 0.11567699909210205
0.19399599730968475 0.33743301033973694 0.12422499805688858
0.1414709985256195 0.34316200017929077 0.11496800184249878
0.11181700229644775 0.3425329923629761 0.12286800146102905
0.08922210335731506 0.3437120020389557 0.11154799908399582
0.08265729993581772 0.3442710041999817 0.09486199915409088
0.08889760076999664 0.34310200810432434 0.07195810228586197
0.11378899961709976 0.3418880105018616 0.05888490006327629
0.13690300285816193 0.3403550088405609 0.0654086023569107
0.1441890001296997 0.34164100885391235 0.08919840306043625
0.17818300426006317 0.13050299882888794 0.09624580293893814
0.17348399758338928 0.12963099777698517 0.0793628990650177
0.17870000004768372 0.12853999435901642 0.05982989817857742
0.19829800724983215 0.12883999943733215 0.05012759938836098
0.21470500528812408 0.1294730007648468 0.06349159777164459
0.22100700438022614 0.12907099723815918 0.07943440228700638
0.2134609967470169 0.12984700500965118 0.09455809742212296
0.19758500158786774 0.12986600399017334 0.10390900075435638
0.11801599711179733 0.12876400351524353 0.09617280215024948
0.10145600140094757 0.12995900213718414 0.10673300176858902
0.08708439767360687 0.13086700439453125 0.09554190188646317
0.0788538008928299 0.13160499930381775 0.07884000241756439
0.08475910127162933 0.13093900680541992 0.06048579886555672
0.10523200035095215 0.13023899495601654 0.05162600055336952
0.12025000154972076 0.1281989961862564 0.06115899980068207
0.1261020004749298 0.1290840059518814 0.07925140112638474
0.2006939947605133 0.5188210010528564 0.12392199784517288
0.22881899774074554 0.5190600156784058 0.1096929982304573
0.24318300187587738 0.518917977809906 0.08517660200595856
0.2305230051279068 0.5187240242958069 0.057331401854753494
0.20308400690555573 0.5126389861106873 0.039412498474121094
0.11223199963569641 0.5634580254554749 0.039651598781347275
0.08954670280218124 0.5695149898529053 0.05727040022611618
0.07555589824914932 0.5697439908981323 0.08483640104532242
0.0939377024769783 0.5670379996299744 0.11141400039196014
0.11937200278043747 0.564391016960144 0.1279119998216629
0.15903499722480774 0.5647670030593872 0.13180400431156158
0.1994059979915619 0.5659030079841614 0.12674100697040558
0.22818699479103088 0.5700950026512146 0.10910499840974808
0.2411320060491562 0.5720149874687195 0.08668360114097595
0.22715799510478973 0.5703340172767639 0.058188799768686295
0.1997469961643219 0.5642920136451721 0.03940439969301224
0.1579120010137558 0.5509600043296814 0.029544999822974205
0.11796600371599197 0.6089779734611511 0.05552529916167259
0.09285180270671844 0.6080179810523987 0.06853800266981125
0.08288349956274033 0.6076710224151611 0.0882280021905899
0.09774409979581833 0.6081079840660095 0.11058200150728226
0.12351100146770477 0.6072360277175903 0.12334900349378586
0.15824200212955475 0.6072360277175903 0.12828600406646729
0.19582299888134003 0.6081079840660095 0.12213200330734253
0.22255800664424896 0.6081079840660095 0.10783799737691879
0.23398800194263458 0.6089779734611511 0.08873370289802551
0.22425499558448792 0.6077460050582886 0.06651470065116882
0.19799000024795532 0.6068230271339417 0.052781399339437485
0.15732699632644653 0.6089779734611511 0.0424405001103878
0.1589840054512024 0.9504430294036865 0.12278100103139877
0.15699300169944763 0.9567279815673828 0.12274699658155441
0.15615800023078918 0.9703519940376282 0.09724289923906326
0.2049030065536499 0.8979550004005432 0.05476519837975502
0.20409099757671356 0.9142330288887024 0.050750698894262314
0.19933000206947327 0.9466890096664429 0.055590998381376266
0.18888099491596222 0.9676979780197144 0.062170300632715225
0.1720699965953827 0.9746659994125366 0.07077710330486298
0.1416040062904358 0.9750000238418579 0.0709581971168518
0.12481500208377838 0.9692190289497375 0.06342300027608871
0.11473400145769119 0.9466909766197205 0.055415499955415726
0.11230400204658508 0.9148460030555725 0.052551500499248505
0.11013700067996979 0.9007139801979065 0.054884400218725204
0.20029200613498688 0.9430109858512878 0.11065699905157089
0.18253900110721588 0.9459850192070007 0.11937399953603745
0.20791199803352356 0.9142190217971802 0.07821659743785858
0.2075120061635971 0.9266200065612793 0.08989600092172623
0.19913199543952942 0.9586640000343323 0.09312029927968979
0.183445006608963 0.9687560200691223 0.0959457978606224
0.13505500555038452 0.9515100121498108 0.11794199794530869
0.11655499786138535 0.9451460242271423 0.10613600164651871
0.13093699514865875 0.9675629734992981 0.09501180052757263
0.1156340017914772 0.9583669900894165 0.09324509650468826
0.1072470024228096 0.9319599866867065 0.0893997997045517
0.10582099854946136 0.9193459749221802 0.073723703622818
0.12382200360298157 0.8741980195045471 0.043472498655319214
0.12450399994850159 0.9131619930267334 0.03588379919528961
0.1468389928340912 0.8613920211791992 0.03963080048561096
0.14188799262046814 0.94657301902771 0.03278860077261925
0.15654300153255463 0.9094629883766174 0.03014880046248436
0.16515900194644928 0.8613470196723938 0.0386928990483284
0.1546739935874939 0.9655799865722656 0.04923560097813606
0.16807499527931213 0.9483640193939209 0.03656730055809021
0.18841800093650818 0.9147070050239563 0.039035700261592865
0.19025099277496338 0.8710190057754517 0.04469560086727142
3 0 1 6
3 0 6 5
3 1 2 7
3 1 7 6
3 2 3 8
3 2 8 7
3 3 4 9
3 3 9 8
3 4 0 5
3 4 5 9
3 5 6 11
3 5 11 10
3 6 7 12
3 6 12 11
3 7 8 13
3 7 13 12
3 8 9 14
3 8 14 13
3 9 5 10
3 9 10 14
3 3 20 19
3 3 19 4
3 2 15 20
3 2 20 3
3 0 21 16
3 1 0 16
3 0 17 21
3 0 4 17
3 4 18 17
3 4 19 18
3 2 1 16
3 2 16 15
3 22 23 28
3 22 28 27
3 23 24 29
3 23 29 28
3 24 25 30
3 24 30 29
3 25 26 31
3 25 31 30
3 26 22 27
3 26 27 31
3 27 28 33
3 27 33 32
3 28 29 34
3 28 34 33
3 29 30 35
3 29 35 34
3 30 31 36
3 30 36 35
3 31 27 32
3 31 32 36
3 25 42 41
3 25 41 26
3 24 37 42
3 24 42 25
3 26 41 40
3 23 22 43
3 23 43 38
3 22 26 39
3 22 39 43
3 26 40 39
3 24 23 38
3 24 38 37
3 44 48 45
3 48 49 45
3 45 49 46
3 49 50 46
3 46 50 47
3 50 51 47
3 47 51 44
3 51 48 44
3 48 73 49
3 73 72 49
3 49 72 50
3 72 61 50
3 50 61 51
3 61 60 51
3 51 60 48
3 60 73 48
3 47 44 45
3 45 46 47
3 52 56 53
3 56 57 53
3 53 57 54
3 57 58 54
3 54 58 55
3 58 59 55
3 55 59 52
3 59 56 52
3 56 60 57
3 60 61 57
3 57 61 58
3 61 83 58
3 58 83 59
3 83 82 59
3 59 82 56
3 82 60 56
3 55 52 53
3 53 54 55
3 62 66 63
3 66 67 63
3 63 67 64
3 67 68 64
3 64 68 65
3 68 69 65
3 65 69 62
3 69 66 62
3 66 70 67
3 70 71 67
3 67 71 68
3 71 72 68
3 68 72 69
3 72 73 69
3 69 73 66
3 73 70 66
3 65 62 63
3 63 64 65
3 74 78 75
3 78 79 75
3 75 79 76
3 79 80 76
3 76 80 77
3 80 81 77
3 77 81 74
3 81 78 74
3 78 82 79
3 82 83 79
3 79 83 80
3 83 95 80
3 80 95 81
3 95 94 81
3 81 94 78
3 94 82 78
3 77 74 75
3 75 76 77
3 84 88 85
3 88 89 85
3 85 89 86
3 89 90 86
3 86 90 87
3 90 91 87
3 87 91 84
3 91 88 84
3 88 92 89
3 92 93 89
3 89 93 90
3 93 94 90
3 90 94 91
3 94 95 91
3 91 95 88
3 95 92 88
3 87 84 85
3 85 86 87
3 96 70 73
3 96 73 60
3 96 60 82
3 96 82 94
3 96 94 93
3 72 71 97
3 61 72 97
3 83 61 97
3 95 83 97
3 92 95 97
3 96 93 99
3 101 92 97
3 100 97 71
3 70 96 98
3 99 93 92
3 101 99 92
3 98 100 71
3 98 71 70
3 100 98 102
3 102 103 100
3 105 99 104
3 99 101 104
3 96 99 105
3 98 96 102
3 96 105 102
3 104 101 97
3 103 97 100
3 104 97 103
3 106 110 107
3 110 111 107
3 107 111 108
3 111 112 108
3 108 112 109
3 112 113 109
3 109 113 106
3 113 110 106
3 110 114 111
3 114 115 111
3 111 115 112
3 115 125 112
3 112 125 113
3 125 124 113
3 113 124 110
3 124 114 110
3 109 106 107
3 107 108 109
3 116 120 117
3 120 121 117
3 117 121 118
3 121 122 118
3 118 122 119
3 122 123 119
3 119 123 116
3 123 120 116
3 120 124 121
3 124 125 121
3 121 125 122
3 125 145 122
3 122 145 123
3 145 144 123
3 123 144 120
3 144 124 120
3 119 116 117
3 117 118 119
3 126 130 127
3 130 131 127
3 127 131 128
3 131 132 128
3 128 132 129
3 132 133 129
3 129 133 126
3 133 130 126
3 130 134 131
3 134 135 131
3 131 135 132
3 135 115 132
3 132 115 133
3 115 114 133
3 133 114 130
3 114 134 130
3 129 126 127
3 127 128 129
3 136 140 137
3 140 141 137
3 137 141 138
3 141 142 138
3 138 142 139
3 142 143 139
3 139 143 136
3 143 140 136
3 140 144 141
3 144 145 141
3 141 145 142
3 145 157 142
3 142 157 143
3 157 156 143
3 143 156 140
3 156 144 140
3 139 136 137
3 137 138 139
3 146 150 147
3 150 151 147
3 147 151 148
3 151 152 148
3 148 152 149
3 152 153 149
3 149 153 146
3 153 150 146
3 150 154 151
3 154 155 151
3 151 155 152
3 155 156 152
3 152 156 153
3 156 157 153
3 153 157 150
3 157 154 150
3 149 146 147
3 147 148 149
3 158 154 157
3 158 157 145
3 158 145 125
3 158 125 115
3 158 115 135
3 144 156 159
3 124 144 159
3 114 124 159
3 134 114 159
3 161 154 158
3 158 135 160
3 159 163 134
3 162 159 155
3 135 134 163
3 160 135 163
3 161 162 155
3 154 161 155
3 156 155 159
3 162 164 165
3 161 164 162
3 167 160 163
3 167 163 166
3 164 161 158
3 158 160 167
3 164 158 167
3 162 165 159
3 159 166 163
3 165 166 159
3 168 169 174
3 169 170 187
3 169 187 174
3 174 187 175
3 170 171 188
3 170 188 187
3 187 188 189
3 187 189 175
3 175 189 176
3 171 172 190
3 171 190 188
3 188 190 191
3 188 191 189
3 189 191 192
3 189 192 176
3 176 192 177
3 172 173 193
3 172 193 190
3 192 194 177
3 177 194 178
3 173 183 193
3 194 184 178
3 168 174 179
3 174 175 195
3 174 195 179
3 179 195 180
3 175 176 196
3 175 196 195
3 195 196 197
3 195 197 180
3 180 197 181
3 176 177 198
3 176 198 196
3 196 198 199
3 196 199 197
3 197 199 200
3 197 200 181
3 181 200 182
3 177 178 201
3 177 201 198
3 198 201 202
3 198 202 199
3 178 185 201
3 168 179 169
3 179 180 203
3 179 203 169
3 169 203 170
3 180 181 204
3 180 204 203
3 203 204 205
3 203 205 170
3 170 205 171
3 181 182 206
3 181 206 204
3 204 206 207
3 204 207 205
3 205 207 208
3 205 208 171
3 171 208 172
3 182 209 206
3 206 209 207
3 207 210 208
3 208 210 211
3 208 211 172
3 172 211 173
3 211 186 173
3 186 212 183
3 185 178 184
3 186 183 173
3 194 192 191
3 193 191 190
3 194 191 216
3 193 216 191
3 216 219 222
3 216 222 220
3 194 216 220
3 194 220 218
3 184 194 218
3 184 218 224
3 215 184 224
3 215 224 223
3 214 215 223
3 216 193 219
3 193 217 219
3 193 183 217
3 183 221 217
3 183 212 221
3 212 223 221
3 212 213 223
3 213 214 223
3 185 184 215
3 17 18 229
3 17 229 228
3 18 19 231
3 18 231 230
3 20 225 233
3 20 233 232
3 225 226 234
3 225 234 233
3 226 227 235
3 226 235 234
3 227 21 236
3 227 236 235
3 21 228 237
3 21 237 236
3 228 229 238
3 228 238 237
3 229 230 238
3 230 231 239
3 230 239 238
3 231 20 232
3 231 232 239
3 21 17 228
3 16 21 227
3 16 227 226
3 15 226 225
3 15 16 226
3 15 225 20
3 19 20 231
3 18 230 229
3 234 240 233
3 235 241 234
3 234 241 240
3 232 233 242
3 233 240 242
3 236 243 235
3 235 243 241
3 232 242 243
3 236 232 243
3 39 40 248
3 39 248 247
3 40 41 250
3 40 250 249
3 42 244 252
3 42 252 251
3 244 245 253
3 244 253 252
3 245 246 254
3 245 254 253
3 246 43 255
3 246 255 254
3 43 247 256
3 43 256 255
3 247 248 257
3 247 257 256
3 248 249 257
3 249 250 258
3 249 258 257
3 250 42 251
3 250 251 258
3 43 39 247
3 38 43 246
3 38 246 245
3 37 245 244
3 37 38 245
3 37 244 42
3 41 42 250
3 40 249 248
3 253 259 252
3 254 260 253
3 253 260 259
3 251 252 261
3 252 259 261
3 255 262 254
3 254 262 260
3 251 261 262
3 255 251 262
3 269 267 268
3 268 270 269
3 271 269 270
3 270 272 271
3 219 271 272
3 217 319 271
3 271 219 217
3 273 326 327
3 327 266 273
3 316 273 266
3 266 317 316
3 275 274 273
3 273 316 275
3 276 275 316
3 316 315 276
3 278 276 315
3 315 277 278
3 221 278 277
3 277 217 221
3 280 330 331
3 331 279 280
3 282 280 279
3 279 281 282
3 284 282 281
3 281 283 284
3 285 283 276
3 276 278 285
3 223 285 278
3 278 221 223
3 223 286 285
3 288 329 330
3 330 280 288
3 289 287 329
3 329 288 289
3 224 290 286
3 286 223 224
3 290 224 218
3 294 292 291
3 291 293 294
3 295 293 289
3 289 312 295
3 296 294 293
3 293 295 296
3 297 295 312
3 312 313 297
3 299 297 313
3 313 314 299
3 218 299 314
3 220 300 299
3 299 218 220
3 300 222 298
3 222 304 298
3 298 304 296
3 304 303 296
3 222 272 270
3 222 270 304
3 304 270 268
3 304 268 303
3 220 222 300
3 219 272 222
3 319 277 315
3 314 310 290
3 347 348 306
3 347 306 305
3 348 349 307
3 348 307 306
3 349 350 308
3 349 308 307
3 350 351 309
3 350 309 308
3 351 347 305
3 351 305 309
3 305 306 311
3 305 311 310
3 306 307 312
3 306 312 311
3 307 308 313
3 307 313 312
3 308 309 314
3 308 314 313
3 309 305 310
3 309 310 314
3 312 313 314
3 312 314 310
3 311 312 310
3 319 318 317
3 315 319 317
3 315 317 316
3 315 316 321
3 315 321 320
3 316 317 322
3 316 322 321
3 317 318 323
3 317 323 322
3 318 319 324
3 318 324 323
3 319 315 320
3 319 320 324
3 320 321 333
3 320 333 332
3 321 322 334
3 321 334 333
3 322 323 335
3 322 335 334
3 323 324 336
3 323 336 335
3 324 320 332
3 324 332 336
3 297 296 295
3 297 298 296
3 300 298 299
3 299 298 297
3 296 302 294
3 296 303 302
3 294 301 292
3 294 302 301
3 265 263 301
3 302 265 301
3 265 328 263
3 265 264 328
3 268 265 302
3 303 268 302
3 268 264 265
3 268 267 264
3 271 318 269
3 271 319 318
3 267 266 264
3 267 317 266
3 269 317 267
3 269 318 317
3 264 266 327
3 274 331 325
3 274 279 331
3 273 325 326
3 273 274 325
3 275 281 279
3 275 279 274
3 276 283 281
3 276 281 275
3 285 284 283
3 285 286 284
3 286 310 284
3 286 290 310
3 282 288 280
3 282 311 288
3 284 311 282
3 284 310 311
3 264 327 328
3 311 289 288
3 312 289 311
3 293 291 287
3 289 293 287
3 217 277 319
3 218 314 290
3 332 333 338
3 332 338 337
3 333 334 339
3 333 339 338
3 334 335 340
3 334 340 339
3 335 336 341
3 335 341 340
3 336 332 337
3 336 337 341
3 342 343 348
3 342 348 347
3 343 344 349
3 343 349 348
3 344 345 350
3 344 350 349
3 345 346 351
3 345 351 350
3 346 342 347
3 346 347 351
3 352 359 361
3 352 361 360
3 359 358 362
3 359 362 361
3 358 412 363
3 358 363 362
3 412 411 364
3 412 364 363
3 411 410 365
3 411 365 364
3 410 409 366
3 410 366 365
3 409 408 367
3 409 367 366
3 408 352 360
3 408 360 367
3 352 353 369
3 352 369 368
3 353 354 370
3 353 370 369
3 354 355 371
3 354 371 370
3 355 356 372
3 355 372 371
3 356 357 373
3 356 373 372
3 357 358 374
3 357 374 373
3 358 359 375
3 358 375 374
3 359 352 368
3 359 368 375
3 360 361 377
3 360 377 376
3 361 362 378
3 361 378 377
3 362 363 379
3 362 379 378
3 363 364 380
3 363 380 379
3 364 365 381
3 364 381 380
3 365 366 382
3 365 382 381
3 366 367 383
3 366 383 382
3 367 360 376
3 367 376 383
3 368 369 385
3 368 385 384
3 369 370 386
3 369 386 385
3 370 371 387
3 370 387 386
3 371 372 388
3 371 388 387
3 372 373 389
3 372 389 388
3 373 374 390
3 373 390 389
3 374 375 391
3 374 391 390
3 375 368 384
3 375 384 391
3 376 377 393
3 376 393 392
3 377 378 394
3 377 394 393
3 378 379 395
3 378 395 394
3 379 380 396
3 379 396 395
3 380 381 397
3 380 397 396
3 381 382 398
3 381 398 397
3 382 383 399
3 382 399 398
3 383 376 392
3 383 392 399
3 384 385 401
3 384 401 400
3 385 386 402
3 385 402 401
3 386 387 403
3 386 403 402
3 387 388 404
3 387 404 403
3 388 389 405
3 388 405 404
3 389 390 406
3 389 406 405
3 390 391 407
3 390 407 406
3 391 384 400
3 391 400 407
3 357 356 414
3 357 414 413
3 356 355 415
3 356 415 414
3 355 354 416
3 355 416 415
3 354 353 417
3 354 417 416
3 353 352 418
3 353 418 417
3 352 408 419
3 352 419 418
3 408 409 420
3 408 420 419
3 409 410 421
3 409 421 420
3 410 411 422
3 410 422 421
3 411 412 423
3 411 423 422
3 412 358 424
3 412 424 423
3 358 357 413
3 358 413 424
3 413 414 426
3 413 426 425
3 414 415 427
3 414 427 426
3 415 416 428
3 415 428 427
3 416 417 429
3 416 429 428
3 417 418 430
3 417 430 429
3 418 419 431
3 418 431 430
3 419 420 432
3 419 432 431
3 420 421 433
3 420 433 432
3 421 422 434
3 421 434 433
3 422 423 435
3 422 435 434
3 423 424 436
3 423 436 435
3 424 413 425
3 424 425 436
3 425 426 326
3 425 326 325
3 426 427 327
3 426 327 326
3 427 428 328
3 427 328 327
3 428 429 263
3 428 263 328
3 429 430 301
3 429 301 263
3 430 431 292
3 430 292 301
3 431 432 291
3 431 291 292
3 432 433 287
3 432 287 291
3 433 434 329
3 433 329 287
3 434 435 330
3 434 330 329
3 435 436 331
3 435 331 330
3 436 425 325
3 436 325 331
3 437 451 438
3 450 453 454
3 450 454 451
3 451 454 455
3 451 455 438
3 438 455 439
3 452 440 441
3 452 441 453
3 453 441 442
3 453 442 454
3 454 442 443
3 454 443 455
3 455 443 444
3 455 444 439
3 437 438 456
3 438 439 458
3 438 458 456
3 456 458 459
3 456 459 457
3 457 459 460
3 439 445 458
3 458 445 446
3 458 446 459
3 459 446 447
3 459 447 460
3 460 447 448
3 460 448 461
3 461 448 449
3 449 448 462
3 448 447 463
3 448 463 462
3 462 463 464
3 447 446 465
3 447 465 463
3 463 465 466
3 463 466 464
3 464 466 467
3 446 445 468
3 446 468 465
3 465 468 469
3 465 469 466
3 466 469 470
3 466 470 467
3 467 470 471
3 445 444 468
3 468 444 443
3 468 443 469
3 469 443 442
3 469 442 470
3 470 442 441
3 470 441 471
3 471 441 440
3 445 439 444
3 456 209 182
3 456 182 437
3 437 182 200
3 437 200 451
3 451 200 199
3 450 451 199
3 450 199 202
3 450 202 453
3 453 202 201
3 453 201 452
3 452 201 185
3 452 185 440
3 440 185 215
3 440 215 471
3 456 457 209
3 457 207 209
3 457 460 210
3 457 210 207
3 460 461 211
3 460 211 210
3 461 449 186
3 461 186 211
3 449 462 212
3 449 212 186
3 215 467 471
3 212 462 464
