ply
format ascii 1.0
element vertex 148
property float x
property float y
property float z
element face 228
property list uchar int vertex_indices
end_header
0.08419880270957947 0.5014089941978455 0.02500000037252903
0.23642399907112122 0.5014089941978455 0.02500000037252903
0.23642399907112122 0.6028929948806763 0.02500000037252903
0.08419880270957947 0.6028929948806763 0.02500000037252903
0.08419880270957947 0.5014089941978455 0.1264840066432953
0.23642399907112122 0.5014089941978455 0.1264840066432953
0.23642399907112122 0.6028929948806763 0.1264840066432953
0.08419880270957947 0.6028929948806763 0.1264840066432953
0.08419880270957947 0.2815279960632324 0.062210701406002045
0.157492995262146 0.2815279960632324 0.062210701406002045
0.157492995262146 0.5521510243415833 0.062210701406002045
0.08419880270957947 0.5521510243415833 0.062210701406002045
0.08419880270957947 0.2815279960632324 0.11859100311994553
0.157492995262146 0.2815279960632324 0.11859100311994553
0.157492995262146 0.5521510243415833 0.11859100311994553
0.08419880270957947 0.5521510243415833 0.11859100311994553
0.09265580028295517 0.044732898473739624 0.06784869730472565
0.1490360051393509 0.044732898473739624 0.06784869730472565
0.1490360051393509 0.2815279960632324 0.06784869730472565
0.09265580028295517 0.2815279960632324 0.06784869730472565
0.09265580028295517 0.044732898473739624 0.11295299977064133
0.1490360051393509 0.044732898473739624 0.11295299977064133
0.1490360051393509 0.2815279960632324 0.11295299977064133
0.09265580028295517 0.2815279960632324 0.11295299977064133
0.09547480195760727 0.02500000037252903 0.09040059894323349
0.1462170034646988 0.02500000037252903 0.09040059894323349
0.1462170034646988 0.06446590274572372 0.09040059894323349
0.09547480195760727 0.06446590274572372 0.09040059894323349
0.09547480195760727 0.02500000037252903 0.22571200132369995
0.1462170034646988 0.02500000037252903 0.22571200132369995
0.1462170034646988 0.06446590274572372 0.22571200132369995
0.09547480195760727 0.06446590274572372 0.22571200132369995
0.1631309986114502 0.2815279960632324 0.062210701406002045
0.23642399907112122 0.2815279960632324 0.062210701406002045
0.23642399907112122 0.5521510243415833 0.062210701406002045
0.1631309986114502 0.5521510243415833 0.062210701406002045
0.1631309986114502 0.2815279960632324 0.11859100311994553
0.23642399907112122 0.2815279960632324 0.11859100311994553
0.23642399907112122 0.5521510243415833 0.11859100311994553
0.1631309986114502 0.5521510243415833 0.11859100311994553
0.1715880036354065 0.044732898473739624 0.06784869730472565
0.22796699404716492 0.044732898473739624 0.06784869730472565
0.22796699404716492 0.2815279960632324 0.06784869730472565
0.1715880036354065 0.2815279960632324 0.06784869730472565
0.1715880036354065 0.044732898473739624 0.11295299977064133
0.22796699404716492 0.044732898473739624 0.11295299977064133
0.22796699404716492 0.2815279960632324 0.11295299977064133
0.1715880036354065 0.2815279960632324 0.11295299977064133
0.1744070053100586 0.02500000037252903 0.09040059894323349
0.225148007273674 0.02500000037252903 0.09040059894323349
0.225148007273674 0.06446590274572372 0.09040059894323349
0.1744070053100586 0.06446590274572372 0.09040059894323349
0.1744070053100586 0.02500000037252903 0.22571200132369995
0.225148007273674 0.02500000037252903 0.22571200132369995
0.225148007273674 0.06446590274572372 0.22571200132369995
0.1744070053100586 0.06446590274572372 0.22571200132369995
0.09829380363225937 0.6028929948806763 0.056572701781988144
0.2223290055990219 0.6028929948806763 0.056572701781988144
0.2223290055990219 0.6761869788169861 0.056572701781988144
0.09829380363225937 0.6761869788169861 0.056572701781988144
0.09829380363225937 0.6028929948806763 0.12422800064086914
0.2223290055990219 0.6028929948806763 0.12422800064086914
0.2223290055990219 0.6761869788169861 0.12422800064086914
0.09829380363225937 0.6761869788169861 0.12422800064086914
0.08137980103492737 0.6761869788169861 0.050934698432683945
0.23924300074577332 0.6761869788169861 0.050934698432683945
0.23924300074577332 0.8114989995956421 0.050934698432683945
0.08137980103492737 0.8114989995956421 0.050934698432683945
0.08137980103492737 0.6761869788169861 0.12986600399017334
0.23924300074577332 0.6761869788169861 0.12986600399017334
0.23924300074577332 0.8114989995956421 0.12986600399017334
0.08137980103492737 0.8114989995956421 0.12986600399017334
0.1349409967660904 0.8114989995956421 0.06502970308065414
0.1856819987297058 0.8114989995956421 0.06502970308065414
0.1856819987297058 0.8622400164604187 0.06502970308065414
0.1349409967660904 0.8622400164604187 0.06502970308065414
0.1349409967660904 0.8114989995956421 0.11577200144529343
0.1856819987297058 0.8114989995956421 0.11577200144529343
0.1856819987297058 0.8622400164604187 0.11577200144529343
0.1349409967660904 0.8622400164604187 0.11577200144529343
0.1264840066432953 0.8622400164604187 0.050934698432683945
0.1941390037536621 0.8622400164604187 0.050934698432683945
0.1941390037536621 0.9750000238418579 0.050934698432683945
0.1264840066432953 0.9750000238418579 0.050934698432683945
0.1264840066432953 0.8622400164604187 0.12986600399017334
0.1941390037536621 0.8622400164604187 0.12986600399017334
0.1941390037536621 0.9750000238418579 0.12986600399017334
0.1264840066432953 0.9750000238418579 0.12986600399017334
0.02500000037252903 0.8002229928970337 0.06502970308065414
0.1603119969367981 0.8002229928970337 0.06502970308065414
0.1603119969367981 0.8227739930152893 0.06502970308065414
0.02500000037252903 0.8227739930152893 0.06502970308065414
0.02500000037252903 0.8002229928970337 0.11577200144529343
0.1603119969367981 0.8002229928970337 0.11577200144529343
0.1603119969367981 0.8227739930152893 0.11577200144529343
0.02500000037252903 0.8227739930152893 0.11577200144529343
0.02500000037252903 0.6649109721183777 0.06502970308065414
0.07574179768562317 0.6649109721183777 0.06502970308065414
0.07574179768562317 0.8114989995956421 0.06502970308065414
0.02500000037252903 0.8114989995956421 0.06502970308065414
0.02500000037252903 0.6649109721183777 0.11577200144529343
0.07574179768562317 0.6649109721183777 0.11577200144529343
0.07574179768562317 0.8114989995956421 0.11577200144529343
0.02500000037252903 0.8114989995956421 0.11577200144529343
0.03232939913868904 0.5295990109443665 0.07686939835548401
0.06841249763965607 0.5295990109443665 0.07686939835548401
0.06841249763965607 0.6649109721183777 0.07686939835548401
0.03232939913868904 0.6649109721183777 0.07686939835548401
0.03232939913868904 0.5295990109443665 0.10393200069665909
0.06841249763965607 0.5295990109443665 0.10393200069665909
0.06841249763965607 0.6649109721183777 0.10393200069665909
0.03232939913868904 0.6649109721183777 0.10393200069665909
0.03063799999654293 0.46870899200439453 0.08476260304450989
0.07010389864444733 0.46870899200439453 0.08476260304450989
0.07010389864444733 0.5498960018157959 0.08476260304450989
0.03063799999654293 0.5498960018157959 0.08476260304450989
0.03063799999654293 0.46870899200439453 0.09603860229253769
0.07010389864444733 0.46870899200439453 0.09603860229253769
0.07010389864444733 0.5498960018157959 0.09603860229253769
0.03063799999654293 0.5498960018157959 0.09603860229253769
0.2956230044364929 0.8002229928970337 0.06502970308065414
0.2956230044364929 0.8227739930152893 0.06502970308065414
0.2956230044364929 0.8002229928970337 0.11577200144529343
0.2956230044364929 0.8227739930152893 0.11577200144529343
0.24488100409507751 0.6649109721183777 0.06502970308065414
0.2956230044364929 0.6649109721183777 0.06502970308065414
0.2956230044364929 0.8114989995956421 0.06502970308065414
0.24488100409507751 0.8114989995956421 0.06502970308065414
0.24488100409507751 0.6649109721183777 0.11577200144529343
0.2956230044364929 0.6649109721183777 0.11577200144529343
0.2956230044364929 0.8114989995956421 0.11577200144529343
0.24488100409507751 0.8114989995956421 0.11577200144529343
0.2522110044956207 0.5295990109443665 0.07686939835548401
0.2882939875125885 0.5295990109443665 0.07686939835548401
0.2882939875125885 0.6649109721183777 0.07686939835548401
0.2522110044956207 0.6649109721183777 0.07686939835548401
0.2522110044956207 0.5295990109443665 0.10393200069665909
0.2882939875125885 0.5295990109443665 0.10393200069665909
0.2882939875125885 0.6649109721183777 0.10393200069665909
0.2522110044956207 0.6649109721183777 0.10393200069665909
0.2505190074443817 0.46870899200439453 0.08476260304450989
0.2899850010871887 0.46870899200439453 0.08476260304450989
0.2899850010871887 0.5498960018157959 0.08476260304450989
0.2505190074443817 0.5498960018157959 0.08476260304450989
0.2505190074443817 0.46870899200439453 0.09603860229253769
0.2899850010871887 0.46870899200439453 0.09603860229253769
0.2899850010871887 0.5498960018157959 0.09603860229253769
0.2505190074443817 0.5498960018157959 0.09603860229253769
3 0 3 1
3 1 3 2
3 0 5 4
3 0 1 5
3 0 4 3
3 3 4 7
3 3 7 6
3 3 6 2
3 1 6 5
3 1 2 6
3 5 7 4
3 5 6 7
3 8 11 9
3 9 11 10
3 8 13 12
3 8 9 13
3 8 12 11
3 11 12 15
3 11 15 14
3 11 14 10
3 9 14 13
3 9 10 14
3 13 15 12
3 13 14 15
3 16 19 17
3 17 19 18
3 16 21 20
3 16 17 21
3 16 20 19
3 19 20 23
3 19 23 22
3 19 22 18
3 17 22 21
3 17 18 22
3 21 23 20
3 21 22 23
3 24 27 25
3 25 27 26
3 24 29 28
3 24 25 29
3 24 28 27
3 27 28 31
3 27 31 30
3 27 30 26
3 25 30 29
3 25 26 30
3 29 31 28
3 29 30 31
3 32 35 33
3 33 35 34
3 32 37 36
3 32 33 37
3 32 36 35
3 35 36 39
3 35 39 38
3 35 38 34
3 33 38 37
3 33 34 38
3 37 39 36
3 37 38 39
3 40 43 41
3 41 43 42
3 40 45 44
3 40 41 45
3 40 44 43
3 43 44 47
3 43 47 46
3 43 46 42
3 41 46 45
3 41 42 46
3 45 47 44
3 45 46 47
3 48 51 49
3 49 51 50
3 48 53 52
3 48 49 53
3 48 52 51
3 51 52 55
3 51 55 54
3 51 54 50
3 49 54 53
3 49 50 54
3 53 55 52
3 53 54 55
3 56 59 57
3 57 59 58
3 56 61 60
3 56 57 61
3 56 60 59
3 59 60 63
3 59 63 62
3 59 62 58
3 57 62 61
3 57 58 62
3 61 63 60
3 61 62 63
3 64 67 65
3 65 67 66
3 64 69 68
3 64 65 69
3 64 68 67
3 67 68 71
3 67 71 70
3 67 70 66
3 65 70 69
3 65 66 70
3 69 71 68
3 69 70 71
3 72 75 73
3 73 75 74
3 72 77 76
3 72 73 77
3 72 76 75
3 75 76 79
3 75 79 78
3 75 78 74
3 73 78 77
3 73 74 78
3 77 79 76
3 77 78 79
3 80 83 81
3 81 83 82
3 80 85 84
3 80 81 85
3 80 84 83
3 83 84 87
3 83 87 86
3 83 86 82
3 81 86 85
3 81 82 86
3 85 87 84
3 85 86 87
3 88 91 89
3 89 91 90
3 88 93 92
3 88 89 93
3 88 92 91
3 91 92 95
3 91 95 94
3 91 94 90
3 89 94 93
3 89 90 94
3 93 95 92
3 93 94 95
3 96 99 97
3 97 99 98
3 96 101 100
3 96 97 101
3 96 100 99
3 99 100 103
3 99 103 102
3 99 102 98
3 97 102 101
3 97 98 102
3 101 103 100
3 101 102 103
3 104 107 105
3 105 107 106
3 104 109 108
3 104 105 109
3 104 108 107
3 107 108 111
3 107 111 110
3 107 110 106
3 105 110 109
3 105 106 110
3 109 111 108
3 109 110 111
3 112 115 113
3 113 115 114
3 112 117 116
3 112 113 117
3 112 116 115
3 115 116 119
3 115 119 118
3 115 118 114
3 113 118 117
3 113 114 118
3 117 119 116
3 117 118 119
3 89 90 120
3 120 90 121
3 89 122 93
3 89 120 122
3 89 93 90
3 90 93 94
3 90 94 123
3 90 123 121
3 120 123 122
3 120 121 123
3 122 94 93
3 122 123 94
3 124 127 125
3 125 127 126
3 124 129 128
3 124 125 129
3 124 128 127
3 127 128 131
3 127 131 130
3 127 130 126
3 125 130 129
3 125 126 130
3 129 131 128
3 129 130 131
3 132 135 133
3 133 135 134
3 132 137 136
3 132 133 137
3 132 136 135
3 135 136 139
3 135 139 138
3 135 138 134
3 133 138 137
3 133 134 138
3 137 139 136
3 137 138 139
3 140 143 141
3 141 143 142
3 140 145 144
3 140 141 145
3 140 144 143
3 143 144 147
3 143 147 146
3 143 146 142
3 141 146 145
3 141 142 146
3 145 147 144
3 145 146 147
