ply
format ascii 1.0
element vertex 471
property float x
property float y
property float z
element face 882
property list uchar int vertex_indices
end_header
0.18409599363803864 0.9381639957427979 0.14693300426006317
0.2193160057067871 0.8942970037460327 0.08725730329751968
0.1504029929637909 0.8941540122032166 0.08742199838161469
0.21780100464820862 0.9310050010681152 0.14238500595092773
0.2046169936656952 0.9341800212860107 0.14942699670791626
0.22152100503444672 0.9068509936332703 0.1111069992184639
0.22269800305366516 0.921763002872467 0.12008500099182129
0.1526689976453781 0.9315990209579468 0.14259900152683258
0.16488699615001678 0.9404879808425903 0.14295199513435364
0.14787599444389343 0.9223809838294983 0.12056999653577805
0.14866599440574646 0.9071589708328247 0.111845001578331
0.16410499811172485 0.8759120106697083 0.07691200077533722
0.20608100295066833 0.8770710229873657 0.07632949948310852
0.18680499494075775 0.9504950046539307 0.15122300386428833
0.1847829967737198 0.9567660093307495 0.15118899941444397
0.1839350014925003 0.9703609943389893 0.12528899312019348
0.2334360033273697 0.8981119990348816 0.0821525976061821
0.2326119989156723 0.9143570065498352 0.07807590067386627
0.22777600586414337 0.9467470049858093 0.0829911008477211
0.217166006565094 0.9677140116691589 0.08967260271310806
0.20009399950504303 0.9746670126914978 0.09841299802064896
0.16915500164031982 0.9750000238418579 0.09859690070152283
0.15210600197315216 0.9692310094833374 0.09094469994306564
0.14186899363994598 0.9467499852180481 0.08281300216913223
0.13940100371837616 0.9149690270423889 0.0799046978354454
0.1371999979019165 0.9008659720420837 0.08227360248565674
0.22875399887561798 0.9430760145187378 0.13891099393367767
0.21072499454021454 0.9460440278053284 0.14776299893856049
0.23649199306964874 0.9143440127372742 0.10596799850463867
0.23608599603176117 0.9267190098762512 0.11782900243997574
0.22757600247859955 0.9586989879608154 0.12110300362110138
0.21164600551128387 0.9687700271606445 0.12397199869155884
0.16250500082969666 0.951557993888855 0.1463100016117096
0.14371800422668457 0.9452069997787476 0.13432100415229797
0.1583230048418045 0.9675769805908203 0.12302400171756744
0.1427830010652542 0.9584029912948608 0.12122900038957596
0.13426600396633148 0.9320480227470398 0.11732500046491623
0.13281799852848053 0.9194599986076355 0.10140500217676163
0.15109799802303314 0.8744029998779297 0.07068470120429993
0.15178999304771423 0.9132890105247498 0.06297840178012848
0.17447100579738617 0.861624002456665 0.06678339838981628
0.16944299638271332 0.9466300010681152 0.059835199266672134
0.18432599306106567 0.9095960259437561 0.057154398411512375
0.1930759996175766 0.8615769743919373 0.06583099812269211
0.1824280023574829 0.9656010270118713 0.07653740048408508
0.19603699445724487 0.9484189748764038 0.06367229670286179
0.21669499576091766 0.9148290157318115 0.06617909669876099
0.21855700016021729 0.8712319731712341 0.07192680239677429
0.15307800471782684 0.6228089928627014 0.1543080061674118
0.25694599747657776 0.623354971408844 0.11070899665355682
0.2486809939146042 0.6229220032691956 0.14403299987316132
0.2208389937877655 0.6230859756469727 0.15772700309753418
0.1856909990310669 0.6230760216712952 0.15377099812030792
0.14515100419521332 0.60971999168396 0.0829245001077652
0.11964700371026993 0.6087620258331299 0.0961391031742096
0.10952399671077728 0.6084169745445251 0.11613500118255615
0.12461499869823456 0.6088510155677795 0.13883499801158905
0.15078100562095642 0.6079819798469543 0.1518000066280365
0.18605199456214905 0.6079819798469543 0.15681399405002594
0.22421599924564362 0.6088510155677795 0.1505649983882904
0.25136598944664 0.6088510155677795 0.13604900240898132
0.26297199726104736 0.60971999168396 0.11664800345897675
0.25308799743652344 0.6084910035133362 0.09408450126647949
0.22641700506210327 0.6075689792633057 0.08013799786567688
0.18512199819087982 0.60971999168396 0.06963679939508438
0.14524999260902405 0.6221050024032593 0.08308380097150803
0.12556099891662598 0.6221050024032593 0.09553849697113037
0.1140500009059906 0.6221050024032593 0.1156580001115799
0.12476299703121185 0.6221050024032593 0.13893400132656097
0.24934600293636322 0.6230279803276062 0.09495890140533447
0.2247619926929474 0.6224499940872192 0.08182329684495926
0.18512700498104095 0.6221050024032593 0.0695355013012886
0.25610899925231934 0.6225159764289856 0.11070899665355682
0.15784500539302826 0.8431699872016907 0.08844350278377533
0.21110999584197998 0.8425729870796204 0.08779410272836685
0.16069500148296356 0.8340060114860535 0.10783600062131882
0.20799900591373444 0.8324620127677917 0.1081790030002594
0.1601870059967041 0.847898006439209 0.07634180039167404
0.1842159926891327 0.8208850026130676 0.1181889995932579
0.11337999999523163 0.7122510075569153 0.14860999584197998
0.13562500476837158 0.7103890180587769 0.1559469997882843
0.106454998254776 0.7182769775390625 0.11877399682998657
0.10766000300645828 0.7422860264778137 0.14943799376487732
0.13194100558757782 0.747635006904602 0.16856999695301056
0.10485699772834778 0.7735990285873413 0.14003700017929077
0.1358249932527542 0.7820870280265808 0.1460060030221939
0.11654400080442429 0.8076580166816711 0.12105099856853485
0.1405089944601059 0.8047189712524414 0.131181001663208
0.10992699861526489 0.718546986579895 0.07711239904165268
0.12426099926233292 0.7099140286445618 0.057346899062395096
0.12101899832487106 0.7957829833030701 0.054772600531578064
0.11501400172710419 0.8222169876098633 0.06366109848022461
0.18360400199890137 0.7100859880447388 0.05430600047111511
0.24523499608039856 0.7099109888076782 0.057444799691438675
0.1836480051279068 0.7317950129508972 0.05192570015788078
0.25463899970054626 0.7457550168037415 0.05330200120806694
0.1834000051021576 0.7998380064964294 0.05384879931807518
0.24560199677944183 0.7955229878425598 0.05588709935545921
0.18390199542045593 0.826587975025177 0.06095379963517189
0.25146499276161194 0.8218140006065369 0.06326510012149811
0.18440000712871552 0.8504980206489563 0.07234030216932297
0.26006999611854553 0.7156130075454712 0.07615160197019577
0.2596690058708191 0.7148650288581848 0.11993599683046341
0.20948000252246857 0.8473759889602661 0.07589740306138992
0.2525849938392639 0.7122889757156372 0.14837400615215302
0.230445995926857 0.7097349762916565 0.15606600046157837
0.2606010138988495 0.7417730093002319 0.15425799787044525
0.23784400522708893 0.7487109899520874 0.16765399277210236
0.2614319920539856 0.7783070206642151 0.1424960047006607
0.23165999352931976 0.7830179929733276 0.1448729932308197
0.25505998730659485 0.8098289966583252 0.11872400343418121
0.23006600141525269 0.8047890067100525 0.12984700500965118
0.18456600606441498 0.7062060236930847 0.1614069938659668
0.18443399667739868 0.7423080205917358 0.16843600571155548
0.18408100306987762 0.782496988773346 0.14267900586128235
0.30349001288414 0.6647629737854004 0.07371159642934799
0.2688460052013397 0.6585850119590759 0.07992450147867203
0.27889499068260193 0.6653760075569153 0.12549999356269836
0.29892298579216003 0.6707190275192261 0.12574100494384766
0.31449100375175476 0.671343982219696 0.10307300090789795
0.27216601371765137 0.7976670265197754 0.06114339828491211
0.2640970051288605 0.7446720004081726 0.12222500145435333
0.27629101276397705 0.8022850155830383 0.11560200154781342
0.27795299887657166 0.8200430274009705 0.08390569686889648
0.09628909826278687 0.8000800013542175 0.05453069880604744
0.10853900015354156 0.7481150031089783 0.06016860157251358
0.09975689649581909 0.7658420205116272 0.11610600352287292
0.09422340244054794 0.8030110001564026 0.1109820008277893
0.09081210196018219 0.8201209902763367 0.0778023973107338
0.048745300620794296 0.6910480260848999 0.02500000037252903
0.07196450233459473 0.6830959916114807 0.041521500796079636
0.05863939970731735 0.6849150061607361 0.07421319931745529
0.03296300023794174 0.6908760070800781 0.06560420244932175
0.02500000037252903 0.6973779797554016 0.03853889927268028
0.13886499404907227 0.07774470001459122 0.08002950251102448
0.1640630066394806 0.07775899767875671 0.0801772028207779
0.1656769961118698 0.05125100165605545 0.14379599690437317
0.150176003575325 0.04932880029082298 0.15129299461841583
0.13756300508975983 0.05102419853210449 0.14410500228405
0.13094399869441986 0.05765660107135773 0.12208200246095657
0.13387100398540497 0.06801020354032516 0.07807669788599014
0.15127000212669373 0.06825630366802216 0.07257299870252609
0.1663379967212677 0.06854789704084396 0.07781869918107986
0.17185600101947784 0.057767998427152634 0.12229699641466141
0.1659799963235855 0.036876000463962555 0.15276400744915009
0.15644800662994385 0.03585600107908249 0.17896300554275513
0.14288799464702606 0.035687100142240524 0.1795870065689087
0.1365090012550354 0.037427499890327454 0.15285199880599976
0.1306699961423874 0.05545889958739281 0.09411309659481049
0.13679300248622894 0.055807098746299744 0.07734449952840805
0.15127000212669373 0.05626180022954941 0.0722590982913971
0.16548700630664825 0.055596500635147095 0.07707169651985168
0.17340600490570068 0.05559289827942848 0.09435209631919861
0.16862699389457703 0.027092700824141502 0.15180400013923645
0.14893099665641785 0.02614770084619522 0.18341399729251862
0.13325199484825134 0.02725199982523918 0.1514430046081543
0.14766600728034973 0.028727499768137932 0.0767723023891449
0.1547520011663437 0.02883020043373108 0.07706660032272339
0.14766600728034973 0.028550999239087105 0.08351320028305054
0.1547520011663437 0.028653599321842194 0.08380740135908127
0.21288199722766876 0.07408449798822403 0.10057699680328369
0.2380799949169159 0.07410260289907455 0.100723996758461
0.23987999558448792 0.04927029833197594 0.16502900421619415
0.22419199347496033 0.04754510149359703 0.17256000638008118
0.21139299869537354 0.04905169829726219 0.16531500220298767
0.20496000349521637 0.05510539934039116 0.1431410014629364
0.20788800716400146 0.06430339813232422 0.09887959808111191
0.22528600692749023 0.06440550088882446 0.09337130188941956
0.2403540015220642 0.06483419984579086 0.09860759973526001
0.24587200582027435 0.055222298949956894 0.14335300028324127
0.23888899385929108 0.035283200442790985 0.17427599430084229
0.23046499490737915 0.03480109944939613 0.20057299733161926
0.21690399944782257 0.034648798406124115 0.20120100677013397
0.21064899861812592 0.035607099533081055 0.17447100579738617
0.2046860009431839 0.052174899727106094 0.11523900181055069
0.21080900728702545 0.05208539962768555 0.09846709668636322
0.22528600692749023 0.05240689963102341 0.09337130188941956
0.23950299620628357 0.05186780169606209 0.09819979965686798
0.247422993183136 0.05231520161032677 0.11547400057315826
0.24335600435733795 0.02614009939134121 0.17363999783992767
0.22294700145721436 0.02521269954741001 0.2052769958972931
0.20655499398708344 0.025479700416326523 0.17329999804496765
0.22168199717998505 0.02500009909272194 0.09860389679670334
0.2287680059671402 0.025110499933362007 0.09889529645442963
0.22168199717998505 0.02500000037252903 0.10534700006246567
0.2287680059671402 0.02511039935052395 0.1056390032172203
0.18711000680923462 0.5304129719734192 0.1568939983844757
0.14329800009727478 0.5191519856452942 0.15328800678253174
0.11743299663066864 0.5191519856452942 0.1395139992237091
0.09952359646558762 0.5221179723739624 0.11345300078392029
0.11314500123262405 0.5157489776611328 0.08381520211696625
0.14101700484752655 0.5132039785385132 0.06873209774494171
0.18574899435043335 0.5185269713401794 0.05881490185856819
0.1871809959411621 0.4821400046348572 0.11284299939870834
0.19564999639987946 0.3557949960231781 0.17149600386619568
0.19232499599456787 0.35752400755882263 0.14178399741649628
0.19886000454425812 0.35895100235939026 0.115898996591568
0.2255679965019226 0.359825998544693 0.11191999912261963
0.24986200034618378 0.35776200890541077 0.12448199838399887
0.25707298517227173 0.3563520014286041 0.14622199535369873
0.24581900238990784 0.3553670048713684 0.16796299815177917
0.22306199371814728 0.3559339940547943 0.17460300028324127
0.1806650012731552 0.36448800563812256 0.1403609961271286
0.14932599663734436 0.3655009865760803 0.14920499920845032
0.12507100403308868 0.362746000289917 0.13795599341392517
0.11810600012540817 0.35872700810432434 0.12132900208234787
0.1247669979929924 0.3528270125389099 0.0980084016919136
0.1504559963941574 0.3508250117301941 0.08578970283269882
0.1742279976606369 0.35323598980903625 0.09182459861040115
0.18268300592899323 0.359019011259079 0.11558499932289124
0.19648200273513794 0.34087300300598145 0.1695609986782074
0.1928970068693161 0.3412030041217804 0.1423790007829666
0.1989320069551468 0.34289199113845825 0.11515499651432037
0.224713996052742 0.34191399812698364 0.10931999981403351
0.24931100010871887 0.3410080075263977 0.12367100268602371
0.25628799200057983 0.33964499831199646 0.14470499753952026
0.24488599598407745 0.338703989982605 0.1657389998435974
0.22236000001430511 0.3387260138988495 0.17441900074481964
0.17880399525165558 0.3456990122795105 0.1432889997959137
0.14877399802207947 0.34336501359939575 0.151311993598938
0.1257990002632141 0.34323999285697937 0.13981600105762482
0.11911100149154663 0.34341898560523987 0.1228720024228096
0.1255040019750595 0.34261399507522583 0.09961230307817459
0.15081000328063965 0.34283700585365295 0.08633629977703094
0.17433199286460876 0.3426389992237091 0.09296119958162308
0.18164600431919098 0.3443399965763092 0.11711999773979187
0.2063020020723343 0.12926700711250305 0.1460060030221939
0.20152999460697174 0.12839700281620026 0.12886099517345428
0.20682699978351593 0.12730799615383148 0.1090250015258789
0.22672900557518005 0.12760700285434723 0.09917250275611877
0.2433910071849823 0.1282390058040619 0.11274400353431702
0.2497899979352951 0.12783800065517426 0.12893399596214294
0.24212799966335297 0.1286119967699051 0.14429199695587158
0.22600500285625458 0.12863099575042725 0.1537889987230301
0.167153000831604 0.13073000311851501 0.12420299649238586
0.15029600262641907 0.13096700608730316 0.13492600619792938
0.13567399978637695 0.13104400038719177 0.12356200069189072
0.12728700041770935 0.131305992603302 0.10660099983215332
0.13331200182437897 0.13098199665546417 0.08796200156211853
0.15410900115966797 0.13146300613880157 0.07896479964256287
0.16945099830627441 0.1302960067987442 0.08864559978246689
0.17533400654792786 0.13151399791240692 0.10701899975538254
0.22916199266910553 0.5197470188140869 0.1523820012807846
0.25772300362586975 0.5199840068817139 0.13793200254440308
0.2723099887371063 0.5198429822921753 0.11303599923849106
0.2594529986381531 0.5196490287780762 0.08475849777460098
0.23158900439739227 0.5135769844055176 0.06656169891357422
0.1393280029296875 0.5642930269241333 0.06680460274219513
0.11629000306129456 0.5703369975090027 0.08469679951667786
0.1020829975605011 0.5705670118331909 0.11269000172615051
0.12075000256299973 0.5678660273551941 0.13967999815940857
0.14657799899578094 0.5652239918708801 0.15643399953842163
0.1868560016155243 0.5655990242958069 0.16038699448108673
0.22785399854183197 0.5667319893836975 0.15524500608444214
0.2570819854736328 0.5709180235862732 0.13733500242233276
0.27022799849510193 0.5728330016136169 0.11456599831581116
0.25603699684143066 0.5711550116539001 0.08562920242547989
0.2282000035047531 0.5651249885559082 0.0665535032749176
0.18571600317955017 0.5518199801445007 0.05654120072722435
0.16504999995231628 0.07578299939632416 0.1136849969625473
0.15971000492572784 0.08392380177974701 0.08386070281267166
0.14248700439929962 0.08391419798135757 0.08389230072498322
0.1371839940547943 0.07576730102300644 0.11373600363731384
0.15112900733947754 0.07079800218343735 0.13009299337863922
0.1692730039358139 0.11745499819517136 0.11081399768590927
0.16231399774551392 0.10958400368690491 0.08722840249538422
0.1398719996213913 0.1095929965376854 0.08725660294294357
0.13296100497245789 0.11747000366449356 0.11085899919271469
0.1511320024728775 0.1223289966583252 0.12541800737380981
0.16972599923610687 0.173553004860878 0.11680100113153458
0.1620350033044815 0.17425799369812012 0.08997280150651932
0.1372320055961609 0.17425599694252014 0.09000489860773087
0.12959399819374084 0.173552006483078 0.11685299873352051
0.14967599511146545 0.17311899363994598 0.13341400027275085
0.2388879954814911 0.07300689816474915 0.1342719942331314
0.23354800045490265 0.08036159723997116 0.10424499958753586
0.21632499992847443 0.08035299926996231 0.10427699983119965
0.2110220044851303 0.07299260050058365 0.13432300090789795
0.22496600449085236 0.06845200061798096 0.15080499649047852
0.2431109994649887 0.11458799988031387 0.1303109973669052
0.23615199327468872 0.10610199719667435 0.10694000124931335
0.2137099951505661 0.10611200332641602 0.1069680005311966
0.2067990005016327 0.11460500210523605 0.13035599887371063
0.2249699980020523 0.1198429986834526 0.14478300511837006
0.2460390031337738 0.1731960028409958 0.13507799804210663
0.23796500265598297 0.1731960028409958 0.10682400315999985
0.21192599833011627 0.1731960028409958 0.10685800015926361
0.20390799641609192 0.1731960028409958 0.13513199985027313
0.22499099373817444 0.1731960028409958 0.15257400274276733
0.18473200500011444 0.8949450254440308 0.16574199497699738
0.17624400556087494 0.8910530209541321 0.1543560028076172
0.165911003947258 0.8726789951324463 0.15329399704933167
0.15706300735473633 0.8756260275840759 0.1368809938430786
0.15434299409389496 0.8788989782333374 0.12241099774837494
0.15311799943447113 0.8838229775428772 0.10365399718284607
0.19358499348163605 0.8906260132789612 0.15589700639247894
0.2032579928636551 0.8723440170288086 0.15300500392913818
0.2110159993171692 0.8753700256347656 0.13511499762535095
0.2145259976387024 0.8785790205001831 0.12205100059509277
0.2161169946193695 0.8809170126914978 0.10361199826002121
0.18477599322795868 0.9040030241012573 0.16027800738811493
0.18481600284576416 0.9177780151367188 0.15311099588871002
0.18484699726104736 0.933696985244751 0.15298999845981598
0.15939299762248993 0.8702309727668762 0.09015169739723206
0.21034200489521027 0.8735929727554321 0.09006839990615845
0.1846819967031479 0.8725079894065857 0.15488900244235992
0.17441800236701965 0.8594949841499329 0.15091100335121155
0.19518199563026428 0.8593770265579224 0.15114499628543854
0.16972699761390686 0.8585649728775024 0.1335189938545227
0.1847199946641922 0.8527849912643433 0.13076600432395935
0.20108099281787872 0.8582879900932312 0.13373099267482758
0.16773200035095215 0.8585169911384583 0.11027999967336655
0.20304900407791138 0.8574979901313782 0.11007899791002274
0.19042399525642395 0.9019259810447693 0.1560799926519394
0.21288999915122986 0.9043769836425781 0.15163199603557587
0.20034800469875336 0.9195700287818909 0.14961999654769897
0.2196809947490692 0.9015700221061707 0.13742199540138245
0.17945800721645355 0.9022409915924072 0.15589499473571777
0.1692579984664917 0.9196550250053406 0.15016600489616394
0.157260000705719 0.9042779803276062 0.15188899636268616
0.166143998503685 0.9347379803657532 0.14977900683879852
0.14897899329662323 0.9004309773445129 0.13750199973583221
0.17592699825763702 0.8773810267448425 0.07333669811487198
0.1940310001373291 0.8775140047073364 0.07172819972038269
0.1844490021467209 0.8478019833564758 0.12397699803113937
0.2839289903640747 0.68886399269104 0.0790179967880249
0.2699660062789917 0.6892129778862 0.09946560114622116
0.2860339879989624 0.6910439729690552 0.12122400104999542
0.29843899607658386 0.6961179971694946 0.11233200132846832
0.3043470084667206 0.6957550048828125 0.09199199825525284
0.30475398898124695 0.4639900028705597 0.16008999943733215
0.3084709942340851 0.461557000875473 0.16106100380420685
0.3068459928035736 0.4625209867954254 0.16493499279022217
0.3032410144805908 0.4647989869117737 0.1631460040807724
0.3089640140533447 0.4764710068702698 0.15683700144290924
0.3150140047073364 0.4770050048828125 0.15753300487995148
0.31305399537086487 0.4790689945220947 0.16389699280261993
0.30738499760627747 0.47807300090789795 0.1619659960269928
0.30963200330734253 0.4947429895401001 0.14869800209999084
0.31478700041770935 0.4953390061855316 0.14974699914455414
0.29887300729751587 0.46317100524902344 0.16798299551010132
0.3024879992008209 0.4604490101337433 0.16923899948596954
0.30071398615837097 0.461544007062912 0.17325499653816223
0.29711800813674927 0.4642780125141144 0.1716800034046173
0.30639299750328064 0.4776510000228882 0.1650490015745163
0.31237098574638367 0.4784170091152191 0.16784100234508514
0.3091070055961609 0.4805229902267456 0.17325900495052338
0.3032340109348297 0.4796920120716095 0.170291006565094
0.30584201216697693 0.4949840009212494 0.15601900219917297
0.3111180067062378 0.49603500962257385 0.15918099880218506
0.3084999918937683 0.4741330146789551 0.14994299411773682
0.31150200963020325 0.47201400995254517 0.14997699856758118
0.3109950125217438 0.4724879860877991 0.15338599681854248
0.307900995016098 0.47454699873924255 0.1527010053396225
0.3106580078601837 0.48416098952293396 0.14641499519348145
0.3156209886074066 0.48402801156044006 0.14587700366973877
0.31559398770332336 0.4857519865036011 0.15117399394512177
0.31061699986457825 0.4854770004749298 0.15074899792671204
0.3111400008201599 0.4958449900150299 0.14232799410820007
0.31611600518226624 0.4967710077762604 0.14280499517917633
0.29538899660110474 0.4687429964542389 0.1774200052022934
0.29809799790382385 0.46591800451278687 0.17967499792575836
0.29547199606895447 0.46756500005722046 0.18292899429798126
0.2928540110588074 0.47033900022506714 0.18038399517536163
0.3023129999637604 0.4801520109176636 0.1732719987630844
0.30755698680877686 0.4804379940032959 0.17620599269866943
0.30365899205207825 0.48358801007270813 0.18177500367164612
0.2985129952430725 0.48319900035858154 0.1787009984254837
0.3011299967765808 0.49706798791885376 0.16256099939346313
0.3057340085506439 0.4988049864768982 0.1664160043001175
0.29257500171661377 0.49059000611305237 0.18261000514030457
0.2909030020236969 0.49066999554634094 0.18012599647045135
0.29332199692726135 0.4905790090560913 0.1779720038175583
0.29641300439834595 0.4905939996242523 0.17917899787425995
0.2930920124053955 0.5070980191230774 0.17856499552726746
0.28891101479530334 0.5046280026435852 0.17532500624656677
0.29406699538230896 0.5019779801368713 0.1702450066804886
0.2981640100479126 0.5049039721488953 0.17279000580310822
0.2911849915981293 0.5166890025138855 0.17078199982643127
0.2875019907951355 0.5117700099945068 0.1686439961194992
0.2957580089569092 0.5055149793624878 0.16824400424957275
0.29962998628616333 0.5072749853134155 0.17115500569343567
0.29721799492836 0.5225290060043335 0.14226600527763367
0.3024370074272156 0.5206980109214783 0.1340160071849823
0.29095301032066345 0.5251929759979248 0.1510010063648224
0.29176899790763855 0.5297819972038269 0.15617799758911133
0.3069300055503845 0.5268099904060364 0.14856599271297455
0.307888001203537 0.5227429866790771 0.13505199551582336
0.28854599595069885 0.6261399984359741 0.08362290263175964
0.27918100357055664 0.6286929845809937 0.11318500339984894
0.289218008518219 0.6330350041389465 0.12261400371789932
0.3036470115184784 0.6336050033569336 0.1174900010228157
0.3107779920101166 0.6350539922714233 0.09776359796524048
0.2867330014705658 0.6386280059814453 0.08164060115814209
0.27807798981666565 0.6365290284156799 0.1107729971408844
0.28829801082611084 0.6402599811553955 0.12035000324249268
0.3023650050163269 0.6428179740905762 0.11582300066947937
0.31107500195503235 0.6456009745597839 0.09622719883918762
0.07748179882764816 0.7416549921035767 0.04275970160961151
0.09015549719333649 0.7263200283050537 0.05867049843072891
0.07641740143299103 0.7240949869155884 0.08468089997768402
0.06223760172724724 0.7376390099525452 0.07381600141525269
0.05890769883990288 0.7497760057449341 0.058400001376867294
0.11499600112438202 0.5387120246887207 0.0837889015674591
0.11685100197792053 0.5422589778900146 0.08622469753026962
0.11424300074577332 0.541471004486084 0.0888110026717186
0.11208099871873856 0.5378190279006958 0.086593396961689
0.10998699814081192 0.5536190271377563 0.07755360007286072
0.11323899775743484 0.5557119846343994 0.08251500129699707
0.10909099876880646 0.5554410219192505 0.08625420182943344
0.10484299808740616 0.553380012512207 0.08236800134181976
0.11023399978876114 0.535315990447998 0.09124849736690521
0.1131879985332489 0.5406150221824646 0.09374680370092392
0.1096929982304573 0.5388630032539368 0.09713009744882584
0.1073869988322258 0.5344539880752563 0.09508469700813293
0.10275000333786011 0.5511490106582642 0.08346790075302124
0.10784699767827988 0.5539720058441162 0.0873359963297844
0.10422500222921371 0.5537840127944946 0.09303600341081619
0.09902799874544144 0.5509330034255981 0.08933889865875244
0.10332699865102768 0.5715870261192322 0.08239919692277908
0.10884200036525726 0.5721909999847412 0.08573500066995621
0.11894100159406662 0.5531460046768188 0.0775235965847969
0.11990699917078018 0.5558909773826599 0.07979589700698853
0.11730299890041351 0.5551589727401733 0.08120539784431458
0.11609599739313126 0.5523300170898438 0.07897759974002838
0.11680600047111511 0.5652170181274414 0.07310450077056885
0.11833500117063522 0.5669479966163635 0.07753069698810577
0.11434999853372574 0.5666490197181702 0.07963880151510239
0.11190599948167801 0.5649399757385254 0.07560999691486359
0.11522399634122849 0.5790110230445862 0.07265420258045197
0.11780299991369247 0.5784710049629211 0.07691609859466553
0.11314000189304352 0.5747789740562439 0.08050499856472015
0.10973499715328217 0.5747020244598389 0.0765765979886055
0.10395299643278122 0.538686990737915 0.09914270043373108
0.1064089983701706 0.5430030226707458 0.09975910186767578
0.10395099967718124 0.5431939959526062 0.10427100211381912
0.10151399672031403 0.5387679934501648 0.10351400077342987
0.09726689755916595 0.552702009677887 0.09210319817066193
0.10194499790668488 0.5559599995613098 0.09495750069618225
0.09843649715185165 0.5569019913673401 0.10086999833583832
0.0936461016535759 0.5536969900131226 0.09817349910736084
0.0983681008219719 0.5721660256385803 0.09131059795618057
0.1038919985294342 0.5724070072174072 0.09441959857940674
0.09572959691286087 0.5639029741287231 0.11337999999523163
0.09271399676799774 0.5630760192871094 0.11295700073242188
0.09385369718074799 0.5639860033988953 0.10732000321149826
0.09636209905147552 0.5642930269241333 0.10933700203895569
0.0980238988995552 0.5757390260696411 0.11328999698162079
0.09238819777965546 0.5776010155677795 0.11183299869298935
0.0948169007897377 0.5757499933242798 0.10344099998474121
0.09988690167665482 0.5759750008583069 0.10649900138378143
0.10206999629735947 0.584958016872406 0.11049400269985199
0.09685509651899338 0.5893179774284363 0.10875999927520752
0.09750360250473022 0.5784090161323547 0.09982279688119888
0.10057900100946426 0.5795750021934509 0.10395800322294235
0.11876299977302551 0.6119880080223083 0.09782999753952026
0.04938239976763725 0.6901839971542358 0.028202099725604057
0.066463403403759 0.6833609938621521 0.047524500638246536
0.054167699068784714 0.6865820288658142 0.07025320082902908
0.03816720098257065 0.6907079815864563 0.06142140179872513
0.027867499738931656 0.692218005657196 0.036515701562166214
0.05018939822912216 0.6843969821929932 0.026801899075508118
0.06831560283899307 0.67985999584198 0.04727470129728317
0.053591400384902954 0.6834830045700073 0.06957119703292847
0.03792240098118782 0.6825399994850159 0.061181098222732544
0.026574699208140373 0.6800910234451294 0.035350698977708817
0.1149739995598793 0.6083559989929199 0.08096270263195038
0.12066999822854996 0.612671971321106 0.08456510305404663
0.11294300109148026 0.6100450158119202 0.10333800315856934
0.10558299720287323 0.6061499714851379 0.1034260019659996
0.10618700087070465 0.6016619801521301 0.08530669659376144
3 13 27 14
3 26 29 30
3 26 30 27
3 27 30 31
3 27 31 14
3 14 31 15
3 28 16 17
3 28 17 29
3 29 17 18
3 29 18 30
3 30 18 19
3 30 19 31
3 31 19 20
3 31 20 15
3 13 14 32
3 14 15 34
3 14 34 32
3 32 34 35
3 32 35 33
3 33 35 36
3 15 21 34
3 34 21 22
3 34 22 35
3 35 22 23
3 35 23 36
3 36 23 24
3 36 24 37
3 37 24 25
3 25 24 38
3 24 23 39
3 24 39 38
3 38 39 40
3 23 22 41
3 23 41 39
3 39 41 42
3 39 42 40
3 40 42 43
3 22 21 44
3 22 44 41
3 41 44 45
3 41 45 42
3 42 45 46
3 42 46 43
3 43 46 47
3 21 20 44
3 44 20 19
3 44 19 45
3 45 19 18
3 45 18 46
3 46 18 17
3 46 17 47
3 47 17 16
3 21 15 20
3 32 8 0
3 32 0 13
3 13 0 4
3 13 4 27
3 27 4 3
3 26 27 3
3 26 3 6
3 26 6 29
3 29 6 5
3 29 5 28
3 28 5 1
3 28 1 16
3 16 1 12
3 16 12 47
3 32 33 8
3 33 7 8
3 33 36 9
3 33 9 7
3 36 37 10
3 36 10 9
3 37 25 2
3 37 2 10
3 25 38 11
3 25 11 2
3 12 43 47
3 11 38 40
3 53 54 66
3 53 66 65
3 54 55 67
3 54 67 66
3 55 56 68
3 55 68 67
3 56 57 48
3 56 48 68
3 57 58 52
3 57 52 48
3 58 59 51
3 58 51 52
3 59 60 50
3 59 50 51
3 60 61 49
3 60 49 50
3 61 62 69
3 61 69 49
3 62 63 70
3 62 70 69
3 63 64 71
3 63 71 70
3 64 53 65
3 64 65 71
3 84 82 83
3 83 85 84
3 86 84 85
3 85 87 86
3 75 86 87
3 73 128 86
3 86 75 73
3 88 66 67
3 67 81 88
3 125 88 81
3 81 126 125
3 125 89 88
3 125 124 90
3 91 90 124
3 124 128 91
3 77 91 128
3 128 73 77
3 93 70 71
3 71 92 93
3 95 93 92
3 92 94 95
3 97 95 94
3 94 96 97
3 98 96 90
3 90 91 98
3 100 98 91
3 91 77 100
3 100 99 98
3 101 69 70
3 70 93 101
3 102 72 69
3 69 101 102
3 103 123 99
3 99 100 103
3 123 103 74
3 105 51 50
3 50 104 105
3 106 104 102
3 102 121 106
3 107 105 104
3 104 106 107
3 108 106 121
3 121 122 108
3 110 108 122
3 122 123 110
3 74 110 123
3 76 111 110
3 110 74 76
3 111 78 109
3 78 114 109
3 109 114 107
3 114 113 107
3 78 87 85
3 78 85 114
3 114 85 83
3 114 83 113
3 76 78 111
3 75 87 78
3 115 116 95
3 115 95 120
3 116 117 121
3 116 121 95
3 117 118 122
3 117 122 121
3 118 119 123
3 118 123 122
3 119 115 120
3 119 120 123
3 121 122 123
3 121 123 120
3 95 121 120
3 128 127 126
3 124 128 126
3 124 126 125
3 124 125 130
3 124 130 129
3 125 126 131
3 125 131 130
3 126 127 132
3 126 132 131
3 127 128 133
3 127 133 132
3 128 124 129
3 128 129 133
3 108 107 106
3 108 109 107
3 111 109 110
3 110 109 108
3 107 112 105
3 107 113 112
3 105 52 51
3 105 112 52
3 80 48 52
3 112 80 52
3 80 68 48
3 80 79 68
3 83 80 112
3 113 83 112
3 83 79 80
3 83 82 79
3 86 127 84
3 86 128 127
3 82 81 79
3 82 126 81
3 84 126 82
3 84 127 126
3 79 81 67
3 89 71 65
3 89 92 71
3 88 65 66
3 88 89 65
3 125 94 92
3 125 92 89
3 90 96 94
3 90 94 125
3 98 97 96
3 98 99 97
3 99 120 97
3 99 123 120
3 95 101 93
3 97 120 95
3 79 67 68
3 95 102 101
3 121 102 95
3 104 50 72
3 102 104 72
3 136 137 145
3 136 145 144
3 137 138 147
3 137 147 146
3 139 140 149
3 139 149 148
3 140 141 150
3 140 150 149
3 141 142 151
3 141 151 150
3 142 143 152
3 142 152 151
3 143 144 153
3 143 153 152
3 144 145 154
3 144 154 153
3 145 146 154
3 146 147 155
3 146 155 154
3 147 139 148
3 147 148 155
3 143 136 144
3 135 143 142
3 135 142 141
3 134 141 140
3 134 135 141
3 134 140 139
3 138 139 147
3 137 146 145
3 150 156 149
3 151 157 150
3 150 157 156
3 148 149 158
3 149 156 158
3 152 159 151
3 151 159 157
3 148 158 159
3 152 148 159
3 162 163 171
3 162 171 170
3 163 164 173
3 163 173 172
3 165 166 175
3 165 175 174
3 166 167 176
3 166 176 175
3 167 168 177
3 167 177 176
3 168 169 178
3 168 178 177
3 169 170 179
3 169 179 178
3 170 171 180
3 170 180 179
3 171 172 180
3 172 173 181
3 172 181 180
3 173 165 174
3 173 174 181
3 169 162 170
3 161 169 168
3 161 168 167
3 160 167 166
3 160 161 167
3 160 166 165
3 164 165 173
3 163 172 171
3 176 182 175
3 177 183 176
3 176 183 182
3 174 175 184
3 175 182 184
3 178 185 177
3 177 185 183
3 174 184 185
3 178 174 185
3 186 193 195
3 186 195 194
3 193 192 196
3 193 196 195
3 192 246 197
3 192 197 196
3 246 245 198
3 246 198 197
3 245 244 199
3 245 199 198
3 244 243 200
3 244 200 199
3 243 242 201
3 243 201 200
3 242 186 194
3 242 194 201
3 186 187 203
3 186 203 202
3 187 188 204
3 187 204 203
3 188 189 205
3 188 205 204
3 189 190 206
3 189 206 205
3 190 191 207
3 190 207 206
3 191 192 208
3 191 208 207
3 192 193 209
3 192 209 208
3 193 186 202
3 193 202 209
3 194 195 211
3 194 211 210
3 195 196 212
3 195 212 211
3 196 197 213
3 196 213 212
3 197 198 214
3 197 214 213
3 198 199 215
3 198 215 214
3 199 200 216
3 199 216 215
3 200 201 217
3 200 217 216
3 201 194 210
3 201 210 217
3 202 203 219
3 202 219 218
3 203 204 220
3 203 220 219
3 204 205 221
3 204 221 220
3 205 206 222
3 205 222 221
3 206 207 223
3 206 223 222
3 207 208 224
3 207 224 223
3 208 209 225
3 208 225 224
3 209 202 218
3 209 218 225
3 210 211 227
3 210 227 226
3 211 212 228
3 211 228 227
3 212 213 229
3 212 229 228
3 213 214 230
3 213 230 229
3 214 215 231
3 214 231 230
3 215 216 232
3 215 232 231
3 216 217 233
3 216 233 232
3 217 210 226
3 217 226 233
3 218 219 235
3 218 235 234
3 219 220 236
3 219 236 235
3 220 221 237
3 220 237 236
3 221 222 238
3 221 238 237
3 222 223 239
3 222 239 238
3 223 224 240
3 223 240 239
3 224 225 241
3 224 241 240
3 225 218 234
3 225 234 241
3 191 190 248
3 191 248 247
3 190 189 249
3 190 249 248
3 189 188 250
3 189 250 249
3 188 187 251
3 188 251 250
3 187 186 252
3 187 252 251
3 186 242 253
3 186 253 252
3 242 243 254
3 242 254 253
3 243 244 255
3 243 255 254
3 244 245 256
3 244 256 255
3 245 246 257
3 245 257 256
3 246 192 258
3 246 258 257
3 192 191 247
3 192 247 258
3 247 248 54
3 247 54 53
3 248 249 55
3 248 55 54
3 249 250 56
3 249 56 55
3 250 251 57
3 250 57 56
3 251 252 58
3 251 58 57
3 252 253 59
3 252 59 58
3 253 254 60
3 253 60 59
3 254 255 61
3 254 61 60
3 255 256 62
3 255 62 61
3 256 257 63
3 256 63 62
3 257 258 64
3 257 64 63
3 258 247 53
3 258 53 64
3 259 260 265
3 259 265 264
3 260 261 266
3 260 266 265
3 261 262 267
3 261 267 266
3 262 263 268
3 262 268 267
3 263 259 264
3 263 264 268
3 264 265 270
3 264 270 269
3 265 266 271
3 265 271 270
3 266 267 272
3 266 272 271
3 267 268 273
3 267 273 272
3 268 264 269
3 268 269 273
3 262 139 138
3 262 138 263
3 261 134 139
3 261 139 262
3 259 143 135
3 260 259 135
3 259 136 143
3 259 263 136
3 263 137 136
3 263 138 137
3 261 260 135
3 261 135 134
3 274 275 280
3 274 280 279
3 275 276 281
3 275 281 280
3 276 277 282
3 276 282 281
3 277 278 283
3 277 283 282
3 278 274 279
3 278 279 283
3 279 280 285
3 279 285 284
3 280 281 286
3 280 286 285
3 281 282 287
3 281 287 286
3 282 283 288
3 282 288 287
3 283 279 284
3 283 284 288
3 277 165 164
3 277 164 278
3 276 160 165
3 276 165 277
3 278 164 163
3 275 274 169
3 275 169 161
3 274 278 162
3 274 162 169
3 278 163 162
3 276 275 161
3 276 161 160
3 289 290 295
3 290 291 305
3 290 305 295
3 295 305 296
3 291 292 306
3 291 306 305
3 305 306 307
3 305 307 296
3 296 307 297
3 292 293 308
3 292 308 306
3 306 308 309
3 306 309 307
3 307 309 310
3 307 310 297
3 297 310 298
3 293 294 311
3 293 311 308
3 310 312 298
3 298 312 299
3 294 303 311
3 312 304 299
3 289 295 300
3 295 296 313
3 295 313 300
3 300 313 301
3 296 297 314
3 296 314 313
3 313 314 315
3 313 315 301
3 301 315 302
3 297 298 316
3 297 316 314
3 314 316 3
3 314 3 315
3 315 3 4
3 315 4 302
3 302 4 0
3 298 299 5
3 298 5 316
3 316 5 6
3 316 6 3
3 299 1 5
3 289 300 290
3 300 301 317
3 300 317 290
3 290 317 291
3 301 302 318
3 301 318 317
3 317 318 319
3 317 319 291
3 291 319 292
3 302 0 320
3 302 320 318
3 318 320 7
3 318 7 319
3 319 7 321
3 319 321 292
3 292 321 293
3 0 8 320
3 320 8 7
3 7 9 321
3 321 9 10
3 321 10 293
3 293 10 294
3 10 2 294
3 2 11 303
3 1 299 304
3 2 303 294
3 312 310 309
3 311 309 308
3 312 309 324
3 311 324 309
3 324 75 78
3 324 78 76
3 312 324 76
3 312 76 74
3 304 312 74
3 304 74 103
3 12 304 103
3 12 103 100
3 323 12 100
3 324 311 75
3 311 73 75
3 311 303 73
3 303 77 73
3 303 11 77
3 11 100 77
3 11 322 100
3 322 323 100
3 1 304 12
3 330 334 331
3 334 335 331
3 331 335 332
3 335 336 332
3 332 336 333
3 336 337 333
3 333 337 330
3 337 334 330
3 334 338 335
3 338 339 335
3 335 339 336
3 339 349 336
3 336 349 337
3 349 348 337
3 337 348 334
3 348 338 334
3 333 330 331
3 331 332 333
3 340 344 341
3 344 345 341
3 341 345 342
3 345 346 342
3 342 346 343
3 346 347 343
3 343 347 340
3 347 344 340
3 344 348 345
3 348 349 345
3 345 349 346
3 349 369 346
3 346 369 347
3 369 368 347
3 347 368 344
3 368 348 344
3 343 340 341
3 341 342 343
3 350 354 351
3 354 355 351
3 351 355 352
3 355 356 352
3 352 356 353
3 356 357 353
3 353 357 350
3 357 354 350
3 354 358 355
3 358 359 355
3 355 359 356
3 359 339 356
3 356 339 357
3 339 338 357
3 357 338 354
3 338 358 354
3 353 350 351
3 351 352 353
3 360 364 361
3 364 365 361
3 361 365 362
3 365 366 362
3 362 366 363
3 366 367 363
3 363 367 360
3 367 364 360
3 364 368 365
3 368 369 365
3 365 369 366
3 369 381 366
3 366 381 367
3 381 380 367
3 367 380 364
3 380 368 364
3 363 360 361
3 361 362 363
3 370 374 371
3 374 375 371
3 371 375 372
3 375 376 372
3 372 376 373
3 376 377 373
3 373 377 370
3 377 374 370
3 374 378 375
3 378 379 375
3 375 379 376
3 379 380 376
3 376 380 377
3 380 381 377
3 377 381 374
3 381 378 374
3 373 370 371
3 371 372 373
3 386 378 381
3 386 381 369
3 386 369 349
3 386 349 339
3 386 339 359
3 368 380 382
3 348 368 382
3 338 348 382
3 358 338 382
3 385 378 386
3 386 359 387
3 382 383 358
3 384 382 379
3 359 358 383
3 387 359 383
3 385 384 379
3 378 385 379
3 380 379 382
3 384 385 390
3 384 390 389
3 385 386 391
3 385 391 390
3 386 387 392
3 386 392 391
3 387 383 388
3 387 388 392
3 388 389 394
3 388 394 393
3 389 390 395
3 389 395 394
3 390 391 396
3 390 396 395
3 391 392 397
3 391 397 396
3 392 388 393
3 392 393 397
3 389 388 382
3 388 383 382
3 389 382 384
3 327 395 396
3 328 327 396
3 329 328 396
3 329 396 397
3 325 329 397
3 325 397 393
3 326 325 393
3 326 393 394
3 327 326 394
3 327 394 395
3 403 407 404
3 407 408 404
3 404 408 405
3 408 409 405
3 405 409 406
3 409 410 406
3 406 410 403
3 410 407 403
3 407 432 408
3 432 431 408
3 408 431 409
3 431 420 409
3 409 420 410
3 420 419 410
3 410 419 407
3 419 432 407
3 406 403 404
3 404 405 406
3 411 415 412
3 415 416 412
3 412 416 413
3 416 417 413
3 413 417 414
3 417 418 414
3 414 418 411
3 418 415 411
3 415 419 416
3 419 420 416
3 416 420 417
3 420 442 417
3 417 442 418
3 442 441 418
3 418 441 415
3 441 419 415
3 414 411 412
3 412 413 414
3 421 425 422
3 425 426 422
3 422 426 423
3 426 427 423
3 423 427 424
3 427 428 424
3 424 428 421
3 428 425 421
3 425 429 426
3 429 430 426
3 426 430 427
3 430 431 427
3 427 431 428
3 431 432 428
3 428 432 425
3 432 429 425
3 424 421 422
3 422 423 424
3 433 437 434
3 437 438 434
3 434 438 435
3 438 439 435
3 435 439 436
3 439 440 436
3 436 440 433
3 440 437 433
3 437 441 438
3 441 442 438
3 438 442 439
3 442 454 439
3 439 454 440
3 454 453 440
3 440 453 437
3 453 441 437
3 436 433 434
3 434 435 436
3 443 447 444
3 447 448 444
3 444 448 445
3 448 449 445
3 445 449 446
3 449 450 446
3 446 450 443
3 450 447 443
3 447 451 448
3 451 452 448
3 448 452 449
3 452 453 449
3 449 453 450
3 453 454 450
3 450 454 447
3 454 451 447
3 446 443 444
3 444 445 446
3 470 429 432
3 470 432 419
3 470 419 441
3 470 441 453
3 470 453 452
3 431 430 455
3 420 431 455
3 442 420 455
3 454 442 455
3 451 454 455
3 470 452 469
3 468 451 455
3 467 455 430
3 429 470 466
3 469 452 451
3 468 469 451
3 466 467 430
3 466 430 429
3 456 457 462
3 456 462 461
3 457 458 463
3 457 463 462
3 458 459 464
3 458 464 463
3 459 460 465
3 459 465 464
3 460 456 461
3 460 461 465
3 461 462 467
3 461 467 466
3 463 464 469
3 463 469 468
3 464 465 470
3 464 470 469
3 465 461 466
3 465 466 470
3 463 455 462
3 455 467 462
3 468 455 463
3 402 460 459
3 401 402 459
3 402 398 456
3 402 456 460
3 398 399 457
3 398 457 456
3 399 400 458
3 399 458 457
3 400 401 459
3 400 459 458
