ply
format ascii 1.0
element vertex 309
property float x
property float y
property float z
element face 526
property list uchar int vertex_indices
end_header
0.20647799968719482 0.5310479998588562 0.06374750286340714
0.20646899938583374 0.5610960125923157 0.06375090032815933
0.2064719945192337 0.5610920190811157 0.09379850327968597
0.2064809948205948 0.5310450196266174 0.09379509836435318
0.10631900280714035 0.5310189723968506 0.06375569850206375
0.10631100088357925 0.5610669851303101 0.06375910341739655
0.10631299763917923 0.5610640048980713 0.09380669891834259
0.10632199794054031 0.5310159921646118 0.0938033014535904
0.09453990310430527 0.5700870156288147 0.06571680307388306
0.09777980297803879 0.6221749782562256 0.059248100966215134
0.14986099302768707 0.6222059726715088 0.039712999016046524
0.14987699687480927 0.5701130032539368 0.05269179865717888
0.09454189985990524 0.570065975189209 0.09175810217857361
0.09778270125389099 0.6221439838409424 0.09830989688634872
0.1498669981956482 0.6221429705619812 0.11783699691295624
0.14988000690937042 0.5700709819793701 0.10477399826049805
0.21823599934577942 0.5701220035552979 0.06570690125226974
0.21496500074863434 0.6222090125083923 0.059238698333501816
0.162881001830101 0.6222100257873535 0.03971190005540848
0.1628970056772232 0.5701169967651367 0.05269069969654083
0.2182379961013794 0.5701010227203369 0.09174810349941254
0.2149679958820343 0.622177004814148 0.098300501704216
0.16288700699806213 0.6221470236778259 0.11783599853515625
0.16290099918842316 0.5700749754905701 0.10477299988269806
0.09777610003948212 0.6351959705352783 0.059206701815128326
0.09125100076198578 0.6872770190238953 0.05924899876117706
0.14984199404716492 0.6873090267181396 0.03971340134739876
0.14985699951648712 0.6352260112762451 0.03967159986495972
0.09777910262346268 0.6351649761199951 0.09826850146055222
0.09125400334596634 0.6872450113296509 0.09831090271472931
0.14984799921512604 0.6872460246086121 0.11783699691295624
0.14986300468444824 0.6351640224456787 0.11779499799013138
0.21496200561523438 0.6352289915084839 0.05919729918241501
0.22145700454711914 0.687313973903656 0.059238601475954056
0.16286300122737885 0.6873130202293396 0.03971239924430847
0.16287800669670105 0.6352300047874451 0.03967050090432167
0.21496500074863434 0.6351979970932007 0.0982590988278389
0.2214599996805191 0.6872820258140564 0.09830039739608765
0.16286900639533997 0.687250018119812 0.11783599853515625
0.16288399696350098 0.6351670026779175 0.11779399961233139
0.09124740213155746 0.7002969980239868 0.059207700192928314
0.08797740191221237 0.7523790001869202 0.05924979969859123
0.14982399344444275 0.7524120211601257 0.03971390053629875
0.14983899891376495 0.7003300189971924 0.03967199847102165
0.09125030040740967 0.7002660036087036 0.0982694998383522
0.08798039704561234 0.7523469924926758 0.09831160306930542
0.14982999861240387 0.7523490190505981 0.11783800274133682
0.14984500408172607 0.7002670168876648 0.11779599636793137
0.22145399451255798 0.7003340125083923 0.05919719859957695
0.22469399869441986 0.7524179816246033 0.059238798916339874
0.16284500062465668 0.7524160146713257 0.039712801575660706
0.1628589928150177 0.7003329992294312 0.039671000093221664
0.22145600616931915 0.7003030180931091 0.0982590988278389
0.22469699382781982 0.7523859739303589 0.09830059856176376
0.1628500074148178 0.7523530125617981 0.11783699691295624
0.16286499798297882 0.7002710103988647 0.11779499799013138
0.0879736989736557 0.7653989791870117 0.059208400547504425
0.08470799773931503 0.8044549822807312 0.06575030088424683
0.14980599284172058 0.8175050020217896 0.05273490026593208
0.1498199999332428 0.7654330134391785 0.039672501385211945
0.08797670155763626 0.7653679847717285 0.09827020019292831
0.0847100019454956 0.8044340014457703 0.09179150313138962
0.14981000125408173 0.8174629807472229 0.10481700301170349
0.14982600510120392 0.7653700113296509 0.11779599636793137
0.2246900051832199 0.7654380202293396 0.05919739976525307
0.22793500125408173 0.8044959902763367 0.06573879718780518
0.1628270000219345 0.8175079822540283 0.0527338981628418
0.16284100711345673 0.7654359936714172 0.0396713986992836
0.22469300031661987 0.7654070258140564 0.09825920313596725
0.2279369980096817 0.8044750094413757 0.09177999943494797
0.16283099353313446 0.8174669742584229 0.1048159971833229
0.16284699738025665 0.7653740048408508 0.11779499799013138
0.16132399439811707 0.8240010142326355 0.07375279814004898
0.16131700575351715 0.8490399718284607 0.07377289980649948
0.16131800413131714 0.8490319848060608 0.08378829807043076
0.16132499277591705 0.8239930272102356 0.08376819640398026
0.15130899846553802 0.8239989876747131 0.07375360280275345
0.15130199491977692 0.8490369915962219 0.07377369701862335
0.15130199491977692 0.849029004573822 0.08378910273313522
0.151309996843338 0.8239910006523132 0.08376900106668472
0.15295200049877167 0.9316759705543518 0.1379760056734085
0.15961599349975586 0.9316779971122742 0.1379760056734085
0.18284499645233154 0.9680719971656799 0.11526799947023392
0.12970000505447388 0.9680569767951965 0.11527200043201447
0.11768099665641785 0.9316539764404297 0.13796700537204742
0.14624199271202087 0.8486149907112122 0.14737500250339508
0.16637399792671204 0.8486210107803345 0.1473730057477951
0.18453900516033173 0.8741520047187805 0.1470170021057129
0.12806400656700134 0.8741359710693359 0.14702099561691284
0.14554400742053986 0.8457419872283936 0.13874700665473938
0.12911799550056458 0.8507949709892273 0.09033119678497314
0.116627998650074 0.8921700119972229 0.13468000292778015
0.11469200253486633 0.9153680205345154 0.1194629967212677
0.11399699747562408 0.8818169832229614 0.07046909630298615
0.14996999502182007 0.8960059881210327 0.15547500550746918
0.16262100636959076 0.8960099816322327 0.1554740071296692
0.17813999950885773 0.853609025478363 0.05202909931540489
0.18348999321460724 0.8508110046386719 0.09032680094242096
0.13446000218391418 0.8535969853401184 0.052032601088285446
0.16707299649715424 0.8457480072975159 0.1387449949979782
0.15630799531936646 0.8457450270652771 0.13847100734710693
0.13445299863815308 0.8766630291938782 0.04251139983534813
0.17813299596309662 0.876675009727478 0.042507901787757874
0.12007199972867966 0.9019619822502136 0.025005800649523735
0.19249700009822845 0.9019820094108582 0.02500000037252903
0.12570400536060333 0.9535920023918152 0.026348799467086792
0.18683600425720215 0.9536089897155762 0.026343900710344315
0.12638899683952332 0.9749829769134521 0.06342320144176483
0.18614399433135986 0.9750000238418579 0.06341840326786041
0.1476069986820221 0.892425000667572 0.14041200280189514
0.16498300433158875 0.8924300074577332 0.14041000604629517
0.15007799863815308 0.9150679707527161 0.13095299899578094
0.1985899955034256 0.8818420171737671 0.07046230137348175
0.16249799728393555 0.9150720238685608 0.13095200061798096
0.19787099957466125 0.9153910279273987 0.11945600062608719
0.19488799571990967 0.9316759705543518 0.1379610002040863
0.19596299529075623 0.8921930193901062 0.13467399775981903
0.18264900147914886 0.8303830027580261 0.0852895975112915
0.24645499885082245 0.8174669742584229 0.08527369797229767
0.24645200371742249 0.8174690008163452 0.07225359976291656
0.1826460063457489 0.8303850293159485 0.0722694993019104
0.18006500601768494 0.8176209926605225 0.08528800308704376
0.2438720017671585 0.804705023765564 0.08527220040559769
0.24386900663375854 0.8047069907188416 0.07225210219621658
0.18006299436092377 0.8176239728927612 0.07226789742708206
0.2357099950313568 0.7482510209083557 0.09972959756851196
0.2425280064344406 0.6596670150756836 0.06510879844427109
0.24248899519443512 0.6598089933395386 0.09227129817008972
0.23866699635982513 0.7206649780273438 0.05582069978117943
0.23259100317955017 0.7781090140342712 0.10135799646377563
0.23240600526332855 0.7806209921836853 0.05455489829182625
0.2315170019865036 0.8096280097961426 0.06378089636564255
0.23146900534629822 0.8096590042114258 0.09524819999933243
0.26590999960899353 0.7841209769248962 0.05460840091109276
0.2553899884223938 0.81215500831604 0.09528859704732895
0.26609599590301514 0.7816089987754822 0.10141099989414215
0.2554379999637604 0.8121269941329956 0.06382130086421967
0.2721720039844513 0.7241650223731995 0.05587419867515564
0.2753860056400299 0.6631870269775391 0.09232500195503235
0.2754170000553131 0.6631349921226501 0.06516090035438538
0.269214004278183 0.7517510056495667 0.09978310018777847
0.26410600543022156 0.5111200213432312 0.09444010257720947
0.2641749978065491 0.5171949863433838 0.12379500269889832
0.2489590048789978 0.6262310147285461 0.10275900363922119
0.24887900054454803 0.6195849776268005 0.0706000030040741
0.2878130078315735 0.5195639729499817 0.12323900312185287
0.2785300016403198 0.6291869878768921 0.10208100080490112
0.2877419888973236 0.5135059952735901 0.09389019757509232
0.2784540057182312 0.6225410103797913 0.0699222981929779
0.24564599990844727 0.6568160057067871 0.06438279896974564
0.24571600556373596 0.662880003452301 0.09372930228710175
0.27553901076316833 0.6658790111541748 0.09304480254650116
0.2754630148410797 0.6598119735717773 0.06368520110845566
0.2802810072898865 0.5116080045700073 0.08892729878425598
0.2851859927177429 0.4627709984779358 0.09886729717254639
0.27522099018096924 0.4617690145969391 0.09886139631271362
0.2703160047531128 0.5106059908866882 0.08892150223255157
0.279462993144989 0.5195170044898987 0.12819300591945648
0.28436800837516785 0.47068101167678833 0.1381330043077469
0.274401992559433 0.46967801451683044 0.13812699913978577
0.26949700713157654 0.5185149908065796 0.12818799912929535
0.1325729936361313 0.8176079988479614 0.08529189974069595
0.06877409666776657 0.8046550154685974 0.08528649806976318
0.06877479702234268 0.8046579957008362 0.07226639986038208
0.13257400691509247 0.8176100254058838 0.07227180153131485
0.12998299300670624 0.8303679823875427 0.08529400080442429
0.06618359684944153 0.8174149990081787 0.08528859913349152
0.06618429720401764 0.8174170255661011 0.07226850092411041
0.12998299300670624 0.8303700089454651 0.07227390259504318
0.07697039842605591 0.7482060194015503 0.09974250197410583
0.07019670307636261 0.6596180200576782 0.06512250006198883
0.07023999840021133 0.6597599983215332 0.09228509664535522
0.07402169704437256 0.7206180095672607 0.05583399906754494
0.08007200062274933 0.7780659794807434 0.10136999934911728
0.08024910092353821 0.7805780172348022 0.054567400366067886
0.08112269639968872 0.8095859885215759 0.06379330158233643
0.081175796687603 0.8096160292625427 0.09526059776544571
0.046742599457502365 0.7840589880943298 0.054626401513814926
0.05725330114364624 0.8120980262756348 0.09530489891767502
0.046565499156713486 0.7815459966659546 0.10142900049686432
0.05720039829611778 0.8120700120925903 0.06383760273456573
0.04051529988646507 0.7240989804267883 0.05589300021529198
0.03734060004353523 0.6631190180778503 0.09234409779310226
0.037306200712919235 0.6630669832229614 0.06518000364303589
0.043463900685310364 0.7516869902610779 0.09980150312185287
0.0487075001001358 0.5110589861869812 0.0944570004940033
0.0486392006278038 0.5171329975128174 0.1238119974732399
0.0637902021408081 0.6261780261993408 0.1027740016579628
0.0638694018125534 0.6195319890975952 0.07061459869146347
0.02500000037252903 0.5194889903068542 0.123259998857975
0.03421749919652939 0.6291170120239258 0.10210099816322327
0.02506989985704422 0.5134310126304626 0.09391099959611893
0.03429219871759415 0.6224709749221802 0.06994179636240005
0.06708080321550369 0.6567659974098206 0.06439709663391113
0.06701140105724335 0.6628289818763733 0.09374359995126724
0.037186399102211 0.6658110022544861 0.09306400269269943
0.03726140037178993 0.6597440242767334 0.06370429694652557
0.03335139900445938 0.5194470286369324 0.12821300327777863
0.02847529947757721 0.4706070125102997 0.13815300166606903
0.03844140097498894 0.4696109890937805 0.13814599812030792
0.04331750050187111 0.5184509754180908 0.12820500135421753
0.03253120183944702 0.5115370154380798 0.08894690126180649
0.0276551004499197 0.46269699931144714 0.09888750314712524
0.03762120008468628 0.46170100569725037 0.09888000041246414
0.04249729961156845 0.5105400085449219 0.08893939852714539
0.17962799966335297 0.29934200644493103 0.12507599592208862
0.17947399616241455 0.29505300521850586 0.08036939799785614
0.1792220026254654 0.41388699412345886 0.12699100375175476
0.1789730042219162 0.39253899455070496 0.050995901226997375
0.17934800684452057 0.4912709891796112 0.034032098948955536
0.17968200147151947 0.500819981098175 0.13335800170898438
0.18268300592899323 0.5426899790763855 0.04897439852356911
0.18288099765777588 0.5484129786491394 0.10857100039720535
0.23752300441265106 0.5006729960441589 0.1331930011510849
0.2270209938287735 0.5484169721603394 0.10851699858903885
0.23718999326229095 0.49112099409103394 0.03384239971637726
0.22682300209999084 0.5426939725875854 0.048921000212430954
0.23436099290847778 0.29502901434898376 0.08018989861011505
0.2345149964094162 0.2993429899215698 0.12489599734544754
0.2368140071630478 0.39249101281166077 0.05082109943032265
0.23706400394439697 0.4138120114803314 0.1267939954996109
0.17853200435638428 0.2178020030260086 0.0598411001265049
0.17871899902820587 0.21147200465202332 0.12627199292182922
0.19008800387382507 0.046014200896024704 0.10041400045156479
0.19001400470733643 0.04983910173177719 0.05998999997973442
0.23515799641609192 0.21107199788093567 0.12617400288581848
0.2245829999446869 0.04580710083246231 0.10033400356769562
0.2349970042705536 0.21739999949932098 0.05976850166916847
0.22450800240039825 0.04963169991970062 0.059911999851465225
0.23222999274730682 0.29888099431991577 0.07875850051641464
0.23231400549411774 0.29417499899864197 0.12851400673389435
0.1826149970293045 0.29442399740219116 0.12864600121974945
0.1825219988822937 0.29913100600242615 0.07888049632310867
0.18348899483680725 0.03627819940447807 0.15102800726890564
0.18349400162696838 0.025010300800204277 0.15102900564670563
0.23106999695301056 0.02502630092203617 0.15102499723434448
0.23106400668621063 0.03629409894347191 0.1510230004787445
0.18347199261188507 0.04753569886088371 0.058379799127578735
0.18348300457000732 0.02500000037252903 0.058382298797369
0.2310580015182495 0.025016000494360924 0.05837789922952652
0.23104700446128845 0.04755169898271561 0.05837539955973625
0.20352600514888763 0.02501700073480606 0.15102699398994446
0.20352700352668762 0.025018200278282166 0.15853899717330933
0.20352299511432648 0.032529398798942566 0.15853199362754822
0.2035219967365265 0.03252819925546646 0.15102000534534454
0.2110379934310913 0.025019599124789238 0.15102599561214447
0.2110390067100525 0.025020800530910492 0.15853799879550934
0.21103499829769135 0.032531898468732834 0.15853099524974823
0.21103399991989136 0.03253069892525673 0.15101900696754456
0.2035280019044876 0.02501950040459633 0.1660510003566742
0.20352399349212646 0.03253059834241867 0.16604399681091309
0.21104000508785248 0.025022000074386597 0.1660500019788742
0.2035290002822876 0.025020699948072433 0.17356300354003906
0.20352500677108765 0.032531801611185074 0.17355500161647797
0.21104100346565247 0.0250231996178627 0.17356200516223907
0.21103699505329132 0.03253430128097534 0.17355500161647797
0.21103599667549133 0.03253310173749924 0.1660429984331131
0.1337060034275055 0.2995480000972748 0.12544399499893188
0.1338530033826828 0.2952690124511719 0.08073680102825165
0.1341180056333542 0.4140920042991638 0.1273850053548813
0.13435399532318115 0.3927609920501709 0.051385298371315
0.13398000597953796 0.4914970099925995 0.03444400057196617
0.13366299867630005 0.50102299451828 0.13377200067043304
0.13064999878406525 0.5429109930992126 0.049398601055145264
0.13046200573444366 0.5486199855804443 0.10899599641561508
0.0758213996887207 0.5008519887924194 0.13361699879169464
0.08632230013608932 0.5486059784889221 0.10894999653100967
0.07613790035247803 0.49132299423217773 0.03426390141248703
0.08650969713926315 0.5428969860076904 0.0493525005877018
0.07896559685468674 0.2952210009098053 0.0805663987994194
0.07881949841976166 0.29952600598335266 0.12527400255203247
0.07651209831237793 0.3926889896392822 0.05122010037302971
0.07627599686384201 0.4139930009841919 0.1271979957818985
0.13478699326515198 0.21802300214767456 0.060190699994564056
0.13461099565029144 0.21167699992656708 0.12661999464035034
0.12323000282049179 0.046220600605010986 0.10072699934244156
0.12329799681901932 0.050054799765348434 0.060303300619125366
0.07817179709672928 0.21125400066375732 0.12653200328350067
0.0887352004647255 0.04599900171160698 0.10065200179815292
0.07832279801368713 0.21759699285030365 0.06012739986181259
0.08880320191383362 0.04983289912343025 0.06023100018501282
0.08109600096940994 0.2990739941596985 0.07913549989461899
0.08102039992809296 0.2943579852581024 0.1288899928331375
0.13071900606155396 0.29462701082229614 0.1290140002965927
0.13080500066280365 0.2993449866771698 0.07924920320510864
0.08226200193166733 0.0364718995988369 0.15133999288082123
0.08225599676370621 0.025203999131917953 0.15133899450302124
0.129831001162529 0.0252080000936985 0.15133599936962128
0.1298370063304901 0.03647579997777939 0.15133699774742126
0.08226419985294342 0.04775049909949303 0.058694999665021896
0.08225230127573013 0.025214800611138344 0.05869239941239357
0.12982800602912903 0.025218699127435684 0.058688901364803314
0.12984000146389008 0.047754399478435516 0.05869150161743164
0.10228800028562546 0.0252056997269392 0.15133799612522125
0.10228800028562546 0.025205200538039207 0.15884900093078613
0.102292001247406 0.0327163003385067 0.158843994140625
0.102292001247406 0.03271679952740669 0.15133200585842133
0.10980000346899033 0.025206299498677254 0.15133699774742126
0.10980000346899033 0.02520580030977726 0.15884900093078613
0.10980399698019028 0.03271690011024475 0.158842995762825
0.10980399698019028 0.032717399299144745 0.15133200585842133
0.10228800028562546 0.025204699486494064 0.166361004114151
0.102292001247406 0.032715801149606705 0.16635599732398987
0.10980000346899033 0.025205299258232117 0.166361004114151
0.10980399698019028 0.03271640092134476 0.16635499894618988
0.10228899866342545 0.02520420029759407 0.17387300729751587
0.102292001247406 0.03271529823541641 0.17386800050735474
0.10980100184679031 0.025204800069332123 0.1738719940185547
0.10980500280857086 0.03271590173244476 0.17386700212955475
3 0 1 2
3 2 3 0
3 0 3 7
3 7 4 0
3 1 5 6
3 6 2 1
3 0 4 5
3 5 1 0
3 7 3 2
3 2 6 7
3 4 7 6
3 6 5 4
3 8 9 10
3 10 11 8
3 8 11 15
3 15 12 8
3 9 13 14
3 14 10 9
3 8 12 13
3 13 9 8
3 15 11 10
3 10 14 15
3 12 15 14
3 14 13 12
3 19 18 17
3 17 16 19
3 20 23 19
3 19 16 20
3 18 22 21
3 21 17 18
3 17 21 20
3 20 16 17
3 22 18 19
3 19 23 22
3 21 22 23
3 23 20 21
3 24 25 26
3 26 27 24
3 24 27 31
3 31 28 24
3 25 29 30
3 30 26 25
3 24 28 29
3 29 25 24
3 31 27 26
3 26 30 31
3 28 31 30
3 30 29 28
3 35 34 33
3 33 32 35
3 36 39 35
3 35 32 36
3 34 38 37
3 37 33 34
3 33 37 36
3 36 32 33
3 38 34 35
3 35 39 38
3 37 38 39
3 39 36 37
3 40 41 42
3 42 43 40
3 40 43 47
3 47 44 40
3 41 45 46
3 46 42 41
3 40 44 45
3 45 41 40
3 47 43 42
3 42 46 47
3 44 47 46
3 46 45 44
3 51 50 49
3 49 48 51
3 52 55 51
3 51 48 52
3 50 54 53
3 53 49 50
3 49 53 52
3 52 48 49
3 54 50 51
3 51 55 54
3 53 54 55
3 55 52 53
3 56 57 58
3 58 59 56
3 56 59 63
3 63 60 56
3 57 61 62
3 62 58 57
3 56 60 61
3 61 57 56
3 63 59 58
3 58 62 63
3 60 63 62
3 62 61 60
3 67 66 65
3 65 64 67
3 68 71 67
3 67 64 68
3 66 70 69
3 69 65 66
3 65 69 68
3 68 64 65
3 70 66 67
3 67 71 70
3 69 70 71
3 71 68 69
3 72 73 74
3 74 75 72
3 72 75 79
3 79 76 72
3 73 77 78
3 78 74 73
3 72 76 77
3 77 73 72
3 79 75 74
3 74 78 79
3 76 79 78
3 78 77 76
3 80 83 84
3 91 92 93
3 92 83 107
3 84 83 92
3 93 92 103
3 103 92 107
3 90 101 98
3 93 101 90
3 101 93 103
3 103 107 105
3 106 108 104
3 104 112 102
3 97 102 112
3 96 102 97
3 108 114 104
3 104 114 112
3 114 82 115
3 108 82 114
3 116 110 87
3 115 82 81
3 91 88 109
3 112 114 116
3 80 82 83
3 80 81 82
3 88 86 87
3 85 86 88
3 90 85 88
3 89 85 90
3 95 80 94
3 95 81 80
3 90 96 97
3 96 90 98
3 97 89 90
3 97 100 89
3 97 99 100
3 102 98 101
3 102 96 98
3 102 103 104
3 103 102 101
3 103 106 104
3 105 106 103
3 106 107 108
3 107 106 105
3 83 108 107
3 83 82 108
3 95 109 110
3 94 109 95
3 87 109 88
3 109 87 110
3 111 84 92
3 111 80 84
3 91 111 92
3 109 111 91
3 111 94 80
3 111 109 94
3 86 100 99
3 85 100 86
3 100 85 89
3 95 113 81
3 95 110 113
3 115 113 114
3 115 81 113
3 112 87 97
3 87 112 116
3 86 97 87
3 97 86 99
3 88 93 90
3 93 88 91
3 113 116 114
3 116 113 110
3 117 118 119
3 119 120 117
3 117 120 124
3 124 121 117
3 118 122 123
3 123 119 118
3 117 121 122
3 122 118 117
3 124 120 119
3 119 123 124
3 121 124 123
3 123 122 121
3 125 126 127
3 126 125 128
3 128 129 130
3 129 128 125
3 129 131 130
3 131 129 132
3 133 134 135
3 134 133 136
3 137 138 139
3 138 137 140
3 140 133 135
3 133 140 137
3 127 139 138
3 139 127 126
3 125 138 140
3 138 125 127
3 129 140 135
3 140 129 125
3 132 135 134
3 135 132 129
3 131 134 136
3 134 131 132
3 130 136 133
3 136 130 131
3 128 133 137
3 133 128 130
3 126 137 139
3 137 126 128
3 141 143 144
3 141 142 143
3 142 146 143
3 142 145 146
3 148 141 144
3 147 141 148
3 141 145 142
3 145 141 147
3 151 149 150
3 149 151 152
3 146 147 148
3 146 145 147
3 150 146 151
3 146 150 143
3 150 144 143
3 150 149 144
3 148 149 152
3 144 149 148
3 148 151 146
3 148 152 151
3 153 154 155
3 155 156 153
3 153 156 160
3 160 157 153
3 154 158 159
3 159 155 154
3 153 157 158
3 158 154 153
3 160 156 155
3 155 159 160
3 157 160 159
3 159 158 157
3 161 162 163
3 163 164 161
3 161 164 168
3 168 165 161
3 162 166 167
3 167 163 162
3 161 165 166
3 166 162 161
3 168 164 163
3 163 167 168
3 165 168 167
3 167 166 165
3 171 170 169
3 172 169 170
3 174 173 172
3 169 172 173
3 174 175 173
3 176 173 175
3 179 178 177
3 180 177 178
3 183 182 181
3 184 181 182
3 179 177 184
3 181 184 177
3 182 183 171
3 170 171 183
3 184 182 169
3 171 169 182
3 179 184 173
3 169 173 184
3 178 179 176
3 173 176 179
3 180 178 175
3 176 175 178
3 177 180 174
3 175 174 180
3 181 177 172
3 174 172 177
3 183 181 170
3 172 170 181
3 188 187 185
3 187 186 185
3 187 190 186
3 190 189 186
3 188 185 192
3 192 185 191
3 186 189 185
3 191 185 189
3 194 193 195
3 196 195 193
3 192 191 190
3 191 189 190
3 195 190 194
3 187 194 190
3 187 188 194
3 188 193 194
3 196 193 192
3 192 193 188
3 190 195 192
3 195 196 192
3 197 198 199
3 199 200 197
3 197 200 204
3 204 201 197
3 198 202 203
3 203 199 198
3 197 201 202
3 202 198 197
3 204 200 199
3 199 203 204
3 201 204 203
3 203 202 201
3 207 206 205
3 206 207 208
3 208 210 209
3 210 208 207
3 210 211 209
3 211 210 212
3 215 214 213
3 214 215 216
3 219 218 217
3 218 219 220
3 220 215 213
3 215 220 219
3 205 217 218
3 217 205 206
3 207 218 220
3 218 207 205
3 210 220 213
3 220 210 207
3 212 213 214
3 213 212 210
3 211 214 216
3 214 211 212
3 209 216 215
3 216 209 211
3 208 215 219
3 215 208 209
3 206 219 217
3 219 206 208
3 221 224 222
3 224 223 222
3 222 223 225
3 223 226 225
3 221 227 224
3 228 224 227
3 228 226 224
3 226 223 224
3 229 232 230
3 232 231 230
3 227 225 228
3 225 226 228
3 221 232 227
3 232 229 227
3 225 227 230
3 227 229 230
3 222 225 231
3 225 230 231
3 222 231 221
3 231 232 221
3 233 234 235
3 235 236 233
3 233 236 240
3 240 237 233
3 234 238 239
3 239 235 234
3 233 237 238
3 238 234 233
3 240 236 235
3 235 239 240
3 237 240 239
3 239 238 237
3 241 242 243
3 243 244 241
3 241 244 248
3 248 245 241
3 242 246 247
3 247 243 242
3 241 245 246
3 246 242 241
3 248 244 243
3 243 247 248
3 245 248 247
3 247 246 245
3 242 249 250
3 250 243 242
3 242 243 247
3 247 246 242
3 249 251 256
3 256 250 249
3 242 246 251
3 251 249 242
3 247 243 250
3 250 256 247
3 246 247 256
3 256 251 246
3 249 252 253
3 253 250 249
3 249 250 256
3 256 251 249
3 252 254 255
3 255 253 252
3 249 251 254
3 254 252 249
3 256 250 253
3 253 255 256
3 251 256 255
3 255 254 251
3 257 258 259
3 260 259 258
3 261 262 260
3 259 260 262
3 261 263 262
3 264 262 263
3 265 266 267
3 268 267 266
3 269 270 271
3 272 271 270
3 265 267 272
3 271 272 267
3 270 269 257
3 258 257 269
3 272 270 259
3 257 259 270
3 265 272 262
3 259 262 272
3 266 265 264
3 262 264 265
3 268 266 263
3 264 263 266
3 267 268 261
3 263 261 268
3 271 267 260
3 261 260 267
3 269 271 258
3 260 258 271
3 274 276 273
3 274 275 276
3 277 275 274
3 277 278 275
3 276 279 273
3 279 276 280
3 276 278 280
3 276 275 278
3 282 284 281
3 282 283 284
3 280 277 279
3 280 278 277
3 279 284 273
3 279 281 284
3 282 279 277
3 282 281 279
3 283 277 274
3 283 282 277
3 273 283 274
3 273 284 283
3 285 286 287
3 287 288 285
3 285 288 292
3 292 289 285
3 286 290 291
3 291 287 286
3 285 289 290
3 290 286 285
3 292 288 287
3 287 291 292
3 289 292 291
3 291 290 289
3 293 294 295
3 295 296 293
3 293 296 300
3 300 297 293
3 294 298 299
3 299 295 294
3 293 297 298
3 298 294 293
3 300 296 295
3 295 299 300
3 297 300 299
3 299 298 297
3 294 301 302
3 302 295 294
3 294 295 299
3 299 298 294
3 301 303 304
3 304 302 301
3 294 298 303
3 303 301 294
3 299 295 302
3 302 304 299
3 298 299 304
3 304 303 298
3 301 305 306
3 306 302 301
3 301 302 304
3 304 303 301
3 305 307 308
3 308 306 305
3 301 303 307
3 307 305 301
3 304 302 306
3 306 308 304
3 303 304 308
3 308 307 303
