ply
format ascii 1.0
element vertex 474
property float x
property float y
property float z
element face 890
property list uchar int vertex_indices
end_header
0.12947000563144684 0.08636800199747086 0.06963709741830826
0.12432300299406052 0.09980589896440506 0.04210450127720833
0.10772400349378586 0.09979060292243958 0.0421333983540535
0.10261300206184387 0.08634349703788757 0.06968410313129425
0.11605200171470642 0.0784803032875061 0.08469089865684509
0.13353900611400604 0.12747099995613098 0.07454469799995422
0.1268319934606552 0.12416700273752213 0.05012650042772293
0.10520400106906891 0.12417100369930267 0.050155699253082275
0.09854350239038467 0.1274770051240921 0.07459189742803574
0.11605600267648697 0.12951700389385223 0.08966530114412308
0.13397599756717682 0.1809840053319931 0.09074389934539795
0.12656299769878387 0.18662700057029724 0.06475319713354111
0.10265900194644928 0.18661999702453613 0.06478430330753326
0.09529829770326614 0.18097199499607086 0.09079410135746002
0.11465299874544144 0.1774889975786209 0.10683800280094147
0.1042340025305748 0.09449800103902817 0.03723220154643059
0.1285180002450943 0.0944845974445343 0.03737860172986984
0.13007299602031708 0.056915801018476486 0.0944192036986351
0.11513400077819824 0.05365850031375885 0.10136400163173676
0.10297899693250656 0.056637998670339584 0.09467809647321701
0.09659910202026367 0.0671662986278534 0.07446219772100449
0.13602900505065918 0.06723509728908539 0.07469189912080765
0.2006320059299469 0.07257439941167831 0.12978099286556244
0.19548499584197998 0.0798657014966011 0.10002300143241882
0.1788869947195053 0.0798569992184639 0.10005500167608261
0.17377600073814392 0.07256030291318893 0.12983199954032898
0.18721500039100647 0.0680617019534111 0.14616499841213226
0.2047020047903061 0.11378400027751923 0.1258549988269806
0.19799500703811646 0.10537400096654892 0.10269399732351303
0.17636600136756897 0.10538399964570999 0.10272199660539627
0.16970600187778473 0.11379999667406082 0.125900000333786
0.18721799552440643 0.11899100244045258 0.1401980072259903
0.20614099502563477 0.1540900021791458 0.13057999312877655
0.19974200427532196 0.1540900021791458 0.10257899761199951
0.1746470034122467 0.1540900021791458 0.10261300206184387
0.1676110029220581 0.1540900021791458 0.13063399493694305
0.18723799288272858 0.1540900021791458 0.14436300098896027
0.17556799948215485 0.07364480197429657 0.09638849645853043
0.19985300302505493 0.07366280257701874 0.09653429687023163
0.2015880048274994 0.049052100628614426 0.16026200354099274
0.18646900355815887 0.04734250158071518 0.16772499680519104
0.17413300275802612 0.04883560165762901 0.1605450063943863
0.16793300211429596 0.05483489856123924 0.13856999576091766
0.20736299455165863 0.05495079979300499 0.13877999782562256
0.1484380066394806 0.8956639766693115 0.1803700029850006
0.14025799930095673 0.8918049931526184 0.16908499598503113
0.13030000030994415 0.8735970258712769 0.16803300380706787
0.12177199870347977 0.8765169978141785 0.15176799893379211
0.11915100365877151 0.8797609806060791 0.13742800056934357
0.11796999722719193 0.8846420049667358 0.11883900314569473
0.15696999430656433 0.8913829922676086 0.17061300575733185
0.16629299521446228 0.8732659816741943 0.16774700582027435
0.1737699955701828 0.8762639760971069 0.15001699328422546
0.17715300619602203 0.8794450163841248 0.13707099854946136
0.1786849945783615 0.8817620277404785 0.11879699677228928
0.14848099648952484 0.9046400189399719 0.17495499551296234
0.14851899445056915 0.9182919859886169 0.1678519994020462
0.14854900538921356 0.9340680241584778 0.16773200035095215
0.14782500267028809 0.9384949803352356 0.16173000633716583
0.12401700019836426 0.8711720108985901 0.10545799881219864
0.17312000691890717 0.874504029750824 0.1053759977221489
0.181768998503685 0.8950219750404358 0.10259000211954117
0.11535300314426422 0.8948799967765808 0.10275299847126007
0.148390993475914 0.873429000377655 0.1696140021085739
0.138497993350029 0.8605319857597351 0.16567100584506989
0.1585099995136261 0.8604140281677246 0.1659040004014969
0.13397599756717682 0.8596109747886658 0.14843599498271942
0.14842699468135834 0.8538820147514343 0.14570799469947815
0.1641950011253357 0.8593360185623169 0.14864599704742432
0.13205499947071075 0.8595640063285828 0.12540599703788757
0.16609099507331848 0.8585529923439026 0.12520700693130493
0.15392400324344635 0.9025819897651672 0.1707949936389923
0.17557600140571594 0.9050120115280151 0.16638599336147308
0.16348899900913239 0.9200659990310669 0.16439199447631836
0.18212099373340607 0.9022300243377686 0.15230399370193481
0.180308997631073 0.9314020276069641 0.15722200274467468
0.167603000998497 0.9345459938049316 0.16420100629329681
0.18389399349689484 0.907463014125824 0.12622499465942383
0.18502900004386902 0.9222390055656433 0.13512299954891205
0.14335499703884125 0.9028940200805664 0.17061099410057068
0.13352400064468384 0.9201509952545166 0.1649329960346222
0.12196099758148193 0.9049130082130432 0.1666409969329834
0.13052299618721008 0.9351000189781189 0.16455000638961792
0.1175369992852211 0.9319890141487122 0.15743400156497955
0.11398100107908249 0.9011009931564331 0.1523829996585846
0.12931199371814728 0.9407979846000671 0.15778400003910065
0.11291699856519699 0.9228519797325134 0.13560399413108826
0.11367899924516678 0.9077680110931396 0.1269569993019104
0.1285579949617386 0.8768010139465332 0.09233719855546951
0.13995200395584106 0.8782579898834229 0.08879409730434418
0.1573999971151352 0.8783900141716003 0.0872000977396965
0.16901400685310364 0.8779500126838684 0.09176000207662582
0.1481660008430481 0.8489459753036499 0.13898000121116638
0.12252499908208847 0.8443530201911926 0.10376500338315964
0.17386099696159363 0.843762993812561 0.10312200337648392
0.1252720057964325 0.835273027420044 0.12298300117254257
0.17086200416088104 0.8337420225143433 0.12332399934530258
0.1247820034623146 0.8490399718284607 0.09177219867706299
0.147940993309021 0.8222690224647522 0.13324399292469025
0.1481180042028427 0.8516160249710083 0.08780679851770401
0.17228899896144867 0.8485209941864014 0.09133180230855942
0.23514600098133087 0.6900579929351807 0.09282989799976349
0.23188599944114685 0.695497989654541 0.11736699938774109
0.246069997549057 0.7026270031929016 0.1373710036277771
0.25675100088119507 0.7058820128440857 0.12776100635528564
0.26371899247169495 0.701682984828949 0.10804300010204315
0.250806987285614 0.5390809774398804 0.27288100123405457
0.2535650134086609 0.5379639863967896 0.27619901299476624
0.25095200538635254 0.5407189726829529 0.27805399894714355
0.24854299426078796 0.541271984577179 0.2742379903793335
0.25705599784851074 0.5479540228843689 0.26508399844169617
0.2623380124568939 0.5493429899215698 0.2673810124397278
0.25873899459838867 0.5543299913406372 0.2704080045223236
0.25415000319480896 0.5519220232963562 0.2675580084323883
0.2623539865016937 0.5585790276527405 0.2492469996213913
0.2667219936847687 0.5601279735565186 0.25147199630737305
0.2428559958934784 0.5421649813652039 0.27729400992393494
0.24539799988269806 0.540956974029541 0.2809489965438843
0.24262000620365143 0.5438820123672485 0.28279000520706177
0.2401999980211258 0.5449280142784119 0.27889201045036316
0.25220799446105957 0.5531650185585022 0.26978200674057007
0.2567709982395172 0.5558859705924988 0.27351200580596924
0.25231000781059265 0.5602660179138184 0.27535900473594666
0.24789200723171234 0.5574089884757996 0.2715640068054199
0.25659099221229553 0.5624179840087891 0.25336501002311707
0.26043498516082764 0.5655080080032349 0.2569819986820221
0.2586129903793335 0.5422220230102539 0.2609789967536926
0.2610670030117035 0.5407829880714417 0.26317599415779114
0.25955700874328613 0.5429880023002625 0.26532500982284546
0.25722500681877136 0.5440130233764648 0.2626369893550873
0.2628290057182312 0.5487350225448608 0.25360798835754395
0.2674570083618164 0.5488020181655884 0.2549619972705841
0.26590800285339355 0.5531079769134521 0.25802499055862427
0.2615329921245575 0.5521799921989441 0.2561590075492859
0.2659029960632324 0.5561469793319702 0.24434399604797363
0.2703329920768738 0.5576369762420654 0.24589599668979645
0.23728199303150177 0.5515699982643127 0.2802239954471588
0.23867200314998627 0.5507360100746155 0.28438401222229004
0.23543600738048553 0.5536190271377563 0.28505900502204895
0.23421700298786163 0.5542590022087097 0.2807379961013794
0.24614599347114563 0.559328019618988 0.27325698733329773
0.24994699656963348 0.5616610050201416 0.27710700035095215
0.2449840009212494 0.5669220089912415 0.2782829999923706
0.24130499362945557 0.564437985420227 0.2744179964065552
0.2504589855670929 0.5672590136528015 0.25558000802993774
0.2535490095615387 0.5712270140647888 0.25912100076675415
0.23552000522613525 0.5720840096473694 0.27134498953819275
0.23482899367809296 0.5706350207328796 0.2688550055027008
0.23769600689411163 0.569612979888916 0.26809799671173096
0.2400899976491928 0.5705749988555908 0.27005600929260254
0.23915399610996246 0.5834829807281494 0.2595120072364807
0.23616300523281097 0.5792890191078186 0.25697600841522217
0.2421569973230362 0.5748230218887329 0.25632598996162415
0.2453490048646927 0.5790050029754639 0.25805899500846863
0.24104100465774536 0.5869280099868774 0.24777400493621826
0.23786599934101105 0.5813729763031006 0.24757100641727448
0.2447270005941391 0.5767959952354431 0.25346899032592773
0.24746599793434143 0.5801979899406433 0.2560350000858307
0.25638601183891296 0.5767160058021545 0.22508999705314636
0.26335200667381287 0.5706049799919128 0.22141799330711365
0.24654899537563324 0.5825650095939636 0.22756600379943848
0.2477789968252182 0.5897600054740906 0.22982600331306458
0.2635680139064789 0.5845929980278015 0.23083999752998352
0.2683599889278412 0.5739589929580688 0.22314800322055817
0.2495190054178238 0.6085289716720581 0.12648899853229523
0.23924100399017334 0.6337479948997498 0.14378699660301208
0.2482209950685501 0.6419739723205566 0.14572200179100037
0.2609570026397705 0.6381000280380249 0.14143399894237518
0.273173987865448 0.6258829832077026 0.12963099777698517
0.24613900482654572 0.6352480053901672 0.1095919981598854
0.2384680062532425 0.6434990167617798 0.13767899572849274
0.24769100546836853 0.6438170075416565 0.14571499824523926
0.2596459984779358 0.644894003868103 0.14020299911499023
0.27264100313186646 0.6438500285148621 0.1228260025382042
0.04180150106549263 0.693805992603302 0.06746239960193634
0.06295710057020187 0.6876400113105774 0.07444539666175842
0.06080390140414238 0.6862390041351318 0.09549520164728165
0.04151510074734688 0.6892290115356445 0.10617800056934357
0.032540399581193924 0.6926519870758057 0.09311070293188095
0.047116901725530624 0.46678799390792847 0.1297149956226349
0.04955809935927391 0.47039198875427246 0.12820599973201752
0.05053900182247162 0.4708159863948822 0.1317639946937561
0.048143498599529266 0.4672299921512604 0.1336580067873001
0.037628501653671265 0.48010700941085815 0.12680299580097198
0.04301460087299347 0.48273399472236633 0.12566600739955902
0.04413760080933571 0.4842340052127838 0.13087299466133118
0.0391554981470108 0.48210299015045166 0.13331100344657898
0.05141900107264519 0.4664349853992462 0.13799600303173065
0.054213400930166245 0.4714890122413635 0.13508300483226776
0.05554940178990364 0.4713839888572693 0.14001800119876862
0.05332430079579353 0.4671590030193329 0.14232900738716125
0.03934499993920326 0.4806950092315674 0.13619999587535858
0.04462150111794472 0.4833729863166809 0.13282200694084167
0.047604601830244064 0.48535698652267456 0.13843299448490143
0.04242410138249397 0.48271501064300537 0.14197899401187897
0.03608879819512367 0.4994730055332184 0.1292860060930252
0.04141559824347496 0.4998539984226227 0.12596799433231354
0.04197400063276291 0.47795599699020386 0.11942999809980392
0.04395810142159462 0.4809330105781555 0.1188260018825531
0.04396180063486099 0.4811049997806549 0.12184400111436844
0.0419108010828495 0.4781070053577423 0.1226930022239685
0.035735901445150375 0.48853799700737 0.11574199795722961
0.03989820182323456 0.4910149872303009 0.11591599881649017
0.03975839912891388 0.49203500151634216 0.12027300149202347
0.03548020124435425 0.4898569881916046 0.12103399634361267
0.03281309828162193 0.5016559958457947 0.11284500360488892
0.03763969987630844 0.5017619729042053 0.1127299964427948
0.03883500024676323 0.5001140236854553 0.11929900199174881
0.03396590054035187 0.4996730089187622 0.12043300271034241
0.05446980148553848 0.47282999753952026 0.1457660049200058
0.05560019984841347 0.4765680134296417 0.14272400736808777
0.0581137016415596 0.4783810079097748 0.14672400057315826
0.05689080059528351 0.4744980037212372 0.14972099661827087
0.04362640157341957 0.4854229986667633 0.14416199922561646
0.04780999943614006 0.4883260130882263 0.14055800437927246
0.05087609961628914 0.4914030134677887 0.14583900570869446
0.04676159843802452 0.4886130094528198 0.14959099888801575
0.040977198630571365 0.5032600164413452 0.13721400499343872
0.046168699860572815 0.5032399892807007 0.13389499485492706
0.05898360162973404 0.5017150044441223 0.15160199999809265
0.05729110166430473 0.5014010071754456 0.15418200194835663
0.05307190120220184 0.5005829930305481 0.15046699345111847
0.05590220168232918 0.5009160041809082 0.14916899800300598
0.058478400111198425 0.5123540163040161 0.14619000256061554
0.05432239919900894 0.5147960186004639 0.14972099661827087
0.04880860075354576 0.5104299783706665 0.14451199769973755
0.05374149978160858 0.510466992855072 0.14155499637126923
0.05692259967327118 0.5195080041885376 0.1388770043849945
0.05241699889302254 0.5241379737854004 0.14120399951934814
0.04677240177989006 0.5114759802818298 0.1398860067129135
0.051512300968170166 0.5130550265312195 0.1388009935617447
0.04475979879498482 0.5313209891319275 0.11464899778366089
0.04099100083112717 0.6473780274391174 0.06397110223770142
0.05700179934501648 0.6417999863624573 0.07001639902591705
0.05889439955353737 0.6327670216560364 0.09116210043430328
0.0439319983124733 0.6337010264396667 0.09866809844970703
0.03024189919233322 0.643314003944397 0.08788490295410156
0.04064510017633438 0.6339489817619324 0.062387898564338684
0.05542479828000069 0.6263009905815125 0.07331019639968872
0.05803459882736206 0.6277880072593689 0.0930832028388977
0.043692901730537415 0.6311770081520081 0.09910459816455841
0.02924630045890808 0.6337890028953552 0.08714599907398224
0.03551140055060387 0.5275099873542786 0.10690400004386902
0.038756098598241806 0.5304219722747803 0.10932599753141403
0.05059630051255226 0.5377020239830017 0.12036599963903427
0.04763679951429367 0.5395510196685791 0.12533900141716003
0.035902298986911774 0.5331019759178162 0.11716599762439728
0.09942039847373962 0.08538120239973068 0.033531300723552704
0.11618799716234207 0.0866381973028183 0.02821829915046692
0.13071000576019287 0.08595219999551773 0.03337959945201874
0.1303659975528717 0.04126239940524101 0.10049299895763397
0.12117899954319 0.035426098853349686 0.12581400573253632
0.10811000317335129 0.03514640033245087 0.1263899952173233
0.10196200013160706 0.04178300127387047 0.10068099945783615
0.09633500128984451 0.07019650191068649 0.046824801713228226
0.10223600268363953 0.07363510131835938 0.03056279942393303
0.11618799716234207 0.0750180035829544 0.025695400312542915
0.12988999485969543 0.07348070293664932 0.0302582997828722
0.13752299547195435 0.07028289884328842 0.04708230122923851
0.13291700184345245 0.031914301216602325 0.09775090217590332
0.1139340028166771 0.025151200592517853 0.12835200130939484
0.09882339835166931 0.03213629871606827 0.09742820262908936
0.11271499842405319 0.047375600785017014 0.02500000037252903
0.11954399943351746 0.04742110148072243 0.025305399671196938
0.11271499842405319 0.045957598835229874 0.03153039887547493
0.11954399943351746 0.046003200113773346 0.031835898756980896
0.17075499892234802 0.06395020335912704 0.09470640122890472
0.1875230073928833 0.06405159831047058 0.08924750238656998
0.2020449936389923 0.06447640061378479 0.0944368988275528
0.2006330043077469 0.035190798342227936 0.16942599415779114
0.19251400232315063 0.03471300005912781 0.19548699259757996
0.17944499850273132 0.03456199914216995 0.19610899686813354
0.17341600358486176 0.035511698573827744 0.16961899399757385
0.16766999661922455 0.05193210020661354 0.11091899871826172
0.17357100546360016 0.05184200033545494 0.09429760277271271
0.1875230073928833 0.05216069892048836 0.08924750238656998
0.20122499763965607 0.05162639915943146 0.09403269737958908
0.208856999874115 0.05207109823822975 0.11115200072526932
0.20493899285793304 0.02612980082631111 0.16879600286483765
0.18526899814605713 0.025210700929164886 0.20014800131320953
0.16947099566459656 0.02547530084848404 0.1684579998254776
0.18404899537563324 0.02500000037252903 0.09443320333957672
0.1908790022134781 0.02510939911007881 0.09472189843654633
0.18404899537563324 0.02500000037252903 0.10111600160598755
0.1908790022134781 0.02510939911007881 0.10140500217676163
0.15072999894618988 0.534404993057251 0.17160099744796753
0.10850600153207779 0.5232449769973755 0.16802799701690674
0.08357810229063034 0.5232449769973755 0.15437699854373932
0.06631720066070557 0.5261840224266052 0.1285499930381775
0.07944560050964355 0.5198730230331421 0.09917840361595154
0.1063069999217987 0.5173519849777222 0.0842306986451149
0.14941799640655518 0.5226250290870667 0.07440269738435745
0.1507990062236786 0.4865660071372986 0.12794600427150726
0.1589599996805191 0.3613559901714325 0.1645369976758957
0.15575699508190155 0.36306899785995483 0.13509300351142883
0.16205400228500366 0.3644829988479614 0.10943999886512756
0.1877949982881546 0.36535000801086426 0.10549700260162354
0.2112089991569519 0.3633039891719818 0.11794599890708923
0.21815800666809082 0.3619079887866974 0.139491006731987
0.20731200277805328 0.36093300580978394 0.16103599965572357
0.1853789985179901 0.3614940047264099 0.16761699318885803
0.14451900124549866 0.3625270128250122 0.14897699654102325
0.11431500315666199 0.36187800765037537 0.15777499973773956
0.09093870222568512 0.36127498745918274 0.14631299674510956
0.08422660082578659 0.36043599247932434 0.129381000995636
0.09064540266990662 0.3590019941329956 0.10558599978685379
0.11540400236845016 0.3593110144138336 0.09331890195608139
0.13831500709056854 0.36054301261901855 0.09964030236005783
0.146464005112648 0.3617820143699646 0.1238429993391037
0.15976299345493317 0.3465690016746521 0.1626189947128296
0.15630799531936646 0.3468950092792511 0.13568200170993805
0.16212299466133118 0.34856900572776794 0.10870199650526047
0.1869720071554184 0.34759899973869324 0.10292000323534012
0.21067699790000916 0.3467029929161072 0.11714299768209457
0.21740099787712097 0.3453510105609894 0.13798700273036957
0.20641200244426727 0.3444179892539978 0.15883199870586395
0.1847030073404312 0.3444400131702423 0.16743500530719757
0.14272500574588776 0.34369298815727234 0.14835399389266968
0.11378300189971924 0.3399370014667511 0.15573400259017944
0.09164050221443176 0.3419390022754669 0.14451800286769867
0.08519530296325684 0.3452470004558563 0.12805399298667908
0.09135670214891434 0.3487609922885895 0.1052590012550354
0.11574500054121017 0.3514319956302643 0.09237439930438995
0.13841499388217926 0.3500159978866577 0.09878820180892944
0.1454640030860901 0.3472070097923279 0.1226240023970604
0.1692260056734085 0.13686199486255646 0.13927699625492096
0.16462799906730652 0.13600000739097595 0.12228599935770035
0.16973300278186798 0.13492099940776825 0.10262800008058548
0.1889130026102066 0.13521799445152283 0.09286359697580338
0.20497100055217743 0.13584400713443756 0.10631299763917923
0.2111389935016632 0.1354459971189499 0.12235800176858902
0.2037539929151535 0.1362130045890808 0.13757799565792084
0.1882150024175644 0.13623200356960297 0.14698900282382965
0.13149599730968475 0.13792000710964203 0.09003440290689468
0.11524999886751175 0.13616900146007538 0.10051900148391724
0.10115800052881241 0.13834500312805176 0.08946879953145981
0.09307509660720825 0.1417350023984909 0.07300350069999695
0.09888140112161636 0.1448650062084198 0.05479630082845688
0.11892499774694443 0.14699600636959076 0.04612509906291962
0.13371099531650543 0.14406999945640564 0.055334899574518204
0.13938100636005402 0.1418599933385849 0.07344870269298553
0.1912579983472824 0.5238339900970459 0.16712899506092072
0.21878400444984436 0.5240709781646729 0.1528100073337555
0.23284299671649933 0.5239310264587402 0.12813700735569
0.22045199573040009 0.5237389802932739 0.10011299699544907
0.19359800219535828 0.5177199840545654 0.08207999914884567
0.10467900335788727 0.567982017993927 0.0823206976056099
0.08247639983892441 0.5739719867706299 0.10005199909210205
0.06878340244293213 0.5741980075836182 0.12779399752616882
0.08677390217781067 0.5715219974517822 0.1545410007238388
0.1116660013794899 0.5689039826393127 0.1711450070142746
0.15048600733280182 0.569275975227356 0.17506200075149536
0.18999800086021423 0.5703999996185303 0.16996699571609497
0.21816599369049072 0.5745459794998169 0.15221799910068512
0.23083600401878357 0.5764439702033997 0.12965300679206848
0.21715900301933289 0.5747810006141663 0.10097599774599075
0.1923380047082901 0.5692179799079895 0.08207180351018906
0.14938700199127197 0.5556210279464722 0.0721495971083641
0.10988999903202057 0.6125879883766174 0.09829600155353546
0.08571120351552963 0.6120510101318359 0.11139199882745743
0.0759551003575325 0.6117100119590759 0.13120800256729126
0.09049919992685318 0.6121399998664856 0.15370500087738037
0.11571799963712692 0.6112779974937439 0.16655300557613373
0.14970999956130981 0.6112779974937439 0.17152200639247894
0.186490997672081 0.6121399998664856 0.1653289943933487
0.21265800297260284 0.6121399998664856 0.15094299614429474
0.2238440066576004 0.6130020022392273 0.1317169964313507
0.21431800723075867 0.6117820143699646 0.10935600101947784
0.18861199915409088 0.6108689904212952 0.09553439915180206
0.14921599626541138 0.6117640137672424 0.08512730151414871
0.21923799812793732 0.6265130043029785 0.125901997089386
0.2101760059595108 0.6272619962692261 0.15830299258232117
0.11038699746131897 0.6252750158309937 0.09845370054244995
0.09026569873094559 0.6252750158309937 0.11117900162935257
0.08031730353832245 0.6252750158309937 0.13073599338531494
0.09064240008592606 0.6252750158309937 0.15380200743675232
0.210316002368927 0.6261879801750183 0.11015000194311142
0.1870180070400238 0.6256160140037537 0.09720449894666672
0.1488180011510849 0.6252750158309937 0.08502709865570068
0.11793100088834763 0.6259729862213135 0.16903899610042572
0.1832370012998581 0.6262459754943848 0.1724269986152649
0.14936299622058868 0.6262360215187073 0.16850599646568298
0.0796717032790184 0.7146109938621521 0.16339099407196045
0.10110999643802643 0.7127659916877747 0.1706629991531372
0.07299750298261642 0.7205830216407776 0.13382300734519958
0.07099449634552002 0.7438009977340698 0.16837500035762787
0.0975601002573967 0.749675989151001 0.18317200243473053
0.07145729660987854 0.7754080295562744 0.15489499270915985
0.10130299627780914 0.7838190197944641 0.16081100702285767
0.07791859656572342 0.8071860074996948 0.13607999682426453
0.10581699758768082 0.8062480092048645 0.14611899852752686
0.07634419947862625 0.7208489775657654 0.09253580123186111
0.09015890210866928 0.7136729955673218 0.0729478970170021
0.08143419772386551 0.733614981174469 0.0686924010515213
0.08435489982366562 0.8001459836959839 0.0703968033194542
0.06746389716863632 0.8221750259399414 0.09396789968013763
0.08392500132322311 0.8263440132141113 0.07920540124177933
0.1473509967327118 0.7124649882316589 0.06993439793586731
0.21076700091362 0.7136690020561218 0.07304500043392181
0.14739300310611725 0.7339800000190735 0.06757540255784988
0.21718500554561615 0.737758994102478 0.07213789969682693
0.14715400338172913 0.8014119863510132 0.06948120146989822
0.212458997964859 0.7971339821815491 0.07150120288133621
0.14763900637626648 0.8279200196266174 0.07652240246534348
0.2165679931640625 0.8201929926872253 0.08192569762468338
0.22104600071907043 0.7173960208892822 0.09158369898796082
0.220660001039505 0.7172020077705383 0.13497500121593475
0.2298779934644699 0.8215159773826599 0.09420499950647354
0.21383200585842133 0.7146480083465576 0.16315799951553345
0.19249600172042847 0.7121189832687378 0.1707800030708313
0.22267399728298187 0.7484570145606995 0.16898800432682037
0.19962599873542786 0.7507439851760864 0.1822649985551834
0.22235900163650513 0.7777780294418335 0.15733200311660767
0.19366499781608582 0.7847430109977722 0.15968699753284454
0.21713699400424957 0.8065900206565857 0.13377299904823303
0.1854339987039566 0.8120539784431458 0.14479699730873108
0.14827799797058105 0.708620011806488 0.17607399821281433
0.1481509953737259 0.744396984577179 0.18303899466991425
0.14781099557876587 0.7842260003089905 0.15751400589942932
0.25999099016189575 0.6687769889831543 0.09574180096387863
0.22974500060081482 0.6707919836044312 0.10141800343990326
0.23725000023841858 0.6750990152359009 0.1420069932937622
0.2548219859600067 0.6795589923858643 0.14050300419330597
0.2723749876022339 0.6821290254592896 0.1194709986448288
0.24091699719429016 0.8005520105361938 0.0767102986574173
0.21948100626468658 0.7314109802246094 0.08090139925479889
0.22799399495124817 0.7439780235290527 0.13724400103092194
0.24193699657917023 0.7944579720497131 0.13067999482154846
0.24422499537467957 0.8165929913520813 0.10035199671983719
0.05450969934463501 0.8061280250549316 0.07622300088405609
0.07079820334911346 0.7297769784927368 0.08098150044679642
0.06565140187740326 0.744799017906189 0.13725699484348297
0.054413601756095886 0.7927650213241577 0.1344500035047531
0.05060900002717972 0.8199880123138428 0.10007599741220474
0.03742640092968941 0.6804999709129333 0.060495901852846146
0.06718940287828445 0.6777780055999756 0.0629459023475647
0.06459350138902664 0.6701560020446777 0.09994799643754959
0.042152199894189835 0.6749849915504456 0.10562200099229813
0.02500000037252903 0.6794289946556091 0.08825469762086868
0.15043599903583527 0.9507129788398743 0.1659809947013855
0.14848700165748596 0.9569299817085266 0.16594700515270233
0.14767000079154968 0.9704030156135559 0.14027999341487885
0.19537800550460815 0.8988019824028015 0.09753090143203735
0.194582998752594 0.9149010181427002 0.09349069744348526
0.1899230033159256 0.9470000267028809 0.0983617976307869
0.17969700694084167 0.9677780270576477 0.10498300194740295
0.16324399411678314 0.9746710062026978 0.11364500224590302
0.1334259957075119 0.9750000238418579 0.11382699757814407
0.11699400097131729 0.9692819714546204 0.10624399781227112
0.10712800174951553 0.9470030069351196 0.09818530082702637
0.10474900156259537 0.9155089855194092 0.09530310332775116
0.10262800008058548 0.9015309810638428 0.09765080362558365
0.19086499512195587 0.9433630108833313 0.153779998421669
0.1734900027513504 0.946304976940155 0.16255199909210205
0.19832299649715424 0.914887011051178 0.1211320012807846
0.19793100655078888 0.9271510243415833 0.13288600742816925
0.1897290050983429 0.958844006061554 0.13613100349903107
0.17437699437141418 0.9688249826431274 0.13897499442100525
0.12701599299907684 0.9517679810523987 0.1611119955778122
0.10891000181436539 0.9454749822616577 0.1492300033569336
0.12298599630594254 0.9676439762115479 0.13803499937057495
0.10800900310277939 0.9585509896278381 0.13625699281692505
0.09980040043592453 0.9324340224266052 0.13238699734210968
0.0984048992395401 0.9199579954147339 0.11661099642515182
0.1160229966044426 0.875307023525238 0.0861658975481987
0.1166900023818016 0.9138420224189758 0.07852870225906372
0.13854900002479553 0.8626419901847839 0.08229970186948776
0.13370299339294434 0.9468849897384644 0.07541389763355255
0.14804700016975403 0.9101830124855042 0.07275699824094772
0.15647999942302704 0.8625950217247009 0.08135589957237244
0.1462170034646988 0.9656850099563599 0.09196600317955017
0.1593330055475235 0.9486569762229919 0.0792165994644165
0.17924299836158752 0.9153689742088318 0.08170080184936523
0.1810380071401596 0.8721629977226257 0.08739689737558365
3 0 1 6
3 0 6 5
3 1 2 7
3 1 7 6
3 2 3 8
3 2 8 7
3 3 4 9
3 3 9 8
3 4 0 5
3 4 5 9
3 5 6 11
3 5 11 10
3 6 7 12
3 6 12 11
3 7 8 13
3 7 13 12
3 8 9 14
3 8 14 13
3 9 5 10
3 9 10 14
3 3 20 19
3 3 19 4
3 2 15 20
3 2 20 3
3 0 21 16
3 1 0 16
3 0 17 21
3 0 4 17
3 4 18 17
3 4 19 18
3 2 1 16
3 2 16 15
3 22 23 28
3 22 28 27
3 23 24 29
3 23 29 28
3 24 25 30
3 24 30 29
3 25 26 31
3 25 31 30
3 26 22 27
3 26 27 31
3 27 28 33
3 27 33 32
3 28 29 34
3 28 34 33
3 29 30 35
3 29 35 34
3 30 31 36
3 30 36 35
3 31 27 32
3 31 32 36
3 25 42 41
3 25 41 26
3 24 37 42
3 24 42 25
3 26 41 40
3 23 22 43
3 23 43 38
3 22 26 39
3 22 39 43
3 26 40 39
3 24 23 38
3 24 38 37
3 44 45 50
3 45 46 63
3 45 63 50
3 50 63 51
3 46 47 64
3 46 64 63
3 63 64 65
3 63 65 51
3 51 65 52
3 47 48 66
3 47 66 64
3 64 66 67
3 64 67 65
3 65 67 68
3 65 68 52
3 52 68 53
3 48 49 69
3 48 69 66
3 68 70 53
3 53 70 54
3 49 59 69
3 70 60 54
3 44 50 55
3 50 51 71
3 50 71 55
3 55 71 56
3 51 52 72
3 51 72 71
3 71 72 73
3 71 73 56
3 56 73 57
3 52 53 74
3 52 74 72
3 72 74 75
3 72 75 73
3 73 75 76
3 73 76 57
3 57 76 58
3 53 54 77
3 53 77 74
3 74 77 78
3 74 78 75
3 54 61 77
3 44 55 45
3 55 56 79
3 55 79 45
3 45 79 46
3 56 57 80
3 56 80 79
3 79 80 81
3 79 81 46
3 46 81 47
3 57 58 82
3 57 82 80
3 80 82 83
3 80 83 81
3 81 83 84
3 81 84 47
3 47 84 48
3 58 85 82
3 82 85 83
3 83 86 84
3 84 86 87
3 84 87 48
3 48 87 49
3 87 62 49
3 62 88 59
3 61 54 60
3 62 59 49
3 70 68 67
3 69 67 66
3 70 67 92
3 69 92 67
3 92 95 98
3 92 98 96
3 70 92 96
3 70 96 94
3 60 70 94
3 60 94 100
3 91 60 100
3 91 100 99
3 90 91 99
3 92 69 95
3 69 93 95
3 69 59 93
3 59 97 93
3 59 88 97
3 88 99 97
3 88 89 99
3 89 90 99
3 61 60 91
3 106 110 107
3 110 111 107
3 107 111 108
3 111 112 108
3 108 112 109
3 112 113 109
3 109 113 106
3 113 110 106
3 110 114 111
3 114 115 111
3 111 115 112
3 115 125 112
3 112 125 113
3 125 124 113
3 113 124 110
3 124 114 110
3 109 106 107
3 107 108 109
3 116 120 117
3 120 121 117
3 117 121 118
3 121 122 118
3 118 122 119
3 122 123 119
3 119 123 116
3 123 120 116
3 120 124 121
3 124 125 121
3 121 125 122
3 125 145 122
3 122 145 123
3 145 144 123
3 123 144 120
3 144 124 120
3 119 116 117
3 117 118 119
3 126 130 127
3 130 131 127
3 127 131 128
3 131 132 128
3 128 132 129
3 132 133 129
3 129 133 126
3 133 130 126
3 130 134 131
3 134 135 131
3 131 135 132
3 135 115 132
3 132 115 133
3 115 114 133
3 133 114 130
3 114 134 130
3 129 126 127
3 127 128 129
3 136 140 137
3 140 141 137
3 137 141 138
3 141 142 138
3 138 142 139
3 142 143 139
3 139 143 136
3 143 140 136
3 140 144 141
3 144 145 141
3 141 145 142
3 145 157 142
3 142 157 143
3 157 156 143
3 143 156 140
3 156 144 140
3 139 136 137
3 137 138 139
3 146 150 147
3 150 151 147
3 147 151 148
3 151 152 148
3 148 152 149
3 152 153 149
3 149 153 146
3 153 150 146
3 150 154 151
3 154 155 151
3 151 155 152
3 155 156 152
3 152 156 153
3 156 157 153
3 153 157 150
3 157 154 150
3 149 146 147
3 147 148 149
3 162 154 157
3 162 157 145
3 162 145 125
3 162 125 115
3 162 115 135
3 144 156 158
3 124 144 158
3 114 124 158
3 134 114 158
3 161 154 162
3 162 135 163
3 158 159 134
3 160 158 155
3 135 134 159
3 163 135 159
3 161 160 155
3 154 161 155
3 156 155 158
3 160 161 166
3 160 166 165
3 161 162 167
3 161 167 166
3 162 163 168
3 162 168 167
3 163 159 164
3 163 164 168
3 164 165 170
3 164 170 169
3 165 166 171
3 165 171 170
3 166 167 172
3 166 172 171
3 167 168 173
3 167 173 172
3 168 164 169
3 168 169 173
3 165 164 158
3 164 159 158
3 165 158 160
3 103 171 172
3 104 103 172
3 105 104 172
3 105 172 173
3 101 105 173
3 101 173 169
3 102 101 169
3 102 169 170
3 103 102 170
3 103 170 171
3 179 183 180
3 183 184 180
3 180 184 181
3 184 185 181
3 181 185 182
3 185 186 182
3 182 186 179
3 186 183 179
3 183 208 184
3 208 207 184
3 184 207 185
3 207 196 185
3 185 196 186
3 196 195 186
3 186 195 183
3 195 208 183
3 182 179 180
3 180 181 182
3 187 191 188
3 191 192 188
3 188 192 189
3 192 193 189
3 189 193 190
3 193 194 190
3 190 194 187
3 194 191 187
3 191 195 192
3 195 196 192
3 192 196 193
3 196 218 193
3 193 218 194
3 218 217 194
3 194 217 191
3 217 195 191
3 190 187 188
3 188 189 190
3 197 201 198
3 201 202 198
3 198 202 199
3 202 203 199
3 199 203 200
3 203 204 200
3 200 204 197
3 204 201 197
3 201 205 202
3 205 206 202
3 202 206 203
3 206 207 203
3 203 207 204
3 207 208 204
3 204 208 201
3 208 205 201
3 200 197 198
3 198 199 200
3 209 213 210
3 213 214 210
3 210 214 211
3 214 215 211
3 211 215 212
3 215 216 212
3 212 216 209
3 216 213 209
3 213 217 214
3 217 218 214
3 214 218 215
3 218 230 215
3 215 230 216
3 230 229 216
3 216 229 213
3 229 217 213
3 212 209 210
3 210 211 212
3 219 223 220
3 223 224 220
3 220 224 221
3 224 225 221
3 221 225 222
3 225 226 222
3 222 226 219
3 226 223 219
3 223 227 224
3 227 228 224
3 224 228 225
3 228 229 225
3 225 229 226
3 229 230 226
3 226 230 223
3 230 227 223
3 222 219 220
3 220 221 222
3 246 205 208
3 246 208 195
3 246 195 217
3 246 217 229
3 246 229 228
3 207 206 231
3 196 207 231
3 218 196 231
3 230 218 231
3 227 230 231
3 246 228 245
3 244 227 231
3 243 231 206
3 205 246 242
3 245 228 227
3 244 245 227
3 242 243 206
3 242 206 205
3 232 233 238
3 232 238 237
3 233 234 239
3 233 239 238
3 234 235 240
3 234 240 239
3 235 236 241
3 235 241 240
3 236 232 237
3 236 237 241
3 237 238 243
3 237 243 242
3 239 240 245
3 239 245 244
3 240 241 246
3 240 246 245
3 241 237 242
3 241 242 246
3 239 231 238
3 231 243 238
3 244 231 239
3 178 236 235
3 177 178 235
3 178 174 232
3 178 232 236
3 174 175 233
3 174 233 232
3 175 176 234
3 175 234 233
3 176 177 235
3 176 235 234
3 17 18 251
3 17 251 250
3 18 19 253
3 18 253 252
3 20 247 255
3 20 255 254
3 247 248 256
3 247 256 255
3 248 249 257
3 248 257 256
3 249 21 258
3 249 258 257
3 21 250 259
3 21 259 258
3 250 251 260
3 250 260 259
3 251 252 260
3 252 253 261
3 252 261 260
3 253 20 254
3 253 254 261
3 21 17 250
3 16 21 249
3 16 249 248
3 15 248 247
3 15 16 248
3 15 247 20
3 19 20 253
3 18 252 251
3 256 262 255
3 257 263 256
3 256 263 262
3 254 255 264
3 255 262 264
3 258 265 257
3 257 265 263
3 254 264 265
3 258 254 265
3 39 40 270
3 39 270 269
3 40 41 272
3 40 272 271
3 42 266 274
3 42 274 273
3 266 267 275
3 266 275 274
3 267 268 276
3 267 276 275
3 268 43 277
3 268 277 276
3 43 269 278
3 43 278 277
3 269 270 279
3 269 279 278
3 270 271 279
3 271 272 280
3 271 280 279
3 272 42 273
3 272 273 280
3 43 39 269
3 38 43 268
3 38 268 267
3 37 267 266
3 37 38 267
3 37 266 42
3 41 42 272
3 40 271 270
3 275 281 274
3 276 282 275
3 275 282 281
3 273 274 283
3 274 281 283
3 277 284 276
3 276 284 282
3 273 283 284
3 277 273 284
3 285 292 294
3 285 294 293
3 292 291 295
3 292 295 294
3 291 345 296
3 291 296 295
3 345 344 297
3 345 297 296
3 344 343 298
3 344 298 297
3 343 342 299
3 343 299 298
3 342 341 300
3 342 300 299
3 341 285 293
3 341 293 300
3 285 286 302
3 285 302 301
3 286 287 303
3 286 303 302
3 287 288 304
3 287 304 303
3 288 289 305
3 288 305 304
3 289 290 306
3 289 306 305
3 290 291 307
3 290 307 306
3 291 292 308
3 291 308 307
3 292 285 301
3 292 301 308
3 293 294 310
3 293 310 309
3 294 295 311
3 294 311 310
3 295 296 312
3 295 312 311
3 296 297 313
3 296 313 312
3 297 298 314
3 297 314 313
3 298 299 315
3 298 315 314
3 299 300 316
3 299 316 315
3 300 293 309
3 300 309 316
3 301 302 318
3 301 318 317
3 302 303 319
3 302 319 318
3 303 304 320
3 303 320 319
3 304 305 321
3 304 321 320
3 305 306 322
3 305 322 321
3 306 307 323
3 306 323 322
3 307 308 324
3 307 324 323
3 308 301 317
3 308 317 324
3 309 310 326
3 309 326 325
3 310 311 327
3 310 327 326
3 311 312 328
3 311 328 327
3 312 313 329
3 312 329 328
3 313 314 330
3 313 330 329
3 314 315 331
3 314 331 330
3 315 316 332
3 315 332 331
3 316 309 325
3 316 325 332
3 317 318 334
3 317 334 333
3 318 319 335
3 318 335 334
3 319 320 336
3 319 336 335
3 320 321 337
3 320 337 336
3 321 322 338
3 321 338 337
3 322 323 339
3 322 339 338
3 323 324 340
3 323 340 339
3 324 317 333
3 324 333 340
3 290 289 347
3 290 347 346
3 289 288 348
3 289 348 347
3 288 287 349
3 288 349 348
3 287 286 350
3 287 350 349
3 286 285 351
3 286 351 350
3 285 341 352
3 285 352 351
3 341 342 353
3 341 353 352
3 342 343 354
3 342 354 353
3 343 344 355
3 343 355 354
3 344 345 356
3 344 356 355
3 345 291 357
3 345 357 356
3 291 290 346
3 291 346 357
3 346 347 359
3 346 359 358
3 347 348 360
3 347 360 359
3 348 349 361
3 348 361 360
3 349 350 362
3 349 362 361
3 350 351 363
3 350 363 362
3 351 352 364
3 351 364 363
3 352 353 365
3 352 365 364
3 353 354 366
3 353 366 365
3 354 355 367
3 354 367 366
3 355 356 368
3 355 368 367
3 356 357 369
3 356 369 368
3 357 346 358
3 357 358 369
3 358 359 373
3 358 373 372
3 359 360 374
3 359 374 373
3 360 361 375
3 360 375 374
3 361 362 379
3 361 379 375
3 362 363 381
3 362 381 379
3 363 364 380
3 363 380 381
3 364 365 371
3 364 371 380
3 365 366 370
3 365 370 371
3 366 367 376
3 366 376 370
3 367 368 377
3 367 377 376
3 368 369 378
3 368 378 377
3 369 358 372
3 369 372 378
3 387 385 386
3 386 388 387
3 389 387 388
3 388 390 389
3 95 389 390
3 93 433 389
3 389 95 93
3 391 373 374
3 374 384 391
3 430 391 384
3 384 431 430
3 393 392 391
3 391 430 393
3 394 393 430
3 430 429 394
3 396 394 429
3 429 395 396
3 97 396 395
3 395 93 97
3 398 377 378
3 378 397 398
3 400 398 397
3 397 399 400
3 402 400 399
3 399 401 402
3 403 401 394
3 394 396 403
3 99 403 396
3 396 97 99
3 99 404 403
3 405 376 377
3 377 398 405
3 406 370 376
3 376 405 406
3 100 407 404
3 404 99 100
3 407 100 94
3 409 380 371
3 371 408 409
3 410 408 406
3 406 426 410
3 411 409 408
3 408 410 411
3 412 410 426
3 426 427 412
3 414 412 427
3 427 428 414
3 94 414 428
3 96 415 414
3 414 94 96
3 415 98 413
3 98 418 413
3 413 418 411
3 418 417 411
3 98 390 388
3 98 388 418
3 418 388 386
3 418 386 417
3 96 98 415
3 95 390 98
3 433 395 429
3 428 424 407
3 419 420 425
3 419 425 424
3 420 421 426
3 420 426 425
3 421 422 427
3 421 427 426
3 422 423 428
3 422 428 427
3 423 419 424
3 423 424 428
3 426 427 428
3 426 428 424
3 425 426 424
3 433 432 431
3 429 433 431
3 429 431 430
3 429 430 435
3 429 435 434
3 430 431 436
3 430 436 435
3 431 432 437
3 431 437 436
3 432 433 438
3 432 438 437
3 433 429 434
3 433 434 438
3 412 411 410
3 412 413 411
3 415 413 414
3 414 413 412
3 411 416 409
3 411 417 416
3 409 381 380
3 409 416 381
3 383 379 381
3 416 383 381
3 383 375 379
3 383 382 375
3 386 383 416
3 417 386 416
3 386 382 383
3 386 385 382
3 389 432 387
3 389 433 432
3 385 384 382
3 385 431 384
3 387 431 385
3 387 432 431
3 382 384 374
3 392 378 372
3 392 397 378
3 391 372 373
3 391 392 372
3 393 399 397
3 393 397 392
3 394 401 399
3 394 399 393
3 403 402 401
3 403 404 402
3 404 424 402
3 404 407 424
3 400 405 398
3 400 425 405
3 402 425 400
3 402 424 425
3 382 374 375
3 425 406 405
3 426 406 425
3 408 371 370
3 406 408 370
3 93 395 433
3 94 428 407
3 439 453 440
3 452 455 456
3 452 456 453
3 453 456 457
3 453 457 440
3 440 457 441
3 454 442 443
3 454 443 455
3 455 443 444
3 455 444 456
3 456 444 445
3 456 445 457
3 457 445 446
3 457 446 441
3 439 440 458
3 440 441 460
3 440 460 458
3 458 460 461
3 458 461 459
3 459 461 462
3 441 447 460
3 460 447 448
3 460 448 461
3 461 448 449
3 461 449 462
3 462 449 450
3 462 450 463
3 463 450 451
3 451 450 464
3 450 449 465
3 450 465 464
3 464 465 466
3 449 448 467
3 449 467 465
3 465 467 468
3 465 468 466
3 466 468 469
3 448 447 470
3 448 470 467
3 467 470 471
3 467 471 468
3 468 471 472
3 468 472 469
3 469 472 473
3 447 446 470
3 470 446 445
3 470 445 471
3 471 445 444
3 471 444 472
3 472 444 443
3 472 443 473
3 473 443 442
3 447 441 446
3 458 85 58
3 458 58 439
3 439 58 76
3 439 76 453
3 453 76 75
3 452 453 75
3 452 75 78
3 452 78 455
3 455 78 77
3 455 77 454
3 454 77 61
3 454 61 442
3 442 61 91
3 442 91 473
3 458 459 85
3 459 83 85
3 459 462 86
3 459 86 83
3 462 463 87
3 462 87 86
3 463 451 62
3 463 62 87
3 451 464 88
3 451 88 62
3 91 469 473
3 88 464 466
