ply
format ascii 1.0
element vertex 498
property float x
property float y
property float z
element face 919
property list uchar int vertex_indices
end_header
0.09545470029115677 0.6080679893493652 0.12584400177001953
0.12305399775505066 0.6071850061416626 0.13612200319766998
0.08246029913425446 0.6071169972419739 0.09638150036334991
0.08155079931020737 0.735131025314331 0.12340100109577179
0.10864400118589401 0.74515300989151 0.13510499894618988
0.07084420323371887 0.7903019785881042 0.11499100178480148
0.10703200101852417 0.7889509797096252 0.12286499887704849
0.07133720070123672 0.8055779933929443 0.10197100043296814
0.10712199658155441 0.8098329901695251 0.10943800210952759
0.15189699828624725 0.8218250274658203 0.10287000238895416
0.1281220018863678 0.8348590135574341 0.08342959731817245
0.08985110372304916 0.605334997177124 0.06376100331544876
0.11221399903297424 0.6063969731330872 0.044673800468444824
0.09082960337400436 0.7401769757270813 0.029206600040197372
0.07609319686889648 0.7950369715690613 0.032705601304769516
0.07160849869251251 0.8153120279312134 0.05547409877181053
0.08985359966754913 0.8181560039520264 0.0432111993432045
0.1336050033569336 0.8399329781532288 0.07303380221128464
0.13853399455547333 0.8444259762763977 0.0628243014216423
0.16293799877166748 0.6076819896697998 0.03052400052547455
0.21480600535869598 0.6081249713897705 0.03595849871635437
0.16071100533008575 0.7399430274963379 0.02590700052678585
0.23431499302387238 0.7416930198669434 0.02588759921491146
0.16125300526618958 0.7935940027236938 0.029101399704813957
0.24521900713443756 0.7959669828414917 0.029085800051689148
0.16150300204753876 0.8211860060691833 0.037368398159742355
0.23412300646305084 0.8202040195465088 0.040799301117658615
0.16175200045108795 0.8461989760398865 0.05437120050191879
0.18398700654506683 0.8438349962234497 0.0635853037238121
0.23776699602603912 0.6069980263710022 0.04948339983820915
0.24026399850845337 0.6071419715881348 0.09583750367164612
0.2582609951496124 0.8161560297012329 0.052935998886823654
0.1890069991350174 0.8399590253829956 0.07360649853944778
0.19356800615787506 0.8361600041389465 0.08242110162973404
0.23194299638271332 0.6078789830207825 0.12901799380779266
0.20384199917316437 0.6043959856033325 0.137130007147789
0.23579299449920654 0.7417709827423096 0.12533999979496002
0.24770300090312958 0.7898719906806946 0.11815200001001358
0.2494010031223297 0.810001015663147 0.09456019848585129
0.1910250037908554 0.83051598072052 0.09181070327758789
0.1606059968471527 0.6045979857444763 0.13968199491500854
0.16162900626659393 0.7462440133094788 0.13227400183677673
0.1583459973335266 0.7799109816551208 0.1224289983510971
0.15510700643062592 0.8054159879684448 0.11342500150203705
0.29009100794792175 0.6868979930877686 0.05053450167179108
0.24899299442768097 0.669842004776001 0.05343500152230263
0.25648900866508484 0.672228991985321 0.10351400077342987
0.28970301151275635 0.6828659772872925 0.10871899873018265
0.2967210114002228 0.6889709830284119 0.08509030193090439
0.26086801290512085 0.7971810102462769 0.04517880082130432
0.24289999902248383 0.731194019317627 0.039506301283836365
0.24652600288391113 0.7340070009231567 0.10199899971485138
0.2625580132007599 0.7848060131072998 0.10185199975967407
0.26657599210739136 0.8090810179710388 0.07737170159816742
0.059206001460552216 0.8022140264511108 0.0439319983124733
0.07959149777889252 0.7364050149917603 0.039062101393938065
0.07133679836988449 0.7268959879875183 0.10302399843931198
0.05756689980626106 0.7808229923248291 0.10465700179338455
0.05291920155286789 0.803629994392395 0.08320560306310654
0.032233599573373795 0.6918140053749084 0.03822850063443184
0.06150979921221733 0.6830649971961975 0.03565340116620064
0.07368139922618866 0.6712610125541687 0.0846496969461441
0.039477501064538956 0.6771010160446167 0.09830659627914429
0.02500000037252903 0.6854029893875122 0.07727979868650436
0.2088650017976761 0.7476289868354797 0.13833199441432953
0.21143299341201782 0.7863079905509949 0.12384100258350372
0.16478200256824493 0.7807959914207458 0.12220200151205063
0.16849400103092194 0.8058040142059326 0.11331500113010406
0.17192700505256653 0.8218889832496643 0.10296999663114548
0.21268199384212494 0.8098260164260864 0.10937099903821945
0.11931200325489044 0.5903890132904053 0.05241350084543228
0.0800388976931572 0.5903890132904053 0.09009060263633728
0.23257599771022797 0.5891180038452148 0.06605389714241028
0.20085899531841278 0.5903890132904053 0.05192919820547104
0.16088199615478516 0.5894330143928528 0.03781009837985039
0.09512300044298172 0.5894950032234192 0.11802200227975845
0.12553200125694275 0.5894950032234192 0.13255199790000916
0.09105639904737473 0.5908600091934204 0.06735660135746002
0.24362300336360931 0.5903270244598389 0.09176450222730637
0.23392300307750702 0.5887960195541382 0.11837299913167953
0.2028300017118454 0.5887849926948547 0.13331499695777893
0.16236600279808044 0.5888649821281433 0.1371999979019165
0.1279670000076294 0.8347569704055786 0.08367049694061279
0.13505800068378448 0.8546370267868042 0.0844871997833252
0.13816499710083008 0.8601009845733643 0.06734029948711395
0.16158799827098846 0.8630430102348328 0.058929599821567535
0.18545299768447876 0.8599650263786316 0.0671956017613411
0.19364599883556366 0.8360000252723694 0.08281479775905609
0.19095200300216675 0.8547000288963318 0.08478890359401703
0.13858400285243988 0.84443199634552 0.06239660084247589
0.16169700026512146 0.8463410139083862 0.05423559993505478
0.18373699486255646 0.8428570032119751 0.06366460025310516
0.15008999407291412 0.8418499827384949 0.1106870025396347
0.14232200384140015 0.846642017364502 0.10613799840211868
0.13420799374580383 0.815792977809906 0.10940700024366379
0.15175899863243103 0.8218250274658203 0.10287000238895416
0.17192700505256653 0.8218889832496643 0.10296999663114548
0.1814900040626526 0.8444889783859253 0.10662499815225601
0.1736000031232834 0.8422219753265381 0.11075499653816223
0.18835100531578064 0.8159819841384888 0.11072699725627899
0.1632010042667389 0.9031170010566711 0.15447300672531128
0.15449899435043335 0.8988069891929626 0.14310599863529205
0.1439030021429062 0.8800250291824341 0.14262999594211578
0.13482999801635742 0.882544994354248 0.12596699595451355
0.13204100728034973 0.8854560256004333 0.11125600337982178
0.13078400492668152 0.8899229764938354 0.09216459840536118
0.1722790002822876 0.8984169960021973 0.14467599987983704
0.18219900131225586 0.8796749711036682 0.1423480063676834
0.19015300273895264 0.8822309970855713 0.12419299781322479
0.19375300407409668 0.8851180076599121 0.11090400069952011
0.19440999627113342 0.8869569897651672 0.09221579879522324
0.1632470041513443 0.9121959805488586 0.14866399765014648
0.16328799724578857 0.9260420203208923 0.14098499715328217
0.16332000494003296 0.9422820210456848 0.14034700393676758
0.1634870022535324 0.9463790059089661 0.13696500658988953
0.13629400730133057 0.8778749704360962 0.07878649979829788
0.18991799652576447 0.8799409866333008 0.07882820069789886
0.19866499304771423 0.8995370268821716 0.07467660307884216
0.12800100445747375 0.8999840021133423 0.07544639706611633
0.16315099596977234 0.8798980116844177 0.1442449986934662
0.15262599289417267 0.8665000200271606 0.14065100252628326
0.1739179939031601 0.8663859963417053 0.14089100062847137
0.14781500399112701 0.8650360107421875 0.12312699854373932
0.1641409993171692 0.8566030263900757 0.12114399671554565
0.179966002702713 0.8647590279579163 0.12334900349378586
0.14576999843120575 0.864296019077301 0.09967219829559326
0.17973099648952484 0.8621960282325745 0.09949319809675217
0.16903899610042572 0.9099540114402771 0.14449499547481537
0.1920749992132187 0.9123219847679138 0.1399250030517578
0.17921499907970428 0.9277660250663757 0.1374029964208603
0.19903899729251862 0.9090369939804077 0.12567399442195892
0.19679899513721466 0.9395589828491211 0.12963199615478516
0.18354299664497375 0.9433000087738037 0.1369359940290451
0.2009260058403015 0.9136450290679932 0.09894149750471115
0.20213299989700317 0.9291269779205322 0.10752099752426147
0.15779300034046173 0.910269021987915 0.14429700374603271
0.1473349928855896 0.9278690218925476 0.13795100152492523
0.13503099977970123 0.9122290015220642 0.14018799364566803
0.14414100348949432 0.9432500004768372 0.13707199692726135
0.13032400608062744 0.9398339986801147 0.12992599606513977
0.12606500089168549 0.9078770279884338 0.12579099833965302
0.14222000539302826 0.950655996799469 0.1357090026140213
0.12445800006389618 0.9297729730606079 0.10799100250005722
0.12526799738407135 0.9144539833068848 0.09966199845075607
0.13715800642967224 0.8803240060806274 0.06487099826335907
0.15235799551010132 0.8763020038604736 0.06045300140976906
0.17390699684619904 0.8770409822463989 0.061416201293468475
0.18692700564861298 0.879863977432251 0.0630021020770073
0.16375400125980377 0.8541849851608276 0.10888800024986267
0.1380780041217804 0.8442230224609375 0.07866740226745605
0.18765999376773834 0.8449429869651794 0.07912260293960571
0.14667700231075287 0.8379830121994019 0.0979790985584259
0.18141299486160278 0.8379359841346741 0.09867820143699646
0.1429159939289093 0.8486629724502563 0.06814529746770859
0.15217499434947968 0.8511719703674316 0.0641126036643982
0.17328399419784546 0.8506669998168945 0.06378679722547531
0.182451993227005 0.8495290279388428 0.06959939748048782
0.16333399713039398 0.8357470035552979 0.1029369980096817
0.26553699374198914 0.6966990232467651 0.052589401602745056
0.24983499944210052 0.6928589940071106 0.07065080106258392
0.26607200503349304 0.6927019953727722 0.10202500224113464
0.28451499342918396 0.6955040097236633 0.09627660363912582
0.2886269986629486 0.6995620131492615 0.07820809632539749
0.26096799969673157 0.550150990486145 0.2519240081310272
0.2645449936389923 0.547918975353241 0.2548770010471344
0.2636359930038452 0.552253007888794 0.25749000906944275
0.2600120007991791 0.5536760091781616 0.25393199920654297
0.2683190107345581 0.5561209917068481 0.23995999991893768
0.275177001953125 0.555312991142273 0.24060800671577454
0.2745859920978546 0.5626000165939331 0.24458900094032288
0.26782798767089844 0.5619459748268127 0.24321499466896057
0.2725450098514557 0.5637819766998291 0.21904900670051575
0.27849799394607544 0.5635679960250854 0.2198999971151352
0.25558099150657654 0.5575500130653381 0.25915399193763733
0.2590149939060211 0.5553500056266785 0.2625710070133209
0.257999986410141 0.5599420070648193 0.2651999890804291
0.25453901290893555 0.5618929862976074 0.2614920139312744
0.2671220004558563 0.5643699765205383 0.24620899558067322
0.2742939889431 0.5654429793357849 0.248540997505188
0.2721390128135681 0.5723900198936462 0.25155699253082275
0.26503700017929077 0.5710960030555725 0.2491219937801361
0.26962798833847046 0.5709409713745117 0.22512200474739075
0.27616798877716064 0.572737991809845 0.22752100229263306
0.2661080062389374 0.5489090085029602 0.23554100096225739
0.26883798837661743 0.5463849902153015 0.23737399280071259
0.2689479887485504 0.5496330261230469 0.24001799523830414
0.26600000262260437 0.5516170263290405 0.2376450002193451
0.2705320119857788 0.5533360242843628 0.22502900660037994
0.27583301067352295 0.5513389706611633 0.22499899566173553
0.2770940065383911 0.5569350123405457 0.22842100262641907
0.2715190052986145 0.5578470230102539 0.2278980016708374
0.27347201108932495 0.559112012386322 0.2126549929380417
0.2792240083217621 0.5587530136108398 0.21273699402809143
0.2547299861907959 0.570501983165741 0.2631320059299469
0.2573060095310211 0.5692840218544006 0.26745301485061646
0.25538501143455505 0.5739549994468689 0.26892900466918945
0.2528490126132965 0.5748720169067383 0.2643960118293762
0.2646229863166809 0.5741119980812073 0.2513670027256012
0.2708899974822998 0.5751360058784485 0.2541370093822479
0.26833999156951904 0.5832139849662781 0.2564559876918793
0.262131005525589 0.5819680094718933 0.2536480128765106
0.26606398820877075 0.5791969895362854 0.22904999554157257
0.2721579968929291 0.58228600025177 0.23150800168514252
0.2581999897956848 0.5926539897918701 0.2511630058288574
0.2560020089149475 0.5912230014801025 0.248772993683815
0.2589159905910492 0.588545024394989 0.2471340000629425
0.26227501034736633 0.5886669754981995 0.24840399622917175
0.2624469995498657 0.6022440195083618 0.23521099984645844
0.25672098994255066 0.5989450216293335 0.23388299345970154
0.26085299253463745 0.591280996799469 0.2317119985818863
0.2669230103492737 0.594294011592865 0.2320999950170517
0.26164400577545166 0.6041250228881836 0.2209479957818985
0.2557309865951538 0.5995399951934814 0.22260700166225433
0.2633099853992462 0.5919640064239502 0.2273939996957779
0.2684609889984131 0.5945339798927307 0.2289399951696396
0.2660120129585266 0.5859119892120361 0.19280299544334412
0.2655859887599945 0.5742430090904236 0.18589100241661072
0.25835201144218445 0.5938979983329773 0.19727599620819092
0.26432299613952637 0.6033040285110474 0.1973389983177185
0.2779709994792938 0.5896810293197632 0.19468100368976593
0.27699100971221924 0.5767989754676819 0.18672500550746918
0.26126399636268616 0.6178039908409119 0.062293101102113724
0.2574920058250427 0.632876992225647 0.09849070012569427
0.26878198981285095 0.6407570242881775 0.1040240004658699
0.28749099373817444 0.6359149813652039 0.09450290352106094
0.2927759885787964 0.6279789805412292 0.07184650003910065
0.2601040005683899 0.649196982383728 0.055694401264190674
0.25648799538612366 0.6452429890632629 0.09173409640789032
0.26850101351737976 0.6456699967384338 0.10389100015163422
0.2882719933986664 0.6461880207061768 0.0935283973813057
0.2935450077056885 0.646373987197876 0.06766200065612793
0.04531870037317276 0.7005040049552917 0.042514100670814514
0.06855560094118118 0.6963220238685608 0.04931240156292915
0.07119870185852051 0.6920419931411743 0.078056700527668
0.05173040181398392 0.6951429843902588 0.09234970062971115
0.034991201013326645 0.7014909982681274 0.07467710226774216
0.05604580044746399 0.45484399795532227 0.11434700340032578
0.05906030163168907 0.45913198590278625 0.1137389987707138
0.059444401413202286 0.4589329957962036 0.11821600049734116
0.0564022995531559 0.4545910060405731 0.11929000169038773
0.045134399086236954 0.47010600566864014 0.11144199967384338
0.05152830109000206 0.47325599193573 0.11169599741697311
0.05169469863176346 0.47393500804901123 0.11834699660539627
0.04547920078039169 0.47109100222587585 0.11980199813842773
0.0593344010412693 0.45290398597717285 0.12493100017309189
0.06299719959497452 0.4590669870376587 0.12301100045442581
0.06352820247411728 0.45802000164985657 0.12908600270748138
0.060621000826358795 0.4528929889202118 0.1305679976940155
0.04515190050005913 0.4689820110797882 0.12298700213432312
0.05188310146331787 0.47261500358581543 0.12058500200510025
0.05410730093717575 0.47376298904418945 0.12818500399589539
0.047452401369810104 0.4701420068740845 0.13081200420856476
0.042107000946998596 0.49107998609542847 0.11765799671411514
0.04896960034966469 0.492154985666275 0.11490999907255173
0.05179319903254509 0.4691399931907654 0.10323800146579742
0.05411180108785629 0.4725610017776489 0.1034879982471466
0.053482599556446075 0.4721809923648834 0.10707999765872955
0.051035698503255844 0.4686889946460724 0.10710199922323227
0.04491940140724182 0.4815329909324646 0.09957650303840637
0.04962589964270592 0.48426300287246704 0.10109800100326538
0.04851889982819557 0.48456600308418274 0.10639800131320953
0.04347360134124756 0.4819889962673187 0.10601100325584412
0.0416375994682312 0.4965989887714386 0.09800039976835251
0.04726279899477959 0.4967609941959381 0.09887609630823135
0.04734690114855766 0.4936949908733368 0.10656300187110901
0.04147310182452202 0.49296998977661133 0.10681799799203873
0.06102440133690834 0.458528995513916 0.1359120011329651
0.0628305971622467 0.4632520079612732 0.13325299322605133
0.06485199928283691 0.4645119905471802 0.138824000954628
0.06295350193977356 0.45963698625564575 0.14138400554656982
0.04829439893364906 0.47273099422454834 0.13413700461387634
0.05379490181803703 0.4766499996185303 0.13128599524497986
0.05614349991083145 0.4790709912776947 0.13871699571609497
0.050689101219177246 0.4752520024776459 0.14177699387073517
0.04599669948220253 0.4937959909439087 0.12871700525283813
0.0527166984975338 0.49442699551582336 0.12586499750614166
0.06397759914398193 0.489439994096756 0.1490979939699173
0.06148819997906685 0.48859700560569763 0.15173499286174774
0.0573900006711483 0.4883739948272705 0.14633400738239288
0.06093540042638779 0.489001989364624 0.1454479992389679
0.06411919742822647 0.5022479891777039 0.14459200203418732
0.05736880004405975 0.5042600035667419 0.14816200733184814
0.05294160172343254 0.5003889799118042 0.14020299911499023
0.05965130031108856 0.501013994216919 0.13779999315738678
0.06356540322303772 0.511551022529602 0.13697800040245056
0.05767570063471794 0.5162190198898315 0.13965900242328644
0.05186520144343376 0.5024179816246033 0.13458800315856934
0.05753770098090172 0.504393994808197 0.1345749944448471
0.05403339862823486 0.5291730165481567 0.10810299962759018
0.03976999968290329 0.6409569978713989 0.038535501807928085
0.06505720317363739 0.6392239928245544 0.04929229989647865
0.06628379970788956 0.6455389857292175 0.07736019790172577
0.04773499816656113 0.6485210061073303 0.08704979717731476
0.03123359940946102 0.647379994392395 0.06971149891614914
0.03860149905085564 0.6271439790725708 0.04117780178785324
0.06394559890031815 0.6278849840164185 0.05481110140681267
0.06500200182199478 0.6320520043373108 0.08010520040988922
0.04761369898915291 0.6325110197067261 0.08634679764509201
0.031461201608181 0.6379150152206421 0.0722758024930954
0.04504309967160225 0.5263760089874268 0.09635990113019943
0.048198800534009933 0.5291569828987122 0.10042399913072586
0.06145330145955086 0.5348290205001831 0.1175680011510849
0.05447399988770485 0.5366380214691162 0.12279699742794037
0.043154701590538025 0.5306270122528076 0.10958299785852432
0.13228100538253784 0.06622959673404694 0.0936565026640892
0.12786899507045746 0.06971140205860138 0.05683569982647896
0.10818299651145935 0.06970900297164917 0.055894698947668076
0.10042700171470642 0.06622619926929474 0.09213399887084961
0.11543499678373337 0.068197101354599 0.11299899965524673
0.1380780041217804 0.10668899863958359 0.09209900349378586
0.13011400401592255 0.10574900358915329 0.06356249749660492
0.10443399846553802 0.10575000196695328 0.06359650194644928
0.09652549773454666 0.10669100284576416 0.09215410053730011
0.1173190027475357 0.10727100074291229 0.10976999998092651
0.14884699881076813 0.25249001383781433 0.08984140306711197
0.13675500452518463 0.25156500935554504 0.05106630176305771
0.09776370227336884 0.25156599283218384 0.051112499088048935
0.08575659990310669 0.2524909973144531 0.0899164006114006
0.11732800304889679 0.25306299328804016 0.11489800363779068
0.1430640071630478 0.2974810004234314 0.09295280277729034
0.13318899273872375 0.2965579926967621 0.05421070009469986
0.10134600102901459 0.2965579926967621 0.054256800562143326
0.09154029935598373 0.2974820137023926 0.09302780032157898
0.11732300370931625 0.29805299639701843 0.12099699676036835
0.14507099986076355 0.31581899523735046 0.09642449766397476
0.1344269961118698 0.3150399923324585 0.05701730027794838
0.100101999938488 0.3150399923324585 0.057064298540353775
0.08953259885311127 0.31582099199295044 0.0965007022023201
0.11732500046491623 0.31630200147628784 0.12082599848508835
0.14880099892616272 0.3956499993801117 0.09430520236492157
0.13371799886226654 0.3947629928588867 0.047012899070978165
0.0954999029636383 0.39477699995040894 0.047005001455545425
0.08388009667396545 0.3962189853191376 0.09439519792795181
0.11523299664258957 0.3961940109729767 0.12307299673557281
0.2213039994239807 0.06622959673404694 0.09211450070142746
0.21366000175476074 0.06971140205860138 0.05586659908294678
0.19397200644016266 0.06970900297164917 0.056796301156282425
0.1894489973783493 0.06622599810361862 0.09361880272626877
0.20623700320720673 0.06819719821214676 0.11297400295734406
0.22529199719429016 0.10668899863958359 0.09209900349378586
0.2173279970884323 0.10574900358915329 0.06356249749660492
0.19164800643920898 0.10575000196695328 0.06359650194644928
0.18373900651931763 0.10669100284576416 0.09215410053730011
0.20453299582004547 0.10727100074291229 0.10976999998092651
0.2360610067844391 0.25249001383781433 0.08984140306711197
0.2239689975976944 0.25156500935554504 0.05106630176305771
0.18497799336910248 0.25156599283218384 0.051112499088048935
0.1729709953069687 0.2524909973144531 0.0899164006114006
0.20454199612140656 0.25306299328804016 0.11489800363779068
0.23027800023555756 0.2974810004234314 0.09295280277729034
0.22040200233459473 0.2965579926967621 0.05421070009469986
0.18855999410152435 0.2965579926967621 0.054256800562143326
0.17875400185585022 0.2974820137023926 0.09302780032157898
0.20453700423240662 0.2970750033855438 0.12099699676036835
0.23228499293327332 0.31581899523735046 0.09642449766397476
0.22164100408554077 0.3150399923324585 0.05701730027794838
0.18731600046157837 0.3150399923324585 0.057064298540353775
0.17674599587917328 0.31582099199295044 0.0965007022023201
0.2045390009880066 0.31630200147628784 0.12082599848508835
0.2390729933977127 0.3956499993801117 0.09430520236492157
0.2251249998807907 0.3947629928588867 0.047012899070978165
0.18690699338912964 0.39477699995040894 0.047005001455545425
0.1730159968137741 0.39565199613571167 0.09439519792795181
0.20664000511169434 0.3961940109729767 0.12307299673557281
0.16348299384117126 0.9489740133285522 0.14090000092983246
0.16334499418735504 0.9610829949378967 0.13369999825954437
0.16264000535011292 0.9745759963989258 0.1092199981212616
0.1989479959011078 0.9006699919700623 0.07251019775867462
0.2010059952735901 0.9167490005493164 0.06382589787244797
0.19911900162696838 0.9492210149765015 0.06735079735517502
0.18799400329589844 0.9705989956855774 0.07313930243253708
0.17575399577617645 0.9746999740600586 0.0814817026257515
0.15001000463962555 0.9750000238418579 0.08220940083265305
0.1375650018453598 0.9687730073928833 0.07346639782190323
0.12763699889183044 0.9492189884185791 0.06717679649591446
0.12592899799346924 0.916824996471405 0.06416939944028854
0.12687799334526062 0.8996340036392212 0.07001479715108871
0.19846899807453156 0.9419479966163635 0.12813700735569
0.1843930035829544 0.9450899958610535 0.1371079981327057
0.2019290030002594 0.9149079918861389 0.09714560210704803
0.20367400348186493 0.9301419854164124 0.10591799765825272
0.19783300161361694 0.9616490006446838 0.1042419970035553
0.185698002576828 0.9712939858436584 0.10671199858188629
0.14132000505924225 0.9547470211982727 0.1373409926891327
0.12769000232219696 0.9415259957313538 0.12940500676631927
0.14170800149440765 0.9701989889144897 0.10582300275564194
0.1287660002708435 0.9612510204315186 0.10426799952983856
0.12292700260877609 0.9326609969139099 0.10683000087738037
0.12381699681282043 0.9159590005874634 0.0961586982011795
0.13812600076198578 0.881102979183197 0.06145529821515083
0.13589200377464294 0.9203220009803772 0.05168579891324043
0.1532129943370819 0.8776919841766357 0.05885230004787445
0.1505810022354126 0.9500730037689209 0.051116399466991425
0.16296499967575073 0.9192299842834473 0.04635610058903694
0.17334499955177307 0.8779410123825073 0.057346101850271225
0.16138599812984467 0.9682649970054626 0.0617091991007328
0.17270900309085846 0.9503920078277588 0.048945099115371704
0.1898989975452423 0.9202399849891663 0.05133650079369545
0.18686099350452423 0.8802319765090942 0.05879570171236992
0.16081200540065765 0.4804460108280182 0.13727499544620514
0.11827699840068817 0.4714440107345581 0.13620999455451965
0.08919359743595123 0.46947601437568665 0.11738699674606323
0.07585059851408005 0.47128498554229736 0.08756750077009201
0.08576049655675888 0.46779298782348633 0.052640400826931
0.11781100183725357 0.4626440107822418 0.028194399550557137
0.16215500235557556 0.4673199951648712 0.0250473003834486
0.16177600622177124 0.4271419942378998 0.08686929941177368
0.17165100574493408 0.37347498536109924 0.12998999655246735
0.16507300734519958 0.37548699975013733 0.0865141972899437
0.1699959933757782 0.3737980127334595 0.04421420022845268
0.20314300060272217 0.3736949861049652 0.040210600942373276
0.23160600662231445 0.3739449977874756 0.05536729842424393
0.2432830035686493 0.3731130063533783 0.09791740030050278
0.2311979979276657 0.37250399589538574 0.12431400269269943
0.2031400054693222 0.37264999747276306 0.13200600445270538
0.152210995554924 0.37416601181030273 0.11166799813508987
0.11661499738693237 0.3733220100402832 0.13133099675178528
0.09137489646673203 0.3739199936389923 0.11409600079059601
0.07796479761600494 0.3732140064239502 0.08627329766750336
0.08567970246076584 0.3737350106239319 0.05194620043039322
0.1179020032286644 0.3732460141181946 0.043203599750995636
0.15295399725437164 0.37352800369262695 0.039516400545835495
0.15748199820518494 0.3755190074443817 0.07874640077352524
0.20514899492263794 0.4686659872531891 0.13211199641227722
0.23543000221252441 0.4689300060272217 0.11557800322771072
0.24743099510669708 0.4692539870738983 0.087089903652668
0.2415049970149994 0.46856001019477844 0.054733600467443466
0.20932699739933014 0.4632520079612732 0.03211500123143196
0.11692599952220917 0.5181440114974976 0.03418960049748421
0.08737640082836151 0.5245299935340881 0.05466289818286896
0.07625409960746765 0.5272060036659241 0.08669459819793701
0.0921768993139267 0.5218009948730469 0.11757700145244598
0.11998400092124939 0.5188829898834229 0.13674800097942352
0.16147500276565552 0.5192989706993103 0.14025099575519562
0.20556600391864777 0.5185800194740295 0.13538800179958344
0.23791900277137756 0.5230519771575928 0.11489400267601013
0.2482379972934723 0.5261059999465942 0.08884110301733017
0.2392919957637787 0.5230110287666321 0.05572989955544472
0.20893199741840363 0.5163679718971252 0.03390229865908623
0.16171899437904358 0.504082977771759 0.02500000037252903
0.11732199788093567 0.5739489793777466 0.05263499915599823
0.08916039764881134 0.5739489793777466 0.0677558034658432
0.07892680168151855 0.5733439922332764 0.09063570201396942
0.09329540282487869 0.5739489793777466 0.11661099642515182
0.12353900074958801 0.5739489793777466 0.1314460039138794
0.16152499616146088 0.5739489793777466 0.13718299567699432
0.20263299345970154 0.5729650259017944 0.1300330013036728
0.2356639951467514 0.5739489793777466 0.11342299729585648
0.24646100401878357 0.5739489793777466 0.09122329950332642
0.23604899644851685 0.5739489793777466 0.06681960076093674
0.20597100257873535 0.5739489793777466 0.0516928993165493
0.16145899891853333 0.5739489793777466 0.0374303013086319
0.10299400240182877 0.04866249859333038 0.04527229815721512
0.1278260052204132 0.048590000718832016 0.046478599309921265
0.1390800029039383 0.047036901116371155 0.13483400642871857
0.11578500270843506 0.052526701241731644 0.1394049972295761
0.09158100187778473 0.048340100795030594 0.1422320008277893
0.08714800328016281 0.04147849977016449 0.11157499998807907
0.09369879961013794 0.040666401386260986 0.04796610027551651
0.11259900033473969 0.04141110181808472 0.040267299860715866
0.13238300383090973 0.04102189838886261 0.048636000603437424
0.14125600457191467 0.03994369879364967 0.1122409999370575
0.14515000581741333 0.03731299936771393 0.1749500036239624
0.1278350055217743 0.03752540051937103 0.20532700419425964
0.10239599645137787 0.03773989900946617 0.2067759931087494
0.08504100143909454 0.03739909827709198 0.17646799981594086
0.08586329966783524 0.029089899733662605 0.0740818977355957
0.09040050208568573 0.027033500373363495 0.047935601323843
0.11226999759674072 0.026541100814938545 0.04020389914512634
0.13404999673366547 0.02611060068011284 0.04855410009622574
0.140392005443573 0.02791620045900345 0.0741972029209137
0.14691899716854095 0.02500000037252903 0.16707800328731537
0.13058899343013763 0.02785390056669712 0.20650799572467804
0.09942690283060074 0.028396399691700935 0.20967599749565125
0.08314819633960724 0.02664569951593876 0.17045199871063232
0.18786700069904327 0.048662200570106506 0.04671049863100052
0.21270200610160828 0.04858990013599396 0.04555699974298477
0.23171000182628632 0.047036901116371155 0.13247500360012054
0.20891700685024261 0.052526701241731644 0.1392350047826767
0.18506400287151337 0.048340100795030594 0.1443450003862381
0.17794199287891388 0.04147849977016449 0.11423700302839279
0.178848996758461 0.040666401386260986 0.05027420073747635
0.1969899982213974 0.04141110181808472 0.04081549867987633
0.2174299955368042 0.04102189838886261 0.04727320000529289
0.2318820059299469 0.03994369879364967 0.10976999998092651
0.24129700660705566 0.03731299936771393 0.17184700071811676
0.22673699259757996 0.03752540051937103 0.2037380039691925
0.2015330046415329 0.03773989900946617 0.20759400725364685
0.1815740019083023 0.03739909827709198 0.1790580004453659
0.17335300147533417 0.029089899733662605 0.07702340185642242
0.17556199431419373 0.027033500373363495 0.05055660009384155
0.1966570019721985 0.026541100814938545 0.04078369960188866
0.2190829962491989 0.02611060068011284 0.04703349992632866
0.22766299545764923 0.027916399762034416 0.07196780294179916
0.24236300587654114 0.02500009909272194 0.16383999586105347
0.2295829951763153 0.02785390056669712 0.20465399324893951
0.19883200526237488 0.028396600857377052 0.21076300740242004
0.17915800213813782 0.02664569951593876 0.17324699461460114
3 0 75 76
3 76 1 0
3 2 71 75
3 75 0 2
3 3 0 1
3 1 4 3
3 56 2 0
3 0 3 56
3 5 3 4
3 4 6 5
3 57 56 3
3 3 5 57
3 7 5 6
3 6 8 7
3 58 57 5
3 5 7 58
3 9 7 8
3 10 58 7
3 7 9 10
3 11 77 71
3 71 2 11
3 12 70 77
3 77 11 12
3 55 11 2
3 2 56 55
3 13 12 11
3 11 55 13
3 14 13 55
3 55 54 14
3 16 14 54
3 54 15 16
3 17 15 58
3 58 10 17
3 18 16 15
3 15 17 18
3 19 74 70
3 70 12 19
3 20 73 74
3 74 19 20
3 21 19 12
3 12 13 21
3 22 20 19
3 19 21 22
3 23 21 13
3 13 14 23
3 24 22 21
3 21 23 24
3 25 23 14
3 14 16 25
3 26 24 23
3 23 25 26
3 27 25 16
3 16 18 27
3 28 26 25
3 25 27 28
3 29 72 73
3 73 20 29
3 30 78 72
3 72 29 30
3 50 29 20
3 20 22 50
3 51 30 29
3 29 50 51
3 49 50 22
3 22 24 49
3 31 49 24
3 24 26 31
3 32 31 26
3 26 28 32
3 33 53 31
3 31 32 33
3 34 79 78
3 78 30 34
3 35 80 79
3 79 34 35
3 36 34 30
3 30 51 36
3 64 35 34
3 34 36 64
3 37 36 51
3 51 52 37
3 65 64 36
3 36 37 65
3 38 37 52
3 52 53 38
3 69 65 37
3 37 38 69
3 39 38 53
3 53 33 39
3 68 69 38
3 38 39 68
3 64 41 35
3 41 40 35
3 35 40 80
3 40 81 80
3 43 8 6
3 43 6 42
3 42 6 4
3 42 4 41
3 41 4 1
3 41 1 40
3 40 1 76
3 40 76 81
3 9 8 43
3 58 15 54
3 53 49 31
3 44 45 50
3 44 50 49
3 45 46 51
3 45 51 50
3 46 47 52
3 46 52 51
3 47 48 53
3 47 53 52
3 48 44 49
3 48 49 53
3 51 52 53
3 51 53 49
3 50 51 49
3 58 57 56
3 54 58 56
3 54 56 55
3 54 55 60
3 54 60 59
3 55 56 61
3 55 61 60
3 56 57 62
3 56 62 61
3 57 58 63
3 57 63 62
3 58 54 59
3 58 59 63
3 69 67 65
3 67 66 65
3 65 66 64
3 66 41 64
3 68 67 69
3 84 89 82
3 82 83 84
3 85 90 89
3 89 84 85
3 86 91 90
3 90 85 86
3 88 87 91
3 91 86 88
3 97 99 87
3 87 88 97
3 83 82 94
3 94 93 83
3 92 93 94
3 99 97 98
3 92 94 95
3 98 96 99
3 100 101 106
3 101 102 119
3 101 119 106
3 106 119 107
3 102 103 120
3 102 120 119
3 119 120 121
3 119 121 107
3 107 121 108
3 103 104 122
3 103 122 120
3 120 122 123
3 120 123 121
3 121 123 124
3 121 124 108
3 108 124 109
3 104 105 125
3 104 125 122
3 124 126 109
3 109 126 110
3 105 115 125
3 126 116 110
3 100 106 111
3 106 107 127
3 106 127 111
3 111 127 112
3 107 108 128
3 107 128 127
3 127 128 129
3 127 129 112
3 112 129 113
3 108 109 130
3 108 130 128
3 128 130 131
3 128 131 129
3 129 131 132
3 129 132 113
3 113 132 114
3 109 110 133
3 109 133 130
3 130 133 134
3 130 134 131
3 110 117 133
3 100 111 101
3 111 112 135
3 111 135 101
3 101 135 102
3 112 113 136
3 112 136 135
3 135 136 137
3 135 137 102
3 102 137 103
3 113 114 138
3 113 138 136
3 136 138 139
3 136 139 137
3 137 139 140
3 137 140 103
3 103 140 104
3 114 141 138
3 138 141 139
3 139 142 140
3 140 142 143
3 140 143 104
3 104 143 105
3 143 118 105
3 118 144 115
3 147 117 116
3 117 110 116
3 118 115 105
3 126 124 123
3 125 123 122
3 126 123 148
3 125 148 123
3 148 151 157
3 148 157 152
3 126 148 152
3 126 152 150
3 116 126 150
3 116 150 156
3 147 116 156
3 147 156 155
3 146 147 155
3 148 125 151
3 125 149 151
3 125 115 149
3 115 153 149
3 115 144 153
3 144 154 153
3 144 145 154
3 145 146 155
3 145 155 154
3 66 42 41
3 43 42 66
3 67 43 66
3 9 43 67
3 68 9 67
3 157 151 9
3 157 9 68
3 152 157 68
3 152 68 39
3 150 33 32
3 152 39 33
3 150 152 33
3 156 150 32
3 156 32 28
3 154 155 27
3 155 156 28
3 155 28 27
3 154 27 18
3 153 154 18
3 149 153 18
3 149 18 17
3 149 17 10
3 151 149 10
3 151 10 9
3 163 167 164
3 167 168 164
3 164 168 165
3 168 169 165
3 165 169 166
3 169 170 166
3 166 170 163
3 170 167 163
3 167 171 168
3 171 172 168
3 168 172 169
3 172 182 169
3 169 182 170
3 182 181 170
3 170 181 167
3 181 171 167
3 166 163 164
3 164 165 166
3 173 177 174
3 177 178 174
3 174 178 175
3 178 179 175
3 175 179 176
3 179 180 176
3 176 180 173
3 180 177 173
3 177 181 178
3 181 182 178
3 178 182 179
3 182 202 179
3 179 202 180
3 202 201 180
3 180 201 177
3 201 181 177
3 176 173 174
3 174 175 176
3 183 187 184
3 187 188 184
3 184 188 185
3 188 189 185
3 185 189 186
3 189 190 186
3 186 190 183
3 190 187 183
3 187 191 188
3 191 192 188
3 188 192 189
3 192 172 189
3 189 172 190
3 172 171 190
3 190 171 187
3 171 191 187
3 186 183 184
3 184 185 186
3 193 197 194
3 197 198 194
3 194 198 195
3 198 199 195
3 195 199 196
3 199 200 196
3 196 200 193
3 200 197 193
3 197 201 198
3 201 202 198
3 198 202 199
3 202 214 199
3 199 214 200
3 214 213 200
3 200 213 197
3 213 201 197
3 196 193 194
3 194 195 196
3 203 207 204
3 207 208 204
3 204 208 205
3 208 209 205
3 205 209 206
3 209 210 206
3 206 210 203
3 210 207 203
3 207 211 208
3 211 212 208
3 208 212 209
3 212 213 209
3 209 213 210
3 213 214 210
3 210 214 207
3 214 211 207
3 206 203 204
3 204 205 206
3 219 211 214
3 219 214 202
3 219 202 182
3 219 182 172
3 219 172 192
3 201 213 215
3 181 201 215
3 171 181 215
3 191 171 215
3 218 211 219
3 219 192 220
3 215 216 191
3 217 215 212
3 192 191 216
3 220 192 216
3 218 217 212
3 211 218 212
3 213 212 215
3 217 218 223
3 217 223 222
3 218 219 224
3 218 224 223
3 219 220 225
3 219 225 224
3 220 216 221
3 220 221 225
3 221 222 227
3 221 227 226
3 222 223 228
3 222 228 227
3 223 224 229
3 223 229 228
3 224 225 230
3 224 230 229
3 225 221 226
3 225 226 230
3 222 221 215
3 221 216 215
3 222 215 217
3 160 228 229
3 161 160 229
3 162 161 229
3 162 229 230
3 158 162 230
3 158 230 226
3 159 158 226
3 159 226 227
3 160 159 227
3 160 227 228
3 236 240 237
3 240 241 237
3 237 241 238
3 241 242 238
3 238 242 239
3 242 243 239
3 239 243 236
3 243 240 236
3 240 265 241
3 265 264 241
3 241 264 242
3 264 253 242
3 242 253 243
3 253 252 243
3 243 252 240
3 252 265 240
3 239 236 237
3 237 238 239
3 244 248 245
3 248 249 245
3 245 249 246
3 249 250 246
3 246 250 247
3 250 251 247
3 247 251 244
3 251 248 244
3 248 252 249
3 252 253 249
3 249 253 250
3 253 275 250
3 250 275 251
3 275 274 251
3 251 274 248
3 274 252 248
3 247 244 245
3 245 246 247
3 254 258 255
3 258 259 255
3 255 259 256
3 259 260 256
3 256 260 257
3 260 261 257
3 257 261 254
3 261 258 254
3 258 262 259
3 262 263 259
3 259 263 260
3 263 264 260
3 260 264 261
3 264 265 261
3 261 265 258
3 265 262 258
3 257 254 255
3 255 256 257
3 266 270 267
3 270 271 267
3 267 271 268
3 271 272 268
3 268 272 269
3 272 273 269
3 269 273 266
3 273 270 266
3 270 274 271
3 274 275 271
3 271 275 272
3 275 287 272
3 272 287 273
3 287 286 273
3 273 286 270
3 286 274 270
3 269 266 267
3 267 268 269
3 276 280 277
3 280 281 277
3 277 281 278
3 281 282 278
3 278 282 279
3 282 283 279
3 279 283 276
3 283 280 276
3 280 284 281
3 284 285 281
3 281 285 282
3 285 286 282
3 282 286 283
3 286 287 283
3 283 287 280
3 287 284 280
3 279 276 277
3 277 278 279
3 303 262 265
3 303 265 252
3 303 252 274
3 303 274 286
3 303 286 285
3 264 263 288
3 253 264 288
3 275 253 288
3 287 275 288
3 284 287 288
3 303 285 302
3 301 284 288
3 300 288 263
3 262 303 299
3 302 285 284
3 301 302 284
3 299 300 263
3 299 263 262
3 289 290 295
3 289 295 294
3 290 291 296
3 290 296 295
3 291 292 297
3 291 297 296
3 292 293 298
3 292 298 297
3 293 289 294
3 293 294 298
3 294 295 300
3 294 300 299
3 296 297 302
3 296 302 301
3 297 298 303
3 297 303 302
3 298 294 299
3 298 299 303
3 296 288 295
3 288 300 295
3 301 288 296
3 235 293 292
3 234 235 292
3 235 231 289
3 235 289 293
3 231 232 290
3 231 290 289
3 232 233 291
3 232 291 290
3 233 234 292
3 233 292 291
3 304 305 310
3 304 310 309
3 305 306 311
3 305 311 310
3 306 307 312
3 306 312 311
3 307 308 313
3 307 313 312
3 308 304 309
3 308 309 313
3 309 310 315
3 309 315 314
3 310 311 316
3 310 316 315
3 311 312 317
3 311 317 316
3 312 313 318
3 312 318 317
3 313 309 314
3 313 314 318
3 314 315 320
3 314 320 319
3 315 316 321
3 315 321 320
3 316 317 322
3 316 322 321
3 317 318 323
3 317 323 322
3 318 314 319
3 318 319 323
3 319 320 325
3 319 325 324
3 320 321 326
3 320 326 325
3 321 322 327
3 321 327 326
3 322 323 328
3 322 328 327
3 323 319 324
3 323 324 328
3 324 325 330
3 324 330 329
3 325 326 331
3 325 331 330
3 326 327 332
3 326 332 331
3 327 328 333
3 327 333 332
3 328 324 329
3 328 329 333
3 334 335 340
3 334 340 339
3 335 336 341
3 335 341 340
3 336 337 342
3 336 342 341
3 337 338 343
3 337 343 342
3 338 334 339
3 338 339 343
3 339 340 345
3 339 345 344
3 340 341 346
3 340 346 345
3 341 342 347
3 341 347 346
3 342 343 348
3 342 348 347
3 343 339 344
3 343 344 348
3 344 345 350
3 344 350 349
3 345 346 351
3 345 351 350
3 346 347 352
3 346 352 351
3 347 348 353
3 347 353 352
3 348 344 349
3 348 349 353
3 349 350 355
3 349 355 354
3 350 351 356
3 350 356 355
3 351 352 357
3 351 357 356
3 352 353 358
3 352 358 357
3 353 349 354
3 353 354 358
3 354 355 360
3 354 360 359
3 355 356 361
3 355 361 360
3 356 357 362
3 356 362 361
3 357 358 363
3 357 363 362
3 358 354 359
3 358 359 363
3 364 378 365
3 377 380 381
3 377 381 378
3 378 381 382
3 378 382 365
3 365 382 366
3 379 367 368
3 379 368 380
3 380 368 369
3 380 369 381
3 381 369 370
3 381 370 382
3 382 370 371
3 382 371 366
3 364 365 383
3 365 366 385
3 365 385 383
3 383 385 386
3 383 386 384
3 384 386 387
3 366 372 385
3 385 372 373
3 385 373 386
3 386 373 374
3 386 374 387
3 387 374 375
3 387 375 388
3 388 375 376
3 376 375 389
3 375 374 390
3 375 390 389
3 389 390 391
3 374 373 392
3 374 392 390
3 390 392 393
3 390 393 391
3 391 393 394
3 373 372 395
3 373 395 392
3 392 395 396
3 392 396 393
3 393 396 397
3 393 397 394
3 394 397 398
3 372 371 395
3 395 371 370
3 395 370 396
3 396 370 369
3 396 369 397
3 397 369 368
3 397 368 398
3 398 368 367
3 372 366 371
3 380 134 133
3 380 379 133
3 380 133 379
3 379 133 117
3 379 117 367
3 367 117 147
3 367 147 398
3 377 131 134
3 377 134 380
3 378 132 131
3 378 131 377
3 364 114 132
3 364 132 378
3 383 141 114
3 383 114 364
3 383 384 139
3 383 139 141
3 384 387 142
3 384 142 139
3 387 388 143
3 387 143 142
3 388 376 143
3 143 376 118
3 376 389 144
3 376 144 118
3 398 147 146
3 398 146 394
3 389 391 145
3 389 145 144
3 391 146 145
3 391 394 146
3 399 406 408
3 399 408 407
3 406 405 409
3 406 409 408
3 405 427 410
3 405 410 409
3 427 426 411
3 427 411 410
3 426 425 412
3 426 412 411
3 425 424 413
3 425 413 412
3 424 423 414
3 424 414 413
3 423 399 407
3 423 407 414
3 399 400 416
3 399 416 415
3 400 401 417
3 400 417 416
3 401 402 418
3 401 418 417
3 402 403 419
3 402 419 418
3 403 404 420
3 403 420 419
3 404 405 421
3 404 421 420
3 405 406 422
3 405 422 421
3 406 399 415
3 406 415 422
3 404 403 429
3 404 429 428
3 403 402 430
3 403 430 429
3 402 401 431
3 402 431 430
3 401 400 432
3 401 432 431
3 400 399 433
3 400 433 432
3 399 423 434
3 399 434 433
3 423 424 435
3 423 435 434
3 424 425 436
3 424 436 435
3 425 426 437
3 425 437 436
3 426 427 438
3 426 438 437
3 427 405 439
3 427 439 438
3 405 404 428
3 405 428 439
3 428 429 441
3 428 441 440
3 429 430 442
3 429 442 441
3 430 431 443
3 430 443 442
3 431 432 444
3 431 444 443
3 432 433 445
3 432 445 444
3 433 434 446
3 433 446 445
3 434 435 447
3 434 447 446
3 435 436 448
3 435 448 447
3 436 437 449
3 436 449 448
3 437 438 450
3 437 450 449
3 438 439 451
3 438 451 450
3 439 428 440
3 439 440 451
3 440 441 77
3 440 77 70
3 441 442 71
3 441 71 77
3 442 443 75
3 442 75 71
3 443 444 76
3 443 76 75
3 447 448 78
3 448 449 72
3 448 72 78
3 449 450 73
3 449 73 72
3 450 451 74
3 450 74 73
3 451 440 70
3 451 70 74
3 80 81 445
3 81 76 444
3 81 444 445
3 80 445 446
3 80 446 79
3 79 446 447
3 78 79 447
3 454 455 463
3 454 463 462
3 455 456 465
3 455 465 464
3 457 458 467
3 457 467 466
3 458 459 468
3 458 468 467
3 459 460 469
3 459 469 468
3 460 461 470
3 460 470 469
3 461 462 471
3 461 471 470
3 462 463 472
3 462 472 471
3 463 464 473
3 463 473 472
3 464 465 474
3 464 474 473
3 465 457 466
3 465 466 474
3 461 454 462
3 453 461 460
3 453 460 459
3 452 459 458
3 452 453 459
3 452 458 457
3 456 457 465
3 456 452 457
3 453 454 461
3 455 464 463
3 308 455 454
3 304 308 454
3 304 454 453
3 305 304 453
3 306 305 453
3 306 453 452
3 307 306 452
3 307 452 456
3 308 307 456
3 308 456 455
3 477 478 486
3 477 486 485
3 478 479 488
3 478 488 487
3 480 481 490
3 480 490 489
3 481 482 491
3 481 491 490
3 482 483 492
3 482 492 491
3 483 484 493
3 483 493 492
3 484 485 494
3 484 494 493
3 485 486 495
3 485 495 494
3 486 487 496
3 486 496 495
3 487 488 497
3 487 497 496
3 488 480 489
3 488 489 497
3 484 477 485
3 476 484 483
3 476 483 482
3 475 482 481
3 475 476 482
3 475 481 480
3 479 480 488
3 479 475 480
3 476 477 484
3 478 487 486
3 338 478 477
3 334 338 477
3 334 477 476
3 335 334 476
3 336 335 476
3 336 476 475
3 337 336 475
3 337 475 479
3 338 337 479
3 338 479 478
