ply
format ascii 1.0
element vertex 341
property float x
property float y
property float z
element face 636
property list uchar int vertex_indices
end_header
0.262688010931015 0.09663230180740356 0.6773539781570435
0.6598269939422607 0.09663230180740356 0.6773539781570435
0.262688010931015 0.6089959740638733 0.5715810060501099
0.6598269939422607 0.6089959740638733 0.5715810060501099
0.1256749927997589 0.08697350323200226 0.726406991481781
0.7968440055847168 0.08697350323200226 0.726406991481781
0.1256749927997589 0.5993409752845764 0.6206330060958862
0.7968440055847168 0.5993409752845764 0.6206330060958862
0.14450199902057648 0.2274329960346222 0.07264400273561478
0.3517630100250244 0.2274329960346222 0.07264400273561478
0.5590289831161499 0.2274329960346222 0.07264400273561478
0.766290009021759 0.2274329960346222 0.07264400273561478
0.14450199902057648 0.3923659920692444 0.05676259845495224
0.3517630100250244 0.3923659920692444 0.05676259845495224
0.5590289831161499 0.3923659920692444 0.05676259845495224
0.766290009021759 0.3923659920692444 0.05676259845495224
0.14450199902057648 0.557299017906189 0.04088129848241806
0.3517630100250244 0.557299017906189 0.04088129848241806
0.5590289831161499 0.557299017906189 0.04088129848241806
0.766290009021759 0.557299017906189 0.04088129848241806
0.14450199902057648 0.7222319841384888 0.02500000037252903
0.3517630100250244 0.7222319841384888 0.02500000037252903
0.5590289831161499 0.7222319841384888 0.02500000037252903
0.766290009021759 0.7222319841384888 0.02500000037252903
0.07113389670848846 0.22197000682353973 0.7912669777870178
0.3273099958896637 0.22197000682353973 0.7912669777870178
0.583486020565033 0.22197000682353973 0.7912669777870178
0.8396580219268799 0.22197000682353973 0.7912669777870178
0.07113389670848846 0.4518049955368042 0.7691370248794556
0.3273099958896637 0.4518049955368042 0.7691370248794556
0.583486020565033 0.4518049955368042 0.7691370248794556
0.8396580219268799 0.4518049955368042 0.7691370248794556
0.07113389670848846 0.6348819732666016 0.7515119910240173
0.3273099958896637 0.6348819732666016 0.7515119910240173
0.583486020565033 0.6348819732666016 0.7515119910240173
0.8396620154380798 0.6348819732666016 0.7515119910240173
0.07113389670848846 0.8713880181312561 0.7287369966506958
0.3273099958896637 0.8713880181312561 0.7287369966506958
0.583486020565033 0.8713880181312561 0.7287369966506958
0.8396620154380798 0.8713880181312561 0.7287369966506958
0.11312700062990189 0.2230529934167862 0.3124319911003113
0.34130600094795227 0.2230529934167862 0.3124319911003113
0.5694850087165833 0.2230529934167862 0.3124319911003113
0.797664999961853 0.2230529934167862 0.3124319911003113
0.797664999961853 0.40612998604774475 0.29480400681495667
0.797664999961853 0.5892069935798645 0.27717500925064087
0.797664999961853 0.7548509836196899 0.25954699516296387
0.5694850087165833 0.7548509836196899 0.25954699516296387
0.34130600094795227 0.7548509836196899 0.25954699516296387
0.11312700062990189 0.7548509836196899 0.25954699516296387
0.11312700062990189 0.5892069935798645 0.27717500925064087
0.11312700062990189 0.40612998604774475 0.29480400681495667
0.08232449740171432 0.2458910048007965 0.549597978591919
0.3310370147228241 0.2458910048007965 0.549597978591919
0.5797539949417114 0.2458910048007965 0.549597978591919
0.8284670114517212 0.2458910048007965 0.549597978591919
0.8284670114517212 0.4289669990539551 0.5319730043411255
0.8284670114517212 0.6120439767837524 0.5143430233001709
0.8284670114517212 0.7951210141181946 0.4967139959335327
0.5797539949417114 0.7951210141181946 0.4967139959335327
0.3310370147228241 0.7951210141181946 0.4967139959335327
0.08232449740171432 0.7951210141181946 0.4967139959335327
0.08232449740171432 0.6120439767837524 0.5143430233001709
0.08232449740171432 0.4289669990539551 0.5319730043411255
0.05292059853672981 0.1979150027036667 0.7909219861030579
0.8695979714393616 0.1979150027036667 0.7909219861030579
0.05292059853672981 0.8882610201835632 0.7244489789009094
0.8695979714393616 0.8882610201835632 0.7244489789009094
0.02500000037252903 0.21542799472808838 0.9728310108184814
0.8975189924240112 0.21542799472808838 0.9728310108184814
0.02500000037252903 0.9057779908180237 0.9063540101051331
0.8975189924240112 0.9057779908180237 0.9063540101051331
0.7968440055847168 0.31564199924468994 0.9631789922714233
0.1256749927997589 0.31564199924468994 0.9631789922714233
0.7968440055847168 0.8055639863014221 0.91600501537323
0.1256749927997589 0.8055639863014221 0.91600501537323
0.14715300500392914 0.30822399258613586 0.8861430287361145
0.7753660082817078 0.30822399258613586 0.8861430287361145
0.14715300500392914 0.7981449961662292 0.8389679789543152
0.7753660082817078 0.7981449961662292 0.8389679789543152
0.20103800296783447 0.0804888978600502 0.0882382020354271
0.20103800296783447 0.10821700096130371 0.3762190043926239
0.20103800296783447 0.13594500720500946 0.6641989946365356
0.1472409963607788 0.12406100332736969 0.9559919834136963
0.20103800296783447 0.11079899966716766 0.08531960099935532
0.20103800296783447 0.1385270059108734 0.3732999861240387
0.20103800296783447 0.16625499725341797 0.6612820029258728
0.1472409963607788 0.15446999669075012 0.9530659914016724
0.17020399868488312 0.13573899865150452 0.08291780203580856
0.1472409963607788 0.1634719967842102 0.3708980083465576
0.1472409963607788 0.19120000302791595 0.6588789820671082
0.1472409963607788 0.18487800657749176 0.9501349925994873
0.17542099952697754 0.22507600486278534 0.07431560009717941
0.1472409963607788 0.24896599352359772 0.3626660108566284
0.1472409963607788 0.26601800322532654 0.6516749858856201
0.1472409963607788 0.2152860015630722 0.9472090005874634
0.7133989930152893 0.0804888978600502 0.0882382020354271
0.7133989930152893 0.10821700096130371 0.3762190043926239
0.7133989930152893 0.13594500720500946 0.6641989946365356
0.7671949863433838 0.12406100332736969 0.9559919834136963
0.7133989930152893 0.11079899966716766 0.08531960099935532
0.7133989930152893 0.1385270059108734 0.3732999861240387
0.7133989930152893 0.16625499725341797 0.6612820029258728
0.7671949863433838 0.15446999669075012 0.9530659914016724
0.7442370057106018 0.13573899865150452 0.08291780203580856
0.7671949863433838 0.1634719967842102 0.3708980083465576
0.7671949863433838 0.19120000302791595 0.6588789820671082
0.7671949863433838 0.18487800657749176 0.9501349925994873
0.7390149831771851 0.22507600486278534 0.07431560009717941
0.7671949863433838 0.24896599352359772 0.3626660108566284
0.7671949863433838 0.26601800322532654 0.6516749858856201
0.7671949863433838 0.2152860015630722 0.9472090005874634
0.3718230128288269 0.0804888978600502 0.0882382020354271
0.3718230128288269 0.10821700096130371 0.3762190043926239
0.3718230128288269 0.13594500720500946 0.6641989946365356
0.3538939952850342 0.12406100332736969 0.9559919834136963
0.3538939952850342 0.15446999669075012 0.9530659914016724
0.3538939952850342 0.18487800657749176 0.9501349925994873
0.3538939952850342 0.2152860015630722 0.9472090005874634
0.3538939952850342 0.26601800322532654 0.6516749858856201
0.3538939952850342 0.24896599352359772 0.3626660108566284
0.36328598856925964 0.22507600486278534 0.07431560009717941
0.36154499650001526 0.13573899865150452 0.08291780203580856
0.3718230128288269 0.11079899966716766 0.08531960099935532
0.5426130294799805 0.0804888978600502 0.0882382020354271
0.5426130294799805 0.10821700096130371 0.3762190043926239
0.5426130294799805 0.13594500720500946 0.6641989946365356
0.5605419874191284 0.12406100332736969 0.9559919834136963
0.5605419874191284 0.15446999669075012 0.9530659914016724
0.5605419874191284 0.18487800657749176 0.9501349925994873
0.5605419874191284 0.2152860015630722 0.9472090005874634
0.5605419874191284 0.26601800322532654 0.6516749858856201
0.5605419874191284 0.24896599352359772 0.3626660108566284
0.5511500239372253 0.22507600486278534 0.07431560009717941
0.5528910160064697 0.13573899865150452 0.08291780203580856
0.5426130294799805 0.11079899966716766 0.08531960099935532
0.28244999051094055 0.05675970017910004 0.6968979835510254
0.40525099635124207 0.05675970017910004 0.6968979835510254
0.5280569791793823 0.05675970017910004 0.6968979835510254
0.650862991809845 0.05675970017910004 0.6968979835510254
0.28244999051094055 0.05675970017910004 0.5762079954147339
0.40525099635124207 0.05675970017910004 0.5762079954147339
0.5280569791793823 0.05675970017910004 0.5762079954147339
0.650862991809845 0.05675970017910004 0.5762079954147339
0.28244999051094055 0.05675970017910004 0.4555230140686035
0.40525099635124207 0.05675970017910004 0.4555230140686035
0.5280569791793823 0.05675970017910004 0.4555230140686035
0.650862991809845 0.05675970017910004 0.4555230140686035
0.28244999051094055 0.05675970017910004 0.3348349928855896
0.40525099635124207 0.05675970017910004 0.3348349928855896
0.5280569791793823 0.05675970017910004 0.3348349928855896
0.650862991809845 0.05675970017910004 0.3348349928855896
0.236394003033638 0.02500000037252903 0.742156982421875
0.3899039924144745 0.02500000037252903 0.742156982421875
0.543408989906311 0.02500000037252903 0.742156982421875
0.69691401720047 0.02500000037252903 0.742156982421875
0.236394003033638 0.02500000037252903 0.5912960171699524
0.3899039924144745 0.02500000037252903 0.5912960171699524
0.543408989906311 0.02500000037252903 0.5912960171699524
0.69691401720047 0.02500000037252903 0.5912960171699524
0.236394003033638 0.02500000037252903 0.440436989068985
0.3899039924144745 0.02500000037252903 0.440436989068985
0.543408989906311 0.02500000037252903 0.440436989068985
0.69691401720047 0.02500000037252903 0.440436989068985
0.236394003033638 0.02500000037252903 0.28957700729370117
0.3899039924144745 0.02500000037252903 0.28957700729370117
0.543408989906311 0.02500000037252903 0.28957700729370117
0.69691401720047 0.02500000037252903 0.28957700729370117
0.236394003033638 0.0461730994284153 0.742156982421875
0.3899039924144745 0.0461730994284153 0.742156982421875
0.543408989906311 0.0461730994284153 0.742156982421875
0.69691401720047 0.0461730994284153 0.742156982421875
0.69691401720047 0.0461730994284153 0.5912960171699524
0.69691401720047 0.0461730994284153 0.440436989068985
0.69691401720047 0.0461730994284153 0.28957700729370117
0.543408989906311 0.0461730994284153 0.28957700729370117
0.3899039924144745 0.0461730994284153 0.28957700729370117
0.236394003033638 0.0461730994284153 0.28957700729370117
0.236394003033638 0.0461730994284153 0.440436989068985
0.236394003033638 0.0461730994284153 0.5912960171699524
0.236394003033638 0.03558659926056862 0.742156982421875
0.3899039924144745 0.03558659926056862 0.742156982421875
0.543408989906311 0.03558659926056862 0.742156982421875
0.69691401720047 0.03558659926056862 0.742156982421875
0.69691401720047 0.03558659926056862 0.5912960171699524
0.69691401720047 0.03558659926056862 0.440436989068985
0.69691401720047 0.03558659926056862 0.28957700729370117
0.543408989906311 0.03558659926056862 0.28957700729370117
0.3899039924144745 0.03558659926056862 0.28957700729370117
0.236394003033638 0.03558659926056862 0.28957700729370117
0.236394003033638 0.03558659926056862 0.440436989068985
0.236394003033638 0.03558659926056862 0.5912960171699524
0.6979569792747498 0.16607999801635742 0.9406089782714844
0.7162389755249023 0.16607999801635742 0.9406089782714844
0.7156130075454712 0.17079100012779236 0.9401530027389526
0.7137870192527771 0.1751759946346283 0.939732015132904
0.7108830213546753 0.17894800007343292 0.9393699765205383
0.7070980072021484 0.1818390041589737 0.9390929937362671
0.7026860117912292 0.1836560070514679 0.9389179944992065
0.6979569792747498 0.1842769980430603 0.938854992389679
0.6932269930839539 0.1836560070514679 0.9389179944992065
0.6888149976730347 0.1818390041589737 0.9390929937362671
0.6850299835205078 0.17894800007343292 0.9393699765205383
0.682125985622406 0.1751759946346283 0.939732015132904
0.6802999973297119 0.17079100012779236 0.9401530027389526
0.6796780228614807 0.16607999801635742 0.9406089782714844
0.6802999973297119 0.16137300431728363 0.9410610198974609
0.682125985622406 0.15698300302028656 0.9414860010147095
0.6850299835205078 0.15321600437164307 0.9418489933013916
0.6888149976730347 0.15032100677490234 0.9421259760856628
0.6932269930839539 0.14850400388240814 0.9423009753227234
0.6979569792747498 0.14788199961185455 0.9423589706420898
0.7026860117912292 0.14850400388240814 0.9423009753227234
0.7070980072021484 0.15032100677490234 0.9421259760856628
0.7108830213546753 0.15321600437164307 0.9418489933013916
0.7137870192527771 0.15698300302028656 0.9414860010147095
0.7156130075454712 0.16137300431728363 0.9410610198974609
0.7162389755249023 0.1690869927406311 0.971813976764679
0.7156130075454712 0.1737940013408661 0.9713619947433472
0.7137870192527771 0.17818300426006317 0.9709370136260986
0.7108830213546753 0.18195100128650665 0.9705749750137329
0.7070980072021484 0.18484599888324738 0.9702979922294617
0.7026860117912292 0.1866620033979416 0.9701229929924011
0.6979569792747498 0.18727999925613403 0.9700599908828735
0.6932269930839539 0.1866620033979416 0.9701229929924011
0.6888149976730347 0.18484599888324738 0.9702979922294617
0.6850299835205078 0.18195100128650665 0.9705749750137329
0.682125985622406 0.17818300426006317 0.9709370136260986
0.6802999973297119 0.1737940013408661 0.9713619947433472
0.6796780228614807 0.1690869927406311 0.971813976764679
0.6802999973297119 0.16437500715255737 0.9722660183906555
0.682125985622406 0.1599860042333603 0.972690999507904
0.6850299835205078 0.1562180072069168 0.9730539917945862
0.6888149976730347 0.15332800149917603 0.9733309745788574
0.6932269930839539 0.15151099860668182 0.973505973815918
0.6979569792747498 0.15088899433612823 0.9735680222511292
0.7026860117912292 0.15151099860668182 0.973505973815918
0.7070980072021484 0.15332800149917603 0.9733309745788574
0.7108830213546753 0.1562180072069168 0.9730539917945862
0.7137870192527771 0.1599860042333603 0.972690999507904
0.7156130075454712 0.16437500715255737 0.9722660183906555
0.6979569792747498 0.1690869927406311 0.971813976764679
0.46246999502182007 0.1512030065059662 0.9420409798622131
0.48075300455093384 0.1512030065059662 0.9420409798622131
0.4801259934902191 0.15591000020503998 0.9415889978408813
0.4783009886741638 0.16029900312423706 0.9411640167236328
0.475396990776062 0.16406700015068054 0.9408019781112671
0.47161099314689636 0.16695700585842133 0.9405239820480347
0.4671989977359772 0.16877800226211548 0.9403499960899353
0.46246999502182007 0.16939599812030792 0.9402869939804077
0.45774000883102417 0.16877800226211548 0.9403499960899353
0.4533289968967438 0.16695700585842133 0.9405239820480347
0.4495429992675781 0.16406700015068054 0.9408019781112671
0.4466390013694763 0.16029900312423706 0.9411640167236328
0.444813996553421 0.15591000020503998 0.9415889978408813
0.44419199228286743 0.1512030065059662 0.9420409798622131
0.444813996553421 0.14649100601673126 0.9424930214881897
0.4466390013694763 0.14210200309753418 0.9429180026054382
0.4495429992675781 0.1383340060710907 0.9432809948921204
0.4533289968967438 0.13544400036334991 0.9435579776763916
0.45774000883102417 0.13362300395965576 0.9437329769134521
0.46246999502182007 0.13300499320030212 0.9437950253486633
0.4671989977359772 0.13362300395965576 0.9437329769134521
0.47161099314689636 0.13544400036334991 0.9435579776763916
0.475396990776062 0.1383340060710907 0.9432809948921204
0.4783009886741638 0.14210200309753418 0.9429180026054382
0.4801259934902191 0.14649100601673126 0.9424930214881897
0.48075300455093384 0.15420499444007874 0.9732459783554077
0.4801259934902191 0.15891699492931366 0.9727939963340759
0.4783009886741638 0.1633020043373108 0.9723690152168274
0.475396990776062 0.16707399487495422 0.9720069766044617
0.47161099314689636 0.169964000582695 0.9717289805412292
0.4671989977359772 0.1717810034751892 0.9715549945831299
0.46246999502182007 0.1724029928445816 0.9714969992637634
0.45774000883102417 0.1717810034751892 0.9715549945831299
0.4533289968967438 0.169964000582695 0.9717289805412292
0.4495429992675781 0.16707399487495422 0.9720069766044617
0.4466390013694763 0.1633020043373108 0.9723690152168274
0.444813996553421 0.15891699492931366 0.9727939963340759
0.44419199228286743 0.15420499444007874 0.9732459783554077
0.444813996553421 0.14949800074100494 0.9737020134925842
0.4466390013694763 0.14510899782180786 0.9741230010986328
0.4495429992675781 0.14134100079536438 0.9744849801063538
0.4533289968967438 0.13844600319862366 0.9747629761695862
0.45774000883102417 0.13662900030612946 0.9749420285224915
0.46246999502182007 0.13600799441337585 0.9750000238418579
0.4671989977359772 0.13662900030612946 0.9749420285224915
0.47161099314689636 0.13844600319862366 0.9747629761695862
0.475396990776062 0.14134100079536438 0.9744849801063538
0.4783009886741638 0.14510899782180786 0.9741230010986328
0.4801259934902191 0.14949800074100494 0.9737020134925842
0.46246999502182007 0.15420499444007874 0.9732459783554077
0.45871400833129883 0.1710139960050583 0.3260340094566345
0.3845460116863251 0.1710139960050583 0.34078601002693176
0.32167500257492065 0.1710139960050583 0.3827970027923584
0.2796599864959717 0.1710139960050583 0.44567200541496277
0.26490798592567444 0.1710139960050583 0.5198360085487366
0.2796599864959717 0.1710139960050583 0.5940039753913879
0.32167500257492065 0.1710139960050583 0.6568790078163147
0.3845460116863251 0.1710139960050583 0.698889970779419
0.45871400833129883 0.1710139960050583 0.7136420011520386
0.5328789949417114 0.1710139960050583 0.698889970779419
0.5957540273666382 0.1710139960050583 0.6568790078163147
0.6377639770507812 0.1710139960050583 0.5940039753913879
0.6525170207023621 0.1710139960050583 0.5198360085487366
0.6377639770507812 0.1710139960050583 0.44567200541496277
0.5957540273666382 0.1710139960050583 0.3827970027923584
0.5328789949417114 0.1710139960050583 0.34078601002693176
0.45871400833129883 0.10295700281858444 0.3715069890022278
0.4019469916820526 0.10295700281858444 0.3827970027923584
0.3538289964199066 0.10295700281858444 0.41495200991630554
0.32167500257492065 0.10295700281858444 0.4630739986896515
0.31038200855255127 0.10295700281858444 0.5198360085487366
0.32167500257492065 0.10295700281858444 0.5766029953956604
0.3538289964199066 0.10295700281858444 0.6247209906578064
0.40195098519325256 0.10295700281858444 0.6568790078163147
0.45871400833129883 0.10295700281858444 0.6681680083274841
0.5154770016670227 0.10295700281858444 0.6568790078163147
0.5636000037193298 0.10295700281858444 0.6247209906578064
0.5957540273666382 0.10295700281858444 0.5766029953956604
0.6070430278778076 0.10295700281858444 0.5198360085487366
0.5957540273666382 0.10295700281858444 0.4630739986896515
0.5636000037193298 0.10295700281858444 0.41495200991630554
0.5154770016670227 0.10295700281858444 0.3827970027923584
0.45871400833129883 0.05748319998383522 0.43956100940704346
0.4279929995536804 0.05748319998383522 0.44567200541496277
0.4019469916820526 0.05748319998383522 0.4630739986896515
0.3845460116863251 0.05748319998383522 0.48911699652671814
0.37843799591064453 0.05748319998383522 0.5198360085487366
0.3845460116863251 0.05748319998383522 0.550557017326355
0.40195098519325256 0.05748319998383522 0.5766029953956604
0.4279929995536804 0.05748319998383522 0.5940039753913879
0.45871400833129883 0.05748319998383522 0.6001120209693909
0.4894320070743561 0.05748319998383522 0.5940039753913879
0.5154770016670227 0.05748319998383522 0.5766029953956604
0.5328789949417114 0.05748319998383522 0.550557017326355
0.5389909744262695 0.05748319998383522 0.5198360085487366
0.5328789949417114 0.05748319998383522 0.48911699652671814
0.5154770016670227 0.05748319998383522 0.4630739986896515
0.4894320070743561 0.05748319998383522 0.44567200541496277
0.45871400833129883 0.041518401354551315 0.5198360085487366
3 0 2 3
3 3 1 0
3 4 5 7
3 7 6 4
3 0 1 5
3 5 4 0
3 1 3 7
3 7 5 1
3 3 2 6
3 6 7 3
3 2 0 4
3 4 6 2
3 8 12 13
3 13 9 8
3 9 13 14
3 14 10 9
3 10 14 15
3 15 11 10
3 12 16 17
3 17 13 12
3 13 17 18
3 18 14 13
3 14 18 19
3 19 15 14
3 16 20 21
3 21 17 16
3 17 21 22
3 22 18 17
3 18 22 23
3 23 19 18
3 24 25 29
3 29 28 24
3 25 26 30
3 30 29 25
3 26 27 31
3 31 30 26
3 28 29 33
3 33 32 28
3 29 30 34
3 34 33 29
3 30 31 35
3 35 34 30
3 32 33 37
3 37 36 32
3 33 34 38
3 38 37 33
3 34 35 39
3 39 38 34
3 8 9 41
3 41 40 8
3 9 10 42
3 42 41 9
3 10 11 43
3 43 42 10
3 40 41 53
3 53 52 40
3 41 42 54
3 54 53 41
3 42 43 55
3 55 54 42
3 52 53 25
3 25 24 52
3 53 54 26
3 26 25 53
3 54 55 27
3 27 26 54
3 11 15 44
3 44 43 11
3 15 19 45
3 45 44 15
3 19 23 46
3 46 45 19
3 43 44 56
3 56 55 43
3 44 45 57
3 57 56 44
3 45 46 58
3 58 57 45
3 55 56 31
3 31 27 55
3 56 57 35
3 35 31 56
3 57 58 39
3 39 35 57
3 23 22 47
3 47 46 23
3 22 21 48
3 48 47 22
3 21 20 49
3 49 48 21
3 46 47 59
3 59 58 46
3 47 48 60
3 60 59 47
3 48 49 61
3 61 60 48
3 58 59 38
3 38 39 58
3 59 60 37
3 37 38 59
3 60 61 36
3 36 37 60
3 20 16 50
3 50 49 20
3 16 12 51
3 51 50 16
3 12 8 40
3 40 51 12
3 49 50 62
3 62 61 49
3 50 51 63
3 63 62 50
3 51 40 52
3 52 63 51
3 61 62 32
3 32 36 61
3 62 63 28
3 28 32 62
3 63 52 24
3 24 28 63
3 67 65 64
3 69 72 68
3 69 68 64
3 71 69 65
3 70 71 67
3 68 70 66
3 69 71 72
3 70 68 73
3 72 71 74
3 71 70 74
3 74 70 75
3 70 73 75
3 79 76 77
3 77 72 74
3 77 76 72
3 73 78 75
3 78 79 75
3 64 66 67
3 73 68 72
3 64 65 69
3 65 67 71
3 67 66 70
3 66 64 68
3 76 79 78
3 77 74 79
3 73 72 76
3 78 73 76
3 74 75 79
3 84 80 85
3 81 85 80
3 85 81 86
3 82 86 81
3 86 82 87
3 83 87 82
3 88 84 89
3 85 89 84
3 89 85 90
3 86 90 85
3 90 86 91
3 87 91 86
3 92 88 93
3 89 93 88
3 93 89 94
3 90 94 89
3 94 90 95
3 91 95 90
3 97 96 101
3 100 101 96
3 98 97 102
3 101 102 97
3 99 98 103
3 102 103 98
3 101 100 105
3 104 105 100
3 102 101 106
3 105 106 101
3 103 102 107
3 106 107 102
3 105 104 109
3 108 109 104
3 106 105 110
3 109 110 105
3 107 106 111
3 110 111 106
3 81 80 113
3 112 113 80
3 82 81 114
3 113 114 81
3 83 82 115
3 114 115 82
3 113 112 125
3 124 125 112
3 114 113 126
3 125 126 113
3 115 114 127
3 126 127 114
3 125 124 97
3 96 97 124
3 126 125 98
3 97 98 125
3 127 126 99
3 98 99 126
3 87 83 116
3 115 116 83
3 91 87 117
3 116 117 87
3 95 91 118
3 117 118 91
3 116 115 128
3 127 128 115
3 117 116 129
3 128 129 116
3 118 117 130
3 129 130 117
3 128 127 103
3 99 103 127
3 129 128 107
3 103 107 128
3 130 129 111
3 107 111 129
3 94 95 119
3 118 119 95
3 93 94 120
3 119 120 94
3 92 93 121
3 120 121 93
3 119 118 131
3 130 131 118
3 120 119 132
3 131 132 119
3 121 120 133
3 132 133 120
3 131 130 110
3 111 110 130
3 132 131 109
3 110 109 131
3 133 132 108
3 109 108 132
3 88 92 122
3 121 122 92
3 84 88 123
3 122 123 88
3 80 84 112
3 123 112 84
3 122 121 134
3 133 134 121
3 123 122 135
3 134 135 122
3 112 123 124
3 135 124 123
3 134 133 104
3 108 104 133
3 135 134 100
3 104 100 134
3 124 135 96
3 100 96 135
3 140 136 141
3 137 141 136
3 141 137 142
3 138 142 137
3 142 138 143
3 139 143 138
3 144 140 145
3 141 145 140
3 145 141 146
3 142 146 141
3 146 142 147
3 143 147 142
3 148 144 149
3 145 149 144
3 149 145 150
3 146 150 145
3 150 146 151
3 147 151 146
3 153 152 157
3 156 157 152
3 154 153 158
3 157 158 153
3 155 154 159
3 158 159 154
3 157 156 161
3 160 161 156
3 158 157 162
3 161 162 157
3 159 158 163
3 162 163 158
3 161 160 165
3 164 165 160
3 162 161 166
3 165 166 161
3 163 162 167
3 166 167 162
3 137 136 169
3 168 169 136
3 138 137 170
3 169 170 137
3 139 138 171
3 170 171 138
3 169 168 181
3 180 181 168
3 170 169 182
3 181 182 169
3 171 170 183
3 182 183 170
3 181 180 153
3 152 153 180
3 182 181 154
3 153 154 181
3 183 182 155
3 154 155 182
3 143 139 172
3 171 172 139
3 147 143 173
3 172 173 143
3 151 147 174
3 173 174 147
3 172 171 184
3 183 184 171
3 173 172 185
3 184 185 172
3 174 173 186
3 185 186 173
3 184 183 159
3 155 159 183
3 185 184 163
3 159 163 184
3 186 185 167
3 163 167 185
3 150 151 175
3 174 175 151
3 149 150 176
3 175 176 150
3 148 149 177
3 176 177 149
3 175 174 187
3 186 187 174
3 176 175 188
3 187 188 175
3 177 176 189
3 188 189 176
3 187 186 166
3 167 166 186
3 188 187 165
3 166 165 187
3 189 188 164
3 165 164 188
3 144 148 178
3 177 178 148
3 140 144 179
3 178 179 144
3 136 140 168
3 179 168 140
3 178 177 190
3 189 190 177
3 179 178 191
3 190 191 178
3 168 179 180
3 191 180 179
3 190 189 160
3 164 160 189
3 191 190 156
3 160 156 190
3 180 191 152
3 156 152 191
3 192 194 193
3 192 195 194
3 192 196 195
3 192 197 196
3 192 198 197
3 192 199 198
3 192 200 199
3 192 201 200
3 192 202 201
3 192 203 202
3 192 204 203
3 192 205 204
3 192 206 205
3 192 207 206
3 192 208 207
3 192 209 208
3 192 210 209
3 192 211 210
3 192 212 211
3 192 213 212
3 192 214 213
3 192 215 214
3 192 216 215
3 192 193 216
3 193 218 217
3 193 194 218
3 194 219 218
3 194 195 219
3 195 220 219
3 195 196 220
3 196 221 220
3 196 197 221
3 197 222 221
3 197 198 222
3 198 223 222
3 198 199 223
3 199 224 223
3 199 200 224
3 200 225 224
3 200 201 225
3 201 226 225
3 201 202 226
3 202 227 226
3 202 203 227
3 203 228 227
3 203 204 228
3 204 229 228
3 204 205 229
3 205 230 229
3 205 206 230
3 206 231 230
3 206 207 231
3 207 232 231
3 207 208 232
3 208 233 232
3 208 209 233
3 209 234 233
3 209 210 234
3 210 235 234
3 210 211 235
3 211 236 235
3 211 212 236
3 212 237 236
3 212 213 237
3 213 238 237
3 213 214 238
3 214 239 238
3 214 215 239
3 215 240 239
3 215 216 240
3 216 217 240
3 216 193 217
3 241 217 218
3 241 218 219
3 241 219 220
3 241 220 221
3 241 221 222
3 241 222 223
3 241 223 224
3 241 224 225
3 241 225 226
3 241 226 227
3 241 227 228
3 241 228 229
3 241 229 230
3 241 230 231
3 241 231 232
3 241 232 233
3 241 233 234
3 241 234 235
3 241 235 236
3 241 236 237
3 241 237 238
3 241 238 239
3 241 239 240
3 241 240 217
3 242 244 243
3 242 245 244
3 242 246 245
3 242 247 246
3 242 248 247
3 242 249 248
3 242 250 249
3 242 251 250
3 242 252 251
3 242 253 252
3 242 254 253
3 242 255 254
3 242 256 255
3 242 257 256
3 242 258 257
3 242 259 258
3 242 260 259
3 242 261 260
3 242 262 261
3 242 263 262
3 242 264 263
3 242 265 264
3 242 266 265
3 242 243 266
3 243 268 267
3 243 244 268
3 244 269 268
3 244 245 269
3 245 270 269
3 245 246 270
3 246 271 270
3 246 247 271
3 247 272 271
3 247 248 272
3 248 273 272
3 248 249 273
3 249 274 273
3 249 250 274
3 250 275 274
3 250 251 275
3 251 276 275
3 251 252 276
3 252 277 276
3 252 253 277
3 253 278 277
3 253 254 278
3 254 279 278
3 254 255 279
3 255 280 279
3 255 256 280
3 256 281 280
3 256 257 281
3 257 282 281
3 257 258 282
3 258 283 282
3 258 259 283
3 259 284 283
3 259 260 284
3 260 285 284
3 260 261 285
3 261 286 285
3 261 262 286
3 262 287 286
3 262 263 287
3 263 288 287
3 263 264 288
3 264 289 288
3 264 265 289
3 265 290 289
3 265 266 290
3 266 267 290
3 266 243 267
3 291 267 268
3 291 268 269
3 291 269 270
3 291 270 271
3 291 271 272
3 291 272 273
3 291 273 274
3 291 274 275
3 291 275 276
3 291 276 277
3 291 277 278
3 291 278 279
3 291 279 280
3 291 280 281
3 291 281 282
3 291 282 283
3 291 283 284
3 291 284 285
3 291 285 286
3 291 286 287
3 291 287 288
3 291 288 289
3 291 289 290
3 291 290 267
3 292 308 309
3 292 309 293
3 293 309 310
3 293 310 294
3 294 310 311
3 294 311 295
3 295 311 312
3 295 312 296
3 296 312 313
3 296 313 297
3 297 313 314
3 297 314 298
3 298 314 315
3 298 315 299
3 299 315 316
3 299 316 300
3 300 316 317
3 300 317 301
3 301 317 318
3 301 318 302
3 302 318 319
3 302 319 303
3 303 319 320
3 303 320 304
3 304 320 321
3 304 321 305
3 305 321 322
3 305 322 306
3 306 322 323
3 306 323 307
3 307 323 308
3 307 308 292
3 308 324 325
3 308 325 309
3 309 325 326
3 309 326 310
3 310 326 327
3 310 327 311
3 311 327 328
3 311 328 312
3 312 328 329
3 312 329 313
3 313 329 330
3 313 330 314
3 314 330 331
3 314 331 315
3 315 331 332
3 315 332 316
3 316 332 333
3 316 333 317
3 317 333 334
3 317 334 318
3 318 334 335
3 318 335 319
3 319 335 336
3 319 336 320
3 320 336 337
3 320 337 321
3 321 337 338
3 321 338 322
3 322 338 339
3 322 339 323
3 323 339 324
3 323 324 308
3 340 325 324
3 340 326 325
3 340 327 326
3 340 328 327
3 340 329 328
3 340 330 329
3 340 331 330
3 340 332 331
3 340 333 332
3 340 334 333
3 340 335 334
3 340 336 335
3 340 337 336
3 340 338 337
3 340 339 338
3 340 324 339
