ply
format ascii 1.0
element vertex 284
property float x
property float y
property float z
element face 754
property list uchar int vertex_indices
end_header
0.02500000037252903 0.04137929901480675 0.09051720052957535
0.6801720261573792 0.04137929901480675 0.09051720052957535
0.6801720261573792 0.17241400480270386 0.09051720052957535
0.02500000037252903 0.17241400480270386 0.09051720052957535
0.02500000037252903 0.04137929901480675 0.6146550178527832
0.6801720261573792 0.04137929901480675 0.6146550178527832
0.6801720261573792 0.17241400480270386 0.6146550178527832
0.02500000037252903 0.17241400480270386 0.6146550178527832
0.1232760027050972 0.17241400480270386 0.1232760027050972
0.5818970203399658 0.17241400480270386 0.1232760027050972
0.5818970203399658 0.19862100481987 0.1232760027050972
0.1232760027050972 0.19862100481987 0.1232760027050972
0.1232760027050972 0.17241400480270386 0.5818970203399658
0.5818970203399658 0.17241400480270386 0.5818970203399658
0.5818970203399658 0.19862100481987 0.5818970203399658
0.1232760027050972 0.19862100481987 0.5818970203399658
0.3525860011577606 0.578620970249176 0.3525860011577606
0.3525860011577606 0.5690010190010071 0.4133239984512329
0.31688499450683594 0.5690010190010071 0.4017240107059479
0.29482099413871765 0.5690010190010071 0.37135499715805054
0.29482099413871765 0.5690010190010071 0.3338170051574707
0.31688499450683594 0.5690010190010071 0.30344799160957336
0.3525860011577606 0.5690010190010071 0.29184800386428833
0.3882870078086853 0.5690010190010071 0.30344799160957336
0.4103510081768036 0.5690010190010071 0.3338170051574707
0.4103510081768036 0.5690010190010071 0.37135499715805054
0.3882870078086853 0.5690010190010071 0.4017240107059479
0.3525860011577606 0.5410829782485962 0.46811598539352417
0.28467899560928345 0.5410829782485962 0.44605201482772827
0.24270999431610107 0.5410829782485962 0.3882870078086853
0.24270999431610107 0.5410829782485962 0.31688499450683594
0.28467899560928345 0.5410829782485962 0.25911998748779297
0.3525860011577606 0.5410829782485962 0.23705600202083588
0.4204930067062378 0.5410829782485962 0.25911998748779297
0.46246200799942017 0.5410829782485962 0.31688499450683594
0.46246200799942017 0.5410829782485962 0.3882870078086853
0.4204930067062378 0.5410829782485962 0.44605201482772827
0.3525860011577606 0.4975990056991577 0.5116000175476074
0.25911998748779297 0.4975990056991577 0.4812310039997101
0.2013549953699112 0.4975990056991577 0.4017240107059479
0.2013549953699112 0.4975990056991577 0.30344799160957336
0.25911998748779297 0.4975990056991577 0.22394099831581116
0.3525860011577606 0.4975990056991577 0.193572998046875
0.44605201482772827 0.4975990056991577 0.22394099831581116
0.5038170218467712 0.4975990056991577 0.30344799160957336
0.5038170218467712 0.4975990056991577 0.4017240107059479
0.44605201482772827 0.4975990056991577 0.4812310039997101
0.3525860011577606 0.44280698895454407 0.5395179986953735
0.24270999431610107 0.44280698895454407 0.5038170218467712
0.1748030036687851 0.44280698895454407 0.4103510081768036
0.1748030036687851 0.44280698895454407 0.29482099413871765
0.24270999431610107 0.44280698895454407 0.2013549953699112
0.3525860011577606 0.44280698895454407 0.1656540036201477
0.46246200799942017 0.44280698895454407 0.2013549953699112
0.530368983745575 0.44280698895454407 0.29482099413871765
0.530368983745575 0.44280698895454407 0.4103510081768036
0.46246200799942017 0.44280698895454407 0.5038170218467712
0.3525860011577606 0.3820689916610718 0.5491380095481873
0.23705600202083588 0.3820689916610718 0.5116000175476074
0.1656540036201477 0.3820689916610718 0.4133239984512329
0.1656540036201477 0.3820689916610718 0.29184800386428833
0.23705600202083588 0.3820689916610718 0.193572998046875
0.3525860011577606 0.3820689916610718 0.15603399276733398
0.46811598539352417 0.3820689916610718 0.193572998046875
0.5395179986953735 0.3820689916610718 0.29184800386428833
0.5395179986953735 0.3820689916610718 0.4133239984512329
0.46811598539352417 0.3820689916610718 0.5116000175476074
0.3525860011577606 0.3213309943675995 0.5395179986953735
0.24270999431610107 0.3213309943675995 0.5038170218467712
0.1748030036687851 0.3213309943675995 0.4103510081768036
0.1748030036687851 0.3213309943675995 0.29482099413871765
0.24270999431610107 0.3213309943675995 0.2013549953699112
0.3525860011577606 0.3213309943675995 0.1656540036201477
0.46246200799942017 0.3213309943675995 0.2013549953699112
0.530368983745575 0.3213309943675995 0.29482099413871765
0.530368983745575 0.3213309943675995 0.4103510081768036
0.46246200799942017 0.3213309943675995 0.5038170218467712
0.3525860011577606 0.2665390074253082 0.5116000175476074
0.25911998748779297 0.2665390074253082 0.4812310039997101
0.2013549953699112 0.2665390074253082 0.4017240107059479
0.2013549953699112 0.2665390074253082 0.30344799160957336
0.25911998748779297 0.2665390074253082 0.22394099831581116
0.3525860011577606 0.2665390074253082 0.193572998046875
0.44605201482772827 0.2665390074253082 0.22394099831581116
0.5038170218467712 0.2665390074253082 0.30344799160957336
0.5038170218467712 0.2665390074253082 0.4017240107059479
0.44605201482772827 0.2665390074253082 0.4812310039997101
0.3525860011577606 0.22305500507354736 0.46811598539352417
0.28467899560928345 0.22305500507354736 0.44605201482772827
0.24270999431610107 0.22305500507354736 0.3882870078086853
0.24270999431610107 0.22305500507354736 0.31688499450683594
0.28467899560928345 0.22305500507354736 0.25911998748779297
0.3525860011577606 0.22305500507354736 0.23705600202083588
0.4204930067062378 0.22305500507354736 0.25911998748779297
0.46246200799942017 0.22305500507354736 0.31688499450683594
0.46246200799942017 0.22305500507354736 0.3882870078086853
0.4204930067062378 0.22305500507354736 0.44605201482772827
0.3525860011577606 0.19513699412345886 0.4133239984512329
0.31688499450683594 0.19513699412345886 0.4017240107059479
0.29482099413871765 0.19513699412345886 0.37135499715805054
0.29482099413871765 0.19513699412345886 0.3338170051574707
0.31688499450683594 0.19513699412345886 0.30344799160957336
0.3525860011577606 0.19513699412345886 0.29184800386428833
0.3882870078086853 0.19513699412345886 0.30344799160957336
0.4103510081768036 0.19513699412345886 0.3338170051574707
0.4103510081768036 0.19513699412345886 0.37135499715805054
0.3882870078086853 0.19513699412345886 0.4017240107059479
0.3525860011577606 0.18551699817180634 0.3525860011577606
0.02500000037252903 0.26413801312446594 0.41810300946235657
0.6801720261573792 0.26413801312446594 0.41810300946235657
0.6801720261573792 0.7882760167121887 0.41810300946235657
0.02500000037252903 0.7882760167121887 0.41810300946235657
0.02500000037252903 0.26413801312446594 0.6146550178527832
0.6801720261573792 0.26413801312446594 0.6146550178527832
0.6801720261573792 0.7882760167121887 0.6146550178527832
0.02500000037252903 0.7882760167121887 0.6146550178527832
0.2720000147819519 0.725051999092102 0.6208140254020691
0.43972399830818176 0.725051999092102 0.6208140254020691
0.43972399830818176 0.7827079892158508 0.6208140254020691
0.2720000147819519 0.7827079892158508 0.6208140254020691
0.2720000147819519 0.725051999092102 0.6215999722480774
0.43972399830818176 0.725051999092102 0.6215999722480774
0.43972399830818176 0.7827079892158508 0.6215999722480774
0.2720000147819519 0.7827079892158508 0.6215999722480774
0.09051720052957535 0.3296549916267395 0.5835340023040771
0.6146550178527832 0.3296549916267395 0.5835340023040771
0.6146550178527832 0.7227590084075928 0.5835340023040771
0.09051720052957535 0.7227590084075928 0.5835340023040771
0.09051720052957535 0.3296549916267395 0.6490520238876343
0.6146550178527832 0.3296549916267395 0.6490520238876343
0.6146550178527832 0.7227590084075928 0.6490520238876343
0.09051720052957535 0.7227590084075928 0.6490520238876343
0.09051720052957535 0.3296549916267395 0.02500000037252903
0.6146550178527832 0.3296549916267395 0.02500000037252903
0.6146550178527832 0.7227590084075928 0.02500000037252903
0.09051720052957535 0.7227590084075928 0.02500000037252903
0.09051720052957535 0.3296549916267395 0.41810300946235657
0.6146550178527832 0.3296549916267395 0.41810300946235657
0.6146550178527832 0.7227590084075928 0.41810300946235657
0.09051720052957535 0.7227590084075928 0.41810300946235657
0.02500000037252903 0.04137929901480675 0.6474140286445618
0.6801720261573792 0.04137929901480675 0.6474140286445618
0.6801720261573792 0.07413789629936218 0.6474140286445618
0.02500000037252903 0.07413789629936218 0.6474140286445618
0.02500000037252903 0.04137929901480675 0.9750000238418579
0.6801720261573792 0.04137929901480675 0.9750000238418579
0.6801720261573792 0.07413789629936218 0.9750000238418579
0.02500000037252903 0.07413789629936218 0.9750000238418579
0.8603450059890747 0.09051720052957535 0.8112069964408875
0.8603450059890747 0.08891390264034271 0.8365139961242676
0.851419985294342 0.08891390264034271 0.8316810131072998
0.8459039926528931 0.08891390264034271 0.8190270066261292
0.8459039926528931 0.08891390264034271 0.8033859729766846
0.851419985294342 0.08891390264034271 0.7907329797744751
0.8603450059890747 0.08891390264034271 0.7858989834785461
0.8692700266838074 0.08891390264034271 0.7907329797744751
0.8747860193252563 0.08891390264034271 0.8033859729766846
0.8747860193252563 0.08891390264034271 0.8190270066261292
0.8692700266838074 0.08891390264034271 0.8316810131072998
0.8603450059890747 0.08426090329885483 0.8593440055847168
0.8433679938316345 0.08426090329885483 0.850151002407074
0.8328760266304016 0.08426090329885483 0.8260819911956787
0.8328760266304016 0.08426090329885483 0.7963320016860962
0.8433679938316345 0.08426090329885483 0.7722629904747009
0.8603450059890747 0.08426090329885483 0.7630689740180969
0.8773220181465149 0.08426090329885483 0.7722629904747009
0.8878139853477478 0.08426090329885483 0.7963320016860962
0.8878139853477478 0.08426090329885483 0.8260819911956787
0.8773220181465149 0.08426090329885483 0.850151002407074
0.8603450059890747 0.07701370120048523 0.8774629831314087
0.836978018283844 0.07701370120048523 0.864808976650238
0.8225370049476624 0.07701370120048523 0.8316810131072998
0.8225370049476624 0.07701370120048523 0.7907329797744751
0.836978018283844 0.07701370120048523 0.7576050162315369
0.8603450059890747 0.07701370120048523 0.7449510097503662
0.8837109804153442 0.07701370120048523 0.7576050162315369
0.8981530070304871 0.07701370120048523 0.7907329797744751
0.8981530070304871 0.07701370120048523 0.8316810131072998
0.8837109804153442 0.07701370120048523 0.864808976650238
0.8603450059890747 0.06788159906864166 0.8890950083732605
0.8328760266304016 0.06788159906864166 0.8742200136184692
0.8158990144729614 0.06788159906864166 0.8352760076522827
0.8158990144729614 0.06788159906864166 0.7871379852294922
0.8328760266304016 0.06788159906864166 0.7481939792633057
0.8603450059890747 0.06788159906864166 0.7333189845085144
0.8878139853477478 0.06788159906864166 0.7481939792633057
0.904790997505188 0.06788159906864166 0.7871379852294922
0.904790997505188 0.06788159906864166 0.8352760076522827
0.8878139853477478 0.06788159906864166 0.8742200136184692
0.8603450059890747 0.057758599519729614 0.8931030035018921
0.831462025642395 0.057758599519729614 0.8774629831314087
0.8136119842529297 0.057758599519729614 0.8365139961242676
0.8136119842529297 0.057758599519729614 0.7858989834785461
0.831462025642395 0.057758599519729614 0.7449510097503662
0.8603450059890747 0.057758599519729614 0.7293099761009216
0.8892269730567932 0.057758599519729614 0.7449510097503662
0.9070780277252197 0.057758599519729614 0.7858989834785461
0.9070780277252197 0.057758599519729614 0.8365139961242676
0.8892269730567932 0.057758599519729614 0.8774629831314087
0.8603450059890747 0.047635599970817566 0.8890950083732605
0.8328760266304016 0.047635599970817566 0.8742200136184692
0.8158990144729614 0.047635599970817566 0.8352760076522827
0.8158990144729614 0.047635599970817566 0.7871379852294922
0.8328760266304016 0.047635599970817566 0.7481939792633057
0.8603450059890747 0.047635599970817566 0.7333189845085144
0.8878139853477478 0.047635599970817566 0.7481939792633057
0.904790997505188 0.047635599970817566 0.7871379852294922
0.904790997505188 0.047635599970817566 0.8352760076522827
0.8878139853477478 0.047635599970817566 0.8742200136184692
0.8603450059890747 0.03850359842181206 0.8774629831314087
0.836978018283844 0.03850359842181206 0.864808976650238
0.8225370049476624 0.03850359842181206 0.8316810131072998
0.8225370049476624 0.03850359842181206 0.7907329797744751
0.836978018283844 0.03850359842181206 0.7576050162315369
0.8603450059890747 0.03850359842181206 0.7449510097503662
0.8837109804153442 0.03850359842181206 0.7576050162315369
0.8981530070304871 0.03850359842181206 0.7907329797744751
0.8981530070304871 0.03850359842181206 0.8316810131072998
0.8837109804153442 0.03850359842181206 0.864808976650238
0.8603450059890747 0.0312562994658947 0.8593440055847168
0.8433679938316345 0.0312562994658947 0.850151002407074
0.8328760266304016 0.0312562994658947 0.8260819911956787
0.8328760266304016 0.0312562994658947 0.7963320016860962
0.8433679938316345 0.0312562994658947 0.7722629904747009
0.8603450059890747 0.0312562994658947 0.7630689740180969
0.8773220181465149 0.0312562994658947 0.7722629904747009
0.8878139853477478 0.0312562994658947 0.7963320016860962
0.8878139853477478 0.0312562994658947 0.8260819911956787
0.8773220181465149 0.0312562994658947 0.850151002407074
0.8603450059890747 0.026603300124406815 0.8365139961242676
0.851419985294342 0.026603300124406815 0.8316810131072998
0.8459039926528931 0.026603300124406815 0.8190270066261292
0.8459039926528931 0.026603300124406815 0.8033859729766846
0.851419985294342 0.026603300124406815 0.7907329797744751
0.8603450059890747 0.026603300124406815 0.7858989834785461
0.8692700266838074 0.026603300124406815 0.7907329797744751
0.8747860193252563 0.026603300124406815 0.8033859729766846
0.8747860193252563 0.026603300124406815 0.8190270066261292
0.8692700266838074 0.026603300124406815 0.8316810131072998
0.8603450059890747 0.02500000037252903 0.8112069964408875
0.22155199944972992 0.8537930250167847 0.5163789987564087
0.22155199944972992 0.847536027431488 0.5452619791030884
0.4836210012435913 0.8537939786911011 0.5163789987564087
0.4836210012435913 0.8475369811058044 0.5452619791030884
0.4836210012435913 0.8210350275039673 0.5163789987564087
0.22155199944972992 0.8210340142250061 0.5163789987564087
0.22155199944972992 0.8311570286750793 0.5631120204925537
0.4836210012435913 0.8311579823493958 0.5631120204925537
0.22155199944972992 0.8109109997749329 0.5631120204925537
0.4836210012435913 0.810912013053894 0.5631120204925537
0.22155199944972992 0.7945320010185242 0.5452619791030884
0.4836210012435913 0.7945330142974854 0.5452619791030884
0.22155199944972992 0.7882750034332275 0.5163789987564087
0.4836210012435913 0.7882760167121887 0.5163789987564087
0.22155199944972992 0.7945320010185242 0.4874970018863678
0.4836210012435913 0.7945330142974854 0.4874970018863678
0.22155199944972992 0.8109109997749329 0.46964600682258606
0.4836210012435913 0.810912013053894 0.46964600682258606
0.22155199944972992 0.8311570286750793 0.46964600682258606
0.4836210012435913 0.8311579823493958 0.46964600682258606
0.22155199944972992 0.847536027431488 0.4874970018863678
0.4836210012435913 0.8475369811058044 0.4874970018863678
0.3656899929046631 0.8210340142250061 0.578620970249176
0.3631869852542877 0.8133320212364197 0.578620970249176
0.3656899929046631 0.8210350275039673 0.5524140000343323
0.3631869852542877 0.8133320212364197 0.5524140000343323
0.3525860011577606 0.8210350275039673 0.5524140000343323
0.3525860011577606 0.8210340142250061 0.578620970249176
0.3566350042819977 0.808571994304657 0.578620970249176
0.3566350042819977 0.808571994304657 0.5524140000343323
0.34853699803352356 0.808571994304657 0.578620970249176
0.34853699803352356 0.808571994304657 0.5524140000343323
0.34198498725891113 0.8133320212364197 0.578620970249176
0.34198498725891113 0.8133320212364197 0.5524140000343323
0.33948299288749695 0.8210340142250061 0.578620970249176
0.33948299288749695 0.8210350275039673 0.5524140000343323
0.34198498725891113 0.8287360072135925 0.578620970249176
0.34198498725891113 0.8287370204925537 0.5524140000343323
0.34853699803352356 0.8334969878196716 0.578620970249176
0.34853699803352356 0.8334969878196716 0.5524140000343323
0.3566350042819977 0.8334969878196716 0.578620970249176
0.3566350042819977 0.8334969878196716 0.5524140000343323
0.3631869852542877 0.8287360072135925 0.578620970249176
0.3631869852542877 0.8287370204925537 0.5524140000343323
3 0 3 1
3 1 3 2
3 0 5 4
3 0 1 5
3 0 4 3
3 3 4 7
3 3 7 6
3 3 6 2
3 1 6 5
3 1 2 6
3 5 7 4
3 5 6 7
3 8 11 9
3 9 11 10
3 8 13 12
3 8 9 13
3 8 12 11
3 11 12 15
3 11 15 14
3 11 14 10
3 9 14 13
3 9 10 14
3 13 15 12
3 13 14 15
3 17 18 16
3 18 19 16
3 19 20 16
3 20 21 16
3 21 22 16
3 22 23 16
3 23 24 16
3 24 25 16
3 25 26 16
3 26 17 16
3 17 27 18
3 27 28 18
3 18 28 19
3 28 29 19
3 19 29 20
3 29 30 20
3 20 30 21
3 30 31 21
3 21 31 22
3 31 32 22
3 22 32 23
3 32 33 23
3 23 33 24
3 33 34 24
3 24 34 25
3 34 35 25
3 25 35 26
3 35 36 26
3 26 36 17
3 36 27 17
3 27 37 28
3 37 38 28
3 28 38 29
3 38 39 29
3 29 39 30
3 39 40 30
3 30 40 31
3 40 41 31
3 31 41 32
3 41 42 32
3 32 42 33
3 42 43 33
3 33 43 34
3 43 44 34
3 34 44 35
3 44 45 35
3 35 45 36
3 45 46 36
3 36 46 27
3 46 37 27
3 37 47 38
3 47 48 38
3 38 48 39
3 48 49 39
3 39 49 40
3 49 50 40
3 40 50 41
3 50 51 41
3 41 51 42
3 51 52 42
3 42 52 43
3 52 53 43
3 43 53 44
3 53 54 44
3 44 54 45
3 54 55 45
3 45 55 46
3 55 56 46
3 46 56 37
3 56 47 37
3 47 57 48
3 57 58 48
3 48 58 49
3 58 59 49
3 49 59 50
3 59 60 50
3 50 60 51
3 60 61 51
3 51 61 52
3 61 62 52
3 52 62 53
3 62 63 53
3 53 63 54
3 63 64 54
3 54 64 55
3 64 65 55
3 55 65 56
3 65 66 56
3 56 66 47
3 66 57 47
3 57 67 58
3 67 68 58
3 58 68 59
3 68 69 59
3 59 69 60
3 69 70 60
3 60 70 61
3 70 71 61
3 61 71 62
3 71 72 62
3 62 72 63
3 72 73 63
3 63 73 64
3 73 74 64
3 64 74 65
3 74 75 65
3 65 75 66
3 75 76 66
3 66 76 57
3 76 67 57
3 67 77 68
3 77 78 68
3 68 78 69
3 78 79 69
3 69 79 70
3 79 80 70
3 70 80 71
3 80 81 71
3 71 81 72
3 81 82 72
3 72 82 73
3 82 83 73
3 73 83 74
3 83 84 74
3 74 84 75
3 84 85 75
3 75 85 76
3 85 86 76
3 76 86 67
3 86 77 67
3 77 87 78
3 87 88 78
3 78 88 79
3 88 89 79
3 79 89 80
3 89 90 80
3 80 90 81
3 90 91 81
3 81 91 82
3 91 92 82
3 82 92 83
3 92 93 83
3 83 93 84
3 93 94 84
3 84 94 85
3 94 95 85
3 85 95 86
3 95 96 86
3 86 96 77
3 96 87 77
3 87 97 88
3 97 98 88
3 88 98 89
3 98 99 89
3 89 99 90
3 99 100 90
3 90 100 91
3 100 101 91
3 91 101 92
3 101 102 92
3 92 102 93
3 102 103 93
3 93 103 94
3 103 104 94
3 94 104 95
3 104 105 95
3 95 105 96
3 105 106 96
3 96 106 87
3 106 97 87
3 97 107 98
3 98 107 99
3 107 107 99
3 99 107 100
3 100 107 101
3 107 107 101
3 101 107 102
3 107 107 102
3 102 107 103
3 107 107 103
3 103 107 104
3 107 107 104
3 104 107 105
3 105 107 106
3 107 107 106
3 106 107 97
3 107 107 97
3 108 111 109
3 109 111 110
3 108 113 112
3 108 109 113
3 108 112 111
3 111 112 115
3 111 115 114
3 111 114 110
3 109 114 113
3 109 110 114
3 113 115 112
3 113 114 115
3 116 119 117
3 117 119 118
3 116 121 120
3 116 117 121
3 116 120 119
3 119 120 123
3 119 123 122
3 119 122 118
3 117 122 121
3 117 118 122
3 121 123 120
3 121 122 123
3 124 127 125
3 125 127 126
3 124 129 128
3 124 125 129
3 124 128 127
3 127 128 131
3 127 131 130
3 127 130 126
3 125 130 129
3 125 126 130
3 129 131 128
3 129 130 131
3 132 135 133
3 133 135 134
3 132 137 136
3 132 133 137
3 132 136 135
3 135 136 139
3 135 139 138
3 135 138 134
3 133 138 137
3 133 134 138
3 137 139 136
3 137 138 139
3 132 135 133
3 133 135 134
3 132 137 136
3 132 133 137
3 132 136 135
3 135 136 139
3 135 139 138
3 135 138 134
3 133 138 137
3 133 134 138
3 137 139 136
3 137 138 139
3 132 135 133
3 133 135 134
3 132 137 136
3 132 133 137
3 132 136 135
3 135 136 139
3 135 139 138
3 135 138 134
3 133 138 137
3 133 134 138
3 137 139 136
3 137 138 139
3 132 135 133
3 133 135 134
3 132 137 136
3 132 133 137
3 132 136 135
3 135 136 139
3 135 139 138
3 135 138 134
3 133 138 137
3 133 134 138
3 137 139 136
3 137 138 139
3 17 18 16
3 18 19 16
3 19 20 16
3 20 21 16
3 21 22 16
3 22 23 16
3 23 24 16
3 24 25 16
3 25 26 16
3 26 17 16
3 17 27 18
3 27 28 18
3 18 28 19
3 28 29 19
3 19 29 20
3 29 30 20
3 20 30 21
3 30 31 21
3 21 31 22
3 31 32 22
3 22 32 23
3 32 33 23
3 23 33 24
3 33 34 24
3 24 34 25
3 34 35 25
3 25 35 26
3 35 36 26
3 26 36 17
3 36 27 17
3 27 37 28
3 37 38 28
3 28 38 29
3 38 39 29
3 29 39 30
3 39 40 30
3 30 40 31
3 40 41 31
3 31 41 32
3 41 42 32
3 32 42 33
3 42 43 33
3 33 43 34
3 43 44 34
3 34 44 35
3 44 45 35
3 35 45 36
3 45 46 36
3 36 46 27
3 46 37 27
3 37 47 38
3 47 48 38
3 38 48 39
3 48 49 39
3 39 49 40
3 49 50 40
3 40 50 41
3 50 51 41
3 41 51 42
3 51 52 42
3 42 52 43
3 52 53 43
3 43 53 44
3 53 54 44
3 44 54 45
3 54 55 45
3 45 55 46
3 55 56 46
3 46 56 37
3 56 47 37
3 47 57 48
3 57 58 48
3 48 58 49
3 58 59 49
3 49 59 50
3 59 60 50
3 50 60 51
3 60 61 51
3 51 61 52
3 61 62 52
3 52 62 53
3 62 63 53
3 53 63 54
3 63 64 54
3 54 64 55
3 64 65 55
3 55 65 56
3 65 66 56
3 56 66 47
3 66 57 47
3 57 67 58
3 67 68 58
3 58 68 59
3 68 69 59
3 59 69 60
3 69 70 60
3 60 70 61
3 70 71 61
3 61 71 62
3 71 72 62
3 62 72 63
3 72 73 63
3 63 73 64
3 73 74 64
3 64 74 65
3 74 75 65
3 65 75 66
3 75 76 66
3 66 76 57
3 76 67 57
3 67 77 68
3 77 78 68
3 68 78 69
3 78 79 69
3 69 79 70
3 79 80 70
3 70 80 71
3 80 81 71
3 71 81 72
3 81 82 72
3 72 82 73
3 82 83 73
3 73 83 74
3 83 84 74
3 74 84 75
3 84 85 75
3 75 85 76
3 85 86 76
3 76 86 67
3 86 77 67
3 77 87 78
3 87 88 78
3 78 88 79
3 88 89 79
3 79 89 80
3 89 90 80
3 80 90 81
3 90 91 81
3 81 91 82
3 91 92 82
3 82 92 83
3 92 93 83
3 83 93 84
3 93 94 84
3 84 94 85
3 94 95 85
3 85 95 86
3 95 96 86
3 86 96 77
3 96 87 77
3 87 97 88
3 97 98 88
3 88 98 89
3 98 99 89
3 89 99 90
3 99 100 90
3 90 100 91
3 100 101 91
3 91 101 92
3 101 102 92
3 92 102 93
3 102 103 93
3 93 103 94
3 103 104 94
3 94 104 95
3 104 105 95
3 95 105 96
3 105 106 96
3 96 106 87
3 106 97 87
3 97 107 98
3 98 107 99
3 107 107 99
3 99 107 100
3 100 107 101
3 107 107 101
3 101 107 102
3 107 107 102
3 102 107 103
3 107 107 103
3 103 107 104
3 107 107 104
3 104 107 105
3 105 107 106
3 107 107 106
3 106 107 97
3 107 107 97
3 140 143 141
3 141 143 142
3 140 145 144
3 140 141 145
3 140 144 143
3 143 144 147
3 143 147 146
3 143 146 142
3 141 146 145
3 141 142 146
3 145 147 144
3 145 146 147
3 149 150 148
3 150 151 148
3 151 152 148
3 152 153 148
3 153 154 148
3 154 155 148
3 155 156 148
3 156 157 148
3 157 158 148
3 158 149 148
3 149 159 150
3 159 160 150
3 150 160 151
3 160 161 151
3 151 161 152
3 161 162 152
3 152 162 153
3 162 163 153
3 153 163 154
3 163 164 154
3 154 164 155
3 164 165 155
3 155 165 156
3 165 166 156
3 156 166 157
3 166 167 157
3 157 167 158
3 167 168 158
3 158 168 149
3 168 159 149
3 159 169 160
3 169 170 160
3 160 170 161
3 170 171 161
3 161 171 162
3 171 172 162
3 162 172 163
3 172 173 163
3 163 173 164
3 173 174 164
3 164 174 165
3 174 175 165
3 165 175 166
3 175 176 166
3 166 176 167
3 176 177 167
3 167 177 168
3 177 178 168
3 168 178 159
3 178 169 159
3 169 179 170
3 179 180 170
3 170 180 171
3 180 181 171
3 171 181 172
3 181 182 172
3 172 182 173
3 182 183 173
3 173 183 174
3 183 184 174
3 174 184 175
3 184 185 175
3 175 185 176
3 185 186 176
3 176 186 177
3 186 187 177
3 177 187 178
3 187 188 178
3 178 188 169
3 188 179 169
3 179 189 180
3 189 190 180
3 180 190 181
3 190 191 181
3 181 191 182
3 191 192 182
3 182 192 183
3 192 193 183
3 183 193 184
3 193 194 184
3 184 194 185
3 194 195 185
3 185 195 186
3 195 196 186
3 186 196 187
3 196 197 187
3 187 197 188
3 197 198 188
3 188 198 179
3 198 189 179
3 189 199 190
3 199 200 190
3 190 200 191
3 200 201 191
3 191 201 192
3 201 202 192
3 192 202 193
3 202 203 193
3 193 203 194
3 203 204 194
3 194 204 195
3 204 205 195
3 195 205 196
3 205 206 196
3 196 206 197
3 206 207 197
3 197 207 198
3 207 208 198
3 198 208 189
3 208 199 189
3 199 209 200
3 209 210 200
3 200 210 201
3 210 211 201
3 201 211 202
3 211 212 202
3 202 212 203
3 212 213 203
3 203 213 204
3 213 214 204
3 204 214 205
3 214 215 205
3 205 215 206
3 215 216 206
3 206 216 207
3 216 217 207
3 207 217 208
3 217 218 208
3 208 218 199
3 218 209 199
3 209 219 210
3 219 220 210
3 210 220 211
3 220 221 211
3 211 221 212
3 221 222 212
3 212 222 213
3 222 223 213
3 213 223 214
3 223 224 214
3 214 224 215
3 224 225 215
3 215 225 216
3 225 226 216
3 216 226 217
3 226 227 217
3 217 227 218
3 227 228 218
3 218 228 209
3 228 219 209
3 219 229 220
3 229 230 220
3 220 230 221
3 230 231 221
3 221 231 222
3 231 232 222
3 222 232 223
3 232 233 223
3 223 233 224
3 233 234 224
3 224 234 225
3 234 235 225
3 225 235 226
3 235 236 226
3 226 236 227
3 236 237 227
3 227 237 228
3 237 238 228
3 228 238 219
3 238 229 219
3 229 239 230
3 230 239 231
3 231 239 232
3 232 239 233
3 233 239 234
3 234 239 235
3 235 239 236
3 236 239 237
3 237 239 238
3 238 239 229
3 240 241 242
3 241 243 242
3 244 242 243
3 245 241 240
3 241 246 243
3 246 247 243
3 244 243 247
3 245 246 241
3 246 248 247
3 248 249 247
3 244 247 249
3 245 248 246
3 248 250 249
3 250 251 249
3 244 249 251
3 245 250 248
3 250 252 251
3 252 253 251
3 244 251 253
3 245 252 250
3 252 254 253
3 254 255 253
3 244 253 255
3 245 254 252
3 254 256 255
3 256 257 255
3 244 255 257
3 245 256 254
3 256 258 257
3 258 259 257
3 244 257 259
3 245 258 256
3 258 260 259
3 260 261 259
3 244 259 261
3 245 260 258
3 260 240 261
3 240 242 261
3 244 261 242
3 245 240 260
3 262 263 264
3 263 265 264
3 266 264 265
3 267 263 262
3 263 268 265
3 268 269 265
3 266 265 269
3 267 268 263
3 268 270 269
3 270 271 269
3 266 269 271
3 267 270 268
3 270 272 271
3 272 273 271
3 266 271 273
3 267 272 270
3 272 274 273
3 274 275 273
3 266 273 275
3 267 274 272
3 274 276 275
3 276 277 275
3 266 275 277
3 267 276 274
3 276 278 277
3 278 279 277
3 266 277 279
3 267 278 276
3 278 280 279
3 280 281 279
3 266 279 281
3 267 280 278
3 280 282 281
3 282 283 281
3 266 281 283
3 267 282 280
3 282 262 283
3 262 264 283
3 266 283 264
3 267 262 282
