ply
format ascii 1.0
element vertex 395
property float x
property float y
property float z
element face 749
property list uchar int vertex_indices
end_header
0.02500000037252903 0.17029400169849396 0.7851570248603821
0.11441200226545334 0.17029400169849396 0.7851570248603821
0.11441200226545334 0.9750000238418579 0.7851570248603821
0.02500000037252903 0.9750000238418579 0.7851570248603821
0.02500000037252903 0.17029400169849396 0.8745689988136292
0.11441200226545334 0.17029400169849396 0.8745689988136292
0.11441200226545334 0.9750000238418579 0.8745689988136292
0.02500000037252903 0.9750000238418579 0.8745689988136292
0.8297060132026672 0.17029400169849396 0.7851570248603821
0.9191179871559143 0.17029400169849396 0.7851570248603821
0.9191179871559143 0.9750000238418579 0.7851570248603821
0.8297060132026672 0.9750000238418579 0.7851570248603821
0.8297060132026672 0.17029400169849396 0.8745689988136292
0.9191179871559143 0.17029400169849396 0.8745689988136292
0.9191179871559143 0.9750000238418579 0.8745689988136292
0.8297060132026672 0.9750000238418579 0.8745689988136292
0.02500000037252903 0.8855879902839661 0.7851570248603821
0.9191179871559143 0.8855879902839661 0.7851570248603821
0.02500000037252903 0.8855879902839661 0.8745689988136292
0.9191179871559143 0.8855879902839661 0.8745689988136292
0.9191179871559143 0.3267650008201599 0.7851570248603821
0.02500000037252903 0.3267650008201599 0.7851570248603821
0.9191179871559143 0.3267650008201599 0.8745689988136292
0.02500000037252903 0.3267650008201599 0.8745689988136292
0.7850000262260437 0.2485480010509491 0.87568598985672
0.7807310223579407 0.23540900647640228 0.8756970167160034
0.7850000262260437 0.24851100146770477 0.8287450075149536
0.7807310223579407 0.23537200689315796 0.8287550210952759
0.7626469731330872 0.24851100146770477 0.8287450075149536
0.7626469731330872 0.2485480010509491 0.87568598985672
0.7695540189743042 0.22728900611400604 0.875702977180481
0.7695540189743042 0.22725200653076172 0.8287619948387146
0.7557399868965149 0.22728900611400604 0.875702977180481
0.7557399868965149 0.22725200653076172 0.8287619948387146
0.7445629835128784 0.23540900647640228 0.8756970167160034
0.7445629835128784 0.23537200689315796 0.8287550210952759
0.7402939796447754 0.2485480010509491 0.87568598985672
0.7402939796447754 0.24851100146770477 0.8287450075149536
0.7445629835128784 0.2616870105266571 0.8756759762763977
0.7445629835128784 0.2616490125656128 0.8287349939346313
0.7557399868965149 0.26980701088905334 0.875669002532959
0.7557399868965149 0.2697699964046478 0.8287280201911926
0.7695540189743042 0.26980701088905334 0.875669002532959
0.7695540189743042 0.2697699964046478 0.8287280201911926
0.7807310223579407 0.2616870105266571 0.8756759762763977
0.7807310223579407 0.2616490125656128 0.8287349939346313
0.4555180072784424 0.2485480010509491 0.8751270174980164
0.4526999890804291 0.24592000246047974 0.875128984451294
0.4555180072784424 0.24851100146770477 0.8293039798736572
0.4526999890804291 0.2458830028772354 0.8293060064315796
0.44076499342918396 0.24851100146770477 0.8293039798736572
0.44076499342918396 0.2485480010509491 0.8751270174980164
0.44532400369644165 0.24429599940776825 0.8751310110092163
0.44532400369644165 0.24425899982452393 0.8293070197105408
0.43620601296424866 0.24429599940776825 0.8751310110092163
0.43620601296424866 0.24425899982452393 0.8293070197105408
0.42882901430130005 0.24592000246047974 0.875128984451294
0.42882901430130005 0.2458830028772354 0.8293060064315796
0.4260120093822479 0.2485480010509491 0.8751270174980164
0.4260120093822479 0.24851100146770477 0.8293039798736572
0.42882901430130005 0.2511749863624573 0.875124990940094
0.42882901430130005 0.25113898515701294 0.8293020129203796
0.43620601296424866 0.25279900431632996 0.8751239776611328
0.43620601296424866 0.2527630031108856 0.8292999863624573
0.44532400369644165 0.25279900431632996 0.8751239776611328
0.44532400369644165 0.2527630031108856 0.8292999863624573
0.4526999890804291 0.2511749863624573 0.875124990940094
0.4526999890804291 0.25113898515701294 0.8293020129203796
0.5181059837341309 0.2485480010509491 0.8751270174980164
0.5152879953384399 0.24592000246047974 0.875128984451294
0.5181059837341309 0.24851100146770477 0.8293039798736572
0.5152879953384399 0.2458830028772354 0.8293060064315796
0.5033529996871948 0.24851100146770477 0.8293039798736572
0.5033529996871948 0.2485480010509491 0.8751270174980164
0.5079119801521301 0.24429599940776825 0.8751310110092163
0.5079119801521301 0.24425899982452393 0.8293070197105408
0.49879398941993713 0.24429599940776825 0.8751310110092163
0.49879398941993713 0.24425899982452393 0.8293070197105408
0.4914180040359497 0.24592000246047974 0.875128984451294
0.4914180040359497 0.2458830028772354 0.8293060064315796
0.4885999858379364 0.2485480010509491 0.8751270174980164
0.4885999858379364 0.24851100146770477 0.8293039798736572
0.4914180040359497 0.2511749863624573 0.875124990940094
0.4914180040359497 0.25113898515701294 0.8293020129203796
0.49879398941993713 0.25279900431632996 0.8751239776611328
0.49879398941993713 0.2527630031108856 0.8292999863624573
0.5079119801521301 0.25279900431632996 0.8751239776611328
0.5079119801521301 0.2527630031108856 0.8292999863624573
0.5152879953384399 0.2511749863624573 0.875124990940094
0.5152879953384399 0.25113898515701294 0.8293020129203796
0.47652900218963623 0.2753709852695465 0.8751270174980164
0.4756760001182556 0.2674880027770996 0.8751339912414551
0.47652900218963623 0.27533501386642456 0.8293039798736572
0.4756760001182556 0.2674509882926941 0.8293099999427795
0.4720590114593506 0.27533501386642456 0.8293039798736572
0.4720590114593506 0.2753709852695465 0.8751270174980164
0.4734399914741516 0.26261600852012634 0.875137984752655
0.4734399914741516 0.2625789940357208 0.8293139934539795
0.470676988363266 0.26261600852012634 0.875137984752655
0.470676988363266 0.2625789940357208 0.8293139934539795
0.46844199299812317 0.2674880027770996 0.8751339912414551
0.46844199299812317 0.2674509882926941 0.8293099999427795
0.46758800745010376 0.2753709852695465 0.8751270174980164
0.46758800745010376 0.27533501386642456 0.8293039798736572
0.46844199299812317 0.2832539975643158 0.875120997428894
0.46844199299812317 0.28321799635887146 0.8292980194091797
0.470676988363266 0.28812700510025024 0.8751170039176941
0.470676988363266 0.2880899906158447 0.8292940258979797
0.4734399914741516 0.28812700510025024 0.8751170039176941
0.4734399914741516 0.2880899906158447 0.8292940258979797
0.4756760001182556 0.2832539975643158 0.875120997428894
0.4756760001182556 0.28321799635887146 0.8292980194091797
0.47652900218963623 0.2217240035533905 0.8751270174980164
0.4756760001182556 0.2138410061597824 0.8751339912414551
0.47652900218963623 0.22168800234794617 0.8293039798736572
0.4756760001182556 0.21380400657653809 0.8293099999427795
0.4720590114593506 0.22168800234794617 0.8293039798736572
0.4720590114593506 0.2217240035533905 0.8751270174980164
0.4734399914741516 0.20896899700164795 0.875137984752655
0.4734399914741516 0.20893199741840363 0.8293139934539795
0.470676988363266 0.20896899700164795 0.875137984752655
0.470676988363266 0.20893199741840363 0.8293139934539795
0.46844199299812317 0.2138410061597824 0.8751339912414551
0.46844199299812317 0.21380400657653809 0.8293099999427795
0.46758800745010376 0.2217240035533905 0.8751270174980164
0.46758800745010376 0.22168800234794617 0.8293039798736572
0.46844199299812317 0.2296070009469986 0.875120997428894
0.46844199299812317 0.22957099974155426 0.8292980194091797
0.470676988363266 0.23447899520397186 0.8751170039176941
0.470676988363266 0.23444299399852753 0.8292940258979797
0.4734399914741516 0.23447899520397186 0.8751170039176941
0.4734399914741516 0.23444299399852753 0.8292940258979797
0.4756760001182556 0.2296070009469986 0.875120997428894
0.4756760001182556 0.22957099974155426 0.8292980194091797
0.5739880204200745 0.2485480010509491 0.8751270174980164
0.5711709856987 0.24592000246047974 0.875128984451294
0.5739880204200745 0.24851100146770477 0.8293039798736572
0.5711709856987 0.2458830028772354 0.8293060064315796
0.5592349767684937 0.24851100146770477 0.8293039798736572
0.5592349767684937 0.2485480010509491 0.8751270174980164
0.5637940168380737 0.24429599940776825 0.8751310110092163
0.5637940168380737 0.24425899982452393 0.8293070197105408
0.5546759963035583 0.24429599940776825 0.8751310110092163
0.5546759963035583 0.24425899982452393 0.8293070197105408
0.5472999811172485 0.24592000246047974 0.875128984451294
0.5472999811172485 0.2458830028772354 0.8293060064315796
0.5444819927215576 0.2485480010509491 0.8751270174980164
0.5444819927215576 0.24851100146770477 0.8293039798736572
0.5472999811172485 0.2511749863624573 0.875124990940094
0.5472999811172485 0.25113898515701294 0.8293020129203796
0.5546759963035583 0.25279900431632996 0.8751239776611328
0.5546759963035583 0.2527630031108856 0.8292999863624573
0.5637940168380737 0.25279900431632996 0.8751239776611328
0.5637940168380737 0.2527630031108856 0.8292999863624573
0.5711709856987 0.2511749863624573 0.875124990940094
0.5711709856987 0.25113898515701294 0.8293020129203796
0.39963498711586 0.2485480010509491 0.8751270174980164
0.39681801199913025 0.24592000246047974 0.875128984451294
0.39963498711586 0.24851100146770477 0.8293039798736572
0.39681801199913025 0.2458830028772354 0.8293060064315796
0.38488200306892395 0.24851100146770477 0.8293039798736572
0.38488200306892395 0.2485480010509491 0.8751270174980164
0.38944101333618164 0.24429599940776825 0.8751310110092163
0.38944101333618164 0.24425899982452393 0.8293070197105408
0.38032299280166626 0.24429599940776825 0.8751310110092163
0.38032299280166626 0.24425899982452393 0.8293070197105408
0.37294700741767883 0.24592000246047974 0.875128984451294
0.37294700741767883 0.2458830028772354 0.8293060064315796
0.3701289892196655 0.2485480010509491 0.8751270174980164
0.3701289892196655 0.24851100146770477 0.8293039798736572
0.37294700741767883 0.2511749863624573 0.875124990940094
0.37294700741767883 0.25113898515701294 0.8293020129203796
0.38032299280166626 0.25279900431632996 0.8751239776611328
0.38032299280166626 0.2527630031108856 0.8292999863624573
0.38944101333618164 0.25279900431632996 0.8751239776611328
0.38944101333618164 0.2527630031108856 0.8292999863624573
0.39681801199913025 0.2511749863624573 0.875124990940094
0.39681801199913025 0.25113898515701294 0.8293020129203796
0.1088239997625351 0.31782400608062744 0.8343330025672913
0.8352940082550049 0.31782400608062744 0.8343330025672913
0.8352940082550049 0.8855879902839661 0.8343330025672913
0.1088239997625351 0.8855879902839661 0.8343330025672913
0.1088239997625351 0.31782400608062744 0.856685996055603
0.8352940082550049 0.31782400608062744 0.856685996055603
0.8352940082550049 0.8855879902839661 0.856685996055603
0.1088239997625351 0.8855879902839661 0.856685996055603
0.02500000037252903 0.9750000238418579 0.7854769825935364
0.9191179871559143 0.9750000238418579 0.7854769825935364
0.9191179871559143 0.17029400169849396 0.7848359942436218
0.02500000037252903 0.17029400169849396 0.7848359942436218
0.027235299348831177 0.9730240106582642 0.7407699823379517
0.9168819785118103 0.9730240106582642 0.7407699823379517
0.9168819785118103 0.17234200239181519 0.7401319742202759
0.027235299348831177 0.17234200239181519 0.7401319742202759
0.03394119814038277 0.967024028301239 0.696058988571167
0.9101759791374207 0.967024028301239 0.696058988571167
0.9101759791374207 0.17841200530529022 0.6954309940338135
0.03394119814038277 0.17841200530529022 0.6954309940338135
0.040647100657224655 0.9610239863395691 0.6513479948043823
0.9034709930419922 0.9610239863395691 0.6513479948043823
0.9034709930419922 0.18448300659656525 0.6507300138473511
0.040647100657224655 0.18448300659656525 0.6507300138473511
0.04958819970488548 0.953013002872467 0.6066359877586365
0.8945289850234985 0.953013002872467 0.6066359877586365
0.8945289850234985 0.19256600737571716 0.6060310006141663
0.04958819970488548 0.19256600737571716 0.6060310006141663
0.060764700174331665 0.9429900050163269 0.561922013759613
0.8833529949188232 0.9429900050163269 0.561922013759613
0.8833529949188232 0.2026599943637848 0.5613330006599426
0.060764700174331665 0.2026599943637848 0.5613330006599426
0.07417649775743484 0.9309549927711487 0.5172070264816284
0.869940996170044 0.9309549927711487 0.5172070264816284
0.869940996170044 0.2147669941186905 0.5166360139846802
0.07417649775743484 0.2147669941186905 0.5166360139846802
0.08982349932193756 0.9169080257415771 0.47249001264572144
0.8542940020561218 0.9169080257415771 0.47249001264572144
0.8542940020561218 0.2288849949836731 0.4719420075416565
0.08982349932193756 0.2288849949836731 0.4719420075416565
0.11888200044631958 0.8907909989356995 0.4277629852294922
0.8252350091934204 0.8907909989356995 0.4277629852294922
0.8252350091934204 0.25507301092147827 0.4272570013999939
0.11888200044631958 0.25507301092147827 0.4272570013999939
0.14123499393463135 0.8707090020179749 0.38304099440574646
0.8028820157051086 0.8707090020179749 0.38304099440574646
0.8028820157051086 0.27522599697113037 0.38256698846817017
0.14123499393463135 0.27522599697113037 0.38256698846817017
0.15911799669265747 0.8546500205993652 0.3383220136165619
0.7850000262260437 0.8546500205993652 0.3383220136165619
0.7850000262260437 0.29135599732398987 0.33787399530410767
0.15911799669265747 0.29135599732398987 0.33787399530410767
0.17252899706363678 0.842615008354187 0.2936069965362549
0.7715880274772644 0.842615008354187 0.2936069965362549
0.7715880274772644 0.3034619987010956 0.293177992105484
0.17252899706363678 0.3034619987010956 0.293177992105484
0.18594099581241608 0.8305799961090088 0.24889099597930908
0.7581760287284851 0.8305799961090088 0.24889099597930908
0.7581760287284851 0.3155680000782013 0.24848100543022156
0.18594099581241608 0.3155680000782013 0.24848100543022156
0.19935299456119537 0.8185449838638306 0.20417599380016327
0.7447649836540222 0.8185449838638306 0.20417599380016327
0.7447649836540222 0.3276750147342682 0.2037850022315979
0.19935299456119537 0.3276750147342682 0.2037850022315979
0.21276499330997467 0.8065099716186523 0.15945999324321747
0.7313529849052429 0.8065099716186523 0.15945999324321747
0.7313529849052429 0.3397809863090515 0.15908899903297424
0.21276499330997467 0.3397809863090515 0.15908899903297424
0.22617599368095398 0.7944750189781189 0.11474499851465225
0.7179409861564636 0.7944750189781189 0.11474499851465225
0.7179409861564636 0.3518869876861572 0.11439300328493118
0.22617599368095398 0.3518869876861572 0.11439300328493118
0.23958800733089447 0.7824400067329407 0.07002949714660645
0.7045289874076843 0.7824400067329407 0.07002949714660645
0.7045289874076843 0.36399298906326294 0.06969629973173141
0.23958800733089447 0.36399298906326294 0.06969629973173141
0.2529999911785126 0.7704049944877625 0.025313999503850937
0.6911180019378662 0.7704049944877625 0.025313999503850937
0.6911180019378662 0.37609899044036865 0.02500000037252903
0.2529999911785126 0.37609899044036865 0.02500000037252903
0.25076499581336975 0.24852900207042694 0.04750970005989075
0.693352997303009 0.24852900207042694 0.04750970005989075
0.693352997303009 0.38264700770378113 0.04750970005989075
0.25076499581336975 0.38264700770378113 0.04750970005989075
0.25076499581336975 0.24852900207042694 0.8522160053253174
0.693352997303009 0.24852900207042694 0.8522160053253174
0.693352997303009 0.38264700770378113 0.8522160053253174
0.25076499581336975 0.38264700770378113 0.8522160053253174
0.25076499581336975 0.24852900207042694 0.8075100183486938
0.693352997303009 0.24852900207042694 0.8075100183486938
0.693352997303009 0.38264700770378113 0.8075100183486938
0.25076499581336975 0.38264700770378113 0.8075100183486938
0.4720590114593506 0.6419410109519958 0.5504509806632996
0.4720590114593506 0.627718985080719 0.6402480006217957
0.41927799582481384 0.627718985080719 0.6230980157852173
0.3866569995880127 0.627718985080719 0.5781999826431274
0.3866569995880127 0.627718985080719 0.5227019786834717
0.41927799582481384 0.627718985080719 0.4778040051460266
0.4720590114593506 0.627718985080719 0.46065399050712585
0.5248399972915649 0.627718985080719 0.4778040051460266
0.5574610233306885 0.627718985080719 0.5227019786834717
0.5574610233306885 0.627718985080719 0.5781999826431274
0.5248399972915649 0.627718985080719 0.6230980157852173
0.4720590114593506 0.5864440202713013 0.7212539911270142
0.37166300415992737 0.5864440202713013 0.6886339783668518
0.30961498618125916 0.5864440202713013 0.6032320261001587
0.30961498618125916 0.5864440202713013 0.4976699948310852
0.37166300415992737 0.5864440202713013 0.4122680127620697
0.4720590114593506 0.5864440202713013 0.37964698672294617
0.5724549889564514 0.5864440202713013 0.4122680127620697
0.6345030069351196 0.5864440202713013 0.4976699948310852
0.6345030069351196 0.5864440202713013 0.6032320261001587
0.5724549889564514 0.5864440202713013 0.6886339783668518
0.4720590114593506 0.5221560001373291 0.7855420112609863
0.33387601375579834 0.5221560001373291 0.7406430244445801
0.24847400188446045 0.5221560001373291 0.6230980157852173
0.24847400188446045 0.5221560001373291 0.4778040051460266
0.33387601375579834 0.5221560001373291 0.360258013010025
0.4720590114593506 0.5221560001373291 0.31536000967025757
0.6102420091629028 0.5221560001373291 0.360258013010025
0.6956430077552795 0.5221560001373291 0.4778040051460266
0.6956430077552795 0.5221560001373291 0.6230980157852173
0.6102420091629028 0.5221560001373291 0.7406430244445801
0.4720590114593506 0.4411500096321106 0.826816976070404
0.30961498618125916 0.4411500096321106 0.7740359902381897
0.20921899378299713 0.4411500096321106 0.6358529925346375
0.20921899378299713 0.4411500096321106 0.46504899859428406
0.30961498618125916 0.4411500096321106 0.3268660008907318
0.4720590114593506 0.4411500096321106 0.27408498525619507
0.6345030069351196 0.4411500096321106 0.3268660008907318
0.7348979711532593 0.4411500096321106 0.46504899859428406
0.7348979711532593 0.4411500096321106 0.6358529925346375
0.6345030069351196 0.4411500096321106 0.7740359902381897
0.4720590114593506 0.3513529896736145 0.8410390019416809
0.3012549877166748 0.3513529896736145 0.7855420112609863
0.1956930011510849 0.3513529896736145 0.6402480006217957
0.1956930011510849 0.3513529896736145 0.46065399050712585
0.3012549877166748 0.3513529896736145 0.31536000967025757
0.4720590114593506 0.3513529896736145 0.2598629891872406
0.6428620219230652 0.3513529896736145 0.31536000967025757
0.7484250068664551 0.3513529896736145 0.46065399050712585
0.7484250068664551 0.3513529896736145 0.6402480006217957
0.6428620219230652 0.3513529896736145 0.7855420112609863
0.4720590114593506 0.2615559995174408 0.826816976070404
0.30961498618125916 0.2615559995174408 0.7740359902381897
0.20921899378299713 0.2615559995174408 0.6358529925346375
0.20921899378299713 0.2615559995174408 0.46504899859428406
0.30961498618125916 0.2615559995174408 0.3268660008907318
0.4720590114593506 0.2615559995174408 0.27408498525619507
0.6345030069351196 0.2615559995174408 0.3268660008907318
0.7348979711532593 0.2615559995174408 0.46504899859428406
0.7348979711532593 0.2615559995174408 0.6358529925346375
0.6345030069351196 0.2615559995174408 0.7740359902381897
0.4720590114593506 0.1805489957332611 0.7855420112609863
0.33387601375579834 0.1805489957332611 0.7406430244445801
0.24847400188446045 0.1805489957332611 0.6230980157852173
0.24847400188446045 0.1805489957332611 0.4778040051460266
0.33387601375579834 0.1805489957332611 0.360258013010025
0.4720590114593506 0.1805489957332611 0.31536000967025757
0.6102420091629028 0.1805489957332611 0.360258013010025
0.6956430077552795 0.1805489957332611 0.4778040051460266
0.6956430077552795 0.1805489957332611 0.6230980157852173
0.6102420091629028 0.1805489957332611 0.7406430244445801
0.4720590114593506 0.11626199632883072 0.7212539911270142
0.37166300415992737 0.11626199632883072 0.6886339783668518
0.30961498618125916 0.11626199632883072 0.6032320261001587
0.30961498618125916 0.11626199632883072 0.4976699948310852
0.37166300415992737 0.11626199632883072 0.4122680127620697
0.4720590114593506 0.11626199632883072 0.37964698672294617
0.5724549889564514 0.11626199632883072 0.4122680127620697
0.6345030069351196 0.11626199632883072 0.4976699948310852
0.6345030069351196 0.11626199632883072 0.6032320261001587
0.5724549889564514 0.11626199632883072 0.6886339783668518
0.4720590114593506 0.07498709857463837 0.6402480006217957
0.41927799582481384 0.07498709857463837 0.6230980157852173
0.3866569995880127 0.07498709857463837 0.5781999826431274
0.3866569995880127 0.07498709857463837 0.5227019786834717
0.41927799582481384 0.07498709857463837 0.4778040051460266
0.4720590114593506 0.07498709857463837 0.46065399050712585
0.5248399972915649 0.07498709857463837 0.4778040051460266
0.5574610233306885 0.07498709857463837 0.5227019786834717
0.5574610233306885 0.07498709857463837 0.5781999826431274
0.5248399972915649 0.07498709857463837 0.6230980157852173
0.4720590114593506 0.060764700174331665 0.5504509806632996
0.4720590114593506 0.1367650032043457 0.5616269707679749
0.6981080174446106 0.04735289886593819 0.7258610129356384
0.4720590114593506 0.04735289886593819 0.5616269707679749
0.5584020018577576 0.04735289886593819 0.8273640275001526
0.3857159912586212 0.04735289886593819 0.8273640275001526
0.24601000547409058 0.04735289886593819 0.7258610129356384
0.19264699518680573 0.04735289886593819 0.5616269707679749
0.24601000547409058 0.04735289886593819 0.39739298820495605
0.3857159912586212 0.04735289886593819 0.2958909869194031
0.5584020018577576 0.04735289886593819 0.2958909869194031
0.6981080174446106 0.04735289886593819 0.39739298820495605
0.7514709830284119 0.04735289886593819 0.5616269707679749
0.7035329937934875 0.04735289886593819 0.7298030257225037
0.7035329937934875 0.02500000037252903 0.7298030257225037
0.4720590114593506 0.02500000037252903 0.5616269707679749
0.5604739785194397 0.04735289886593819 0.8337410092353821
0.5604739785194397 0.02500000037252903 0.8337410092353821
0.3836440145969391 0.04735289886593819 0.8337410092353821
0.3836440145969391 0.02500000037252903 0.8337410092353821
0.24058499932289124 0.04735289886593819 0.7298030257225037
0.24058499932289124 0.02500000037252903 0.7298030257225037
0.18594099581241608 0.04735289886593819 0.5616269707679749
0.18594099581241608 0.02500000037252903 0.5616269707679749
0.24058499932289124 0.04735289886593819 0.393451988697052
0.24058499932289124 0.02500000037252903 0.393451988697052
0.3836440145969391 0.04735289886593819 0.2895129919052124
0.3836440145969391 0.02500000037252903 0.2895129919052124
0.5604739785194397 0.04735289886593819 0.2895129919052124
0.5604739785194397 0.02500000037252903 0.2895129919052124
0.7035329937934875 0.04735289886593819 0.393451988697052
0.7035329937934875 0.02500000037252903 0.393451988697052
0.7581760287284851 0.04735289886593819 0.5616269707679749
0.7581760287284851 0.02500000037252903 0.5616269707679749
3 0 3 1
3 1 3 2
3 0 5 4
3 0 1 5
3 0 4 3
3 3 4 7
3 3 7 6
3 3 6 2
3 1 6 5
3 1 2 6
3 5 7 4
3 5 6 7
3 8 11 9
3 9 11 10
3 8 13 12
3 8 9 13
3 8 12 11
3 11 12 15
3 11 15 14
3 11 14 10
3 9 14 13
3 9 10 14
3 13 15 12
3 13 14 15
3 16 3 17
3 17 3 10
3 16 19 18
3 16 17 19
3 16 18 3
3 3 18 7
3 3 7 14
3 3 14 10
3 17 14 19
3 17 10 14
3 19 7 18
3 19 14 7
3 0 21 9
3 9 21 20
3 0 13 4
3 0 9 13
3 0 4 21
3 21 4 23
3 21 23 22
3 21 22 20
3 9 22 13
3 9 20 22
3 13 23 4
3 13 22 23
3 24 25 26
3 25 27 26
3 28 26 27
3 29 25 24
3 25 30 27
3 30 31 27
3 28 27 31
3 29 30 25
3 30 32 31
3 32 33 31
3 28 31 33
3 29 32 30
3 32 34 33
3 34 35 33
3 28 33 35
3 29 34 32
3 34 36 35
3 36 37 35
3 28 35 37
3 29 36 34
3 36 38 37
3 38 39 37
3 28 37 39
3 29 38 36
3 38 40 39
3 40 41 39
3 28 39 41
3 29 40 38
3 40 42 41
3 42 43 41
3 28 41 43
3 29 42 40
3 42 44 43
3 44 45 43
3 28 43 45
3 29 44 42
3 44 24 45
3 24 26 45
3 28 45 26
3 29 24 44
3 46 47 48
3 47 49 48
3 50 48 49
3 51 47 46
3 47 52 49
3 52 53 49
3 50 49 53
3 51 52 47
3 52 54 53
3 54 55 53
3 50 53 55
3 51 54 52
3 54 56 55
3 56 57 55
3 50 55 57
3 51 56 54
3 56 58 57
3 58 59 57
3 50 57 59
3 51 58 56
3 58 60 59
3 60 61 59
3 50 59 61
3 51 60 58
3 60 62 61
3 62 63 61
3 50 61 63
3 51 62 60
3 62 64 63
3 64 65 63
3 50 63 65
3 51 64 62
3 64 66 65
3 66 67 65
3 50 65 67
3 51 66 64
3 66 46 67
3 46 48 67
3 50 67 48
3 51 46 66
3 68 69 70
3 69 71 70
3 72 70 71
3 73 69 68
3 69 74 71
3 74 75 71
3 72 71 75
3 73 74 69
3 74 76 75
3 76 77 75
3 72 75 77
3 73 76 74
3 76 78 77
3 78 79 77
3 72 77 79
3 73 78 76
3 78 80 79
3 80 81 79
3 72 79 81
3 73 80 78
3 80 82 81
3 82 83 81
3 72 81 83
3 73 82 80
3 82 84 83
3 84 85 83
3 72 83 85
3 73 84 82
3 84 86 85
3 86 87 85
3 72 85 87
3 73 86 84
3 86 88 87
3 88 89 87
3 72 87 89
3 73 88 86
3 88 68 89
3 68 70 89
3 72 89 70
3 73 68 88
3 90 91 92
3 91 93 92
3 94 92 93
3 95 91 90
3 91 96 93
3 96 97 93
3 94 93 97
3 95 96 91
3 96 98 97
3 98 99 97
3 94 97 99
3 95 98 96
3 98 100 99
3 100 101 99
3 94 99 101
3 95 100 98
3 100 102 101
3 102 103 101
3 94 101 103
3 95 102 100
3 102 104 103
3 104 105 103
3 94 103 105
3 95 104 102
3 104 106 105
3 106 107 105
3 94 105 107
3 95 106 104
3 106 108 107
3 108 109 107
3 94 107 109
3 95 108 106
3 108 110 109
3 110 111 109
3 94 109 111
3 95 110 108
3 110 90 111
3 90 92 111
3 94 111 92
3 95 90 110
3 112 113 114
3 113 115 114
3 116 114 115
3 117 113 112
3 113 118 115
3 118 119 115
3 116 115 119
3 117 118 113
3 118 120 119
3 120 121 119
3 116 119 121
3 117 120 118
3 120 122 121
3 122 123 121
3 116 121 123
3 117 122 120
3 122 124 123
3 124 125 123
3 116 123 125
3 117 124 122
3 124 126 125
3 126 127 125
3 116 125 127
3 117 126 124
3 126 128 127
3 128 129 127
3 116 127 129
3 117 128 126
3 128 130 129
3 130 131 129
3 116 129 131
3 117 130 128
3 130 132 131
3 132 133 131
3 116 131 133
3 117 132 130
3 132 112 133
3 112 114 133
3 116 133 114
3 117 112 132
3 134 135 136
3 135 137 136
3 138 136 137
3 139 135 134
3 135 140 137
3 140 141 137
3 138 137 141
3 139 140 135
3 140 142 141
3 142 143 141
3 138 141 143
3 139 142 140
3 142 144 143
3 144 145 143
3 138 143 145
3 139 144 142
3 144 146 145
3 146 147 145
3 138 145 147
3 139 146 144
3 146 148 147
3 148 149 147
3 138 147 149
3 139 148 146
3 148 150 149
3 150 151 149
3 138 149 151
3 139 150 148
3 150 152 151
3 152 153 151
3 138 151 153
3 139 152 150
3 152 154 153
3 154 155 153
3 138 153 155
3 139 154 152
3 154 134 155
3 134 136 155
3 138 155 136
3 139 134 154
3 156 157 158
3 157 159 158
3 160 158 159
3 161 157 156
3 157 162 159
3 162 163 159
3 160 159 163
3 161 162 157
3 162 164 163
3 164 165 163
3 160 163 165
3 161 164 162
3 164 166 165
3 166 167 165
3 160 165 167
3 161 166 164
3 166 168 167
3 168 169 167
3 160 167 169
3 161 168 166
3 168 170 169
3 170 171 169
3 160 169 171
3 161 170 168
3 170 172 171
3 172 173 171
3 160 171 173
3 161 172 170
3 172 174 173
3 174 175 173
3 160 173 175
3 161 174 172
3 174 176 175
3 176 177 175
3 160 175 177
3 161 176 174
3 176 156 177
3 156 158 177
3 160 177 158
3 161 156 176
3 178 181 179
3 179 181 180
3 178 183 182
3 178 179 183
3 178 182 181
3 181 182 185
3 181 185 184
3 181 184 180
3 179 184 183
3 179 180 184
3 183 185 182
3 183 184 185
3 188 187 186
3 189 188 186
3 186 191 190
3 186 187 191
3 187 192 191
3 187 188 192
3 188 193 192
3 188 189 193
3 189 190 193
3 189 186 190
3 190 195 194
3 190 191 195
3 191 196 195
3 191 192 196
3 192 197 196
3 192 193 197
3 193 194 197
3 193 190 194
3 194 199 198
3 194 195 199
3 195 200 199
3 195 196 200
3 196 201 200
3 196 197 201
3 197 198 201
3 197 194 198
3 198 203 202
3 198 199 203
3 199 204 203
3 199 200 204
3 200 205 204
3 200 201 205
3 201 202 205
3 201 198 202
3 202 207 206
3 202 203 207
3 203 208 207
3 203 204 208
3 204 209 208
3 204 205 209
3 205 206 209
3 205 202 206
3 206 211 210
3 206 207 211
3 207 212 211
3 207 208 212
3 208 213 212
3 208 209 213
3 209 210 213
3 209 206 210
3 210 215 214
3 210 211 215
3 211 216 215
3 211 212 216
3 212 217 216
3 212 213 217
3 213 214 217
3 213 210 214
3 214 219 218
3 214 215 219
3 215 220 219
3 215 216 220
3 216 221 220
3 216 217 221
3 217 218 221
3 217 214 218
3 218 223 222
3 218 219 223
3 219 224 223
3 219 220 224
3 220 225 224
3 220 221 225
3 221 222 225
3 221 218 222
3 222 227 226
3 222 223 227
3 223 228 227
3 223 224 228
3 224 229 228
3 224 225 229
3 225 226 229
3 225 222 226
3 226 231 230
3 226 227 231
3 227 232 231
3 227 228 232
3 228 233 232
3 228 229 233
3 229 230 233
3 229 226 230
3 230 235 234
3 230 231 235
3 231 236 235
3 231 232 236
3 232 237 236
3 232 233 237
3 233 234 237
3 233 230 234
3 234 239 238
3 234 235 239
3 235 240 239
3 235 236 240
3 236 241 240
3 236 237 241
3 237 238 241
3 237 234 238
3 238 243 242
3 238 239 243
3 239 244 243
3 239 240 244
3 240 245 244
3 240 241 245
3 241 242 245
3 241 238 242
3 242 247 246
3 242 243 247
3 243 248 247
3 243 244 248
3 244 249 248
3 244 245 249
3 245 246 249
3 245 242 246
3 246 251 250
3 246 247 251
3 247 252 251
3 247 248 252
3 248 253 252
3 248 249 253
3 249 250 253
3 249 246 250
3 250 255 254
3 250 251 255
3 251 256 255
3 251 252 256
3 252 257 256
3 252 253 257
3 253 254 257
3 253 250 254
3 254 255 256
3 254 256 257
3 258 261 259
3 259 261 260
3 258 263 262
3 258 259 263
3 258 262 261
3 261 262 265
3 261 265 264
3 261 264 260
3 259 264 263
3 259 260 264
3 263 265 262
3 263 264 265
3 258 261 259
3 259 261 260
3 258 267 266
3 258 259 267
3 258 266 261
3 261 266 269
3 261 269 268
3 261 268 260
3 259 268 267
3 259 260 268
3 267 269 266
3 267 268 269
3 271 272 270
3 272 273 270
3 273 274 270
3 274 275 270
3 275 276 270
3 276 277 270
3 277 278 270
3 278 279 270
3 279 280 270
3 280 271 270
3 271 281 272
3 281 282 272
3 272 282 273
3 282 283 273
3 273 283 274
3 283 284 274
3 274 284 275
3 284 285 275
3 275 285 276
3 285 286 276
3 276 286 277
3 286 287 277
3 277 287 278
3 287 288 278
3 278 288 279
3 288 289 279
3 279 289 280
3 289 290 280
3 280 290 271
3 290 281 271
3 281 291 282
3 291 292 282
3 282 292 283
3 292 293 283
3 283 293 284
3 293 294 284
3 284 294 285
3 294 295 285
3 285 295 286
3 295 296 286
3 286 296 287
3 296 297 287
3 287 297 288
3 297 298 288
3 288 298 289
3 298 299 289
3 289 299 290
3 299 300 290
3 290 300 281
3 300 291 281
3 291 301 292
3 301 302 292
3 292 302 293
3 302 303 293
3 293 303 294
3 303 304 294
3 294 304 295
3 304 305 295
3 295 305 296
3 305 306 296
3 296 306 297
3 306 307 297
3 297 307 298
3 307 308 298
3 298 308 299
3 308 309 299
3 299 309 300
3 309 310 300
3 300 310 291
3 310 301 291
3 301 311 302
3 311 312 302
3 302 312 303
3 312 313 303
3 303 313 304
3 313 314 304
3 304 314 305
3 314 315 305
3 305 315 306
3 315 316 306
3 306 316 307
3 316 317 307
3 307 317 308
3 317 318 308
3 308 318 309
3 318 319 309
3 309 319 310
3 319 320 310
3 310 320 301
3 320 311 301
3 311 321 312
3 321 322 312
3 312 322 313
3 322 323 313
3 313 323 314
3 323 324 314
3 314 324 315
3 324 325 315
3 315 325 316
3 325 326 316
3 316 326 317
3 326 327 317
3 317 327 318
3 327 328 318
3 318 328 319
3 328 329 319
3 319 329 320
3 329 330 320
3 320 330 311
3 330 321 311
3 321 331 322
3 331 332 322
3 322 332 323
3 332 333 323
3 323 333 324
3 333 334 324
3 324 334 325
3 334 335 325
3 325 335 326
3 335 336 326
3 326 336 327
3 336 337 327
3 327 337 328
3 337 338 328
3 328 338 329
3 338 339 329
3 329 339 330
3 339 340 330
3 330 340 321
3 340 331 321
3 331 341 332
3 341 342 332
3 332 342 333
3 342 343 333
3 333 343 334
3 343 344 334
3 334 344 335
3 344 345 335
3 335 345 336
3 345 346 336
3 336 346 337
3 346 347 337
3 337 347 338
3 347 348 338
3 338 348 339
3 348 349 339
3 339 349 340
3 349 350 340
3 340 350 331
3 350 341 331
3 341 351 342
3 351 352 342
3 342 352 343
3 352 353 343
3 343 353 344
3 353 354 344
3 344 354 345
3 354 355 345
3 345 355 346
3 355 356 346
3 346 356 347
3 356 357 347
3 347 357 348
3 357 358 348
3 348 358 349
3 358 359 349
3 349 359 350
3 359 360 350
3 350 360 341
3 360 351 341
3 351 361 352
3 361 361 352
3 352 361 353
3 353 361 354
3 354 361 355
3 361 361 355
3 355 361 356
3 361 361 356
3 356 361 357
3 361 361 357
3 357 361 358
3 358 361 359
3 359 361 360
3 360 361 351
3 361 361 351
3 362 363 373
3 364 373 363
3 362 365 363
3 364 363 365
3 362 366 365
3 364 365 366
3 362 367 366
3 364 366 367
3 362 368 367
3 364 367 368
3 362 369 368
3 364 368 369
3 362 370 369
3 364 369 370
3 362 371 370
3 364 370 371
3 362 372 371
3 364 371 372
3 362 373 372
3 364 372 373
3 393 374 394
3 374 375 394
3 376 394 375
3 364 374 393
3 374 377 375
3 377 378 375
3 376 375 378
3 364 377 374
3 377 379 378
3 379 380 378
3 376 378 380
3 364 379 377
3 379 381 380
3 381 382 380
3 376 380 382
3 364 381 379
3 381 383 382
3 383 384 382
3 376 382 384
3 364 383 381
3 383 385 384
3 385 386 384
3 376 384 386
3 364 385 383
3 385 387 386
3 387 388 386
3 376 386 388
3 364 387 385
3 387 389 388
3 389 390 388
3 376 388 390
3 364 389 387
3 389 391 390
3 391 392 390
3 376 390 392
3 364 391 389
3 391 393 392
3 393 394 392
3 376 392 394
3 364 393 391
