ply
format ascii 1.0
element vertex 163
property float x
property float y
property float z
element face 294
property list uchar int vertex_indices
end_header
0.27500200271606445 0.0851769968867302 0.20464499294757843
0.27500200271606445 0.05000000074505806 0.20464499294757843
0.7250009775161743 0.05000000074505806 0.2046460062265396
0.7250009775161743 0.0851769968867302 0.2046460062265396
0.7250009775161743 0.050000499933958054 0.2614299952983856
0.7250009775161743 0.050000499933958054 0.47964000701904297
0.7250009775161743 0.0851769968867302 0.47964000701904297
0.7250009775161743 0.05000010132789612 0.248757004737854
0.7250009775161743 0.05000019818544388 0.2534720003604889
0.7250009775161743 0.05000029876828194 0.256864994764328
0.7139840126037598 0.050000499933958054 0.5491870045661926
0.7139840126037598 0.0851769968867302 0.5491870045661926
0.6820229887962341 0.050000499933958054 0.6119059920310974
0.6820229887962341 0.0851769968867302 0.6119059920310974
0.6322450041770935 0.0851769968867302 0.6616790294647217
0.6322450041770935 0.05000080168247223 0.6616790294647217
0.5695229768753052 0.05000080168247223 0.6936349868774414
0.5695229768753052 0.0851769968867302 0.6936349868774414
0.49999600648880005 0.05000089854001999 0.7046449780464172
0.49999600648880005 0.0851769968867302 0.7046449780464172
0.43046900629997253 0.05000080168247223 0.6936320066452026
0.43046900629997253 0.0851769968867302 0.6936320066452026
0.3677479922771454 0.05000080168247223 0.6616730093955994
0.3677479922771454 0.0851769968867302 0.6616730093955994
0.31797200441360474 0.0851769968867302 0.6118980050086975
0.31797200441360474 0.050000499933958054 0.6118980050086975
0.28601399064064026 0.050000499933958054 0.5491769909858704
0.28601399064064026 0.0851769968867302 0.5491769909858704
0.27500098943710327 0.050000499933958054 0.47964999079704285
0.27500098943710327 0.0851769968867302 0.47964999079704285
0.27500098943710327 0.050000499933958054 0.26886698603630066
0.27500098943710327 0.05000029876828194 0.26433300971984863
0.27500098943710327 0.05000019818544388 0.26084399223327637
0.27500098943710327 0.05000010132789612 0.25582000613212585
0.48392701148986816 0.0851769968867302 0.5221899747848511
0.7801820039749146 0.05000099912285805 0.7661309838294983
0.21981799602508545 0.05000099912285805 0.7661299705505371
0.7880780100822449 0.050000499933958054 0.7582359910011292
0.788079023361206 0.050000499933958054 0.20013999938964844
0.7868599891662598 0.05000019818544388 0.19558900594711304
0.7847350239753723 0.05000010132789612 0.19346299767494202
0.7801830172538757 0.05000000074505806 0.19224299490451813
0.21981999278068542 0.05000000074505806 0.19224199652671814
0.21526800096035004 0.05000010132789612 0.19346199929714203
0.2131430059671402 0.05000019818544388 0.19558799266815186
0.2119240015745163 0.050000499933958054 0.20013800263404846
0.21192200481891632 0.050000499933958054 0.758234977722168
0.781827986240387 0.04375109821557999 0.7786309719085693
0.21817199885845184 0.04375109821557999 0.7786300182342529
0.20879699289798737 0.04375090077519417 0.7761179804801941
0.21526800096035004 0.05000089854001999 0.7649109959602356
0.7847319841384888 0.05000089854001999 0.7649120092391968
0.7912030220031738 0.04375090077519417 0.7761189937591553
0.20193399488925934 0.04375080019235611 0.7692549824714661
0.21314099431037903 0.05000080168247223 0.7627840042114258
0.7868589758872986 0.05000080168247223 0.7627859711647034
0.7980660200119019 0.04375080019235611 0.7692570090293884
0.8005779981613159 0.043750498443841934 0.7598819732666016
0.19942200183868408 0.043750498443841934 0.7598810195922852
0.8005790114402771 0.043750498443841934 0.19849400222301483
0.7980679869651794 0.04375020042061806 0.18911899626255035
0.19942399859428406 0.043750498443841934 0.19849300384521484
0.20193499326705933 0.04375020042061806 0.18911799788475037
0.7912060022354126 0.04374999925494194 0.18225599825382233
0.20879699289798737 0.04374999925494194 0.18225499987602234
0.21817399561405182 0.04374999925494194 0.1797419935464859
0.7818289995193481 0.04374999925494194 0.17974300682544708
0.781827986240387 0.025001099333167076 0.7786309719085693
0.21817199885845184 0.025001099333167076 0.7786300182342529
0.7912030220031738 0.025001000612974167 0.7761189937591553
0.20879699289798737 0.025001000612974167 0.7761179804801941
0.20193399488925934 0.02500079944729805 0.7692549824714661
0.7980660200119019 0.02500079944729805 0.7692570090293884
0.19942200183868408 0.025000600144267082 0.7598810195922852
0.8005779981613159 0.025000600144267082 0.7598819732666016
0.19942399859428406 0.025000499561429024 0.19849300384521484
0.7980679869651794 0.025000300258398056 0.18911899626255035
0.8005790114402771 0.025000499561429024 0.19849400222301483
0.20193499326705933 0.025000300258398056 0.18911799788475037
0.7912060022354126 0.02500009909272194 0.18225599825382233
0.20879699289798737 0.02500009909272194 0.18225499987602234
0.21817399561405182 0.02500000037252903 0.1797419935464859
0.7818289995193481 0.02500000037252903 0.17974300682544708
0.22892500460147858 0.2916580140590668 0.47679999470710754
0.1822109967470169 0.17871299386024475 0.6000199913978577
0.22978700697422028 0.31620898842811584 0.45001500844955444
0.7710750102996826 0.2916580140590668 0.4768010079860687
0.8177899718284607 0.17871299386024475 0.60002201795578
0.7702140212059021 0.31620898842811584 0.4500170052051544
0.1292950063943863 0.17871800065040588 0.8192340135574341
0.13172900676727295 0.17871800065040588 0.8230699896812439
0.8682699799537659 0.17871800065040588 0.8230720162391663
0.11064299941062927 0.1787170022726059 0.7891629934310913
0.8893569707870483 0.1787170022726059 0.7891650199890137
0.8858259916305542 0.17871800065040588 0.7947369813919067
0.7574219703674316 0.37476301193237305 0.051776401698589325
0.24257999658584595 0.37476301193237305 0.0517750009894371
0.7636520266532898 0.3462570011615753 0.24565400183200836
0.23739999532699585 0.35104501247406006 0.21308299899101257
0.13172900676727295 0.13770100474357605 0.8230710029602051
0.8682699799537659 0.13770100474357605 0.8230730295181274
0.7574219703674316 0.22307699918746948 0.05132640153169632
0.7710750102996826 0.11871600151062012 0.4764310121536255
0.8893569707870483 0.11871600151062012 0.7890380024909973
0.24257999658584595 0.22307699918746948 0.0513250008225441
0.22892600297927856 0.11871600151062012 0.4764299988746643
0.11064299941062927 0.11871600151062012 0.789035975933075
0.21250100433826447 0.31620898842811584 0.45001500844955444
0.2250020056962967 0.378697007894516 0.025015000253915787
0.7750020027160645 0.378697007894516 0.025016499683260918
0.7875009775161743 0.31620898842811584 0.4500170052051544
0.9750000238418579 0.17871299386024475 0.60002201795578
0.02500070072710514 0.17871299386024475 0.6000189781188965
0.9749990105628967 0.17871999740600586 0.8750219941139221
0.02500000037252903 0.17871999740600586 0.8750190138816833
0.02500070072710514 0.9369930028915405 0.5999940037727356
0.02500000037252903 0.9370030164718628 0.8749939799308777
0.9750000238418579 0.9369930028915405 0.5999969840049744
0.9749990105628967 0.9370030164718628 0.8749970197677612
0.9187489748001099 0.23497000336647034 0.8750200271606445
0.9187489748001099 0.8807529807090759 0.8749979734420776
0.08124999701976776 0.8807529807090759 0.8749960064888
0.08124999701976776 0.23497000336647034 0.8750180006027222
0.21250100433826447 0.7994930148124695 0.44999998807907104
0.7875009775161743 0.7994930148124695 0.4500020146369934
0.2250020056962967 0.7369779944419861 0.02500000037252903
0.7750020027160645 0.7369779944419861 0.02500149980187416
0.6689159870147705 0.13550299406051636 0.408050000667572
0.6639289855957031 0.1377200037240982 0.3990199863910675
0.33108100295066833 0.13550199568271637 0.4080530107021332
0.33605098724365234 0.13771100342273712 0.39905598759651184
0.6700569987297058 0.12303700298070908 0.45882898569107056
0.6610199809074402 0.11871600151062012 0.4764310121536255
0.3299410045146942 0.12303700298070908 0.45882800221443176
0.33897900581359863 0.11871600151062012 0.4764299988746643
0.5990030169487 0.11871600151062012 0.5883269906044006
0.6495320200920105 0.11871600151062012 0.5193009972572327
0.35046499967575073 0.11871600151062012 0.5192959904670715
0.40100300312042236 0.11871600151062012 0.5883309841156006
0.5000029802322388 0.11871600151062012 0.6245660185813904
0.4224100112915039 0.1616940051317215 0.301362007856369
0.5000029802322388 0.1670369952917099 0.27959901094436646
0.40100300312042236 0.1603199988603592 0.3069609999656677
0.5176129937171936 0.16587699949741364 0.2843270003795624
0.37171000242233276 0.1515589952468872 0.342646986246109
0.38141700625419617 0.15532900393009186 0.32729101181030273
0.6185809969902039 0.15533100068569183 0.3272849917411804
0.5990030169487 0.1603190004825592 0.3069629967212677
0.40100499987602234 0.07494959980249405 0.37309199571609497
0.40100499987602234 0.051976799964904785 0.45882898569107056
0.40100499987602234 0.07494989782571793 0.5445650219917297
0.5000050067901611 0.05197960138320923 0.5578290224075317
0.5990039706230164 0.0749552994966507 0.5445659756660461
0.5990049839019775 0.051982101052999496 0.45882999897003174
0.5990049839019775 0.07495489716529846 0.37309300899505615
0.5990039706230164 0.13771800696849823 0.31032899022102356
0.5000039935112 0.12445200234651566 0.2873559892177582
0.40100398659706116 0.1377130001783371 0.31032899022102356
0.5000060200691223 0.05197929963469505 0.35982900857925415
0.10000000149011612 0.8620030283927917 0.862496018409729
0.10000000149011612 0.2537190020084381 0.8625180125236511
0.8999990224838257 0.8620030283927917 0.8624989986419678
0.8999990224838257 0.2537190020084381 0.8625199794769287
3 2 1 0
3 3 2 0
3 5 4 3
3 6 5 3
3 7 2 3
3 8 7 3
3 9 8 3
3 4 9 3
3 10 5 6
3 11 10 6
3 12 10 11
3 13 12 11
3 16 15 14
3 17 16 14
3 18 16 17
3 19 18 17
3 20 18 19
3 21 20 19
3 22 20 21
3 23 22 21
3 26 25 24
3 27 26 24
3 27 29 28
3 26 27 28
3 31 30 29
3 32 31 29
3 33 32 29
3 1 33 29
3 0 1 29
3 30 28 29
3 23 21 34
3 0 29 34
3 21 19 34
3 19 17 34
3 17 14 34
3 14 13 34
3 13 11 34
3 11 6 34
3 29 27 34
3 6 3 34
3 27 24 34
3 3 0 34
3 24 23 34
3 35 15 16
3 18 20 36
3 20 22 36
3 4 5 37
3 38 4 37
3 5 10 37
3 10 12 37
3 9 4 38
3 39 9 38
3 8 9 39
3 40 8 39
3 7 8 40
3 41 7 40
3 42 1 41
3 42 33 1
3 1 2 41
3 2 7 41
3 32 33 42
3 43 32 42
3 31 32 43
3 44 31 43
3 30 31 44
3 45 30 44
3 46 26 45
3 46 25 26
3 26 28 45
3 28 30 45
3 48 47 35
3 36 48 35
3 49 48 36
3 50 49 36
3 47 52 51
3 35 47 51
3 53 49 50
3 54 53 50
3 52 56 55
3 51 52 55
3 56 57 37
3 55 56 37
3 58 53 54
3 46 58 54
3 57 59 38
3 37 57 38
3 59 60 39
3 38 59 39
3 62 61 45
3 44 62 45
3 61 58 46
3 45 61 46
3 60 63 40
3 39 60 40
3 64 62 44
3 43 64 44
3 65 64 43
3 42 65 43
3 63 66 41
3 40 63 41
3 66 65 42
3 41 66 42
3 68 67 47
3 48 68 47
3 67 69 52
3 47 67 52
3 70 68 48
3 49 70 48
3 71 70 49
3 53 71 49
3 69 72 56
3 52 69 56
3 73 71 53
3 58 73 53
3 72 74 57
3 56 72 57
3 75 73 58
3 61 75 58
3 77 76 60
3 59 77 60
3 74 77 59
3 57 74 59
3 78 75 61
3 62 78 61
3 76 79 63
3 60 76 63
3 80 78 62
3 64 80 62
3 81 80 64
3 65 81 64
3 79 82 66
3 63 79 66
3 82 81 65
3 66 82 65
3 15 12 13
3 14 15 13
3 12 15 37
3 37 15 55
3 55 15 51
3 51 15 35
3 25 22 23
3 24 25 23
3 22 25 46
3 22 46 54
3 22 54 50
3 22 50 36
3 18 35 16
3 18 36 35
3 91 90 99
3 100 91 99
3 95 97 101
3 88 86 102
3 97 88 102
3 101 97 102
3 102 87 103
3 102 86 87
3 87 93 103
3 98 96 104
3 105 98 104
3 85 98 105
3 83 85 105
3 92 84 105
3 106 92 105
3 84 83 105
3 96 95 101
3 104 96 101
3 93 94 103
3 94 91 100
3 103 94 100
3 89 92 106
3 99 89 106
3 90 89 99
3 101 102 105
3 104 101 105
3 100 99 106
3 103 100 106
3 102 103 106
3 105 102 106
3 108 96 107
3 109 95 96
3 108 109 96
3 109 97 95
3 110 88 97
3 109 110 97
3 98 85 107
3 96 98 107
3 86 88 110
3 87 86 110
3 111 87 110
3 83 84 112
3 85 83 112
3 107 85 112
3 94 93 113
3 91 94 113
3 87 111 113
3 93 87 113
3 84 92 114
3 112 84 114
3 92 89 114
3 89 90 114
3 90 91 114
3 91 113 114
3 116 115 112
3 114 116 112
3 113 111 117
3 118 113 117
3 119 113 118
3 120 119 118
3 120 118 116
3 121 120 116
3 118 117 115
3 116 118 115
3 121 116 114
3 122 121 114
3 117 124 123
3 115 117 123
3 115 123 107
3 112 115 107
3 111 110 124
3 117 111 124
3 123 125 108
3 107 123 108
3 110 109 126
3 124 110 126
3 124 126 125
3 123 124 125
3 108 125 126
3 109 108 126
3 122 114 113
3 119 122 113
3 133 129 148
3 149 133 148
3 134 133 149
3 150 134 149
3 150 137 134
3 139 138 150
3 151 139 150
3 135 139 151
3 152 135 151
3 127 131 153
3 154 127 153
3 132 136 152
3 153 132 152
3 153 131 132
3 155 147 146
3 142 140 156
3 157 142 156
3 156 140 141
3 157 145 142
3 128 127 154
3 155 128 154
3 155 146 128
3 150 138 137
3 152 136 135
3 141 143 155
3 156 141 155
3 155 143 147
3 129 130 157
3 148 129 157
3 157 130 144
3 157 144 145
3 158 156 155
3 154 158 155
3 148 157 156
3 158 148 156
3 139 135 136
3 138 139 136
3 137 138 136
3 134 137 136
3 132 134 136
3 130 129 133
3 144 130 133
3 145 144 133
3 142 145 133
3 140 142 133
3 134 140 133
3 143 141 140
3 147 143 140
3 146 147 140
3 128 146 140
3 127 128 140
3 131 127 140
3 132 131 140
3 134 132 140
3 159 121 122
3 160 159 122
3 161 120 121
3 159 161 121
3 162 119 120
3 161 162 120
3 160 122 119
3 162 160 119
3 159 160 162
3 161 159 162
