ply
format ascii 1.0
element vertex 532
property float x
property float y
property float z
element face 1008
property list uchar int vertex_indices
end_header
0.1354839950799942 0.025111300870776176 0.7549170255661011
0.13553500175476074 0.4410800039768219 0.7548670172691345
0.1355309933423996 0.44107601046562195 0.7228670120239258
0.13552500307559967 0.3930729925632477 0.7228729724884033
0.13552099466323853 0.39306899905204773 0.6908730268478394
0.13552699983119965 0.4410719871520996 0.690867006778717
0.1355230063199997 0.44106799364089966 0.6588670015335083
0.13551700115203857 0.3930650055408478 0.6588730216026306
0.13551299273967743 0.3930610120296478 0.6268730163574219
0.13551899790763855 0.4410650134086609 0.6268669962882996
0.1355150043964386 0.44106099009513855 0.5948669910430908
0.13550899922847748 0.3930569887161255 0.594871997833252
0.13550500571727753 0.39305299520492554 0.5628719925880432
0.13551099598407745 0.4410569965839386 0.5628669857978821
0.1355070024728775 0.44105300307273865 0.5308669805526733
0.13550199568271637 0.3930499851703644 0.5308719873428345
0.13549800217151642 0.39304599165916443 0.4988720118999481
0.13550400733947754 0.4410490095615387 0.4988659918308258
0.1354999989271164 0.44104498624801636 0.46686598658561707
0.13549399375915527 0.3930419981479645 0.4668720066547394
0.13549000024795532 0.3930380046367645 0.43487200140953064
0.13549600541591644 0.4410409927368164 0.4348660111427307
0.1354919970035553 0.44103699922561646 0.402866005897522
0.13548600673675537 0.3930340111255646 0.4028719961643219
0.13548199832439423 0.39302998781204224 0.37087199091911316
0.13548800349235535 0.4410330057144165 0.37086600065231323
0.1354839950799942 0.44102999567985535 0.3388659954071045
0.13547800481319427 0.3930259943008423 0.3388719856739044
0.13547399640083313 0.39302200078964233 0.30687201023101807
0.13548000156879425 0.4410260021686554 0.30686599016189575
0.1354759931564331 0.44102200865745544 0.2748660147190094
0.13547100126743317 0.3930189907550812 0.2748720049858093
0.13546699285507202 0.3930149972438812 0.24287199974060059
0.13547299802303314 0.4410179853439331 0.24286599457263947
0.1354690045118332 0.44101399183273315 0.21086600422859192
0.13541799783706665 0.025045400485396385 0.21091599762439728
0.10397999733686447 0.025115100666880608 0.754921019077301
0.10402999818325043 0.44108399748802185 0.7548710107803345
0.10402700304985046 0.4410800039768219 0.7228710055351257
0.10402099788188934 0.39307698607444763 0.7228760123252869
0.1040169969201088 0.3930729925632477 0.6908760070800781
0.10402300208806992 0.44107601046562195 0.690871000289917
0.10401900112628937 0.4410719871520996 0.6588709950447083
0.10401300340890884 0.39306899905204773 0.6588760018348694
0.1040090024471283 0.3930650055408478 0.6268759965896606
0.10401500016450882 0.44106799364089966 0.6268709897994995
0.10401099920272827 0.4410640001296997 0.5948699712753296
0.10400500148534775 0.3930610120296478 0.5948759913444519
0.1040010005235672 0.3930569887161255 0.5628759860992432
0.10400699824094772 0.44106099009513855 0.5628700256347656
0.10400299727916718 0.4410569965839386 0.5308700203895569
0.10399799793958664 0.39305299520492554 0.5308759808540344
0.10399399697780609 0.3930499851703644 0.49887600541114807
0.10399899631738663 0.44105300307273865 0.49886998534202576
0.10399600118398666 0.4410490095615387 0.4668700098991394
0.10399000346660614 0.39304599165916443 0.46687600016593933
0.10398600250482559 0.3930419981479645 0.4348759949207306
0.10399200022220612 0.44104498624801636 0.43487000465393066
0.10398799926042557 0.4410409927368164 0.4028699994087219
0.10398200154304504 0.3930380046367645 0.40287598967552185
0.1039780005812645 0.3930340111255646 0.3708760142326355
0.10398399829864502 0.44103699922561646 0.3708699941635132
0.10397999733686447 0.4410330057144165 0.33886998891830444
0.10397399961948395 0.39302998781204224 0.33887600898742676
0.1039699986577034 0.3930259943008423 0.306876003742218
0.10397599637508392 0.44102999567985535 0.3068700134754181
0.10397200286388397 0.4410260021686554 0.27487000823020935
0.10396700352430344 0.39302200078964233 0.2748759984970093
0.10396300256252289 0.3930189907550812 0.24287599325180054
0.10396800190210342 0.44102200865745544 0.2428700029850006
0.10396499931812286 0.4410179853439331 0.21086999773979187
0.10391400009393692 0.025049200281500816 0.21092000603675842
0.21399199962615967 0.6550790071487427 0.11487100273370743
0.19594499468803406 0.6550790071487427 0.170414999127388
0.21399199962615967 0.025158299133181572 0.11487100273370743
0.19594499468803406 0.025158299133181572 0.170414999127388
0.11949600279331207 0.025158299133181572 0.11487100273370743
0.11949600279331207 0.6550790071487427 0.11487100273370743
0.14869700372219086 0.6550790071487427 0.20474199950695038
0.14869700372219086 0.025158299133181572 0.20474199950695038
0.0902952030301094 0.6550790071487427 0.20474199950695038
0.0902952030301094 0.025158299133181572 0.20474199950695038
0.04304720088839531 0.6550790071487427 0.170414999127388
0.04304720088839531 0.025158299133181572 0.170414999127388
0.02500000037252903 0.6550790071487427 0.11487100273370743
0.02500000037252903 0.025158299133181572 0.11487100273370743
0.04304720088839531 0.6550790071487427 0.05932769924402237
0.04304720088839531 0.025158299133181572 0.05932769924402237
0.0902952030301094 0.6550790071487427 0.02500000037252903
0.0902952030301094 0.025158299133181572 0.02500000037252903
0.14869700372219086 0.6550790071487427 0.02500000037252903
0.14869700372219086 0.025158299133181572 0.02500000037252903
0.19594499468803406 0.6550790071487427 0.05932769924402237
0.19594499468803406 0.025158299133181572 0.05932769924402237
0.9499940276145935 0.6550790071487427 0.11487100273370743
0.9319459795951843 0.6550790071487427 0.170414999127388
0.9499940276145935 0.025158299133181572 0.11487100273370743
0.9319459795951843 0.025158299133181572 0.170414999127388
0.8554970026016235 0.025158299133181572 0.11487100273370743
0.8554970026016235 0.6550790071487427 0.11487100273370743
0.8846979737281799 0.6550790071487427 0.20474199950695038
0.8846979737281799 0.025158299133181572 0.20474199950695038
0.8262969851493835 0.6550790071487427 0.20474199950695038
0.8262969851493835 0.025158299133181572 0.20474199950695038
0.7790480256080627 0.6550790071487427 0.170414999127388
0.7790480256080627 0.025158299133181572 0.170414999127388
0.7610009908676147 0.6550790071487427 0.11487100273370743
0.7610009908676147 0.025158299133181572 0.11487100273370743
0.7790480256080627 0.6550790071487427 0.05932769924402237
0.7790480256080627 0.025158299133181572 0.05932769924402237
0.8262969851493835 0.6550790071487427 0.02500000037252903
0.8262969851493835 0.025158299133181572 0.02500000037252903
0.8846979737281799 0.6550790071487427 0.02500000037252903
0.8846979737281799 0.025158299133181572 0.02500000037252903
0.9319459795951843 0.6550790071487427 0.05932769924402237
0.9319459795951843 0.025158299133181572 0.05932769924402237
0.9499940276145935 0.6550790071487427 0.8508729934692383
0.9319459795951843 0.6550790071487427 0.9064159989356995
0.9499940276145935 0.025158299133181572 0.8508729934692383
0.9319459795951843 0.025158299133181572 0.9064159989356995
0.8554970026016235 0.025158299133181572 0.8508729934692383
0.8554970026016235 0.6550790071487427 0.8508729934692383
0.8846979737281799 0.6550790071487427 0.9407439827919006
0.8846979737281799 0.025158299133181572 0.9407439827919006
0.8262969851493835 0.6550790071487427 0.9407439827919006
0.8262969851493835 0.025158299133181572 0.9407439827919006
0.7790480256080627 0.6550790071487427 0.9064159989356995
0.7790480256080627 0.025158299133181572 0.9064159989356995
0.7610009908676147 0.6550790071487427 0.8508729934692383
0.7610009908676147 0.025158299133181572 0.8508729934692383
0.7790480256080627 0.6550790071487427 0.7953289747238159
0.7790480256080627 0.025158299133181572 0.7953289747238159
0.8262969851493835 0.6550790071487427 0.7610009908676147
0.8262969851493835 0.025158299133181572 0.7610009908676147
0.8846979737281799 0.6550790071487427 0.7610009908676147
0.8846979737281799 0.025158299133181572 0.7610009908676147
0.9319459795951843 0.6550790071487427 0.7953289747238159
0.9319459795951843 0.025158299133181572 0.7953289747238159
0.21399199962615967 0.6550790071487427 0.8508729934692383
0.19594499468803406 0.6550790071487427 0.9064159989356995
0.21399199962615967 0.025158299133181572 0.8508729934692383
0.19594499468803406 0.025158299133181572 0.9064159989356995
0.11949600279331207 0.025158299133181572 0.8508729934692383
0.11949600279331207 0.6550790071487427 0.8508729934692383
0.14869700372219086 0.6550790071487427 0.9407439827919006
0.14869700372219086 0.025158299133181572 0.9407439827919006
0.0902952030301094 0.6550790071487427 0.9407439827919006
0.0902952030301094 0.025158299133181572 0.9407439827919006
0.04304720088839531 0.6550790071487427 0.9064159989356995
0.04304720088839531 0.025158299133181572 0.9064159989356995
0.02500000037252903 0.6550790071487427 0.8508729934692383
0.02500000037252903 0.025158299133181572 0.8508729934692383
0.04304720088839531 0.6550790071487427 0.7953289747238159
0.04304720088839531 0.025158299133181572 0.7953289747238159
0.0902952030301094 0.6550790071487427 0.7610009908676147
0.0902952030301094 0.025158299133181572 0.7610009908676147
0.14869700372219086 0.6550790071487427 0.7610009908676147
0.14869700372219086 0.025158299133181572 0.7610009908676147
0.19594499468803406 0.6550790071487427 0.7953289747238159
0.19594499468803406 0.025158299133181572 0.7953289747238159
0.8562970161437988 0.9750000238418579 0.8508729934692383
0.9327459931373596 0.6549990177154541 0.9064159989356995
0.950793981552124 0.6549990177154541 0.8508729934692383
0.8562970161437988 0.6549990177154541 0.8508729934692383
0.8854979872703552 0.6549990177154541 0.9407439827919006
0.8270969986915588 0.6549990177154541 0.9407439827919006
0.7798479795455933 0.6549990177154541 0.9064159989356995
0.76180100440979 0.6549990177154541 0.8508729934692383
0.7798479795455933 0.6549990177154541 0.7953289747238159
0.8270969986915588 0.6549990177154541 0.7610009908676147
0.8854979872703552 0.6549990177154541 0.7610009908676147
0.9327459931373596 0.6549990177154541 0.7953289747238159
0.12061599642038345 0.9750000238418579 0.8508729934692383
0.19706499576568604 0.6549990177154541 0.9064159989356995
0.21511200070381165 0.6549990177154541 0.8508729934692383
0.12061599642038345 0.6549990177154541 0.8508729934692383
0.14981700479984283 0.6549990177154541 0.9407439827919006
0.09141519665718079 0.6549990177154541 0.9407439827919006
0.04416719824075699 0.6549990177154541 0.9064159989356995
0.026119999587535858 0.6549990177154541 0.8508729934692383
0.04416719824075699 0.6549990177154541 0.7953289747238159
0.09141519665718079 0.6549990177154541 0.7610009908676147
0.14981700479984283 0.6549990177154541 0.7610009908676147
0.19706499576568604 0.6549990177154541 0.7953289747238159
0.12029600143432617 0.9750000238418579 0.11487100273370743
0.19674499332904816 0.6549990177154541 0.170414999127388
0.21479199826717377 0.6549990177154541 0.11487100273370743
0.12029600143432617 0.6549990177154541 0.11487100273370743
0.14949700236320496 0.6549990177154541 0.20474199950695038
0.0910952016711235 0.6549990177154541 0.20474199950695038
0.04384719952940941 0.6549990177154541 0.170414999127388
0.025800000876188278 0.6549990177154541 0.11487100273370743
0.04384719952940941 0.6549990177154541 0.05932769924402237
0.0910952016711235 0.6549990177154541 0.02500000037252903
0.14949700236320496 0.6549990177154541 0.02500000037252903
0.19674499332904816 0.6549990177154541 0.05932769924402237
0.8562970161437988 0.9750000238418579 0.11487100273370743
0.9327459931373596 0.6549990177154541 0.170414999127388
0.950793981552124 0.6549990177154541 0.11487100273370743
0.8562970161437988 0.6549990177154541 0.11487100273370743
0.8854979872703552 0.6549990177154541 0.20474199950695038
0.8270969986915588 0.6549990177154541 0.20474199950695038
0.7798479795455933 0.6549990177154541 0.170414999127388
0.76180100440979 0.6549990177154541 0.11487100273370743
0.7798479795455933 0.6549990177154541 0.05932769924402237
0.8270969986915588 0.6549990177154541 0.02500000037252903
0.8854979872703552 0.6549990177154541 0.02500000037252903
0.9327459931373596 0.6549990177154541 0.05932769924402237
0.21560299396514893 0.02500000037252903 0.1307930052280426
0.21548399329185486 0.44096899032592773 0.1307930052280426
0.2474839985370636 0.4409779906272888 0.1308020055294037
0.24749700725078583 0.39297500252723694 0.1308020055294037
0.2794969975948334 0.392984002828598 0.13081100583076477
0.27948400378227234 0.4409869909286499 0.13081100583076477
0.3114840090274811 0.440995991230011 0.13082100450992584
0.3114979863166809 0.3929930031299591 0.13082100450992584
0.34349799156188965 0.3930020034313202 0.13083000481128693
0.3434840142726898 0.44100600481033325 0.13083000481128693
0.37548398971557617 0.44101500511169434 0.130839005112648
0.3754979968070984 0.39301198720932007 0.130839005112648
0.40749800205230713 0.39302098751068115 0.1308480054140091
0.4074839949607849 0.4410240054130554 0.1308480054140091
0.43948400020599365 0.4410330057144165 0.13085700571537018
0.43949800729751587 0.39302998781204224 0.13085700571537018
0.4714980125427246 0.3930389881134033 0.13086700439453125
0.4714840054512024 0.4410420060157776 0.13086700439453125
0.5034840106964111 0.44105198979377747 0.13087600469589233
0.5034980177879333 0.3930479884147644 0.13087600469589233
0.5354980230331421 0.39305800199508667 0.13088500499725342
0.5354840159416199 0.44106099009513855 0.13088500499725342
0.5674840211868286 0.44106999039649963 0.1308940052986145
0.5674980282783508 0.39306700229644775 0.1308940052986145
0.5994979739189148 0.39307600259780884 0.13090300559997559
0.5994840264320374 0.4410789906978607 0.13090300559997559
0.6314839720726013 0.441089004278183 0.13091300427913666
0.6314979791641235 0.3930850028991699 0.13091300427913666
0.6634979844093323 0.393094003200531 0.13092200458049774
0.6634839773178101 0.44109800457954407 0.13092200458049774
0.6954839825630188 0.44110700488090515 0.13093100488185883
0.695497989654541 0.3931039869785309 0.13093100488185883
0.7274979948997498 0.39311298727989197 0.1309400051832199
0.7274839878082275 0.44111600518226624 0.1309400051832199
0.7594839930534363 0.4411250054836273 0.13095000386238098
0.7596039772033691 0.025156699120998383 0.13095000386238098
0.21561199426651 0.02500000037252903 0.09928879886865616
0.21549299359321594 0.44096899032592773 0.09928879886865616
0.24749299883842468 0.4409779906272888 0.09929800033569336
0.2475070059299469 0.39297500252723694 0.09929800033569336
0.27950701117515564 0.392984002828598 0.09930729866027832
0.2794930040836334 0.4409869909286499 0.09930729866027832
0.31149300932884216 0.440995991230011 0.09931650012731552
0.311506986618042 0.3929930031299591 0.09931650012731552
0.34350699186325073 0.3930020034313202 0.09932570159435272
0.3434930145740509 0.44100600481033325 0.09932570159435272
0.37549299001693726 0.44101500511169434 0.09933490306138992
0.3755069971084595 0.39301198720932007 0.09933490306138992
0.4075070023536682 0.39302098751068115 0.09934409707784653
0.407492995262146 0.4410240054130554 0.09934409707784653
0.43949300050735474 0.4410330057144165 0.09935329854488373
0.43950700759887695 0.39302998781204224 0.09935329854488373
0.4715070128440857 0.3930389881134033 0.09936259686946869
0.4714930057525635 0.4410420060157776 0.09936259686946869
0.5034930109977722 0.44105198979377747 0.09937179833650589
0.5035070180892944 0.3930479884147644 0.09937179833650589
0.5355070233345032 0.39305800199508667 0.09938099980354309
0.535493016242981 0.44106099009513855 0.09938099980354309
0.5674930214881897 0.44106999039649963 0.09939020127058029
0.5675070285797119 0.39306700229644775 0.09939020127058029
0.5995069742202759 0.39307600259780884 0.09939940273761749
0.5994930267333984 0.4410789906978607 0.09939940273761749
0.6314929723739624 0.441089004278183 0.0994085967540741
0.6315069794654846 0.3930850028991699 0.0994085967540741
0.6635069847106934 0.393094003200531 0.09941790252923965
0.6634929776191711 0.44109800457954407 0.09941790252923965
0.6954929828643799 0.44110700488090515 0.09942709654569626
0.6955069899559021 0.3931039869785309 0.09942709654569626
0.7275069952011108 0.39311298727989197 0.09943629801273346
0.7274929881095886 0.44111600518226624 0.09943629801273346
0.7594940066337585 0.4411250054836273 0.09944549947977066
0.7596129775047302 0.025156699120998383 0.09944549947977066
0.21560299396514893 0.02500000037252903 0.8667939901351929
0.21548399329185486 0.44096899032592773 0.8667939901351929
0.2474839985370636 0.4409779906272888 0.866802990436554
0.24749700725078583 0.39297500252723694 0.866802990436554
0.2794969975948334 0.392984002828598 0.8668130040168762
0.27948400378227234 0.4409869909286499 0.8668130040168762
0.3114840090274811 0.440995991230011 0.8668220043182373
0.3114979863166809 0.3929930031299591 0.8668220043182373
0.34349799156188965 0.3930020034313202 0.8668310046195984
0.3434840142726898 0.44100600481033325 0.8668310046195984
0.37548398971557617 0.44101500511169434 0.8668400049209595
0.3754979968070984 0.39301198720932007 0.8668400049209595
0.40749800205230713 0.39302098751068115 0.8668490052223206
0.4074839949607849 0.4410240054130554 0.8668490052223206
0.43948400020599365 0.4410330057144165 0.8668590188026428
0.43949800729751587 0.39302998781204224 0.8668590188026428
0.4714980125427246 0.3930389881134033 0.8668680191040039
0.4714840054512024 0.4410420060157776 0.8668680191040039
0.5034840106964111 0.44105198979377747 0.866877019405365
0.5034980177879333 0.3930479884147644 0.866877019405365
0.5354980230331421 0.39305800199508667 0.8668860197067261
0.5354840159416199 0.44106099009513855 0.8668860197067261
0.5674840211868286 0.44106999039649963 0.8668959736824036
0.5674980282783508 0.39306700229644775 0.8668959736824036
0.5994979739189148 0.39307600259780884 0.8669049739837646
0.5994840264320374 0.4410789906978607 0.8669049739837646
0.6314839720726013 0.441089004278183 0.8669139742851257
0.6314979791641235 0.3930850028991699 0.8669139742851257
0.6634979844093323 0.393094003200531 0.8669229745864868
0.6634839773178101 0.44109800457954407 0.8669229745864868
0.6954839825630188 0.44110700488090515 0.8669319748878479
0.695497989654541 0.3931039869785309 0.8669319748878479
0.7274979948997498 0.39311298727989197 0.8669419884681702
0.7274839878082275 0.44111600518226624 0.8669419884681702
0.7594839930534363 0.4411250054836273 0.8669509887695312
0.7596039772033691 0.025156699120998383 0.8669509887695312
0.21561199426651 0.02500000037252903 0.8352900147438049
0.21549299359321594 0.44096899032592773 0.8352900147438049
0.24749299883842468 0.4409779906272888 0.835299015045166
0.2475070059299469 0.39297500252723694 0.835299015045166
0.27950701117515564 0.392984002828598 0.8353090286254883
0.2794930040836334 0.4409869909286499 0.8353090286254883
0.31149300932884216 0.440995991230011 0.8353180289268494
0.311506986618042 0.3929930031299591 0.8353180289268494
0.34350699186325073 0.3930020034313202 0.8353270292282104
0.3434930145740509 0.44100600481033325 0.8353270292282104
0.37549299001693726 0.44101500511169434 0.8353360295295715
0.3755069971084595 0.39301198720932007 0.8353360295295715
0.4075070023536682 0.39302098751068115 0.8353449702262878
0.407492995262146 0.4410240054130554 0.8353449702262878
0.43949300050735474 0.4410330057144165 0.8353549838066101
0.43950700759887695 0.39302998781204224 0.8353549838066101
0.4715070128440857 0.3930389881134033 0.8353639841079712
0.4714930057525635 0.4410420060157776 0.8353639841079712
0.5034930109977722 0.44105198979377747 0.8353729844093323
0.5035070180892944 0.3930479884147644 0.8353729844093323
0.5355070233345032 0.39305800199508667 0.8353819847106934
0.535493016242981 0.44106099009513855 0.8353819847106934
0.5674930214881897 0.44106999039649963 0.8353919982910156
0.5675070285797119 0.39306700229644775 0.8353919982910156
0.5995069742202759 0.39307600259780884 0.8354009985923767
0.5994930267333984 0.4410789906978607 0.8354009985923767
0.6314929723739624 0.441089004278183 0.8354099988937378
0.6315069794654846 0.3930850028991699 0.8354099988937378
0.6635069847106934 0.393094003200531 0.8354189991950989
0.6634929776191711 0.44109800457954407 0.8354189991950989
0.6954929828643799 0.44110700488090515 0.83542799949646
0.6955069899559021 0.3931039869785309 0.83542799949646
0.7275069952011108 0.39311298727989197 0.8354380130767822
0.7274929881095886 0.44111600518226624 0.8354380130767822
0.7594940066337585 0.4411250054836273 0.8354470133781433
0.7596129775047302 0.025156699120998383 0.8354470133781433
0.8727930188179016 0.4410789906978607 0.7540720105171204
0.8727930188179016 0.02507830038666725 0.7540720105171204
0.8413040041923523 0.4410789906978607 0.7540720105171204
0.8413040041923523 0.02507830038666725 0.7540720105171204
0.8727930188179016 0.4410789906978607 0.7220720052719116
0.8413040041923523 0.4410789906978607 0.7220720052719116
0.8727930188179016 0.39307901263237 0.7220720052719116
0.8413040041923523 0.39307901263237 0.7220720052719116
0.8727930188179016 0.39307901263237 0.6900720000267029
0.8413040041923523 0.39307901263237 0.6900720000267029
0.8727930188179016 0.4410789906978607 0.6900720000267029
0.8413040041923523 0.4410789906978607 0.6900720000267029
0.8727930188179016 0.4410789906978607 0.6580719947814941
0.8413040041923523 0.4410789906978607 0.6580719947814941
0.8727930188179016 0.39307901263237 0.6580719947814941
0.8413040041923523 0.39307901263237 0.6580719947814941
0.8727930188179016 0.39307901263237 0.6261199712753296
0.8413040041923523 0.39307901263237 0.6261199712753296
0.8727930188179016 0.4410789906978607 0.6261199712753296
0.8413040041923523 0.4410789906978607 0.6261199712753296
0.8727930188179016 0.4410789906978607 0.5941200256347656
0.8413040041923523 0.4410789906978607 0.5941200256347656
0.8727930188179016 0.39307901263237 0.5941200256347656
0.8413040041923523 0.39307901263237 0.5941200256347656
0.8727930188179016 0.39307901263237 0.5621200203895569
0.8413040041923523 0.39307901263237 0.5621200203895569
0.8727930188179016 0.4410789906978607 0.5621200203895569
0.8413040041923523 0.4410789906978607 0.5621200203895569
0.8727930188179016 0.4410789906978607 0.5301200151443481
0.8413040041923523 0.4410789906978607 0.5301200151443481
0.8727930188179016 0.39307901263237 0.5301200151443481
0.8413040041923523 0.39307901263237 0.5301200151443481
0.8727930188179016 0.39307901263237 0.4981139898300171
0.8413040041923523 0.39307901263237 0.4981139898300171
0.8727930188179016 0.4410789906978607 0.4981139898300171
0.8413040041923523 0.4410789906978607 0.4981139898300171
0.8727930188179016 0.4410789906978607 0.46612000465393066
0.8413040041923523 0.4410789906978607 0.46612000465393066
0.8727930188179016 0.39307901263237 0.46612000465393066
0.8413040041923523 0.39307901263237 0.46612000465393066
0.8727930188179016 0.39307901263237 0.4341199994087219
0.8413040041923523 0.39307901263237 0.4341199994087219
0.8727930188179016 0.4410789906978607 0.4341199994087219
0.8413040041923523 0.4410789906978607 0.4341199994087219
0.8727930188179016 0.4410789906978607 0.4021199941635132
0.8413040041923523 0.4410789906978607 0.4021199941635132
0.8727930188179016 0.39307901263237 0.4021199941635132
0.8413040041923523 0.39307901263237 0.4021199941635132
0.8727930188179016 0.39307901263237 0.37011998891830444
0.8413040041923523 0.39307901263237 0.37011998891830444
0.8727930188179016 0.4410789906978607 0.37011998891830444
0.8413040041923523 0.4410789906978607 0.37011998891830444
0.8727930188179016 0.4410789906978607 0.3381200134754181
0.8413040041923523 0.4410789906978607 0.3381200134754181
0.8727930188179016 0.39307901263237 0.3381200134754181
0.8413040041923523 0.39307901263237 0.3381200134754181
0.8727930188179016 0.39307901263237 0.3060719966888428
0.8413040041923523 0.39307901263237 0.3060719966888428
0.8727930188179016 0.4410789906978607 0.3060719966888428
0.8413040041923523 0.4410789906978607 0.3060719966888428
0.8727930188179016 0.4410789906978607 0.27407100796699524
0.8413040041923523 0.4410789906978607 0.27407100796699524
0.8727930188179016 0.39307901263237 0.27407100796699524
0.8413040041923523 0.39307901263237 0.27407100796699524
0.8727930188179016 0.39307901263237 0.2420710027217865
0.8413040041923523 0.39307901263237 0.2420710027217865
0.8727930188179016 0.4410789906978607 0.2420710027217865
0.8413040041923523 0.4410789906978607 0.2420710027217865
0.8727930188179016 0.4410789906978607 0.21007099747657776
0.8413040041923523 0.4410789906978607 0.21007099747657776
0.8727930188179016 0.02507830038666725 0.21007099747657776
0.8413040041923523 0.02507830038666725 0.21007099747657776
0.8524699807167053 0.02507830038666725 0.561240017414093
0.8727930188179016 0.02507830038666725 0.561240017414093
0.8727930188179016 0.02507830038666725 0.434904009103775
0.8597850203514099 0.02507830038666725 0.434904009103775
0.8413040041923523 0.02507830038666725 0.561240017414093
0.8484529852867126 0.02507830038666725 0.434904009103775
0.8413040041923523 0.02507830038666725 0.434904009103775
0.8727930188179016 0.2330790013074875 0.4647279977798462
0.8727930188179016 0.2330790013074875 0.434904009103775
0.8727930188179016 0.1507589966058731 0.561240017414093
0.8727930188179016 0.16370299458503723 0.561240017414093
0.8727930188179016 0.02507849968969822 0.434904009103775
0.8727930188179016 0.17077499628067017 0.434904009103775
0.8727930188179016 0.025078600272536278 0.434904009103775
0.8727930188179016 0.02507849968969822 0.434904009103775
0.8727930188179016 0.02507849968969822 0.434904009103775
0.8727930188179016 0.2330790013074875 0.48280900716781616
0.8727930188179016 0.2330790013074875 0.47440800070762634
0.8727930188179016 0.17295099794864655 0.561240017414093
0.8727930188179016 0.2330790013074875 0.5008959770202637
0.8727930188179016 0.2330790013074875 0.4915499985218048
0.8727930188179016 0.18351100385189056 0.561240017414093
0.8727930188179016 0.2330790013074875 0.5189840197563171
0.8727930188179016 0.2330790013074875 0.5084649920463562
0.8727930188179016 0.1956389993429184 0.561240017414093
0.8727930188179016 0.2330790013074875 0.5370640158653259
0.8727930188179016 0.2330790013074875 0.525048017501831
0.8727930188179016 0.20987899601459503 0.561240017414093
0.8727930188179016 0.2330790013074875 0.5551599860191345
0.8727930188179016 0.2330790013074875 0.5411120057106018
0.8727930188179016 0.2266789972782135 0.561240017414093
0.8727930188179016 0.2330790013074875 0.561240017414093
0.8727930188179016 0.2330790013074875 0.5563759803771973
0.8413040041923523 0.2330790013074875 0.434904009103775
0.8413040041923523 0.2330790013074875 0.4647279977798462
0.8413040041923523 0.03649599850177765 0.561240017414093
0.8413040041923523 0.1507589966058731 0.561240017414093
0.8413040041923523 0.16370299458503723 0.561240017414093
0.8413040041923523 0.1512710005044937 0.434904009103775
0.8413040041923523 0.16255100071430206 0.434904009103775
0.8413040041923523 0.16583099961280823 0.434904009103775
0.8413040041923523 0.17077499628067017 0.434904009103775
0.8413040041923523 0.19067899882793427 0.434904009103775
0.8413040041923523 0.21435900032520294 0.434904009103775
0.8413040041923523 0.22171899676322937 0.434904009103775
0.8413040041923523 0.22971899807453156 0.434904009103775
0.8413040041923523 0.2330790013074875 0.47440800070762634
0.8413040041923523 0.2330790013074875 0.48280900716781616
0.8413040041923523 0.16850300133228302 0.561240017414093
0.8413040041923523 0.17295099794864655 0.561240017414093
0.8413040041923523 0.2330790013074875 0.4915499985218048
0.8413040041923523 0.2330790013074875 0.5008959770202637
0.8413040041923523 0.1778630018234253 0.561240017414093
0.8413040041923523 0.18351100385189056 0.561240017414093
0.8413040041923523 0.2330790013074875 0.5084649920463562
0.8413040041923523 0.2330790013074875 0.5189840197563171
0.8413040041923523 0.1884389966726303 0.561240017414093
0.8413040041923523 0.1956389993429184 0.561240017414093
0.8413040041923523 0.2330790013074875 0.525048017501831
0.8413040041923523 0.2330790013074875 0.5370640158653259
0.8413040041923523 0.20027899742126465 0.561240017414093
0.8413040041923523 0.20987899601459503 0.561240017414093
0.8413040041923523 0.2330790013074875 0.5551599860191345
0.8413040041923523 0.2330790013074875 0.554311990737915
0.8413040041923523 0.2330790013074875 0.5411120057106018
0.8413040041923523 0.2258789986371994 0.561240017414093
0.8413040041923523 0.2266789972782135 0.561240017414093
0.8413040041923523 0.2330790013074875 0.55594402551651
0.8413040041923523 0.2330790013074875 0.5563759803771973
0.8413040041923523 0.2330790013074875 0.5564720034599304
0.8413040041923523 0.2330790013074875 0.5569360256195068
0.8413040041923523 0.2330790013074875 0.5574160218238831
0.8413040041923523 0.2330790013074875 0.5579280257225037
0.8413040041923523 0.2330790013074875 0.5583440065383911
0.8413040041923523 0.2330790013074875 0.5589200258255005
0.8413040041923523 0.2330790013074875 0.5592560172080994
0.8413040041923523 0.2330790013074875 0.5599120259284973
0.8413040041923523 0.2330790013074875 0.5601360201835632
0.8413040041923523 0.2330790013074875 0.5609040260314941
0.8413040041923523 0.2330790013074875 0.5609840154647827
0.8413040041923523 0.2330790013074875 0.561240017414093
0.8413040041923523 0.22795900702476501 0.561240017414093
0.8413040041923523 0.22811900079250336 0.561240017414093
0.8413040041923523 0.22859899699687958 0.561240017414093
0.8413040041923523 0.2290789932012558 0.561240017414093
0.8413040041923523 0.2295590043067932 0.561240017414093
0.8413040041923523 0.23003900051116943 0.561240017414093
0.8413040041923523 0.2306790053844452 0.561240017414093
0.8413040041923523 0.23099899291992188 0.561240017414093
0.8413040041923523 0.23163899779319763 0.561240017414093
0.8413040041923523 0.2319590002298355 0.561240017414093
0.8413040041923523 0.2327589988708496 0.561240017414093
0.8554970026016235 0.23310500383377075 0.43489301204681396
0.8714979887008667 0.23310500383377075 0.43489301204681396
0.8714979887008667 0.2330790013074875 0.5628929734230042
0.8554970026016235 0.2330790013074875 0.5628929734230042
0.8554970026016235 0.025104399770498276 0.4348509907722473
0.8714979887008667 0.025104399770498276 0.4348509907722473
0.8714979887008667 0.02507830038666725 0.5628510117530823
0.8554970026016235 0.02507830038666725 0.5628510117530823
0.8839589953422546 0.2584100067615509 0.39754900336265564
0.8839849829673767 0.258435994386673 0.6117249727249146
0.8839700222015381 0.3466019928455353 0.3975380063056946
0.8839960098266602 0.34662801027297974 0.6117150187492371
0.8713610172271729 0.2584109902381897 0.3975510001182556
0.8713870048522949 0.25843700766563416 0.6117269992828369
0.8713709712028503 0.34660300612449646 0.39754000306129456
0.8713970184326172 0.34662899374961853 0.6117159724235535
3 0 1 37
3 0 37 36
3 1 2 38
3 1 38 37
3 2 3 39
3 2 39 38
3 3 4 40
3 3 40 39
3 4 5 41
3 4 41 40
3 5 6 42
3 5 42 41
3 6 7 43
3 6 43 42
3 7 8 44
3 7 44 43
3 8 9 45
3 8 45 44
3 9 10 46
3 9 46 45
3 10 11 47
3 10 47 46
3 11 12 48
3 11 48 47
3 12 13 49
3 12 49 48
3 13 14 50
3 13 50 49
3 14 15 51
3 14 51 50
3 15 16 52
3 15 52 51
3 16 17 53
3 16 53 52
3 17 18 54
3 17 54 53
3 18 19 55
3 18 55 54
3 19 20 56
3 19 56 55
3 20 21 57
3 20 57 56
3 21 22 58
3 21 58 57
3 22 23 59
3 22 59 58
3 23 24 60
3 23 60 59
3 24 25 61
3 24 61 60
3 25 26 62
3 25 62 61
3 26 27 63
3 26 63 62
3 27 28 64
3 27 64 63
3 28 29 65
3 28 65 64
3 29 30 66
3 29 66 65
3 30 31 67
3 30 67 66
3 31 32 68
3 31 68 67
3 32 33 69
3 32 69 68
3 33 34 70
3 33 70 69
3 34 35 71
3 34 71 70
3 35 0 36
3 35 36 71
3 33 35 34
3 32 35 33
3 32 0 35
3 31 0 32
3 29 31 30
3 28 31 29
3 28 0 31
3 27 0 28
3 25 27 26
3 24 27 25
3 24 0 27
3 23 0 24
3 21 23 22
3 20 23 21
3 20 0 23
3 19 0 20
3 17 19 18
3 16 19 17
3 16 0 19
3 15 0 16
3 13 15 14
3 12 15 13
3 12 0 15
3 11 0 12
3 9 11 10
3 8 11 9
3 8 0 11
3 7 0 8
3 5 7 6
3 4 7 5
3 4 0 7
3 3 0 4
3 3 1 0
3 2 1 3
3 69 70 71
3 68 69 71
3 68 71 36
3 67 68 36
3 65 66 67
3 64 65 67
3 64 67 36
3 63 64 36
3 61 62 63
3 60 61 63
3 60 63 36
3 59 60 36
3 57 58 59
3 56 57 59
3 56 59 36
3 55 56 36
3 53 54 55
3 52 53 55
3 52 55 36
3 51 52 36
3 49 50 51
3 48 49 51
3 48 51 36
3 47 48 36
3 45 46 47
3 44 45 47
3 44 47 36
3 43 44 36
3 41 42 43
3 40 41 43
3 40 43 36
3 39 40 36
3 39 36 37
3 38 39 37
3 72 73 74
3 73 75 74
3 76 74 75
3 77 73 72
3 73 78 75
3 78 79 75
3 76 75 79
3 77 78 73
3 78 80 79
3 80 81 79
3 76 79 81
3 77 80 78
3 80 82 81
3 82 83 81
3 76 81 83
3 77 82 80
3 82 84 83
3 84 85 83
3 76 83 85
3 77 84 82
3 84 86 85
3 86 87 85
3 76 85 87
3 77 86 84
3 86 88 87
3 88 89 87
3 76 87 89
3 77 88 86
3 88 90 89
3 90 91 89
3 76 89 91
3 77 90 88
3 90 92 91
3 92 93 91
3 76 91 93
3 77 92 90
3 92 72 93
3 72 74 93
3 76 93 74
3 77 72 92
3 94 95 96
3 95 97 96
3 98 96 97
3 99 95 94
3 95 100 97
3 100 101 97
3 98 97 101
3 99 100 95
3 100 102 101
3 102 103 101
3 98 101 103
3 99 102 100
3 102 104 103
3 104 105 103
3 98 103 105
3 99 104 102
3 104 106 105
3 106 107 105
3 98 105 107
3 99 106 104
3 106 108 107
3 108 109 107
3 98 107 109
3 99 108 106
3 108 110 109
3 110 111 109
3 98 109 111
3 99 110 108
3 110 112 111
3 112 113 111
3 98 111 113
3 99 112 110
3 112 114 113
3 114 115 113
3 98 113 115
3 99 114 112
3 114 94 115
3 94 96 115
3 98 115 96
3 99 94 114
3 116 117 118
3 117 119 118
3 120 118 119
3 121 117 116
3 117 122 119
3 122 123 119
3 120 119 123
3 121 122 117
3 122 124 123
3 124 125 123
3 120 123 125
3 121 124 122
3 124 126 125
3 126 127 125
3 120 125 127
3 121 126 124
3 126 128 127
3 128 129 127
3 120 127 129
3 121 128 126
3 128 130 129
3 130 131 129
3 120 129 131
3 121 130 128
3 130 132 131
3 132 133 131
3 120 131 133
3 121 132 130
3 132 134 133
3 134 135 133
3 120 133 135
3 121 134 132
3 134 136 135
3 136 137 135
3 120 135 137
3 121 136 134
3 136 116 137
3 116 118 137
3 120 137 118
3 121 116 136
3 138 139 140
3 139 141 140
3 142 140 141
3 143 139 138
3 139 144 141
3 144 145 141
3 142 141 145
3 143 144 139
3 144 146 145
3 146 147 145
3 142 145 147
3 143 146 144
3 146 148 147
3 148 149 147
3 142 147 149
3 143 148 146
3 148 150 149
3 150 151 149
3 142 149 151
3 143 150 148
3 150 152 151
3 152 153 151
3 142 151 153
3 143 152 150
3 152 154 153
3 154 155 153
3 142 153 155
3 143 154 152
3 154 156 155
3 156 157 155
3 142 155 157
3 143 156 154
3 156 158 157
3 158 159 157
3 142 157 159
3 143 158 156
3 158 138 159
3 138 140 159
3 142 159 140
3 143 138 158
3 160 161 162
3 163 162 161
3 160 164 161
3 163 161 164
3 160 165 164
3 163 164 165
3 160 166 165
3 163 165 166
3 160 167 166
3 163 166 167
3 160 168 167
3 163 167 168
3 160 169 168
3 163 168 169
3 160 170 169
3 163 169 170
3 160 171 170
3 163 170 171
3 160 162 171
3 163 171 162
3 172 173 174
3 175 174 173
3 172 176 173
3 175 173 176
3 172 177 176
3 175 176 177
3 172 178 177
3 175 177 178
3 172 179 178
3 175 178 179
3 172 180 179
3 175 179 180
3 172 181 180
3 175 180 181
3 172 182 181
3 175 181 182
3 172 183 182
3 175 182 183
3 172 174 183
3 175 183 174
3 184 185 186
3 187 186 185
3 184 188 185
3 187 185 188
3 184 189 188
3 187 188 189
3 184 190 189
3 187 189 190
3 184 191 190
3 187 190 191
3 184 192 191
3 187 191 192
3 184 193 192
3 187 192 193
3 184 194 193
3 187 193 194
3 184 195 194
3 187 194 195
3 184 186 195
3 187 195 186
3 196 197 198
3 199 198 197
3 196 200 197
3 199 197 200
3 196 201 200
3 199 200 201
3 196 202 201
3 199 201 202
3 196 203 202
3 199 202 203
3 196 204 203
3 199 203 204
3 196 205 204
3 199 204 205
3 196 206 205
3 199 205 206
3 196 207 206
3 199 206 207
3 196 198 207
3 199 207 198
3 208 209 245
3 208 245 244
3 209 210 246
3 209 246 245
3 210 211 247
3 210 247 246
3 211 212 248
3 211 248 247
3 212 213 249
3 212 249 248
3 213 214 250
3 213 250 249
3 214 215 251
3 214 251 250
3 215 216 252
3 215 252 251
3 216 217 253
3 216 253 252
3 217 218 254
3 217 254 253
3 218 219 255
3 218 255 254
3 219 220 256
3 219 256 255
3 220 221 257
3 220 257 256
3 221 222 258
3 221 258 257
3 222 223 259
3 222 259 258
3 223 224 260
3 223 260 259
3 224 225 261
3 224 261 260
3 225 226 262
3 225 262 261
3 226 227 263
3 226 263 262
3 227 228 264
3 227 264 263
3 228 229 265
3 228 265 264
3 229 230 266
3 229 266 265
3 230 231 267
3 230 267 266
3 231 232 268
3 231 268 267
3 232 233 269
3 232 269 268
3 233 234 270
3 233 270 269
3 234 235 271
3 234 271 270
3 235 236 272
3 235 272 271
3 236 237 273
3 236 273 272
3 237 238 274
3 237 274 273
3 238 239 275
3 238 275 274
3 239 240 276
3 239 276 275
3 240 241 277
3 240 277 276
3 241 242 278
3 241 278 277
3 242 243 279
3 242 279 278
3 243 208 244
3 243 244 279
3 241 243 242
3 240 243 241
3 240 208 243
3 239 208 240
3 237 239 238
3 236 239 237
3 236 208 239
3 235 208 236
3 233 235 234
3 232 235 233
3 232 208 235
3 231 208 232
3 229 231 230
3 228 231 229
3 228 208 231
3 227 208 228
3 225 227 226
3 224 227 225
3 224 208 227
3 223 208 224
3 221 223 222
3 220 223 221
3 220 208 223
3 219 208 220
3 217 219 218
3 216 219 217
3 216 208 219
3 215 208 216
3 213 215 214
3 212 215 213
3 212 208 215
3 211 208 212
3 211 209 208
3 210 209 211
3 277 278 279
3 276 277 279
3 276 279 244
3 275 276 244
3 273 274 275
3 272 273 275
3 272 275 244
3 271 272 244
3 269 270 271
3 268 269 271
3 268 271 244
3 267 268 244
3 265 266 267
3 264 265 267
3 264 267 244
3 263 264 244
3 261 262 263
3 260 261 263
3 260 263 244
3 259 260 244
3 257 258 259
3 256 257 259
3 256 259 244
3 255 256 244
3 253 254 255
3 252 253 255
3 252 255 244
3 251 252 244
3 249 250 251
3 248 249 251
3 248 251 244
3 247 248 244
3 247 244 245
3 246 247 245
3 280 281 317
3 280 317 316
3 281 282 318
3 281 318 317
3 282 283 319
3 282 319 318
3 283 284 320
3 283 320 319
3 284 285 321
3 284 321 320
3 285 286 322
3 285 322 321
3 286 287 323
3 286 323 322
3 287 288 324
3 287 324 323
3 288 289 325
3 288 325 324
3 289 290 326
3 289 326 325
3 290 291 327
3 290 327 326
3 291 292 328
3 291 328 327
3 292 293 329
3 292 329 328
3 293 294 330
3 293 330 329
3 294 295 331
3 294 331 330
3 295 296 332
3 295 332 331
3 296 297 333
3 296 333 332
3 297 298 334
3 297 334 333
3 298 299 335
3 298 335 334
3 299 300 336
3 299 336 335
3 300 301 337
3 300 337 336
3 301 302 338
3 301 338 337
3 302 303 339
3 302 339 338
3 303 304 340
3 303 340 339
3 304 305 341
3 304 341 340
3 305 306 342
3 305 342 341
3 306 307 343
3 306 343 342
3 307 308 344
3 307 344 343
3 308 309 345
3 308 345 344
3 309 310 346
3 309 346 345
3 310 311 347
3 310 347 346
3 311 312 348
3 311 348 347
3 312 313 349
3 312 349 348
3 313 314 350
3 313 350 349
3 314 315 351
3 314 351 350
3 315 280 316
3 315 316 351
3 313 315 314
3 312 315 313
3 312 280 315
3 311 280 312
3 309 311 310
3 308 311 309
3 308 280 311
3 307 280 308
3 305 307 306
3 304 307 305
3 304 280 307
3 303 280 304
3 301 303 302
3 300 303 301
3 300 280 303
3 299 280 300
3 297 299 298
3 296 299 297
3 296 280 299
3 295 280 296
3 293 295 294
3 292 295 293
3 292 280 295
3 291 280 292
3 289 291 290
3 288 291 289
3 288 280 291
3 287 280 288
3 285 287 286
3 284 287 285
3 284 280 287
3 283 280 284
3 283 281 280
3 282 281 283
3 349 350 351
3 348 349 351
3 348 351 316
3 347 348 316
3 345 346 347
3 344 345 347
3 344 347 316
3 343 344 316
3 341 342 343
3 340 341 343
3 340 343 316
3 339 340 316
3 337 338 339
3 336 337 339
3 336 339 316
3 335 336 316
3 333 334 335
3 332 333 335
3 332 335 316
3 331 332 316
3 329 330 331
3 328 329 331
3 328 331 316
3 327 328 316
3 325 326 327
3 324 325 327
3 324 327 316
3 323 324 316
3 321 322 323
3 320 321 323
3 320 323 316
3 319 320 316
3 319 316 317
3 318 319 317
3 353 352 354
3 353 354 355
3 352 356 357
3 352 357 354
3 356 358 359
3 356 359 357
3 358 360 361
3 358 361 359
3 360 362 363
3 360 363 361
3 362 364 365
3 362 365 363
3 364 366 367
3 364 367 365
3 366 368 369
3 366 369 367
3 368 370 371
3 368 371 369
3 370 372 373
3 370 373 371
3 372 374 375
3 372 375 373
3 374 376 377
3 374 377 375
3 376 378 379
3 376 379 377
3 378 380 381
3 378 381 379
3 380 382 383
3 380 383 381
3 382 384 385
3 382 385 383
3 384 386 387
3 384 387 385
3 386 388 389
3 386 389 387
3 388 390 391
3 388 391 389
3 390 392 393
3 390 393 391
3 392 394 395
3 392 395 393
3 394 396 397
3 394 397 395
3 396 398 399
3 396 399 397
3 398 400 401
3 398 401 399
3 400 402 403
3 400 403 401
3 402 404 405
3 402 405 403
3 404 406 407
3 404 407 405
3 406 408 409
3 406 409 407
3 408 410 411
3 408 411 409
3 410 412 413
3 410 413 411
3 412 414 415
3 412 415 413
3 414 416 417
3 414 417 415
3 416 418 419
3 416 419 417
3 418 420 421
3 418 421 419
3 420 422 423
3 420 423 421
3 418 422 420
3 416 422 418
3 410 414 412
3 408 414 410
3 402 406 404
3 400 406 402
3 394 398 396
3 392 398 394
3 390 353 392
3 386 390 388
3 384 390 386
3 384 353 390
3 382 353 384
3 378 382 380
3 376 382 378
3 376 353 382
3 374 353 376
3 370 374 372
3 368 374 370
3 368 353 374
3 366 353 368
3 362 366 364
3 360 366 362
3 360 353 366
3 358 353 360
3 358 352 353
3 356 352 358
3 419 421 423
3 417 419 423
3 411 413 415
3 409 411 415
3 403 405 407
3 401 403 407
3 395 397 399
3 393 395 399
3 391 393 355
3 387 389 391
3 385 387 391
3 385 391 355
3 383 385 355
3 379 381 383
3 377 379 383
3 377 383 355
3 375 377 355
3 371 373 375
3 369 371 375
3 369 375 355
3 367 369 355
3 363 365 367
3 361 363 367
3 361 367 355
3 359 361 355
3 359 355 354
3 357 359 354
3 355 424 353
3 425 353 424
3 426 422 416
3 427 422 426
3 422 427 423
3 355 428 424
3 429 423 427
3 430 423 429
3 423 430 417
3 416 431 432
3 431 416 414
3 433 353 425
3 434 353 433
3 426 416 435
3 436 416 432
3 437 416 436
3 438 416 437
3 439 416 438
3 416 439 435
3 440 414 408
3 441 414 440
3 414 441 431
3 442 353 434
3 443 408 406
3 444 408 443
3 408 444 440
3 445 353 442
3 446 406 400
3 447 406 446
3 406 447 443
3 448 353 445
3 449 400 398
3 450 400 449
3 400 450 446
3 451 353 448
3 452 398 392
3 453 398 452
3 398 453 449
3 454 353 451
3 392 353 455
3 456 392 455
3 392 456 452
3 454 455 353
3 458 417 457
3 417 458 415
3 428 355 459
3 355 461 460
3 460 459 355
3 462 417 430
3 463 417 462
3 464 417 463
3 465 417 464
3 465 466 417
3 466 467 417
3 467 468 417
3 469 457 417
3 468 469 417
3 470 415 458
3 471 415 470
3 415 471 409
3 472 355 473
3 355 472 461
3 474 409 471
3 475 409 474
3 409 475 407
3 476 355 477
3 355 476 473
3 478 407 475
3 479 407 478
3 407 479 401
3 480 355 481
3 355 480 477
3 482 401 479
3 483 401 482
3 401 483 399
3 484 355 485
3 355 484 481
3 486 399 487
3 399 486 393
3 488 399 483
3 399 488 487
3 489 355 490
3 355 489 485
3 393 486 491
3 492 393 491
3 393 492 493
3 393 493 494
3 393 494 495
3 393 495 496
3 393 496 497
3 393 497 498
3 393 498 499
3 393 499 500
3 393 500 501
3 393 501 502
3 393 502 503
3 355 393 504
3 393 503 504
3 505 355 506
3 355 505 490
3 355 507 506
3 355 508 507
3 355 509 508
3 355 510 509
3 355 511 510
3 355 512 511
3 355 513 512
3 355 514 513
3 355 515 514
3 515 355 504
3 425 424 433
3 433 424 434
3 434 424 442
3 442 424 445
3 445 424 448
3 448 424 451
3 451 424 454
3 424 455 454
3 455 424 428
3 432 457 436
3 457 432 458
3 459 455 428
3 455 460 461
3 455 459 460
3 430 429 462
3 462 429 463
3 463 429 464
3 464 429 465
3 429 466 465
3 466 429 427
3 427 467 466
3 467 427 426
3 426 468 467
3 468 426 435
3 468 435 439
3 468 439 438
3 468 438 437
3 468 437 436
3 436 469 468
3 469 436 457
3 458 432 470
3 470 432 471
3 472 473 455
3 461 472 455
3 471 432 474
3 474 432 475
3 476 477 455
3 473 476 455
3 475 432 478
3 478 432 479
3 480 481 455
3 477 480 455
3 479 432 482
3 482 432 483
3 484 485 455
3 481 484 455
3 432 431 486
3 487 432 486
3 488 483 432
3 487 488 432
3 489 490 455
3 485 489 455
3 431 491 486
3 491 431 441
3 491 441 492
3 441 493 492
3 493 441 440
3 440 494 493
3 494 440 444
3 444 495 494
3 495 444 443
3 443 496 495
3 496 443 447
3 447 497 496
3 497 447 446
3 446 498 497
3 498 446 450
3 450 499 498
3 499 450 449
3 449 500 499
3 500 449 453
3 453 501 500
3 501 453 452
3 452 502 501
3 502 452 456
3 456 503 502
3 503 456 455
3 455 504 503
3 505 506 455
3 490 505 455
3 506 507 455
3 507 508 455
3 508 509 455
3 509 510 455
3 510 511 455
3 511 512 455
3 512 513 455
3 513 514 455
3 514 515 455
3 515 504 455
3 516 519 517
3 517 519 518
3 516 521 520
3 516 517 521
3 516 520 519
3 519 520 523
3 519 523 522
3 519 522 518
3 517 522 521
3 517 518 522
3 521 523 520
3 521 522 523
3 524 526 527
3 527 525 524
3 528 529 531
3 531 530 528
3 524 525 529
3 529 528 524
3 525 527 531
3 531 529 525
3 527 526 530
3 530 531 527
3 526 524 528
3 528 530 526
