ply
format ascii 1.0
element vertex 28
property float x
property float y
property float z
element face 40
property list uchar int vertex_indices
end_header
0.9478570222854614 0.9207140207290649 0.9478570222854614
0.9478570222854614 0.10642900317907333 0.9478570222854614
0.9478570222854614 0.10642900317907333 0.02500000037252903
0.9478570222854614 0.9207140207290649 0.02500000037252903
0.45928600430488586 0.8392860293388367 0.8664289712905884
0.45928600430488586 0.13357099890708923 0.8664289712905884
0.45928600430488586 0.13357099890708923 0.10642900317907333
0.45928600430488586 0.8392860293388367 0.10642900317907333
0.02500000037252903 0.798570990562439 0.8528569936752319
0.02500000037252903 0.14714300632476807 0.8528569936752319
0.02500000037252903 0.14714300632476807 0.11999999731779099
0.02500000037252903 0.798570990562439 0.11999999731779099
0.8121430277824402 0.24214300513267517 0.6492859721183777
0.48642900586128235 0.24214300513267517 0.6492859721183777
0.48642900586128235 0.24214300513267517 0.32357099652290344
0.8121430277824402 0.24214300513267517 0.32357099652290344
0.8664289712905884 0.02500000037252903 0.7035710215568542
0.4321430027484894 0.02500000037252903 0.7035710215568542
0.4321430027484894 0.02500000037252903 0.26928600668907166
0.8664289712905884 0.02500000037252903 0.26928600668907166
0.9478570222854614 0.8189290165901184 0.8732140064239502
0.9478570222854614 0.8189290165901184 0.09964290261268616
0.9750000238418579 0.6764289736747742 0.7035710215568542
0.9750000238418579 0.6764289736747742 0.26928600668907166
0.9750000238418579 0.3507139980792999 0.7035710215568542
0.9750000238418579 0.3507139980792999 0.26928600668907166
0.9478570222854614 0.20821399986743927 0.8732140064239502
0.9478570222854614 0.20821399986743927 0.09964290261268616
3 0 1 2
3 0 4 5
3 7 3 2
3 3 7 4
3 6 2 1
3 4 8 9
3 11 7 6
3 7 11 8
3 10 6 5
3 11 10 9
3 12 13 17
3 14 15 19
3 15 12 16
3 13 14 18
3 16 17 18
3 21 20 22
3 22 20 26
3 23 22 24
3 21 23 25
3 25 24 26
3 0 2 3
3 0 5 1
3 7 2 6
3 3 4 0
3 6 1 5
3 4 9 5
3 11 6 10
3 7 8 4
3 10 5 9
3 11 9 8
3 12 17 16
3 14 19 18
3 15 16 19
3 13 18 17
3 16 18 19
3 21 22 23
3 22 26 24
3 23 24 25
3 21 25 27
3 25 26 27
