ply
format ascii 1.0
element vertex 430
property float x
property float y
property float z
element face 808
property list uchar int vertex_indices
end_header
0.07111640274524689 0.6014559864997864 0.1449030041694641
0.10801000148057938 0.5830090045928955 0.19101999700069427
0.12184499949216843 0.5599510073661804 0.19101999700069427
0.14951500296592712 0.5830090045928955 0.21868999302387238
0.15873800218105316 0.564562976360321 0.21407799422740936
0.2002429962158203 0.5968440175056458 0.2279130071401596
0.21407799422740936 0.5737860202789307 0.2233009934425354
0.2233009934425354 0.6014559864997864 0.2233009934425354
0.24635900557041168 0.5876209735870361 0.21407799422740936
0.24635900557041168 0.6291260123252869 0.21868999302387238
0.4169900119304657 0.5876209735870361 0.21407799422740936
0.4400480091571808 0.6014559864997864 0.2233009934425354
0.4169900119304657 0.6245149970054626 0.2186889946460724
0.4446600079536438 0.5737860202789307 0.2233009934425354
0.46310698986053467 0.5922330021858215 0.2279130071401596
0.5 0.5599520206451416 0.21407799422740936
0.5368930101394653 0.5553399920463562 0.1910189986228943
0.5092229843139648 0.5830100178718567 0.2186889946460724
0.5553399920463562 0.5783979892730713 0.1910189986228943
0.5876209735870361 0.5968449711799622 0.1449030041694641
0.26480600237846375 0.4723300039768219 0.3939320147037506
0.29708799719810486 0.4677180051803589 0.3939320147037506
0.283253014087677 0.45388299226760864 0.3893209993839264
0.26480600237846375 0.48155298829078674 0.40315601229667664
0.2786409854888916 0.49077698588371277 0.4169900119304657
0.283253014087677 0.48616498708724976 0.4262140095233917
0.29247599840164185 0.4769420027732849 0.4262140095233917
0.3016990125179291 0.45849499106407166 0.4123789966106415
0.29708799719810486 0.4492720067501068 0.40315499901771545
0.3662619888782501 0.4677180051803589 0.3939320147037506
0.3570390045642853 0.45849499106407166 0.4123789966106415
0.3662619888782501 0.4769420027732849 0.4262140095233917
0.37548598647117615 0.48616498708724976 0.4262140095233917
0.3847090005874634 0.48616498708724976 0.4169900119304657
0.3939320147037506 0.48155298829078674 0.40315499901771545
0.3939320147037506 0.4723300039768219 0.3939320147037506
0.38009700179100037 0.4538840055465698 0.3893199861049652
0.3662619888782501 0.4492720067501068 0.40315499901771545
0.2002429962158203 0.31553399562835693 0.3293690085411072
0.18179599940776825 0.333979994058609 0.3293690085411072
0.2233009934425354 0.3570390045642853 0.37087398767471313
0.23252500593662262 0.3293690085411072 0.3570390045642853
0.26480600237846375 0.338591992855072 0.3847090005874634
0.2601949870586395 0.37087398767471313 0.3985440135002136
0.29247599840164185 0.34320399165153503 0.3939320147037506
0.3109230101108551 0.37548500299453735 0.4169900119304657
0.31553399562835693 0.338591992855072 0.40315499901771545
0.3293690085411072 0.34320399165153503 0.3985440135002136
0.34781599044799805 0.37548500299453735 0.4169900119304657
0.34320399165153503 0.338591992855072 0.40315499901771545
0.3662619888782501 0.34320399165153503 0.3939320147037506
0.3985440135002136 0.37087398767471313 0.3985440135002136
0.3939320147037506 0.338591992855072 0.3847090005874634
0.4262140095233917 0.3293690085411072 0.3570390045642853
0.43543699383735657 0.3570390045642853 0.37087398767471313
0.45849499106407166 0.3109219968318939 0.32475700974464417
0.4769420027732849 0.3293690085411072 0.3293690085411072
0.23252500593662262 0.31553399562835693 0.37087398767471313
0.2233009934425354 0.3016990125179291 0.37548598647117615
0.2555829882621765 0.32475700974464417 0.3939320147037506
0.2509709894657135 0.3063110113143921 0.40315601229667664
0.28786501288414 0.32475700974464417 0.4123789966106415
0.28786501288414 0.3063110113143921 0.4216020107269287
0.3109230101108551 0.3293690085411072 0.4169900119304657
0.3109230101108551 0.3063110113143921 0.4262140095233917
0.3293690085411072 0.3293690085411072 0.4169900119304657
0.3293690085411072 0.3063110113143921 0.4262140095233917
0.34781599044799805 0.3063110113143921 0.4262140095233917
0.34781599044799805 0.3293690085411072 0.4169900119304657
0.37087398767471313 0.3063110113143921 0.4216020107269287
0.37087398767471313 0.32475700974464417 0.4123789966106415
0.40776699781417847 0.3016990125179291 0.40315499901771545
0.40315601229667664 0.32475700974464417 0.3939320147037506
0.43543699383735657 0.3016990125179291 0.37548500299453735
0.4262140095233917 0.31553399562835693 0.37087398767471313
0.28786399960517883 0.37548500299453735 0.4123789966106415
0.3293690085411072 0.37548500299453735 0.4169900119304657
0.37548598647117615 0.37548500299453735 0.4123789966106415
0.26019400358200073 0.6060680150985718 0.21407799422740936
0.2555829882621765 0.5876209735870361 0.24635900557041168
0.3293690085411072 0.661408007144928 0.3063110113143921
0.3109219968318939 0.6337379813194275 0.338591992855072
0.3016990125179291 0.661408007144928 0.3016990125179291
0.2832520008087158 0.6475729942321777 0.29708799719810486
0.2694169878959656 0.6014559864997864 0.29708799719810486
0.28786399960517883 0.619903028011322 0.3293690085411072
0.2740289866924286 0.5876209735870361 0.3109230101108551
0.2555829882621765 0.5553399920463562 0.29247599840164185
0.26480600237846375 0.619903028011322 0.24174800515174866
0.2509709894657135 0.6475729942321777 0.23713600635528564
0.2740289866924286 0.6706309914588928 0.2786409854888916
0.29708701372146606 0.6798539757728577 0.283253014087677
0.3293690085411072 0.6844660043716431 0.29247599840164185
0.2186889946460724 0.7029129862785339 0.26019400358200073
0.1910189986228943 0.652184009552002 0.2233009934425354
0.1679610013961792 0.6890770196914673 0.24174800515174866
0.11723300069570541 0.6660190224647522 0.20946599543094635
0.13106800615787506 0.6429610252380371 0.20485499501228333
0.07572799921035767 0.6337379813194275 0.1679619997739792
0.08956299722194672 0.619903028011322 0.1679619997739792
0.061893101781606674 0.6106789708137512 0.13568000495433807
0.04344639927148819 0.5830090045928955 0.09417519718408585
0.0803396999835968 0.5691739916801453 0.1449030041694641
0.07111649960279465 0.5368930101394653 0.16335000097751617
0.04344649985432625 0.541504979133606 0.10801000148057938
0.21407799422740936 0.5276700258255005 0.26480600237846375
0.15412600338459015 0.5276700258255005 0.24174800515174866
0.11723300069570541 0.5322809815406799 0.21868999302387238
0.02500000037252903 0.4446600079536438 0.11723300069570541
0.05266999825835228 0.45388299226760864 0.18179699778556824
0.10339800268411636 0.46310698986053467 0.2509709894657135
0.15412600338459015 0.46310698986053467 0.2786409854888916
0.24174800515174866 0.4677180051803589 0.3109230101108551
0.26480600237846375 0.5230579972267151 0.338591992855072
0.29247599840164185 0.5783979892730713 0.37548598647117615
0.2786409854888916 0.5553399920463562 0.35242700576782227
0.2786409854888916 0.5368930101394653 0.38009700179100037
0.2555829882621765 0.5046120285987854 0.3847090005874634
0.26941800117492676 0.5138350129127502 0.4123789966106415
0.2509709894657135 0.4723300039768219 0.37548598647117615
0.2740289866924286 0.4400480091571808 0.3662619888782501
0.2555829882621765 0.4216020107269287 0.3570390045642853
0.2279130071401596 0.3985440135002136 0.35242700576782227
0.1725730001926422 0.38009700179100037 0.3016990125179291
0.11262200027704239 0.39854300022125244 0.2601949870586395
0.13106800615787506 0.3063099980354309 0.2740289866924286
0.26941800117492676 0.40315499901771545 0.3847090005874634
0.3016990125179291 0.43543699383735657 0.3985440135002136
0.3109219968318939 0.5968449711799622 0.3893209993839264
0.3293690085411072 0.6383489966392517 0.338591992855072
0.3293690085411072 0.6014559864997864 0.3939320147037506
0.3109230101108551 0.5691750049591064 0.43082499504089355
0.29247599840164185 0.564562976360321 0.3985440135002136
0.28786399960517883 0.5461159944534302 0.4262140095233917
0.3109230101108551 0.5461159944534302 0.45849499106407166
0.3063110113143921 0.5092229843139648 0.45849499106407166
0.3109230101108551 0.4492720067501068 0.4169900119304657
0.3109230101108551 0.43543699383735657 0.40315499901771545
0.3293690085411072 0.5553399920463562 0.45849499106407166
0.28786399960517883 0.5276700258255005 0.4492720067501068
0.3293690085411072 0.5322819948196411 0.4769420027732849
0.3109230101108551 0.5276700258255005 0.4677189886569977
0.3293690085411072 0.495388001203537 0.46310698986053467
0.3293690085411072 0.43543699383735657 0.40776699781417847
0.31553399562835693 0.40776699781417847 0.3985440135002136
0.3293690085411072 0.40776699781417847 0.3985440135002136
0.29708799719810486 0.40776699781417847 0.3985440135002136
0.1725730001926422 0.31553399562835693 0.32014599442481995
0.1956309974193573 0.29247599840164185 0.338591992855072
0.3293690085411072 0.2555829882621765 0.40315499901771545
0.29247599840164185 0.26480600237846375 0.3985440135002136
0.2555829882621765 0.2694169878959656 0.3939320147037506
0.2279130071401596 0.2740289866924286 0.37548598647117615
0.1956319957971573 0.23713600635528564 0.34320399165153503
0.24174800515174866 0.24174700677394867 0.37548598647117615
0.2601949870586395 0.24174700677394867 0.3847090005874634
0.29247599840164185 0.24635900557041168 0.3985440135002136
0.3293690085411072 0.20946599543094635 0.4169900119304657
0.283253014087677 0.20485399663448334 0.4123789966106415
0.23713600635528564 0.2002429962158203 0.3847090005874634
0.2002429962158203 0.1956309974193573 0.34781599044799805
0.15412700176239014 0.1910189986228943 0.29247599840164185
0.14951500296592712 0.23713600635528564 0.28786399960517883
0.05266999825835228 0.3939320147037506 0.19101999700069427
0.02500009909272194 0.3939320147037506 0.12184499949216843
0.029611799865961075 0.32475700974464417 0.12645700573921204
0.06650509685277939 0.32014501094818115 0.1956309974193573
0.04805849865078926 0.26019400358200073 0.1402920037508011
0.08956339955329895 0.23713600635528564 0.2002429962158203
0.057281799614429474 0.23252399265766144 0.14951500296592712
0.08034010231494904 0.17718400061130524 0.15873800218105316
0.12645700573921204 0.09878619760274887 0.17718499898910522
0.11262200027704239 0.1402910053730011 0.20485499501228333
0.1402920037508011 0.10339800268411636 0.2002429962158203
0.18640799820423126 0.05728140100836754 0.18640799820423126
0.17718499898910522 0.10801000148057938 0.29247599840164185
0.21868999302387238 0.0803396999835968 0.29247599840164185
0.10339800268411636 0.18640799820423126 0.2002429962158203
0.09878680109977722 0.13106800615787506 0.1725730001926422
0.11262200027704239 0.23713600635528564 0.23713600635528564
0.15873800218105316 0.14951400458812714 0.29708799719810486
0.1956319957971573 0.15412600338459015 0.3570390045642853
0.28786501288414 0.14951500296592712 0.4262140095233917
0.32936999201774597 0.15412600338459015 0.43082499504089355
0.28786501288414 0.1126210018992424 0.40315601229667664
0.32936999201774597 0.1126210018992424 0.40776699781417847
0.28786501288414 0.08033979684114456 0.3570390045642853
0.32936999201774597 0.07572820037603378 0.3570390045642853
0.2509709894657135 0.08956299722194672 0.3570390045642853
0.2601949870586395 0.12645600736141205 0.3985440135002136
0.2555829882621765 0.15412600338459015 0.4123789966106415
0.23713600635528564 0.15412600338459015 0.3985440135002136
0.21868999302387238 0.11723300069570541 0.3570390045642853
0.2555829882621765 0.20485399663448334 0.3985440135002136
0.28786501288414 0.061893198639154434 0.29708799719810486
0.3293690085411072 0.05728159844875336 0.29708701372146606
0.2786409854888916 0.034223198890686035 0.20485499501228333
0.2509709894657135 0.07111640274524689 0.29708799719810486
0.23713600635528564 0.03883489966392517 0.1956309974193573
0.061893001198768616 0.652184009552002 0.16335000097751617
0.05728140100836754 0.619903028011322 0.12645700573921204
0.04805799946188927 0.652184009552002 0.08956349641084671
0.0665045976638794 0.6844660043716431 0.13106800615787506
0.11723300069570541 0.7213590145111084 0.18640799820423126
0.10801000148057938 0.6890770196914673 0.20946599543094635
0.07111620157957077 0.716746985912323 0.10801000148057938
0.05728130042552948 0.7029119729995728 0.08495189994573593
0.06650450080633163 0.7444170117378235 0.08495180308818817
0.12184400111436844 0.7766990065574646 0.1449030041694641
0.12184400111436844 0.7490289807319641 0.16335000097751617
0.1633490025997162 0.7121359705924988 0.23713600635528564
0.1633490025997162 0.7444170117378235 0.2233009934425354
0.1679610013961792 0.7674760222434998 0.20485499501228333
0.1679610013961792 0.7951449751853943 0.18640799820423126
0.12184400111436844 0.8089799880981445 0.12645700573921204
0.1679610013961792 0.8274270296096802 0.16335000097751617
0.08956269919872284 0.7905340194702148 0.08495180308818817
0.12645600736141205 0.8504850268363953 0.08956339955329895
0.17257200181484222 0.8735439777374268 0.13106800615787506
0.20946599543094635 0.8412619829177856 0.19101999700069427
0.15412600338459015 0.8873779773712158 0.08956339955329895
0.18640699982643127 0.9150480031967163 0.08495169878005981
0.2232999950647354 0.9288830161094666 0.10801000148057938
0.20485399663448334 0.9427180290222168 0.06650509685277939
0.24174700677394867 0.9611650109291077 0.029611900448799133
0.22791199386119843 0.9519420266151428 0.07111670076847076
0.21407699584960938 0.9565529823303223 0.029611900448799133
0.2740280032157898 0.9750000238418579 0.029611799865961075
0.2694169878959656 0.9657769799232483 0.07572829723358154
0.29708701372146606 0.9703879952430725 0.08033999800682068
0.3063099980354309 0.9750000238418579 0.03422340005636215
0.333979994058609 0.9750000238418579 0.08495160192251205
0.333979994058609 0.9565529823303223 0.13106800615787506
0.29247498512268066 0.9519420266151428 0.12645600736141205
0.26019400358200073 0.9473299980163574 0.12184499949216843
0.21407699584960938 0.887378990650177 0.15873800218105316
0.21407699584960938 0.8043689727783203 0.20946599543094635
0.21407699584960938 0.7766990065574646 0.23252399265766144
0.20946599543094635 0.7305819988250732 0.2555829882621765
0.26019400358200073 0.7075240015983582 0.2740289866924286
0.26019400358200073 0.7398059964179993 0.26941800117492676
0.29247599840164185 0.7121359705924988 0.2786409854888916
0.3293690085411072 0.7167479991912842 0.2786409854888916
0.333979994058609 0.7444170117378235 0.2740289866924286
0.28786399960517883 0.7444170117378235 0.2740289866924286
0.26019400358200073 0.7674760222434998 0.2555829882621765
0.21407699584960938 0.7628639936447144 0.24635900557041168
0.28786399960517883 0.7674760222434998 0.26019400358200073
0.333979994058609 0.7674760222434998 0.26019400358200073
0.333979994058609 0.7859219908714294 0.24635900557041168
0.28786399960517883 0.7859219908714294 0.24635900557041168
0.333979994058609 0.8135920166969299 0.23252399265766144
0.333979994058609 0.8504850268363953 0.21407799422740936
0.2832520008087158 0.8504850268363953 0.21407799422740936
0.28786399960517883 0.9288830161094666 0.15873800218105316
0.333979994058609 0.9058250188827515 0.18640799820423126
0.28786399960517883 0.9012140035629272 0.18640799820423126
0.2555820047855377 0.8966019749641418 0.17718499898910522
0.2555820047855377 0.845874011516571 0.20946599543094635
0.26019400358200073 0.8135920166969299 0.2233009934425354
0.26019400358200073 0.7859219908714294 0.24174800515174866
0.28786399960517883 0.8135920166969299 0.2279130071401596
0.09417469799518585 0.6060680150985718 0.17718499898910522
0.13568000495433807 0.6152909994125366 0.21407799422740936
0.1956309974193573 0.619903028011322 0.2279130071401596
0.40776699781417847 0.5876209735870361 0.24635900557041168
0.40315499901771545 0.6014559864997864 0.21407799422740936
0.3616499900817871 0.661408007144928 0.3016990125179291
0.35242700576782227 0.6337379813194275 0.338591992855072
0.38009700179100037 0.6475729942321777 0.29708701372146606
0.3893199861049652 0.5968449711799622 0.29708701372146606
0.37548500299453735 0.6152909994125366 0.3293690085411072
0.3893199861049652 0.5830100178718567 0.3109219968318939
0.40776699781417847 0.5553399920463562 0.29247599840164185
0.3939320147037506 0.619903028011322 0.24174800515174866
0.4123789966106415 0.6475729942321777 0.23713600635528564
0.3893199861049652 0.6706309914588928 0.2786409854888916
0.3662619888782501 0.6798539757728577 0.283253014087677
0.4446600079536438 0.6983010172843933 0.26019400358200073
0.4723300039768219 0.6475729942321777 0.2186889946460724
0.495388001203537 0.6890779733657837 0.23713600635528564
0.5461159944534302 0.661408007144928 0.20946599543094635
0.5322809815406799 0.6383500099182129 0.20485399663448334
0.5876209735870361 0.6291260123252869 0.1633490025997162
0.5737860202789307 0.619903028011322 0.1679610013961792
0.5968440175056458 0.6060680150985718 0.13567900657653809
0.6152909994125366 0.5783979892730713 0.09417460113763809
0.5830100178718567 0.5691750049591064 0.1402910053730011
0.6152909994125366 0.541504979133606 0.10801000148057938
0.5922330021858215 0.5322819948196411 0.15873800218105316
0.4492720067501068 0.5276700258255005 0.26480600237846375
0.5046120285987854 0.5230579972267151 0.24174800515174866
0.5461159944534302 0.5276700258255005 0.21407799422740936
0.6337379813194275 0.4400489926338196 0.11723300069570541
0.6106799840927124 0.4492720067501068 0.18179599940776825
0.5553399920463562 0.45849499106407166 0.24635900557041168
0.5092229843139648 0.46310698986053467 0.2786409854888916
0.4169900119304657 0.46310698986053467 0.3109219968318939
0.3939320147037506 0.5230579972267151 0.338591992855072
0.37087398767471313 0.5783979892730713 0.37548598647117615
0.3847090005874634 0.5553399920463562 0.35242700576782227
0.3847090005874634 0.5368930101394653 0.38009700179100037
0.40315601229667664 0.5 0.3847090005874634
0.3939320147037506 0.5138350129127502 0.4123789966106415
0.40776699781417847 0.4723300039768219 0.37548500299453735
0.3893209993839264 0.4400489926338196 0.3662619888782501
0.40315601229667664 0.4216020107269287 0.3570390045642853
0.43082600831985474 0.3985440135002136 0.35242700576782227
0.48616498708724976 0.38009700179100037 0.3016990125179291
0.5461170077323914 0.3939320147037506 0.26019400358200073
0.5276700258255005 0.3063110113143921 0.2740289866924286
0.3893209993839264 0.40315499901771545 0.3847090005874634
0.3616510033607483 0.43543699383735657 0.3985440135002136
0.35242700576782227 0.5968449711799622 0.3893199861049652
0.34781599044799805 0.5691750049591064 0.43082499504089355
0.37087398767471313 0.564562976360321 0.3985440135002136
0.37087398767471313 0.5461170077323914 0.4262140095233917
0.35242700576782227 0.5461170077323914 0.45849499106407166
0.3570390045642853 0.5092229843139648 0.45849499106407166
0.34781599044799805 0.4492720067501068 0.4169900119304657
0.34781599044799805 0.43543699383735657 0.40315499901771545
0.37548598647117615 0.5230579972267151 0.4492720067501068
0.35242700576782227 0.5276700258255005 0.4677189886569977
0.34320399165153503 0.40776699781417847 0.3985440135002136
0.3616510033607483 0.40776699781417847 0.3985440135002136
0.48616498708724976 0.3109219968318939 0.32014599442481995
0.46310698986053467 0.28786399960517883 0.338591992855072
0.3662630021572113 0.26480600237846375 0.3985440135002136
0.40315601229667664 0.26941800117492676 0.3939320147037506
0.43082600831985474 0.2740289866924286 0.37548500299453735
0.46310698986053467 0.23713600635528564 0.34320399165153503
0.4169909954071045 0.23713600635528564 0.37548500299453735
0.3985440135002136 0.24174800515174866 0.3847090005874634
0.3662630021572113 0.24635900557041168 0.3985440135002136
0.37087398767471313 0.20485399663448334 0.4123789966106415
0.4169909954071045 0.2002429962158203 0.3847090005874634
0.45849600434303284 0.19101999700069427 0.34781599044799805
0.5046120285987854 0.18640799820423126 0.29247599840164185
0.509223997592926 0.23252399265766144 0.2832520008087158
0.6060680150985718 0.3893209993839264 0.18640799820423126
0.6337379813194275 0.3893209993839264 0.11723300069570541
0.6291260123252869 0.32014599442481995 0.12645600736141205
0.5922330021858215 0.31553399562835693 0.1956309974193573
0.6060680150985718 0.2555829882621765 0.1402910053730011
0.564562976360321 0.23252399265766144 0.1956309974193573
0.5968449711799622 0.2279130071401596 0.1449030041694641
0.5783979892730713 0.1725730001926422 0.15873800218105316
0.5276700258255005 0.0987865999341011 0.1725730001926422
0.5138350129127502 0.0987865999341011 0.2002429962158203
0.541504979133606 0.1402910053730011 0.2002429962158203
0.4677189886569977 0.057281699031591415 0.18640799820423126
0.4769420027732849 0.10339800268411636 0.29247599840164185
0.43543699383735657 0.08033990114927292 0.29247599840164185
0.5553399920463562 0.12645700573921204 0.1725730001926422
0.5553399920463562 0.18179599940776825 0.2002429962158203
0.541504979133606 0.23252399265766144 0.23713600635528564
0.49538901448249817 0.14951500296592712 0.29708701372146606
0.45849600434303284 0.15412600338459015 0.3570390045642853
0.3662630021572113 0.14951500296592712 0.4262140095233917
0.3662630021572113 0.1126210018992424 0.40315499901771545
0.3662630021572113 0.08033979684114456 0.3570390045642853
0.40315601229667664 0.08956319838762283 0.3570390045642853
0.3985440135002136 0.12184499949216843 0.3985440135002136
0.3985440135002136 0.14951500296592712 0.4123789966106415
0.4169909954071045 0.15412600338459015 0.3985440135002136
0.4400489926338196 0.1126210018992424 0.3570390045642853
0.3985440135002136 0.20485399663448334 0.3985440135002136
0.37087398767471313 0.061893198639154434 0.29708701372146606
0.37548598647117615 0.029611699283123016 0.20485399663448334
0.40315601229667664 0.06650490313768387 0.29708701372146606
0.4169909954071045 0.03883500024676323 0.1956309974193573
0.5968440175056458 0.6521850228309631 0.15873800218105316
0.6060680150985718 0.6152920126914978 0.12184499949216843
0.6152909994125366 0.6521850228309631 0.08956290036439896
0.5968440175056458 0.6798549890518188 0.12645600736141205
0.5553399920463562 0.6844660043716431 0.20946599543094635
0.5461159944534302 0.7167479991912842 0.18640799820423126
0.5922330021858215 0.7121359705924988 0.10339800268411636
0.6060680150985718 0.7029129862785339 0.08495129644870758
0.5968440175056458 0.7444180250167847 0.0803396999835968
0.5461159944534302 0.7720879912376404 0.1449030041694641
0.541504979133606 0.7444180250167847 0.1633490025997162
0.5 0.7121359705924988 0.23713600635528564
0.5 0.7444180250167847 0.2233009934425354
0.495388001203537 0.7628639936447144 0.20485399663448334
0.495388001203537 0.7951459884643555 0.18179599940776825
0.5461159944534302 0.8043689727783203 0.12645600736141205
0.495388001203537 0.822816014289856 0.1633490025997162
0.5737860202789307 0.7859230041503906 0.08495129644870758
0.5368930101394653 0.8504859805107117 0.08956299722194672
0.495388001203537 0.8735439777374268 0.13106800615787506
0.45388299226760864 0.8366510272026062 0.1910189986228943
0.5092229843139648 0.8827670216560364 0.08956299722194672
0.48155298829078674 0.9150490164756775 0.08495140075683594
0.4446600079536438 0.9288840293884277 0.10801000148057938
0.45849499106407166 0.9381070137023926 0.06650479882955551
0.4354360103607178 0.9473299980163574 0.06650490313768387
0.42160099744796753 0.9611650109291077 0.029611699283123016
0.44927099347114563 0.9565529823303223 0.02500000037252903
0.39854300022125244 0.9657769799232483 0.07572820037603378
0.39393100142478943 0.9703879952430725 0.029611699283123016
0.37087300419807434 0.9703879952430725 0.08033990114927292
0.3616499900817871 0.9750000238418579 0.03422340005636215
0.37548500299453735 0.9519420266151428 0.12645600736141205
0.4077660143375397 0.9473299980163574 0.12184499949216843
0.45388299226760864 0.887378990650177 0.15873800218105316
0.4492720067501068 0.8043689727783203 0.20946599543094635
0.45388299226760864 0.7766990065574646 0.23252399265766144
0.45388299226760864 0.7305830121040344 0.2555829882621765
0.40315499901771545 0.7075240015983582 0.2740289866924286
0.40315499901771545 0.7398059964179993 0.26941800117492676
0.37087398767471313 0.7121359705924988 0.2786409854888916
0.37548500299453735 0.7444170117378235 0.2740289866924286
0.40776699781417847 0.7674760222434998 0.2555829882621765
0.4492720067501068 0.7582529783248901 0.24635900557041168
0.37548500299453735 0.7674760222434998 0.26019400358200073
0.37548500299453735 0.7859219908714294 0.24635900557041168
0.38009700179100037 0.8135920166969299 0.2279130071401596
0.38009700179100037 0.845874011516571 0.21407799422740936
0.37548500299453735 0.9242720007896423 0.15873800218105316
0.37548500299453735 0.9012140035629272 0.18640799820423126
0.4123780131340027 0.8966019749641418 0.17718400061130524
0.40776699781417847 0.8412619829177856 0.20946599543094635
0.40776699781417847 0.8089810013771057 0.2233009934425354
0.40776699781417847 0.7859219908714294 0.24174800515174866
0.564562976360321 0.6014569997787476 0.17718400061130524
0.5276700258255005 0.6106799840927124 0.21407799422740936
0.4677180051803589 0.619903028011322 0.2233009934425354
0.3293690085411072 0.02500000037252903 0.1956309974193573
0.333979994058609 0.9750000238418579 0.03422340005636215
3 2 1 0
3 4 3 2
3 6 5 4
3 6 7 5
3 8 7 6
3 8 9 7
3 12 11 10
3 10 11 13
3 11 14 13
3 13 14 15
3 15 17 16
3 19 16 18
3 22 21 20
3 21 23 20
3 21 24 23
3 21 25 24
3 26 25 21
3 27 26 21
3 28 27 21
3 22 28 21
3 31 30 29
3 32 31 29
3 29 34 33
3 33 32 29
3 29 35 34
3 35 29 36
3 36 29 37
3 30 37 29
3 40 39 38
3 41 40 38
3 42 40 41
3 44 43 42
3 46 45 44
3 47 45 46
3 49 48 47
3 50 48 49
3 52 51 50
3 54 52 53
3 55 54 53
3 56 54 55
3 57 41 38
3 58 57 38
3 41 59 42
3 58 60 57
3 42 61 44
3 59 60 61
3 60 62 61
3 44 63 46
3 61 62 64
3 46 65 47
3 63 64 66
3 47 65 49
3 68 66 67
3 49 68 50
3 70 67 69
3 50 70 52
3 72 70 71
3 70 69 71
3 52 72 53
3 74 71 73
3 53 74 55
3 74 73 55
3 2 3 1
3 4 5 3
3 15 14 17
3 16 17 18
3 40 42 43
3 75 43 44
3 44 45 75
3 76 45 47
3 47 48 76
3 77 48 50
3 50 51 77
3 51 52 54
3 57 59 41
3 57 60 59
3 59 61 42
3 61 63 44
3 61 64 63
3 63 65 46
3 63 66 65
3 49 65 68
3 65 66 68
3 50 68 70
3 68 67 70
3 52 70 72
3 53 72 74
3 72 71 74
3 8 79 78
3 6 79 8
3 82 81 80
3 83 81 82
3 85 83 84
3 86 85 84
3 87 86 84
3 87 84 79
3 79 84 88
3 88 84 83
3 78 79 88
3 78 88 9
3 9 88 89
3 88 90 89
3 91 83 82
3 92 82 80
3 9 89 93
3 9 93 94
3 93 95 94
3 97 95 96
3 99 96 98
3 0 98 100
3 101 0 100
3 101 100 0
3 102 0 101
3 104 103 102
3 102 103 2
3 105 79 6
3 79 105 87
3 106 105 6
3 4 106 6
3 107 106 4
3 2 107 4
3 103 107 2
3 108 103 104
3 108 109 103
3 109 107 103
3 110 107 109
3 107 110 106
3 111 105 106
3 111 112 105
3 110 111 106
3 112 87 105
3 87 112 113
3 86 114 85
3 87 115 86
3 113 116 115
3 117 116 113
3 116 117 118
3 112 117 113
3 119 117 112
3 120 119 112
3 121 120 112
3 122 121 112
3 123 122 112
3 125 123 124
3 123 111 124
3 111 123 112
3 121 126 120
3 122 126 121
3 120 126 127
3 120 127 22
3 114 128 81
3 81 130 129
3 128 131 130
3 114 132 128
3 115 132 114
3 116 132 115
3 133 132 116
3 118 133 116
3 134 131 133
3 119 22 20
3 119 20 23
3 119 23 117
3 23 24 118
3 23 118 117
3 24 25 118
3 135 25 26
3 136 135 26
3 137 136 27
3 127 137 28
3 22 127 28
3 137 27 28
3 134 138 131
3 139 134 133
3 141 140 134
3 135 140 141
3 139 135 141
3 143 142 135
3 135 136 143
3 143 136 137
3 145 137 144
3 146 144 137
3 146 127 126
3 144 76 145
3 146 45 144
3 126 75 146
3 43 75 126
3 40 43 126
3 40 126 122
3 39 40 122
3 123 39 122
3 147 39 123
3 125 147 123
3 148 147 125
3 147 148 38
3 147 38 39
3 148 58 38
3 66 64 149
3 149 64 150
3 64 62 150
3 150 62 60
3 150 60 151
3 152 151 60
3 152 60 58
3 148 152 58
3 153 152 148
3 154 152 153
3 155 151 154
3 156 150 155
3 149 150 156
3 156 157 149
3 155 158 156
3 159 155 154
3 160 154 153
3 160 159 154
3 161 160 153
3 161 153 162
3 125 162 153
3 125 153 148
3 124 111 110
3 163 124 110
3 109 163 110
3 164 163 109
3 108 164 109
3 165 163 164
3 166 163 165
3 167 166 165
3 167 168 166
3 170 168 169
3 173 172 171
3 174 173 171
3 175 173 174
3 174 176 175
3 178 172 177
3 170 178 177
3 168 177 179
3 168 179 166
3 179 125 166
3 162 125 179
3 179 161 162
3 177 161 179
3 172 161 177
3 180 161 172
3 181 160 180
3 166 125 124
3 163 166 124
3 171 172 178
3 158 182 157
3 184 183 182
3 185 183 184
3 187 184 186
3 186 184 188
3 188 184 189
3 184 182 189
3 189 182 190
3 189 190 191
3 192 189 191
3 181 192 191
3 181 191 160
3 191 159 160
3 159 191 190
3 159 190 193
3 187 186 194
3 196 195 194
3 194 197 196
3 198 197 176
3 173 175 180
3 175 181 180
3 197 188 176
3 188 192 176
3 192 188 189
3 197 186 188
3 190 158 193
3 104 102 101
3 200 98 199
3 101 100 200
3 201 101 200
3 201 200 202
3 200 199 202
3 199 204 203
3 199 203 202
3 206 202 205
3 206 205 207
3 205 208 207
3 202 209 205
3 203 209 202
3 98 204 199
3 98 96 204
3 204 95 210
3 203 210 211
3 203 211 212
3 209 212 213
3 209 213 208
3 208 215 214
3 216 208 214
3 214 217 216
3 215 218 214
3 218 215 219
3 217 218 220
3 220 218 221
3 223 221 222
3 226 225 224
3 224 228 227
3 228 229 227
3 229 231 230
3 229 232 231
3 228 233 229
3 225 234 228
3 221 218 222
3 218 219 235
3 213 219 215
3 236 219 213
3 212 237 236
3 211 237 212
3 210 238 211
3 210 93 238
3 95 93 210
3 238 93 239
3 238 239 240
3 93 90 239
3 89 90 93
3 239 90 241
3 90 91 241
3 241 91 242
3 91 92 242
3 244 242 243
3 240 241 244
3 246 240 245
3 240 247 245
3 248 244 243
3 250 248 249
3 250 249 251
3 253 251 252
3 233 254 232
3 254 255 232
3 256 255 254
3 257 256 254
3 222 235 234
3 235 257 234
3 219 257 235
3 257 219 258
3 219 259 258
3 236 259 219
3 237 260 236
3 246 260 237
3 250 245 247
3 260 250 259
3 250 261 259
3 259 261 253
3 258 253 256
3 257 258 256
3 253 252 256
3 212 236 213
3 234 254 233
3 234 257 254
3 78 9 8
3 102 2 0
3 1 262 0
3 0 262 99
3 262 97 99
3 3 263 1
3 263 264 94
3 3 5 264
3 264 5 7
3 264 7 9
3 94 264 9
3 266 265 10
3 10 265 13
3 80 268 267
3 267 268 269
3 269 271 270
3 270 271 272
3 270 272 273
3 270 273 265
3 270 265 274
3 274 269 270
3 274 265 266
3 266 12 274
3 12 275 274
3 275 276 274
3 277 267 269
3 92 80 267
3 12 278 275
3 12 279 278
3 280 278 279
3 282 281 280
3 281 284 283
3 283 19 285
3 285 19 286
3 286 19 285
3 19 287 286
3 287 289 288
3 287 16 289
3 265 290 13
3 265 273 290
3 13 290 291
3 15 13 291
3 15 291 292
3 16 15 292
3 16 292 289
3 289 293 288
3 289 294 293
3 289 292 294
3 292 295 294
3 292 291 295
3 290 296 291
3 290 297 296
3 296 295 291
3 273 297 290
3 273 298 297
3 271 299 272
3 272 300 273
3 300 301 298
3 301 302 298
3 301 303 302
3 297 298 302
3 297 302 304
3 304 305 297
3 297 305 306
3 306 307 297
3 297 307 308
3 308 310 309
3 296 308 309
3 296 297 308
3 305 311 306
3 306 311 307
3 305 312 311
3 305 36 312
3 313 299 268
3 129 130 268
3 130 314 313
3 313 315 299
3 299 315 300
3 300 315 301
3 315 316 301
3 316 303 301
3 314 317 316
3 304 35 36
3 304 34 35
3 304 302 34
3 34 303 33
3 303 34 302
3 303 32 33
3 32 318 31
3 319 31 318
3 30 319 320
3 312 37 320
3 36 37 312
3 37 30 320
3 138 317 314
3 317 321 316
3 317 140 322
3 322 140 318
3 321 322 318
3 318 142 143
3 319 318 143
3 319 143 320
3 320 143 323
3 324 320 323
3 312 324 311
3 145 76 323
3 323 48 324
3 324 77 311
3 311 77 51
3 54 311 51
3 311 54 307
3 307 54 56
3 308 307 56
3 56 325 308
3 308 325 310
3 325 326 310
3 55 326 325
3 325 56 55
3 55 73 326
3 149 67 66
3 67 149 327
3 69 67 327
3 327 71 69
3 71 327 328
3 329 71 328
3 71 329 73
3 73 329 326
3 326 329 330
3 330 329 331
3 331 328 332
3 332 327 333
3 327 149 333
3 149 157 333
3 333 334 332
3 332 335 331
3 331 336 330
3 331 335 336
3 337 330 336
3 330 337 338
3 310 330 338
3 310 326 330
3 296 309 295
3 295 309 339
3 294 295 339
3 294 339 340
3 293 294 340
3 340 339 341
3 339 342 341
3 342 343 341
3 342 344 343
3 344 346 345
3 349 348 347
3 347 348 350
3 348 351 350
3 351 352 350
3 354 349 353
3 346 354 353
3 344 355 354
3 355 344 342
3 342 310 355
3 310 338 355
3 338 337 355
3 355 337 354
3 354 337 349
3 337 356 349
3 336 357 356
3 309 310 342
3 339 309 342
3 349 347 353
3 157 183 334
3 359 358 183
3 183 185 359
3 359 185 360
3 360 361 359
3 361 362 359
3 362 358 359
3 362 363 358
3 363 362 364
3 364 362 365
3 357 364 365
3 364 357 336
3 335 364 336
3 335 363 364
3 335 366 363
3 360 187 367
3 367 195 368
3 369 367 368
3 370 352 369
3 348 356 351
3 356 357 351
3 361 369 352
3 365 361 352
3 365 362 361
3 369 361 360
3 366 334 363
3 287 288 286
3 372 371 283
3 372 285 286
3 373 372 286
3 373 374 372
3 374 371 372
3 371 376 375
3 376 371 374
3 378 377 374
3 377 378 379
3 379 380 377
3 377 381 374
3 381 376 374
3 375 283 371
3 375 281 283
3 375 382 280
3 376 383 382
3 376 384 383
3 381 385 384
3 385 381 380
3 387 380 386
3 386 380 388
3 389 386 388
3 390 387 386
3 390 391 387
3 392 390 389
3 390 392 393
3 395 394 393
3 398 397 396
3 400 399 397
3 400 401 399
3 402 231 401
3 231 232 401
3 401 403 399
3 399 404 396
3 394 390 393
3 405 391 390
3 391 385 387
3 391 406 385
3 406 407 384
3 384 407 383
3 383 408 382
3 408 278 382
3 382 278 280
3 408 409 278
3 408 410 409
3 409 276 278
3 278 276 275
3 409 411 276
3 411 277 276
3 411 242 277
3 242 92 277
3 242 411 243
3 412 411 410
3 414 413 410
3 415 410 413
3 248 243 412
3 416 249 248
3 417 251 249
3 418 252 251
3 232 419 403
3 232 255 419
3 255 420 419
3 420 421 419
3 404 405 394
3 404 421 405
3 421 391 405
3 421 422 391
3 422 423 391
3 391 423 406
3 423 407 406
3 424 414 407
3 416 415 413
3 416 424 423
3 417 416 423
3 417 423 418
3 418 422 420
3 420 422 421
3 420 252 418
3 406 384 385
3 404 403 419
3 404 419 421
3 10 12 266
3 287 19 16
3 425 18 19
3 284 425 19
3 282 425 284
3 426 17 18
3 426 279 427
3 17 427 14
3 14 427 11
3 11 427 12
3 427 279 12
3 80 81 129
3 85 81 83
3 83 90 88
3 90 83 91
3 91 82 92
3 94 95 97
3 97 96 99
3 99 98 0
3 115 114 86
3 113 115 87
3 85 114 81
3 128 130 81
3 130 131 138
3 128 132 131
3 139 133 118
3 133 131 132
3 120 22 119
3 118 25 139
3 25 135 139
3 136 26 27
3 138 134 140
3 141 134 139
3 142 140 135
3 143 137 145
3 146 137 127
3 45 76 144
3 75 45 146
3 154 151 152
3 155 150 151
3 158 157 156
3 193 158 155
3 193 155 159
3 169 168 167
3 177 168 170
3 180 160 161
3 157 182 183
3 185 184 187
3 195 187 194
3 428 195 196
3 196 197 198
3 198 176 174
3 173 180 172
3 192 181 175
3 176 192 175
3 194 186 197
3 182 158 190
3 100 98 200
3 201 202 206
3 209 208 205
3 96 95 204
3 204 210 203
3 203 212 209
3 213 215 208
3 207 208 216
3 214 218 217
3 223 222 225
3 223 225 226
3 225 228 224
3 227 229 230
3 230 231 429
3 233 232 229
3 234 233 228
3 222 234 225
3 222 218 235
3 246 237 211
3 211 238 246
3 241 242 244
3 239 241 240
3 238 240 246
3 247 240 244
3 247 244 248
3 247 248 250
3 261 250 251
3 261 251 253
3 236 260 259
3 260 246 245
3 260 245 250
3 258 259 253
3 256 252 255
3 263 97 262
3 1 263 262
3 263 94 97
3 3 264 263
3 129 268 80
3 269 268 271
3 274 276 269
3 277 269 276
3 92 267 277
3 282 280 279
3 284 281 282
3 19 283 284
3 272 299 300
3 273 300 298
3 268 299 271
3 268 130 313
3 138 314 130
3 314 315 313
3 303 316 321
3 315 314 316
3 304 36 305
3 321 32 303
3 321 318 32
3 30 31 319
3 140 317 138
3 321 317 322
3 318 140 142
3 323 143 145
3 312 320 324
3 323 76 48
3 324 48 77
3 329 328 331
3 328 327 332
3 333 157 334
3 332 334 366
3 366 335 332
3 343 344 345
3 346 344 354
3 337 336 356
3 334 183 358
3 360 185 187
3 367 187 195
3 368 195 428
3 370 369 368
3 350 352 370
3 349 356 348
3 351 357 365
3 351 365 352
3 369 360 367
3 363 334 358
3 372 283 285
3 378 374 373
3 377 380 381
3 375 280 281
3 376 382 375
3 381 384 376
3 380 387 385
3 388 380 379
3 389 390 386
3 396 394 395
3 398 396 395
3 397 399 396
3 402 401 400
3 429 231 402
3 401 232 403
3 399 403 404
3 396 404 394
3 405 390 394
3 383 407 414
3 414 408 383
3 243 411 412
3 410 411 409
3 414 410 408
3 412 410 415
3 248 412 415
3 416 248 415
3 417 249 416
3 418 251 417
3 424 407 423
3 413 414 424
3 416 413 424
3 418 423 422
3 255 252 420
3 425 282 426
3 425 426 18
3 282 279 426
3 426 427 17
