ply
format ascii 1.0
element vertex 421
property float x
property float y
property float z
element face 837
property list uchar int vertex_indices
end_header
0.17070899903774261 0.0685311034321785 0.29470399022102356
0.1833599954843521 0.08099260181188583 0.3143419921398163
0.15249599516391754 0.11167199909687042 0.31828999519348145
0.135003000497818 0.1065329983830452 0.2951200008392334
0.1683579981327057 0.06878030300140381 0.25533899664878845
0.13582099974155426 0.1108819991350174 0.24203799664974213
0.14593200385570526 0.08506520092487335 0.28821200132369995
0.09460210055112839 0.21375200152397156 0.21932199597358704
0.08240610361099243 0.2340719997882843 0.2231609970331192
0.07951950281858444 0.18216300010681152 0.2441280037164688
0.10268200188875198 0.19188900291919708 0.21993699669837952
0.060218099504709244 0.22702600061893463 0.24379199743270874
0.25591298937797546 0.22983700037002563 0.03913920000195503
0.05330770090222359 0.5866429805755615 0.2420870065689087
0.044268898665905 0.6700549721717834 0.35587701201438904
0.07332400232553482 0.6212049722671509 0.13681599497795105
0.06351079791784286 0.7031279802322388 0.12711699306964874
0.09365440160036087 0.20507599413394928 0.33136099576950073
0.10279600322246552 0.18336500227451324 0.3277370035648346
0.04459390044212341 0.5795429944992065 0.3543030023574829
0.22665800154209137 0.2564390003681183 0.030940400436520576
0.09236550331115723 0.694441020488739 0.46129900217056274
0.09426639974117279 0.6196669936180115 0.4677329957485199
0.20865599811077118 0.2399590015411377 0.03885269910097122
0.2360379993915558 0.21061700582504272 0.0419716015458107
0.2187509983778 0.20625199377536774 0.09173669666051865
0.19389300048351288 0.23461300134658813 0.08553960174322128
0.18513600528240204 0.08879660069942474 0.2207150012254715
0.20401999354362488 0.2506279945373535 0.1071000024676323
0.15153199434280396 0.08809790015220642 0.23881399631500244
0.15436400473117828 0.12034299969673157 0.2203730046749115
0.22828799486160278 0.22144199907779694 0.10904700309038162
0.2533459961414337 0.23591899871826172 0.10912500321865082
0.2324959933757782 0.27159199118614197 0.10733900219202042
0.07909169793128967 0.1771859973669052 0.3019599914550781
0.1504489928483963 0.2914719879627228 0.08131320029497147
0.1680389940738678 0.29581600427627563 0.032377198338508606
0.16509799659252167 0.14222800731658936 0.35447800159454346
0.14447499811649323 0.15656299889087677 0.35316699743270874
0.15445099771022797 0.10572099685668945 0.3669539988040924
0.17527900636196136 0.1236250028014183 0.3567019999027252
0.14949500560760498 0.33899998664855957 0.03423149883747101
0.13271799683570862 0.3323819935321808 0.08800370246171951
0.16753999888896942 0.2953450083732605 0.10567300021648407
0.12230899930000305 0.13950300216674805 0.3705810010433197
0.14462099969387054 0.3365199863910675 0.11041899770498276
0.15560999512672424 0.31587499380111694 0.10765700042247772
0.17430999875068665 0.34544500708580017 0.02500000037252903
0.18456700444221497 0.32502299547195435 0.025452200323343277
0.19484099745750427 0.3046700060367584 0.02709149941802025
0.12208099663257599 0.6507480144500732 0.04738299921154976
0.20526599884033203 0.31464600563049316 0.11373099684715271
0.19075700640678406 0.340039998292923 0.11641400307416916
0.05938410013914108 0.22163699567317963 0.30903300642967224
0.08400370180606842 0.22630000114440918 0.3311690092086792
0.07181839644908905 0.22614899277687073 0.3714370131492615
0.09602650254964828 0.23029200732707977 0.35436201095581055
0.09028039872646332 0.2529889941215515 0.35402798652648926
0.08458860218524933 0.2751060128211975 0.3557389974594116
0.057558998465538025 0.2692739963531494 0.3727929890155792
0.16642500460147858 0.11411499977111816 0.4541960060596466
0.14793600142002106 0.09869100153446198 0.43685799837112427
0.13278800249099731 0.10578499734401703 0.4117560088634491
0.11495400220155716 0.13385500013828278 0.39086899161338806
0.11292900145053864 0.13189999759197235 0.41154900193214417
0.1547269970178604 0.13190500438213348 0.456699013710022
0.11625900119543076 0.13298800587654114 0.4334540069103241
0.13419100642204285 0.14623500406742096 0.45611101388931274
0.14662499725818634 0.0979653000831604 0.3891240060329437
0.05373549833893776 0.26436200737953186 0.43954500555992126
0.08393330127000809 0.24503900110721588 0.45956099033355713
0.09126610308885574 0.22387999296188354 0.4574280083179474
0.06743720173835754 0.2203810065984726 0.43732601404190063
0.0775969997048378 0.26632198691368103 0.4584749937057495
0.107355996966362 0.7237560153007507 0.05404210090637207
0.044994600117206573 0.7463989853858948 0.24253100156784058
0.04907809942960739 0.7464969754219055 0.3692210018634796
0.2884399890899658 0.20529800653457642 0.046997398138046265
0.3095879852771759 0.16856400668621063 0.05704290047287941
0.11751600354909897 0.43330299854278564 0.043132200837135315
0.15697400271892548 0.42890000343322754 0.03273409977555275
0.15160199999809265 0.4793420135974884 0.03131740167737007
0.09671969711780548 0.4834519922733307 0.09476190060377121
0.11356800049543381 0.46077200770378113 0.12117499858140945
0.12724199891090393 0.4105899930000305 0.12054300308227539
0.10036399960517883 0.42691299319267273 0.09049919992685318
0.11814399808645248 0.49350398778915405 0.04031439870595932
0.10272599756717682 0.7694540023803711 0.06961639970541
0.061474498361349106 0.7620670199394226 0.13034099340438843
0.16212500631809235 0.12055400013923645 0.1597059965133667
0.15730500221252441 0.13074100017547607 0.14104999601840973
0.18442100286483765 0.7629439830780029 0.05696430057287216
0.09507869929075241 0.7616990208625793 0.45386001467704773
0.18353800475597382 0.7190499901771545 0.04622019827365875
0.18507100641727448 0.39751100540161133 0.1190200001001358
0.1849679946899414 0.3679420053958893 0.11880499869585037
0.1184530034661293 0.29490599036216736 0.109934002161026
0.09847430139780045 0.38028401136398315 0.119268998503685
0.059822700917720795 0.3884289860725403 0.13866600394248962
0.08579090237617493 0.2931300103664398 0.12509000301361084
0.31289100646972656 0.191088005900383 0.11125600337982178
0.29302099347114563 0.17690899968147278 0.11240000277757645
0.28228700160980225 0.2135089933872223 0.11214199662208557
0.26061901450157166 0.18509800732135773 0.10275299847126007
0.14320799708366394 0.7686139941215515 0.48281899094581604
0.1452769935131073 0.6991639733314514 0.505370020866394
0.237077996134758 0.5208150148391724 0.437828004360199
0.26354900002479553 0.4609990119934082 0.46389898657798767
0.3111039996147156 0.46629598736763 0.4561229944229126
0.1774509996175766 0.6540349721908569 0.03972569853067398
0.12096600234508514 0.5444920063018799 0.04301949962973595
0.16291500627994537 0.5415189862251282 0.03499029949307442
0.2942129969596863 0.5146089792251587 0.44757699966430664
0.0981006994843483 0.8248019814491272 0.4415059983730316
0.14503799378871918 0.8290259838104248 0.4673149883747101
0.17460200190544128 0.8243740200996399 0.06892649829387665
0.10990100353956223 0.828478991985321 0.0779993012547493
0.06186990067362785 0.8189039826393127 0.37195301055908203
0.050605300813913345 0.8192510008811951 0.254956990480423
0.06974419951438904 0.8262640237808228 0.13920000195503235
0.21981200575828552 0.051812998950481415 0.23502500355243683
0.224248006939888 0.06843910366296768 0.22317899763584137
0.2221679985523224 0.06098710000514984 0.3102949857711792
0.2182530015707016 0.04635940119624138 0.2958030104637146
0.21405600011348724 0.7056570053100586 0.5193390250205994
0.2590380012989044 0.46281901001930237 0.5435550212860107
0.2506980001926422 0.48402100801467896 0.5390520095825195
0.315095990896225 0.3381829857826233 0.5551090240478516
0.29246899485588074 0.3299129903316498 0.5444949865341187
0.2743909955024719 0.3987410068511963 0.5481579899787903
0.29431599378585815 0.3958429992198944 0.5638660192489624
0.26944699883461 0.48763900995254517 0.5485950112342834
0.2658019959926605 0.4431599974632263 0.5458660125732422
0.30356600880622864 0.2820979952812195 0.5460659861564636
0.1808360069990158 0.0674154981970787 0.38962501287460327
0.18701499700546265 0.07422299683094025 0.36941400170326233
0.18126900494098663 0.06782709807157516 0.43623799085617065
0.15893499553203583 0.07852300256490707 0.4098449945449829
0.09727209806442261 0.2568340003490448 0.12655599415302277
0.17110399901866913 0.17049700021743774 0.10940899699926376
0.24015399813652039 0.05997439846396446 0.14572900533676147
0.24967999756336212 0.025687800720334053 0.24807199835777283
0.24980400502681732 0.4309310019016266 0.5174009799957275
0.27577200531959534 0.4220229983329773 0.47478801012039185
0.23756499588489532 0.4688299894332886 0.504830002784729
0.09026960283517838 0.2494090050458908 0.18389299511909485
0.07858259975910187 0.2848379909992218 0.19439299404621124
0.11406099796295166 0.24763800203800201 0.20896799862384796
0.107355996966362 0.282151997089386 0.21602599322795868
0.32024601101875305 0.4296860098838806 0.4652009904384613
0.18234099447727203 0.1273449957370758 0.19940899312496185
0.14532500505447388 0.15286900103092194 0.1416119933128357
0.14297999441623688 0.15090900659561157 0.181100994348526
0.15856100618839264 0.162650004029274 0.2025730013847351
0.2988159954547882 0.4494369924068451 0.5549769997596741
0.1879190057516098 0.15480799973011017 0.11102999746799469
0.1741960048675537 0.12964700162410736 0.1258849948644638
0.2729620039463043 0.18644100427627563 0.054028499871492386
0.21271799504756927 0.08467520028352737 0.1823669970035553
0.2206840068101883 0.0920242965221405 0.1241689994931221
0.30575400590896606 0.15374700725078583 0.10085900127887726
0.17889200150966644 0.11055099964141846 0.1412840038537979
0.20012100040912628 0.8765000104904175 0.4162299931049347
0.20445899665355682 0.8304610252380371 0.4640609920024872
0.11778099834918976 0.8603230118751526 0.10506799817085266
0.17420700192451477 0.8568630218505859 0.09783100336790085
0.14892099797725677 0.8759639859199524 0.41881799697875977
0.10651099681854248 0.8725249767303467 0.4001300036907196
0.2070859968662262 0.7697190046310425 0.48847100138664246
0.12498900294303894 0.2603760063648224 0.10962600260972977
0.06114419922232628 0.863306999206543 0.256181001663208
0.07403340190649033 0.8677480220794678 0.35093098878860474
0.07982280105352402 0.8619530200958252 0.1579750031232834
0.07778110355138779 0.37613001465797424 0.46936801075935364
0.2578519880771637 0.39162400364875793 0.5200240015983582
0.2131730020046234 0.569350004196167 0.5388200283050537
0.18750199675559998 0.05604799836874008 0.41272398829460144
0.21614600718021393 0.06393860280513763 0.3687480092048645
0.19086000323295593 0.08111169934272766 0.45250600576400757
0.20993399620056152 0.05668710172176361 0.4456839859485626
0.25274500250816345 0.02806529961526394 0.2917270064353943
0.04726380109786987 0.48351699113845825 0.44307300448417664
0.14400899410247803 0.5380370020866394 0.4722920060157776
0.0949866995215416 0.5140129923820496 0.4714309871196747
0.03511650115251541 0.46959400177001953 0.3581730127334595
0.058208901435136795 0.4051850140094757 0.3578760027885437
0.02789740078151226 0.41948801279067993 0.32288500666618347
0.05320480093359947 0.47304901480674744 0.23389500379562378
0.026982100680470467 0.42069000005722046 0.2614409923553467
0.05458579957485199 0.40202799439430237 0.23183800280094147
0.24740499258041382 0.045427899807691574 0.3049750030040741
0.053237300366163254 0.4366070032119751 0.3881010115146637
0.025476599112153053 0.4821470081806183 0.29838600754737854
0.08309929817914963 0.4268699884414673 0.47216200828552246
0.053296901285648346 0.44112399220466614 0.4461809992790222
0.19293999671936035 0.5597649812698364 0.4881269931793213
0.0796440988779068 0.3678230047225952 0.358240008354187
0.15370899438858032 0.3733139932155609 0.35346800088882446
0.19903799891471863 0.09050250053405762 0.35780999064445496
0.2493389993906021 0.05266319960355759 0.22726400196552277
0.062281399965286255 0.3517270088195801 0.34674501419067383
0.3380419909954071 0.2572450041770935 0.5299199819564819
0.353969007730484 0.27597299218177795 0.510549008846283
0.3194659948348999 0.286967009305954 0.5095530152320862
0.09791649878025055 0.5423799753189087 0.0750180035829544
0.04896429926156998 0.4914950132369995 0.1783899962902069
0.09116320312023163 0.5119389891624451 0.12325400114059448
0.05973609909415245 0.42525601387023926 0.14674599468708038
0.05275529995560646 0.4211289882659912 0.20523400604724884
0.17542000114917755 0.430649995803833 0.1340869963169098
0.19014500081539154 0.10315299779176712 0.18101300299167633
0.21949300169944763 0.09688209742307663 0.19853100180625916
0.19781899452209473 0.10969000309705734 0.12429700046777725
0.2854450047016144 0.38037100434303284 0.4854559898376465
0.2410150021314621 0.06016390025615692 0.1768770068883896
0.1976030021905899 0.10093799978494644 0.16136300563812256
0.23107199370861053 0.10777299851179123 0.1151999980211258
0.026175199076533318 0.48552098870277405 0.3948409855365753
0.29767298698425293 0.5846120119094849 0.5571600198745728
0.042151398956775665 0.3766610026359558 0.3796350061893463
0.02585029974579811 0.36373400688171387 0.32572001218795776
0.02500000037252903 0.36575400829315186 0.25606200098991394
0.04118200019001961 0.37720799446105957 0.44742798805236816
0.23944400250911713 0.07676839828491211 0.19588500261306763
0.25007501244544983 0.08655989915132523 0.1195719987154007
0.15136399865150452 0.3780309855937958 0.23795899748802185
0.08522219955921173 0.360727995634079 0.22877800464630127
0.05178049951791763 0.37692099809646606 0.20524799823760986
0.06092210114002228 0.35413700342178345 0.23202000558376312
0.33094701170921326 0.3836199939250946 0.47819799184799194
0.22005100548267365 0.029208000749349594 0.4147450029850006
0.30886200070381165 0.3247080147266388 0.48954200744628906
0.2773430049419403 0.33196499943733215 0.5220829844474792
0.35023799538612366 0.32117700576782227 0.49079298973083496
0.3256399929523468 0.2564440071582794 0.5507209897041321
0.3627749979496002 0.26052701473236084 0.5570740103721619
0.18265500664710999 0.1344289928674698 0.31202200055122375
0.2118459939956665 0.10152900218963623 0.3086720108985901
0.22136099636554718 0.11596699804067612 0.27052098512649536
0.19253399968147278 0.1457040011882782 0.2728939950466156
0.21324899792671204 0.10785999894142151 0.23032400012016296
0.18379800021648407 0.14145299792289734 0.23189300298690796
0.11955200135707855 0.25172099471092224 0.23669900000095367
0.14263899624347687 0.19882699847221375 0.31813299655914307
0.14329999685287476 0.2242860049009323 0.2769170105457306
0.15433700382709503 0.20382000505924225 0.27491599321365356
0.13073000311851501 0.2464199960231781 0.3237389922142029
0.1357720047235489 0.2530269920825958 0.27761000394821167
0.12615899741649628 0.2227579951286316 0.23353999853134155
0.13515999913215637 0.203452005982399 0.23095600306987762
0.24961499869823456 0.2764599919319153 0.08809850364923477
0.27194398641586304 0.24592700600624084 0.05302390083670616
0.27231699228286743 0.24352200329303741 0.08443149924278259
0.24980400502681732 0.2836959958076477 0.05334720015525818
0.242248997092247 0.6782860159873962 0.18454700708389282
0.21435900032520294 0.5913379788398743 0.18202300369739532
0.19949300587177277 0.6151829957962036 0.2825089991092682
0.22679300606250763 0.6795650124549866 0.2891260087490082
0.3333359956741333 0.5532820224761963 0.5249760150909424
0.29821500182151794 0.6920689940452576 0.4953649938106537
0.29934701323509216 0.6901739835739136 0.4164460003376007
0.337348997592926 0.5350099802017212 0.4727559983730316
0.21208399534225464 0.14605599641799927 0.41110900044441223
0.1989399939775467 0.1324470043182373 0.44918298721313477
0.17388799786567688 0.1851789951324463 0.36986199021339417
0.193790003657341 0.16377100348472595 0.4111129939556122
0.1887809932231903 0.15643300116062164 0.3714349865913391
0.20546600222587585 0.13966600596904755 0.3734399974346161
0.16564500331878662 0.17656299471855164 0.4516800045967102
0.18097099661827087 0.19076299667358398 0.4127599895000458
0.221778005361557 0.33652499318122864 0.047287099063396454
0.2271990031003952 0.32813701033592224 0.08602049946784973
0.2151709944009781 0.3539310097694397 0.08730719983577728
0.13280999660491943 0.29009100794792175 0.37436699867248535
0.140392005443573 0.2436629980802536 0.3755300045013428
0.14672799408435822 0.29690998792648315 0.4192360043525696
0.15230600535869598 0.25339001417160034 0.4195770025253296
0.1363299936056137 0.24221700429916382 0.4515739977359772
0.1269499957561493 0.2888079881668091 0.45824700593948364
0.32797399163246155 0.18860700726509094 0.07513009756803513
0.29929301142692566 0.21788400411605835 0.06480730324983597
0.2999800145626068 0.21424999833106995 0.08909060060977936
0.3260459899902344 0.16083599627017975 0.07458910346031189
0.20303499698638916 0.44778499007225037 0.09475810080766678
0.20202699303627014 0.4605169892311096 0.05273419991135597
0.20821699500083923 0.42838600277900696 0.055809199810028076
0.2089489996433258 0.41995400190353394 0.09781909734010696
0.21321600675582886 0.3759790062904358 0.04958439990878105
0.20761600136756897 0.37957999110221863 0.09628699719905853
0.21225200593471527 0.39985600113868713 0.0934171974658966
0.24694499373435974 0.694333016872406 0.13247300684452057
0.24098199605941772 0.7389529943466187 0.20180299878120422
0.21854500472545624 0.5224019885063171 0.06677369773387909
0.1583549976348877 0.30136701464653015 0.12627099454402924
0.16009899973869324 0.3677299916744232 0.13919700682163239
0.1724739968776703 0.3049899935722351 0.1733420044183731
0.1717270016670227 0.35464099049568176 0.1806190013885498
0.32504400610923767 0.17217600345611572 0.10166999697685242
0.24677200615406036 0.7518690228462219 0.14698000252246857
0.23598900437355042 0.7576310038566589 0.0955997034907341
0.2668910026550293 0.767346978187561 0.46383899450302124
0.2292570024728775 0.6397489905357361 0.07224299758672714
0.2150840014219284 0.8198469877243042 0.09541179984807968
0.2411070019006729 0.8111870288848877 0.20687800645828247
0.2341039925813675 0.8149129748344421 0.14349700510501862
0.24170200526714325 0.7058849930763245 0.08714859932661057
0.2261810004711151 0.7359520196914673 0.29270198941230774
0.20841799676418304 0.6253319978713989 0.30363601446151733
0.2827860116958618 0.6492859721183777 0.3939499855041504
0.2753719985485077 0.7537649869918823 0.4000599980354309
0.2572830021381378 0.8194190263748169 0.38133400678634644
0.24798500537872314 0.8276180028915405 0.4399090111255646
0.1791519969701767 0.5554320216178894 0.29571598768234253
0.18703700602054596 0.5476229786872864 0.3178200125694275
0.2301509976387024 0.10067900270223618 0.37571200728416443
0.23964500427246094 0.14913800358772278 0.16564099490642548
0.22985799610614777 0.14542800188064575 0.1232530027627945
0.2561410069465637 0.12018000334501266 0.13607099652290344
0.21955199539661407 0.13674700260162354 0.20123499631881714
0.2606790065765381 0.12529300153255463 0.16690599918365479
0.24838000535964966 0.11330199986696243 0.19218599796295166
0.33396899700164795 0.4124149978160858 0.5577210187911987
0.3106060028076172 0.4946739971637726 0.5474960207939148
0.3134010136127472 0.472804993391037 0.5512329936027527
0.3660300076007843 0.39343899488449097 0.4987829923629761
0.2487429976463318 0.04574200138449669 0.3949030041694641
0.2505840063095093 0.0417994000017643 0.4177910089492798
0.13026399910449982 0.3508340120315552 0.3316340148448944
0.14221100509166718 0.3551880121231079 0.2866950035095215
0.12054300308227539 0.3515479862689972 0.28857800364494324
0.10577999800443649 0.3446600139141083 0.3227280080318451
0.13111500442028046 0.35267001390457153 0.24408000707626343
0.10563399642705917 0.3519980013370514 0.25336799025535583
0.12844499945640564 0.3727560043334961 0.4193739891052246
0.1159290000796318 0.37153199315071106 0.37863999605178833
0.13526299595832825 0.3548089861869812 0.3740270137786865
0.14777900278568268 0.35567501187324524 0.4154210090637207
0.1705079972743988 0.4081149995326996 0.10324899852275848
0.19180800020694733 0.4093720018863678 0.0872379019856453
0.18894800543785095 0.41666099429130554 0.05676500126719475
0.12427999824285507 0.3350740075111389 0.24501700699329376
0.14150699973106384 0.3363629877567291 0.2882609963417053
0.12649500370025635 0.3325670063495636 0.3294839859008789
0.15214399993419647 0.3651359975337982 0.1724099963903427
0.1312279999256134 0.35506901144981384 0.21046799421310425
0.15031300485134125 0.34384700655937195 0.2189590036869049
0.22217899560928345 0.1668040007352829 0.16586199402809143
0.19875599443912506 0.16642500460147858 0.1996069997549057
0.16738300025463104 0.2670210003852844 0.1275539994239807
0.17842599749565125 0.2698419988155365 0.16794799268245697
0.14902399480342865 0.29103899002075195 0.21258899569511414
0.16046200692653656 0.25713199377059937 0.20406299829483032
0.186722993850708 0.1852010041475296 0.20035800337791443
0.20016999542713165 0.1965949982404709 0.16578899323940277
0.19691500067710876 0.19136400520801544 0.12697799503803253
0.34338200092315674 0.47494399547576904 0.47961699962615967
0.35127800703048706 0.4549660086631775 0.48253801465034485
0.36004599928855896 0.43519899249076843 0.4851120114326477
0.35427799820899963 0.44850000739097595 0.5336660146713257
0.3416700065135956 0.48442700505256653 0.5219449996948242
0.22495199739933014 0.8517720103263855 0.15320399403572083
0.20626200735569 0.8544260263442993 0.11540000140666962
0.2346619963645935 0.8735269904136658 0.396465003490448
0.24646300077438354 0.8648719787597656 0.3495959937572479
0.3633280098438263 0.41082799434661865 0.5341249704360962
0.1311040073633194 0.36868900060653687 0.45544299483299255
0.25170499086380005 0.06876940280199051 0.4123550057411194
0.17370900511741638 0.5051310062408447 0.448078989982605
0.2664250135421753 0.06380870193243027 0.29537999629974365
0.27824699878692627 0.06739930063486099 0.26808199286460876
0.13624900579452515 0.3834739923477173 0.3214449882507324
0.26782798767089844 0.06886149942874908 0.24009500443935394
0.2429260015487671 0.07355149835348129 0.3793720006942749
0.2641499936580658 0.09059999883174896 0.1910250037908554
0.27896198630332947 0.09270119667053223 0.16580800712108612
0.28132298588752747 0.06881819665431976 0.15004299581050873
0.271575003862381 0.0972450003027916 0.13670599460601807
0.2183389961719513 0.595583975315094 0.4044339954853058
0.3645839989185333 0.2602350115776062 0.5346119999885559
0.3782149851322174 0.2945050001144409 0.5196170210838318
0.2374729961156845 0.0674154981970787 0.44339001178741455
0.18812499940395355 0.5253210067749023 0.3994469940662384
0.16196200251579285 0.3947489857673645 0.42177098989486694
0.14671699702739716 0.40449199080467224 0.45850199460983276
0.24444299936294556 0.08242770284414291 0.2981869876384735
0.25095799565315247 0.09526289999485016 0.2697699964046478
0.2763029932975769 0.02500000037252903 0.2842690050601959
0.2237820029258728 0.09364359825849533 0.45081499218940735
0.23955799639225006 0.1070370003581047 0.4134480059146881
0.2632350027561188 0.052040401846170425 0.1743919998407364
0.27717500925064087 0.028558099642395973 0.24752800166606903
0.24595899879932404 0.08767010271549225 0.23950199782848358
0.3804360032081604 0.3026449978351593 0.546288013458252
0.37891900539398193 0.3434410095214844 0.5487980246543884
0.3847090005874634 0.3262459933757782 0.5137370228767395
0.35541000962257385 0.3397960066795349 0.5609729886054993
0.20410700142383575 0.04467510059475899 0.3930470049381256
0.34697800874710083 0.2885909974575043 0.5634599924087524
0.31482499837875366 0.3061330020427704 0.5553500056266785
0.3400239944458008 0.3107469975948334 0.5620229840278625
0.21388199925422668 0.042351800948381424 0.25372299551963806
0.19736400246620178 0.05110349878668785 0.27422401309013367
0.18542799353599548 0.9735699892044067 0.2729640007019043
0.16655999422073364 0.9270009994506836 0.37655898928642273
0.2172510027885437 0.9259290099143982 0.35301199555397034
0.1975490003824234 0.9271360039710999 0.3748970031738281
0.1383499950170517 0.9286360144615173 0.3685010075569153
0.2276809960603714 0.9218990206718445 0.3160040080547333
0.11651899665594101 0.9283490180969238 0.33362600207328796
0.17956900596618652 0.9750000238418579 0.2527509927749634
0.107573002576828 0.9289889931678772 0.2617329955101013
0.2210250049829483 0.9203670024871826 0.21350200474262238
0.21252299845218658 0.9196299910545349 0.17597199976444244
0.22840699553489685 0.9199119806289673 0.25926700234413147
0.11294999718666077 0.9287559986114502 0.18211400508880615
0.1880279928445816 0.9739710092544556 0.23144599795341492
0.14644600450992584 0.9270060062408447 0.1441890001296997
0.18216300010681152 0.9245039820671082 0.13497300446033478
0.2104319930076599 0.0834783986210823 0.15918800234794617
0.2976300120353699 0.16101400554180145 0.0728474035859108
0.26074400544166565 0.17983900010585785 0.08029989898204803
3 4 401 0
3 236 2 1
3 1 6 0
3 6 1 2
3 2 3 6
3 238 239 236
3 237 236 1
3 236 237 238
3 239 238 240
3 239 240 241
3 6 3 5
3 244 248 242
3 5 29 6
3 17 18 243
3 245 244 246
3 246 244 247
3 241 240 27
3 249 248 244
3 243 246 17
3 246 54 17
3 246 243 245
3 244 245 249
3 249 10 7
3 8 7 9
3 9 7 10
3 7 248 249
3 9 11 8
3 7 8 242
3 242 248 7
3 242 247 244
3 24 20 12
3 250 252 253
3 252 251 253
3 256 255 254
3 251 12 20
3 20 253 251
3 254 257 256
3 260 259 258
3 14 16 13
3 16 15 13
3 18 17 53
3 16 14 76
3 13 19 14
3 19 22 21
3 21 14 19
3 258 261 260
3 27 30 241
3 4 29 27
3 29 5 30
3 30 27 29
3 31 28 25
3 28 31 32
3 33 252 250
3 33 32 252
3 32 33 28
3 53 34 18
3 268 263 262
3 36 35 42
3 38 37 44
3 37 40 39
3 37 38 264
3 41 36 42
3 42 35 43
3 264 266 37
3 267 266 265
3 268 265 269
3 265 262 267
3 264 269 265
3 46 45 42
3 265 266 264
3 267 40 37
3 37 266 267
3 43 46 42
3 49 48 270
3 48 47 287
3 287 270 48
3 36 41 47
3 47 48 36
3 50 15 16
3 270 272 271
3 272 270 287
3 52 51 271
3 51 52 46
3 52 45 46
3 271 272 52
3 46 43 51
3 262 265 268
3 268 67 65
3 17 54 53
3 276 274 273
3 56 57 274
3 273 275 276
3 57 58 273
3 278 277 276
3 273 274 57
3 57 56 55
3 9 34 53
3 11 9 53
3 278 276 275
3 58 57 59
3 55 59 57
3 70 71 277
3 65 60 263
3 62 64 63
3 60 65 61
3 65 67 66
3 263 268 65
3 71 70 69
3 278 73 70
3 69 72 71
3 70 73 69
3 277 278 70
3 55 72 69
3 69 59 55
3 16 74 50
3 78 157 77
3 77 280 279
3 280 281 100
3 100 279 280
3 78 279 282
3 77 157 24
3 24 12 77
3 251 280 77
3 279 78 77
3 81 80 79
3 84 83 82
3 82 85 84
3 79 86 81
3 285 284 283
3 253 270 271
3 283 286 285
3 77 12 251
3 271 250 253
3 85 82 86
3 16 76 75
3 16 88 87
3 87 74 16
3 75 88 16
3 74 87 91
3 92 76 14
3 14 21 92
3 91 93 74
3 288 287 285
3 47 41 79
3 36 49 20
3 49 270 253
3 253 20 49
3 79 80 47
3 20 23 36
3 287 47 80
3 80 285 287
3 285 289 288
3 86 79 85
3 209 286 283
3 291 254 290
3 289 94 95
3 45 95 94
3 45 84 85
3 85 42 45
3 95 288 289
3 284 81 111
3 41 42 85
3 94 84 45
3 111 292 284
3 294 293 96
3 98 97 96
3 96 99 98
3 96 97 294
3 294 296 295
3 35 26 28
3 295 293 294
3 255 370 225
3 294 225 343
3 85 79 41
3 28 43 35
3 160 297 100
3 103 101 100
3 100 102 103
3 100 101 160
3 297 160 282
3 281 102 100
3 31 103 102
3 35 36 23
3 51 43 28
3 28 33 51
3 102 32 31
3 23 26 35
3 31 25 103
3 290 298 291
3 299 298 290
3 21 105 104
3 255 209 283
3 292 255 283
3 104 92 21
3 300 168 124
3 301 292 111
3 124 259 300
3 299 91 115
3 115 302 299
3 111 109 301
3 108 107 106
3 110 50 109
3 81 86 110
3 110 111 81
3 109 111 110
3 304 303 291
3 235 397 133
3 133 234 235
3 106 112 108
3 291 298 304
3 241 30 10
3 401 400 141
3 254 301 305
3 303 310 306
3 255 292 301
3 255 301 254
3 254 305 290
3 308 307 257
3 109 93 305
3 305 301 109
3 109 50 74
3 306 291 303
3 257 260 308
3 104 114 113
3 87 116 115
3 115 91 87
3 113 92 104
3 304 298 299
3 10 249 241
3 299 302 304
3 309 260 257
3 257 306 309
3 396 177 325
3 141 180 401
3 74 93 109
3 310 309 306
3 163 168 300
3 300 311 163
3 360 310 303
3 257 254 291
3 117 76 92
3 291 306 257
3 252 281 280
3 280 251 252
3 92 113 117
3 76 117 118
3 307 313 312
3 290 305 299
3 93 91 299
3 299 305 93
3 312 256 307
3 102 281 252
3 118 119 88
3 88 75 118
3 118 75 76
3 252 32 102
3 271 51 33
3 267 314 198
3 317 316 315
3 316 317 216
3 216 155 316
3 198 40 267
3 319 315 318
3 419 282 160
3 140 214 418
3 315 319 317
3 318 320 319
3 401 120 400
3 27 121 120
3 120 4 27
3 123 122 1
3 33 250 271
3 1 0 123
3 318 150 211
3 211 320 318
3 36 48 49
3 104 105 124
3 129 128 127
3 125 131 126
3 125 132 154
3 132 129 130
3 127 130 129
3 399 395 127
3 398 127 128
3 130 154 132
3 154 130 321
3 323 322 131
3 131 125 323
3 154 323 125
3 398 399 127
3 134 177 396
3 64 62 66
3 157 78 419
3 101 103 420
3 420 419 101
3 419 420 157
3 420 25 24
3 176 136 137
3 134 137 135
3 230 179 396
3 396 325 230
3 61 62 137
3 137 62 68
3 137 68 39
3 329 328 327
3 327 330 329
3 332 331 328
3 328 329 332
3 335 334 333
3 333 336 335
3 382 333 334
3 289 338 337
3 339 285 286
3 338 286 209
3 209 337 338
3 337 94 289
3 285 339 338
3 81 284 285
3 285 80 81
3 139 151 138
3 286 338 339
3 338 289 285
3 329 341 340
3 341 329 330
3 330 342 341
3 340 332 329
3 334 197 382
3 225 344 343
3 296 343 344
3 344 345 296
3 288 272 287
3 95 52 272
3 272 288 95
3 396 179 176
3 176 134 396
3 389 214 140
3 133 397 399
3 140 375 389
3 386 180 141
3 141 390 386
3 399 398 133
3 142 144 107
3 107 143 142
3 125 126 144
3 144 142 125
3 142 132 125
3 149 143 107
3 350 349 295
3 293 295 349
3 349 348 293
3 169 96 293
3 293 348 169
3 350 351 349
3 147 148 146
3 351 350 147
3 350 148 147
3 107 108 149
3 346 315 316
3 315 346 347
3 353 352 347
3 347 346 353
3 150 347 352
3 354 353 346
3 346 316 354
3 347 318 315
3 352 153 150
3 354 316 155
3 152 150 153
3 318 347 150
3 155 139 354
3 359 356 355
3 358 357 356
3 356 359 358
3 356 357 149
3 359 322 323
3 108 355 356
3 356 149 108
3 359 323 154
3 139 155 151
3 154 358 359
3 96 169 99
3 6 29 4
3 4 0 6
3 141 400 120
3 180 123 401
3 214 158 418
3 89 90 161
3 140 418 159
3 212 159 418
3 418 215 212
3 159 224 140
3 215 418 158
3 401 4 120
3 114 163 162
3 115 116 164
3 164 165 115
3 162 166 114
3 115 165 361
3 362 311 310
3 310 363 362
3 167 113 114
3 303 304 360
3 361 302 115
3 124 168 104
3 259 260 309
3 309 300 259
3 104 168 163
3 170 118 117
3 163 114 104
3 114 166 167
3 117 171 170
3 164 116 119
3 119 172 164
3 171 117 113
3 113 167 171
3 310 360 363
3 310 311 300
3 118 170 172
3 304 302 361
3 361 360 304
3 300 309 310
3 172 119 118
3 162 163 311
3 311 362 162
3 138 169 139
3 69 73 173
3 354 139 169
3 131 322 218
3 196 197 334
3 335 196 334
3 365 336 333
3 95 45 52
3 175 126 131
3 64 66 72
3 55 44 63
3 136 61 137
3 169 348 354
3 157 420 24
3 179 136 176
3 137 39 135
3 134 135 177
3 200 342 330
3 397 395 399
3 398 128 133
3 179 178 136
3 382 365 333
3 327 200 330
3 402 405 404
3 402 403 405
3 402 406 403
3 402 404 407
3 402 408 406
3 408 402 409
3 412 417 415
3 411 412 415
3 410 409 415
3 415 413 411
3 413 415 402
3 402 407 413
3 409 410 408
3 415 414 410
3 417 416 415
3 415 416 414
3 119 116 87
3 87 88 119
3 405 162 362
3 181 22 19
3 22 183 182
3 182 183 367
3 164 172 414
3 195 182 367
3 414 416 164
3 170 410 414
3 414 172 170
3 105 21 22
3 209 84 337
3 340 228 332
3 226 345 344
3 225 226 344
3 296 294 343
3 410 170 171
3 84 94 337
3 171 408 410
3 167 406 408
3 228 331 332
3 361 417 412
3 412 360 361
3 417 361 165
3 407 363 413
3 417 165 164
3 164 416 417
3 362 404 405
3 360 412 411
3 403 166 162
3 166 403 406
3 406 167 166
3 162 405 403
3 363 407 404
3 408 171 167
3 404 362 363
3 363 411 413
3 363 360 411
3 419 78 282
3 369 368 386
3 186 185 184
3 189 188 187
3 123 180 190
3 328 370 327
3 185 191 184
3 327 197 200
3 225 370 328
3 371 369 390
3 188 186 192
3 181 194 193
3 195 175 22
3 134 176 137
3 185 197 196
3 372 366 325
3 177 135 198
3 120 121 199
3 200 197 185
3 203 202 201
3 82 204 86
3 206 205 15
3 284 292 283
3 204 15 50
3 82 83 206
3 225 294 209
3 25 420 103
3 206 83 207
3 208 189 187
3 374 373 389
3 84 209 83
3 211 210 158
3 97 209 294
3 83 209 97
3 376 374 375
3 155 212 156
3 205 207 208
3 377 112 106
3 201 202 378
3 279 100 282
3 26 25 28
3 146 145 147
3 138 99 169
3 156 151 155
3 24 23 20
3 202 379 378
3 152 89 150
3 44 37 39
3 61 65 66
3 370 197 327
3 190 122 123
3 140 224 375
3 199 141 120
3 401 123 0
3 89 215 210
3 161 90 156
3 215 89 161
3 215 158 210
3 160 101 419
3 161 156 212
3 161 212 215
3 150 89 210
3 151 152 145
3 210 211 150
3 216 159 212
3 212 155 216
3 366 380 326
3 375 374 389
3 390 369 386
3 326 325 366
3 208 187 205
3 217 181 19
3 206 207 205
3 82 206 204
3 187 188 192
3 282 100 297
3 183 22 181
3 257 307 256
3 182 195 22
3 377 106 367
3 381 377 367
3 313 377 381
3 184 191 217
3 204 206 15
3 13 192 19
3 192 184 19
3 186 184 192
3 181 193 183
3 331 225 328
3 86 204 110
3 259 218 258
3 105 175 124
3 204 50 110
3 175 218 124
3 307 377 313
3 124 218 259
3 22 175 105
3 187 192 13
3 205 187 13
3 15 205 13
3 308 112 377
3 184 217 19
3 367 106 195
3 307 308 377
3 370 312 313
3 381 382 197
3 197 313 381
3 313 197 370
3 312 255 256
3 383 382 381
3 370 255 312
3 200 54 246
3 246 342 200
3 381 367 383
3 367 183 193
3 335 336 275
3 219 196 58
3 196 335 273
3 273 58 196
3 275 273 335
3 200 220 53
3 217 191 194
3 194 181 217
3 193 383 367
3 53 54 200
3 341 342 246
3 264 38 56
3 122 384 237
3 2 236 243
3 237 384 385
3 385 238 237
3 237 1 122
3 239 245 243
3 385 384 368
3 368 369 385
3 122 190 368
3 243 18 2
3 243 236 239
3 220 221 11
3 190 180 386
3 11 53 220
3 34 3 2
3 246 247 341
3 2 18 34
3 5 3 34
3 34 9 5
3 58 59 219
3 56 274 264
3 326 230 325
3 380 387 178
3 380 179 230
3 230 326 380
3 380 366 388
3 383 365 382
3 178 179 380
3 388 387 380
3 388 262 263
3 274 276 269
3 269 264 274
3 263 387 388
3 178 387 263
3 219 222 194
3 263 60 178
3 60 61 136
3 136 178 60
3 194 191 219
3 368 190 386
3 39 40 198
3 314 388 366
3 366 372 314
3 198 135 39
3 267 262 388
3 372 177 198
3 388 314 267
3 38 44 55
3 55 56 38
3 198 314 372
3 177 372 325
3 196 219 191
3 193 194 222
3 193 173 365
3 365 383 193
3 191 185 196
3 222 173 193
3 368 384 122
3 277 71 67
3 373 223 389
3 374 319 320
3 211 223 373
3 373 320 211
3 223 211 158
3 320 373 374
3 158 214 223
3 353 349 351
3 145 138 151
3 351 352 353
3 351 147 153
3 153 352 351
3 348 349 353
3 353 354 348
3 145 152 153
3 216 317 376
3 224 376 375
3 376 224 216
3 317 319 374
3 374 376 317
3 224 159 216
3 208 207 98
3 226 189 208
3 208 227 226
3 189 226 225
3 98 227 208
3 207 83 97
3 97 98 207
3 225 209 255
3 153 147 145
3 227 98 99
3 199 371 390
3 390 141 199
3 371 199 121
3 221 188 189
3 121 391 371
3 391 385 369
3 369 371 391
3 189 228 221
3 228 189 225
3 220 186 188
3 188 221 220
3 9 10 30
3 200 185 186
3 186 220 200
3 225 331 228
3 30 5 9
3 240 391 121
3 296 345 350
3 350 345 226
3 146 148 226
3 226 227 146
3 350 295 296
3 247 242 340
3 223 214 389
3 99 146 227
3 226 148 350
3 340 341 247
3 239 241 249
3 240 238 385
3 385 391 240
3 249 245 239
3 8 11 221
3 121 27 240
3 221 228 8
3 8 228 340
3 340 242 8
3 67 268 277
3 62 61 66
3 63 44 39
3 62 63 68
3 39 68 63
3 269 276 277
3 90 89 151
3 128 129 174
3 202 203 231
3 133 128 232
3 174 232 128
3 232 231 203
3 213 231 232
3 232 174 213
3 213 229 233
3 231 233 202
3 203 133 232
3 378 235 234
3 234 201 378
3 143 149 229
3 201 234 133
3 133 203 201
3 233 231 213
3 229 213 143
3 379 392 235
3 72 66 67
3 278 275 336
3 59 69 222
3 222 219 59
3 63 64 72
3 173 222 69
3 72 55 63
3 277 268 269
3 336 365 278
3 278 365 173
3 107 144 195
3 132 142 174
3 213 174 142
3 142 143 213
3 195 106 107
3 174 129 132
3 144 126 175
3 175 195 144
3 173 73 278
3 235 378 379
3 67 71 72
3 359 258 218
3 261 112 308
3 308 260 261
3 218 322 359
3 392 397 235
3 218 175 131
3 108 112 261
3 261 355 108
3 152 151 89
3 379 394 393
3 90 151 156
3 146 99 138
3 258 359 355
3 24 25 26
3 26 23 24
3 355 261 258
3 138 145 146
3 357 324 229
3 395 397 392
3 364 393 394
3 393 364 321
3 321 395 393
3 392 393 395
3 394 233 229
3 393 392 379
3 379 202 233
3 229 149 357
3 394 324 364
3 233 394 379
3 229 324 394
3 357 358 364
3 364 324 357
3 358 154 321
3 321 364 358
3 321 130 127
3 127 395 321
