ply
format ascii 1.0
element vertex 397
property float x
property float y
property float z
element face 758
property list uchar int vertex_indices
end_header
0.266416996717453 0.9750000238418579 0.23436999320983887
0.365325003862381 0.9750000238418579 0.23436999320983887
0.34359899163246155 0.8857589960098267 0.23436999320983887
0.34359899163246155 0.8495799899101257 0.23436999320983887
0.266416996717453 0.8302839994430542 0.23436999320983887
0.266416996717453 0.9750000238418579 0.23436999320983887
0.2743780016899109 0.9750000238418579 0.2285889983177185
0.34644100069999695 0.9750000238418579 0.17622199654579163
0.3288649916648865 0.8857589960098267 0.18901099264621735
0.3288649916648865 0.8495799899101257 0.18901099264621735
0.4030179977416992 0.8302839994430542 0.135125994682312
0.266416996717453 0.8302839994430542 0.23436999320983887
0.29697901010513306 0.9750000238418579 0.14032399654388428
0.29027101397514343 0.8857589960098267 0.1609649956226349
0.29027101397514343 0.8495799899101257 0.1609649956226349
0.23585499823093414 0.9750000238418579 0.14032399654388428
0.24256299436092377 0.8857589960098267 0.1609649956226349
0.24256299436092377 0.8495799899101257 0.1609649956226349
0.21425199508666992 0.8302839994430542 0.07379940152168274
0.266416996717453 0.9750000238418579 0.23436999320983887
0.18639299273490906 0.9750000238418579 0.17622199654579163
0.20396900177001953 0.8857589960098267 0.18901099264621735
0.20396900177001953 0.8495799899101257 0.18901099264621735
0.16750900447368622 0.9750000238418579 0.23436999320983887
0.18923500180244446 0.8857589960098267 0.23436999320983887
0.18923500180244446 0.8495799899101257 0.23436999320983887
0.09758219867944717 0.8302839994430542 0.23436999320983887
0.18639299273490906 0.9750000238418579 0.2925179898738861
0.20396900177001953 0.8857589960098267 0.2797290086746216
0.20396900177001953 0.8495799899101257 0.2797290086746216
0.23585499823093414 0.9750000238418579 0.32841700315475464
0.24256299436092377 0.8857589960098267 0.30777499079704285
0.24256299436092377 0.8495799899101257 0.30777499079704285
0.21425199508666992 0.8302839994430542 0.3949410021305084
0.29697901010513306 0.9750000238418579 0.32841700315475464
0.29027101397514343 0.8857589960098267 0.30777499079704285
0.29027101397514343 0.8495799899101257 0.30777499079704285
0.34644100069999695 0.9750000238418579 0.2925179898738861
0.3288649916648865 0.8857589960098267 0.2797290086746216
0.3288649916648865 0.8495799899101257 0.2797290086746216
0.4030179977416992 0.8302839994430542 0.3336139917373657
0.2587139904499054 0.22468499839305878 0.48764100670814514
0.04343530163168907 0.17420299351215363 0.17883999645709991
0.3164129853248596 0.4131520092487335 0.17883999645709991
0.2046789973974228 0.2119709998369217 0.4810599982738495
0.15374800562858582 0.20000499486923218 0.46172699332237244
0.07226630300283432 0.18093399703502655 0.38974300026893616
0.031543999910354614 0.17158499360084534 0.23269200325012207
0.29825401306152344 0.19028200209140778 0.4810599982738495
0.33555901050567627 0.1573760062456131 0.46172699332237244
0.39520299434661865 0.10539799928665161 0.38974300026893616
0.4250060021877289 0.07922159880399704 0.23269200325012207
0.27318501472473145 0.27217599749565125 0.4810599982738495
0.28683799505233765 0.31667500734329224 0.46172699332237244
0.3155899941921234 0.41053399443626404 0.3412429988384247
0.07106970250606537 0.13680900633335114 0.15520699322223663
0.156141996383667 0.07884769886732101 0.12611399590969086
0.4543229937553406 0.21982400119304657 0.12611399590969086
0.3961380124092102 0.35556501150131226 0.13729499280452728
0.1656399965286255 0.37538400292396545 0.12611399590969086
0.08655089884996414 0.3062039911746979 0.12611399590969086
0.04601550102233887 0.21870200335979462 0.15520699322223663
0.24338200688362122 0.174576997756958 0.4802370071411133
0.18904800713062286 0.1573760062456131 0.4640829861164093
0.2805179953575134 0.13606099784374237 0.4640829861164093
0.09646029770374298 0.120728999376297 0.3776650130748749
0.25407299399375916 0.06089840084314346 0.39722201228141785
0.19974300265312195 0.03247879818081856 0.3179459869861603
0.3580330014228821 0.04220129922032356 0.3038859963417053
0.06026269868016243 0.11661600321531296 0.22212399542331696
0.30288800597190857 0.02500000037252903 0.2145179957151413
0.31592699885368347 0.23814700543880463 0.4802370071411133
0.360276997089386 0.20561400055885315 0.4640829861164093
0.3357830047607422 0.2856380045413971 0.4640829861164093
0.39052799344062805 0.2557219862937927 0.44516101479530334
0.446058988571167 0.2287980020046234 0.39722201228141785
0.42328599095344543 0.3032130002975464 0.39722201228141785
0.46759799122810364 0.1379310041666031 0.3038859963417053
0.48648199439048767 0.20598800480365753 0.31431901454925537
0.47874099016189575 0.2762889862060547 0.3179459869861603
0.48704299330711365 0.18616899847984314 0.2145179957151413
0.2168319970369339 0.2613309919834137 0.4802370071411133
0.22681699693202972 0.31106600165367126 0.4640829861164093
0.15984399616718292 0.25273099541664124 0.4640829861164093
0.162199005484581 0.30919599533081055 0.44516101479530334
0.16103999316692352 0.3645389974117279 0.39722201228141785
0.09877879917621613 0.3103179931640625 0.39722201228141785
0.16339600086212158 0.4067949950695038 0.31431901454925537
0.050727199763059616 0.3080739974975586 0.31431901454925537
0.028141099959611893 0.24076500535011292 0.3038859963417053
0.12140200287103653 0.38809800148010254 0.21053899824619293
0.038873299956321716 0.29124701023101807 0.2145179957151413
0.02500000037252903 0.23179000616073608 0.22212399542331696
0.06938689947128296 0.18055999279022217 0.1265999972820282
0.1636199951171875 0.31667500734329224 0.07058349996805191
0.1747640073299408 0.24487799406051636 0.04074300080537796
0.19753700494766235 0.17046299576759338 0.04074300080537796
0.2745090126991272 0.22842499613761902 0.02500000037252903
0.3097569942474365 0.1009100005030632 0.07746410369873047
0.30392301082611084 0.3798710107803345 0.10958600044250488
0.38383498787879944 0.22244100272655487 0.05955230072140694
0.260109007358551 0.5081329941749573 0.42051899433135986
0.11740099638700485 0.44456300139427185 0.19394700229167938
0.2243109941482544 0.4920539855957031 0.4156950116157532
0.190543994307518 0.47709599137306213 0.4015220105648041
0.1365469992160797 0.4531640112400055 0.34872201085090637
0.2939240038394928 0.48906201124191284 0.4156950116157532
0.3258360028266907 0.47148698568344116 0.4015220105648041
0.3768419921398163 0.44269299507141113 0.34872201085090637
0.4023450016975403 0.4284839928150177 0.23346999287605286
0.26209399104118347 0.5432090163230896 0.4156950116157532
0.17592300474643707 0.4041770100593567 0.16347099840641022
0.1433899998664856 0.5737599730491638 0.1525139957666397
0.11403600126504898 0.5092549920082092 0.16347099840641022
0.25800299644470215 0.471112996339798 0.4150960147380829
0.25526198744773865 0.42287400364875793 0.38933199644088745
0.19525599479675293 0.3765060007572174 0.29337799549102783
0.3258360028266907 0.3742620050907135 0.22013400495052338
0.29802998900413513 0.5253350138664246 0.4150960147380829
0.33488601446151733 0.5081329941749573 0.40324199199676514
0.3111029863357544 0.5947009921073914 0.37878701090812683
0.4019339978694916 0.4830789864063263 0.339821994304657
0.39120200276374817 0.5358049869537354 0.3541809916496277
0.42212700843811035 0.4748519957065582 0.28571200370788574
0.40593498945236206 0.573386013507843 0.29603299498558044
0.32355499267578125 0.6421539783477783 0.28571200370788574
0.4274370074272156 0.5114989876747131 0.22013400495052338
0.4183120131492615 0.5542780160903931 0.21721699833869934
0.316974014043808 0.6460800170898438 0.22571299970149994
0.13277000188827515 0.5469110012054443 0.3541809916496277
0.16148899495601654 0.6229709982872009 0.29337799549102783
0.09933970123529434 0.5391330122947693 0.29337799549102783
0.0951140969991684 0.48906201124191284 0.28571200370788574
0.21911300718784332 0.650305986404419 0.22571299970149994
0.13516299426555634 0.6044229865074158 0.21721699833869934
0.1727450042963028 0.46924299001693726 0.11186700314283371
0.19753700494766235 0.5111250281333923 0.09264609962701797
0.22648000717163086 0.46213799715042114 0.09264609962701797
0.2600489854812622 0.41950899362564087 0.11452200263738632
0.29614201188087463 0.4681209921836853 0.09100080281496048
0.29687801003456116 0.5963090062141418 0.11904600262641907
0.3485350012779236 0.5230910181999207 0.10644499957561493
0.2631790041923523 0.738070011138916 0.35750898718833923
0.14754100143909454 0.748652994632721 0.19331100583076477
0.31185099482536316 0.6326559782028198 0.19331100583076477
0.3301370143890381 0.8329020142555237 0.19331100583076477
0.23416799306869507 0.7407249808311462 0.3540320098400116
0.1826539933681488 0.7454370260238647 0.32721999287605286
0.14170700311660767 0.749176025390625 0.2512870132923126
0.2753880023956299 0.711633026599884 0.3540320098400116
0.29707300662994385 0.6646280288696289 0.32721999287605286
0.2799839973449707 0.7618529796600342 0.3540320098400116
0.30983200669288635 0.8041459918022156 0.32721999287605286
0.15337400138378143 0.7227759957313538 0.18074700236320496
0.18302799761295319 0.6750609874725342 0.16530300676822662
0.35780900716781616 0.7001529932022095 0.16530300676822662
0.3572480082511902 0.786309003829956 0.17121100425720215
0.24869200587272644 0.8389970064163208 0.16530300676822662
0.1957789957523346 0.8145790100097656 0.16530300676822662
0.1579740047454834 0.7730339765548706 0.18074700236320496
0.24538299441337585 0.712867021560669 0.3535830080509186
0.1897220015525818 0.6737899780273438 0.30941998958587646
0.2271910011768341 0.6473140120506287 0.30941998958587646
0.19473199546337128 0.6411439776420593 0.2672879993915558
0.27410200238227844 0.618071973323822 0.25981301069259644
0.17947599291801453 0.6510540246963501 0.21017199754714966
0.2436549961566925 0.6184840202331543 0.2122890055179596
0.2939090132713318 0.7352659702301025 0.3535830080509186
0.3556019961833954 0.7065839767456055 0.30941998958587646
0.3597530126571655 0.7522429823875427 0.30941998958587646
0.3813669979572296 0.7272629737854004 0.2672879993915558
0.36162298917770386 0.8075109720230103 0.25981301069259644
0.34423398971557617 0.6471279859542847 0.21633100509643555
0.38039499521255493 0.709089994430542 0.21017199754714966
0.3765060007572174 0.7809240221977234 0.2122890055179596
0.250247985124588 0.7660790085792542 0.3535830080509186
0.24422700703144073 0.8338369727134705 0.30941998958587646
0.20258499681949615 0.8146160244941711 0.30941998958587646
0.21346700191497803 0.8458030223846436 0.2672879993915558
0.15378600358963013 0.7885900139808655 0.25981301069259644
0.3014259934425354 0.8537309765815735 0.21633100509643555
0.2296849936246872 0.8540670275688171 0.21017199754714966
0.15034499764442444 0.7839900255203247 0.21633100509643555
0.16148899495601654 0.7473809719085693 0.16552700102329254
0.22629299759864807 0.7644709944725037 0.11986900120973587
0.2221049964427948 0.7188119888305664 0.11986900120973587
0.276854008436203 0.8152890205383301 0.13942599296569824
0.27166301012039185 0.7372850179672241 0.11152999848127365
0.3172360062599182 0.8166729807853699 0.15647800266742706
0.3271830081939697 0.7504850029945374 0.12989099323749542
0.3020800054073334 0.6509789824485779 0.15647800266742706
0.21601000428199768 0.6819790005683899 0.3394109904766083
0.2174679934978485 0.6852319836616516 0.3410930037498474
0.2174679934978485 0.6887099742889404 0.3428879976272583
0.21608400344848633 0.6920009851455688 0.34460800886154175
0.21342900395393372 0.6945809721946716 0.3459550142288208
0.20991399884223938 0.6961510181427002 0.3467769920825958
0.20598800480365753 0.6964880228042603 0.3469269871711731
0.20221099257469177 0.6955530047416687 0.34644100069999695
0.199070006608963 0.6934589743614197 0.3453559875488281
0.19697600603103638 0.6904670000076294 0.34382298588752747
0.1962279975414276 0.6870650053024292 0.3420279920101166
0.19693900644779205 0.6836240291595459 0.3402329981327057
0.19899499416351318 0.680633008480072 0.33869999647140503
0.20213599503040314 0.678538978099823 0.3376159965991974
0.2059130072593689 0.6775659918785095 0.33709201216697693
0.20983999967575073 0.6778659820556641 0.3372420072555542
0.21335500478744507 0.6793990135192871 0.3380639851093292
0.21601000428199768 0.6803339719772339 0.34258899092674255
0.2174679934978485 0.6835870146751404 0.3442719876766205
0.2174679934978485 0.6870650053024292 0.3461039960384369
0.21608400344848633 0.6903179883956909 0.3477869927883148
0.21342900395393372 0.6928979754447937 0.3491330146789551
0.20991399884223938 0.6944689750671387 0.3499560058116913
0.20598800480365753 0.6948050260543823 0.3501429855823517
0.20221099257469177 0.6938700079917908 0.34965699911117554
0.199070006608963 0.6917759776115417 0.3485350012779236
0.19697600603103638 0.6888219714164734 0.3470019996166229
0.1962279975414276 0.6853820085525513 0.34520700573921204
0.19693900644779205 0.6819790005683899 0.3434489965438843
0.19899499416351318 0.6789870262145996 0.3418790102005005
0.20213599503040314 0.6768559813499451 0.34079399704933167
0.2059130072593689 0.6758840084075928 0.34027099609375
0.20983999967575073 0.6762199997901917 0.3404200077056885
0.21335500478744507 0.6777529716491699 0.3412429988384247
0.2427469938993454 0.6673949956893921 0.3369799852371216
0.24418200552463531 0.670648992061615 0.3386630117893219
0.24420100450515747 0.6741639971733093 0.3404580056667328
0.24279099702835083 0.677416980266571 0.34217798709869385
0.24015100300312042 0.6799970269203186 0.3435240089893341
0.2366359978914261 0.6815680265426636 0.3443470001220703
0.23271700739860535 0.6819040179252625 0.3444960117340088
0.22891099750995636 0.6809689998626709 0.34400999546051025
0.2257699966430664 0.6788750290870667 0.3429259955883026
0.22367499768733978 0.6759210228919983 0.34139201045036316
0.22296500205993652 0.6724810004234314 0.33959800004959106
0.22363799810409546 0.6690409779548645 0.3378030061721802
0.22569499909877777 0.6660860180854797 0.33626899123191833
0.22883599996566772 0.6639549732208252 0.3351849913597107
0.2326280027627945 0.6629830002784729 0.33466100692749023
0.2365500032901764 0.6632819771766663 0.3348110020160675
0.24007999897003174 0.6648520231246948 0.3356339931488037
0.2427469938993454 0.6657500267028809 0.34015798568725586
0.24418200552463531 0.6690030097961426 0.3418410122394562
0.24420100450515747 0.6724810004234314 0.3436729907989502
0.24279099702835083 0.6757709980010986 0.3453559875488281
0.24015100300312042 0.6783519983291626 0.3467020094394684
0.2366359978914261 0.6799219846725464 0.3475250005722046
0.23271700739860535 0.6802589893341064 0.3477120101451874
0.22891099750995636 0.6793239712715149 0.34722599387168884
0.2257699966430664 0.6772300004959106 0.3461039960384369
0.22367499768733978 0.6742759943008423 0.34457099437713623
0.22296500205993652 0.670835018157959 0.34277600049972534
0.22363799810409546 0.6673949956893921 0.3410179913043976
0.22569499909877777 0.6644039750099182 0.3394480049610138
0.22883599996566772 0.662310004234314 0.33836299180984497
0.2326280027627945 0.6613370180130005 0.3378399908542633
0.2365500032901764 0.6616359949111938 0.3379899859428406
0.24007999897003174 0.6631699800491333 0.338811993598938
0.2904619872570038 0.6675819754600525 0.3363820016384125
0.2918969988822937 0.6705359816551208 0.33855000138282776
0.29191601276397705 0.6737149953842163 0.3408690094947815
0.29050999879837036 0.6766690015792847 0.34303799271583557
0.28786998987197876 0.6790249943733215 0.344758003950119
0.2843509912490845 0.6804460287094116 0.34580498933792114
0.28043198585510254 0.6807820200920105 0.34602901339530945
0.27664101123809814 0.6799219846725464 0.34543099999427795
0.27348798513412476 0.6780149936676025 0.34400999546051025
0.2714020013809204 0.6753230094909668 0.3420279920101166
0.27066099643707275 0.672182023525238 0.33974701166152954
0.271371990442276 0.66907799243927 0.3374660015106201
0.2734279930591583 0.6663479804992676 0.33548399806022644
0.27656200528144836 0.6644409894943237 0.33406299352645874
0.2803429961204529 0.6635439991950989 0.3334270119667053
0.28426501154899597 0.6638429760932922 0.3336139917373657
0.2877950072288513 0.6652259826660156 0.33466100692749023
0.2904619872570038 0.6654509902000427 0.339260995388031
0.2918969988822937 0.6684049963951111 0.34143000841140747
0.29191601276397705 0.6715829968452454 0.3437480032444
0.29050999879837036 0.6745370030403137 0.3459550142288208
0.28786998987197876 0.6768929958343506 0.34767499566078186
0.2843509912490845 0.6783519983291626 0.34872201085090637
0.28043198585510254 0.678650975227356 0.3489460051059723
0.27664101123809814 0.6777909994125366 0.3483099937438965
0.27348798513412476 0.6758840084075928 0.3469269871711731
0.2714020013809204 0.6731910109519958 0.3449450135231018
0.27066099643707275 0.670087993144989 0.3426640033721924
0.271371990442276 0.6669459939002991 0.34034499526023865
0.2734279930591583 0.6642540097236633 0.33836299180984497
0.27656200528144836 0.662310004234314 0.3369799852371216
0.2803429961204529 0.6614490151405334 0.33630698919296265
0.28426501154899597 0.6617109775543213 0.33653101325035095
0.2877950072288513 0.6631320118904114 0.33754101395606995
0.3229199945926666 0.6836240291595459 0.34539398550987244
0.3243409991264343 0.6868399977684021 0.3471510112285614
0.32437801361083984 0.6903179883956909 0.34902098774909973
0.32295700907707214 0.6935340166091919 0.350816011428833
0.32030200958251953 0.6960769891738892 0.352198988199234
0.3167870044708252 0.697646975517273 0.35305899381637573
0.31289801001548767 0.697983980178833 0.3532460033893585
0.3090839982032776 0.6970490217208862 0.35272300243377686
0.30594301223754883 0.6949549913406372 0.3516010046005249
0.3038490116596222 0.6920379996299744 0.3499929904937744
0.30310800671577454 0.6886720061302185 0.3481230139732361
0.3038110136985779 0.6852700114250183 0.34625399112701416
0.305867999792099 0.6823149919509888 0.34464600682258606
0.30900898575782776 0.6802210211753845 0.3435240089893341
0.3127860128879547 0.6792489886283875 0.34299999475479126
0.31671199202537537 0.6795859932899475 0.34314998984336853
0.3202269971370697 0.6810809969902039 0.3439730107784271
0.3229199945926666 0.6819040179252625 0.3485350012779236
0.3243409991264343 0.6851199865341187 0.35029199719429016
0.32437801361083984 0.6885600090026855 0.352198988199234
0.32295700907707214 0.6918140053749084 0.35395699739456177
0.32030200958251953 0.6943560242652893 0.35537800192832947
0.3167870044708252 0.6959270238876343 0.3562009930610657
0.31289801001548767 0.6962640285491943 0.35638800263404846
0.3090839982032776 0.6953290104866028 0.35590100288391113
0.30594301223754883 0.6932349801063538 0.35474199056625366
0.3038490116596222 0.6903179883956909 0.35313400626182556
0.30310800671577454 0.6869149804115295 0.351265013217926
0.3038110136985779 0.6835500001907349 0.34943199157714844
0.305867999792099 0.6805949807167053 0.3477869927883148
0.30900898575782776 0.6785010099411011 0.34666499495506287
0.3127860128879547 0.677528977394104 0.3461419939994812
0.31671199202537537 0.6778280138969421 0.3462910056114197
0.3202269971370697 0.6793609857559204 0.3471510112285614
0.22606900334358215 0.7672749757766724 0.35163798928260803
0.22849899530410767 0.7732210159301758 0.35006800293922424
0.22853699326515198 0.779653012752533 0.3483850061893463
0.2261810004711151 0.7855979800224304 0.34681499004364014
0.2217310070991516 0.7903469800949097 0.3455429971218109
0.2158229947090149 0.7932270169258118 0.34479498863220215
0.20924100279808044 0.793861985206604 0.34464600682258606
0.20284700393676758 0.7921419739723206 0.3450939953327179
0.19757400453090668 0.7882909774780273 0.3461039960384369
0.19405899941921234 0.7828689813613892 0.3475250005722046
0.19282500445842743 0.7765859961509705 0.3491699993610382
0.1939840018749237 0.7702670097351074 0.35085299611091614
0.19746200740337372 0.7648450136184692 0.35227400064468384
0.20273500680923462 0.7609559893608093 0.35328400135040283
0.20909200608730316 0.7591609954833984 0.353769987821579
0.21567299962043762 0.7597219944000244 0.3536199927330017
0.22161899507045746 0.7625629901885986 0.35287201404571533
0.22606900334358215 0.7688080072402954 0.3574720025062561
0.22849899530410767 0.774753987789154 0.35590100288391113
0.22853699326515198 0.7811859846115112 0.354218989610672
0.2261810004711151 0.7871310114860535 0.352647989988327
0.2217310070991516 0.7918810248374939 0.351377010345459
0.2158229947090149 0.79475998878479 0.3506290018558502
0.20924100279808044 0.7953959703445435 0.35047900676727295
0.20284700393676758 0.7936750054359436 0.35092800855636597
0.19757400453090668 0.7898240089416504 0.35193800926208496
0.19405899941921234 0.7844020128250122 0.35335901379585266
0.19282500445842743 0.7781190276145935 0.3550040125846863
0.1939840018749237 0.7718369960784912 0.3566870093345642
0.19746200740337372 0.7663779854774475 0.3581080138683319
0.20273500680923462 0.7624890208244324 0.3591170012950897
0.20909200608730316 0.7606940269470215 0.35960298776626587
0.21567299962043762 0.7612919807434082 0.3594540059566498
0.22161899507045746 0.7640969753265381 0.358705997467041
0.3406069874763489 0.7647320032119751 0.35212498903274536
0.34303799271583557 0.7707899808883667 0.3510029911994934
0.34303799271583557 0.7772970199584961 0.3497689962387085
0.3406819999217987 0.7833920121192932 0.34864699840545654
0.3362320065498352 0.7882159948348999 0.3477489948272705
0.3303239941596985 0.7911329865455627 0.34722599387168884
0.32374200224876404 0.7917680144309998 0.3471139967441559
0.3173849880695343 0.7900109887123108 0.34741300344467163
0.3120749890804291 0.7861220240592957 0.3481610119342804
0.30856001377105713 0.7805870175361633 0.3491699993610382
0.30732598900794983 0.7741929888725281 0.35036700963974
0.3085229992866516 0.7677990198135376 0.3515259921550751
0.3119629919528961 0.7622640132904053 0.3525730073451996
0.3172360062599182 0.7583010196685791 0.35328400135040283
0.32359299063682556 0.7565060257911682 0.3536199927330017
0.3301739990711212 0.7570670247077942 0.35354599356651306
0.33612000942230225 0.7599459886550903 0.3529849946498871
0.3406069874763489 0.765854001045227 0.3580330014228821
0.34303799271583557 0.7719119787216187 0.3569110035896301
0.34303799271583557 0.778419017791748 0.35571399331092834
0.3406819999217987 0.7844759821891785 0.3545930087566376
0.3362320065498352 0.7893000245094299 0.35369500517845154
0.3303239941596985 0.7922170162200928 0.35313400626182556
0.32374200224876404 0.7928529977798462 0.3530220091342926
0.3173849880695343 0.7910950183868408 0.35335901379585266
0.3120749890804291 0.7872059941291809 0.3540689945220947
0.30856001377105713 0.7816720008850098 0.35511600971221924
0.30732598900794983 0.77531498670578 0.3562749922275543
0.3085229992866516 0.7688829898834229 0.3574720025062561
0.3119629919528961 0.7633489966392517 0.3585189878940582
0.3172360062599182 0.7594220042228699 0.3592289984226227
0.32359299063682556 0.7575899958610535 0.35956600308418274
0.3301739990711212 0.758188009262085 0.3594540059566498
0.33612000942230225 0.7610679864883423 0.35892999172210693
0.32534998655319214 0.7752400040626526 0.35631299018859863
0.32534998655319214 0.7741180062294006 0.35036700963974
3 0 6 5
3 6 1 7
3 1 2 8
3 1 8 7
3 2 3 9
3 2 9 8
3 3 40 10
3 3 10 9
3 40 4 11
3 40 11 10
3 4 0 5
3 4 5 11
3 6 7 12
3 7 8 13
3 7 13 12
3 8 9 14
3 8 14 13
3 9 10 14
3 5 6 19
3 6 12 15
3 12 13 16
3 12 16 15
3 13 14 17
3 13 17 16
3 14 10 18
3 14 18 17
3 10 11 18
3 6 15 20
3 15 16 21
3 15 21 20
3 16 17 22
3 16 22 21
3 17 18 22
3 11 5 19
3 19 6 23
3 6 20 23
3 20 21 24
3 20 24 23
3 21 22 25
3 21 25 24
3 22 18 26
3 22 26 25
3 18 11 26
3 23 24 28
3 23 28 27
3 24 25 29
3 24 29 28
3 25 26 29
3 23 27 30
3 27 28 31
3 27 31 30
3 28 29 32
3 28 32 31
3 29 26 33
3 29 33 32
3 26 11 33
3 23 30 34
3 30 31 35
3 30 35 34
3 31 32 36
3 31 36 35
3 32 33 36
3 19 23 37
3 23 34 37
3 34 35 38
3 34 38 37
3 35 36 39
3 35 39 38
3 36 33 40
3 36 40 39
3 33 11 40
3 19 6 0
3 19 37 6
3 37 1 6
3 37 38 2
3 37 2 1
3 38 39 3
3 38 3 2
3 39 40 3
3 40 11 4
3 11 19 0
3 11 0 4
3 41 44 48
3 44 45 62
3 44 62 48
3 48 62 49
3 45 63 62
3 62 63 64
3 62 64 49
3 45 46 63
3 49 64 50
3 46 65 63
3 63 65 66
3 63 66 64
3 64 66 50
3 46 47 65
3 65 67 66
3 66 67 68
3 66 68 50
3 50 68 51
3 47 69 65
3 65 69 67
3 67 69 56
3 67 56 70
3 67 70 68
3 68 70 51
3 47 42 55
3 47 55 69
3 69 55 56
3 70 56 98
3 70 98 51
3 41 48 52
3 48 49 71
3 48 71 52
3 52 71 53
3 49 72 71
3 71 72 73
3 71 73 53
3 49 50 72
3 72 74 73
3 73 74 54
3 73 54 53
3 72 50 75
3 72 75 74
3 74 75 76
3 74 76 54
3 50 51 77
3 50 77 78
3 50 78 75
3 75 78 79
3 75 79 76
3 76 79 54
3 51 80 77
3 77 80 78
3 78 80 79
3 79 80 58
3 79 58 54
3 54 58 43
3 80 51 57
3 80 57 58
3 41 52 44
3 52 53 81
3 52 81 44
3 44 81 45
3 53 82 81
3 81 82 83
3 81 83 45
3 53 54 82
3 82 54 84
3 82 84 83
3 45 83 46
3 54 85 84
3 84 85 86
3 84 86 83
3 83 86 46
3 54 87 85
3 85 87 86
3 86 87 88
3 86 88 46
3 46 88 89
3 46 89 47
3 54 43 87
3 87 43 90
3 87 90 88
3 88 90 91
3 88 91 89
3 89 91 92
3 89 92 47
3 43 59 90
3 90 59 60
3 90 60 91
3 91 60 61
3 91 61 92
3 92 61 47
3 47 61 42
3 42 61 55
3 61 93 55
3 61 60 93
3 55 93 56
3 59 94 60
3 60 94 95
3 60 95 93
3 93 95 96
3 93 96 56
3 56 96 98
3 59 99 94
3 94 99 97
3 94 97 95
3 95 97 96
3 96 97 98
3 59 43 99
3 97 99 100
3 97 100 98
3 43 58 99
3 99 58 100
3 100 58 57
3 100 57 98
3 98 57 51
3 101 103 106
3 103 104 114
3 103 114 106
3 106 114 107
3 114 104 115
3 114 115 107
3 104 105 115
3 107 115 108
3 105 102 116
3 105 116 115
3 115 116 117
3 115 117 108
3 108 117 109
3 102 111 116
3 116 111 117
3 101 106 110
3 106 107 118
3 106 118 110
3 107 119 118
3 110 118 120
3 107 108 119
3 118 119 120
3 108 121 119
3 119 121 122
3 119 122 120
3 108 109 123
3 108 123 121
3 121 123 122
3 122 123 124
3 122 124 120
3 120 124 125
3 109 126 123
3 123 126 127
3 123 127 124
3 124 127 128
3 124 128 125
3 126 109 141
3 126 141 127
3 127 141 140
3 127 140 128
3 101 110 103
3 103 110 104
3 120 125 130
3 120 130 110
3 110 130 129
3 110 129 104
3 104 129 105
3 129 130 131
3 129 131 105
3 105 131 132
3 105 132 102
3 125 128 133
3 125 133 130
3 130 133 134
3 130 134 131
3 131 134 113
3 131 113 132
3 132 113 102
3 128 140 133
3 133 112 134
3 134 112 113
3 102 113 111
3 113 135 111
3 113 112 136
3 113 136 135
3 135 136 137
3 135 137 111
3 111 137 138
3 111 138 117
3 112 133 140
3 112 140 136
3 136 140 137
3 137 140 139
3 137 139 138
3 138 139 117
3 140 141 139
3 139 141 109
3 139 109 117
3 142 146 149
3 146 160 149
3 146 147 160
3 149 160 150
3 147 148 161
3 147 161 160
3 160 161 162
3 160 162 150
3 150 162 164
3 161 148 163
3 161 163 162
3 162 163 164
3 148 153 165
3 148 165 163
3 163 165 166
3 163 166 164
3 148 143 153
3 153 154 165
3 165 154 166
3 166 144 164
3 142 149 151
3 149 167 151
3 149 150 167
3 151 167 152
3 150 164 172
3 150 172 168
3 150 168 167
3 167 168 169
3 167 169 152
3 152 169 171
3 168 172 170
3 168 170 169
3 169 170 171
3 172 173 170
3 170 173 174
3 170 174 171
3 164 144 172
3 172 144 155
3 172 155 173
3 173 155 156
3 173 156 174
3 174 156 145
3 174 145 171
3 142 151 146
3 151 175 146
3 151 152 175
3 146 175 147
3 152 171 180
3 152 180 176
3 152 176 175
3 175 176 177
3 175 177 147
3 147 177 179
3 147 179 148
3 176 180 178
3 176 178 177
3 177 178 179
3 180 181 178
3 178 181 182
3 178 182 179
3 179 182 148
3 171 145 180
3 180 145 157
3 180 157 181
3 181 157 158
3 181 158 182
3 182 158 159
3 182 159 148
3 148 159 143
3 143 159 153
3 159 183 153
3 159 158 183
3 153 183 154
3 157 186 158
3 158 186 184
3 158 184 183
3 183 184 185
3 183 185 154
3 154 185 190
3 154 190 166
3 184 186 187
3 184 187 185
3 185 187 190
3 157 145 188
3 157 188 186
3 186 188 189
3 186 189 187
3 187 189 190
3 166 190 144
3 188 145 156
3 188 156 189
3 189 156 155
3 189 155 190
3 190 155 144
3 191 192 209
3 191 209 208
3 192 193 210
3 192 210 209
3 193 194 211
3 193 211 210
3 194 195 212
3 194 212 211
3 195 196 213
3 195 213 212
3 196 197 214
3 196 214 213
3 197 198 215
3 197 215 214
3 198 199 216
3 198 216 215
3 199 200 217
3 199 217 216
3 200 201 218
3 200 218 217
3 201 202 219
3 201 219 218
3 202 203 220
3 202 220 219
3 203 204 221
3 203 221 220
3 204 205 222
3 204 222 221
3 205 206 223
3 205 223 222
3 206 207 224
3 206 224 223
3 207 191 208
3 207 208 224
3 193 192 191
3 194 193 191
3 195 194 191
3 196 195 191
3 197 196 191
3 198 197 191
3 199 198 191
3 200 199 191
3 201 200 191
3 202 201 191
3 203 202 191
3 204 203 191
3 205 204 191
3 206 205 191
3 207 206 191
3 210 211 209
3 211 212 209
3 212 213 209
3 213 214 209
3 214 215 209
3 215 216 209
3 216 217 209
3 217 218 209
3 218 219 209
3 219 220 209
3 220 221 209
3 221 222 209
3 222 223 209
3 223 224 209
3 224 208 209
3 225 226 243
3 225 243 242
3 226 227 244
3 226 244 243
3 227 228 245
3 227 245 244
3 228 229 246
3 228 246 245
3 229 230 247
3 229 247 246
3 230 231 248
3 230 248 247
3 231 232 249
3 231 249 248
3 232 233 250
3 232 250 249
3 233 234 251
3 233 251 250
3 234 235 252
3 234 252 251
3 235 236 253
3 235 253 252
3 236 237 254
3 236 254 253
3 237 238 255
3 237 255 254
3 238 239 256
3 238 256 255
3 239 240 257
3 239 257 256
3 240 241 258
3 240 258 257
3 241 225 242
3 241 242 258
3 227 226 225
3 228 227 225
3 229 228 225
3 230 229 225
3 231 230 225
3 232 231 225
3 233 232 225
3 234 233 225
3 235 234 225
3 236 235 225
3 237 236 225
3 238 237 225
3 239 238 225
3 240 239 225
3 241 240 225
3 244 245 243
3 245 246 243
3 246 247 243
3 247 248 243
3 248 249 243
3 249 250 243
3 250 251 243
3 251 252 243
3 252 253 243
3 253 254 243
3 254 255 243
3 255 256 243
3 256 257 243
3 257 258 243
3 258 242 243
3 259 260 277
3 259 277 276
3 260 261 278
3 260 278 277
3 261 262 279
3 261 279 278
3 262 263 280
3 262 280 279
3 263 264 281
3 263 281 280
3 264 265 282
3 264 282 281
3 265 266 283
3 265 283 282
3 266 267 284
3 266 284 283
3 267 268 285
3 267 285 284
3 268 269 286
3 268 286 285
3 269 270 287
3 269 287 286
3 270 271 288
3 270 288 287
3 271 272 289
3 271 289 288
3 272 273 290
3 272 290 289
3 273 274 291
3 273 291 290
3 274 275 292
3 274 292 291
3 275 259 276
3 275 276 292
3 261 260 259
3 262 261 259
3 263 262 259
3 264 263 259
3 265 264 259
3 266 265 259
3 267 266 259
3 268 267 259
3 269 268 259
3 270 269 259
3 271 270 259
3 272 271 259
3 273 272 259
3 274 273 259
3 275 274 259
3 278 279 277
3 279 280 277
3 280 281 277
3 281 282 277
3 282 283 277
3 283 284 277
3 284 285 277
3 285 286 277
3 286 287 277
3 287 288 277
3 288 289 277
3 289 290 277
3 290 291 277
3 291 292 277
3 292 276 277
3 293 294 311
3 293 311 310
3 294 295 312
3 294 312 311
3 295 296 313
3 295 313 312
3 296 297 314
3 296 314 313
3 297 298 315
3 297 315 314
3 298 299 316
3 298 316 315
3 299 300 317
3 299 317 316
3 300 301 318
3 300 318 317
3 301 302 319
3 301 319 318
3 302 303 320
3 302 320 319
3 303 304 321
3 303 321 320
3 304 305 322
3 304 322 321
3 305 306 323
3 305 323 322
3 306 307 324
3 306 324 323
3 307 308 325
3 307 325 324
3 308 309 326
3 308 326 325
3 309 293 310
3 309 310 326
3 295 294 293
3 296 295 293
3 297 296 293
3 298 297 293
3 299 298 293
3 300 299 293
3 301 300 293
3 302 301 293
3 303 302 293
3 304 303 293
3 305 304 293
3 306 305 293
3 307 306 293
3 308 307 293
3 309 308 293
3 312 313 311
3 313 314 311
3 314 315 311
3 315 316 311
3 316 317 311
3 317 318 311
3 318 319 311
3 319 320 311
3 320 321 311
3 321 322 311
3 322 323 311
3 323 324 311
3 324 325 311
3 325 326 311
3 326 310 311
3 327 328 345
3 327 345 344
3 328 329 346
3 328 346 345
3 329 330 347
3 329 347 346
3 330 331 348
3 330 348 347
3 331 332 349
3 331 349 348
3 332 333 350
3 332 350 349
3 333 334 351
3 333 351 350
3 334 335 352
3 334 352 351
3 335 336 353
3 335 353 352
3 336 337 354
3 336 354 353
3 337 338 355
3 337 355 354
3 338 339 356
3 338 356 355
3 339 340 357
3 339 357 356
3 340 341 358
3 340 358 357
3 341 342 359
3 341 359 358
3 342 343 360
3 342 360 359
3 343 327 344
3 343 344 360
3 329 328 327
3 330 329 327
3 331 330 327
3 332 331 327
3 333 332 327
3 334 333 327
3 335 334 327
3 336 335 327
3 337 336 327
3 338 337 327
3 339 338 327
3 340 339 327
3 341 340 327
3 342 341 327
3 343 342 327
3 346 347 345
3 347 348 345
3 348 349 345
3 349 350 345
3 350 351 345
3 351 352 345
3 352 353 345
3 353 354 345
3 354 355 345
3 355 356 345
3 356 357 345
3 357 358 345
3 358 359 345
3 359 360 345
3 360 344 345
3 361 362 379
3 361 379 378
3 362 363 380
3 362 380 379
3 363 364 381
3 363 381 380
3 364 365 382
3 364 382 381
3 365 366 383
3 365 383 382
3 366 367 384
3 366 384 383
3 367 368 385
3 367 385 384
3 368 369 386
3 368 386 385
3 369 370 387
3 369 387 386
3 370 371 388
3 370 388 387
3 371 372 389
3 371 389 388
3 372 373 390
3 372 390 389
3 373 374 391
3 373 391 390
3 374 375 392
3 374 392 391
3 375 376 393
3 375 393 392
3 376 377 394
3 376 394 393
3 377 361 378
3 377 378 394
3 362 361 396
3 363 362 396
3 364 363 396
3 365 364 396
3 366 365 396
3 367 366 396
3 368 367 396
3 369 368 396
3 370 369 396
3 371 370 396
3 372 371 396
3 373 372 396
3 374 373 396
3 375 374 396
3 376 375 396
3 377 376 396
3 361 377 396
3 378 379 395
3 379 380 395
3 380 381 395
3 381 382 395
3 382 383 395
3 383 384 395
3 384 385 395
3 385 386 395
3 386 387 395
3 387 388 395
3 388 389 395
3 389 390 395
3 390 391 395
3 391 392 395
3 392 393 395
3 393 394 395
3 394 378 395
