ply
format ascii 1.0
element vertex 386
property float x
property float y
property float z
element face 768
property list uchar int vertex_indices
end_header
0.2202959954738617 0.1679610013961792 0.8331159949302673
0.3441630005836487 0.09049180150032043 0.9438580274581909
0.522167980670929 0.0697460025548935 0.9566109776496887
0.594415009021759 0.1029060035943985 0.9541730284690857
0.28717198967933655 0.10500200092792511 0.609736979007721
0.3867020010948181 0.047709498554468155 0.6654459834098816
0.555965006351471 0.033297598361968994 0.670087993144989
0.6357629895210266 0.05802049860358238 0.667934000492096
0.3011600077152252 0.11669600009918213 0.5118510127067566
0.4347490072250366 0.08026400208473206 0.4920260012149811
0.5367220044136047 0.0795397013425827 0.500540018081665
0.650583028793335 0.09063810110092163 0.5140489935874939
0.2222840040922165 0.2593019902706146 0.8203790187835693
0.3715380132198334 0.2462099939584732 0.9576330184936523
0.42538800835609436 0.24779100716114044 0.9690870046615601
0.5483980178833008 0.23786500096321106 0.9698770046234131
0.28276199102401733 0.2829059958457947 0.6427199840545654
0.4071959853172302 0.2551659941673279 0.6857159733772278
0.4963519871234894 0.2551650106906891 0.7248989939689636
0.6012330055236816 0.28174999356269836 0.8052539825439453
0.3119949996471405 0.24733400344848633 0.4922029972076416
0.43484100699424744 0.2548309862613678 0.5051860213279724
0.5405769944190979 0.259225994348526 0.5132989883422852
0.6240100264549255 0.2726120054721832 0.5116279721260071
0.17128799855709076 0.1570180058479309 0.6240360140800476
0.24985800683498383 0.2040340006351471 0.5688400268554688
0.15516899526119232 0.20489999651908875 0.667930006980896
0.22580300271511078 0.2692900002002716 0.6168889999389648
0.15463100373744965 0.16776299476623535 0.5783860087394714
0.22314099967479706 0.2317650020122528 0.49518001079559326
0.1224059984087944 0.24238699674606323 0.6066070199012756
0.18820199370384216 0.3173780143260956 0.5577430129051208
0.1291150003671646 0.19536100327968597 0.5256379842758179
0.19213800132274628 0.2589060068130493 0.4396980106830597
0.10444799810647964 0.2581369876861572 0.5811219811439514
0.15949900448322296 0.339136004447937 0.4993549883365631
0.03764069825410843 0.23111000657081604 0.44435399770736694
0.09852830320596695 0.271124005317688 0.4228470027446747
0.02500000037252903 0.2612529993057251 0.4700390100479126
0.08461959660053253 0.30578699707984924 0.4505699872970581
0.2916390001773834 0.14786699414253235 0.3114379942417145
0.3991599977016449 0.14056900143623352 0.328218013048172
0.28870099782943726 0.23316100239753723 0.33437299728393555
0.39681100845336914 0.24980799853801727 0.35945600271224976
0.4422700107097626 0.15425899624824524 0.2905749976634979
0.5313950181007385 0.15755599737167358 0.2859010100364685
0.42936599254608154 0.2717379927635193 0.3407779932022095
0.5286380052566528 0.2622149884700775 0.31116899847984314
0.5669729709625244 0.13152199983596802 0.35703399777412415
0.6546409726142883 0.15721599757671356 0.3450700044631958
0.5639809966087341 0.2697809934616089 0.39001700282096863
0.6443189978599548 0.2557019889354706 0.3694379925727844
0.28321999311447144 0.18721100687980652 0.19782300293445587
0.383311003446579 0.18914499878883362 0.19774599373340607
0.28155800700187683 0.2713330090045929 0.25500398874282837
0.3800570070743561 0.27322399616241455 0.25495100021362305
0.4188140034675598 0.24515800178050995 0.12105300277471542
0.5320730209350586 0.24804799258708954 0.11877000331878662
0.41468799114227295 0.3446359932422638 0.21993499994277954
0.525970995426178 0.3627910017967224 0.18613700568675995
0.5616250038146973 0.22214099764823914 0.19152499735355377
0.6602320075035095 0.23393000662326813 0.19987699389457703
0.5564910173416138 0.31038200855255127 0.3019160032272339
0.6491310000419617 0.3415850102901459 0.2686609923839569
0.275162011384964 0.2635500133037567 0.10738799721002579
0.36576199531555176 0.2653749883174896 0.10712900012731552
0.27666398882865906 0.3094260096549988 0.15354999899864197
0.3672640025615692 0.3112510144710541 0.15329599380493164
0.43089601397514343 0.3330329954624176 0.03851639851927757
0.511722981929779 0.3353640139102936 0.03605420142412186
0.4296720027923584 0.37757501006126404 0.12981300055980682
0.5105000138282776 0.37990498542785645 0.12735100090503693
0.576108992099762 0.32801198959350586 0.10616199672222137
0.6372339725494385 0.3384090065956116 0.10955999791622162
0.5752429962158203 0.3663020133972168 0.1949699968099594
0.6252380013465881 0.37593701481819153 0.19816400110721588
0.4010240137577057 0.08109690248966217 0.4933210015296936
0.5641819834709167 0.25836798548698425 0.5152990221977234
0.5713899731636047 0.0778231993317604 0.5057060122489929
0.5251799821853638 0.025191200897097588 0.6686609983444214
0.4327999949455261 0.03589170053601265 0.6640980243682861
0.7239959836006165 0.1696760058403015 0.7136980295181274
0.635021984577179 0.1598770022392273 0.957846999168396
0.7486649751663208 0.15153799951076508 0.5231279730796814
0.6250770092010498 0.20192499458789825 0.9538090229034424
0.6934660077095032 0.25961700081825256 0.7694270014762878
0.71595698595047 0.26556000113487244 0.5246970057487488
0.653357982635498 0.27447399497032166 0.5119810104370117
0.75068598985672 0.2662160098552704 0.23326200246810913
0.6813439726829529 0.2673479914665222 0.22522099316120148
0.6739490032196045 0.30691200494766235 0.279339998960495
0.7203500270843506 0.3235749900341034 0.2853020131587982
0.6881499886512756 0.16615499556064606 0.4183349907398224
0.7613199949264526 0.20489700138568878 0.4048359990119934
0.7258539795875549 0.2690170109272003 0.4265269935131073
0.6626650094985962 0.2681869864463806 0.44923698902130127
0.6860179901123047 0.12937399744987488 0.5208470225334167
0.6865050196647644 0.20584799349308014 0.29694101214408875
0.7751539945602417 0.2414499968290329 0.3075700104236603
0.6654980182647705 0.2887269854545593 0.3799619972705841
0.7270979881286621 0.3116590082645416 0.3531210124492645
0.66702800989151 0.08731179684400558 0.6774150133132935
0.3647170066833496 0.2779490053653717 0.6734859943389893
0.31937599182128906 0.2187650054693222 0.9430590271949768
0.5357120037078857 0.2680779993534088 0.7507849931716919
0.49105900526046753 0.24659599363803864 0.9750000238418579
0.6356109976768494 0.2914699912071228 0.8040130138397217
0.5821840167045593 0.2321760058403015 0.9593809843063354
0.6256930232048035 0.12527300417423248 0.9578210115432739
0.4829379916191101 0.06364630162715912 0.95797199010849
0.395455002784729 0.06411830335855484 0.9434869885444641
0.4060789942741394 0.2569350004196167 0.5045269727706909
0.2928679883480072 0.25582000613212585 0.6020680069923401
0.41319000720977783 0.29831600189208984 0.6252080202102661
0.49443599581718445 0.3052160143852234 0.644573986530304
0.6084169745445251 0.31328698992729187 0.6748409867286682
0.43487098813056946 0.2878279983997345 0.5146830081939697
0.5384190082550049 0.2922239899635315 0.5226889848709106
0.6230239868164062 0.30546799302101135 0.5212739706039429
0.5643690228462219 0.29150301218032837 0.5248739719390869
0.7090529799461365 0.27056699991226196 0.5498960018157959
0.6491169929504395 0.30778399109840393 0.525413990020752
0.36795398592948914 0.29038798809051514 0.6154400110244751
0.5357499718666077 0.31004399061203003 0.6595370173454285
0.6454219818115234 0.32110801339149475 0.665444016456604
0.40515801310539246 0.29005101323127747 0.5138779878616333
0.7385540008544922 0.16890600323677063 0.6372810006141663
0.28810998797416687 0.10109999775886536 0.5672879815101624
0.4032300114631653 0.03234440088272095 0.5773929953575134
0.4281190037727356 0.027138400822877884 0.5770699977874756
0.5277140140533447 0.025952400639653206 0.5813519954681396
0.5593950152397156 0.026439499109983444 0.5834280252456665
0.6470699906349182 0.05124330148100853 0.588254988193512
0.6836720108985901 0.08282860368490219 0.6076949834823608
0.3156970143318176 0.26479899883270264 0.49991199374198914
0.7113410234451294 0.27061399817466736 0.6549190282821655
0.3161129951477051 0.2508530020713806 0.08967439830303192
0.31880900263786316 0.33090999722480774 0.18663300573825836
0.3266009986400604 0.3126389980316162 0.26665499806404114
0.3416860103607178 0.2678920030593872 0.33384400606155396
0.3642579913139343 0.27144598960876465 0.49904900789260864
0.3604309856891632 0.29476499557495117 0.5068960189819336
0.3291589915752411 0.2842220067977905 0.6103360056877136
0.3203369975090027 0.2794080078601837 0.6631789803504944
0.2820650041103363 0.24275100231170654 0.8963090181350708
0.4702860116958618 0.3446820080280304 0.02500000037252903
0.46494901180267334 0.395345002412796 0.14105099439620972
0.4715850055217743 0.3798089921474457 0.19711199402809143
0.48082301020622253 0.28620100021362305 0.3122110068798065
0.4792479872703552 0.2754569947719574 0.5083690285682678
0.4763079881668091 0.2953430116176605 0.5157250165939331
0.4522649943828583 0.3051390051841736 0.6356120109558105
0.4508430063724518 0.2551650106906891 0.7052010297775269
0.398734986782074 0.24706299602985382 0.963371992111206
0.6075490117073059 0.32414600253105164 0.09600800275802612
0.5982099771499634 0.37996000051498413 0.20834499597549438
0.6014350056648254 0.36540400981903076 0.27799201011657715
0.6121190190315247 0.2837820053100586 0.368584007024765
0.5978440046310425 0.28516098856925964 0.51323401927948
0.5934839844703674 0.30768001079559326 0.5228890180587769
0.5694190263748169 0.3102889955043793 0.6685919761657715
0.5650039911270142 0.2776769995689392 0.7789340019226074
0.516523003578186 0.24126799404621124 0.9731969833374023
0.7231510281562805 0.2651039958000183 0.22177399694919586
0.6962090134620667 0.3269450068473816 0.28962600231170654
0.6943169832229614 0.3193269968032837 0.35519900918006897
0.698930025100708 0.28262901306152344 0.42062801122665405
0.6888110041618347 0.27803999185562134 0.5190320014953613
0.6801589727401733 0.2953549921512604 0.5378909707069397
0.6853259801864624 0.29914000630378723 0.6612499952316284
0.6632090210914612 0.2777160108089447 0.7952160239219666
0.6035240292549133 0.22877399623394012 0.9563649892807007
0.3171739876270294 0.2834300100803375 0.6732630133628845
0.3581030070781708 0.27312999963760376 0.7020040154457092
0.4023450016975403 0.2530120015144348 0.7192969918251038
0.44548898935317993 0.2525070011615753 0.7446349859237671
0.48149698972702026 0.252470999956131 0.7783290147781372
0.5282300114631653 0.2590959966182709 0.8219109773635864
0.2425680011510849 0.29589200019836426 0.8029630184173584
0.379379004240036 0.26865699887275696 0.9339359998703003
0.4312019944190979 0.2705419957637787 0.9450160264968872
0.26832300424575806 0.30438101291656494 0.663224995136261
0.15877999365329742 0.24104300141334534 0.6699889898300171
0.20587800443172455 0.2775479853153229 0.6350110173225403
0.12399999797344208 0.2853280007839203 0.6132389903068542
0.16155199706554413 0.3368130028247833 0.5719910264015198
0.10718400031328201 0.2976039946079254 0.5849109888076782
0.13543400168418884 0.35793399810791016 0.5211330056190491
0.03868820145726204 0.30129000544548035 0.4899179935455322
0.07295720279216766 0.330375999212265 0.4797520041465759
0.3343049883842468 0.26931801438331604 0.911653995513916
0.4596869945526123 0.27190500497817993 0.9502210021018982
0.3006249964237213 0.281374990940094 0.8733839988708496
0.4055519998073578 0.26958200335502625 0.9395220279693604
0.3021880090236664 0.30385899543762207 0.7003610134124756
0.34405800700187683 0.3021189868450165 0.7284560203552246
0.38486000895500183 0.2954480051994324 0.7647449970245361
0.4300850033760071 0.29305100440979004 0.800574004650116
0.4639979898929596 0.28389498591423035 0.8241720199584961
0.4876900017261505 0.26947900652885437 0.8601319789886475
0.06685709953308105 0.25093600153923035 0.4334219992160797
0.052362799644470215 0.29930099844932556 0.46228501200675964
0.055472299456596375 0.32107800245285034 0.4853529930114746
0.11315199732780457 0.3383429944515228 0.5602149963378906
0.14198899269104004 0.32202601432800293 0.6002699732780457
0.17307400703430176 0.27570798993110657 0.6523669958114624
0.2618519961833954 0.31520700454711914 0.7514569759368896
0.3007259964942932 0.3139899969100952 0.7889310121536255
0.3386099934577942 0.30668601393699646 0.8286139965057373
0.38122299313545227 0.29833900928497314 0.8678969740867615
0.4119890034198761 0.29598501324653625 0.8911889791488647
0.4500249922275543 0.2895849943161011 0.9089789986610413
0.47604599595069885 0.27585700154304504 0.9239270091056824
0.5086299777030945 0.25245898962020874 0.9363600015640259
0.5337640047073364 0.25620898604393005 0.9424099922180176
0.5597360134124756 0.2634519934654236 0.9355689883232117
0.5924109816551208 0.2653059959411621 0.9305239915847778
0.7427930235862732 0.19630900025367737 0.29753199219703674
0.732545018196106 0.1692429929971695 0.3979800045490265
0.7226189970970154 0.12164299935102463 0.5223180055618286
0.7245389819145203 0.11391899734735489 0.6084619760513306
0.7069010138511658 0.12743200361728668 0.6973540186882019
0.6144499778747559 0.20875099301338196 0.18603099882602692
0.6118460297584534 0.12672699987888336 0.3395949900150299
0.6021190285682678 0.06130199879407883 0.5089430212974548
0.5952280163764954 0.032639600336551666 0.5853649973869324
0.5898780226707458 0.047756701707839966 0.6697750091552734
0.4837769865989685 0.22679199278354645 0.10979100316762924
0.4814859926700592 0.12643200159072876 0.28601500391960144
0.4788860082626343 0.05834740027785301 0.49570998549461365
0.4792580008506775 0.02500000037252903 0.5789909958839417
0.3418169915676117 0.16404299437999725 0.1858450025320053
0.3409470021724701 0.11728999763727188 0.3072809875011444
0.34409099817276 0.07978960126638412 0.5038849711418152
0.3460650146007538 0.07065869867801666 0.5779370069503784
0.32630500197410583 0.06436549872159958 0.6372889876365662
0.28238001465797424 0.1538269966840744 0.9106540083885193
0.4782859981060028 0.031261198222637177 0.6669769883155823
0.4374760091304779 0.06067489832639694 0.9439370036125183
0.561352014541626 0.07938820123672485 0.9532439708709717
0.6384509801864624 0.14736300706863403 0.9557250142097473
0.6153969764709473 0.23971499502658844 0.9278849959373474
0.6410530209541321 0.21521900594234467 0.922635018825531
0.6646590232849121 0.15802299976348877 0.8983309864997864
0.6579830050468445 0.14124800264835358 0.8976410031318665
0.6333770155906677 0.1145009994506836 0.9015719890594482
0.6089500188827515 0.09036470204591751 0.8973410129547119
0.5660650134086609 0.0731498971581459 0.8983870148658752
0.5299800038337708 0.05679529905319214 0.8964279890060425
0.4916509985923767 0.048374999314546585 0.9003139734268188
0.4421199858188629 0.05191279947757721 0.8935949802398682
0.402197003364563 0.056182101368904114 0.8847479820251465
0.3453280031681061 0.06604959815740585 0.8813470005989075
0.294869989156723 0.07776980102062225 0.849232017993927
0.2544330060482025 0.10000500082969666 0.814857006072998
0.19569100439548492 0.13755500316619873 0.6090819835662842
0.1790899932384491 0.15380999445915222 0.5558410286903381
0.15260300040245056 0.1803639978170395 0.5039809942245483
0.18061600625514984 0.19546200335025787 0.4662030041217804
0.2114270031452179 0.16972599923610687 0.5207129716873169
0.23686200380325317 0.1513970047235489 0.5808529853820801
0.27026501297950745 0.09253759682178497 0.7359610199928284
0.31639501452445984 0.0690212994813919 0.7529039978981018
0.36301499605178833 0.05059169977903366 0.759099006652832
0.4169679880142212 0.04582519829273224 0.7806180119514465
0.4553059935569763 0.042490698397159576 0.7929490208625793
0.5054709911346436 0.038283199071884155 0.7985380291938782
0.5407540202140808 0.04232100024819374 0.8035339713096619
0.5763760209083557 0.0629756972193718 0.8074870109558105
0.6138960123062134 0.07990030199289322 0.8131549954414368
0.6488010287284851 0.10209000110626221 0.8252210021018982
0.6785420179367065 0.13831399381160736 0.8379510045051575
0.6907020211219788 0.16689999401569366 0.8440470099449158
0.667730987071991 0.2354539930820465 0.864109992980957
0.6392850279808044 0.26172998547554016 0.8705819845199585
0.6100950241088867 0.27062299847602844 0.8842779994010925
0.5801380276679993 0.27430400252342224 0.8750110268592834
0.5530679821968079 0.2656469941139221 0.8559209704399109
0.2592970132827759 0.282725989818573 0.13284899294376373
0.2566260099411011 0.23636199533939362 0.230322003364563
0.27123698592185974 0.19446000456809998 0.32567501068115234
0.2980540096759796 0.19179099798202515 0.5012159943580627
0.2877269983291626 0.16820000112056732 0.5815420150756836
0.2852950096130371 0.16923899948596954 0.623773992061615
0.26368099451065063 0.14880500733852386 0.6472359895706177
0.32008400559425354 0.2718139886856079 0.08826349675655365
0.3824779987335205 0.28680700063705444 0.1345829963684082
0.40340399742126465 0.23676100373268127 0.22891999781131744
0.41220998764038086 0.1759680062532425 0.31818100810050964
0.4148400127887726 0.17254899442195892 0.49851199984550476
0.42160099744796753 0.1802390068769455 0.4973120093345642
0.41864898800849915 0.2015019953250885 0.33806800842285156
0.39854100346565247 0.30177998542785645 0.19889000058174133
0.4132629930973053 0.35964301228523254 0.09588699787855148
0.470786988735199 0.3685930073261261 0.031609900295734406
0.5274040102958679 0.36419400572776794 0.09405119717121124
0.5495709776878357 0.29932698607444763 0.1536339968442917
0.545494019985199 0.19559000432491302 0.29598501324653625
0.5513709783554077 0.16836300492286682 0.507839024066925
0.5555689930915833 0.16871100664138794 0.5081449747085571
0.5498610138893127 0.1869570016860962 0.37073999643325806
0.5447859764099121 0.28184500336647034 0.24164099991321564
0.5589280128479004 0.34569400548934937 0.15771600604057312
0.6058800220489502 0.34901198744773865 0.10256800055503845
0.6469460129737854 0.3631959855556488 0.16809199750423431
0.6678900122642517 0.2844470143318176 0.23917099833488464
0.6650109887123108 0.18966500461101532 0.3558259904384613
0.6527550220489502 0.17852100729942322 0.513903021812439
0.6609709858894348 0.18277500569820404 0.5162339806556702
0.6721029877662659 0.20274999737739563 0.425449013710022
0.6647560000419617 0.2668350040912628 0.3109399974346161
0.6618630290031433 0.2827709913253784 0.25602298974990845
0.714851975440979 0.2975910007953644 0.219650998711586
0.7463510036468506 0.3147740066051483 0.26927798986434937
0.7633299827575684 0.27825701236724854 0.33784300088882446
0.7572559714317322 0.24759900569915771 0.41669198870658875
0.7513840198516846 0.2349119931459427 0.5255799889564514
0.7446749806404114 0.22800099849700928 0.6458640098571777
0.7237880229949951 0.22047999501228333 0.740261971950531
0.6884920001029968 0.2024330049753189 0.8516600131988525
0.6665369868278503 0.19019199907779694 0.9074659943580627
0.635004997253418 0.17980900406837463 0.9529889822006226
0.2897990047931671 0.14093700051307678 0.3326469957828522
0.39466801285743713 0.15068499743938446 0.30871298909187317
0.28933000564575195 0.2464590072631836 0.362762987613678
0.3920170068740845 0.23600800335407257 0.33163198828697205
0.3460850119590759 0.27901598811149597 0.3656669855117798
0.3409619927406311 0.10347700119018555 0.3275130093097687
0.27186599373817444 0.19292199611663818 0.3474299907684326
0.4182190001010895 0.17104999721050262 0.33993300795555115
0.2842719852924347 0.1739950031042099 0.22032800316810608
0.3850350081920624 0.1759530007839203 0.22040900588035583
0.282463014125824 0.25824400782585144 0.27946099638938904
0.3827579915523529 0.2602260112762451 0.2793090045452118
0.3289859890937805 0.2998409867286682 0.29117798805236816
0.34306201338768005 0.15059199929237366 0.2082650065422058
0.2602129876613617 0.22394099831581116 0.25480198860168457
0.40673699975013733 0.2221350073814392 0.2528400123119354
0.41828200221061707 0.22683699429035187 0.1488579958677292
0.5339469909667969 0.22980399429798126 0.14658500254154205
0.4171909987926483 0.35990801453590393 0.18850000202655792
0.5285900235176086 0.34758999943733215 0.21762800216674805
0.47260499000549316 0.3637779951095581 0.22816899418830872
0.48403000831604004 0.20911599695682526 0.13811999559402466
0.3966880142688751 0.3188509941101074 0.16826799511909485
0.5485810041427612 0.28024500608444214 0.18349799513816833
0.5598989725112915 0.20329099893569946 0.2220730036497116
0.6613669991493225 0.21527999639511108 0.23078100383281708
0.5571609735488892 0.3276030123233795 0.2683050036430359
0.6492729783058167 0.32374700903892517 0.30226799845695496
0.6024529933929443 0.348004013299942 0.31180301308631897
0.6138949990272522 0.1899539977312088 0.21685099601745605
0.5426859855651855 0.26272299885749817 0.2746489942073822
0.6697379946708679 0.2629440128803253 0.2710379958152771
0.5710309743881226 0.14673499763011932 0.3411090075969696
0.6595140099525452 0.1435140073299408 0.36158499121665955
0.5683820247650146 0.24649100005626678 0.3642660081386566
0.6455720067024231 0.2805739939212799 0.39543598890304565
0.6114090085029602 0.3029260039329529 0.3980019986629486
0.6113139986991882 0.11095499992370605 0.35590600967407227
0.5550060272216797 0.19444400072097778 0.3527669906616211
0.6724900007247925 0.1818629950284958 0.3743169903755188
0.684889018535614 0.19897200167179108 0.3281730115413666
0.771697998046875 0.23494599759578705 0.33862200379371643
0.6683310270309448 0.29259100556373596 0.3455989956855774
0.7273560166358948 0.30676499009132385 0.3880150020122528
0.6935719847679138 0.3057680130004883 0.3906230032444
0.7402750253677368 0.18927399814128876 0.3283100128173828
0.6683760285377502 0.2532680034637451 0.33967500925064087
0.7597280144691467 0.26883500814437866 0.36788299679756165
0.6881309747695923 0.17694500088691711 0.3936469852924347
0.7584080100059509 0.20012100040912628 0.4317440092563629
0.7213129997253418 0.27471500635147095 0.4607900083065033
0.6702380180358887 0.25505000352859497 0.41596299409866333
0.6945909857749939 0.2815369963645935 0.4597730040550232
0.728111982345581 0.1627040058374405 0.4240820109844208
0.6701059937477112 0.21318599581718445 0.3992820084095001
0.7564830183982849 0.2403859943151474 0.4444600045681
0.44161298871040344 0.13745099306106567 0.3116619884967804
0.5358049869537354 0.14079199731349945 0.3067379891872406
0.4305959939956665 0.25953400135040283 0.31354600191116333
0.5285800099372864 0.2671999931335449 0.33703699707984924
0.4818840026855469 0.2945590019226074 0.34484800696372986
0.4815729856491089 0.10589899867773056 0.3064030110836029
0.4215199947357178 0.21473899483680725 0.3061870038509369
0.5519930124282837 0.18229900300502777 0.31807398796081543
3 254 261 262
3 254 262 253
3 263 252 253
3 253 262 263
3 252 263 264
3 252 264 251
3 267 248 249
3 249 266 267
3 248 267 268
3 248 268 247
3 269 246 247
3 247 268 269
3 127 8 233
3 127 233 234
3 17 102 173
3 17 173 174
3 193 180 211
3 211 210 193
3 18 152 175
3 18 175 176
3 162 15 215
3 215 214 162
3 19 161 277
3 19 277 276
3 151 114 117
3 117 150 151
3 160 115 118
3 118 159 160
3 0 236 144
3 144 12 0
3 1 13 103
3 1 110 13
3 15 162 239
3 239 3 15
3 73 154 303
3 73 303 304
3 155 75 304
3 304 303 155
3 69 145 294
3 69 294 295
3 146 71 295
3 295 294 146
3 65 136 285
3 65 285 286
3 137 67 286
3 286 285 137
3 37 200 201
3 201 39 37
3 261 254 255
3 255 260 261
3 206 181 183
3 183 205 206
3 0 12 26
3 26 24 0
3 16 283 25
3 283 284 25
3 25 27 16
3 260 255 256
3 256 259 260
3 24 26 30
3 30 28 24
3 205 183 185
3 185 204 205
3 27 25 29
3 29 31 27
3 28 30 34
3 34 32 28
3 204 185 187
3 187 203 204
3 31 29 33
3 33 35 31
3 258 257 36
3 36 200 258
3 200 37 33
3 33 258 200
3 32 34 38
3 38 36 32
3 203 187 189
3 189 202 203
3 35 33 37
3 37 39 35
3 233 8 322
3 322 327 233
3 43 326 140
3 140 111 43
3 290 9 76
3 289 290 76
3 41 329 289
3 289 76 41
3 281 20 324
3 324 328 281
3 229 9 378
3 378 383 229
3 149 22 381
3 381 382 149
3 298 10 379
3 379 385 298
3 290 378 9
3 291 378 290
3 48 359 224
3 224 78 48
3 158 23 357
3 357 358 158
3 307 11 355
3 355 361 307
3 300 48 78
3 78 299 300
3 223 354 346
3 346 351 223
3 354 360 352
3 352 346 354
3 157 51 349
3 349 350 157
3 306 49 347
3 347 353 306
3 228 44 338
3 338 343 228
3 292 338 44
3 44 384 292
3 148 47 341
3 341 342 148
3 297 45 339
3 339 345 297
3 232 40 330
3 330 335 232
3 280 42 332
3 332 336 280
3 139 325 333
3 333 334 139
3 288 323 331
3 331 337 288
3 222 60 72
3 72 154 222
3 154 73 61
3 61 222 154
3 60 301 302
3 302 72 60
3 156 63 75
3 75 155 156
3 305 61 73
3 73 304 305
3 227 56 68
3 68 145 227
3 145 69 57
3 57 227 145
3 56 344 293
3 293 68 56
3 147 59 71
3 71 146 147
3 296 57 69
3 69 295 296
3 231 52 64
3 64 136 231
3 136 65 53
3 53 231 136
3 279 54 66
3 66 278 279
3 138 55 67
3 67 137 138
3 287 53 65
3 65 286 287
3 128 5 235
3 235 234 128
3 10 298 299
3 10 299 78
3 80 5 128
3 80 128 129
3 130 79 237
3 237 230 130
3 80 129 230
3 80 230 237
3 9 129 76
3 129 128 76
3 246 269 270
3 246 270 245
3 271 243 244
3 272 243 271
3 83 126 220
3 220 219 83
3 171 84 242
3 242 241 171
3 85 170 274
3 85 274 273
3 169 135 120
3 120 168 169
3 273 242 320
3 320 319 273
3 126 83 316
3 126 316 317
3 88 163 312
3 88 312 313
3 164 91 313
3 313 312 164
3 92 375 219
3 219 96 92
3 167 86 372
3 372 374 167
3 316 83 371
3 371 377 316
3 309 92 96
3 96 308 309
3 218 370 362
3 362 367 218
3 370 376 368
3 368 362 370
3 166 94 365
3 365 366 166
3 315 93 363
3 363 369 315
3 217 97 89
3 89 163 217
3 163 88 98
3 98 217 163
3 97 310 311
3 311 89 97
3 165 100 91
3 91 164 165
3 314 98 88
3 88 313 314
3 11 308 96
3 11 307 308
3 7 133 101
3 7 132 133
3 121 118 115
3 115 124 121
3 101 133 220
3 101 220 221
3 122 113 125
3 125 113 116
3 142 122 125
3 125 141 142
3 102 143 172
3 102 172 173
3 192 190 208
3 208 207 192
3 119 117 114
3 123 119 114
3 104 18 176
3 104 176 177
3 180 191 212
3 212 211 180
3 106 19 276
3 106 276 275
3 15 107 216
3 216 215 15
3 107 15 3
3 108 107 3
3 245 270 271
3 245 271 244
3 6 79 130
3 6 130 131
3 109 105 14
3 109 2 105
3 251 264 265
3 251 265 250
3 250 266 249
3 250 265 266
3 110 238 153
3 13 110 153
3 190 179 209
3 209 208 190
3 6 131 225
3 6 225 226
3 102 17 113
3 113 122 102
3 152 18 114
3 114 151 152
3 161 19 115
3 115 160 161
3 150 117 22
3 22 149 150
3 23 158 159
3 159 118 23
3 77 22 117
3 117 119 77
3 135 169 170
3 85 135 170
3 86 167 168
3 168 120 86
3 87 23 118
3 118 121 87
3 141 125 111
3 141 111 140
3 143 102 122
3 122 142 143
3 18 104 123
3 123 114 18
3 19 106 124
3 124 115 19
3 21 111 125
3 125 116 21
3 86 120 317
3 120 135 317
3 317 316 86
3 126 317 81
3 317 318 81
3 126 81 221
3 221 220 126
3 16 112 282
3 16 282 283
3 127 4 283
3 283 282 127
3 4 127 234
3 4 234 235
3 112 134 281
3 281 134 20
3 112 281 282
3 129 9 229
3 129 229 230
3 130 10 78
3 131 130 78
3 131 78 224
3 131 224 225
3 11 132 225
3 225 224 11
3 132 11 96
3 132 96 133
3 133 96 219
3 133 219 220
3 135 85 318
3 317 135 318
3 136 278 285
3 136 64 278
3 66 137 285
3 285 278 66
3 137 66 54
3 54 138 137
3 334 332 42
3 42 139 334
3 326 324 20
3 20 140 326
3 134 140 20
3 134 141 140
3 141 134 112
3 112 142 141
3 142 112 16
3 16 143 142
3 143 16 172
3 178 192 207
3 207 206 178
3 145 68 293
3 145 293 294
3 70 146 294
3 294 293 70
3 146 70 340
3 340 147 146
3 342 58 380
3 380 148 342
3 382 46 21
3 21 149 382
3 150 116 113
3 113 151 150
3 151 113 17
3 17 152 151
3 152 17 174
3 152 174 175
3 179 193 210
3 210 209 179
3 154 72 302
3 154 302 303
3 74 155 303
3 303 302 74
3 155 74 348
3 348 156 155
3 350 62 356
3 356 157 350
3 358 50 77
3 77 158 358
3 158 77 119
3 119 159 158
3 159 119 123
3 123 160 159
3 160 123 104
3 104 161 160
3 161 104 177
3 161 177 277
3 105 162 214
3 214 213 105
3 162 105 2
3 239 162 2
3 163 89 311
3 163 311 312
3 90 164 312
3 312 311 90
3 164 90 364
3 364 165 164
3 366 99 373
3 373 166 366
3 374 95 87
3 87 167 374
3 167 87 121
3 121 168 167
3 168 121 124
3 124 169 168
3 169 124 106
3 170 169 106
3 170 106 275
3 275 274 170
3 216 241 274
3 216 274 275
3 150 149 116
3 149 21 116
3 194 181 206
3 194 206 207
3 195 194 207
3 195 207 208
3 196 195 208
3 196 208 209
3 197 196 209
3 197 209 210
3 198 197 210
3 198 210 211
3 199 198 211
3 199 211 212
3 103 13 179
3 179 190 103
3 39 201 202
3 202 189 39
3 16 27 183
3 183 181 16
3 26 12 178
3 178 182 26
3 30 26 182
3 182 184 30
3 27 31 185
3 185 183 27
3 34 30 184
3 184 186 34
3 31 35 187
3 187 185 31
3 38 34 186
3 186 188 38
3 35 39 189
3 189 187 35
3 14 105 191
3 191 180 14
3 213 177 199
3 199 212 213
3 172 16 181
3 181 194 172
3 12 144 192
3 192 178 12
3 13 153 193
3 193 179 13
3 173 172 194
3 194 195 173
3 174 173 195
3 195 196 174
3 175 174 196
3 196 197 175
3 176 175 197
3 197 198 176
3 177 176 198
3 198 199 177
3 200 36 38
3 38 201 200
3 201 38 188
3 188 202 201
3 202 188 186
3 186 203 202
3 203 186 184
3 184 204 203
3 204 184 182
3 182 205 204
3 205 182 178
3 178 206 205
3 212 191 105
3 105 213 212
3 277 213 214
3 177 213 277
3 276 214 215
3 277 214 276
3 367 363 93
3 93 218 367
3 375 371 83
3 83 219 375
3 351 347 49
3 49 223 351
3 359 355 11
3 11 224 359
3 343 339 45
3 45 228 343
3 383 379 10
3 10 229 383
3 335 331 323
3 323 232 335
3 327 41 76
3 76 233 327
3 76 128 234
3 234 233 76
3 236 1 103
3 103 144 236
3 10 130 230
3 230 229 10
3 238 109 14
3 153 238 14
3 132 7 226
3 226 225 132
3 271 221 81
3 81 272 271
3 240 82 321
3 84 171 108
3 171 107 108
3 108 240 84
3 240 321 84
3 275 215 216
3 276 215 275
3 107 171 216
3 216 171 241
3 273 241 242
3 274 241 273
3 242 84 321
3 321 320 242
3 82 243 320
3 82 320 321
3 243 82 240
3 244 243 240
3 108 244 240
3 108 245 244
3 3 245 108
3 3 246 245
3 246 3 239
3 239 247 246
3 2 247 239
3 2 248 247
3 248 2 109
3 109 249 248
3 238 249 109
3 238 250 249
3 110 250 238
3 110 251 250
3 1 251 110
3 1 252 251
3 252 1 236
3 236 253 252
3 0 253 236
3 0 254 253
3 254 0 24
3 24 255 254
3 255 24 28
3 28 256 255
3 256 28 32
3 32 257 256
3 258 256 257
3 259 256 258
3 257 32 36
3 258 33 29
3 29 259 258
3 259 29 25
3 25 260 259
3 260 25 284
3 260 284 261
3 261 4 235
3 261 235 262
3 262 235 5
3 5 263 262
3 263 5 80
3 263 80 264
3 264 80 237
3 264 237 265
3 265 237 79
3 265 79 266
3 266 79 6
3 6 267 266
3 267 6 226
3 267 226 268
3 268 226 7
3 7 269 268
3 269 7 101
3 269 101 270
3 270 101 221
3 270 221 271
3 243 272 319
3 243 319 320
3 272 81 318
3 272 318 319
3 85 273 319
3 319 318 85
3 144 103 190
3 190 192 144
3 153 14 180
3 180 193 153
3 278 64 52
3 52 279 278
3 336 330 40
3 40 280 336
3 328 322 8
3 8 281 328
3 127 281 8
3 282 281 127
3 283 4 284
3 261 284 4
3 286 67 55
3 55 287 286
3 337 333 325
3 325 288 337
3 329 43 111
3 111 289 329
3 111 21 289
3 21 290 289
3 290 21 46
3 46 291 290
3 384 380 58
3 58 292 384
3 344 340 70
3 70 293 344
3 295 71 59
3 59 296 295
3 345 341 47
3 47 297 345
3 385 381 22
3 22 298 385
3 298 22 77
3 298 77 299
3 299 77 50
3 50 300 299
3 360 356 62
3 62 352 360
3 301 348 74
3 74 302 301
3 304 75 63
3 63 305 304
3 353 349 51
3 51 306 353
3 361 357 23
3 23 307 361
3 307 23 87
3 307 87 308
3 308 87 95
3 95 309 308
3 376 373 99
3 99 368 376
3 310 364 90
3 90 311 310
3 313 91 100
3 100 314 313
3 369 365 94
3 94 315 369
3 377 372 86
3 86 316 377
3 43 325 326
3 139 326 325
3 41 323 329
3 288 329 323
3 324 42 328
3 280 328 42
3 322 40 327
3 232 327 40
3 42 324 139
3 326 139 324
3 323 41 232
3 327 232 41
3 40 322 280
3 328 280 322
3 325 43 288
3 329 288 43
3 330 52 335
3 231 335 52
3 332 54 336
3 279 336 54
3 333 55 334
3 138 334 55
3 331 53 337
3 287 337 53
3 54 332 138
3 334 138 332
3 53 331 231
3 335 231 331
3 52 330 279
3 336 279 330
3 55 333 287
3 337 287 333
3 338 56 343
3 227 343 56
3 56 338 344
3 292 344 338
3 341 59 342
3 147 342 59
3 339 57 345
3 296 345 57
3 340 58 147
3 342 147 58
3 57 339 227
3 343 227 339
3 58 340 292
3 344 292 340
3 59 341 296
3 345 296 341
3 346 60 351
3 222 351 60
3 60 346 301
3 352 301 346
3 349 63 350
3 156 350 63
3 347 61 353
3 305 353 61
3 348 62 156
3 350 156 62
3 61 347 222
3 351 222 347
3 62 348 352
3 301 352 348
3 63 349 305
3 353 305 349
3 48 354 359
3 223 359 354
3 355 49 361
3 306 361 49
3 354 48 360
3 300 360 48
3 357 51 358
3 157 358 51
3 356 50 157
3 358 157 50
3 49 355 223
3 359 223 355
3 50 356 300
3 360 300 356
3 51 357 306
3 361 306 357
3 362 97 367
3 217 367 97
3 97 362 310
3 368 310 362
3 365 100 366
3 165 366 100
3 363 98 369
3 314 369 98
3 364 99 165
3 366 165 99
3 98 363 217
3 367 217 363
3 99 364 368
3 310 368 364
3 100 365 314
3 369 314 365
3 92 370 375
3 218 375 370
3 371 93 377
3 315 377 93
3 370 92 376
3 309 376 92
3 372 94 374
3 166 374 94
3 373 95 166
3 374 166 95
3 93 371 218
3 375 218 371
3 95 373 309
3 376 309 373
3 94 372 315
3 377 315 372
3 378 44 383
3 228 383 44
3 379 45 385
3 297 385 45
3 381 47 382
3 148 382 47
3 380 46 148
3 382 148 46
3 45 379 228
3 383 228 379
3 44 378 384
3 291 384 378
3 46 380 291
3 384 291 380
3 47 381 297
3 385 297 381
