ply
format ascii 1.0
element vertex 260
property float x
property float y
property float z
element face 698
property list uchar int vertex_indices
end_header
0.20686300098896027 0.33669599890708923 0.09736210107803345
0.2631019949913025 0.3415449857711792 0.07089810073375702
0.34328699111938477 0.34374499320983887 0.08661569654941559
0.35566800832748413 0.32350099086761475 0.08973179757595062
0.30852600932121277 0.34400299191474915 0.07296279817819595
0.32027000188827515 0.37585198879241943 0.3987269997596741
0.1578039973974228 0.37415099143981934 0.3771060109138489
0.36114799976348877 0.35167500376701355 0.3739509880542755
0.2894800007343292 0.3972010016441345 0.4179149866104126
0.24276700615882874 0.41702800989151 0.41054001450538635
0.2022310048341751 0.41609299182891846 0.40335899591445923
0.1306149959564209 0.3165160119533539 0.25331300497055054
0.38739100098609924 0.3232460021972656 0.31454598903656006
0.2532980144023895 0.39704999327659607 0.4646179974079132
0.37024399638175964 0.12327300012111664 0.3678340017795563
0.226500004529953 0.39626699686050415 0.4577459990978241
0.34517601132392883 0.23733900487422943 0.5110120177268982
0.04433419927954674 0.04172160103917122 0.5222110152244568
0.02500000037252903 0.035406701266765594 0.6310349702835083
0.3613719940185547 0.04474849998950958 0.6698799729347229
0.19220800697803497 0.39479899406433105 0.44785699248313904
0.34639400243759155 0.29217100143432617 0.06284189969301224
0.3572860062122345 0.24885399639606476 0.05180700123310089
0.2697319984436035 0.24498699605464935 0.03650509938597679
0.33263298869132996 0.2045159935951233 0.03906470164656639
0.32663899660110474 0.25859901309013367 0.03825030103325844
0.16944800317287445 0.24845699965953827 0.14454199373722076
0.2140199989080429 0.2500309944152832 0.06895039975643158
0.26488301157951355 0.29634299874305725 0.050006698817014694
0.2247840017080307 0.29030901193618774 0.07943549752235413
0.15434400737285614 0.3241389989852905 0.43154698610305786
0.26688799262046814 0.31487300992012024 0.5608689785003662
0.08647309988737106 0.19920200109481812 0.428505003452301
0.09676720201969147 0.20664000511169434 0.5121719837188721
0.1608790010213852 0.290012001991272 0.5542680025100708
0.2533639967441559 0.049028899520635605 0.9477459788322449
0.1177539974451065 0.20352999866008759 0.6126710176467896
0.15139199793338776 0.23713499307632446 0.6055229902267456
0.08973719924688339 0.16057300567626953 0.7069900035858154
0.08776839822530746 0.16308000683784485 0.6467049717903137
0.1983730047941208 0.20104800164699554 0.7177839875221252
0.1647139936685562 0.19161300361156464 0.7367119789123535
0.2007880061864853 0.21430400013923645 0.6806700229644775
0.28110000491142273 0.24425600469112396 0.6339179873466492
0.3162679970264435 0.19952799379825592 0.6571540236473083
0.31749698519706726 0.22995799779891968 0.6268740296363831
0.3439269959926605 0.20686200261116028 0.5799999833106995
0.34762999415397644 0.1782130002975464 0.6250090003013611
0.3457280099391937 0.17291299998760223 0.6048470139503479
0.3161740005016327 0.2822690010070801 0.5415059924125671
0.3353480100631714 0.25653401017189026 0.4966430068016052
0.32522401213645935 0.2805800139904022 0.48684999346733093
0.3078419864177704 0.33076798915863037 0.47634801268577576
0.33210501074790955 0.3251020014286041 0.42298901081085205
0.31259599328041077 0.3121350109577179 0.5008310079574585
0.37893399596214294 0.2712160050868988 0.2976599931716919
0.39179301261901855 0.2758989930152893 0.2262050062417984
0.3944360017776489 0.25540199875831604 0.10514400154352188
0.34175699949264526 0.06846079975366592 0.6316840052604675
0.3535889983177185 0.3047179877758026 0.3889769911766052
0.334538996219635 0.07094129920005798 0.6035709977149963
0.3436799943447113 0.07168950140476227 0.6753000020980835
0.36325401067733765 0.08078809827566147 0.41589099168777466
0.3337920010089874 0.054127901792526245 0.49582600593566895
0.31883400678634644 0.08755409717559814 0.49101799726486206
0.43283000588417053 0.04961260035634041 0.20871099829673767
0.42273399233818054 0.1382559984922409 0.19404399394989014
0.1414490044116974 0.1283929944038391 0.142752006649971
0.19250699877738953 0.1363999992609024 0.07857020199298859
0.16365200281143188 0.13378800451755524 0.155691996216774
0.4228839874267578 0.17767800390720367 0.19606199860572815
0.10469699651002884 0.11670400202274323 0.33640599250793457
0.07829540222883224 0.08672060072422028 0.42970699071884155
0.08804669976234436 0.11179500073194504 0.4283219873905182
0.09922739863395691 0.10819800198078156 0.4210450053215027
0.09830659627914429 0.0984548032283783 0.44793298840522766
0.13044700026512146 0.05521880090236664 0.9658719897270203
0.21437400579452515 0.08962629735469818 0.9501820206642151
0.039341799914836884 0.07098569720983505 0.6253949999809265
0.047436900436878204 0.046493999660015106 0.827206015586853
0.060552000999450684 0.08183609694242477 0.8068550229072571
0.08086899667978287 0.08837699890136719 0.8812779784202576
0.13546699285507202 0.09335819631814957 0.9455329775810242
0.16851000487804413 0.09256040304899216 0.9579219818115234
0.29854199290275574 0.07500659674406052 0.8592939972877502
0.25476399064064026 0.08293189853429794 0.930649995803833
0.2757129967212677 0.08512850105762482 0.8808940052986145
0.17711800336837769 0.2752319872379303 0.16464300453662872
0.1668339967727661 0.320717990398407 0.1601710021495819
0.1458120048046112 0.26783400774002075 0.27496498823165894
0.11175800114870071 0.2410839945077896 0.4933130145072937
0.11496800184249878 0.22719800472259521 0.5520060062408447
0.13803699612617493 0.23636899888515472 0.24631400406360626
0.1189740002155304 0.22791999578475952 0.311396986246109
0.1156029999256134 0.1981460005044937 0.24896399676799774
0.08983340114355087 0.15913300216197968 0.4422689974308014
0.059926699846982956 0.13460899889469147 0.6257749795913696
0.05121989920735359 0.10169000178575516 0.6470289826393127
0.06308779865503311 0.12688399851322174 0.7517369985580444
0.08266939967870712 0.14572300016880035 0.789546012878418
0.07022780179977417 0.11844199895858765 0.8061879873275757
0.05817440152168274 0.112527996301651 0.7582229971885681
0.1252720057964325 0.14844299852848053 0.8877440094947815
0.1602189987897873 0.16966399550437927 0.8328880071640015
0.21486899256706238 0.1935960054397583 0.7417299747467041
0.24766400456428528 0.1229960024356842 0.9132800102233887
0.26640599966049194 0.12974800169467926 0.8737819790840149
0.29861700534820557 0.13089999556541443 0.810325026512146
0.3020919859409332 0.1123649999499321 0.8203009963035583
0.34577998518943787 0.11413399875164032 0.6556429862976074
0.328031986951828 0.17000700533390045 0.6858819723129272
0.3394030034542084 0.17180800437927246 0.6619229912757874
0.3359769880771637 0.13393500447273254 0.4749250113964081
0.374440997838974 0.16218699514865875 0.4004270136356354
0.3388819992542267 0.11783000081777573 0.4107919931411743
0.3154909908771515 0.10775399953126907 0.44882699847221375
0.4074150025844574 0.2490289956331253 0.1878020018339157
0.4101170003414154 0.1970759928226471 0.1070370003581047
0.4185430109500885 0.21250300109386444 0.19364599883556366
0.3269999921321869 0.2393610030412674 0.5838310122489929
0.14467200636863708 0.3810169994831085 0.3848940134048462
0.17936499416828156 0.35610300302505493 0.4723219871520996
0.17588099837303162 0.3233779966831207 0.5231310129165649
0.2565079927444458 0.18516400456428528 0.7493540048599243
0.16919800639152527 0.27570098638534546 0.5877159833908081
0.2031790018081665 0.34702301025390625 0.5197219848632812
0.23519399762153625 0.3500460088253021 0.5292050242424011
0.23372800648212433 0.32448500394821167 0.561290979385376
0.20099399983882904 0.31785300374031067 0.5572190284729004
0.26698198914527893 0.28877100348472595 0.5939670205116272
0.2508159875869751 0.3693920075893402 0.49537399411201477
0.2348099946975708 0.28996700048446655 0.6059790253639221
0.23151500523090363 0.27898600697517395 0.5997729897499084
0.30414700508117676 0.25918298959732056 0.598209023475647
0.29025998711586 0.35283800959587097 0.4632929861545563
0.13907800614833832 0.280256986618042 0.45388999581336975
0.3942750096321106 0.32272499799728394 0.21332499384880066
0.1278800070285797 0.3557629883289337 0.3433719873428345
0.3840999901294708 0.20626500248908997 0.4094510078430176
0.40448200702667236 0.16677600145339966 0.29126399755477905
0.34869998693466187 0.16371700167655945 0.5007699728012085
0.3289079964160919 0.11809500306844711 0.5374590158462524
0.3301050066947937 0.0724157989025116 0.7595800161361694
0.3257269859313965 0.1177859976887703 0.7503190040588379
0.2105560004711151 0.1704310029745102 0.8346580266952515
0.2091819941997528 0.14904600381851196 0.9140499830245972
0.2414190024137497 0.16648399829864502 0.8253960013389587
0.1438640058040619 0.1559939980506897 0.8926290273666382
0.0708668977022171 0.11188899725675583 0.5163800120353699
0.06262390315532684 0.12994499504566193 0.5690299868583679
0.056583501398563385 0.07670760154724121 0.5296549797058105
0.08615010231733322 0.17455199360847473 0.3680410087108612
0.10343600064516068 0.2137169986963272 0.34428900480270386
0.16089299321174622 0.21600699424743652 0.12889699637889862
0.1302649974822998 0.16713300347328186 0.20607000589370728
0.1476610004901886 0.16975100338459015 0.15486499667167664
0.13308599591255188 0.2770470082759857 0.5042719841003418
0.15067100524902344 0.32427099347114563 0.3552800118923187
0.35466599464416504 0.14462299644947052 0.06587930023670197
0.04651610180735588 0.07486610114574432 0.7664340138435364
0.22509600222110748 0.21355299651622772 0.6847860217094421
0.2409839928150177 0.04547639936208725 0.03808259963989258
0.23732900619506836 0.14031699299812317 0.053171198815107346
0.4230790138244629 0.13241000473499298 0.2645510137081146
0.39521899819374084 0.13272300362586975 0.2942520081996918
0.3131220042705536 0.08323220163583755 0.5294719934463501
0.4077009856700897 0.039896298199892044 0.3073909878730774
0.14502200484275818 0.03520619869232178 0.15340900421142578
0.3889180123806 0.27626800537109375 0.18639099597930908
0.3629400134086609 0.2849229872226715 0.36417898535728455
0.3830550014972687 0.23086300492286682 0.38147199153900146
0.3556469976902008 0.20302799344062805 0.4807490110397339
0.11582999676465988 0.02500000037252903 0.2744719982147217
0.19944800436496735 0.2772409915924072 0.5921580195426941
0.24868300557136536 0.2675189971923828 0.6194450259208679
0.23514600098133087 0.23759299516677856 0.653668999671936
0.28177300095558167 0.2022549957036972 0.6947420239448547
0.13659699261188507 0.1798039972782135 0.7545679807662964
0.08032950013875961 0.17662499845027924 0.530534029006958
0.07894829660654068 0.1654449999332428 0.6126139760017395
0.3463970124721527 0.1415189951658249 0.03619619831442833
0.14584000408649445 0.28395798802375793 0.34139299392700195
0.30299100279808044 0.14436699450016022 0.05233979970216751
0.2667660117149353 0.19126400351524353 0.039150599390268326
0.2540929913520813 0.14354899525642395 0.05783670023083687
0.08237390220165253 0.05503129959106445 0.42656299471855164
0.31000998616218567 0.03957429900765419 0.8671069741249084
0.027917100116610527 0.03797540068626404 0.7156699895858765
0.03569279983639717 0.04181560128927231 0.7709370255470276
0.16872000694274902 0.053575899451971054 0.9750000238418579
0.20271900296211243 0.05324250087141991 0.9738940000534058
0.103363998234272 0.055514801293611526 0.9473990201950073
0.11446599662303925 0.2500460147857666 0.43939098715782166
0.13499599695205688 0.27371498942375183 0.4019559919834137
0.09472630172967911 0.19145099818706512 0.5872160196304321
0.1386999934911728 0.20127099752426147 0.6644189953804016
0.10999199748039246 0.16860200464725494 0.7384430170059204
0.18477599322795868 0.27655598521232605 0.6011350154876709
0.18145699799060822 0.24556900560855865 0.6172639727592468
0.2926509976387024 0.16694499552249908 0.7522410154342651
0.3038429915904999 0.1414320021867752 0.027772199362516403
0.3847219944000244 0.21520200371742249 0.43225300312042236
0.38037601113319397 0.28856900334358215 0.11169900000095367
0.35285401344299316 0.14180299639701843 0.6095250248908997
0.34157299995422363 0.10647299885749817 0.6074299812316895
0.35837799310684204 0.042611099779605865 0.6129429936408997
0.3529469966888428 0.06516750156879425 0.5986670255661011
0.3832460045814514 0.032291900366544724 0.3584339916706085
0.4259909987449646 0.14202900230884552 0.11369899660348892
0.4299379885196686 0.05339189991354942 0.11404599994421005
0.08884730190038681 0.07375209778547287 0.3480139970779419
0.090768001973629 0.11789599806070328 0.34598100185394287
0.1325940042734146 0.1268939971923828 0.24765700101852417
0.04684939980506897 0.07502579689025879 0.7080579996109009
0.0291300006210804 0.06844930350780487 0.7142149806022644
0.06938590109348297 0.05320350080728531 0.8936529755592346
0.10987599939107895 0.09129240363836288 0.9290770292282104
0.17680099606513977 0.1810310035943985 0.09695020318031311
0.2115360051393509 0.18802399933338165 0.06201070174574852
0.10167700052261353 0.1839669942855835 0.3121890127658844
0.06812839955091476 0.14590899646282196 0.5243030190467834
0.056696899235248566 0.117808997631073 0.7029529809951782
0.12155400216579437 0.1292569935321808 0.9120569825172424
0.09375730156898499 0.12290599942207336 0.869504988193512
0.1594810038805008 0.1823430061340332 0.7821580171585083
0.17844000458717346 0.15176300704479218 0.9127129912376404
0.3032369911670685 0.09754499793052673 0.482899010181427
0.13934600353240967 0.2542249858379364 0.5751489996910095
0.2048490047454834 0.3718940019607544 0.48833099007606506
0.1694519966840744 0.12843500077724457 0.9403830170631409
0.22213199734687805 0.12651899456977844 0.9310590028762817
0.12370199710130692 0.1659190058708191 0.807440996170044
0.10166700184345245 0.15557299554347992 0.8043670058250427
0.11406400054693222 0.12068100273609161 0.24265000224113464
0.10860799998044968 0.07906930148601532 0.27498099207878113
0.39800700545310974 0.23455899953842163 0.30073800683021545
0.20614099502563477 0.24149900674819946 0.6417070031166077
0.25639599561691284 0.17532899975776672 0.7618569731712341
0.10175599902868271 0.20368799567222595 0.3989869952201843
0.10607200115919113 0.15150099992752075 0.30652299523353577
0.19440700113773346 0.2755900025367737 0.13311900198459625
0.36869099736213684 0.19586899876594543 0.057331498712301254
0.29297399520874023 0.301472008228302 0.04357190057635307
0.08701249957084656 0.18749000132083893 0.47029200196266174
0.17098799347877502 0.2101230025291443 0.6749640107154846
0.14108100533485413 0.1287740021944046 0.9284070134162903
0.4072049856185913 0.199536994099617 0.2987380027770996
0.4078330099582672 0.1424800008535385 0.11756400018930435
0.11299899965524673 0.15870200097560883 0.27265599370002747
0.347896009683609 0.04168190062046051 0.7659429907798767
0.13429200649261475 0.28928300738334656 0.3344849944114685
0.31940001249313354 0.30243900418281555 0.047268498688936234
0.12595200538635254 0.02770419977605343 0.21969200670719147
0.39474499225616455 0.05131490156054497 0.06263639777898788
0.3572790026664734 0.05128030106425285 0.03722710162401199
0.31061500310897827 0.04967740178108215 0.02500000037252903
0.26525598764419556 0.3436489999294281 0.5244560241699219
0.18693099915981293 0.04421120136976242 0.07594230026006699
0.3553310036659241 0.17055700719356537 0.4663270115852356
0.39180898666381836 0.14306800067424774 0.06637059897184372
3 3 2 1
3 2 4 1
3 7 6 5
3 10 9 8
3 71 71 73
3 86 84 108
3 41 41 244
3 144 146 146
3 25 24 23
3 222 222 216
3 27 29 28
3 232 231 177
3 179 179 149
3 55 168 56
3 95 178 243
3 29 0 1
3 42 41 40
3 27 23 183
3 46 46 45
3 250 157 11
3 51 49 16
3 54 53 52
3 42 244 41
3 179 38 39
3 75 74 73
3 86 85 85
3 89 11 88
3 33 91 90
3 94 94 93
3 78 97 96
3 101 100 99
3 25 251 3
3 22 3 21
3 106 108 107
3 111 110 109
3 115 114 113
3 118 117 57
3 49 49 119
3 121 20 20
3 53 8 134
3 128 127 126
3 109 203 47
3 129 31 52
3 12 136 88
3 49 133 119
3 130 134 13
3 7 7 157
3 137 120 6
3 136 3 0
3 8 7 5
3 6 10 8
3 70 117 117
3 113 139 138
3 141 112 140
3 61 143 142
3 12 12 11
3 146 144 145
3 40 103 144
3 147 103 102
3 98 99 38
3 150 149 148
3 32 152 151
3 155 154 94
3 90 91 156
3 5 15 13
3 6 120 20
3 5 8 15
3 73 71 71
3 54 51 51
3 58 61 19
3 136 56 168
3 243 33 32
3 170 169 53
3 170 16 171
3 48 171 46
3 194 33 178
3 175 43 174
3 176 43 175
3 36 36 195
3 194 178 179
3 175 236 42
3 123 237 104
3 199 123 237
3 169 59 53
3 93 181 89
3 179 39 194
3 184 183 183
3 16 16 51
3 8 8 9
3 54 169 53
3 58 60 204
3 22 24 25
3 33 90 192
3 250 181 157
3 193 93 192
3 33 192 32
3 229 245 82
3 38 196 195
3 43 44 45
3 198 173 197
3 110 44 199
3 182 183 24
3 170 138 201
3 37 198 197
3 21 202 57
3 109 204 203
3 80 213 213
3 160 104 123
3 195 195 196
3 9 10 20
3 239 248 212
3 27 153 26
3 218 217 153
3 152 93 94
3 220 149 179
3 219 94 248
3 223 222 102
3 40 224 103
3 150 148 73
3 146 107 199
3 143 110 199
3 112 112 226
3 242 1 4
3 136 168 202
3 54 31 49
3 232 231 99
3 37 227 91
3 147 102 222
3 73 148 220
3 143 107 108
3 133 43 45
3 49 129 133
3 48 140 171
3 138 246 235
3 174 129 131
3 125 228 121
3 89 92 93
3 227 34 156
3 54 52 31
3 221 221 96
3 3 202 21
3 139 113 14
3 113 201 171
3 203 204 141
3 36 91 33
3 121 228 20
3 83 77 230
3 224 231 231
3 100 232 99
3 96 221 38
3 95 220 178
3 219 151 152
3 162 68 217
3 157 181 193
3 31 134 256
3 256 126 127
3 238 152 152
3 46 46 119
3 99 231 231
3 127 132 129
3 177 41 196
3 123 104 237
3 41 177 231
3 202 116 57
3 20 121 122
3 53 53 134
3 174 131 132
3 51 54 49
3 48 47 46
3 7 53 59
3 174 236 236
3 111 47 48
3 16 46 171
3 141 140 48
3 156 135 192
3 93 152 238
3 251 4 2
3 145 106 146
3 29 240 87
3 24 24 22
3 103 103 147
3 222 223 81
3 98 221 221
3 170 53 169
3 239 239 151
3 23 28 242
3 155 217 68
3 26 87 240
3 30 122 121
3 181 93 93
3 178 33 243
3 198 195 244
3 80 81 223
3 8 5 13
3 44 43 176
3 132 173 236
3 110 111 48
3 108 84 142
3 141 204 60
3 202 168 116
3 113 114 14
3 75 150 73
3 51 51 52
3 153 94 92
3 151 151 239
3 148 149 220
3 101 221 213
3 12 55 56
3 225 147 245
3 145 144 225
3 54 134 52
3 165 226 112
3 160 176 175
3 246 118 116
3 121 20 122
3 52 134 134
3 194 39 36
3 37 197 227
3 87 88 0
3 34 173 128
3 134 8 13
3 129 49 31
3 156 30 135
3 43 133 129
3 55 169 170
3 129 129 129
3 94 94 154
3 92 92 87
3 71 74 73
3 91 36 37
3 183 23 24
3 153 153 217
3 241 117 247
3 170 201 138
3 46 203 48
3 143 109 110
3 38 232 196
3 102 103 232
3 225 245 245
3 100 223 232
3 78 213 221
3 74 75 73
3 218 183 184
3 29 1 28
3 72 150 150
3 20 10 6
3 40 41 224
3 226 165 165
3 158 24 241
3 58 109 61
3 77 85 105
3 26 240 29
3 169 51 16
3 107 146 106
3 30 193 192
3 176 123 199
3 237 237 123
3 37 195 198
3 112 141 165
3 39 195 36
3 244 42 236
3 192 238 32
3 198 236 173
3 87 92 89
3 48 46 44
3 23 242 251
3 8 53 53
3 156 34 122
3 7 137 6
3 28 28 28
3 1 242 28
3 235 116 168
3 250 89 181
3 197 124 34
3 115 226 64
3 171 201 138
3 198 244 236
3 125 126 130
3 7 12 157
3 129 52 134
3 52 51 54
3 55 170 235
3 6 8 5
3 129 174 43
3 30 120 137
3 174 132 236
3 71 71 211
3 96 149 149
3 256 134 130
3 245 222 82
3 104 146 123
3 129 134 31
3 40 104 160
3 112 113 113
3 139 70 118
3 12 169 55
3 95 95 243
3 34 122 122
3 99 232 38
3 91 227 156
3 225 225 144
3 105 85 86
3 16 119 46
3 141 60 165
3 171 171 140
3 139 246 138
3 22 57 117
3 201 113 138
3 46 47 203
3 143 199 107
3 45 119 133
3 130 126 256
3 47 111 109
3 229 230 145
3 103 231 232
3 173 132 127
3 122 125 121
3 80 80 100
3 228 13 13
3 122 128 125
3 211 73 95
3 248 154 212
3 7 59 169
3 66 70 139
3 258 140 112
3 143 61 109
3 146 199 123
3 230 105 106
3 247 117 70
3 232 223 102
3 38 221 98
3 78 149 150
3 151 95 32
3 69 212 154
3 164 139 14
3 121 120 30
3 258 113 171
3 48 203 141
3 17 18 78
3 19 18 17
3 58 19 19
3 142 84 84
3 84 85 35
3 83 82 76
3 62 64 63
3 213 78 78
3 69 68 68
3 81 80 79
3 254 180 259
3 71 233 211
3 162 200 255
3 163 164 65
3 13 15 20
3 172 234 233
3 129 129 132
3 13 13 13
3 62 63 185
3 19 249 186
3 68 68 161
3 233 233 167
3 68 162 161
3 114 115 62
3 233 71 212
3 184 182 200
3 173 132 131
3 17 185 63
3 188 187 186
3 191 190 189
3 185 72 210
3 66 208 247
3 17 150 72
3 63 64 206
3 62 207 166
3 65 209 208
3 214 78 18
3 216 81 215
3 85 77 190
3 158 259 180
3 72 71 210
3 164 166 65
3 197 173 34
3 62 62 210
3 182 158 180
3 215 79 35
3 205 205 19
3 158 247 208
3 253 259 208
3 166 164 14
3 206 64 165
3 115 64 64
3 66 66 164
3 167 167 233
3 71 71 211
3 205 206 60
3 253 209 65
3 167 257 161
3 159 213 214
3 131 197 173
3 79 188 186
3 249 84 186
3 77 83 189
3 191 189 76
3 159 214 187
3 67 233 212
3 65 66 163
3 124 197 34
3 191 215 35
3 17 63 205
3 207 62 234
3 61 142 249
3 200 180 254
3 211 233 234
3 82 216 191
3 161 255 254
3 67 68 257
3 130 13 228
3 253 166 207
3 131 132 173
3 188 79 80
3 3 1 0
3 71 73 74
3 86 108 106
3 41 244 195
3 144 146 104
3 25 23 23
3 222 216 82
3 27 28 23
3 232 177 196
3 179 149 96
3 27 183 218
3 46 45 44
3 250 11 89
3 51 16 50
3 75 73 72
3 86 85 84
3 89 88 87
3 94 93 92
3 78 96 96
3 101 99 98
3 25 3 22
3 111 109 109
3 115 113 112
3 118 57 116
3 49 119 16
3 121 20 120
3 53 134 134
3 128 126 125
3 109 47 47
3 12 88 11
3 49 119 119
3 130 13 13
3 7 157 137
3 136 0 88
3 70 117 118
3 61 142 61
3 12 11 157
3 40 144 104
3 32 151 151
3 155 94 153
3 90 156 156
3 73 71 72
3 54 51 169
3 58 19 58
3 136 168 136
3 170 171 138
3 36 195 37
3 175 42 160
3 179 194 179
3 184 183 182
3 16 51 50
3 8 9 15
3 54 53 53
3 58 204 109
3 22 25 22
3 33 192 192
3 250 157 157
3 193 192 192
3 33 32 33
3 229 82 83
3 38 195 39
3 182 24 158
3 170 201 170
3 21 57 22
3 80 213 159
3 160 123 176
3 195 196 41
3 9 20 15
3 239 212 71
3 27 26 27
3 218 153 27
3 152 94 219
3 220 179 178
3 219 248 239
3 40 103 103
3 112 226 115
3 242 4 251
3 136 202 3
3 54 49 49
3 147 222 245
3 73 220 95
3 138 235 170
3 89 93 93
3 54 31 54
3 221 96 97
3 3 21 3
3 36 33 194
3 121 20 20
3 83 230 229
3 224 231 103
3 96 38 179
3 219 152 152
3 162 217 218
3 157 193 30
3 256 127 31
3 256 31 31
3 238 152 32
3 46 119 45
3 99 231 232
3 127 129 31
3 177 196 196
3 41 231 224
3 53 134 52
3 7 59 7
3 174 236 175
3 156 192 90
3 93 238 192
3 251 2 3
3 24 22 241
3 103 147 225
3 222 81 216
3 98 221 101
3 170 169 170
3 239 151 219
3 23 242 23
3 155 68 69
3 26 240 26
3 30 121 30
3 181 93 193
3 178 243 178
3 80 223 100
3 44 176 176
3 108 142 143
3 51 52 54
3 153 92 26
3 151 239 211
3 101 213 80
3 12 56 136
3 225 245 225
3 54 52 54
3 246 116 235
3 52 134 54
3 194 36 36
3 87 0 29
3 34 128 122
3 129 129 31
3 129 31 31
3 94 154 248
3 92 87 26
3 71 73 211
3 183 24 24
3 153 217 155
3 241 247 158
3 38 196 38
3 225 245 229
3 78 221 97
3 74 73 73
3 218 184 162
3 72 150 75
3 40 224 40
3 226 165 64
3 158 241 158
3 77 105 230
3 26 29 27
3 169 16 170
3 30 192 135
3 176 199 44
3 237 123 199
3 37 198 198
3 39 36 39
3 192 32 192
3 48 44 110
3 23 251 25
3 8 53 7
3 156 122 30
3 28 28 23
3 28 23 23
3 235 168 55
3 197 34 227
3 125 130 228
3 7 157 157
3 52 54 52
3 30 137 157
3 71 211 239
3 96 149 78
3 245 82 82
3 104 123 104
3 40 160 42
3 112 113 258
3 139 118 246
3 12 55 12
3 95 243 32
3 34 122 122
3 34 122 122
3 34 122 122
3 91 156 91
3 225 144 103
3 105 86 106
3 171 140 258
3 22 117 241
3 47 109 109
3 229 145 225
3 103 232 103
3 173 127 128
3 80 100 101
3 228 13 20
3 122 125 122
3 211 95 151
3 248 212 212
3 7 169 12
3 66 139 164
3 258 112 112
3 230 106 145
3 247 70 66
3 78 150 78
3 151 32 32
3 69 154 155
3 121 30 30
3 17 78 150
3 58 19 205
3 142 84 249
3 84 35 186
3 83 76 189
3 62 63 62
3 213 78 214
3 69 68 67
3 81 79 215
3 254 259 253
3 162 255 161
3 172 233 233
3 172 233 252
3 129 132 131
3 13 13 13
3 13 13 13
3 62 185 210
3 19 186 187
3 19 187 18
3 68 161 257
3 233 167 252
3 68 161 161
3 114 62 14
3 184 200 162
3 17 63 63
3 188 186 186
3 66 247 66
3 17 72 185
3 63 206 205
3 65 208 66
3 214 18 187
3 216 215 191
3 85 190 35
3 158 180 158
3 72 210 72
3 62 210 234
3 182 180 200
3 215 35 35
3 205 19 17
3 158 208 259
3 253 208 209
3 166 14 62
3 206 165 60
3 115 64 62
3 66 164 163
3 167 233 67
3 71 211 210
3 205 60 58
3 253 65 65
3 253 65 166
3 159 214 159
3 79 186 35
3 249 186 249
3 77 189 190
3 159 187 188
3 67 212 69
3 65 163 65
3 191 35 190
3 207 234 172
3 61 249 19
3 200 254 255
3 211 234 210
3 82 191 76
3 161 254 253
3 161 253 252
3 161 252 167
3 67 257 167
3 253 207 172
3 253 172 252
3 131 173 197
3 188 80 159
