ply
format ascii 1.0
element vertex 287
property float x
property float y
property float z
element face 523
property list uchar int vertex_indices
end_header
0.36722999811172485 0.22491300106048584 0.6242070198059082
0.3749380111694336 0.23392799496650696 0.5849210023880005
0.39740198850631714 0.21133899688720703 0.5708850026130676
0.3927359879016876 0.2018750011920929 0.6191689968109131
0.32988399267196655 0.2487799972295761 0.627403974533081
0.2893590033054352 0.26888298988342285 0.6222149729728699
0.29495400190353394 0.28100600838661194 0.6015859842300415
0.29573601484298706 0.28819000720977783 0.5935770273208618
0.3365119993686676 0.2923009991645813 0.5566340088844299
0.2609809935092926 0.34411099553108215 0.5349689722061157
0.2605150043964386 0.3523310124874115 0.5233929753303528
0.29520899057388306 0.3619680106639862 0.49093198776245117
0.32879799604415894 0.30822300910949707 0.5409359931945801
0.3224540054798126 0.34697699546813965 0.4780850112438202
0.2922239899635315 0.4005489945411682 0.41749298572540283
0.31891798973083496 0.37367698550224304 0.4209659993648529
0.3194139897823334 0.36303800344467163 0.4460679888725281
0.21244600415229797 0.28024598956108093 0.6022679805755615
0.21507999300956726 0.2901589870452881 0.5904350280761719
0.22095100581645966 0.32103800773620605 0.5504090189933777
0.22071200609207153 0.366907000541687 0.496630996465683
0.22159700095653534 0.373539000749588 0.483491986989975
0.14702600240707397 0.249781996011734 0.5808619856834412
0.11770399659872055 0.21897199749946594 0.5710520148277283
0.09054329991340637 0.1906149983406067 0.5925099849700928
0.1605609953403473 0.2956160008907318 0.529242992401123
0.14980900287628174 0.27807000279426575 0.5410439968109131
0.17358599603176117 0.34272900223731995 0.4707520008087158
0.20185400545597076 0.39726701378822327 0.4167979955673218
0.09192640334367752 0.20608800649642944 0.5269659757614136
0.34755000472068787 0.33816900849342346 0.429390013217926
0.3686310052871704 0.2798660099506378 0.5311959981918335
0.3900899887084961 0.25019600987434387 0.5215489864349365
0.3403890132904053 0.36182901263237 0.365539014339447
0.3600139915943146 0.33865299820899963 0.3322480022907257
0.39016300439834595 0.2850469946861267 0.333873987197876
0.3733089864253998 0.3194830119609833 0.28621700406074524
0.39940398931503296 0.27375200390815735 0.2970519959926605
0.3821040093898773 0.31851598620414734 0.2148990035057068
0.41003501415252686 0.27375200390815735 0.20814299583435059
0.3973430097103119 0.3270469903945923 0.17111900448799133
0.4097369909286499 0.28093600273132324 0.15464399755001068
0.38774698972702026 0.33751198649406433 0.10927499830722809
0.42028701305389404 0.21638000011444092 0.09361139684915543
0.41115498542785645 0.25330400466918945 0.09344209730625153
0.39047300815582275 0.12405499815940857 0.067671999335289
0.4231860041618347 0.12149900197982788 0.10343799740076065
0.43132901191711426 0.1198749989271164 0.1490350067615509
0.4427950084209442 0.1774190068244934 0.14788100123405457
0.43635299801826477 0.20698599517345428 0.20413300395011902
0.4272170066833496 0.1170089989900589 0.1995050013065338
0.4204069972038269 0.11303699761629105 0.23925699293613434
0.42590001225471497 0.19272099435329437 0.292248010635376
0.42094799876213074 0.15935499966144562 0.28698399662971497
0.408161997795105 0.11120600253343582 0.2850779891014099
0.38455599546432495 0.11010099947452545 0.33174800872802734
0.4031369984149933 0.1506509929895401 0.3349660038948059
0.41320401430130005 0.1823589950799942 0.3400940001010895
0.4094409942626953 0.21078599989414215 0.4026550054550171
0.3821679949760437 0.1405310034751892 0.39263299107551575
0.357448011636734 0.09929010272026062 0.38498300313949585
0.39429399371147156 0.16495099663734436 0.4386790096759796
0.40778398513793945 0.20270299911499023 0.44210100173950195
0.3973580002784729 0.15769800543785095 0.49341699481010437
0.40791499614715576 0.19127100706100464 0.4961709976196289
0.3749290108680725 0.11877100169658661 0.479977011680603
0.3756130039691925 0.11086100339889526 0.5317450165748596
0.4092789888381958 0.13479800522327423 0.6042219996452332
0.076773501932621 0.18190999329090118 0.47618699073791504
0.05721589922904968 0.13908100128173828 0.532185971736908
0.07239759713411331 0.14954599738121033 0.46851399540901184
0.08609329909086227 0.1573520004749298 0.4206770062446594
0.08557049930095673 0.19140900671482086 0.42767900228500366
0.098294697701931 0.16647100448608398 0.3795450031757355
0.10509499907493591 0.13334700465202332 0.371832013130188
0.10847499966621399 0.17199699580669403 0.34299999475479126
0.11746100336313248 0.09317649900913239 0.36665698885917664
0.1233770027756691 0.09832289814949036 0.33541300892829895
0.13565599918365479 0.10495399683713913 0.29411301016807556
0.12284599989652634 0.14699000120162964 0.29680100083351135
0.11730500310659409 0.1790429949760437 0.30801600217819214
0.14155499637126923 0.10709600150585175 0.27211499214172363
0.13196399807929993 0.15738600492477417 0.2466830015182495
0.14820300042629242 0.1054380014538765 0.2422720044851303
0.13853800296783447 0.20138999819755554 0.21267099678516388
0.14806799590587616 0.23271800577640533 0.22452500462532043
0.16238899528980255 0.10978999733924866 0.1969040036201477
0.1591619998216629 0.16519199311733246 0.15654699504375458
0.17564800381660461 0.11220700293779373 0.15551400184631348
0.15880799293518066 0.20881600677967072 0.15813599526882172
0.1671230047941208 0.24121500551700592 0.1664630025625229
0.18325099349021912 0.21603499352931976 0.10771100223064423
0.18863999843597412 0.25154200196266174 0.11999599635601044
0.20573200285434723 0.11652500182390213 0.09809839725494385
0.22126300632953644 0.18432700634002686 0.06483270227909088
0.23669199645519257 0.1198749989271164 0.07323300093412399
0.26466500759124756 0.12270700186491013 0.05729280039668083
0.14276500046253204 0.3029730021953583 0.4858289957046509
0.1567859947681427 0.336683988571167 0.41908198595046997
0.16373899579048157 0.35854798555374146 0.36693501472473145
0.1515209972858429 0.2959960103034973 0.34150901436805725
0.15074700117111206 0.27737900614738464 0.31299299001693726
0.15623100101947784 0.269226998090744 0.27919501066207886
0.1624010056257248 0.3119190037250519 0.27694299817085266
0.18348999321460724 0.2727839946746826 0.17512600123882294
0.1857459992170334 0.3141289949417114 0.2053450047969818
0.20383800566196442 0.32407599687576294 0.1571200042963028
0.23320099711418152 0.2911590039730072 0.07971230149269104
0.2706950008869171 0.34497299790382385 0.06655240058898926
0.4089120030403137 0.13092899322509766 0.6287040114402771
0.3975749909877777 0.24135400354862213 0.4102669954299927
0.37781399488449097 0.275272011756897 0.4168359935283661
0.38048499822616577 0.2630789875984192 0.45500800013542175
0.3970620036125183 0.2341350018978119 0.449070006608963
0.23536700010299683 0.24964399635791779 0.6271730065345764
0.10265800356864929 0.22014600038528442 0.4422819912433624
0.11785600334405899 0.24221700429916382 0.4562020003795624
0.1439259946346283 0.2705399990081787 0.38928499817848206
0.35319000482559204 0.12374400347471237 0.052422601729631424
0.314303994178772 0.12360499799251556 0.04887529835104942
0.27098900079727173 0.18961100280284882 0.03787409886717796
0.3445279896259308 0.18781499564647675 0.03647869825363159
0.3660550117492676 0.2581390142440796 0.04479580000042915
0.3059299886226654 0.255825012922287 0.031801801174879074
0.3305709958076477 0.3015899956226349 0.04429829865694046
0.3280769884586334 0.34904900193214417 0.05720229819417
0.34445101022720337 0.08771929889917374 0.4250069856643677
0.34107500314712524 0.07386880367994308 0.4766690135002136
0.35255199670791626 0.061987198889255524 0.5256289839744568
0.39544498920440674 0.09866899996995926 0.6025199890136719
0.38479501008987427 0.04886220023036003 0.6000120043754578
0.39881500601768494 0.121397003531456 0.6923840045928955
0.383992999792099 0.1614290028810501 0.6949329972267151
0.4030439853668213 0.09604399651288986 0.6505650281906128
0.3997189998626709 0.09303919970989227 0.6883289813995361
0.3990490138530731 0.04644450172781944 0.6456789970397949
0.3984130024909973 0.048447899520397186 0.6850280165672302
0.3884600102901459 0.09607890248298645 0.7525519728660583
0.3855080008506775 0.051038600504398346 0.7566400170326233
0.3809159994125366 0.12668099999427795 0.7454339861869812
0.32540398836135864 0.16616100072860718 0.7663710117340088
0.35587599873542786 0.1227089986205101 0.8122079968452454
0.36075299978256226 0.10371199995279312 0.8221359848976135
0.35927098989486694 0.05432010069489479 0.8287929892539978
0.3330869972705841 0.10792600363492966 0.8778669834136963
0.33260199427604675 0.05936310067772865 0.8847270011901855
0.30378198623657227 0.14923599362373352 0.8406339883804321
0.2830219864845276 0.17714400589466095 0.7740219831466675
0.25009098649024963 0.15683500468730927 0.8762310147285461
0.2120790034532547 0.16032400727272034 0.8687570095062256
0.2171960026025772 0.16712799668312073 0.8229470252990723
0.3007969856262207 0.11100099980831146 0.9225450158119202
0.30313101410865784 0.06520050019025803 0.9257349967956543
0.2739810049533844 0.06796369701623917 0.9469640254974365
0.24661299586296082 0.071452297270298 0.9556930065155029
0.20677700638771057 0.11949799954891205 0.9519019722938538
0.20759199559688568 0.07438819855451584 0.9574180245399475
0.22251899540424347 0.18263599276542664 0.7717189788818359
0.22853299975395203 0.19918100535869598 0.7171919941902161
0.18020500242710114 0.16502100229263306 0.8247309923171997
0.17081999778747559 0.07369740307331085 0.9490560293197632
0.1471869945526123 0.16640299558639526 0.7948369979858398
0.14147299528121948 0.15624800324440002 0.8249840140342712
0.12391199916601181 0.1424659937620163 0.8581749796867371
0.1558769941329956 0.1289609968662262 0.9248210191726685
0.15504500269889832 0.07224670052528381 0.942225992679596
0.1342030018568039 0.07210849970579147 0.9261320233345032
0.10623999685049057 0.06899979710578918 0.887382984161377
0.07753089815378189 0.10975699871778488 0.8199750185012817
0.0777285024523735 0.06222980096936226 0.8235719799995422
0.10809600353240967 0.15265600383281708 0.7785279750823975
0.059842199087142944 0.10388500243425369 0.7715749740600586
0.06155470013618469 0.05739400163292885 0.7728760242462158
0.06540369987487793 0.11863400042057037 0.7647519707679749
0.10266199707984924 0.15845799446105957 0.7344380021095276
0.08594919741153717 0.15517699718475342 0.699999988079071
0.04935749992728233 0.0950080007314682 0.7181400060653687
0.05039890110492706 0.054457999765872955 0.7179650068283081
0.041511401534080505 0.050209399312734604 0.6573759913444519
0.05437140166759491 0.1252650022506714 0.6591339707374573
0.04032580181956291 0.05076190084218979 0.6170470118522644
0.07108859717845917 0.16357000172138214 0.5930430293083191
0.05009020119905472 0.09891069680452347 0.5731930136680603
0.048550598323345184 0.05452660098671913 0.5664349794387817
0.06008920073509216 0.10433299839496613 0.5237939953804016
0.06327129900455475 0.06064010038971901 0.5186610221862793
0.08934120088815689 0.07469770312309265 0.4517579972743988
0.10524699836969376 0.08488699793815613 0.407835990190506
0.3948720097541809 0.04654800146818161 0.6279370188713074
0.36658498644828796 0.1755550056695938 0.6956110000610352
0.31356000900268555 0.2196979969739914 0.6642119884490967
0.304190993309021 0.2045689970254898 0.6926230192184448
0.2308879941701889 0.2250169962644577 0.6609489917755127
0.15938399732112885 0.18014900386333466 0.7308909893035889
0.12902000546455383 0.18577900528907776 0.6709039807319641
0.0950343981385231 0.16806000471115112 0.6363570094108582
0.202224001288414 0.3231779932975769 0.16141700744628906
0.12664100527763367 0.10799899697303772 0.2829799950122833
0.13025900721549988 0.08181740343570709 0.27056899666786194
0.134660005569458 0.11756599694490433 0.23180800676345825
0.1372160017490387 0.026311399415135384 0.26938799023628235
0.1452769935131073 0.026311300694942474 0.2178409993648529
0.1440500020980835 0.1206749975681305 0.19225700199604034
0.1546420007944107 0.026311200112104416 0.17841699719429016
0.1577329933643341 0.12257400155067444 0.14578300714492798
0.16810700297355652 0.026311099529266357 0.13296900689601898
0.18786999583244324 0.12848100066184998 0.08961039781570435
0.1994049996137619 0.02631090022623539 0.0803712010383606
0.21962900459766388 0.1322450041770935 0.05715309828519821
0.2259729951620102 0.02631090022623539 0.05443510040640831
0.2574949860572815 0.1345590054988861 0.036549899727106094
0.2658259868621826 0.02631079964339733 0.033337999135255814
0.3099200129508972 0.13635599613189697 0.02841920033097267
0.3164129853248596 0.02631079964339733 0.02500000037252903
0.3509550094604492 0.13645899295806885 0.03347240015864372
0.36149799823760986 0.02631079964339733 0.03332420065999031
0.3953770101070404 0.13794399797916412 0.05855540186166763
0.3981640040874481 0.02631090022623539 0.054493799805641174
0.42955198884010315 0.13673600554466248 0.1002969965338707
0.43342798948287964 0.026311000809073448 0.09997619688510895
0.44215598702430725 0.13303999602794647 0.15350599586963654
0.44332998991012573 0.026311099529266357 0.15703299641609192
0.4378780126571655 0.12872299551963806 0.20055299997329712
0.4312810003757477 0.12640899419784546 0.24060900509357452
0.439069002866745 0.026311200112104416 0.19496099650859833
0.4306339919567108 0.026311399415135384 0.23463399708271027
0.4101809859275818 0.1236800029873848 0.28581899404525757
0.41791000962257385 0.026311499997973442 0.2810109853744507
0.39800000190734863 0.11532100290060043 0.3296470046043396
0.39807599782943726 0.08212839812040329 0.32929301261901855
0.3960059881210327 0.0263116005808115 0.33000099658966064
0.3775610029697418 0.05815890058875084 0.830722987651825
0.3484030067920685 0.06385820358991623 0.8868989944458008
0.3761799931526184 0.02879980020225048 0.8372189998626709
0.3490779995918274 0.032081298530101776 0.8927639722824097
0.4025450050830841 0.05439380183815956 0.753786027431488
0.4031029939651489 0.026174599304795265 0.75559401512146
0.3229199945926666 0.06641419976949692 0.9257929921150208
0.3233020007610321 0.0381258986890316 0.9284300208091736
0.2892810106277466 0.07200980186462402 0.9534469842910767
0.28736600279808044 0.04030200093984604 0.9580270051956177
0.24795499444007874 0.07411680370569229 0.9678339958190918
0.2489680051803589 0.043306998908519745 0.9721180200576782
0.20815199613571167 0.0752566009759903 0.9706140160560608
0.2100829929113388 0.043583400547504425 0.9750000238418579
0.16569900512695312 0.04524130001664162 0.9678090214729309
0.1446470022201538 0.07560200244188309 0.9543390274047852
0.12318699806928635 0.0754982978105545 0.9381780028343201
0.09310779720544815 0.07346030324697495 0.8952329754829407
0.12144999951124191 0.045621100813150406 0.9419289827346802
0.0914859026670456 0.04202890023589134 0.89826899766922
0.06426750123500824 0.06675940006971359 0.8328239917755127
0.06241919845342636 0.036951299756765366 0.832489013671875
0.04714279994368553 0.06216539815068245 0.7783970236778259
0.04564020037651062 0.03246089816093445 0.776432991027832
0.026399599388241768 0.05836569890379906 0.6509850025177002
0.03474380075931549 0.05957470089197159 0.7197880148887634
0.033467698842287064 0.02883410081267357 0.7211830019950867
0.02500000037252903 0.026761500164866447 0.6531379818916321
0.025580400601029396 0.058400098234415054 0.6054040193557739
0.025366399437189102 0.026312299072742462 0.601822018623352
0.03351709991693497 0.060506898909807205 0.5546159744262695
0.03361999988555908 0.0309750996530056 0.549543023109436
0.04711810126900673 0.06592950224876404 0.5041220188140869
0.04993379861116409 0.0366395004093647 0.49529799818992615
0.0787288025021553 0.047346800565719604 0.4273819923400879
0.07476460188627243 0.07905460149049759 0.43698400259017944
0.09250269830226898 0.08820760250091553 0.39411601424217224
0.09679210186004639 0.05826130136847496 0.3829770088195801
0.10536299645900726 0.09376849979162216 0.3561379909515381
0.11085399985313416 0.06986670196056366 0.34837600588798523
0.11625900119543076 0.10071100294589996 0.32295501232147217
0.12239299714565277 0.07722370326519012 0.3166010081768036
0.374006986618042 0.10464899986982346 0.3840320110321045
0.3784320056438446 0.07086840271949768 0.38111498951911926
0.36390599608421326 0.09601370245218277 0.4180769920349121
0.3708629906177521 0.06330429762601852 0.41228699684143066
0.3602890074253082 0.08333759754896164 0.4664419889450073
0.36743900179862976 0.05232059955596924 0.4599210023880005
0.373522013425827 0.041682399809360504 0.5032340288162231
0.3686769902706146 0.07090330123901367 0.5125499963760376
0.3988420069217682 0.057087499648332596 0.5866190195083618
0.39947500824928284 0.029386300593614578 0.5792189836502075
0.4145300090312958 0.05477359890937805 0.6749209761619568
0.41635799407958984 0.02500000037252903 0.6751890182495117
0.4153609871864319 0.025828799232840538 0.6304529905319214
0.41399499773979187 0.053599100559949875 0.6368740200996399
3 0 1 2
3 0 2 3
3 0 4 1
3 4 5 1
3 6 1 5
3 7 1 6
3 1 7 8
3 9 10 11
3 7 12 8
3 7 9 12
3 11 12 9
3 11 13 12
3 14 16 11
3 16 14 15
3 16 13 11
3 17 18 7
3 17 7 6
3 18 19 7
3 19 9 7
3 19 10 9
3 20 10 19
3 21 10 20
3 21 11 10
3 21 20 19
3 22 18 17
3 18 22 19
3 22 26 25
3 22 25 19
3 21 19 25
3 25 27 21
3 26 22 23
3 29 26 23
3 29 23 24
3 13 16 15
3 13 15 30
3 33 30 15
3 34 30 33
3 36 37 35
3 36 35 34
3 38 39 37
3 38 37 36
3 40 41 39
3 40 39 38
3 42 41 40
3 45 46 43
3 47 48 43
3 47 43 46
3 41 44 43
3 41 43 48
3 48 49 39
3 48 39 41
3 47 50 49
3 47 49 48
3 51 50 49
3 50 52 49
3 49 52 37
3 49 37 39
3 52 50 53
3 51 54 53
3 51 53 50
3 55 56 53
3 55 53 54
3 57 53 56
3 53 57 52
3 57 37 52
3 56 58 57
3 56 59 58
3 55 60 56
3 60 59 56
3 61 58 59
3 58 61 62
3 61 63 64
3 61 64 62
3 59 65 63
3 59 63 61
3 63 65 66
3 63 67 64
3 66 67 63
3 67 2 64
3 68 29 69
3 69 70 68
3 70 71 72
3 72 68 70
3 73 71 74
3 73 72 71
3 74 75 73
3 74 76 77
3 77 78 79
3 77 79 74
3 80 75 74
3 80 74 79
3 78 81 79
3 82 79 81
3 82 81 83
3 80 79 82
3 80 84 85
3 82 84 80
3 83 86 82
3 87 82 86
3 87 86 88
3 89 84 82
3 89 82 87
3 90 85 84
3 90 84 89
3 89 91 92
3 89 92 90
3 87 91 89
3 88 93 91
3 88 91 87
3 94 91 93
3 94 93 95
3 92 91 94
3 26 29 68
3 97 25 26
3 97 27 25
3 21 27 97
3 98 21 97
3 98 99 28
3 100 99 98
3 102 100 101
3 104 105 103
3 104 103 85
3 106 196 105
3 92 106 105
3 92 105 104
3 107 106 92
3 98 28 21
3 3 2 67
3 3 67 109
3 111 112 13
3 111 13 30
3 110 113 112
3 110 112 111
3 31 13 112
3 116 117 98
3 116 115 117
3 119 120 96
3 118 121 120
3 118 120 119
3 45 121 118
3 123 120 121
3 123 121 122
3 122 124 108
3 122 108 123
3 124 125 108
3 59 60 126
3 126 127 65
3 126 65 59
3 65 127 128
3 128 66 65
3 66 129 67
3 130 129 66
3 128 130 66
3 109 131 132
3 133 134 131
3 133 131 109
3 134 133 135
3 134 135 136
3 137 131 134
3 136 138 137
3 136 137 134
3 139 131 137
3 132 131 139
3 141 139 137
3 142 141 137
3 137 138 143
3 137 143 142
3 144 142 143
3 144 143 145
3 144 141 142
3 139 141 146
3 146 141 144
3 146 140 139
3 147 140 146
3 146 148 149
3 146 149 150
3 144 148 146
3 151 148 144
3 144 145 152
3 144 152 151
3 151 152 153
3 153 154 151
3 155 151 154
3 155 154 156
3 149 148 151
3 149 151 155
3 157 158 147
3 147 146 150
3 147 150 157
3 150 159 157
3 149 159 150
3 156 160 155
3 159 162 161
3 159 161 157
3 149 163 162
3 149 162 159
3 155 164 163
3 155 163 149
3 165 166 164
3 160 165 164
3 160 164 155
3 166 167 163
3 166 163 164
3 168 163 167
3 168 167 169
3 168 162 163
3 170 161 162
3 170 162 168
3 171 168 169
3 171 169 172
3 173 168 171
3 173 170 168
3 174 170 173
3 173 175 174
3 171 176 175
3 171 175 173
3 172 177 176
3 172 176 171
3 176 177 178
3 175 176 178
3 178 179 175
3 29 181 69
3 178 182 181
3 178 181 179
3 180 183 182
3 180 182 178
3 70 69 184
3 69 181 184
3 70 184 185
3 181 182 184
3 184 183 185
3 184 182 183
3 70 185 186
3 71 70 186
3 71 186 187
3 74 71 187
3 74 187 76
3 67 133 109
3 67 129 133
3 133 129 130
3 133 130 188
3 135 133 188
3 189 191 190
3 189 190 0
3 140 191 189
3 192 114 5
3 192 5 190
3 191 158 192
3 191 192 190
3 158 194 192
3 158 193 194
3 114 192 194
3 40 38 36
3 40 36 34
3 106 107 108
3 40 106 108
3 42 40 108
3 125 42 108
3 97 116 98
3 97 26 116
3 26 115 116
3 68 115 26
3 100 98 117
3 100 117 101
3 123 92 94
3 123 108 107
3 92 123 107
3 90 104 85
3 90 92 104
3 80 102 101
3 80 85 102
3 75 101 117
3 75 80 101
3 73 117 115
3 73 75 117
3 72 73 115
3 68 72 115
3 24 181 29
3 24 195 179
3 24 179 181
3 179 194 193
3 179 195 194
3 175 179 193
3 174 175 193
3 170 174 193
3 161 170 193
3 157 193 158
3 157 161 193
3 23 194 195
3 23 195 24
3 22 114 194
3 22 194 23
3 17 114 22
3 6 114 17
3 5 114 6
3 4 0 190
3 4 190 5
3 147 158 191
3 140 147 191
3 139 140 189
3 132 189 0
3 132 139 189
3 109 132 0
3 109 0 3
3 2 1 32
3 64 2 3
3 64 2 32
3 64 32 113
3 62 64 113
3 32 112 113
3 31 112 32
3 31 32 1
3 31 1 8
3 31 8 12
3 12 13 31
3 34 110 111
3 34 35 110
3 34 111 30
3 58 113 110
3 58 62 113
3 57 110 35
3 57 58 110
3 37 57 35
3 44 41 42
3 122 44 42
3 122 42 124
3 125 124 42
3 121 43 44
3 121 44 122
3 121 45 43
3 120 123 94
3 120 95 96
3 120 94 95
3 14 21 28
3 14 33 15
3 33 14 28
3 40 34 33
3 106 40 33
3 14 11 21
3 103 100 102
3 103 102 85
3 196 99 100
3 105 196 100
3 103 105 100
3 33 28 99
3 106 33 99
3 196 106 99
3 197 198 200
3 200 199 197
3 200 201 199
3 201 202 199
3 201 203 202
3 204 202 203
3 204 203 205
3 205 206 204
3 205 207 206
3 207 208 206
3 207 209 208
3 209 210 208
3 209 211 210
3 211 212 210
3 211 213 212
3 213 214 212
3 213 215 214
3 217 216 214
3 217 214 215
3 219 218 216
3 219 216 217
3 220 219 221
3 220 218 219
3 221 222 220
3 221 224 222
3 225 223 222
3 225 222 224
3 227 223 225
3 227 226 223
3 226 229 228
3 227 229 226
3 227 230 229
3 203 201 200
3 233 234 232
3 233 232 231
3 236 233 231
3 236 231 235
3 234 237 232
3 234 238 237
3 238 239 237
3 238 240 239
3 240 241 239
3 240 242 241
3 242 243 241
3 242 244 243
3 244 246 243
3 244 245 246
3 247 246 245
3 249 250 248
3 249 248 247
3 247 245 249
3 250 251 248
3 250 252 251
3 253 251 252
3 253 252 254
3 254 256 253
3 257 258 255
3 257 255 256
3 254 257 256
3 258 259 255
3 258 260 259
3 261 260 262
3 261 259 260
3 262 263 261
3 262 264 263
3 265 263 264
3 265 266 263
3 265 267 266
3 265 268 267
3 268 269 267
3 268 270 269
3 270 271 269
3 272 198 197
3 272 197 271
3 270 272 271
3 229 273 228
3 229 274 273
3 274 275 273
3 274 276 275
3 276 277 275
3 276 278 277
3 278 279 280
3 278 280 277
3 282 281 280
3 282 280 279
3 284 235 283
3 284 236 235
3 283 285 284
3 283 286 285
3 286 281 282
3 286 282 285
3 226 228 197
3 223 226 197
3 222 223 197
3 220 222 197
3 218 220 197
3 216 218 197
3 214 216 197
3 212 214 197
3 210 212 197
3 208 210 197
3 206 208 197
3 204 206 197
3 202 204 197
3 199 202 197
3 277 280 197
3 275 277 197
3 273 275 197
3 228 273 197
3 237 239 241
3 232 237 241
3 231 232 241
3 235 231 241
3 283 235 241
3 286 283 241
3 281 286 241
3 280 281 241
3 197 280 241
3 271 197 241
3 269 271 241
3 267 269 241
3 266 267 241
3 263 266 241
3 261 263 241
3 259 261 241
3 255 259 241
3 256 255 241
3 253 256 241
3 251 253 241
3 248 251 241
3 247 248 241
3 246 247 241
3 243 246 241
3 221 219 217
3 224 221 217
3 225 224 217
3 227 225 217
3 230 227 217
3 200 230 217
3 203 200 217
3 205 203 217
3 207 205 217
3 209 207 217
3 211 209 217
3 213 211 217
3 215 213 217
3 260 258 257
3 262 260 257
3 264 262 257
3 282 264 257
3 285 282 257
3 284 285 257
3 236 284 257
3 233 236 257
3 234 233 257
3 238 234 257
3 240 238 257
3 242 240 257
3 244 242 257
3 245 244 257
3 249 245 257
3 250 249 257
3 252 250 257
3 254 252 257
3 264 282 279
3 265 264 279
3 278 268 265
3 279 278 265
3 268 278 276
3 270 268 276
3 272 270 276
3 274 272 276
3 272 274 229
3 198 272 229
3 229 230 200
3 198 229 200
