ply
format ascii 1.0
element vertex 265
property float x
property float y
property float z
element face 506
property list uchar int vertex_indices
end_header
0.30018898844718933 0.4454759955406189 0.498306006193161
0.3002229928970337 0.5100719928741455 0.43659499287605286
0.23625899851322174 0.48580801486968994 0.44030699133872986
0.21466200053691864 0.43414801359176636 0.44824498891830444
0.23463599383831024 0.3866389989852905 0.45554399490356445
0.2691290080547333 0.3546290099620819 0.4604879915714264
0.30017900466918945 0.3426609933376312 0.46232500672340393
0.33123600482940674 0.3546159863471985 0.4605090022087097
0.36574599146842957 0.3866110146045685 0.4555880129337311
0.38574498891830444 0.434112012386322 0.4483030140399933
0.3641749918460846 0.4857810139656067 0.4403510093688965
0.3002749979496002 0.49677300453186035 0.2779900133609772
0.18236400187015533 0.44981300830841064 0.29464900493621826
0.1584630012512207 0.3643530011177063 0.3250289857387543
0.2084220051765442 0.30316299200057983 0.3468010127544403
0.26699599623680115 0.26377999782562256 0.3608280122280121
0.3001909852027893 0.2463580071926117 0.36702799797058105
0.3333989977836609 0.26376599073410034 0.360850989818573
0.3919990062713623 0.30312401056289673 0.3468630015850067
0.44199898838996887 0.36429300904273987 0.3251259922981262
0.4181540012359619 0.4497630000114441 0.29472899436950684
0.30031800270080566 0.4058769941329956 0.09568969905376434
0.1824049949645996 0.3642910122871399 0.12312500178813934
0.15849900245666504 0.28859400749206543 0.1730860024690628
0.20845399796962738 0.23439200222492218 0.20887300372123718
0.26702600717544556 0.1994989961385727 0.23190699517726898
0.30021798610687256 0.17660599946975708 0.24724699556827545
0.3334290087223053 0.19948500394821167 0.23193000257015228
0.3920319974422455 0.23435300588607788 0.20893600583076477
0.4420349895954132 0.2885339856147766 0.17318299412727356
0.4181950092315674 0.36424100399017334 0.1232059970498085
0.3003070056438446 0.24102599918842316 0.02500000037252903
0.23634199798107147 0.22928699851036072 0.037629298865795135
0.21473799645900726 0.1909250020980835 0.07485140115022659
0.23469600081443787 0.13486100733280182 0.12432099878787994
0.2691890001296997 0.1203090026974678 0.14096699655056
0.30024099349975586 0.11844000220298767 0.14421199262142181
0.3312950134277344 0.12029600143432617 0.14098800718784332
0.3658060133457184 0.13483299314975739 0.12436600029468536
0.38582101464271545 0.19088900089263916 0.07490990310907364
0.3642579913139343 0.22925999760627747 0.03767300024628639
0.3820349872112274 0.33062899112701416 0.9254890084266663
0.39521199464797974 0.318015992641449 0.8963029980659485
0.399852991104126 0.33036500215530396 0.9105460047721863
0.39892101287841797 0.346561998128891 0.9268530011177063
0.39277100563049316 0.36041098833084106 0.9389879703521729
0.3837530016899109 0.36662301421165466 0.9423159956932068
0.3753109872341156 0.362839013338089 0.9355790019035339
0.41155800223350525 0.3258729875087738 0.8557199835777283
0.41988301277160645 0.34802600741386414 0.8812699913978577
0.4182099997997284 0.3770810067653656 0.910522997379303
0.4071800112724304 0.4019260108470917 0.9322929978370667
0.39100199937820435 0.4130859971046448 0.9382789731025696
0.39641401171684265 0.3190680146217346 0.8436179757118225
0.40718400478363037 0.3450790047645569 0.8069859743118286
0.4241670072078705 0.3527030050754547 0.8205500245094299
0.4335069954395294 0.37754499912261963 0.8492019772529602
0.4316309988498688 0.41012299060821533 0.8820019960403442
0.4192579984664917 0.4379830062389374 0.9064130187034607
0.4011150002479553 0.4504910111427307 0.9131180047988892
0.4146359860897064 0.38801199197769165 0.7993950247764587
0.4260540008544922 0.3931330144405365 0.8085100054740906
0.43232500553131104 0.4098309874534607 0.8277660012245178
0.43106400966644287 0.4317280054092407 0.8498119711875916
0.4227539896965027 0.4504530131816864 0.866221010684967
0.41055700182914734 0.458856999874115 0.8707249760627747
0.4158230125904083 0.43323299288749695 0.8255119919776917
0.3822770118713379 0.38771599531173706 0.9361960291862488
0.3805609941482544 0.4084010124206543 0.9299420118331909
0.3869419991970062 0.32560300827026367 0.8471239805221558
0.3884519934654236 0.4448150098323822 0.9030129909515381
0.39176398515701294 0.35569998621940613 0.8126749992370605
0.3977909982204437 0.45091500878334045 0.8874409794807434
0.3983820080757141 0.4531930088996887 0.8635410070419312
0.4043320119380951 0.3951129913330078 0.8032010197639465
0.4136030077934265 0.4362170100212097 0.8307849764823914
0.41351601481437683 0.43607598543167114 0.830502986907959
0.4126189947128296 0.4337640106678009 0.8278629779815674
0.41146600246429443 0.4296000003814697 0.8244640231132507
0.40699899196624756 0.4089429974555969 0.811253011226654
0.2144400030374527 0.33059999346733093 0.925449013710022
0.21258099377155304 0.3665730059146881 0.9423450231552124
0.20351499319076538 0.3602119982242584 0.9391819834709167
0.19732600450515747 0.3462829887866974 0.9271649718284607
0.19635899364948273 0.33005398511886597 0.9109050035476685
0.2008109986782074 0.31779199838638306 0.8965380191802979
0.2044920027256012 0.4129030108451843 0.9384379982948303
0.18839600682258606 0.4014959931373596 0.9328129887580872
0.17728500068187714 0.3764669895172119 0.9112799763679504
0.1753859966993332 0.34739699959754944 0.8820679783821106
0.18352900445461273 0.3253780007362366 0.8563359975814819
0.1984509974718094 0.31880301237106323 0.8439040184020996
0.1932699978351593 0.45013898611068726 0.9135209918022156
0.17513400316238403 0.4373829960823059 0.9071940183639526
0.1627430021762848 0.4092920124530792 0.8830620050430298
0.16062699258327484 0.37669798731803894 0.8503050208091736
0.1697389930486679 0.3519879877567291 0.8214510083198547
0.1865220069885254 0.344637006521225 0.8075159788131714
0.18275000154972076 0.45837700366973877 0.8713390231132507
0.170647993683815 0.4497770071029663 0.8671110272407532
0.1622910052537918 0.4309149980545044 0.8508819937705994
0.1608240008354187 0.4090009927749634 0.8288469910621643
0.1670130044221878 0.39238300919532776 0.8094609975814819
0.17821399867534637 0.38745298981666565 0.8000839948654175
0.19041499495506287 0.3960390090942383 0.804332971572876
0.1769780069589615 0.4326460063457489 0.8262519836425781
0.22075100243091583 0.362978994846344 0.9354940056800842
0.20946800708770752 0.3265790045261383 0.8477339744567871
0.21368500590324402 0.3875289857387543 0.936053991317749
0.21509599685668945 0.408268004655838 0.929643988609314
0.20304499566555023 0.35631099343299866 0.8132849931716919
0.20678700506687164 0.44424301385879517 0.9023299813270569
0.197176992893219 0.4513719975948334 0.8691779971122742
0.19761599600315094 0.4499019980430603 0.8868029713630676
0.18467000126838684 0.4263480007648468 0.8242189884185791
0.18272200226783752 0.43367999792099 0.8302940130233765
0.18205200135707855 0.4353710114955902 0.832252025604248
0.2981089949607849 0.23017700016498566 0.9181280136108398
0.2980920076370239 0.29646098613739014 0.9587000012397766
0.26148900389671326 0.2917500138282776 0.9502720236778259
0.23993000388145447 0.28224998712539673 0.931069016456604
0.23890900611877441 0.26630899310112 0.9072480201721191
0.2533949911594391 0.2534469962120056 0.8872069716453552
0.2750149965286255 0.24806000292301178 0.8745740056037903
0.2980940043926239 0.246505007147789 0.8700159788131714
0.32119399309158325 0.24806499481201172 0.8745480179786682
0.3427959978580475 0.2534730136394501 0.8871819972991943
0.35731300711631775 0.2663159966468811 0.9072200059890747
0.35625600814819336 0.28014999628067017 0.9296190142631531
0.33473899960517883 0.2917790114879608 0.9502450227737427
0.2980769872665405 0.4132649898529053 0.965345025062561
0.22641000151634216 0.3998729884624481 0.9494119882583618
0.23033800721168518 0.2991180121898651 0.8468300104141235
0.2668350040912628 0.2897520065307617 0.8318910002708435
0.3293190002441406 0.28975799679756165 0.8318870067596436
0.36579200625419617 0.29912999272346497 0.8468250036239624
0.3697029948234558 0.39989399909973145 0.9493929743766785
0.29807600378990173 0.49017998576164246 0.9154549837112427
0.21202799677848816 0.4678559899330139 0.8992729783058167
0.2240930050611496 0.334524005651474 0.8053200244903564
0.26570698618888855 0.315187007188797 0.7914050221443176
0.33043599128723145 0.3151949942111969 0.7913879752159119
0.37206101417541504 0.3345459997653961 0.8052859902381897
0.38412201404571533 0.4678899943828583 0.8995569944381714
0.2264450043439865 0.49690499901771545 0.8268179893493652
0.19069699943065643 0.4500289857387543 0.8059239983558655
0.2303760051727295 0.3644070029258728 0.7692059874534607
0.26680201292037964 0.3420979976654053 0.7604339718818665
0.3292979896068573 0.34210801124572754 0.7604269981384277
0.36576101183891296 0.3644309937953949 0.7691869735717773
0.39828699827194214 0.4009590148925781 0.784621000289917
0.29802098870277405 0.5171269774436951 0.8356829881668091
0.2979939877986908 0.49452298879623413 0.768231987953186
0.2614009976387024 0.48444199562072754 0.7655280232429504
0.23984600603580475 0.45920100808143616 0.7587029933929443
0.23882299661636353 0.4291439950466156 0.7505890130996704
0.19787099957466125 0.40094199776649475 0.7846599817276001
0.2533169984817505 0.40289199352264404 0.7434980273246765
0.2749359905719757 0.38585901260375977 0.7392100095748901
0.2980639934539795 0.3799870014190674 0.7378219962120056
0.3211340010166168 0.3858799934387207 0.7392060160636902
0.34275299310684204 0.4028950035572052 0.7434970140457153
0.35726600885391235 0.42916399240493774 0.7505850195884705
0.3562079966068268 0.45922499895095825 0.7586870193481445
0.40546301007270813 0.45008501410484314 0.8061869740486145
0.3346810042858124 0.48446598649024963 0.7655060291290283
0.36966800689697266 0.49693500995635986 0.8267859816551208
0.29803699254989624 0.4404410123825073 0.7370129823684692
0.37550100684165955 0.5150750279426575 0.8391749858856201
0.38152799010276794 0.5029940009117126 0.8694440126419067
0.3453260064125061 0.5173439979553223 0.8428630232810974
0.21014000475406647 0.49728599190711975 0.8671339750289917
0.21703700721263885 0.511093020439148 0.8325290083885193
0.2507379949092865 0.5145620107650757 0.8367530107498169
0.3815329968929291 0.5029870271682739 0.8695129752159119
0.37552499771118164 0.5150799751281738 0.8392400145530701
0.34533900022506714 0.5173439979553223 0.8429380059242249
0.21701200306415558 0.5111179947853088 0.8325930237770081
0.21014800667762756 0.497296005487442 0.8671870231628418
0.25071099400520325 0.5145879983901978 0.8368080258369446
0.4224349856376648 0.5261989831924438 0.9035369753837585
0.41847100853919983 0.5341539978981018 0.8832190036773682
0.3988580107688904 0.5396850109100342 0.8856949806213379
0.17609600722789764 0.5267940163612366 0.884244978427887
0.20183800160884857 0.5415449738502502 0.864001989364624
0.18040500581264496 0.535506010055542 0.8611900210380554
0.16426099836826324 0.5725470185279846 0.9674710035324097
0.44313299655914307 0.5630810260772705 0.9750000238418579
0.22171400487422943 0.45964398980140686 0.7190790176391602
0.23213399946689606 0.4192740023136139 0.7128990292549133
0.3634980022907257 0.419189989566803 0.7128469944000244
0.37442201375961304 0.4596259891986847 0.7190979719161987
0.1710370033979416 0.46956801414489746 0.6537579894065857
0.19885000586509705 0.40476301312446594 0.6534780263900757
0.397134006023407 0.40465301275253296 0.6534000039100647
0.42511698603630066 0.46953698992729187 0.6537879705429077
0.17104700207710266 0.4695580005645752 0.5722090005874634
0.19819200038909912 0.40475401282310486 0.5845919847488403
0.3972109854221344 0.40464499592781067 0.5844969749450684
0.4251269996166229 0.469527006149292 0.5722399950027466
0.2217400074005127 0.4596180021762848 0.5069019794464111
0.2322939932346344 0.4192509949207306 0.5219630002975464
0.3636400103569031 0.4191499948501587 0.5218769907951355
0.3744469881057739 0.4596000015735626 0.5069199800491333
0.5462279915809631 0.4817749857902527 0.5162690281867981
0.5187100172042847 0.4451639950275421 0.5195850133895874
0.4850490093231201 0.45346599817276 0.4875729978084564
0.49564799666404724 0.47656500339508057 0.4819999933242798
0.5708240270614624 0.5180180072784424 0.6522960066795349
0.5433070063591003 0.4814159870147705 0.6489819884300232
0.5433109998703003 0.48141199350357056 0.6128420233726501
0.5708289742469788 0.5180130004882812 0.6095240116119385
0.495618999004364 0.48871201276779175 0.730883002281189
0.48502200841903687 0.4656040072441101 0.7253310084342957
0.5186899900436401 0.4572950005531311 0.6933280229568481
0.5462070107460022 0.4938960075378418 0.6966419816017151
0.08294039964675903 0.4534730017185211 0.5195320248603821
0.055431898683309555 0.4900889992713928 0.5162090063095093
0.10601899772882462 0.4848659932613373 0.4819520115852356
0.11643999814987183 0.4617669880390167 0.4875270128250122
0.19483399391174316 0.40254101157188416 0.6528630256652832
0.16673000156879425 0.4678640067577362 0.6537569761276245
0.16674000024795532 0.4678550064563751 0.5722079873085022
0.1937830001115799 0.40253299474716187 0.5839599967002869
0.02500000037252903 0.5160499811172485 0.6525890231132507
0.025005200877785683 0.5160449743270874 0.6098260283470154
0.05268460139632225 0.479436993598938 0.6131500005722046
0.05268020182847977 0.4794420003890991 0.6492819786071777
0.10034599900245667 0.4706209897994995 0.7418429851531982
0.08941149711608887 0.4937190115451813 0.747409999370575
0.03883270174264908 0.49893298745155334 0.7131400108337402
0.06651289761066437 0.46231698989868164 0.7098320126533508
0.12339899688959122 0.3035779893398285 0.7155659794807434
0.4744090139865875 0.2963390052318573 0.6991009712219238
0.06223220005631447 0.29234498739242554 0.6095070242881775
0.5473859906196594 0.28299200534820557 0.6291559934616089
0.089922696352005 0.2760309875011444 0.5418379902839661
0.5074099898338318 0.2792249917984009 0.5284389853477478
0.3002240061759949 0.02500000037252903 0.1345120072364807
0.2979939877986908 0.4413659870624542 0.7419049739837646
0.2980729937553406 0.5188810229301453 0.7333679795265198
0.2452320009469986 0.5012170076370239 0.7291079759597778
0.26191699504852295 0.3899630010128021 0.7081210017204285
0.2971639931201935 0.3792090117931366 0.7062810063362122
0.33280301094055176 0.38993701338768005 0.7081130146980286
0.3509109914302826 0.5012040138244629 0.7291210293769836
0.29808899760246277 0.5774539709091187 0.6635349988937378
0.20442000031471252 0.5434229969978333 0.6604350209236145
0.2484540045261383 0.3607519865036011 0.6534039974212646
0.29649800062179565 0.34343498945236206 0.6521480083465576
0.3451949954032898 0.3608259856700897 0.6535360217094421
0.3917500078678131 0.5434010028839111 0.6604570150375366
0.298101007938385 0.5774409770965576 0.5624359846115112
0.20443199574947357 0.5434120297431946 0.5655220150947571
0.2485640048980713 0.36076200008392334 0.5931310057640076
0.2966639995574951 0.34342798590660095 0.595035970211029
0.34532201290130615 0.360819011926651 0.5932279825210571
0.39176198840141296 0.5433890223503113 0.5655450224876404
0.2981019914150238 0.5188519954681396 0.49261799454689026
0.24526099860668182 0.5011889934539795 0.4968680143356323
0.26219499111175537 0.38994100689888 0.5324289798736572
0.29745998978614807 0.37918800115585327 0.5361260175704956
0.333063006401062 0.38991600275039673 0.5324040055274963
0.350939005613327 0.5011759996414185 0.49688100814819336
0.29809001088142395 0.441334992647171 0.48919200897216797
3 0 1 2
3 0 2 3
3 0 3 4
3 0 4 5
3 0 5 6
3 0 6 7
3 0 7 8
3 0 8 9
3 0 9 10
3 0 10 1
3 1 11 12
3 1 12 2
3 2 12 13
3 2 13 3
3 3 13 14
3 3 14 4
3 4 14 15
3 4 15 5
3 5 15 16
3 5 16 6
3 6 16 17
3 6 17 7
3 7 17 18
3 7 18 8
3 8 18 19
3 8 19 9
3 9 19 20
3 9 20 10
3 10 20 11
3 10 11 1
3 11 21 22
3 11 22 12
3 12 22 23
3 12 23 13
3 13 23 24
3 13 24 14
3 14 24 25
3 14 25 15
3 15 25 26
3 15 26 16
3 16 26 27
3 16 27 17
3 17 27 28
3 17 28 18
3 18 28 29
3 18 29 19
3 19 29 30
3 19 30 20
3 20 30 21
3 20 21 11
3 21 31 32
3 21 32 22
3 22 32 33
3 22 33 23
3 23 33 34
3 23 34 24
3 24 34 35
3 24 35 25
3 25 35 36
3 25 36 26
3 26 36 37
3 26 37 27
3 27 37 38
3 27 38 28
3 28 38 39
3 28 39 29
3 29 39 40
3 29 40 30
3 30 40 31
3 30 31 21
3 41 42 43
3 41 43 44
3 41 44 45
3 41 45 46
3 41 46 47
3 42 48 49
3 42 49 43
3 43 49 50
3 43 50 44
3 44 50 51
3 44 51 45
3 45 51 52
3 45 52 46
3 53 54 55
3 53 55 48
3 48 55 56
3 48 56 49
3 49 56 57
3 49 57 50
3 50 57 58
3 50 58 51
3 51 58 59
3 51 59 52
3 54 60 61
3 54 61 55
3 55 61 62
3 55 62 56
3 56 62 63
3 56 63 57
3 57 63 64
3 57 64 58
3 58 64 65
3 58 65 59
3 66 61 60
3 66 62 61
3 66 63 62
3 66 64 63
3 66 65 64
3 46 52 67
3 46 67 47
3 52 68 67
3 70 52 59
3 70 68 52
3 60 74 66
3 66 76 75
3 66 77 76
3 66 78 77
3 66 79 78
3 74 79 66
3 71 54 53
3 69 71 53
3 60 54 71
3 60 71 74
3 48 42 53
3 53 42 69
3 59 65 70
3 65 72 70
3 65 73 72
3 66 75 73
3 73 65 66
3 80 81 82
3 80 82 83
3 80 83 84
3 80 84 85
3 81 86 87
3 81 87 82
3 82 87 88
3 82 88 83
3 83 88 89
3 83 89 84
3 84 89 90
3 84 90 85
3 86 92 93
3 86 93 87
3 87 93 94
3 87 94 88
3 88 94 95
3 88 95 89
3 89 95 96
3 89 96 90
3 90 96 97
3 90 97 91
3 92 98 99
3 92 99 93
3 93 99 100
3 93 100 94
3 94 100 101
3 94 101 95
3 95 101 102
3 95 102 96
3 96 102 103
3 96 103 97
3 105 99 98
3 105 100 99
3 105 101 100
3 105 102 101
3 105 103 102
3 105 104 103
3 81 106 86
3 108 86 106
3 86 109 92
3 92 111 98
3 111 92 109
3 112 98 113
3 98 111 113
3 105 115 114
3 115 105 116
3 80 106 81
3 108 109 86
3 91 97 110
3 91 110 107
3 110 97 103
3 114 104 105
3 110 103 104
3 107 85 91
3 91 85 90
3 115 98 112
3 105 98 115
3 117 118 119
3 117 119 120
3 117 120 121
3 117 121 122
3 117 122 123
3 117 123 124
3 117 124 125
3 117 125 126
3 117 126 127
3 117 127 128
3 117 128 129
3 117 129 118
3 118 130 131
3 118 131 119
3 121 132 122
3 122 132 133
3 122 133 123
3 125 134 135
3 125 135 126
3 129 136 130
3 129 130 118
3 130 137 138
3 130 138 131
3 132 139 140
3 132 140 133
3 134 141 142
3 134 142 135
3 136 143 137
3 136 137 130
3 138 144 145
3 139 146 147
3 139 147 140
3 141 148 149
3 141 149 142
3 143 151 137
3 151 152 153
3 151 153 144
3 144 153 154
3 144 154 145
3 145 154 155
3 145 155 156
3 156 155 157
3 156 157 146
3 146 157 158
3 146 158 147
3 148 160 161
3 148 161 149
3 149 161 162
3 149 162 150
3 150 162 163
3 150 163 164
3 164 163 165
3 164 165 166
3 166 165 152
3 166 152 151
3 167 153 152
3 167 154 153
3 167 155 154
3 167 157 155
3 167 158 157
3 167 159 158
3 167 160 159
3 167 161 160
3 167 162 161
3 167 163 162
3 167 165 163
3 167 152 165
3 137 151 138
3 166 151 170
3 170 168 166
3 151 143 169
3 169 170 151
3 151 144 172
3 172 173 151
3 138 151 173
3 173 171 138
3 131 138 109
3 109 138 111
3 138 113 111
3 113 138 112
3 145 156 114
3 145 114 115
3 136 67 68
3 143 136 68
3 70 143 68
3 150 164 74
3 164 75 76
3 164 76 77
3 164 77 78
3 164 78 79
3 74 164 79
3 134 125 124
3 124 123 133
3 141 134 124
3 140 124 133
3 148 141 124
3 160 148 124
3 147 124 140
3 158 124 147
3 160 124 159
3 159 124 158
3 47 67 136
3 106 131 108
3 129 47 136
3 119 131 106
3 128 47 129
3 119 106 120
3 120 106 80
3 128 41 47
3 120 80 85
3 128 42 41
3 127 42 128
3 131 109 108
3 139 110 146
3 107 110 139
3 142 71 69
3 149 71 142
3 135 127 126
3 121 120 85
3 69 135 142
3 74 71 149
3 150 74 149
3 156 104 114
3 146 110 104
3 146 104 156
3 139 132 107
3 132 121 107
3 121 85 107
3 69 127 135
3 69 42 127
3 70 72 143
3 112 145 115
3 72 73 143
3 143 164 166
3 75 164 73
3 143 73 164
3 138 145 112
3 138 171 144
3 171 172 144
3 168 169 143
3 166 168 143
3 174 175 181
3 181 180 174
3 175 176 182
3 182 181 175
3 176 174 180
3 180 182 176
3 178 179 184
3 184 183 178
3 179 177 185
3 185 184 179
3 177 178 183
3 183 185 177
3 183 184 186
3 182 180 187
3 183 186 185
3 180 187 181
3 185 186 184
3 182 187 181
3 181 187 180
3 199 198 205
3 205 204 199
3 198 202 206
3 206 205 198
3 202 203 207
3 207 206 202
3 203 199 204
3 204 207 203
3 195 194 209
3 209 208 195
3 194 198 210
3 210 209 194
3 198 199 211
3 211 210 198
3 199 195 208
3 208 211 199
3 191 190 213
3 213 212 191
3 190 194 214
3 214 213 190
3 194 195 215
3 215 214 194
3 195 191 212
3 212 215 195
3 197 196 217
3 217 216 197
3 196 200 218
3 218 217 196
3 200 201 219
3 219 218 200
3 201 197 216
3 216 219 201
3 221 222 225
3 225 224 221
3 222 223 226
3 226 225 222
3 223 220 227
3 227 226 223
3 220 221 224
3 224 227 220
3 189 188 229
3 229 228 189
3 188 192 230
3 230 229 188
3 192 193 231
3 231 230 192
3 193 189 228
3 228 231 193
3 229 230 232
3 228 229 232
3 215 212 233
3 212 213 233
3 224 225 234
3 227 224 234
3 211 208 235
3 208 209 235
3 217 218 236
3 216 217 236
3 207 204 237
3 204 205 237
3 228 232 231
3 232 230 231
3 227 234 226
3 226 234 225
3 216 236 219
3 219 236 218
3 215 233 214
3 214 233 213
3 210 235 209
3 211 235 210
3 207 237 206
3 206 237 205
3 238 32 31
3 238 33 32
3 238 34 33
3 238 35 34
3 238 36 35
3 238 37 36
3 238 38 37
3 238 39 38
3 238 40 39
3 238 31 40
3 239 240 241
3 239 241 188
3 239 188 189
3 239 189 242
3 239 242 243
3 239 243 244
3 239 244 190
3 239 190 191
3 239 191 245
3 239 245 240
3 240 246 247
3 240 247 241
3 241 247 192
3 241 192 188
3 189 193 248
3 189 248 242
3 242 248 249
3 242 249 243
3 243 249 250
3 243 250 244
3 244 250 194
3 244 194 190
3 191 195 251
3 191 251 245
3 245 251 246
3 245 246 240
3 246 252 253
3 246 253 247
3 247 253 196
3 247 196 192
3 193 197 254
3 193 254 248
3 248 254 255
3 248 255 249
3 249 255 256
3 249 256 250
3 250 256 198
3 250 198 194
3 195 199 257
3 195 257 251
3 251 257 252
3 251 252 246
3 252 258 259
3 252 259 253
3 253 259 200
3 253 200 196
3 197 201 260
3 197 260 254
3 254 260 261
3 254 261 255
3 255 261 262
3 255 262 256
3 256 262 202
3 256 202 198
3 199 203 263
3 199 263 257
3 257 263 258
3 257 258 252
3 264 259 258
3 264 200 259
3 264 201 200
3 264 260 201
3 264 261 260
3 264 262 261
3 264 202 262
3 264 203 202
3 264 263 203
3 264 258 263
3 193 192 221
3 221 220 193
3 192 196 222
3 222 221 192
3 196 197 223
3 223 222 196
3 197 193 220
3 220 223 197
