ply
format ascii 1.0
element vertex 309
property float x
property float y
property float z
element face 598
property list uchar int vertex_indices
end_header
0.6016259789466858 0.4622730016708374 0.2879300117492676
0.6310579776763916 0.47524699568748474 0.2879300117492676
0.6123329997062683 0.46367400884628296 0.25763100385665894
0.6629170179367065 0.4796839952468872 0.2879300117492676
0.6439759731292725 0.4739780128002167 0.2572839856147766
0.626891016960144 0.4574190080165863 0.2296379953622818
0.7242079973220825 0.4622730016708374 0.2879300117492676
0.7135009765625 0.46367400884628296 0.25763100385665894
0.6947749853134155 0.47524699568748474 0.2879300117492676
0.698943018913269 0.4574190080165863 0.2296379953622818
0.6818569898605347 0.4739780128002167 0.2572839856147766
0.6629170179367065 0.4243929982185364 0.1887580007314682
0.6441910266876221 0.4439840018749237 0.2060829997062683
0.6816419959068298 0.4439840018749237 0.2060829997062683
0.6629170179367065 0.4622730016708374 0.22663800418376923
0.5820339918136597 0.4449479877948761 0.2692039906978607
0.5943909883499146 0.4433319866657257 0.2383439987897873
0.5685989856719971 0.4213930070400238 0.2519029974937439
0.6326180100440979 0.41368499398231506 0.18735699355602264
0.6046249866485596 0.3991270065307617 0.1936119943857193
0.6133310198783875 0.4316270053386688 0.2076980024576187
0.5637450218200684 0.3631010055541992 0.22663800418376923
0.5623440146446228 0.39340001344680786 0.23734599351882935
0.5810700058937073 0.3818269968032837 0.2070470005273819
0.5826849937438965 0.4126870036125183 0.21940399706363678
0.5810700058937073 0.34437501430511475 0.2070470005273819
0.6016259789466858 0.3631010055541992 0.1887580007314682
0.6046249866485596 0.3270750045776367 0.1936119943857193
0.6629170179367065 0.3949590027332306 0.17578400671482086
0.6629170179367065 0.3631010055541992 0.17134599387645721
0.6322709918022156 0.38204100728034973 0.17705300450325012
0.6629170179367065 0.30180999636650085 0.1887580007314682
0.6326180100440979 0.312516987323761 0.18735699355602264
0.6629170179367065 0.33124300837516785 0.17578400671482086
0.6322709918022156 0.3441610038280487 0.17705300450325012
0.6932160258293152 0.41368499398231506 0.18735699355602264
0.7212079763412476 0.3991270065307617 0.1936119943857193
0.6935619711875916 0.38204100728034973 0.17705300450325012
0.7620880007743835 0.3631010055541992 0.22663800418376923
0.7447630167007446 0.34437501430511475 0.2070470005273819
0.7447630167007446 0.3818269968032837 0.2070470005273819
0.7212079763412476 0.3270750045776367 0.1936119943857193
0.7242079973220825 0.3631010055541992 0.1887580007314682
0.6932160258293152 0.312516987323761 0.18735699355602264
0.6935619711875916 0.3441610038280487 0.17705300450325012
0.7125020027160645 0.4316270053386688 0.2076980024576187
0.7437999844551086 0.4449479877948761 0.2692039906978607
0.7572339773178101 0.4213930070400238 0.2519029974937439
0.7314419746398926 0.4433319866657257 0.2383439987897873
0.7634890079498291 0.39340001344680786 0.23734599351882935
0.7431480288505554 0.4126870036125183 0.21940399706363678
0.7750620245933533 0.3631010055541992 0.2560720145702362
0.7737939953804016 0.3937470018863678 0.26899001002311707
0.7794989943504333 0.3631010055541992 0.2879300117492676
0.7437999844551086 0.4449479877948761 0.30665600299835205
0.7572339773178101 0.4213930070400238 0.3239560127258301
0.7620880007743835 0.4243929982185364 0.2879300117492676
0.7620880007743835 0.3631010055541992 0.34922099113464355
0.7750620245933533 0.3631010055541992 0.31978800892829895
0.7634890079498291 0.39340001344680786 0.3385140001773834
0.7737939953804016 0.3937470018863678 0.3068700134754181
0.7634890079498291 0.3328019976615906 0.23734599351882935
0.7737939953804016 0.33245599269866943 0.26899001002311707
0.7572339773178101 0.3048099875450134 0.2519029974937439
0.7634890079498291 0.3328019976615906 0.3385140001773834
0.7572339773178101 0.3048099875450134 0.3239560127258301
0.7737939953804016 0.33245599269866943 0.3068700134754181
0.7242079973220825 0.26392999291419983 0.2879300117492676
0.7437999844551086 0.28125500679016113 0.2692039906978607
0.7437999844551086 0.28125500679016113 0.30665600299835205
0.7620880007743835 0.30180999636650085 0.2879300117492676
0.6816419959068298 0.28221800923347473 0.2060829997062683
0.7125020027160645 0.2945750057697296 0.2076980024576187
0.698943018913269 0.2687839865684509 0.2296379953622818
0.7431480288505554 0.3135159909725189 0.21940399706363678
0.7135009765625 0.2625289857387543 0.25763100385665894
0.7314419746398926 0.28286999464035034 0.2383439987897873
0.6441910266876221 0.28221800923347473 0.2060829997062683
0.6629170179367065 0.26392999291419983 0.22663800418376923
0.626891016960144 0.2687839865684509 0.2296379953622818
0.6947749853134155 0.2509559988975525 0.2879300117492676
0.6629170179367065 0.24651800096035004 0.2879300117492676
0.6818569898605347 0.25222399830818176 0.2572839856147766
0.6016259789466858 0.26392999291419983 0.2879300117492676
0.6123329997062683 0.2625289857387543 0.25763100385665894
0.6310579776763916 0.2509559988975525 0.2879300117492676
0.6439759731292725 0.25222399830818176 0.2572839856147766
0.6123329997062683 0.2625289857387543 0.31822898983955383
0.6439759731292725 0.25222399830818176 0.318574994802475
0.626891016960144 0.2687839865684509 0.346220999956131
0.7135009765625 0.2625289857387543 0.31822898983955383
0.698943018913269 0.2687839865684509 0.346220999956131
0.6818569898605347 0.25222399830818176 0.318574994802475
0.6629170179367065 0.30180999636650085 0.3871009945869446
0.6441910266876221 0.28221800923347473 0.36977601051330566
0.6816419959068298 0.28221800923347473 0.36977601051330566
0.6629170179367065 0.26392999291419983 0.34922099113464355
0.6932160258293152 0.312516987323761 0.38850200176239014
0.7125020027160645 0.2945750057697296 0.36816099286079407
0.7212079763412476 0.3270750045776367 0.3822470009326935
0.7314419746398926 0.28286999464035034 0.33751600980758667
0.7447630167007446 0.34437501430511475 0.36881300806999207
0.7431480288505554 0.3135159909725189 0.356454998254776
0.6629170179367065 0.33124300837516785 0.4000749886035919
0.6935619711875916 0.3441610038280487 0.39880698919296265
0.6629170179367065 0.3631010055541992 0.40451300144195557
0.7447630167007446 0.3818269968032837 0.36881300806999207
0.7212079763412476 0.3991270065307617 0.3822470009326935
0.7242079973220825 0.3631010055541992 0.3871009945869446
0.6629170179367065 0.4243929982185364 0.3871009945869446
0.6629170179367065 0.3949590027332306 0.4000749886035919
0.6932160258293152 0.41368499398231506 0.38850200176239014
0.6935619711875916 0.38204100728034973 0.39880698919296265
0.6326180100440979 0.312516987323761 0.38850200176239014
0.6322709918022156 0.3441610038280487 0.39880698919296265
0.6046249866485596 0.3270750045776367 0.3822470009326935
0.6326180100440979 0.41368499398231506 0.38850200176239014
0.6046249866485596 0.3991270065307617 0.3822470009326935
0.6322709918022156 0.38204100728034973 0.39880698919296265
0.5637450218200684 0.3631010055541992 0.34922099113464355
0.5810700058937073 0.34437501430511475 0.36881300806999207
0.5810700058937073 0.3818269968032837 0.36881300806999207
0.6016259789466858 0.3631010055541992 0.3871009945869446
0.5623440146446228 0.39340001344680786 0.3385140001773834
0.5826849937438965 0.4126870036125183 0.356454998254776
0.5685989856719971 0.4213930070400238 0.3239560127258301
0.6441910266876221 0.4439840018749237 0.36977601051330566
0.626891016960144 0.4574190080165863 0.346220999956131
0.6133310198783875 0.4316270053386688 0.36816099286079407
0.5820339918136597 0.4449479877948761 0.30665600299835205
0.6123329997062683 0.46367400884628296 0.31822898983955383
0.5943909883499146 0.4433319866657257 0.33751600980758667
0.6439759731292725 0.4739780128002167 0.318574994802475
0.6816419959068298 0.4439840018749237 0.36977601051330566
0.698943018913269 0.4574190080165863 0.346220999956131
0.6629170179367065 0.4622730016708374 0.34922099113464355
0.7135009765625 0.46367400884628296 0.31822898983955383
0.6818569898605347 0.4739780128002167 0.318574994802475
0.7125020027160645 0.4316270053386688 0.36816099286079407
0.7431480288505554 0.4126870036125183 0.356454998254776
0.7314419746398926 0.4433319866657257 0.33751600980758667
0.5507709980010986 0.3631010055541992 0.2560720145702362
0.5463340282440186 0.3631010055541992 0.2879300117492676
0.5520399808883667 0.3937470018863678 0.26899001002311707
0.5507709980010986 0.3631010055541992 0.31978800892829895
0.5520399808883667 0.3937470018863678 0.3068700134754181
0.5637450218200684 0.4243929982185364 0.2879300117492676
0.5623440146446228 0.3328019976615906 0.23734599351882935
0.5685989856719971 0.3048099875450134 0.2519029974937439
0.5520399808883667 0.33245599269866943 0.26899001002311707
0.5820339918136597 0.28125500679016113 0.30665600299835205
0.5820339918136597 0.28125500679016113 0.2692039906978607
0.5685989856719971 0.3048099875450134 0.3239560127258301
0.5637450218200684 0.30180999636650085 0.2879300117492676
0.5623440146446228 0.3328019976615906 0.3385140001773834
0.5520399808883667 0.33245599269866943 0.3068700134754181
0.5826849937438965 0.3135159909725189 0.21940399706363678
0.6133310198783875 0.2945750057697296 0.2076980024576187
0.5943909883499146 0.28286999464035034 0.2383439987897873
0.6133310198783875 0.2945750057697296 0.36816099286079407
0.5826849937438965 0.3135159909725189 0.356454998254776
0.5943909883499146 0.28286999464035034 0.33751600980758667
0.7597699761390686 0.3523400127887726 0.2879300117492676
0.7597699761390686 0.3540070056915283 0.2773990035057068
0.9750000238418579 0.38641801476478577 0.2879300117492676
0.7597699761390686 0.3588480055332184 0.2678990066051483
0.7597699761390686 0.3663870096206665 0.2603600025177002
0.7597699761390686 0.375887006521225 0.2555199861526489
0.7597699761390686 0.38641801476478577 0.2538509964942932
0.7597699761390686 0.3969480097293854 0.2555199861526489
0.7597699761390686 0.40644800662994385 0.2603600025177002
0.7597699761390686 0.41398701071739197 0.2678990066051483
0.7597699761390686 0.41882801055908203 0.2773990035057068
0.7597699761390686 0.42049598693847656 0.2879300117492676
0.7597699761390686 0.41882801055908203 0.2984600067138672
0.7597699761390686 0.41398701071739197 0.30796000361442566
0.7597699761390686 0.40644800662994385 0.3154990077018738
0.7597699761390686 0.3969480097293854 0.32034000754356384
0.7597699761390686 0.38641801476478577 0.32200801372528076
0.7597699761390686 0.375887006521225 0.32034000754356384
0.7597699761390686 0.3663870096206665 0.3154990077018738
0.7597699761390686 0.3588480055332184 0.30796000361442566
0.7597699761390686 0.3540070056915283 0.2984600067138672
0.74064701795578 0.4435029923915863 0.33889999985694885
0.7504730224609375 0.4465480148792267 0.33889999985694885
0.7446979880332947 0.4426549971103668 0.3287059962749481
0.7602980136871338 0.4435029923915863 0.33889999985694885
0.7562479972839355 0.4426549971103668 0.3287059962749481
0.7504730224609375 0.4368790090084076 0.3215560019016266
0.7353529930114746 0.43635401129722595 0.332599014043808
0.7411289811134338 0.4324600100517273 0.32240501046180725
0.7345749735832214 0.4261600077152252 0.3281809985637665
0.7411289811134338 0.41986000537872314 0.32240501046180725
0.7504730224609375 0.4261600077152252 0.3185119926929474
0.7504730224609375 0.41544198989868164 0.3215560019016266
0.7598170042037964 0.4324600100517273 0.32240501046180725
0.7663710117340088 0.4261600077152252 0.3281809985637665
0.7598170042037964 0.41986000537872314 0.32240501046180725
0.7655929923057556 0.43635401129722595 0.332599014043808
0.7691619992256165 0.4261600077152252 0.33889999985694885
0.7655929923057556 0.43635401129722595 0.3452000021934509
0.7663710117340088 0.4261600077152252 0.34961798787117004
0.7655929923057556 0.4159660041332245 0.332599014043808
0.7655929923057556 0.4159660041332245 0.3452000021934509
0.7602980136871338 0.40881699323654175 0.33889999985694885
0.7562479972839355 0.4096660017967224 0.3287059962749481
0.7446979880332947 0.4096660017967224 0.3287059962749481
0.7504730224609375 0.40577200055122375 0.33889999985694885
0.74064701795578 0.40881699323654175 0.33889999985694885
0.7446979880332947 0.4096660017967224 0.3490940034389496
0.7562479972839355 0.4096660017967224 0.3490940034389496
0.7504730224609375 0.41544198989868164 0.3562430143356323
0.7598170042037964 0.41986000537872314 0.35539400577545166
0.7504730224609375 0.4261600077152252 0.3592880070209503
0.7598170042037964 0.4324600100517273 0.35539400577545166
0.7504730224609375 0.4368790090084076 0.3562430143356323
0.7411289811134338 0.41986000537872314 0.35539400577545166
0.7411289811134338 0.4324600100517273 0.35539400577545166
0.7345749735832214 0.4261600077152252 0.34961798787117004
0.7353529930114746 0.43635401129722595 0.3452000021934509
0.7446979880332947 0.4426549971103668 0.3490940034389496
0.7562479972839355 0.4426549971103668 0.3490940034389496
0.7317839860916138 0.4261600077152252 0.33889999985694885
0.7353529930114746 0.4159660041332245 0.332599014043808
0.7353529930114746 0.4159660041332245 0.3452000021934509
0.74064701795578 0.4435029923915863 0.23695999383926392
0.7504730224609375 0.4465480148792267 0.23695999383926392
0.7446979880332947 0.4426549971103668 0.2267650067806244
0.7602980136871338 0.4435029923915863 0.23695999383926392
0.7562479972839355 0.4426549971103668 0.2267650067806244
0.7504730224609375 0.4368790090084076 0.21961599588394165
0.7353529930114746 0.43635401129722595 0.23065899312496185
0.7411289811134338 0.4324600100517273 0.22046500444412231
0.7345749735832214 0.4261600077152252 0.22624100744724274
0.7411289811134338 0.41986000537872314 0.22046500444412231
0.7504730224609375 0.4261600077152252 0.21657200157642365
0.7504730224609375 0.41544198989868164 0.21961599588394165
0.7598170042037964 0.4324600100517273 0.22046500444412231
0.7663710117340088 0.4261600077152252 0.22624100744724274
0.7598170042037964 0.41986000537872314 0.22046500444412231
0.7655929923057556 0.43635401129722595 0.23065899312496185
0.7691619992256165 0.4261600077152252 0.23695999383926392
0.7655929923057556 0.43635401129722595 0.243259996175766
0.7663710117340088 0.4261600077152252 0.2476779967546463
0.7655929923057556 0.4159660041332245 0.23065899312496185
0.7655929923057556 0.4159660041332245 0.243259996175766
0.7602980136871338 0.40881699323654175 0.23695999383926392
0.7562479972839355 0.4096660017967224 0.2267650067806244
0.7446979880332947 0.4096660017967224 0.2267650067806244
0.7504730224609375 0.40577200055122375 0.23695999383926392
0.74064701795578 0.40881699323654175 0.23695999383926392
0.7446979880332947 0.4096660017967224 0.24715299904346466
0.7562479972839355 0.4096660017967224 0.24715299904346466
0.7504730224609375 0.41544198989868164 0.2543019950389862
0.7598170042037964 0.41986000537872314 0.2534539997577667
0.7504730224609375 0.4261600077152252 0.2573480010032654
0.7598170042037964 0.4324600100517273 0.2534539997577667
0.7504730224609375 0.4368790090084076 0.2543019950389862
0.7411289811134338 0.41986000537872314 0.2534539997577667
0.7411289811134338 0.4324600100517273 0.2534539997577667
0.7345749735832214 0.4261600077152252 0.2476779967546463
0.7353529930114746 0.43635401129722595 0.243259996175766
0.7446979880332947 0.4426549971103668 0.24715299904346466
0.7562479972839355 0.4426549971103668 0.24715299904346466
0.7317839860916138 0.4261600077152252 0.23695999383926392
0.7353529930114746 0.4159660041332245 0.23065899312496185
0.7353529930114746 0.4159660041332245 0.243259996175766
0.18535199761390686 0.3362810015678406 0.28834301233291626
0.3631010055541992 0.3614020049571991 0.28834301233291626
0.2586219906806946 0.32927799224853516 0.1566700041294098
0.5408509969711304 0.3362810015678406 0.28834301233291626
0.46757999062538147 0.32927799224853516 0.1566700041294098
0.3631010055541992 0.2816300094127655 0.06432680040597916
0.08957129716873169 0.27730199694633484 0.20696499943733215
0.19405299425125122 0.2451779991388321 0.07529149949550629
0.07549349963665009 0.1932010054588318 0.14989499747753143
0.19405299425125122 0.1412239968776703 0.07529149949550629
0.3631010055541992 0.1932010054588318 0.02500000037252903
0.3631010055541992 0.10477299988269806 0.06432680040597916
0.5321509838104248 0.2451779991388321 0.07529149949550629
0.6507070064544678 0.1932010054588318 0.14989499747753143
0.5321509838104248 0.1412239968776703 0.07529149949550629
0.6366299986839294 0.27730199694633484 0.20696499943733215
0.7012019753456116 0.1932010054588318 0.28834301233291626
0.6366299986839294 0.27730199694633484 0.369720995426178
0.6507070064544678 0.1932010054588318 0.4267919957637787
0.6366299986839294 0.10910099744796753 0.20696499943733215
0.6366299986839294 0.10910099744796753 0.369720995426178
0.5408509969711304 0.05012049898505211 0.28834301233291626
0.46757999062538147 0.05712360143661499 0.1566700041294098
0.2586219906806946 0.05712360143661499 0.1566700041294098
0.3631010055541992 0.02500000037252903 0.28834301233291626
0.18535199761390686 0.05012049898505211 0.28834301233291626
0.2586219906806946 0.05712360143661499 0.42001500725746155
0.46757999062538147 0.05712360143661499 0.42001500725746155
0.3631010055541992 0.10477299988269806 0.5123580098152161
0.5321509838104248 0.1412239968776703 0.5013939738273621
0.3631010055541992 0.1932010054588318 0.551688015460968
0.5321509838104248 0.2451779991388321 0.5013939738273621
0.3631010055541992 0.2816300094127655 0.5123580098152161
0.19405299425125122 0.1412239968776703 0.5013939738273621
0.19405299425125122 0.2451779991388321 0.5013939738273621
0.07549349963665009 0.1932010054588318 0.4267919957637787
0.08957129716873169 0.27730199694633484 0.369720995426178
0.2586219906806946 0.32927799224853516 0.42001500725746155
0.46757999062538147 0.32927799224853516 0.42001500725746155
0.02500000037252903 0.1932010054588318 0.28834301233291626
0.08957129716873169 0.10910099744796753 0.20696499943733215
0.08957129716873169 0.10910099744796753 0.369720995426178
3 0 1 2
3 3 4 1
3 5 2 4
3 1 4 2
3 6 7 8
3 9 10 7
3 3 8 10
3 7 10 8
3 11 12 13
3 5 14 12
3 9 13 14
3 12 14 13
3 3 10 4
3 9 14 10
3 5 4 14
3 10 14 4
3 0 2 15
3 5 16 2
3 17 15 16
3 2 16 15
3 11 18 12
3 19 20 18
3 5 12 20
3 18 20 12
3 21 22 23
3 17 24 22
3 19 23 24
3 22 24 23
3 5 20 16
3 19 24 20
3 17 16 24
3 20 24 16
3 21 23 25
3 19 26 23
3 27 25 26
3 23 26 25
3 11 28 18
3 29 30 28
3 19 18 30
3 28 30 18
3 31 32 33
3 27 34 32
3 29 33 34
3 32 34 33
3 19 30 26
3 29 34 30
3 27 26 34
3 30 34 26
3 11 35 28
3 36 37 35
3 29 28 37
3 35 37 28
3 38 39 40
3 41 42 39
3 36 40 42
3 39 42 40
3 31 33 43
3 29 44 33
3 41 43 44
3 33 44 43
3 36 42 37
3 41 44 42
3 29 37 44
3 42 44 37
3 11 13 35
3 9 45 13
3 36 35 45
3 13 45 35
3 6 46 7
3 47 48 46
3 9 7 48
3 46 48 7
3 38 40 49
3 36 50 40
3 47 49 50
3 40 50 49
3 9 48 45
3 47 50 48
3 36 45 50
3 48 50 45
3 38 49 51
3 47 52 49
3 53 51 52
3 49 52 51
3 6 54 46
3 55 56 54
3 47 46 56
3 54 56 46
3 57 58 59
3 53 60 58
3 55 59 60
3 58 60 59
3 47 56 52
3 55 60 56
3 53 52 60
3 56 60 52
3 38 51 61
3 53 62 51
3 63 61 62
3 51 62 61
3 57 64 58
3 65 66 64
3 53 58 66
3 64 66 58
3 67 68 69
3 63 70 68
3 65 69 70
3 68 70 69
3 53 66 62
3 65 70 66
3 63 62 70
3 66 70 62
3 31 43 71
3 41 72 43
3 73 71 72
3 43 72 71
3 38 61 39
3 63 74 61
3 41 39 74
3 61 74 39
3 67 75 68
3 73 76 75
3 63 68 76
3 75 76 68
3 41 74 72
3 63 76 74
3 73 72 76
3 74 76 72
3 31 71 77
3 73 78 71
3 79 77 78
3 71 78 77
3 67 80 75
3 81 82 80
3 73 75 82
3 80 82 75
3 83 84 85
3 79 86 84
3 81 85 86
3 84 86 85
3 73 82 78
3 81 86 82
3 79 78 86
3 82 86 78
3 83 85 87
3 81 88 85
3 89 87 88
3 85 88 87
3 67 90 80
3 91 92 90
3 81 80 92
3 90 92 80
3 93 94 95
3 89 96 94
3 91 95 96
3 94 96 95
3 81 92 88
3 91 96 92
3 89 88 96
3 92 96 88
3 93 95 97
3 91 98 95
3 99 97 98
3 95 98 97
3 67 69 90
3 65 100 69
3 91 90 100
3 69 100 90
3 57 101 64
3 99 102 101
3 65 64 102
3 101 102 64
3 91 100 98
3 65 102 100
3 99 98 102
3 100 102 98
3 93 97 103
3 99 104 97
3 105 103 104
3 97 104 103
3 57 106 101
3 107 108 106
3 99 101 108
3 106 108 101
3 109 110 111
3 105 112 110
3 107 111 112
3 110 112 111
3 99 108 104
3 107 112 108
3 105 104 112
3 108 112 104
3 93 103 113
3 105 114 103
3 115 113 114
3 103 114 113
3 109 116 110
3 117 118 116
3 105 110 118
3 116 118 110
3 119 120 121
3 115 122 120
3 117 121 122
3 120 122 121
3 105 118 114
3 117 122 118
3 115 114 122
3 118 122 114
3 119 121 123
3 117 124 121
3 125 123 124
3 121 124 123
3 109 126 116
3 127 128 126
3 117 116 128
3 126 128 116
3 0 129 130
3 125 131 129
3 127 130 131
3 129 131 130
3 117 128 124
3 127 131 128
3 125 124 131
3 128 131 124
3 0 130 1
3 127 132 130
3 3 1 132
3 130 132 1
3 109 133 126
3 134 135 133
3 127 126 135
3 133 135 126
3 6 8 136
3 3 137 8
3 134 136 137
3 8 137 136
3 127 135 132
3 134 137 135
3 3 132 137
3 135 137 132
3 109 111 133
3 107 138 111
3 134 133 138
3 111 138 133
3 57 59 106
3 55 139 59
3 107 106 139
3 59 139 106
3 6 136 54
3 134 140 136
3 55 54 140
3 136 140 54
3 107 139 138
3 55 140 139
3 134 138 140
3 139 140 138
3 21 141 22
3 142 143 141
3 17 22 143
3 141 143 22
3 119 123 144
3 125 145 123
3 142 144 145
3 123 145 144
3 0 15 129
3 17 146 15
3 125 129 146
3 15 146 129
3 142 145 143
3 125 146 145
3 17 143 146
3 145 146 143
3 21 147 141
3 148 149 147
3 142 141 149
3 147 149 141
3 83 150 151
3 152 153 150
3 148 151 153
3 150 153 151
3 119 144 154
3 142 155 144
3 152 154 155
3 144 155 154
3 148 153 149
3 152 155 153
3 142 149 155
3 153 155 149
3 21 25 147
3 27 156 25
3 148 147 156
3 25 156 147
3 31 77 32
3 79 157 77
3 27 32 157
3 77 157 32
3 83 151 84
3 148 158 151
3 79 84 158
3 151 158 84
3 27 157 156
3 79 158 157
3 148 156 158
3 157 158 156
3 93 113 94
3 115 159 113
3 89 94 159
3 113 159 94
3 119 154 120
3 152 160 154
3 115 120 160
3 154 160 120
3 83 87 150
3 89 161 87
3 152 150 161
3 87 161 150
3 115 160 159
3 152 161 160
3 89 159 161
3 160 161 159
3 162 163 164
3 163 165 164
3 165 166 164
3 166 167 164
3 167 168 164
3 168 169 164
3 169 170 164
3 170 171 164
3 171 172 164
3 172 173 164
3 173 174 164
3 174 175 164
3 175 176 164
3 176 177 164
3 177 178 164
3 178 179 164
3 179 180 164
3 180 181 164
3 181 182 164
3 182 162 164
3 182 181 180
3 183 184 185
3 186 187 184
3 188 185 187
3 184 187 185
3 183 185 189
3 188 190 185
3 191 189 190
3 185 190 189
3 191 190 192
3 188 193 190
3 194 192 193
3 190 193 192
3 188 195 193
3 196 197 195
3 194 193 197
3 195 197 193
3 188 187 195
3 186 198 187
3 196 195 198
3 187 198 195
3 196 198 199
3 186 200 198
3 201 199 200
3 198 200 199
3 196 199 202
3 201 203 199
3 204 202 203
3 199 203 202
3 194 197 205
3 196 202 197
3 204 205 202
3 197 202 205
3 194 205 206
3 204 207 205
3 208 206 207
3 205 207 206
3 208 207 209
3 204 210 207
3 211 209 210
3 207 210 209
3 211 210 212
3 204 203 210
3 201 212 203
3 210 203 212
3 211 212 213
3 201 214 212
3 215 213 214
3 212 214 213
3 211 213 216
3 215 217 213
3 218 216 217
3 213 217 216
3 218 217 219
3 215 220 217
3 183 219 220
3 217 220 219
3 183 220 184
3 215 221 220
3 186 184 221
3 220 221 184
3 215 214 221
3 201 200 214
3 186 221 200
3 214 200 221
3 191 222 189
3 218 219 222
3 183 189 219
3 222 219 189
3 191 223 222
3 208 224 223
3 218 222 224
3 223 224 222
3 191 192 223
3 194 206 192
3 208 223 206
3 192 206 223
3 211 216 209
3 218 224 216
3 208 209 224
3 216 224 209
3 225 226 227
3 228 229 226
3 230 227 229
3 226 229 227
3 225 227 231
3 230 232 227
3 233 231 232
3 227 232 231
3 233 232 234
3 230 235 232
3 236 234 235
3 232 235 234
3 230 237 235
3 238 239 237
3 236 235 239
3 237 239 235
3 230 229 237
3 228 240 229
3 238 237 240
3 229 240 237
3 238 240 241
3 228 242 240
3 243 241 242
3 240 242 241
3 238 241 244
3 243 245 241
3 246 244 245
3 241 245 244
3 236 239 247
3 238 244 239
3 246 247 244
3 239 244 247
3 236 247 248
3 246 249 247
3 250 248 249
3 247 249 248
3 250 249 251
3 246 252 249
3 253 251 252
3 249 252 251
3 253 252 254
3 246 245 252
3 243 254 245
3 252 245 254
3 253 254 255
3 243 256 254
3 257 255 256
3 254 256 255
3 253 255 258
3 257 259 255
3 260 258 259
3 255 259 258
3 260 259 261
3 257 262 259
3 225 261 262
3 259 262 261
3 225 262 226
3 257 263 262
3 228 226 263
3 262 263 226
3 257 256 263
3 243 242 256
3 228 263 242
3 256 242 263
3 233 264 231
3 260 261 264
3 225 231 261
3 264 261 231
3 233 265 264
3 250 266 265
3 260 264 266
3 265 266 264
3 233 234 265
3 236 248 234
3 250 265 248
3 234 248 265
3 253 258 251
3 260 266 258
3 250 251 266
3 258 266 251
3 267 268 269
3 270 271 268
3 268 271 269
3 267 269 273
3 270 282 271
3 280 282 283
3 285 283 284
3 282 284 283
3 280 283 286
3 285 287 283
3 288 286 287
3 283 287 286
3 267 303 304
3 267 304 268
3 270 268 305
3 304 305 268
3 270 305 284
3 267 273 303
3 272 269 271
3 272 274 269
3 275 273 274
3 269 274 273
3 280 281 279
3 278 277 281
3 279 281 277
3 272 271 279
3 280 279 282
3 271 282 279
3 278 281 289
3 280 286 281
3 288 289 286
3 281 286 289
3 278 289 290
3 288 291 289
3 292 290 291
3 289 291 290
3 292 291 293
3 288 294 291
3 295 293 294
3 291 294 293
3 295 294 296
3 288 287 294
3 285 296 287
3 294 287 296
3 295 296 297
3 285 298 296
3 296 298 297
3 302 301 303
3 299 304 301
3 301 304 303
3 299 305 304
3 299 298 305
3 285 284 298
3 298 284 305
3 275 306 273
3 302 303 306
3 306 303 273
3 275 307 306
3 292 308 307
3 302 306 308
3 307 308 306
3 275 276 307
3 278 290 276
3 292 307 290
3 295 300 293
3 302 308 300
3 292 293 308
3 275 274 276
3 272 277 274
3 278 276 277
3 274 277 276
3 272 279 277
3 299 297 298
3 295 297 300
3 299 301 297
3 302 300 301
3 297 301 300
3 270 284 282
3 276 290 307
3 300 308 293
3 182 180 179
3 182 179 178
3 182 178 177
3 182 177 176
3 182 176 175
3 182 175 174
3 182 174 173
3 182 173 172
3 182 172 171
3 182 171 170
3 182 170 169
3 182 169 168
3 182 168 167
3 182 167 166
3 182 166 165
3 182 165 163
3 182 163 162
