ply
format ascii 1.0
element vertex 240
property float x
property float y
property float z
element face 476
property list uchar int vertex_indices
end_header
0.2960050106048584 0.40123099088668823 0.05591150000691414
0.3015100061893463 0.02500000037252903 0.02500000037252903
0.2106810063123703 0.06692110002040863 0.9750000238418579
0.25620099902153015 0.4008080065250397 0.5864890217781067
0.07284930348396301 0.04109089821577072 0.43320098519325256
0.12366300076246262 0.3902220129966736 0.318448007106781
0.12599200010299683 0.03939710184931755 0.1808280050754547
0.19522500038146973 0.3933979868888855 0.11138299852609634
0.29791098833084106 0.22465500235557556 0.0451137013733387
0.15965600311756134 0.23270000517368317 0.1422940045595169
0.23989899456501007 0.22613699734210968 0.05824049934744835
0.2583180069923401 0.39805498719215393 0.06734459847211838
0.296640008687973 0.34406599402427673 0.05315909907221794
0.2534489929676056 0.3417370021343231 0.06522729992866516
0.29706400632858276 0.28351300954818726 0.04977159947156906
0.24730899930000305 0.28287801146507263 0.06226319819688797
0.18590900301933289 0.33834999799728394 0.11985199898481369
0.22317300736904144 0.39530301094055176 0.08618789911270142
0.21512700617313385 0.33983200788497925 0.08830510079860687
0.19247299432754517 0.2291010022163391 0.09359820187091827
0.20496399700641632 0.28287801146507263 0.09105750173330307
0.17426499724388123 0.28351300954818726 0.1302260011434555
0.300027996301651 0.11604099720716476 0.03410410135984421
0.13403700292110443 0.13530799746513367 0.16621899604797363
0.2259249985218048 0.1213340014219284 0.047654300928115845
0.29896900057792664 0.16939499974250793 0.039608899503946304
0.2322770059108734 0.172994002699852 0.05315909907221794
0.16918300092220306 0.12810899317264557 0.0971975028514862
0.1793459951877594 0.17871099710464478 0.09571540355682373
0.1448349952697754 0.1848510056734085 0.15499800443649292
0.21915000677108765 0.031139999628067017 0.037915099412202835
0.3008750081062317 0.06670939922332764 0.02902269922196865
0.22147899866104126 0.07284930348396301 0.0423613004386425
0.15944400429725647 0.036221299320459366 0.0976208969950676
0.16261999309062958 0.07983619719743729 0.0976208969950676
0.1278969943523407 0.08618789911270142 0.17489999532699585
0.08618789911270142 0.2534489929676056 0.38514000177383423
0.1520339995622635 0.39127999544143677 0.19501300156116486
0.11540599912405014 0.24138100445270538 0.2551429867744446
0.1422940045595169 0.33750298619270325 0.21110400557518005
0.17235900461673737 0.39212700724601746 0.14546999335289001
0.16283200681209564 0.3377149999141693 0.15902000665664673
0.13573099672794342 0.23672300577163696 0.1962839961051941
0.15055200457572937 0.2847839891910553 0.17595799267292023
0.1302260011434555 0.28668901324272156 0.23121799528598785
0.11349999904632568 0.33813801407814026 0.3364439904689789
0.1350959986448288 0.3908570110797882 0.2589539885520935
0.1253570020198822 0.3379260003566742 0.27546799182891846
0.09889119863510132 0.24709700047969818 0.3207769989967346
0.11349999904632568 0.2896530032157898 0.2962169945240021
0.10121999680995941 0.2928290069103241 0.3586750030517578
0.09296300262212753 0.04066750034689903 0.32289400696754456
0.09253960102796555 0.1471640020608902 0.30045101046562195
0.11074800044298172 0.14165900647640228 0.23629899322986603
0.12069900333881378 0.19099099934101105 0.21745599806308746
0.10100799798965454 0.1971309930086136 0.279913991689682
0.10651300102472305 0.04066750034689903 0.2604359984397888
0.10651300102472305 0.09105750173330307 0.25069600343704224
0.09063410013914108 0.09423329681158066 0.31484800577163696
0.0658624991774559 0.15859700739383698 0.4281199872493744
0.07814239710569382 0.15245699882507324 0.3635450005531311
0.08512929826974869 0.20369400084018707 0.34554800391197205
0.07221420109272003 0.21110400557518005 0.4111819863319397
0.08301199972629547 0.04024399816989899 0.3758249878883362
0.07835409790277481 0.09698569774627686 0.3732840120792389
0.06713280081748962 0.10079699754714966 0.43468400835990906
0.02500000037252903 0.046595700085163116 0.7408350110054016
0.13128499686717987 0.394243985414505 0.4907900094985962
0.07348450273275375 0.2807610034942627 0.6229050159454346
0.11349999904632568 0.3893750011920929 0.40991199016571045
0.0688266009092331 0.2653050124645233 0.5041289925575256
0.10143200308084488 0.33898499608039856 0.4353190064430237
0.11561699956655502 0.3893750011920929 0.36714398860931396
0.10481899976730347 0.33834999799728394 0.38831600546836853
0.07539000362157822 0.2591649889945984 0.44527000188827515
0.09148090332746506 0.29558199644088745 0.4141460061073303
0.0866113007068634 0.29896900057792664 0.4666540026664734
0.1158289983868599 0.3449130058288574 0.5261480212211609
0.11858099699020386 0.39127999544143677 0.45098599791526794
0.10503099858760834 0.34152600169181824 0.48126301169395447
0.06776800006628036 0.2729269862174988 0.563834011554718
0.08809340000152588 0.3038389980792999 0.5187370181083679
0.09677399694919586 0.30913200974464417 0.5701860189437866
0.04744260013103485 0.042996399104595184 0.5769609808921814
0.042996399104595184 0.17151199281215668 0.566798985004425
0.05358260124921799 0.16494899988174438 0.4956600069999695
0.0605694018304348 0.2180909961462021 0.47575798630714417
0.05188880115747452 0.22529000043869019 0.5416039824485779
0.060781098902225494 0.0423613004386425 0.5009530186653137
0.05485289916396141 0.10545500367879868 0.5028579831123352
0.042573001235723495 0.10990100353956223 0.5773850083351135
0.033892400562763214 0.1882379949092865 0.7156400084495544
0.03600959852337837 0.1793459951877594 0.64069002866745
0.0478660985827446 0.23375900089740753 0.6089310050010681
0.049983300268650055 0.24307399988174438 0.6766830086708069
0.03473920002579689 0.044266801327466965 0.6578390002250671
0.03241030126810074 0.11540599912405014 0.6559339761734009
0.026270300149917603 0.1221809983253479 0.7359650135040283
0.23270000517368317 0.2911350131034851 0.7787330150604248
0.1833689957857132 0.3995380103588104 0.5583299994468689
0.1287440061569214 0.2919819951057434 0.7277079820632935
0.1689710021018982 0.3499940037727356 0.6036379933357239
0.1537269949913025 0.3972089886665344 0.5274180173873901
0.13763700425624847 0.34787699580192566 0.5680689811706543
0.09296300262212753 0.28753599524497986 0.6794350147247314
0.11752299964427948 0.3135780096054077 0.6186710000038147
0.15076300501823425 0.31590700149536133 0.6597449779510498
0.2500610053539276 0.35041800141334534 0.6377260088920593
0.2163970023393631 0.4008080065250397 0.5828890204429626
0.20538799464702606 0.351265013217926 0.6317970156669617
0.17511099576950073 0.294310986995697 0.7662410140037537
0.19162599742412567 0.316754013299942 0.6927739977836609
0.24201600253582 0.31400200724601746 0.701665997505188
0.07200240343809128 0.05675840005278587 0.8915809988975525
0.08809340000152588 0.2066580057144165 0.8496599793434143
0.04913640022277832 0.1977660059928894 0.787837028503418
0.06797970086336136 0.25217899680137634 0.7414699792861938
0.10587800294160843 0.2598010003566742 0.7971529960632324
0.033892400562763214 0.05083020031452179 0.8219239711761475
0.03833850100636482 0.13001400232315063 0.8134559988975525
0.07708380371332169 0.13848300278186798 0.8799359798431396
0.21618600189685822 0.21660900115966797 0.9197400212287903
0.14462299644947052 0.2147040069103241 0.8989920020103455
0.15796199440956116 0.265516996383667 0.8414030075073242
0.22338399291038513 0.2653050124645233 0.8581290245056152
0.13255499303340912 0.06353349983692169 0.9472640156745911
0.13636599481105804 0.14674100279808044 0.9330790042877197
0.21216300129890442 0.14991599321365356 0.9574270248413086
0.4626309871673584 0.049348101019859314 0.5460500121116638
0.4118170142173767 0.39805498719215393 0.3360210061073303
0.3842940032482147 0.05210049822926521 0.8481780290603638
0.3565579950809479 0.39763200283050537 0.501587986946106
0.3701080083847046 0.2678459882736206 0.6709660291671753
0.29727500677108765 0.3995380103588104 0.567857027053833
0.2902890145778656 0.28372499346733093 0.7601010203361511
0.2953700125217438 0.34787699580192566 0.6188820004463196
0.2928290069103241 0.3087080121040344 0.6828230023384094
0.35994499921798706 0.3436430096626282 0.5464730262756348
0.3313629925251007 0.39847901463508606 0.5380039811134338
0.33263298869132996 0.34554800391197205 0.5867000222206116
0.33665600419044495 0.27546799182891846 0.7213559746742249
0.33411499857902527 0.3034150004386902 0.6476770043373108
0.3643920123577118 0.29896900057792664 0.6027910113334656
0.3811179995536804 0.19183799624443054 0.7963060140609741
0.2864780128002167 0.21131600439548492 0.9023789763450623
0.2881709933280945 0.25852999091148376 0.8399209976196289
0.34216099977493286 0.20221200585365295 0.8572819828987122
0.33983200788497925 0.24921399354934692 0.7977880239486694
0.3764599859714508 0.23926299810409546 0.7414699792861938
0.28584200143814087 0.06438039988279343 0.9616609811782837
0.28584200143814087 0.14589400589466095 0.9417600035667419
0.3442780077457428 0.058663900941610336 0.914447009563446
0.3434309959411621 0.13806000351905823 0.8951810002326965
0.3836579918861389 0.1287440061569214 0.8308169841766357
0.44188201427459717 0.25281399488449097 0.44040000438690186
0.3908570110797882 0.396573007106781 0.41711100935935974
0.41457000374794006 0.2572599947452545 0.5570589900016785
0.3972089886665344 0.3419489860534668 0.45416200160980225
0.37540099024772644 0.39699700474739075 0.46072500944137573
0.3804819881916046 0.34237200021743774 0.501587986946106
0.3948799967765808 0.26170599460601807 0.6152830123901367
0.3868339955806732 0.29579299688339233 0.5530369877815247
0.4048309922218323 0.29388800263404846 0.5007410049438477
0.41965100169181824 0.3434309959411621 0.363756000995636
0.40334901213645935 0.39699700474739075 0.37455400824546814
0.4103350043296814 0.34237200021743774 0.40737101435661316
0.43002599477767944 0.2549310028553009 0.49841201305389404
0.4192279875278473 0.2936759889125824 0.44865700602531433
0.4296019971370697 0.29388800263404846 0.39847901463508606
0.43341299891471863 0.046595700085163116 0.7044180035591125
0.4312959909439087 0.17595799267292023 0.6605920195579529
0.4094890058040619 0.1825219988822937 0.7291899919509888
0.40334901213645935 0.23037099838256836 0.6794350147247314
0.42452099919319153 0.2235960066318512 0.6152830123901367
0.4124529957771301 0.04744260013103485 0.7764040231704712
0.41224101185798645 0.12090999633073807 0.7605249881744385
0.43404799699783325 0.11625300347805023 0.6893860101699829
0.46157199144363403 0.16685399413108826 0.5159850120544434
0.44780999422073364 0.17151199281215668 0.5898759961128235
0.4408229887485504 0.21915000677108765 0.5498610138893127
0.4537389874458313 0.2147040069103241 0.483379989862442
0.448868989944458 0.04850120097398758 0.6290450096130371
0.4503509998321533 0.11392399668693542 0.6154950261116028
0.4643250107765198 0.11074800044298172 0.5363100171089172
0.5193729996681213 0.0423613004386425 0.22550100088119507
0.418381005525589 0.40123099088668823 0.16770100593566895
0.4666540026664734 0.23926299810409546 0.2009419947862625
0.4226149916648865 0.39932599663734436 0.26424700021743774
0.46136099100112915 0.2462500035762787 0.3247990012168884
0.432778000831604 0.3444899916648865 0.28054898977279663
0.4181689918041229 0.39869099855422974 0.3010860085487366
0.42706099152565 0.3442780077457428 0.32289400696754456
0.4522570073604584 0.24985000491142273 0.3830229938030243
0.438495010137558 0.2934640049934387 0.35041800141334534
0.44548100233078003 0.2926180064678192 0.3010860085487366
0.43087300658226013 0.3457599878311157 0.17680500447750092
0.42367398738861084 0.399960994720459 0.21978500485420227
0.43489500880241394 0.3451249897480011 0.23206500709056854
0.46686500310897827 0.24265100061893463 0.2644580006599426
0.4490810036659241 0.29155901074409485 0.24709700047969818
0.44696301221847534 0.29071199893951416 0.18781499564647675
0.49417799711227417 0.04405499994754791 0.36714398860931396
0.4884609878063202 0.1520339995622635 0.3629100024700165
0.4755460023880005 0.15965600311756134 0.43891799449920654
0.4660179913043976 0.20856399834156036 0.41541698575019836
0.4772399961948395 0.20200000703334808 0.347665011882782
0.4785099923610687 0.04723089933395386 0.4552209973335266
0.4793570041656494 0.10481899976730347 0.45162099599838257
0.49375399947166443 0.09825610369443893 0.36883801221847534
0.5037050247192383 0.14038899540901184 0.221901997923851
0.498199999332428 0.14546999335289001 0.2911350131034851
0.48486199975013733 0.19607199728488922 0.2807610034942627
0.4874019920825958 0.19077900052070618 0.21343299746513367
0.5079399943351746 0.0423613004386425 0.2913469970226288
0.505611002445221 0.09317470341920853 0.29409998655319214
0.5140799880027771 0.08978720009326935 0.22550100088119507
0.3650270104408264 0.4020780026912689 0.08809340000152588
0.40334901213645935 0.23185299336910248 0.09889119863510132
0.3749780058860779 0.3459720015525818 0.09126920253038406
0.39699700474739075 0.4020780026912689 0.11964000016450882
0.4097000062465668 0.34618300199508667 0.12578000128269196
0.4456929862499237 0.2356639951467514 0.14165900647640228
0.4257909953594208 0.2894420027732849 0.13297900557518005
0.38746899366378784 0.28753599524497986 0.094868503510952
0.3307279944419861 0.40186598896980286 0.0686149001121521
0.3364439904689789 0.3451249897480011 0.0688266009092331
0.3525350093841553 0.22825400531291962 0.0686149001121521
0.3434309959411621 0.285631000995636 0.0688266009092331
0.45564401149749756 0.03770339861512184 0.11053600162267685
0.4359540045261383 0.12895600497722626 0.10651300102472305
0.485709011554718 0.1350959986448288 0.15711499750614166
0.4677119851112366 0.185698002576828 0.15055200457572937
0.42092201113700867 0.1801930069923401 0.10333699733018875
0.5075160264968872 0.04172610118985176 0.16367800533771515
0.4986239969730377 0.08597619831562042 0.16113799810409546
0.447174996137619 0.08047139644622803 0.10863000154495239
0.37137800455093384 0.12260399758815765 0.06713280081748962
0.3626979887485504 0.17468799650669098 0.06797970086336136
0.3836579918861389 0.0317750982940197 0.06543900072574615
0.37836501002311707 0.07369620352983475 0.0660741999745369
3 238 1 239
3 1 31 239
3 125 2 126
3 2 127 126
3 65 64 4
3 63 4 64
3 6 35 33
3 33 35 34
3 9 21 19
3 19 21 20
3 8 10 14
3 14 10 15
3 13 11 12
3 0 12 11
3 14 15 12
3 12 15 13
3 16 7 18
3 7 17 18
3 18 17 13
3 17 11 13
3 19 20 10
3 10 20 15
3 20 18 15
3 18 13 15
3 21 16 20
3 16 18 20
3 23 29 27
3 27 29 28
3 22 24 25
3 25 24 26
3 25 26 8
3 8 26 10
3 27 28 24
3 24 28 26
3 28 19 26
3 19 10 26
3 29 9 28
3 9 19 28
3 1 30 31
3 31 30 32
3 31 32 22
3 22 32 24
3 33 34 30
3 30 34 32
3 34 27 32
3 27 24 32
3 35 23 34
3 23 27 34
3 36 50 48
3 50 49 48
3 38 44 42
3 42 44 43
3 39 37 41
3 37 40 41
3 41 40 16
3 40 7 16
3 42 43 9
3 21 9 43
3 43 41 21
3 16 21 41
3 44 39 43
3 39 41 43
3 45 5 47
3 5 46 47
3 37 39 46
3 46 39 47
3 44 38 49
3 38 48 49
3 39 44 47
3 47 44 49
3 50 45 49
3 45 47 49
3 51 58 56
3 56 58 57
3 52 55 53
3 55 54 53
3 53 54 23
3 29 23 54
3 54 42 29
3 42 9 29
3 55 38 54
3 38 42 54
3 56 57 6
3 6 57 35
3 57 53 35
3 53 23 35
3 58 52 57
3 52 53 57
3 59 62 60
3 62 61 60
3 55 52 61
3 52 60 61
3 38 55 48
3 48 55 61
3 62 36 61
3 36 48 61
3 58 51 64
3 51 63 64
3 52 58 60
3 64 60 58
3 60 64 59
3 65 59 64
3 95 66 96
3 66 97 96
3 68 82 80
3 82 81 80
3 70 76 74
3 74 76 75
3 71 69 73
3 69 72 73
3 73 72 45
3 72 5 45
3 74 75 36
3 50 36 75
3 75 73 50
3 45 50 73
3 76 71 75
3 71 73 75
3 77 67 79
3 67 78 79
3 79 78 71
3 78 69 71
3 80 81 70
3 76 70 81
3 81 79 76
3 79 71 76
3 82 77 81
3 77 79 81
3 90 89 83
3 88 83 89
3 85 84 86
3 84 87 86
3 85 86 59
3 62 59 86
3 86 74 62
3 74 36 62
3 87 70 86
3 70 74 86
3 89 65 88
3 4 88 65
3 89 85 65
3 85 59 65
3 90 84 89
3 84 85 89
3 92 91 93
3 91 94 93
3 84 92 87
3 87 92 93
3 93 80 87
3 80 70 87
3 94 68 93
3 68 80 93
3 83 95 90
3 95 96 90
3 96 92 90
3 92 84 90
3 96 97 92
3 97 91 92
3 98 112 110
3 112 111 110
3 100 106 104
3 104 106 105
3 101 99 103
3 99 102 103
3 103 102 77
3 102 67 77
3 104 105 68
3 82 68 105
3 105 103 82
3 77 82 103
3 106 101 105
3 101 103 105
3 109 107 108
3 107 3 108
3 109 108 101
3 108 99 101
3 110 111 100
3 106 100 111
3 111 109 106
3 109 101 106
3 111 112 109
3 112 107 109
3 118 113 119
3 113 120 119
3 115 114 116
3 114 117 116
3 91 115 94
3 94 115 116
3 116 104 94
3 104 68 94
3 116 117 104
3 117 100 104
3 119 97 118
3 66 118 97
3 97 119 91
3 119 115 91
3 114 115 120
3 120 115 119
3 122 121 123
3 121 124 123
3 114 122 117
3 117 122 123
3 117 123 100
3 110 100 123
3 123 124 110
3 124 98 110
3 113 125 120
3 125 126 120
3 120 126 114
3 126 122 114
3 126 127 122
3 127 121 122
3 181 128 182
3 128 183 182
3 151 130 152
3 130 153 152
3 140 132 141
3 132 142 141
3 98 134 112
3 112 134 136
3 107 135 3
3 133 3 135
3 112 136 107
3 107 136 135
3 139 137 138
3 137 131 138
3 135 139 133
3 138 133 139
3 134 140 136
3 136 140 141
3 136 141 135
3 139 135 141
3 141 142 139
3 142 137 139
3 146 143 147
3 143 148 147
3 121 144 124
3 124 144 145
3 145 134 124
3 134 98 124
3 146 147 144
3 145 144 147
3 145 147 134
3 140 134 147
3 147 148 140
3 148 132 140
3 2 149 127
3 149 150 127
3 127 150 121
3 150 144 121
3 149 151 150
3 151 152 150
3 152 146 150
3 146 144 150
3 153 143 152
3 143 146 152
3 166 154 167
3 154 168 167
3 160 156 161
3 156 162 161
3 159 157 158
3 155 158 157
3 137 159 131
3 158 131 159
3 132 160 142
3 142 160 161
3 142 161 137
3 137 161 159
3 161 162 159
3 162 157 159
3 165 163 164
3 163 129 164
3 157 165 155
3 164 155 165
3 156 166 162
3 162 166 167
3 162 167 157
3 165 157 167
3 167 168 165
3 168 163 165
3 174 169 175
3 169 176 175
3 171 170 172
3 170 173 172
3 143 171 148
3 148 171 172
3 148 172 132
3 160 132 172
3 172 173 160
3 173 156 160
3 130 174 153
3 174 175 153
3 175 171 153
3 171 143 153
3 171 175 170
3 176 170 175
3 177 180 178
3 180 179 178
3 170 178 173
3 173 178 179
3 173 179 156
3 166 156 179
3 179 180 166
3 180 154 166
3 169 181 176
3 181 182 176
3 182 178 176
3 178 170 176
3 182 183 178
3 183 177 178
3 213 184 214
3 184 215 214
3 198 186 199
3 186 200 199
3 192 188 193
3 188 194 193
3 191 189 190
3 187 190 189
3 163 191 129
3 190 129 191
3 154 192 168
3 168 192 193
3 168 193 163
3 163 193 191
3 193 194 191
3 194 189 191
3 197 195 196
3 195 185 196
3 189 197 187
3 196 187 197
3 188 198 194
3 194 198 199
3 194 199 189
3 197 189 199
3 199 200 197
3 200 195 197
3 201 208 206
3 206 208 207
3 203 202 204
3 202 205 204
3 203 204 177
3 180 177 204
3 180 204 154
3 192 154 204
3 204 205 192
3 205 188 192
3 128 206 183
3 206 207 183
3 183 207 177
3 207 203 177
3 207 208 203
3 208 202 203
3 210 209 211
3 209 212 211
3 202 210 205
3 205 210 211
3 205 211 188
3 198 188 211
3 211 212 198
3 212 186 198
3 208 201 214
3 201 213 214
3 214 210 208
3 210 202 208
3 209 210 215
3 215 210 214
3 8 14 226
3 14 227 226
3 221 217 222
3 217 223 222
3 220 218 219
3 216 219 218
3 195 220 185
3 219 185 220
3 186 221 200
3 200 221 222
3 200 222 195
3 195 222 220
3 222 223 220
3 223 218 220
3 225 12 224
3 12 0 224
3 218 225 216
3 224 216 225
3 217 226 223
3 223 226 227
3 223 227 218
3 225 218 227
3 227 14 225
3 14 12 225
3 233 228 234
3 228 235 234
3 230 229 231
3 229 232 231
3 209 230 212
3 212 230 231
3 212 231 186
3 221 186 231
3 231 232 221
3 232 217 221
3 234 215 233
3 184 233 215
3 230 209 234
3 234 209 215
3 234 235 230
3 235 229 230
3 236 22 237
3 22 25 237
3 229 236 232
3 232 236 237
3 232 237 217
3 226 217 237
3 25 8 237
3 8 226 237
3 228 238 235
3 238 239 235
3 235 239 229
3 239 236 229
3 239 31 236
3 31 22 236
3 30 1 33
3 1 238 33
3 33 238 6
3 238 228 6
3 6 228 56
3 228 233 56
3 233 184 56
3 184 213 56
3 213 201 56
3 56 201 51
3 201 206 51
3 51 206 63
3 63 206 4
3 206 128 4
3 4 128 88
3 128 181 88
3 88 181 83
3 181 169 83
3 83 169 95
3 169 174 95
3 95 174 66
3 174 130 66
3 66 130 118
3 118 130 113
3 130 151 113
3 113 151 125
3 151 149 125
3 149 2 125
3 0 11 224
3 108 3 99
3 3 133 99
3 133 138 99
3 99 138 102
3 138 131 102
3 102 131 67
3 67 131 78
3 131 158 78
3 78 158 69
3 69 158 72
3 158 155 72
3 72 155 5
3 155 164 5
3 5 164 46
3 164 129 46
3 129 190 46
3 46 190 37
3 190 187 37
3 187 196 37
3 37 196 40
3 196 185 40
3 40 185 7
3 185 219 7
3 219 216 7
3 7 216 17
3 17 216 11
3 11 216 224
