ply
format ascii 1.0
element vertex 24
property float x
property float y
property float z
element face 52
property list uchar int vertex_indices
end_header
0.1256999969482422 0.24033300578594208 0.03766719996929169
0.1256999969482422 0.9750000238418579 0.03766719996929169
0.11936700344085693 0.24033300578594208 0.04399999976158142
0.11936700344085693 0.9750000238418579 0.04843360185623169
0.10670000314712524 0.9750000238418579 0.04843360185623169
0.10670000314712524 0.24033300578594208 0.04399999976158142
0.1003670021891594 0.9750000238418579 0.03766719996929169
0.1003670021891594 0.24033300578594208 0.03766719996929169
0.10670000314712524 0.24033300578594208 0.027533600106835365
0.10670000314712524 0.9750000238418579 0.027533600106835365
0.11936700344085693 0.9750000238418579 0.027533600106835365
0.11936700344085693 0.24033300578594208 0.027533600106835365
0.11303400248289108 0.18333299458026886 0.02500000037252903
0.06236720085144043 0.24033300578594208 0.02500000037252903
0.16369999945163727 0.24033300578594208 0.02500000037252903
0.11303400248289108 0.02500000037252903 0.03766719996929169
0.037033598870038986 0.24033300578594208 0.03766719996929169
0.18903400003910065 0.24033300578594208 0.03766719996929169
0.030700000002980232 0.09403300285339355 0.04399999976158142
0.02500000037252903 0.24033300578594208 0.05666720122098923
0.1953669935464859 0.09403300285339355 0.04399999976158142
0.2010670006275177 0.24033300578594208 0.05666720122098923
0.06236720085144043 0.04399999976158142 0.04399999976158142
0.16369999945163727 0.04399999976158142 0.04399999976158142
3 0 1 2
3 2 3 4
3 5 4 6
3 7 6 8
3 8 9 10
3 11 10 0
3 9 6 3
3 1 3 2
3 4 5 2
3 6 7 5
3 6 9 8
3 10 11 8
3 10 1 0
3 1 10 9
3 6 4 3
3 3 1 9
3 11 8 12
3 8 7 12
3 0 11 12
3 12 2 0
3 5 2 12
3 7 5 12
3 12 13 7
3 12 0 14
3 15 13 12
3 15 12 14
3 15 16 13
3 15 14 17
3 18 19 16
3 20 17 21
3 18 16 15
3 20 17 15
3 15 18 22
3 20 15 23
3 12 8 11
3 12 7 8
3 12 11 0
3 0 2 12
3 12 2 5
3 12 5 7
3 7 13 12
3 14 0 12
3 12 13 15
3 14 12 15
3 13 16 15
3 17 14 15
3 16 19 18
3 21 17 20
3 15 16 18
3 15 17 20
3 22 18 15
3 23 15 20
