ply
format ascii 1.0
element vertex 502
property float x
property float y
property float z
element face 932
property list uchar int vertex_indices
end_header
0.1023000031709671 0.08652319759130478 0.3457219898700714
0.09701420366764069 0.07113160192966461 0.34571900963783264
0.10102900117635727 0.08619169890880585 0.3376980125904083
0.09879429638385773 0.09233810007572174 0.3382189869880676
0.09308139979839325 0.08606579899787903 0.33626899123191833
0.09173119813203812 0.09320440143346786 0.3391680121421814
0.08748059719800949 0.0895795002579689 0.3400079905986786
0.09281100332736969 0.09337099641561508 0.34705498814582825
0.08869840204715729 0.08974529802799225 0.34770500659942627
0.09515190124511719 0.08590000122785568 0.34937000274658203
0.08913739770650864 0.07299699634313583 0.3467960059642792
0.08869259804487228 0.07034599781036377 0.3461950123310089
0.09192469716072083 0.06701280176639557 0.34551599621772766
0.0853860005736351 0.05925539880990982 0.34688600897789
0.09144040197134018 0.06684619933366776 0.3413960039615631
0.08466009795665741 0.059089601039886475 0.3422999978065491
0.08799269795417786 0.07018020004034042 0.34177300333976746
0.08025660365819931 0.06259460002183914 0.3429970145225525
0.0809824988245964 0.06276039779186249 0.34758201241493225
0.08485639840364456 0.053456101566553116 0.3479759991168976
0.08398369699716568 0.053289398550987244 0.34139999747276306
0.07659479975700378 0.04951519891619682 0.3425680100917816
0.07744079828262329 0.04951620101928711 0.34898099303245544
0.09602860361337662 0.07080010324716568 0.339495986700058
0.0881785973906517 0.07283119857311249 0.340736985206604
0.10001300275325775 0.09266970306634903 0.3459160029888153
0.04978460073471069 0.055907998234033585 0.28637999296188354
0.039134200662374496 0.059777598828077316 0.2878960072994232
0.04742009937763214 0.05994340032339096 0.34029901027679443
0.05804460123181343 0.05607379972934723 0.3386189937591553
0.04854319989681244 0.056793298572301865 0.3475069999694824
0.05899690091609955 0.05159839987754822 0.3458540141582489
0.06610819697380066 0.05728999897837639 0.4575270116329193
0.07642419636249542 0.05209590122103691 0.45606398582458496
0.08164320141077042 0.05888200178742409 0.47504499554634094
0.08750099688768387 0.04658230021595955 0.4742870032787323
0.10155200213193893 0.058389898389577866 0.607354998588562
0.10719399899244308 0.046091001480817795 0.6062949895858765
0.10224200040102005 0.03335120156407356 0.607246994972229
0.08252160251140594 0.033676598221063614 0.47507399320602417
0.06993240118026733 0.027608999982476234 0.4774009883403778
0.06666740030050278 0.0337442010641098 0.4576070010662079
0.057134900242090225 0.0329819992184639 0.4790880084037781
0.05654450133442879 0.03960059955716133 0.4592069983482361
0.051277101039886475 0.045281801372766495 0.4798460006713867
0.056088101118803024 0.0513743981719017 0.4591110050678253
0.0562564991414547 0.05818749964237213 0.47905901074409485
0.06859339773654938 0.06375929713249207 0.477277010679245
0.07600169628858566 0.05769620090723038 0.611395001411438
0.08845049887895584 0.06326720118522644 0.6092579960823059
0.08960910141468048 0.028941599652171135 0.6092429757118225
0.03740699961781502 0.055354099720716476 0.34188199043273926
0.02898319996893406 0.055189099162817 0.289669007062912
0.03325999900698662 0.04509679973125458 0.3425379991531372
0.02500000037252903 0.044930800795555115 0.2902989983558655
0.03812040016055107 0.0349574014544487 0.3417699933052063
0.029696600511670113 0.03479250147938728 0.28955599665641785
0.047996100038290024 0.03457380086183548 0.3405439853668213
0.03988159820437431 0.03092549927532673 0.28828200697898865
0.0587581992149353 0.03567719832062721 0.3385069966316223
0.050498999655246735 0.03567710146307945 0.2862670123577118
0.06257759779691696 0.04593630135059357 0.3379029929637909
0.054318398237228394 0.04593620076775551 0.28566399216651917
0.038523901253938675 0.05104359984397888 0.3490909934043884
0.038954298943281174 0.03926980122923851 0.3490230143070221
0.04924120008945465 0.033412400633096695 0.34739699959754944
0.05942830070853233 0.03999039903283119 0.3457860052585602
0.07685460150241852 0.04032209888100624 0.45599600672721863
0.07685410231351852 0.0324908010661602 0.6112610101699829
0.07102210074663162 0.04479049891233444 0.6121820211410522
0.08430220186710358 0.05402990058064461 0.23509900271892548
0.10962100327014923 0.05937869846820831 0.2453639954328537
0.0915566012263298 0.058631300926208496 0.23093099892139435
0.08300299942493439 0.05502019822597504 0.22154100239276886
0.09121579676866531 0.0597849003970623 0.2202419936656952
0.08612590283155441 0.05797240138053894 0.20191200077533722
0.11497599631547928 0.06264329701662064 0.21648600697517395
0.11104799807071686 0.06380899995565414 0.19797100126743317
0.1449500024318695 0.06279990077018738 0.19160400331020355
0.09176159650087357 0.0641430988907814 0.07915980368852615
0.14727500081062317 0.0638493001461029 0.07038269937038422
0.14433500170707703 0.06532219797372818 0.0283805001527071
0.16395600140094757 0.05945029854774475 0.0677449032664299
0.16122999787330627 0.060590799897909164 0.02604449912905693
0.16889800131320953 0.050105199217796326 0.02500000037252903
0.08170980215072632 0.04708480089902878 0.03844920173287392
0.16196300089359283 0.03903369978070259 0.026097599416971207
0.14548100531101227 0.03348350152373314 0.028199799358844757
0.1645369976758957 0.04004929959774017 0.06782110035419464
0.14826600253582 0.03366919979453087 0.07022509723901749
0.14598000049591064 0.035272400826215744 0.1916089951992035
0.0930555984377861 0.029319200664758682 0.07895419746637344
0.11221899837255478 0.03180449828505516 0.197953999042511
0.08715599775314331 0.030445000156760216 0.20191699266433716
0.11597000062465668 0.03312649950385094 0.2163279950618744
0.09223110228776932 0.034412700682878494 0.22008199989795685
0.09225480258464813 0.03525039926171303 0.23082000017166138
0.08375950157642365 0.0379393994808197 0.22158899903297424
0.0848810002207756 0.039271000772714615 0.23500800132751465
0.07796219736337662 0.04627320170402527 0.2387869954109192
0.0924300029873848 0.04686789959669113 0.24640299379825592
0.0973701998591423 0.05380610004067421 0.246628999710083
0.09977830201387405 0.05396920070052147 0.2586689889431
0.10563100129365921 0.05891349911689758 0.25942298769950867
0.0986597016453743 0.05846979841589928 0.2811709940433502
0.11173500120639801 0.060872700065374374 0.26080799102783203
0.10642799735069275 0.060586199164390564 0.2824600040912628
0.11434199661016464 0.05905409902334213 0.2837269902229309
0.10054799914360046 0.06096639856696129 0.30470699071884155
0.10893499851226807 0.0594308003783226 0.3047240078449249
0.11094799637794495 0.06623529642820358 0.32572299242019653
0.11513099819421768 0.05591709911823273 0.3047510087490082
0.11876799911260605 0.05840139836072922 0.32448700070381165
0.12070400267839432 0.04761449992656708 0.32434898614883423
0.13529500365257263 0.05726350098848343 0.4566600024700165
0.13674700260162354 0.04797149822115898 0.4565980136394501
0.165351003408432 0.04834660142660141 0.6905949711799622
0.13585199415683746 0.03835989907383919 0.4565719962120056
0.1656399965286255 0.04088420048356056 0.6905480027198792
0.1606989949941635 0.03527339920401573 0.6913310289382935
0.16104300320148468 0.042747799307107925 0.7102429866790771
0.15758399665355682 0.03895289823412895 0.7107899785041809
0.15235500037670135 0.047768399119377136 0.7124559879302979
0.1524990051984787 0.037321798503398895 0.7115939855575562
0.14759300649166107 0.03867420181632042 0.712369978427887
0.14644800126552582 0.03468560054898262 0.6935840249061584
0.14368100464344025 0.04217660054564476 0.712988018989563
0.1408820003271103 0.040020398795604706 0.6942949891090393
0.14157600700855255 0.0474775992333889 0.6941859722137451
0.10426600277423859 0.03720080107450485 0.46173301339149475
0.10415200144052505 0.04681750014424324 0.4617510139942169
0.08303169906139374 0.046321801841259 0.3303050100803375
0.1035190001130104 0.05610540136694908 0.4616830050945282
0.08273389935493469 0.057100001722574234 0.3301840126514435
0.08998289704322815 0.06551720201969147 0.32903799414634705
0.08636429905891418 0.053412601351737976 0.3044320046901703
0.09227869659662247 0.05868770182132721 0.30450400710105896
0.15364499390125275 0.03298959881067276 0.6924449801445007
0.12026699632406235 0.027997400611639023 0.4592039883136749
0.12945300340652466 0.03093310073018074 0.45775100588798523
0.11222700029611588 0.0284269992262125 0.32552099227905273
0.11963900178670883 0.03667759895324707 0.32434898614883423
0.11586400121450424 0.03916789963841438 0.30463600158691406
0.11776000261306763 0.04761369898915291 0.3046720027923584
0.12272199988365173 0.04773790016770363 0.2850880026817322
0.12035900354385376 0.05421590059995651 0.2847900092601776
0.12893299758434296 0.05465159937739372 0.2636280059814453
0.12171699851751328 0.059330299496650696 0.2624189853668213
0.15642200410366058 0.06079310178756714 0.24300000071525574
0.12435399740934372 0.061623599380254745 0.24504800140857697
0.11595399677753448 0.061322301626205444 0.22908799350261688
0.11110900342464447 0.03036700002849102 0.4606510102748871
0.09126149863004684 0.027708999812602997 0.32883599400520325
0.10191799700260162 0.02500000037252903 0.3273189961910248
0.10154999792575836 0.033107299357652664 0.3045490086078644
0.10979299992322922 0.03522010147571564 0.3045879900455475
0.1152309998869896 0.036003999412059784 0.28375399112701416
0.1207830011844635 0.04111570119857788 0.2847230136394501
0.129381000995636 0.04121999815106392 0.26372501254081726
0.13181300461292267 0.04817109927535057 0.26401200890541077
0.17367300391197205 0.04976150020956993 0.2431260049343109
0.16708700358867645 0.056261301040649414 0.24265700578689575
0.1653279960155487 0.056756000965833664 0.22833099961280823
0.1549369990825653 0.060788799077272415 0.22829599678516388
0.15470199286937714 0.05779239907860756 0.21205100417137146
0.14790500700473785 0.061806898564100266 0.21245400607585907
0.08346659690141678 0.03537699952721596 0.3302359879016876
0.08694739639759064 0.03948279842734337 0.3043400049209595
0.09316369891166687 0.03480850160121918 0.304531991481781
0.09938620030879974 0.03558630123734474 0.28122401237487793
0.10746300220489502 0.0340535007417202 0.28246501088142395
0.11260499805212021 0.03400919958949089 0.26083800196647644
0.12257999926805496 0.036114200949668884 0.26228201389312744
0.15730899572372437 0.0372455008327961 0.243027001619339
0.16750699281692505 0.04266370087862015 0.24258999526500702
0.16593299806118011 0.04199710115790367 0.2284040004014969
0.17199699580669403 0.04975799843668938 0.22828400135040283
0.1552940011024475 0.04054659977555275 0.2121250033378601
0.15893399715423584 0.049315400421619415 0.21255700290203094
0.15672199428081512 0.04914259910583496 0.190079003572464
0.1530030071735382 0.05828100070357323 0.19066700339317322
0.08431150019168854 0.046459898352622986 0.30442100763320923
0.09116899967193604 0.04673599824309349 0.2798370122909546
0.09336789697408676 0.040258798748254776 0.2801609933376312
0.1003900021314621 0.04053660109639168 0.25874099135398865
0.10635499656200409 0.0356982983648777 0.2594760060310364
0.11050699651241302 0.035665400326251984 0.24539099633693695
0.1251710057258606 0.034594401717185974 0.2447510063648224
0.1169620007276535 0.03445800021290779 0.22892799973487854
0.15563499927520752 0.03757359832525253 0.2281849980354309
0.1487559974193573 0.03626979887485504 0.2123199999332428
0.1537259966135025 0.03987390175461769 0.1905529946088791
0.17141400277614594 0.04996030032634735 0.06639859825372696
0.10031700134277344 0.06877840310335159 0.3274039924144745
0.1189659982919693 0.06646870076656342 0.45924100279808044
0.12828899919986725 0.06409820169210434 0.4577670097351074
0.1598230004310608 0.06097609922289848 0.6913009881973267
0.16503599286079407 0.05564320087432861 0.6904770135879517
0.16063199937343597 0.05336109921336174 0.7104769945144653
0.1609320044517517 0.04805399850010872 0.71042799949646
0.08243370056152344 0.028677700087428093 0.03833480179309845
0.06251560151576996 0.030441299080848694 0.041819699108600616
0.06899099797010422 0.030938800424337387 0.08275909721851349
0.06132170185446739 0.03628480061888695 0.08397269994020462
0.07982189953327179 0.037281401455402374 0.20307500660419464
0.07336980104446411 0.04626879841089249 0.20443199574947357
0.07624360173940659 0.046268898993730545 0.2226089984178543
0.09779129922389984 0.04020849987864494 0.24656200408935547
0.09536279737949371 0.04686180129647255 0.25752100348472595
0.09310899674892426 0.05352390184998512 0.2802020013332367
0.10994400084018707 0.06353220343589783 0.46066799759864807
0.1454090029001236 0.06038939952850342 0.6935790181159973
0.15262700617313385 0.06283800303936005 0.692438006401062
0.15178799629211426 0.058215800672769547 0.7117069959640503
0.15685799717903137 0.05686260014772415 0.7109040021896362
0.07926210016012192 0.05568769946694374 0.2031649947166443
0.06057810038328171 0.05585259944200516 0.0839214026927948
0.06781090050935745 0.06111970171332359 0.08277899771928787
0.061344899237155914 0.062446098774671555 0.04183800145983696
0.08115079998970032 0.06565699726343155 0.038538701832294464
0.14340800046920776 0.05278889834880829 0.713030993938446
0.14485499262809753 0.0474759005010128 0.7128030061721802
0.14046700298786163 0.05477840080857277 0.6943609714508057
0.14686700701713562 0.05658390000462532 0.7124840021133423
0.04783039912581444 0.04577219858765602 0.0439734011888504
0.054601799696683884 0.056844599545001984 0.042904000729322433
0.05432720109820366 0.04544059932231903 0.08507859706878662
0.05533510074019432 0.03528739884495735 0.04295539855957031
0.09077490121126175 0.05283369868993759 0.43533098697662354
0.09761770069599152 0.04599979892373085 0.43424901366233826
0.08828169852495193 0.04571770131587982 0.43572598695755005
0.09116920083761215 0.0390704981982708 0.4351010024547577
0.130048006772995 0.046546999365091324 0.6998689770698547
0.13312500715255737 0.03989880159497261 0.6993820071220398
0.17799699306488037 0.04237909987568855 0.9746170043945312
0.1398259997367859 0.03737640008330345 0.6983219981193542
0.18355299532413483 0.040194299072027206 0.9737380146980286
0.1888049989938736 0.042487699538469315 0.9729080200195312
0.18326400220394135 0.047656599432229996 0.973783016204834
0.19079899787902832 0.04794840142130852 0.9725930094718933
0.18837100267410278 0.0534324012696743 0.97297602891922
0.14921100437641144 0.04710869863629341 0.6968380212783813
0.14613500237464905 0.05392260104417801 0.6973260045051575
0.10436899960041046 0.05325910076498985 0.4331820011138916
0.13926999270915985 0.05644579976797104 0.6984099745750427
0.09733980149030685 0.055617500096559525 0.4342930018901825
0.0870618000626564 0.04323520138859749 0.4334009885787964
0.09424830228090286 0.03954960033297539 0.4322640001773834
0.08870700001716614 0.04471860080957413 0.43314000964164734
0.09114199876785278 0.040560901165008545 0.4327560067176819
0.07811590284109116 0.04438700154423714 0.3661629855632782
0.0807155966758728 0.04039410129189491 0.3657520115375519
0.08365809917449951 0.03938379883766174 0.36528700590133667
0.08662129938602448 0.0373786985874176 0.36498600244522095
0.09398499876260757 0.04131869971752167 0.3636539876461029
0.10441199690103531 0.041651200503110886 0.4306569993495941
0.09070830047130585 0.03603069856762886 0.36434000730514526
0.10127300024032593 0.036196500062942505 0.4311540126800537
0.09487760066986084 0.03457240015268326 0.4321649968624115
0.08899780362844467 0.03758789971470833 0.4330950081348419
0.07840669900178909 0.03725619986653328 0.366117000579834
0.084313303232193 0.034406598657369614 0.36535099148750305
0.1325410008430481 0.05366300046443939 0.6994739770889282
0.1775600016117096 0.05299229919910431 0.97468501329422
0.1827860027551651 0.05528559908270836 0.973691999912262
0.1465570032596588 0.04049089923501015 0.6972590088844299
0.10479000210762024 0.039661701768636703 0.43311500549316406
0.09803420305252075 0.03654719889163971 0.43401598930358887
0.07647159695625305 0.043069299310445786 0.36642301082611084
0.09702180325984955 0.037545401602983475 0.43182599544525146
0.10725600272417068 0.04644620046019554 0.43255800008773804
0.17556700110435486 0.047531601041555405 0.9750000238418579
0.09778139740228653 0.04599900171160698 0.434224009513855
0.1043429970741272 0.05325910076498985 0.4330179989337921
0.09747759997844696 0.055616699159145355 0.43410399556159973
0.07758340239524841 0.055285800248384476 0.309345006942749
0.07101760059595108 0.052336301654577255 0.31038299202919006
0.0685252994298935 0.04538609832525253 0.3107770085334778
0.07177799940109253 0.05116879940032959 0.3067379891872406
0.06978300213813782 0.0453764982521534 0.3070540130138397
0.07706700265407562 0.04566729813814163 0.30321601033210754
0.07221189886331558 0.04005809873342514 0.30667001008987427
0.07774259895086288 0.03787339851260185 0.3056269884109497
0.07849329710006714 0.03621460124850273 0.3093689978122711
0.0830216035246849 0.040332499891519547 0.3049609959125519
0.08489520102739334 0.03916509822010994 0.30835700035095215
0.08736170083284378 0.0461152009665966 0.30779901146888733
0.07716889679431915 0.053626999258995056 0.30571800470352173
0.08256269991397858 0.05160899832844734 0.3048650026321411
0.08428540080785751 0.05292920023202896 0.30828601121902466
0.07146459817886353 0.03873879835009575 0.310479998588562
0.09133300185203552 0.03906960040330887 0.4350750148296356
0.08498989790678024 0.045959100127220154 0.30448099970817566
0.04223660007119179 0.04526339843869209 0.4003709852695465
0.043278198689222336 0.045415401458740234 0.3899669945240021
0.04702090099453926 0.035779498517513275 0.38954299688339233
0.04692550003528595 0.033632900565862656 0.39962899684906006
0.057028599083423615 0.028937000781297684 0.3978640139102936
0.04819419980049133 0.033632900565862656 0.4076539874076843
0.058487001806497574 0.028936099261045456 0.4060260057449341
0.05972930043935776 0.03208789974451065 0.4159010052680969
0.06834059953689575 0.034355200827121735 0.40446799993515015
0.06794019788503647 0.03652089834213257 0.41460299491882324
0.07107619941234589 0.0462861992418766 0.4139389991760254
0.05949860066175461 0.045850299298763275 0.4161050021648407
0.06719479709863663 0.055757101625204086 0.4145529866218567
0.05888890102505684 0.05961449816823006 0.4160340130329132
0.06745470315217972 0.05806859955191612 0.4044409990310669
0.05716110020875931 0.06259959936141968 0.40606799721717834
0.05589250102639198 0.06259959936141968 0.39804399013519287
0.047334201633930206 0.057346198707818985 0.40779000520706177
0.04603949934244156 0.057346198707818985 0.3996019959449768
0.04644009843468666 0.05518050119280815 0.3894670009613037
0.05504539981484413 0.045850299298763275 0.3879390060901642
0.07200580090284348 0.046438898891210556 0.403889000415802
0.07071039825677872 0.04627310112118721 0.39570099115371704
0.06704609841108322 0.034355200827121735 0.3962799906730652
0.06356369704008102 0.03635510057210922 0.386927992105484
0.055327799171209335 0.03208789974451065 0.3880620002746582
0.04765370115637779 0.045415401458740234 0.4176419973373413
0.05139650031924248 0.035779599100351334 0.41721799969673157
0.04364309832453728 0.04526260122656822 0.4082050025463104
0.050815701484680176 0.05518069863319397 0.41714298725128174
0.0661861002445221 0.05806859955191612 0.3964160084724426
0.06281830370426178 0.05559130012989044 0.38687801361083984
0.05448649823665619 0.05944870039820671 0.3881950080394745
0.06653690338134766 0.04628700017929077 0.3862900137901306
0.03764859959483147 0.044627100229263306 0.4042850136756897
0.03868430107831955 0.044627200812101364 0.41083601117134094
0.038397401571273804 0.04926929995417595 0.4088670015335083
0.037518199533224106 0.051093801856040955 0.40430599451065063
0.0470178984105587 0.05137519910931587 0.4028039872646332
0.03694760054349899 0.04926929995417595 0.3996959924697876
0.046283598989248276 0.049551498144865036 0.3982200026512146
0.046113498508930206 0.04507419839501381 0.3962329924106598
0.04714899882674217 0.04507419839501381 0.40278300642967224
0.046565599739551544 0.040762800723314285 0.39817601442337036
0.04744499921798706 0.03893819823861122 0.40273699164390564
0.03722979873418808 0.0404805988073349 0.39965200424194336
0.037945300340652466 0.03865690156817436 0.4042389988899231
0.03867959976196289 0.0404805988073349 0.4088220000267029
0.048184700310230255 0.04507419839501381 0.4093340039253235
0.04773340001702309 0.049551498144865036 0.4073910117149353
0.05636980012059212 0.06641370058059692 0.40199699997901917
0.05721670016646385 0.06658030301332474 0.4084089994430542
0.061025798320770264 0.0665585994720459 0.4059610068798065
0.06193910166621208 0.06671570241451263 0.4011160135269165
0.06221279874444008 0.05626910179853439 0.40107300877571106
0.05954990163445473 0.0665585994720459 0.39662599563598633
0.06001310050487518 0.05611129850149155 0.3967210054397583
0.05560759827494621 0.055966999381780624 0.3954029977321625
0.056643299758434296 0.055966999381780624 0.4019539952278137
0.05198819935321808 0.055987898260354996 0.39798998832702637
0.05091100186109543 0.05583159998059273 0.40285998582839966
0.05171459913253784 0.06643439829349518 0.3980329930782318
0.05061139911413193 0.06627819687128067 0.4027389883995056
0.05316450074315071 0.06643439829349518 0.4072040021419525
0.05767890065908432 0.055966999381780624 0.40850400924682617
0.06146400049328804 0.05627699941396713 0.4058910012245178
0.048179298639297485 0.04076189920306206 0.4073199927806854
0.05343810096383095 0.055987898260354996 0.4071600139141083
0.036776598542928696 0.04462619870901108 0.3977090120315552
0.055334098637104034 0.06641370058059692 0.3954460024833679
0.09623370319604874 0.046474698930978775 0.39787599444389343
0.09064389765262604 0.055263400077819824 0.36434999108314514
0.09120730310678482 0.03752020001411438 0.3642610013484955
0.12887899577617645 0.03881290182471275 0.3583050072193146
0.1017720028758049 0.037686098366975784 0.43107500672340393
0.13944299519062042 0.03897880017757416 0.425119012594223
0.1388549953699112 0.05688770115375519 0.4250440001487732
0.15372000634670258 0.03956659883260727 0.42302998900413513
0.15299299359321594 0.05731059983372688 0.42314499616622925
0.15536199510097504 0.058791499584913254 0.4242810010910034
0.14466899633407593 0.057132501155138016 0.3556410074234009
0.14536599814891815 0.0586204007267952 0.3546909987926483
0.14610500633716583 0.038057900965213776 0.35474300384521484
0.14831499755382538 0.05877060070633888 0.3542250096797943
0.14905300736427307 0.03820810094475746 0.35427600145339966
0.153656005859375 0.04849319905042648 0.3904759883880615
0.15836800634860992 0.038382600992918015 0.42380499839782715
0.1576559990644455 0.05894500017166138 0.4239180088043213
0.10120899975299835 0.055594999343156815 0.4311639964580536
0.128152996301651 0.05672270059585571 0.3584200143814087
0.14523200690746307 0.03938940167427063 0.35555198788642883
0.15607500076293945 0.038228899240493774 0.4241679906845093
0.11894600093364716 0.05390160158276558 0.2970989942550659
0.11846400052309036 0.05390600115060806 0.29935699701309204
0.13118700683116913 0.05417000129818916 0.29701000452041626
0.11939799785614014 0.04129889979958534 0.2971949875354767
0.13158799707889557 0.04173300042748451 0.29677799344062805
0.13075299561023712 0.041738998144865036 0.2989250123500824
0.14216700196266174 0.0420151986181736 0.30316299200057983
0.13948699831962585 0.04202989861369133 0.30425798892974854
0.14549900591373444 0.042179301381111145 0.3221069872379303
0.13903400301933289 0.05446689948439598 0.30416199564933777
0.14507199823856354 0.05461610108613968 0.322174996137619
0.1483220010995865 0.054764699190855026 0.321492999792099
0.145238995552063 0.05463090166449547 0.34128299355506897
0.1485150009393692 0.05477939918637276 0.34076499938964844
0.14054299890995026 0.0544980987906456 0.3519290089607239
0.1491059958934784 0.042341601103544235 0.34067198634147644
0.14080700278282166 0.042061999440193176 0.3518869876861572
0.13825400173664093 0.041908398270606995 0.35061201453208923
0.12459900230169296 0.04132059961557388 0.3566319942474365
0.12456399947404861 0.041318900883197784 0.3542869985103607
0.12411200255155563 0.05392159894108772 0.35419100522994995
0.12400899827480316 0.05392429977655411 0.3567250072956085
0.13780100643634796 0.05434520170092583 0.3505159914493561
0.14583000540733337 0.04219309985637665 0.34119001030921936
0.14877499639987946 0.042327698320150375 0.32158899307250977
0.14190399646759033 0.05461699888110161 0.3032039999961853
0.13032600283622742 0.05417589843273163 0.29899200797080994
0.11889000236988068 0.04130319878458977 0.2992900013923645
0.1345279961824417 0.046207599341869354 0.3130989968776703
0.12958799302577972 0.04606520012021065 0.31052300333976746
0.130854994058609 0.04605739936232567 0.30897998809814453
0.1354680061340332 0.046367399394512177 0.3116070032119751
0.13532400131225586 0.05018150061368942 0.3116300106048584
0.14010000228881836 0.04833950102329254 0.31960299611091614
0.13438400626182556 0.0500217005610466 0.3131220042705536
0.12960800528526306 0.049878399819135666 0.3105199933052063
0.12291499972343445 0.0457674004137516 0.30973199009895325
0.12246599793434143 0.04576839879155159 0.3079560101032257
0.12232299894094467 0.049748100340366364 0.3079789876937866
0.11673399806022644 0.045632898807525635 0.30886200070381165
0.11672800034284592 0.04944600164890289 0.3086960017681122
0.13071100413799286 0.049871399998664856 0.30900299549102783
0.1226079985499382 0.049748100340366364 0.3097800016403198
0.11703799664974213 0.04944600164890289 0.3106609880924225
0.11701899766921997 0.045632898807525635 0.31066399812698364
0.04968219995498657 0.04011699929833412 0.43914300203323364
0.05183099955320358 0.04011699929833412 0.4527350068092346
0.04938260093331337 0.05056359991431236 0.4390220046043396
0.05695569887757301 0.05831599980592728 0.4378249943256378
0.051557499915361404 0.05056359991431236 0.45277801156044006
0.059130601584911346 0.05831599980592728 0.4515799880027771
0.05998130142688751 0.03277890011668205 0.451445996761322
0.05783139914274216 0.03261309862136841 0.43785399198532104
0.0674377977848053 0.05859199911355972 0.43616798520088196
0.0697764977812767 0.058591198176145554 0.44989699125289917
0.07079099863767624 0.0330532006919384 0.449737012386322
0.06831450015306473 0.0330548994243145 0.4361970126628876
0.07528900355100632 0.05175299942493439 0.4350939989089966
0.07743799686431885 0.05175299942493439 0.44868600368499756
0.037459198385477066 0.039782699197530746 0.3586589992046356
0.039659999310970306 0.039782799780368805 0.37257900834083557
0.03718569874763489 0.050229400396347046 0.35870298743247986
0.044267501682043076 0.05798419937491417 0.3575829863548279
0.03938639909029007 0.050229400396347046 0.372622013092041
0.04646829888224602 0.05798419937491417 0.37150201201438904
0.047483399510383606 0.03261210024356842 0.3713420033454895
0.04530790075659752 0.032446298748254776 0.35758599638938904
0.05510310083627701 0.058258600533008575 0.35603800415992737
0.057278700172901154 0.05842439830303192 0.36979299783706665
0.05812940001487732 0.032887399196624756 0.3696590065956116
0.05595460161566734 0.0328872986137867 0.3559029996395111
0.06290239840745926 0.05141960084438324 0.3546369969844818
0.06510309875011444 0.05141960084438324 0.3685559928417206
0.07465849816799164 0.035784099251031876 0.3668780028820038
0.07228550314903259 0.03578580170869827 0.3539919853210449
0.09216059744358063 0.03070629946887493 0.35034701228141785
0.09423190355300903 0.03070629946887493 0.36344701051712036
0.0934491977095604 0.059393301606178284 0.36390700936317444
0.08499719947576523 0.04501369968056679 0.3650749921798706
0.07398819923400879 0.0545228011906147 0.3673189878463745
0.07177899777889252 0.05452359840273857 0.35440799593925476
0.08265189826488495 0.045347098261117935 0.3523530066013336
0.09137870371341705 0.05955909937620163 0.35080599784851074
0.08715610206127167 0.03595079854130745 0.4469819962978363
0.0849469006061554 0.03595159947872162 0.43407100439071655
0.10484900325536728 0.03103790059685707 0.4305880069732666
0.10705699771642685 0.030871300026774406 0.44350001215934753
0.10608600080013275 0.05972509831190109 0.4438210129737854
0.09684000164270401 0.045184001326560974 0.4452829957008362
0.08645910024642944 0.05452379956841469 0.4472599923610687
0.08444059640169144 0.05468960106372833 0.4344860017299652
0.09433089941740036 0.045517999678850174 0.43258699774742126
0.10390199720859528 0.05972589924931526 0.43107399344444275
0.06529279798269272 0.051418598741292953 0.368694007396698
0.06332430243492126 0.03798789903521538 0.3545700013637543
0.06571560353040695 0.038152799010276794 0.36862701177597046
0.07487399876117706 0.035783201456069946 0.3671790063381195
0.07264740020036697 0.035783201456069946 0.35309600830078125
0.07192450016736984 0.05435619875788689 0.3532100021839142
0.06306619942188263 0.051418598741292953 0.35461100935935974
0.07415200024843216 0.05452200025320053 0.36729300022125244
0.07708369940519333 0.05158890038728714 0.4485740065574646
0.07546869665384293 0.03815630078315735 0.43456199765205383
0.07767029851675034 0.038322098553180695 0.4484820067882538
0.08748369663953781 0.03594909980893135 0.4469299912452698
0.08528219908475876 0.035783201456069946 0.4330100119113922
0.08455999940633774 0.05452200025320053 0.43312498927116394
0.07488290220499039 0.05158890038728714 0.43465501070022583
0.08676069974899292 0.05452200025320053 0.4470439851284027
0.06333710253238678 0.040474701672792435 0.3545680046081543
0.06553970277309418 0.040806300938129425 0.36848700046539307
0.07556089758872986 0.040974799543619156 0.43505099415779114
0.07787270098924637 0.04080810025334358 0.44861701130867004
0.05099489912390709 0.054257798939943314 0.3036459982395172
0.032979000359773636 0.05385600030422211 0.30649399757385254
0.05156179890036583 0.03717790171504021 0.30355599522590637
0.03387080132961273 0.03627679869532585 0.30635300278663635
3 0 1 2
3 0 2 3
3 3 2 4
3 3 4 5
3 5 4 6
3 5 6 7
3 7 6 8
3 7 8 9
3 9 8 10
3 9 10 1
3 1 10 11
3 1 11 12
3 12 11 13
3 12 13 14
3 14 13 15
3 14 15 16
3 16 15 17
3 16 17 11
3 11 17 18
3 11 18 13
3 13 18 19
3 13 19 15
3 15 19 20
3 15 20 17
3 17 20 21
3 17 21 18
3 18 21 22
3 18 22 19
3 19 22 20
3 1 23 2
3 2 23 4
3 4 23 24
3 24 23 16
3 16 23 14
3 14 23 12
3 12 23 1
3 7 25 5
3 5 25 3
3 3 25 0
3 0 25 9
3 9 25 7
3 16 11 10
3 16 10 24
3 24 10 8
3 24 8 6
3 20 22 21
3 4 24 6
3 9 1 0
3 26 27 28
3 26 28 29
3 29 28 30
3 29 30 31
3 31 30 32
3 31 32 33
3 33 32 34
3 33 34 35
3 35 34 36
3 35 36 37
3 37 36 38
3 37 38 39
3 39 38 40
3 39 40 41
3 41 40 42
3 41 42 43
3 43 42 44
3 43 44 45
3 45 44 46
3 45 46 47
3 47 46 48
3 47 48 49
3 49 48 50
3 49 50 38
3 38 50 40
3 51 27 52
3 51 52 53
3 53 52 54
3 53 54 55
3 55 54 56
3 55 56 57
3 57 56 58
3 57 58 59
3 59 58 60
3 59 60 61
3 61 60 62
3 61 62 29
3 29 62 26
3 30 28 51
3 30 51 63
3 63 51 53
3 63 53 64
3 64 53 55
3 64 55 65
3 65 55 57
3 65 57 66
3 66 57 59
3 66 59 61
3 45 30 63
3 45 63 43
3 43 63 64
3 43 64 41
3 41 64 65
3 41 65 67
3 67 65 66
3 67 66 33
3 33 66 31
3 42 40 50
3 42 50 68
3 68 50 48
3 68 48 69
3 69 48 46
3 69 46 44
3 49 36 34
3 49 34 47
3 47 34 32
3 47 32 45
3 45 32 30
3 35 37 39
3 35 39 67
3 67 39 41
3 44 42 68
3 44 68 69
3 31 66 61
3 31 61 29
3 28 27 51
3 67 33 35
3 36 49 38
3 70 71 72
3 70 72 73
3 73 72 74
3 73 74 75
3 75 74 76
3 75 76 77
3 77 76 78
3 77 78 79
3 79 78 80
3 79 80 81
3 81 80 82
3 81 82 83
3 83 82 84
3 83 84 85
3 85 84 86
3 85 86 87
3 87 86 88
3 87 88 89
3 89 88 90
3 89 90 91
3 91 90 92
3 91 92 93
3 93 92 94
3 93 94 95
3 95 94 96
3 95 96 97
3 97 96 98
3 97 98 99
3 99 98 100
3 99 100 70
3 70 100 101
3 70 101 71
3 71 101 102
3 71 102 103
3 103 102 104
3 103 104 105
3 105 104 106
3 105 106 107
3 107 106 108
3 107 108 109
3 109 108 110
3 109 110 111
3 111 110 112
3 111 112 113
3 113 112 114
3 113 114 115
3 115 114 116
3 115 116 117
3 117 116 118
3 117 118 119
3 119 118 120
3 119 120 121
3 121 120 122
3 121 122 123
3 123 122 124
3 123 124 125
3 125 124 126
3 125 126 127
3 127 126 128
3 127 128 129
3 129 128 130
3 129 130 131
3 131 130 132
3 131 132 133
3 133 132 134
3 133 134 135
3 135 134 136
3 135 136 104
3 104 136 108
3 104 108 106
3 123 125 137
3 123 137 119
3 119 137 138
3 119 138 139
3 139 138 140
3 139 140 117
3 117 140 141
3 117 141 113
3 113 141 142
3 113 142 143
3 143 142 144
3 143 144 111
3 111 144 145
3 111 145 107
3 107 145 146
3 107 146 147
3 147 146 148
3 147 148 105
3 105 148 149
3 105 149 71
3 71 149 150
3 71 150 72
3 72 150 76
3 72 76 74
3 125 127 129
3 125 129 151
3 151 129 152
3 151 152 138
3 138 152 153
3 138 153 140
3 140 153 154
3 140 154 155
3 155 154 156
3 155 156 142
3 142 156 157
3 142 157 144
3 144 157 158
3 144 158 159
3 159 158 160
3 159 160 146
3 146 160 161
3 146 161 148
3 148 161 162
3 148 162 163
3 163 162 164
3 163 164 165
3 165 164 78
3 165 78 76
3 129 131 166
3 129 166 152
3 152 166 167
3 152 167 168
3 168 167 169
3 168 169 154
3 154 169 170
3 154 170 156
3 156 170 171
3 156 171 172
3 172 171 173
3 172 173 158
3 158 173 174
3 158 174 160
3 160 174 175
3 160 175 176
3 176 175 177
3 176 177 178
3 178 177 179
3 178 179 164
3 164 179 180
3 164 180 78
3 78 180 82
3 78 82 80
3 131 133 135
3 131 135 181
3 181 135 182
3 181 182 167
3 167 182 183
3 167 183 169
3 169 183 184
3 169 184 185
3 185 184 186
3 185 186 171
3 171 186 187
3 171 187 173
3 173 187 188
3 173 188 189
3 189 188 94
3 189 94 190
3 190 94 90
3 190 90 177
3 177 90 191
3 177 191 179
3 179 191 88
3 179 88 192
3 192 88 84
3 192 84 82
3 108 136 134
3 108 134 193
3 193 134 194
3 193 194 110
3 110 194 195
3 110 195 114
3 114 195 196
3 114 196 197
3 197 196 198
3 197 198 116
3 116 198 199
3 116 199 120
3 120 199 122
3 85 87 200
3 200 87 91
3 200 91 201
3 201 91 202
3 201 202 203
3 203 202 93
3 203 93 204
3 204 93 97
3 204 97 205
3 205 97 206
3 205 206 73
3 73 206 99
3 73 99 70
3 96 188 186
3 96 186 98
3 98 186 207
3 98 207 100
3 100 207 184
3 100 184 208
3 208 184 182
3 208 182 102
3 102 182 209
3 102 209 104
3 104 209 135
3 134 132 210
3 134 210 194
3 194 210 211
3 194 211 212
3 212 211 213
3 212 213 196
3 196 213 214
3 196 214 198
3 198 214 122
3 205 73 215
3 205 215 216
3 216 215 75
3 216 75 217
3 217 75 79
3 217 79 218
3 218 79 219
3 218 219 85
3 85 219 81
3 122 220 221
3 221 220 128
3 128 220 222
3 222 220 211
3 211 220 223
3 223 220 122
3 85 224 225
3 225 224 216
3 216 224 226
3 226 224 203
3 203 224 227
3 227 224 85
3 210 132 211
3 211 132 222
3 222 132 128
3 128 132 130
3 150 148 163
3 150 163 76
3 76 163 165
3 221 128 126
3 221 126 122
3 162 160 176
3 162 176 164
3 164 176 178
3 122 213 223
3 223 213 211
3 175 173 189
3 175 189 177
3 177 189 190
3 85 201 227
3 227 201 203
3 203 204 205
3 203 205 226
3 226 205 216
3 216 217 218
3 216 218 225
3 225 218 85
3 146 145 144
3 146 144 159
3 142 141 140
3 142 140 155
3 138 137 125
3 138 125 151
3 126 124 122
3 158 157 156
3 158 156 172
3 154 153 152
3 154 152 168
3 171 170 169
3 171 169 185
3 167 166 131
3 167 131 181
3 194 212 196
3 194 196 195
3 122 214 213
3 122 199 198
3 179 192 82
3 179 82 180
3 100 208 102
3 100 102 101
3 149 148 150
3 107 147 105
3 113 143 111
3 119 139 117
3 161 160 162
3 174 173 175
3 187 186 188
3 183 182 184
3 193 110 108
3 197 116 114
3 97 99 206
3 191 90 88
3 188 96 94
3 89 91 87
3 85 200 201
3 93 202 91
3 88 86 84
3 135 209 182
3 105 71 103
3 81 83 85
3 111 107 109
3 114 112 110
3 117 113 115
3 120 118 116
3 94 92 90
3 123 119 121
3 97 93 95
3 184 207 186
3 215 73 75
3 75 77 79
3 219 79 81
3 228 229 230
3 230 229 231
3 230 231 232
3 232 231 233
3 232 233 234
3 234 233 235
3 234 235 236
3 236 235 237
3 236 237 238
3 238 237 239
3 238 239 240
3 240 239 241
3 240 241 242
3 242 241 243
3 242 243 244
3 244 243 245
3 244 245 228
3 228 245 229
3 246 247 248
3 248 247 249
3 248 249 250
3 250 249 251
3 250 251 252
3 252 251 253
3 252 253 254
3 254 253 255
3 254 255 256
3 256 255 257
3 256 257 258
3 258 257 247
3 247 246 259
3 259 246 260
3 259 260 258
3 258 260 261
3 258 261 256
3 256 261 252
3 228 230 232
3 228 232 262
3 262 232 263
3 262 263 244
3 244 263 264
3 244 264 240
3 240 264 238
3 241 239 237
3 241 237 265
3 265 237 235
3 265 235 266
3 266 235 267
3 266 267 229
3 229 267 231
3 252 260 268
3 268 260 246
3 268 246 250
3 250 246 248
3 247 257 255
3 247 255 269
3 269 255 253
3 269 253 249
3 249 253 251
3 229 243 270
3 229 270 266
3 266 270 241
3 266 241 265
3 263 232 271
3 263 271 238
3 238 271 234
3 252 254 256
3 247 259 258
3 243 229 245
3 231 267 235
3 231 235 233
3 234 236 238
3 247 269 249
3 252 268 250
3 252 261 260
3 241 270 243
3 238 264 263
3 228 262 244
3 244 240 242
3 234 271 232
3 272 273 274
3 274 273 275
3 274 275 228
3 228 275 276
3 228 276 277
3 277 276 278
3 277 278 279
3 279 278 280
3 279 280 281
3 281 280 282
3 281 282 283
3 283 282 284
3 283 284 285
3 285 284 286
3 285 286 266
3 266 286 270
3 266 270 272
3 272 270 273
3 280 278 287
3 287 278 275
3 287 275 288
3 288 275 289
3 288 289 286
3 286 289 273
3 286 273 270
3 277 279 281
3 277 281 290
3 290 281 283
3 290 283 291
3 291 283 267
3 291 267 272
3 272 267 266
3 277 290 291
3 277 291 230
3 230 291 272
3 230 272 228
3 280 287 288
3 280 288 292
3 292 288 286
3 292 286 284
3 266 267 283
3 266 283 285
3 280 292 284
3 280 284 282
3 228 272 274
3 273 289 275
3 228 277 230
3 275 278 276
3 293 294 295
3 293 295 296
3 296 295 297
3 296 297 298
3 298 297 299
3 298 299 300
3 300 299 301
3 300 301 302
3 302 301 303
3 302 303 304
3 304 303 305
3 304 305 306
3 306 305 307
3 306 307 308
3 308 307 309
3 308 309 310
3 310 309 311
3 310 311 293
3 293 311 312
3 293 312 294
3 294 312 313
3 294 313 295
3 307 305 303
3 307 303 314
3 314 303 301
3 314 301 315
3 315 301 316
3 315 316 317
3 317 316 297
3 317 297 318
3 318 297 295
3 318 295 313
3 304 319 320
3 320 319 298
3 298 319 321
3 321 319 310
3 310 319 322
3 322 319 304
3 307 314 315
3 307 315 323
3 323 315 324
3 323 324 309
3 309 324 325
3 309 325 312
3 312 325 313
3 324 326 313
3 313 326 317
3 317 326 315
3 315 326 324
3 320 298 300
3 320 300 304
3 322 304 306
3 322 306 310
3 310 306 308
3 321 310 293
3 321 293 298
3 298 293 296
3 297 316 301
3 297 301 299
3 317 318 313
3 300 302 304
3 312 311 309
3 309 307 323
3 313 325 324
3 327 328 329
3 327 329 330
3 330 329 331
3 330 331 332
3 332 331 333
3 332 333 334
3 334 333 335
3 334 335 336
3 336 335 337
3 336 337 338
3 338 337 339
3 338 339 327
3 327 339 340
3 327 340 328
3 328 340 341
3 328 341 329
3 329 341 342
3 329 342 331
3 331 342 335
3 331 335 333
3 343 344 345
3 343 345 346
3 346 345 347
3 346 347 348
3 348 347 349
3 348 349 350
3 350 349 351
3 350 351 352
3 352 351 353
3 352 353 354
3 354 353 355
3 354 355 343
3 343 355 356
3 343 356 344
3 344 356 357
3 344 357 345
3 345 357 358
3 345 358 347
3 347 358 351
3 347 351 349
3 335 342 341
3 335 341 359
3 359 341 340
3 359 340 337
3 337 340 339
3 351 358 357
3 351 357 360
3 360 357 356
3 360 356 353
3 353 356 355
3 327 332 361
3 327 361 338
3 338 361 334
3 338 334 336
3 343 348 362
3 343 362 354
3 354 362 350
3 354 350 352
3 332 327 330
3 348 343 346
3 334 361 332
3 337 335 359
3 350 362 348
3 353 351 360
3 363 364 365
3 365 364 366
3 365 366 367
3 367 366 368
3 367 368 369
3 369 368 370
3 369 370 371
3 371 370 372
3 371 372 373
3 373 372 374
3 373 374 375
3 375 374 376
3 375 376 377
3 377 376 378
3 377 378 379
3 379 378 380
3 379 380 372
3 372 380 376
3 372 376 374
3 363 365 367
3 363 367 381
3 381 367 369
3 381 369 364
3 364 369 382
3 364 382 366
3 366 382 373
3 366 373 383
3 383 373 375
3 383 375 370
3 370 375 384
3 370 384 372
3 372 384 379
3 375 377 379
3 375 379 384
3 369 371 373
3 369 373 382
3 370 368 366
3 370 366 383
3 363 381 364
3 376 380 378
3 385 386 387
3 385 387 388
3 388 387 389
3 388 389 390
3 390 389 391
3 390 391 392
3 392 391 393
3 392 393 394
3 394 393 395
3 394 395 396
3 396 395 397
3 396 397 398
3 398 397 399
3 398 399 400
3 400 399 401
3 400 401 402
3 402 401 403
3 402 403 404
3 405 406 399
3 405 399 407
3 407 399 397
3 407 397 402
3 402 397 408
3 402 408 400
3 400 408 393
3 400 393 409
3 409 393 391
3 409 391 396
3 396 391 410
3 396 410 394
3 394 410 387
3 394 387 411
3 411 387 386
3 411 386 390
3 390 386 412
3 390 412 388
3 387 410 391
3 387 391 389
3 396 398 400
3 396 400 409
3 399 406 403
3 399 403 401
3 390 392 394
3 390 394 411
3 393 408 397
3 393 397 395
3 402 404 405
3 402 405 407
3 413 414 415
3 413 415 416
3 416 415 417
3 416 417 418
3 418 417 419
3 418 419 413
3 413 419 420
3 413 420 414
3 414 420 421
3 414 421 415
3 415 421 422
3 415 422 423
3 423 422 424
3 423 424 425
3 417 415 426
3 417 426 420
3 420 426 423
3 420 423 427
3 427 423 428
3 427 428 421
3 421 428 429
3 421 429 424
3 420 419 417
3 424 422 421
3 425 428 423
3 413 416 418
3 423 426 415
3 421 420 427
3 430 431 432
3 430 432 433
3 433 432 434
3 433 434 435
3 435 434 431
3 435 431 436
3 436 431 430
3 436 430 437
3 437 430 433
3 437 433 438
3 438 433 435
3 438 435 439
3 439 435 436
3 439 436 440
3 440 436 437
3 440 437 441
3 441 437 438
3 441 438 442
3 442 438 443
3 444 445 446
3 444 446 447
3 447 446 448
3 447 448 449
3 449 448 445
3 449 445 450
3 450 445 444
3 450 444 451
3 451 444 447
3 451 447 452
3 452 447 449
3 452 449 453
3 453 449 450
3 453 450 454
3 454 450 451
3 454 451 455
3 455 451 452
3 455 452 456
3 456 452 457
3 458 459 460
3 458 460 461
3 461 460 462
3 461 462 463
3 463 462 464
3 463 464 458
3 458 464 465
3 458 465 459
3 459 465 466
3 459 466 460
3 460 466 467
3 460 467 462
3 462 467 465
3 462 465 464
3 468 469 470
3 468 470 471
3 471 470 472
3 471 472 473
3 473 472 474
3 473 474 468
3 468 474 475
3 468 475 469
3 469 475 476
3 469 476 470
3 470 476 477
3 470 477 472
3 472 477 475
3 472 475 474
3 478 479 480
3 478 480 481
3 481 480 482
3 481 482 483
3 483 482 479
3 483 479 484
3 484 479 478
3 484 478 485
3 485 478 481
3 485 481 483
3 486 487 488
3 486 488 489
3 489 488 490
3 489 490 491
3 491 490 487
3 491 487 492
3 492 487 486
3 492 486 493
3 493 486 489
3 493 489 491
3 455 494 495
3 455 495 454
3 454 495 457
3 454 457 453
3 453 457 452
3 496 497 441
3 441 497 440
3 440 497 439
3 439 497 443
3 458 461 463
3 468 471 473
3 467 466 465
3 477 476 475
3 485 483 484
3 482 480 479
3 493 491 492
3 490 488 487
3 431 434 432
3 438 439 443
3 445 448 446
3 455 456 494
3 441 442 496
3 27 26 498
3 27 498 499
3 499 498 500
3 499 500 501
3 501 500 58
3 501 58 56
3 498 26 62
3 498 62 500
3 500 62 60
3 500 60 58
3 52 27 499
3 52 499 54
3 54 499 501
3 54 501 56
