ply
format ascii 1.0
element vertex 362
property float x
property float y
property float z
element face 708
property list uchar int vertex_indices
end_header
0.13624800741672516 0.3407360017299652 0.04505100101232529
0.13624800741672516 0.8673369884490967 0.045051101595163345
0.15629899501800537 0.8673329949378967 0.045051101595163345
0.13693200051784515 0.3407360017299652 0.03986139968037605
0.13693200051784515 0.3407360017299652 0.05024050176143646
0.13693200051784515 0.8673369884490967 0.03986150026321411
0.13693200051784515 0.8673369884490967 0.05024069920182228
0.13893499970436096 0.3407360017299652 0.035025499761104584
0.13893499970436096 0.3407360017299652 0.05507649853825569
0.13893499970436096 0.8673369884490967 0.03502560034394264
0.13893499970436096 0.8673369884490967 0.05507659912109375
0.13770799338817596 0.30808699131011963 0.04505100101232529
0.1383419930934906 0.30808699131011963 0.04023919999599457
0.1383419930934906 0.30808699131011963 0.04986279830336571
0.1418440043926239 0.27543899416923523 0.04505100101232529
0.14019900560379028 0.30808699131011963 0.03575529903173447
0.14019900560379028 0.30808699131011963 0.05434669926762581
0.14212100207805634 0.3407360017299652 0.030872799456119537
0.14212100207805634 0.3407360017299652 0.05922919884324074
0.14212100207805634 0.8673369884490967 0.030872900038957596
0.14212100207805634 0.8673369884490967 0.059229299426078796
0.14233699440956116 0.27543899416923523 0.041309699416160583
0.14233699440956116 0.27543899416923523 0.04879219830036163
0.14378100633621216 0.27543899416923523 0.037823498249053955
0.14378100633621216 0.27543899416923523 0.05227850005030632
0.14315299689769745 0.30808699131011963 0.03190489858388901
0.14315299689769745 0.30808699131011963 0.05819709971547127
0.14607800543308258 0.27543899416923523 0.034829799085855484
0.14607800543308258 0.27543899416923523 0.05527219921350479
0.14627400040626526 0.3407360017299652 0.027686400339007378
0.14627400040626526 0.3407360017299652 0.06241559982299805
0.14627400040626526 0.8673369884490967 0.027686400339007378
0.14627400040626526 0.8673369884490967 0.062415700405836105
0.1477379947900772 0.24278999865055084 0.04505100101232529
0.14802999794483185 0.24278999865055084 0.04283510148525238
0.14802999794483185 0.24278999865055084 0.047266799956560135
0.14700399339199066 0.30808699131011963 0.028950300067663193
0.14700399339199066 0.30808699131011963 0.06115160137414932
0.14888499677181244 0.24278999865055084 0.04077029973268509
0.14888499677181244 0.24278999865055084 0.049331601709127426
0.14907200634479523 0.27543899416923523 0.032532598823308945
0.14907200634479523 0.27543899416923523 0.05756939947605133
0.15024499595165253 0.24278999865055084 0.03899719938635826
0.15024499595165253 0.24278999865055084 0.051104698330163956
0.1511099934577942 0.3407360017299652 0.02568330056965351
0.1511099934577942 0.3407360017299652 0.06441870331764221
0.1511099934577942 0.8673369884490967 0.02568330056965351
0.1511099934577942 0.8673369884490967 0.06441880017518997
0.15201899409294128 0.24278999865055084 0.03763660043478012
0.15201899409294128 0.24278999865055084 0.052465301007032394
0.15148699283599854 0.30808699131011963 0.02709300071001053
0.15148699283599854 0.30808699131011963 0.06300889700651169
0.15255799889564514 0.27543899416923523 0.03108849935233593
0.15255799889564514 0.27543899416923523 0.059013400226831436
0.1540839970111847 0.24278999865055084 0.03678140044212341
0.1540839970111847 0.24278999865055084 0.05332060158252716
0.15629899501800537 0.24278999865055084 0.03648959845304489
0.15629899501800537 0.24278999865055084 0.04505100101232529
0.15629899501800537 0.24278999865055084 0.053612299263477325
0.15629899501800537 0.27543899416923523 0.030595999211072922
0.15629899501800537 0.27543899416923523 0.059505999088287354
0.15629899501800537 0.30808699131011963 0.026459500193595886
0.15629899501800537 0.30808699131011963 0.06364239752292633
0.15629899501800537 0.3407360017299652 0.02500000037252903
0.15629899501800537 0.3407360017299652 0.06510189920663834
0.15629899501800537 0.8673369884490967 0.025000199675559998
0.15629899501800537 0.8673369884490967 0.0651020035147667
0.15851500630378723 0.24278999865055084 0.03678140044212341
0.15851500630378723 0.24278999865055084 0.05332060158252716
0.1600400060415268 0.27543899416923523 0.03108849935233593
0.1600400060415268 0.27543899416923523 0.059013400226831436
0.1611109972000122 0.30808699131011963 0.02709300071001053
0.1611109972000122 0.30808699131011963 0.06300889700651169
0.16057999432086945 0.24278999865055084 0.03763660043478012
0.16057999432086945 0.24278999865055084 0.052465301007032394
0.16148899495601654 0.3407360017299652 0.02568330056965351
0.16148899495601654 0.3407360017299652 0.06441870331764221
0.16148899495601654 0.8673369884490967 0.02568330056965351
0.16148899495601654 0.8673369884490967 0.06441880017518997
0.16235299408435822 0.24278999865055084 0.03899719938635826
0.16235299408435822 0.24278999865055084 0.051104698330163956
0.1635269969701767 0.27543899416923523 0.032532598823308945
0.1635269969701767 0.27543899416923523 0.05756939947605133
0.16371400654315948 0.24278999865055084 0.04077029973268509
0.16371400654315948 0.24278999865055084 0.049331601709127426
0.16559499502182007 0.30808699131011963 0.028950300067663193
0.16559499502182007 0.30808699131011963 0.06115160137414932
0.16456900537014008 0.24278999865055084 0.04283510148525238
0.16456900537014008 0.24278999865055084 0.047266799956560135
0.16486099362373352 0.24278999865055084 0.04505100101232529
0.16632500290870667 0.3407360017299652 0.027686400339007378
0.16632500290870667 0.3407360017299652 0.06241559982299805
0.16632500290870667 0.8673369884490967 0.027686400339007378
0.16632500290870667 0.8673369884490967 0.062415700405836105
0.16652099788188934 0.27543899416923523 0.034829799085855484
0.16652099788188934 0.27543899416923523 0.05527219921350479
0.1694449931383133 0.30808699131011963 0.03190489858388901
0.1694449931383133 0.30808699131011963 0.05819709971547127
0.16881799697875977 0.27543899416923523 0.037823498249053955
0.16881799697875977 0.27543899416923523 0.05227850005030632
0.17026199400424957 0.27543899416923523 0.041309699416160583
0.17026199400424957 0.27543899416923523 0.04879219830036163
0.1704770028591156 0.3407360017299652 0.030872799456119537
0.1704770028591156 0.3407360017299652 0.05922919884324074
0.1704770028591156 0.8673369884490967 0.030872900038957596
0.1704770028591156 0.8673369884490967 0.059229299426078796
0.17239999771118164 0.30808699131011963 0.03575529903173447
0.17239999771118164 0.30808699131011963 0.05434669926762581
0.17075400054454803 0.27543899416923523 0.04505100101232529
0.17425699532032013 0.30808699131011963 0.04023919999599457
0.17425699532032013 0.30808699131011963 0.04986279830336571
0.17489099502563477 0.30808699131011963 0.04505100101232529
0.17366400361061096 0.3407360017299652 0.035025499761104584
0.17366400361061096 0.3407360017299652 0.05507649853825569
0.17366400361061096 0.8673369884490967 0.03502560034394264
0.17366400361061096 0.8673369884490967 0.05507659912109375
0.17566700279712677 0.3407360017299652 0.03986139968037605
0.17566700279712677 0.3407360017299652 0.05024050176143646
0.17566700279712677 0.8673369884490967 0.03986150026321411
0.17566700279712677 0.8673369884490967 0.05024069920182228
0.17634999752044678 0.3407360017299652 0.04505100101232529
0.17634999752044678 0.8673369884490967 0.045051101595163345
0.10396800190210342 0.9401059746742249 0.04320339858531952
0.10396800190210342 0.9407020211219788 0.03868800029158592
0.10396800190210342 0.9407020211219788 0.047718800604343414
0.10396800190210342 0.9424449801445007 0.034480299800634384
0.10396800190210342 0.9424449801445007 0.051926400512456894
0.10396800190210342 0.9452170133590698 0.03086709976196289
0.10396800190210342 0.9452170133590698 0.055539701133966446
0.10396800190210342 0.9488319754600525 0.0280946996062994
0.10396800190210342 0.9488319754600525 0.058312200009822845
0.10396800190210342 0.9530370235443115 0.026351699605584145
0.10396800190210342 0.9530370235443115 0.060054998844861984
0.10396800190210342 0.9575549960136414 0.025757400318980217
0.10396800190210342 0.9575549960136414 0.04320339858531952
0.10396800190210342 0.9575549960136414 0.06064949929714203
0.10396800190210342 0.9620689749717712 0.026351699605584145
0.10396800190210342 0.9620689749717712 0.060054998844861984
0.10396800190210342 0.966277003288269 0.0280946996062994
0.10396800190210342 0.966277003288269 0.058312200009822845
0.10396800190210342 0.9698889851570129 0.03086709976196289
0.10396800190210342 0.9698889851570129 0.055539701133966446
0.10396800190210342 0.972661018371582 0.034480299800634384
0.10396800190210342 0.972661018371582 0.051926400512456894
0.10396800190210342 0.9744060039520264 0.03868800029158592
0.10396800190210342 0.9744060039520264 0.047718800604343414
0.10396800190210342 0.9750000238418579 0.04320339858531952
0.20792600512504578 0.9401059746742249 0.04320339858531952
0.20792600512504578 0.9407020211219788 0.03868800029158592
0.20792600512504578 0.9407020211219788 0.047718800604343414
0.20792600512504578 0.9424449801445007 0.034480299800634384
0.20792600512504578 0.9424449801445007 0.051926400512456894
0.20792600512504578 0.9452170133590698 0.03086709976196289
0.20792600512504578 0.9452170133590698 0.055539701133966446
0.20792600512504578 0.9488319754600525 0.0280946996062994
0.20792600512504578 0.9488319754600525 0.058312200009822845
0.20792600512504578 0.9530370235443115 0.026351699605584145
0.20792600512504578 0.9530370235443115 0.060054998844861984
0.20792600512504578 0.9575549960136414 0.025757400318980217
0.20792600512504578 0.9575549960136414 0.04320339858531952
0.20792600512504578 0.9575549960136414 0.06064949929714203
0.20792600512504578 0.9620689749717712 0.026351699605584145
0.20792600512504578 0.9620689749717712 0.060054998844861984
0.20792600512504578 0.966277003288269 0.0280946996062994
0.20792600512504578 0.966277003288269 0.058312200009822845
0.20792600512504578 0.9698889851570129 0.03086709976196289
0.20792600512504578 0.9698889851570129 0.055539701133966446
0.20792600512504578 0.972661018371582 0.034480299800634384
0.20792600512504578 0.972661018371582 0.051926400512456894
0.20792600512504578 0.9744060039520264 0.03868800029158592
0.20792600512504578 0.9744060039520264 0.047718800604343414
0.20792600512504578 0.9750000238418579 0.04320339858531952
0.02500000037252903 0.2610760033130646 0.06827060133218765
0.02519720047712326 0.2477789968252182 0.06819300353527069
0.02717510052025318 0.2610760033130646 0.07379350066184998
0.027369000017642975 0.2477789968252182 0.07371719926595688
0.027850700542330742 0.2258639931678772 0.06716199964284897
0.029978100210428238 0.2258639931678772 0.07270359992980957
0.03318069875240326 0.19599799811840057 0.06516479700803757
0.035218700766563416 0.19599799811840057 0.07073979824781418
0.038541700690984726 0.16755299270153046 0.06325370073318481
0.04048969969153404 0.16755299270153046 0.06886070221662521
0.046637099236249924 0.1348399966955185 0.060549501329660416
0.0484497994184494 0.1348399966955185 0.06620179861783981
0.056160300970077515 0.10639499872922897 0.05764240026473999
0.05781349912285805 0.10639499872922897 0.06334330141544342
0.06714300066232681 0.2786340117454529 0.05464800074696541
0.06861209869384766 0.2786340117454529 0.06039910018444061
0.07266400009393692 0.07368440181016922 0.053284600377082825
0.07404080033302307 0.07368440181016922 0.059058498591184616
0.08911000192165375 0.04914660006761551 0.04977329820394516
0.09021130204200745 0.04914660006761551 0.05560610070824623
0.09496159851551056 0.28417399525642395 0.04871939867734909
0.09596460312604904 0.28417399525642395 0.054569799453020096
0.10989899933338165 0.03176390007138252 0.04648429900407791
0.11065199971199036 0.03176390007138252 0.052372101694345474
0.12458399683237076 0.2855980098247528 0.0449162982404232
0.12509199976921082 0.2855980098247528 0.050830401480197906
0.13849300146102905 0.02500000037252903 0.04399869963526726
0.13876700401306152 0.02500000037252903 0.049928199499845505
0.15693999826908112 0.2850309908390045 0.04956270009279251
0.15697599947452545 0.2850309908390045 0.04362700134515762
0.17760400474071503 0.02608099952340126 0.050299398601055145
0.17799100279808044 0.02608099952340126 0.0443761982023716
0.18177199363708496 0.2858949899673462 0.05059729889035225
0.18223099410533905 0.2858949899673462 0.044679198414087296
0.20122000575065613 0.03175419941544533 0.052654001861810684
0.20200900733470917 0.03175419941544533 0.04677100107073784
0.21258999407291412 0.2850329875946045 0.05437200143933296
0.21357299387454987 0.2850329875946045 0.04851819947361946
0.225600004196167 0.05271679908037186 0.05681249871850014
0.22680599987506866 0.05271679908037186 0.05100030079483986
0.24129900336265564 0.27949100732803345 0.060447901487350464
0.2416290044784546 0.07937479764223099 0.060532499104738235
0.2427709996700287 0.27949100732803345 0.05469759926199913
0.24310700595378876 0.07937479764223099 0.05478360131382942
0.25376299023628235 0.10924199968576431 0.06388700008392334
0.25544801354408264 0.10924199968576431 0.05819530040025711
0.2617810070514679 0.13768500089645386 0.0663658007979393
0.26360198855400085 0.13768500089645386 0.06071630120277405
0.2670919895172119 0.16755400598049164 0.06812530010938644
0.2690039873123169 0.16755400598049164 0.06250569969415665
0.2707189917564392 0.19693000614643097 0.06938190013170242
0.272693008184433 0.19693000614643097 0.06378369778394699
0.27466699481010437 0.22534699738025665 0.07080020010471344
0.27661898732185364 0.24473899602890015 0.07152179628610611
0.2767080068588257 0.22534699738025665 0.06522630155086517
0.2769150137901306 0.2596859931945801 0.07163219898939133
0.27869299054145813 0.24473899602890015 0.0659601017832756
0.27899399399757385 0.2596859931945801 0.06607239693403244
0.09776859730482101 0.9704470038414001 0.034460101276636124
0.09776859730482101 0.9704470038414001 0.05278149992227554
0.09818290174007416 0.9282789826393127 0.05278149992227554
0.09875570237636566 0.9242619872093201 0.034460101276636124
0.10139700025320053 0.9121099710464478 0.034460101276636124
0.10139700025320053 0.9121099710464478 0.05278149992227554
0.10349299758672714 0.9071120023727417 0.04667440056800842
0.10415299981832504 0.9058240056037903 0.05278149992227554
0.10589800029993057 0.9027469754219055 0.034460101276636124
0.10663100332021713 0.9016979932785034 0.05278149992227554
0.10750900208950043 0.9006419777870178 0.034460101276636124
0.10899200290441513 0.9666159749031067 0.034460101276636124
0.10899200290441513 0.9666159749031067 0.05278149992227554
0.10922999680042267 0.9335409998893738 0.05278149992227554
0.1093979999423027 0.9323520064353943 0.034460101276636124
0.11111100018024445 0.9234480261802673 0.034460101276636124
0.11111100018024445 0.9234480261802673 0.0497279018163681
0.11117000132799149 0.9232959747314453 0.05278149992227554
0.11293700337409973 0.9197940230369568 0.0497279018163681
0.11308500170707703 0.9195510149002075 0.034460101276636124
0.11319600045681 0.9193999767303467 0.04667440056800842
0.1132809966802597 0.9193159937858582 0.05278149992227554
0.12235099822282791 0.8924679756164551 0.034460101276636124
0.12369599938392639 0.892096996307373 0.05278149992227554
0.12855300307273865 0.8914210200309753 0.05278149992227554
0.12864699959754944 0.8914089798927307 0.034460101276636124
0.13191699981689453 0.8890050053596497 0.034460101276636124
0.13251900672912598 0.888329029083252 0.05278149992227554
0.13424299657344818 0.8863400220870972 0.034460101276636124
0.13424299657344818 0.8863400220870972 0.037513598799705505
0.13424299657344818 0.8863400220870972 0.05278149992227554
0.13461600244045258 0.8839060068130493 0.034460101276636124
0.13461600244045258 0.8839060068130493 0.05278149992227554
0.13463599979877472 0.885450005531311 0.040567200630903244
0.13463599979877472 0.885450005531311 0.05278149992227554
0.13492900133132935 0.8610979914665222 0.034460101276636124
0.13492900133132935 0.8610979914665222 0.05278149992227554
0.13654600083827972 0.9088839888572693 0.034460101276636124
0.13654600083827972 0.9088839888572693 0.05278149992227554
0.13670800626277924 0.8489149808883667 0.034460101276636124
0.13670800626277924 0.8489149808883667 0.05278149992227554
0.14346100389957428 0.8990449905395508 0.034460101276636124
0.14346100389957428 0.8990449905395508 0.05278149992227554
0.1443829983472824 0.8962399959564209 0.05278149992227554
0.14468899369239807 0.8643749952316284 0.034460101276636124
0.14468899369239807 0.8643749952316284 0.05278149992227554
0.14560100436210632 0.8457509875297546 0.05278149992227554
0.145687997341156 0.8673930168151855 0.034460101276636124
0.145687997341156 0.8673930168151855 0.05278149992227554
0.14594000577926636 0.88646399974823 0.034460101276636124
0.14594000577926636 0.88646399974823 0.05278149992227554
0.14632800221443176 0.8617039918899536 0.034460101276636124
0.14632800221443176 0.8617039918899536 0.05278149992227554
0.15054699778556824 0.8456810116767883 0.034460101276636124
0.16455000638961792 0.8878239989280701 0.034460101276636124
0.16455000638961792 0.8878239989280701 0.05278149992227554
0.16463300585746765 0.8609499931335449 0.034460101276636124
0.16463300585746765 0.8609499931335449 0.05278149992227554
0.16538499295711517 0.8454629778862 0.034460101276636124
0.16538499295711517 0.8454629778862 0.05278149992227554
0.16547200083732605 0.867106020450592 0.034460101276636124
0.16547200083732605 0.867106020450592 0.05278149992227554
0.16632699966430664 0.8638349771499634 0.034460101276636124
0.16632699966430664 0.8638349771499634 0.05278149992227554
0.1684969961643219 0.9017019867897034 0.034460101276636124
0.1684969961643219 0.9017019867897034 0.05278149992227554
0.17318299412727356 0.909197986125946 0.034460101276636124
0.17318299412727356 0.909197986125946 0.05278149992227554
0.1744219958782196 0.8485900163650513 0.034460101276636124
0.1744219958782196 0.8485900163650513 0.05278149992227554
0.1757819950580597 0.8830819725990295 0.034460101276636124
0.1757819950580597 0.8830819725990295 0.05278149992227554
0.17603600025177002 0.8612840175628662 0.034460101276636124
0.17603600025177002 0.8612840175628662 0.05278149992227554
0.1770150065422058 0.8873109817504883 0.05278149992227554
0.17701900005340576 0.887328028678894 0.034460101276636124
0.17820100486278534 0.9124130010604858 0.034460101276636124
0.17855699360370636 0.8900539875030518 0.034460101276636124
0.17855699360370636 0.8900539875030518 0.05278149992227554
0.18161000311374664 0.8916789889335632 0.034460101276636124
0.18360500037670135 0.913769006729126 0.05278149992227554
0.18703800439834595 0.8923770189285278 0.034460101276636124
0.18870000541210175 0.9142910242080688 0.05278149992227554
0.18950699269771576 0.9145089983940125 0.034460101276636124
0.19652700424194336 0.9179679751396179 0.05278149992227554
0.19654600322246552 0.9179800152778625 0.034460101276636124
0.2001029998064041 0.9240850210189819 0.034460101276636124
0.2001029998064041 0.9240850210189819 0.05278149992227554
0.20101800560951233 0.8980720043182373 0.05278149992227554
0.2010820060968399 0.9264330267906189 0.034460101276636124
0.2010820060968399 0.9264330267906189 0.05278149992227554
0.2026430070400238 0.9287220239639282 0.034460101276636124
0.2026430070400238 0.9287220239639282 0.040567200630903244
0.2026430070400238 0.9287220239639282 0.04667440056800842
0.2026430070400238 0.9287220239639282 0.05278149992227554
0.2028149962425232 0.929256021976471 0.037513699382543564
0.2028149962425232 0.929256021976471 0.043620798736810684
0.2028149962425232 0.929256021976471 0.04667440056800842
0.2028149962425232 0.929256021976471 0.0497279018163681
0.20283499360084534 0.9293410181999207 0.04667440056800842
0.20295199751853943 0.929502010345459 0.04667440056800842
0.20308299362659454 0.9002630114555359 0.034460101276636124
0.20331799983978271 0.9311460256576538 0.034460101276636124
0.20331799983978271 0.9311460256576538 0.040567200630903244
0.20331799983978271 0.9311460256576538 0.04667440056800842
0.20331799983978271 0.9311460256576538 0.05278149992227554
0.20341399312019348 0.9321500062942505 0.034460101276636124
0.20341399312019348 0.9321500062942505 0.037513699382543564
0.20341399312019348 0.9321500062942505 0.040567200630903244
0.20341399312019348 0.9321500062942505 0.043620798736810684
0.20341399312019348 0.9321500062942505 0.04667440056800842
0.20341399312019348 0.9317420125007629 0.034460101276636124
0.20341399312019348 0.9317420125007629 0.037513699382543564
0.20341399312019348 0.9317420125007629 0.040567200630903244
0.20341399312019348 0.9317420125007629 0.043620798736810684
0.20341399312019348 0.9317420125007629 0.04667440056800842
0.20341399312019348 0.9317420125007629 0.0497279018163681
0.20341399312019348 0.9317420125007629 0.05278149992227554
0.20367999374866486 0.9674670100212097 0.034460101276636124
0.20367999374866486 0.9674670100212097 0.05278149992227554
0.20370300114154816 0.9644020199775696 0.034460101276636124
0.20712700486183167 0.9301959872245789 0.034460101276636124
0.20717500150203705 0.9332299828529358 0.05278149992227554
0.20945599675178528 0.9117059707641602 0.05278149992227554
0.21124200522899628 0.9146739840507507 0.034460101276636124
0.21223700046539307 0.9170669913291931 0.043620798736810684
0.21277299523353577 0.9187780022621155 0.034460101276636124
0.21277299523353577 0.9187780022621155 0.05278149992227554
0.21455399692058563 0.9271069765090942 0.034460101276636124
0.21455399692058563 0.9271069765090942 0.05278149992227554
0.21508100628852844 0.9679549932479858 0.034460101276636124
0.21508100628852844 0.9679549932479858 0.05278149992227554
3 57 87 89
3 57 83 87
3 57 79 83
3 57 73 79
3 57 67 73
3 57 56 67
3 57 54 56
3 57 48 54
3 57 42 48
3 57 38 42
3 57 34 38
3 57 33 34
3 57 35 33
3 57 39 35
3 57 43 39
3 57 49 43
3 57 55 49
3 57 58 55
3 57 68 58
3 57 74 68
3 57 80 74
3 57 84 80
3 57 88 84
3 57 89 88
3 89 100 108
3 89 87 100
3 87 98 100
3 87 83 98
3 83 94 98
3 83 79 94
3 79 81 94
3 79 73 81
3 73 69 81
3 73 67 69
3 67 59 69
3 67 56 59
3 56 52 59
3 56 54 52
3 54 40 52
3 54 48 40
3 48 27 40
3 48 42 27
3 42 23 27
3 42 38 23
3 38 21 23
3 38 34 21
3 34 14 21
3 34 33 14
3 33 22 14
3 33 35 22
3 35 24 22
3 35 39 24
3 39 28 24
3 39 43 28
3 43 41 28
3 43 49 41
3 49 53 41
3 49 55 53
3 55 60 53
3 55 58 60
3 58 70 60
3 58 68 70
3 68 82 70
3 68 74 82
3 74 95 82
3 74 80 95
3 80 99 95
3 80 84 99
3 84 101 99
3 84 88 101
3 88 108 101
3 88 89 108
3 108 109 111
3 108 100 109
3 100 106 109
3 100 98 106
3 98 96 106
3 98 94 96
3 94 85 96
3 94 81 85
3 81 71 85
3 81 69 71
3 69 61 71
3 69 59 61
3 59 50 61
3 59 52 50
3 52 36 50
3 52 40 36
3 40 25 36
3 40 27 25
3 27 15 25
3 27 23 15
3 23 12 15
3 23 21 12
3 21 11 12
3 21 14 11
3 14 13 11
3 14 22 13
3 22 16 13
3 22 24 16
3 24 26 16
3 24 28 26
3 28 37 26
3 28 41 37
3 41 51 37
3 41 53 51
3 53 62 51
3 53 60 62
3 60 72 62
3 60 70 72
3 70 86 72
3 70 82 86
3 82 97 86
3 82 95 97
3 95 107 97
3 95 99 107
3 99 110 107
3 99 101 110
3 101 111 110
3 101 108 111
3 111 116 120
3 111 109 116
3 109 112 116
3 109 106 112
3 106 102 112
3 106 96 102
3 96 90 102
3 96 85 90
3 85 75 90
3 85 71 75
3 71 63 75
3 71 61 63
3 61 44 63
3 61 50 44
3 50 29 44
3 50 36 29
3 36 17 29
3 36 25 17
3 25 7 17
3 25 15 7
3 15 3 7
3 15 12 3
3 12 0 3
3 12 11 0
3 11 4 0
3 11 13 4
3 13 8 4
3 13 16 8
3 16 18 8
3 16 26 18
3 26 30 18
3 26 37 30
3 37 45 30
3 37 51 45
3 51 64 45
3 51 62 64
3 62 76 64
3 62 72 76
3 72 91 76
3 72 86 91
3 86 103 91
3 86 97 103
3 97 113 103
3 97 107 113
3 107 117 113
3 107 110 117
3 110 120 117
3 110 111 120
3 120 118 121
3 120 116 118
3 116 114 118
3 116 112 114
3 112 104 114
3 112 102 104
3 102 92 104
3 102 90 92
3 90 77 92
3 90 75 77
3 75 65 77
3 75 63 65
3 63 46 65
3 63 44 46
3 44 31 46
3 44 29 31
3 29 19 31
3 29 17 19
3 17 9 19
3 17 7 9
3 7 5 9
3 7 3 5
3 3 1 5
3 3 0 1
3 0 6 1
3 0 4 6
3 4 10 6
3 4 8 10
3 8 20 10
3 8 18 20
3 18 32 20
3 18 30 32
3 30 47 32
3 30 45 47
3 45 66 47
3 45 64 66
3 64 78 66
3 64 76 78
3 76 93 78
3 76 91 93
3 91 105 93
3 91 103 105
3 103 115 105
3 103 113 115
3 113 119 115
3 113 117 119
3 117 121 119
3 117 120 121
3 121 118 2
3 118 114 2
3 114 104 2
3 104 92 2
3 92 77 2
3 77 65 2
3 65 46 2
3 46 31 2
3 31 19 2
3 19 9 2
3 9 5 2
3 5 1 2
3 1 6 2
3 6 10 2
3 10 20 2
3 20 32 2
3 32 47 2
3 47 66 2
3 66 78 2
3 78 93 2
3 93 105 2
3 105 115 2
3 115 119 2
3 119 121 2
3 159 162 160
3 159 164 162
3 159 166 164
3 159 168 166
3 159 170 168
3 159 171 170
3 159 169 171
3 159 167 169
3 159 165 167
3 159 163 165
3 159 161 163
3 159 158 161
3 159 156 158
3 159 154 156
3 159 152 154
3 159 150 152
3 159 148 150
3 159 147 148
3 159 149 147
3 159 151 149
3 159 153 151
3 159 155 153
3 159 157 155
3 159 160 157
3 160 137 135
3 160 162 137
3 162 139 137
3 162 164 139
3 164 141 139
3 164 166 141
3 166 143 141
3 166 168 143
3 168 145 143
3 168 170 145
3 170 146 145
3 170 171 146
3 171 144 146
3 171 169 144
3 169 142 144
3 169 167 142
3 167 140 142
3 167 165 140
3 165 138 140
3 165 163 138
3 163 136 138
3 163 161 136
3 161 133 136
3 161 158 133
3 158 131 133
3 158 156 131
3 156 129 131
3 156 154 129
3 154 127 129
3 154 152 127
3 152 125 127
3 152 150 125
3 150 123 125
3 150 148 123
3 148 122 123
3 148 147 122
3 147 124 122
3 147 149 124
3 149 126 124
3 149 151 126
3 151 128 126
3 151 153 128
3 153 130 128
3 153 155 130
3 155 132 130
3 155 157 132
3 157 135 132
3 157 160 135
3 134 135 137
3 134 137 139
3 134 139 141
3 134 141 143
3 134 143 145
3 134 145 146
3 134 146 144
3 134 144 142
3 134 142 140
3 134 140 138
3 134 138 136
3 134 136 133
3 134 133 131
3 134 131 129
3 134 129 127
3 134 127 125
3 134 125 123
3 134 123 122
3 134 122 124
3 134 124 126
3 134 126 128
3 134 128 130
3 134 130 132
3 134 132 135
3 173 176 177
3 173 177 175
3 176 178 179
3 176 179 177
3 178 180 181
3 178 181 179
3 180 182 183
3 180 183 181
3 182 184 185
3 182 185 183
3 184 188 189
3 184 189 185
3 188 190 191
3 188 191 189
3 190 194 195
3 190 195 191
3 194 198 199
3 194 199 195
3 198 203 202
3 198 202 199
3 203 207 206
3 203 206 202
3 207 211 210
3 207 210 206
3 211 215 213
3 211 213 210
3 215 217 216
3 215 216 213
3 217 219 218
3 217 218 216
3 219 221 220
3 219 220 218
3 221 223 222
3 221 222 220
3 223 226 224
3 223 224 222
3 226 228 225
3 226 225 224
3 228 229 227
3 228 227 225
3 229 214 212
3 229 212 227
3 214 209 208
3 214 208 212
3 209 205 204
3 209 204 208
3 205 201 200
3 205 200 204
3 201 196 197
3 201 197 200
3 196 192 193
3 196 193 197
3 192 186 187
3 192 187 193
3 186 172 174
3 186 174 187
3 172 173 175
3 172 175 174
3 186 173 172
3 228 214 229
3 186 176 173
3 226 214 228
3 226 209 214
3 223 209 226
3 192 176 186
3 192 178 176
3 223 205 209
3 221 205 223
3 221 201 205
3 219 201 221
3 217 201 219
3 217 196 201
3 215 196 217
3 215 192 196
3 215 178 192
3 215 180 178
3 215 182 180
3 215 184 182
3 215 188 184
3 211 188 215
3 207 188 211
3 203 188 207
3 198 188 203
3 198 190 188
3 194 190 198
3 187 174 175
3 225 227 212
3 187 175 177
3 224 225 212
3 224 212 208
3 222 224 208
3 193 187 177
3 193 177 179
3 222 208 204
3 220 222 204
3 220 204 200
3 218 220 200
3 216 218 200
3 216 200 197
3 213 216 197
3 213 197 193
3 213 193 179
3 213 179 181
3 213 181 183
3 213 183 185
3 213 185 189
3 210 213 189
3 206 210 189
3 202 206 189
3 199 202 189
3 199 189 191
3 195 199 191
3 241 242 243
3 242 231 232
3 231 233 232
3 231 230 233
3 242 232 243
3 230 241 244
3 230 244 233
3 241 243 244
3 243 232 235
3 232 233 235
3 233 234 235
3 233 244 245
3 244 243 245
3 243 246 245
3 243 247 246
3 233 245 234
3 235 234 236
3 245 249 234
3 243 237 247
3 243 235 237
3 234 238 236
3 245 246 248
3 246 247 248
3 237 235 236
3 234 249 238
3 245 250 249
3 245 248 250
3 248 247 251
3 247 237 239
3 237 238 239
3 237 236 238
3 248 251 250
3 239 238 240
3 238 249 240
3 247 239 251
3 249 250 268
3 250 251 268
3 249 267 240
3 251 239 253
3 251 253 268
3 239 240 252
3 239 252 253
3 240 267 252
3 267 249 268
3 253 254 268
3 253 255 254
3 253 252 255
3 252 267 255
3 268 254 257
3 254 256 257
3 254 255 256
3 256 258 257
3 255 267 271
3 267 268 271
3 268 272 271
3 268 257 264
3 257 258 263
3 264 257 263
3 256 271 258
3 256 255 271
3 264 263 260
3 263 259 260
3 263 258 259
3 271 272 273
3 268 264 272
3 259 258 261
3 258 271 279
3 271 273 279
3 273 280 279
3 272 264 273
3 264 262 273
3 264 260 262
3 260 261 262
3 260 259 261
3 261 265 262
3 273 262 280
3 258 279 261
3 280 262 266
3 280 266 282
3 262 265 266
3 261 281 269
3 261 279 281
3 279 282 281
3 279 280 282
3 266 269 270
3 266 265 269
3 265 261 269
3 269 281 274
3 281 282 274
3 282 275 274
3 266 270 276
3 270 283 276
3 270 269 283
3 274 275 277
3 275 278 277
3 275 282 278
3 274 290 269
3 274 277 290
3 266 289 282
3 266 276 289
3 277 278 291
3 276 283 288
3 291 278 289
3 278 282 289
3 276 288 289
3 269 290 283
3 277 291 290
3 289 298 299
3 289 288 298
3 283 292 288
3 283 290 292
3 290 293 292
3 290 291 293
3 291 289 293
3 289 299 303
3 299 302 303
3 299 298 302
3 288 292 298
3 292 287 286
3 292 293 287
3 292 284 298
3 292 286 284
3 289 303 293
3 303 302 300
3 293 303 301
3 303 300 301
3 287 293 285
3 293 301 285
3 298 284 302
3 286 285 284
3 286 287 285
3 302 284 294
3 285 295 284
3 284 295 294
3 285 301 304
3 301 305 304
3 301 300 305
3 300 302 294
3 295 285 304
3 300 294 305
3 295 304 297
3 304 308 297
3 304 305 308
3 305 307 308
3 294 297 296
3 294 295 297
3 294 306 305
3 294 296 306
3 296 297 306
3 297 310 306
3 308 307 309
3 305 306 307
3 297 308 310
3 308 309 311
3 309 307 306
3 309 306 313
3 310 308 318
3 309 313 311
3 306 312 313
3 306 310 312
3 308 311 318
3 310 318 312
3 318 311 331
3 311 313 315
3 313 314 315
3 313 312 314
3 311 315 331
3 312 318 314
3 315 316 331
3 315 314 317
3 318 353 314
3 315 317 316
3 353 318 354
3 318 331 354
3 316 319 331
3 316 320 319
3 316 317 320
3 331 319 321
3 354 331 321
3 321 319 325
3 319 326 325
3 319 329 326
3 319 320 329
3 320 328 329
3 320 324 328
3 326 329 330
3 329 328 330
3 324 320 317
3 353 354 355
3 326 330 327
3 330 328 327
3 314 353 357
3 353 355 357
3 355 354 356
3 321 351 354
3 325 322 321
3 325 326 322
3 326 323 322
3 326 327 323
3 327 328 323
3 328 324 323
3 323 346 322
3 323 324 346
3 314 357 317
3 354 351 356
3 317 357 359
3 357 355 359
3 355 356 359
3 351 321 336
3 321 337 336
3 321 338 337
3 321 339 338
3 321 340 339
3 321 322 340
3 322 346 340
3 346 324 347
3 359 356 358
3 356 351 358
3 351 336 341
3 336 342 341
3 336 337 342
3 337 343 342
3 337 338 343
3 338 344 343
3 338 339 344
3 339 345 344
3 339 340 345
3 340 346 345
3 347 352 335
3 347 324 352
3 351 341 332
3 341 342 332
3 342 333 332
3 342 343 333
3 343 344 333
3 344 334 333
3 344 345 334
3 345 346 334
3 346 335 334
3 346 347 335
3 324 317 352
3 317 359 352
3 333 349 332
3 333 334 349
3 334 335 349
3 351 350 358
3 351 332 350
3 352 359 361
3 352 361 335
3 358 360 359
3 332 349 350
3 359 360 361
3 349 335 361
3 358 350 360
3 360 350 348
3 350 349 348
3 241 231 242
3 230 231 241
3 348 349 361
3 360 348 361
