ply
format ascii 1.0
element vertex 485
property float x
property float y
property float z
element face 910
property list uchar int vertex_indices
end_header
0.06137029826641083 0.23137299716472626 0.37125301361083984
0.06062740087509155 0.20430299639701843 0.37004899978637695
0.028978899121284485 0.20446300506591797 0.36614200472831726
0.02942029945552349 0.23153699934482574 0.366443008184433
0.036966800689697266 0.20442399382591248 0.07958179712295532
0.03710649907588959 0.23149800300598145 0.07958219945430756
0.025139300152659416 0.23156100511550903 0.07958649843931198
0.02500000037252903 0.20448699593544006 0.07958649843931198
0.03711400181055069 0.20442399382591248 0.3580009937286377
0.03695239871740341 0.2315019965171814 0.357699990272522
0.06046159937977791 0.23138099908828735 0.35859599709510803
0.02524149976670742 0.23156100511550903 0.3577040135860443
0.025102099403738976 0.20448699593544006 0.3577040135860443
0.06092489883303642 0.20430299639701843 0.35859501361846924
0.037116698920726776 0.2041659951210022 0.37005698680877686
0.03755820170044899 0.2312909960746765 0.37005698680877686
0.18066400289535522 0.24846699833869934 0.18995800614356995
0.18064700067043304 0.24595500528812408 0.17728400230407715
0.18059299886226654 0.23875799775123596 0.1663230061531067
0.18051299452781677 0.227975994348526 0.15922300517559052
0.18042099475860596 0.21527299284934998 0.1567540019750595
0.18032599985599518 0.20260000228881836 0.15926599502563477
0.18024300038814545 0.19173599779605865 0.16627199947834015
0.18018899857997894 0.1844490021467209 0.17706899344921112
0.1801690012216568 0.1819639950990677 0.18988700211048126
0.18018600344657898 0.18448899686336517 0.20256100594997406
0.1802390068769455 0.1916860044002533 0.21330800652503967
0.18031899631023407 0.2025340050458908 0.22071099281311035
0.18041400611400604 0.21520200371742249 0.2232619971036911
0.18050900101661682 0.22790899872779846 0.22064900398254395
0.1805880069732666 0.23870700597763062 0.21335899829864502
0.18064400553703308 0.24592700600624084 0.2026270031929016
0.1804960072040558 0.21505700051784515 0.19060100615024567
0.13431599736213684 0.21541300415992737 0.1902790069580078
0.13464899361133575 0.22370199859142303 0.19005799293518066
0.1346150040626526 0.22291199862957 0.19321200251579285
0.134553000330925 0.22122900187969208 0.1956769973039627
0.1344670057296753 0.21854400634765625 0.19779199361801147
0.13437500596046448 0.21548399329185486 0.19841299951076508
0.13428600132465363 0.21233700215816498 0.19779300689697266
0.13421399891376495 0.20939399302005768 0.19586099684238434
0.13417600095272064 0.20782099664211273 0.19319599866867065
0.13416999578475952 0.2070849984884262 0.18994100391864777
0.1342030018568039 0.2077309936285019 0.18688400089740753
0.13426700234413147 0.2095080018043518 0.18417200446128845
0.13435399532318115 0.21236899495124817 0.1823509931564331
0.13444699347019196 0.21547600626945496 0.18176299333572388
0.1345359981060028 0.218532994389534 0.1822589933872223
0.1346060037612915 0.22129200398921967 0.18413600325584412
0.13464699685573578 0.2231149971485138 0.18690000474452972
0.15056000649929047 0.20764100551605225 0.18686899542808533
0.1505579948425293 0.2069990038871765 0.1899469941854477
0.15056400001049042 0.20771899819374084 0.19318699836730957
0.1505720019340515 0.20932799577713013 0.19585299491882324
0.15056900680065155 0.20942600071430206 0.18416300415992737
0.15064099431037903 0.22284099459648132 0.19320300221443176
0.15064400434494019 0.22360800206661224 0.19004899263381958
0.15063300728797913 0.22114300727844238 0.19569799304008484
0.15063999593257904 0.22301700711250305 0.18689200282096863
0.15062899887561798 0.22119799256324768 0.18413299322128296
0.1506039947271347 0.21537800133228302 0.1983949989080429
0.1506199985742569 0.2184540033340454 0.19776800274848938
0.1505880057811737 0.21223199367523193 0.19777199625968933
0.15058200061321259 0.21226300299167633 0.18235400319099426
0.15059800446033478 0.21537800133228302 0.18175899982452393
0.15061500668525696 0.21844999492168427 0.1822739988565445
0.15009500086307526 0.1846729964017868 0.1772260069847107
0.15008600056171417 0.18210899829864502 0.18965500593185425
0.15010599792003632 0.18494999408721924 0.20263299345970154
0.15014299750328064 0.19151699542999268 0.21335400640964508
0.15041899681091309 0.2458219975233078 0.20269900560379028
0.15042999386787415 0.2488349974155426 0.19001799821853638
0.15041300654411316 0.24643200635910034 0.17733199894428253
0.1503710001707077 0.23914499580860138 0.16626200079917908
0.15027199685573578 0.2157299965620041 0.22353500127792358
0.15033400058746338 0.22814400494098663 0.22100399434566498
0.15020599961280823 0.20308199524879456 0.2210260033607483
0.15031099319458008 0.2281319946050644 0.15883299708366394
0.15012800693511963 0.19185799360275269 0.16635699570178986
0.1503870040178299 0.2389490008354187 0.21282100677490234
0.1502469927072525 0.21573400497436523 0.15671299397945404
0.15018300712108612 0.20319099724292755 0.15911699831485748
0.17499099671840668 0.18448899686336517 0.17709599435329437
0.1749819964170456 0.18198800086975098 0.1898459941148758
0.17500099539756775 0.18456700444221497 0.2025739997625351
0.17504100501537323 0.1916539967060089 0.21331599354743958
0.1753160059452057 0.2459080070257187 0.20263999700546265
0.1753239929676056 0.24853000044822693 0.189969003200531
0.1753080040216446 0.24604099988937378 0.17729200422763824
0.17526599764823914 0.2388239949941635 0.16631099581718445
0.17516599595546722 0.21529600024223328 0.2233089953660965
0.17581799626350403 0.22765100002288818 0.22071200609207153
0.17540399730205536 0.20256100594997406 0.22076499462127686
0.1752070039510727 0.22800299525260925 0.1591549962759018
0.1752839982509613 0.23874999582767487 0.21326400339603424
0.17514200508594513 0.21535499393939972 0.1567469984292984
0.17507800459861755 0.2027059942483902 0.1592400074005127
0.17502400279045105 0.1917559951543808 0.16628700494766235
0.17577199637889862 0.19425299763679504 0.1811629980802536
0.17579500377178192 0.1992110013961792 0.17377200722694397
0.17599500715732574 0.23619799315929413 0.19861100614070892
0.17597199976444244 0.23133400082588196 0.20582599937915802
0.17589299380779266 0.21533100306987762 0.21275100111961365
0.17542099952697754 0.20655299723148346 0.2110159993171692
0.17576700448989868 0.19254299998283386 0.1898459941148758
0.17577999830245972 0.1943269968032837 0.1985670030117035
0.17580799758434296 0.19912099838256836 0.2059050053358078
0.17600099742412567 0.23803000152111053 0.18995200097560883
0.17598900198936462 0.2363310009241104 0.18128900229930878
0.17596100270748138 0.23139600455760956 0.17377600073814392
0.1759359985589981 0.2239529937505722 0.21098299324512482
0.1759209930896759 0.2239840030670166 0.1688610017299652
0.17583300173282623 0.206728994846344 0.1689389944076538
0.17587600648403168 0.21536600589752197 0.16724300384521484
0.15424400568008423 0.1846410036087036 0.17720399796962738
0.1542769968509674 0.1918420046567917 0.16634400188922882
0.15456900000572205 0.24583700299263 0.20268799364566803
0.15453700721263885 0.23891399800777435 0.21289600431919098
0.15442100167274475 0.21565599739551544 0.22349700331687927
0.1543550044298172 0.20300699770450592 0.22098399698734283
0.1542930006980896 0.19153699278831482 0.21334800124168396
0.15448500216007233 0.22811299562454224 0.2209549993276596
0.1543329954147339 0.20311300456523895 0.1591390073299408
0.15439699590206146 0.21567200124263763 0.15671899914741516
0.15423600375652313 0.18208999931812286 0.18968699872493744
0.15425600111484528 0.18489199876785278 0.20262299478054047
0.15457899868488312 0.24878400564193726 0.19001099467277527
0.15456199645996094 0.24637000262737274 0.17732399702072144
0.15452000498771667 0.2390899956226349 0.16627000272274017
0.15446099638938904 0.22810900211334229 0.15888699889183044
0.1546030044555664 0.19438199698925018 0.18121300637722015
0.15459799766540527 0.19264400005340576 0.18978199362754822
0.15460999310016632 0.19452700018882751 0.19859300553798676
0.15482500195503235 0.23623299598693848 0.198636993765831
0.15483300387859344 0.23820200562477112 0.18997299671173096
0.15481999516487122 0.2365349978208542 0.18130700290203094
0.15479199588298798 0.2315720021724701 0.1737619936466217
0.15472400188446045 0.21554599702358246 0.21283599734306335
0.1547670066356659 0.2240860015153885 0.2110919952392578
0.1547520011663437 0.22409400343894958 0.16875199973583221
0.1546259969472885 0.1993129998445511 0.1738010048866272
0.15480400621891022 0.2314710021018982 0.20567099750041962
0.15467900037765503 0.20690099895000458 0.21111400425434113
0.15463699400424957 0.19913700222969055 0.20592400431632996
0.15470799803733826 0.21556200087070465 0.16723500192165375
0.15466399490833282 0.20696799457073212 0.16889899969100952
0.1946669965982437 0.19445200264453888 0.19005100429058075
0.19466400146484375 0.1941549926996231 0.18856699764728546
0.19465099275112152 0.1933099925518036 0.18728099763393402
0.19463400542736053 0.19204600155353546 0.18645000457763672
0.19461099803447723 0.19055500626564026 0.18616199493408203
0.19458800554275513 0.18907099962234497 0.1864590048789978
0.1945669949054718 0.18779900670051575 0.18728099763393402
0.1945520043373108 0.18694600462913513 0.1885479986667633
0.19454699754714966 0.18665699660778046 0.19005100429058075
0.19454999268054962 0.18695400655269623 0.19153699278831482
0.19456200301647186 0.18779900670051575 0.19279499351978302
0.19458100199699402 0.18907099962234497 0.19366100430488586
0.19460199773311615 0.19055500626564026 0.19395799934864044
0.19462600350379944 0.19204600155353546 0.19365200400352478
0.19464600086212158 0.1933099925518036 0.19279399514198303
0.1946610063314438 0.1941549926996231 0.19153699278831482
0.1946370005607605 0.19053499400615692 0.19013099372386932
0.18002299964427948 0.1945970058441162 0.19006399810314178
0.18001699447631836 0.1942259967327118 0.19155099987983704
0.18000400066375732 0.19343499839305878 0.19271300733089447
0.17998400330543518 0.19217100739479065 0.19370999932289124
0.1799599975347519 0.19072699546813965 0.1940069943666458
0.17993800342082977 0.1892469972372055 0.19371600449085236
0.17991900444030762 0.1878580003976822 0.19280500710010529
0.17990699410438538 0.18711499869823456 0.19155199825763702
0.1799039989709854 0.18676599860191345 0.1900169998407364
0.17991000413894653 0.18706800043582916 0.18857699632644653
0.17992399632930756 0.18790499866008759 0.1872989982366562
0.17994500696659088 0.18925100564956665 0.18643899261951447
0.179967999458313 0.19071899354457855 0.18615999817848206
0.1799899935722351 0.1921589970588684 0.18639199435710907
0.18000799417495728 0.19345800578594208 0.1872750073671341
0.1800210028886795 0.1943189948797226 0.18857699632644653
0.10364700108766556 0.14714199304580688 0.21919000148773193
0.10389800369739532 0.15684300661087036 0.21699699759483337
0.0888281986117363 0.15627600252628326 0.21757200360298157
0.08923830091953278 0.14734899997711182 0.21913200616836548
0.08933000266551971 0.17022399604320526 0.300135999917984
0.10406199842691422 0.16965599358081818 0.3004159927368164
0.08930639922618866 0.12588299810886383 0.23656800389289856
0.08927889913320541 0.13015300035476685 0.23026800155639648
0.10340999811887741 0.1301490068435669 0.23024199903011322
0.10340999811887741 0.12580899894237518 0.23664599657058716
0.1035659983754158 0.14175300300121307 0.2121569961309433
0.08930890262126923 0.141185000538826 0.21301600337028503
0.10356199741363525 0.1331000030040741 0.22036199271678925
0.08930420130491257 0.1331000030040741 0.22036099433898926
0.10356400161981583 0.1359959989786148 0.21922899782657623
0.08930599689483643 0.13606999814510345 0.21921999752521515
0.10356499999761581 0.13831299543380737 0.2174849957227707
0.08930770307779312 0.13838699460029602 0.2174759954214096
0.08866509795188904 0.17022399604320526 0.3146589994430542
0.08927830308675766 0.12058000266551971 0.2890940010547638
0.08927889913320541 0.12274099886417389 0.2921859920024872
0.1034260019659996 0.12050600349903107 0.2889469861984253
0.08926880359649658 0.125668004155159 0.28369900584220886
0.10342799872159958 0.12580899894237518 0.283841997385025
0.08933190256357193 0.13137799501419067 0.2897830009460449
0.10343199968338013 0.1311900019645691 0.2894130051136017
0.0892949029803276 0.12047500163316727 0.22951799631118774
0.08929640054702759 0.12193100154399872 0.22658799588680267
0.10418099910020828 0.16993799805641174 0.3149360120296478
0.10340400040149689 0.12040399760007858 0.22970999777317047
0.10340400040149689 0.12198500335216522 0.22652700543403625
0.10342899709939957 0.12352299690246582 0.29237499833106995
0.11484500020742416 0.1687600016593933 0.22091899812221527
0.08104600012302399 0.1687600016593933 0.22135600447654724
0.11819300055503845 0.025704400613904 0.1382959932088852
0.11862999945878983 0.026408899575471878 0.15867599844932556
0.11863400042057037 0.025704400613904 0.14778399467468262
0.11817900091409683 0.02500000037252903 0.16851399838924408
0.11613199859857559 0.026757199317216873 0.12670199573040009
0.11820399761199951 0.02519569918513298 0.17674599587917328
0.11364399641752243 0.02588050067424774 0.11514999717473984
0.11518099904060364 0.025641800835728645 0.18300999701023102
0.08190400153398514 0.025641800835728645 0.1834689974784851
0.0833917036652565 0.02698419988155365 0.11591500043869019
0.08028600364923477 0.026056699454784393 0.12636399269104004
0.079380102455616 0.02608799934387207 0.17586499452590942
0.07821179926395416 0.026408899575471878 0.13866199553012848
0.07887320220470428 0.025641800835728645 0.16870799660682678
0.07768010348081589 0.025352200493216515 0.14744700491428375
0.07767889648675919 0.026228899136185646 0.1596670001745224
0.07837580144405365 0.1703370064496994 0.1872750073671341
0.07838010042905807 0.1697230041027069 0.19807200133800507
0.11821500211954117 0.16918699443340302 0.20645099878311157
0.11922000348567963 0.16974599659442902 0.19754299521446228
0.07887650281190872 0.17002800107002258 0.17779600620269775
0.07798569649457932 0.16924899816513062 0.20628699660301208
0.11291199922561646 0.16918699443340302 0.15412099659442902
0.08333539962768555 0.16960899531841278 0.154558002948761
0.11603099852800369 0.17014500498771667 0.16511300206184387
0.0803845003247261 0.17017699778079987 0.16478699445724487
0.07939460128545761 0.1683180034160614 0.2149219959974289
0.11870799958705902 0.16938599944114685 0.17761200666427612
0.11821799725294113 0.16880300641059875 0.21432499587535858
0.11840999871492386 0.16918699443340302 0.1873060017824173
0.1220489963889122 0.21829000115394592 0.4227829873561859
0.12039600312709808 0.2274239957332611 0.42278799414634705
0.11507099866867065 0.2348790019750595 0.42279499769210815
0.10740300267934799 0.2404170036315918 0.42280200123786926
0.09801150113344193 0.2423270046710968 0.4228059947490692
0.08908490091562271 0.2408439964056015 0.42280998826026917
0.08141709864139557 0.2348790019750595 0.42281100153923035
0.07523979991674423 0.22700099647045135 0.42280399799346924
0.07397580146789551 0.21829000115394592 0.4228000044822693
0.07609199732542038 0.20868200063705444 0.42279499769210815
0.08141709864139557 0.20165300369262695 0.4227850139141083
0.08929789811372757 0.19589999318122864 0.42278000712394714
0.09801170229911804 0.19424499571323395 0.4227760136127472
0.10676400363445282 0.19589999318122864 0.42277398705482483
0.11464399844408035 0.20122699439525604 0.4227760136127472
0.12018299847841263 0.2084670066833496 0.42277801036834717
0.08970990031957626 0.1960649937391281 0.9749919772148132
0.09818749874830246 0.1942490041255951 0.9749879837036133
0.10686600208282471 0.19586500525474548 0.9749879837036133
0.11514099687337875 0.20070600509643555 0.9749839901924133
0.12079299986362457 0.20837700366973877 0.9749799966812134
0.12240800261497498 0.21765999495983124 0.9749799966812134
0.12099500000476837 0.22734999656677246 0.9749799966812134
0.11473699659109116 0.2348169982433319 0.9749839901924133
0.10787499696016312 0.24067099392414093 0.9749839901924133
0.09838840365409851 0.24208399653434753 0.9749919772148132
0.0891043022274971 0.24067099392414093 0.9749919772148132
0.08163660019636154 0.2344139963388443 0.9749959707260132
0.07598479837179184 0.2271459996700287 0.9749959707260132
0.07417859882116318 0.2173510044813156 0.9750000238418579
0.07638899981975555 0.20837700366973877 0.9750000238418579
0.08103130012750626 0.20131300389766693 0.9749959707260132
0.11009600013494492 0.22230499982833862 0.9749839901924133
0.11049599945545197 0.21719400584697723 0.9749839901924133
0.10989399999380112 0.21281899511814117 0.9749839901924133
0.1066650003194809 0.20736700296401978 0.9749879837036133
0.10262800008058548 0.20494499802589417 0.9749879837036133
0.09798560291528702 0.20474499464035034 0.9749919772148132
0.09394759684801102 0.20534799993038177 0.9749919772148132
0.08849920332431793 0.20898300409317017 0.9749959707260132
0.08708620071411133 0.21281899511814117 0.9749919772148132
0.08607669919729233 0.2174600064754486 0.9749959707260132
0.08648069947957993 0.22250500321388245 0.9749959707260132
0.0891043022274971 0.22755299508571625 0.9749919772148132
0.0931416004896164 0.23078200221061707 0.9749919772148132
0.09778349846601486 0.23158800601959229 0.9749879837036133
0.10383900254964828 0.2305780053138733 0.9749879837036133
0.1072700023651123 0.22694699466228485 0.9749839901924133
0.10999800264835358 0.22135800123214722 0.43395400047302246
0.11061800271272659 0.21719400584697723 0.4339219927787781
0.10999800264835358 0.213018000125885 0.4339100122451782
0.1082020029425621 0.2092379927635193 0.43391698598861694
0.10540000349283218 0.20625999569892883 0.4339450001716614
0.10188300162553787 0.20434600114822388 0.4339900016784668
0.0979607030749321 0.2036769986152649 0.43404701352119446
0.09405030310153961 0.20434600114822388 0.434112012386322
0.09052079916000366 0.20625999569892883 0.4341770112514496
0.08772339671850204 0.2092379927635193 0.43423599004745483
0.08592259883880615 0.213018000125885 0.4342840015888214
0.08530449867248535 0.2171899974346161 0.4343149960041046
0.08592259883880615 0.22135399281978607 0.43432798981666565
0.08772359788417816 0.22512699663639069 0.43432000279426575
0.09052100032567978 0.22811700403690338 0.4342919886112213
0.09405089914798737 0.2300270050764084 0.4342480003833771
0.09796100109815598 0.23068800568580627 0.43418899178504944
0.10188300162553787 0.2300270050764084 0.43412598967552185
0.10540000349283218 0.22811700403690338 0.4340609908103943
0.1082020029425621 0.22512699663639069 0.43400099873542786
0.09796089679002762 0.21717800199985504 0.43411800265312195
0.06376689672470093 0.23182299733161926 0.4142020046710968
0.060941800475120544 0.21762099862098694 0.4142960011959076
0.0637672021985054 0.20341800153255463 0.4143890142440796
0.07181160151958466 0.19137999415397644 0.414465993642807
0.08385150134563446 0.18333399295806885 0.4145149886608124
0.09805399924516678 0.18050900101661682 0.4145269989967346
0.11225499957799911 0.18333399295806885 0.4145039916038513
0.12429500371217728 0.19137999415397644 0.41444599628448486
0.13233999907970428 0.20341800153255463 0.4143640100955963
0.1351650059223175 0.21762099862098694 0.41426900029182434
0.13233999907970428 0.23182299733161926 0.41417598724365234
0.12429500371217728 0.24386100471019745 0.4140999913215637
0.11225499957799911 0.25190699100494385 0.41405099630355835
0.09805359691381454 0.25473299622535706 0.41403698921203613
0.08385130017995834 0.25190699100494385 0.4140610098838806
0.07181140035390854 0.24386100471019745 0.4141179919242859
0.05324950069189072 0.23606500029563904 0.397148996591568
0.04955869913101196 0.217507004737854 0.397273987531662
0.05324950069189072 0.19895300269126892 0.3973950147628784
0.0637608990073204 0.1832209974527359 0.3974960148334503
0.07949169725179672 0.1727129966020584 0.3975589871406555
0.09804780036211014 0.1690180003643036 0.3975760042667389
0.11660300195217133 0.1727129966020584 0.3975450098514557
0.13233299553394318 0.1832209974527359 0.39746999740600586
0.1428450047969818 0.19895300269126892 0.39736300706863403
0.1465359926223755 0.217507004737854 0.39723899960517883
0.1428450047969818 0.23606500029563904 0.3971169888973236
0.13233299553394318 0.2517940104007721 0.3970179855823517
0.11660300195217133 0.26230499148368835 0.3969529867172241
0.09804759919643402 0.2659960091114044 0.39693599939346313
0.07949119806289673 0.26230499148368835 0.39696601033210754
0.06376060098409653 0.2517940104007721 0.39704298973083496
0.049550801515579224 0.2374580055475235 0.3770560026168823
0.045555900782346725 0.21737399697303772 0.3771910071372986
0.049550801515579224 0.19729000329971313 0.3773219883441925
0.060928501188755035 0.18026599287986755 0.3774299919605255
0.07795540243387222 0.16888900101184845 0.3774990141391754
0.09804009646177292 0.1648939996957779 0.3775179982185364
0.11812400072813034 0.16888900101184845 0.3774850070476532
0.13515199720859528 0.18026599287986755 0.37740200757980347
0.14652900397777557 0.19729000329971313 0.37728598713874817
0.15052300691604614 0.21737399697303772 0.3771519958972931
0.14652900397777557 0.2374580055475235 0.37702101469039917
0.13515199720859528 0.25448599457740784 0.37691301107406616
0.11812400072813034 0.26586300134658813 0.37684398889541626
0.09804009646177292 0.2698589861392975 0.3768250048160553
0.07795500010251999 0.26586300134658813 0.3768579959869385
0.06092799827456474 0.25448599457740784 0.3769400119781494
0.0494409017264843 0.23747000098228455 0.07736709713935852
0.04544550180435181 0.21738600730895996 0.07750169932842255
0.0494409017264843 0.19730199873447418 0.07763279974460602
0.060817901045084 0.18027399480342865 0.07774200290441513
0.07784520089626312 0.16889700293540955 0.07781130075454712
0.09793020039796829 0.164901003241539 0.07782930135726929
0.11801400035619736 0.16889700293540955 0.07779449969530106
0.1350409984588623 0.18027399480342865 0.07771500200033188
0.1464180052280426 0.19730199873447418 0.07759679853916168
0.15041300654411316 0.21738600730895996 0.07746340334415436
0.1464180052280426 0.23747000098228455 0.07733149826526642
0.1350409984588623 0.2544940114021301 0.07722350209951401
0.11801400035619736 0.26587098836898804 0.077156201004982
0.09792999923229218 0.2698659896850586 0.07713580131530762
0.077844999730587 0.26587098836898804 0.07717029750347137
0.060817901045084 0.2544940114021301 0.077252097427845
0.053124699741601944 0.23580700159072876 0.057292599231004715
0.049433398991823196 0.21725299954414368 0.05741589888930321
0.053124699741601944 0.19869500398635864 0.057537201792001724
0.06363619863986969 0.18296599388122559 0.057637400925159454
0.07936669886112213 0.17245399951934814 0.05770080164074898
0.09792260080575943 0.16876399517059326 0.05771920084953308
0.11647800356149673 0.17245399951934814 0.057687100023031235
0.13220900297164917 0.18296599388122559 0.05761269852519035
0.1427209973335266 0.19869500398635864 0.057504698634147644
0.1464110016822815 0.21725299954414368 0.05737990140914917
0.14271999895572662 0.23580700159072876 0.05726049840450287
0.13220800459384918 0.2515389919281006 0.05715839937329292
0.11647800356149673 0.262050986289978 0.057096101343631744
0.09792269766330719 0.2657420039176941 0.05707769840955734
0.07936669886112213 0.262050986289978 0.05710979923605919
0.0636356994509697 0.2515389919281006 0.05718500167131424
0.06362959742546082 0.23134200274944305 0.04029100015759468
0.060804300010204315 0.21713900566101074 0.04038529843091965
0.06362959742546082 0.20293700695037842 0.04047809913754463
0.07167410105466843 0.19089899957180023 0.040554799139499664
0.08371420204639435 0.18285299837589264 0.040604498237371445
0.09791649878025055 0.18003100156784058 0.04061780124902725
0.11211799830198288 0.18285299837589264 0.04059389978647232
0.12415699660778046 0.19089899957180023 0.04053439944982529
0.13220199942588806 0.20293700695037842 0.040453001856803894
0.13502800464630127 0.21713900566101074 0.04035789892077446
0.13220199942588806 0.23134200274944305 0.04026560112833977
0.12415699660778046 0.2433840036392212 0.04019000008702278
0.11211699992418289 0.25142601132392883 0.040140300989151
0.09791629761457443 0.25425100326538086 0.04012779891490936
0.08371389657258987 0.25142601132392883 0.040150098502635956
0.07167410105466843 0.2433840036392212 0.04020959883928299
0.07935620099306107 0.22475099563598633 0.028950300067663193
0.07782740145921707 0.2170650064945221 0.029002800583839417
0.07935629785060883 0.20937900245189667 0.02905290015041828
0.0837097018957138 0.20286299288272858 0.02909429930150509
0.09022580087184906 0.198511004447937 0.029120199382305145
0.09791229665279388 0.19698099792003632 0.029128000140190125
0.10559800267219543 0.198511004447937 0.029113899916410446
0.11211399734020233 0.20286299288272858 0.029084600508213043
0.11646799743175507 0.20937900245189667 0.029038799926638603
0.11799599975347519 0.2170650064945221 0.028988299891352654
0.11646799743175507 0.22475099563598633 0.02893820032477379
0.11211299896240234 0.23126700520515442 0.028896700590848923
0.10559800267219543 0.23561899363994598 0.028869299218058586
0.09791199862957001 0.23714900016784668 0.02886269986629486
0.09022580087184906 0.23561899363994598 0.02887520007789135
0.08370990306138992 0.23126700520515442 0.028907300904393196
0.09791059792041779 0.21703800559043884 0.02500000037252903
0.09172529727220535 0.1296049952507019 0.2549709975719452
0.09165649861097336 0.1628659963607788 0.23260200023651123
0.09166549891233444 0.15966899693012238 0.23288600146770477
0.0916752964258194 0.15743400156497955 0.23325100541114807
0.09167979657649994 0.15570400655269623 0.23360300064086914
0.0916844978928566 0.15389299392700195 0.23403599858283997
0.09169419854879379 0.15125900506973267 0.2347639948129654
0.09170419722795486 0.1479790061712265 0.2358590066432953
0.09171409904956818 0.14433999359607697 0.23735499382019043
0.09172389656305313 0.1405470073223114 0.2391120046377182
0.09172920137643814 0.13688799738883972 0.24094299972057343
0.09173920005559921 0.13369899988174438 0.24264900386333466
0.09171490371227264 0.13302600383758545 0.2536180019378662
0.09171009808778763 0.13481399416923523 0.25273099541664124
0.09170500189065933 0.1371700018644333 0.2515319883823395
0.09169980138540268 0.13883300125598907 0.2506990134716034
0.09168969839811325 0.141975998878479 0.24929599463939667
0.09168510138988495 0.1450439989566803 0.24836699664592743
0.09167099744081497 0.14881299436092377 0.24762900173664093
0.09166619926691055 0.15087899565696716 0.24737299978733063
0.09165219962596893 0.15386900305747986 0.24714499711990356
0.0916426032781601 0.15675300359725952 0.24709400534629822
0.09163779765367508 0.15874500572681427 0.24722300469875336
0.09162870049476624 0.16069799661636353 0.2474450021982193
0.09161960333585739 0.16299200057983398 0.24778400361537933
0.09173689782619476 0.12988699972629547 0.24892500042915344
0.09169170260429382 0.1669829934835434 0.2337770015001297
0.09169799834489822 0.16706900298595428 0.24563099443912506
0.0916924998164177 0.170181006193161 0.2368050068616867
0.09169449657201767 0.1705169975757599 0.24226799607276917
0.0981149971485138 0.1296910047531128 0.2548840045928955
0.09804490208625793 0.16294799745082855 0.23251500725746155
0.098054900765419 0.15975099802017212 0.23280000686645508
0.09806469827890396 0.15751999616622925 0.2331639975309372
0.0980691984295845 0.15578700602054596 0.23351700603961945
0.09807369858026505 0.1539749950170517 0.23395000398159027
0.09808339923620224 0.1513410061597824 0.2346770018339157
0.09809370338916779 0.14806100726127625 0.2357739955186844
0.09810270369052887 0.14442600309848785 0.23726800084114075
0.09811320155858994 0.14063000679016113 0.23902399837970734
0.09811809659004211 0.13696999847888947 0.24085700511932373
0.09812869876623154 0.13378499448299408 0.24256199598312378
0.09810449928045273 0.1331080049276352 0.25353100895881653
0.09809970110654831 0.13489599525928497 0.25264400243759155
0.09809409826993942 0.13725200295448303 0.2514449954032898
0.09808950126171112 0.13891500234603882 0.2506139874458313
0.09807939827442169 0.1420619934797287 0.24921000003814697
0.09807439893484116 0.14512600004673004 0.24828200042247772
0.09806030243635178 0.14889900386333466 0.24754199385643005
0.09805580228567123 0.15096500515937805 0.24728600680828094
0.09804189950227737 0.15395499765872955 0.24705900251865387
0.09803179651498795 0.15683899819850922 0.24700599908828735
0.098027803003788 0.15883100032806396 0.24713699519634247
0.09801819920539856 0.16077999770641327 0.2473589926958084
0.0980089008808136 0.16307400166988373 0.24769799411296844
0.09812670201063156 0.12997299432754517 0.24883800745010376
0.09808129817247391 0.16706900298595428 0.23369200527668
0.09808749705553055 0.16715200245380402 0.24554499983787537
0.09808219969272614 0.17026300728321075 0.23671799898147583
0.09808409959077835 0.17059899866580963 0.24218200147151947
3 9 8 4
3 5 4 7
3 2 3 11
3 13 10 0
3 9 5 6
3 11 6 7
3 12 7 4
3 13 8 9
3 14 8 13
3 14 2 12
3 15 9 11
3 15 0 10
3 15 14 1
3 15 3 2
3 83 82 23
3 84 83 24
3 85 84 25
3 54 50 43
3 87 86 31
3 57 55 35
3 88 87 16
3 89 88 17
3 91 90 28
3 62 60 38
3 92 85 26
3 61 57 36
3 64 63 45
3 63 54 44
3 65 64 46
3 93 89 18
3 17 16 32
3 18 17 32
3 19 18 32
3 20 19 32
3 21 20 32
3 22 21 32
3 23 22 32
3 24 23 32
3 25 24 32
3 26 25 32
3 27 26 32
3 28 27 32
3 29 28 32
3 30 29 32
3 31 30 32
3 16 31 32
3 35 34 33
3 36 35 33
3 37 36 33
3 38 37 33
3 39 38 33
3 40 39 33
3 41 40 33
3 42 41 33
3 43 42 33
3 44 43 33
3 45 44 33
3 46 45 33
3 47 46 33
3 48 47 33
3 49 48 33
3 34 49 33
3 51 42 43
3 52 41 42
3 53 40 41
3 78 66 50
3 56 34 35
3 79 70 55
3 58 49 34
3 59 48 49
3 61 37 38
3 76 74 60
3 62 39 40
3 94 91 29
3 96 95 20
3 81 78 54
3 95 93 19
3 65 47 48
3 67 51 50
3 68 52 51
3 69 53 52
3 71 56 55
3 72 58 56
3 73 59 58
3 75 61 60
3 76 62 53
3 77 65 59
3 115 114 66
3 117 116 70
3 119 118 74
3 79 57 61
3 81 63 64
3 97 96 21
3 80 64 65
3 104 98 82
3 105 104 83
3 106 105 84
3 107 100 86
3 108 107 87
3 109 108 88
3 110 102 90
3 120 119 76
3 111 109 89
3 121 117 79
3 123 122 81
3 113 111 93
3 97 22 23
3 94 30 31
3 92 27 28
3 122 115 78
3 99 97 82
3 101 94 86
3 103 92 90
3 125 120 69
3 106 85 92
3 110 91 94
3 113 95 96
3 129 123 80
3 112 96 97
3 140 130 114
3 141 133 116
3 142 137 118
3 143 142 119
3 145 140 115
3 124 67 66
3 125 68 67
3 126 71 70
3 127 72 71
3 128 73 72
3 121 75 74
3 129 77 73
3 131 124 114
3 132 125 124
3 134 126 116
3 135 127 126
3 136 128 127
3 138 121 118
3 139 129 128
3 141 117 121
3 145 122 123
3 143 120 125
3 144 123 129
3 131 130 98
3 132 131 104
3 134 133 100
3 135 134 107
3 136 135 108
3 138 137 102
3 139 136 109
3 141 138 110
3 145 144 113
3 143 132 105
3 144 139 111
3 140 99 98
3 141 101 100
3 142 103 102
3 143 106 103
3 145 112 99
3 172 153 154
3 155 170 171
3 156 169 170
3 153 172 173
3 164 161 146
3 165 160 161
3 147 178 163
3 178 147 148
3 167 158 159
3 168 157 158
3 157 168 169
3 166 159 160
3 151 174 175
3 151 152 173
3 175 176 149
3 149 176 177
3 147 146 162
3 148 147 162
3 149 148 162
3 150 149 162
3 151 150 162
3 152 151 162
3 153 152 162
3 154 153 162
3 155 154 162
3 156 155 162
3 157 156 162
3 158 157 162
3 159 158 162
3 160 159 162
3 161 160 162
3 146 161 162
3 180 181 182
3 188 187 186
3 194 193 191
3 196 195 193
3 190 189 195
3 210 199 198
3 188 185 201
3 206 186 182
3 179 187 209
3 203 204 202
3 200 198 205
3 208 205 206
3 204 210 200
3 188 202 200
3 195 189 180
3 195 179 193
3 179 191 193
3 192 191 209
3 187 179 182
3 197 199 210
3 183 184 204
3 184 207 210
3 199 197 183
3 205 185 186
3 187 188 208
3 194 192 182
3 194 182 196
3 182 181 190
3 199 203 201
3 201 185 205
3 229 227 228
3 233 225 227
3 219 235 237
3 238 223 225
3 223 238 236
3 237 240 213
3 215 242 232
3 213 240 242
3 236 235 219
3 218 220 221
3 226 216 218
3 214 216 226
3 215 214 228
3 213 215 227
3 213 225 223
3 223 222 219
3 211 212 221
3 239 234 226
3 230 228 226
3 221 212 239
3 241 211 220
3 216 231 241
3 216 214 232
3 243 244 265
3 245 266 265
3 246 267 266
3 247 268 267
3 248 269 268
3 249 270 269
3 249 271 270
3 250 271 249
3 251 272 271
3 252 273 272
3 253 274 273
3 254 259 274
3 255 260 259
3 256 261 260
3 257 262 261
3 258 263 262
3 264 263 258
3 265 275 276
3 264 276 277
3 263 277 278
3 262 278 279
3 261 279 280
3 260 280 281
3 259 281 282
3 274 282 283
3 273 283 284
3 272 284 285
3 271 285 286
3 270 286 287
3 269 287 288
3 268 288 289
3 267 289 290
3 266 290 275
3 292 311 293
3 275 291 292
3 276 292 293
3 277 293 294
3 278 294 295
3 278 295 296
3 279 296 297
3 280 297 298
3 281 298 299
3 282 299 300
3 282 300 301
3 283 301 302
3 284 302 303
3 285 303 304
3 285 304 305
3 286 305 306
3 287 306 307
3 288 307 308
3 289 308 309
3 290 309 310
3 290 310 291
3 293 311 294
3 294 311 295
3 295 311 296
3 296 311 297
3 297 311 298
3 298 311 299
3 299 311 300
3 300 311 301
3 301 311 302
3 302 311 303
3 303 311 304
3 304 311 305
3 305 311 306
3 306 311 307
3 307 311 308
3 308 311 309
3 309 311 310
3 310 311 291
3 291 311 292
3 251 250 312
3 252 251 313
3 253 252 314
3 254 253 315
3 255 254 316
3 256 255 317
3 257 256 318
3 258 257 319
3 243 258 320
3 244 243 321
3 245 244 322
3 246 245 323
3 247 246 324
3 248 247 325
3 249 248 326
3 250 249 327
3 313 312 328
3 314 313 329
3 315 314 330
3 316 315 331
3 317 316 332
3 318 317 333
3 319 318 334
3 320 319 335
3 321 320 336
3 322 321 337
3 323 322 338
3 324 323 339
3 325 324 340
3 326 325 341
3 327 326 342
3 312 327 343
3 329 328 344
3 330 329 345
3 331 330 346
3 332 331 347
3 333 332 348
3 334 333 349
3 335 334 350
3 336 335 351
3 337 336 352
3 338 337 353
3 339 338 354
3 340 339 355
3 341 340 356
3 342 341 357
3 343 342 358
3 328 343 359
3 361 360 376
3 362 361 377
3 363 362 378
3 364 363 379
3 365 364 380
3 366 365 381
3 367 366 382
3 368 367 383
3 369 368 384
3 370 369 385
3 371 370 386
3 372 371 387
3 373 372 388
3 374 373 389
3 375 374 390
3 360 375 391
3 377 376 392
3 378 377 393
3 379 378 394
3 380 379 395
3 381 380 396
3 382 381 397
3 383 382 398
3 384 383 399
3 385 384 400
3 386 385 401
3 387 386 402
3 388 387 403
3 389 388 404
3 390 389 405
3 391 390 406
3 376 391 407
3 393 392 408
3 394 393 409
3 395 394 410
3 396 395 411
3 397 396 412
3 398 397 413
3 399 398 414
3 400 399 415
3 401 400 416
3 402 401 417
3 403 402 418
3 404 403 419
3 405 404 420
3 406 405 421
3 407 406 422
3 392 407 423
3 409 408 424
3 410 409 424
3 411 410 424
3 412 411 424
3 413 412 424
3 414 413 424
3 415 414 424
3 416 415 424
3 417 416 424
3 418 417 424
3 419 418 424
3 420 419 424
3 421 420 424
3 422 421 424
3 423 422 424
3 408 423 424
3 344 360 361
3 362 346 345
3 363 347 346
3 360 344 359
3 352 368 369
3 351 367 368
3 370 354 353
3 354 370 371
3 349 365 366
3 348 364 365
3 364 348 347
3 350 366 367
3 374 358 357
3 374 375 359
3 357 356 372
3 372 356 355
3 447 448 427
3 436 450 425
3 441 442 433
3 442 443 432
3 432 443 444
3 444 445 430
3 445 446 429
3 446 447 428
3 441 434 435
3 435 439 440
3 435 436 438
3 436 437 438
3 426 427 448
3 453 451 452
3 451 426 449
3 458 457 478
3 467 455 480
3 464 463 472
3 463 462 473
3 461 474 473
3 461 460 475
3 460 459 476
3 459 458 477
3 470 465 464
3 470 469 465
3 469 468 466
3 468 467 466
3 479 478 457
3 484 482 481
3 482 479 456
3 457 458 428
3 477 478 448
3 455 467 437
3 480 455 425
3 466 480 450
3 463 464 434
3 471 472 442
3 462 463 433
3 472 473 443
3 473 474 444
3 461 462 432
3 460 461 431
3 474 475 445
3 459 460 430
3 475 476 446
3 458 459 429
3 476 477 447
3 464 465 435
3 470 471 441
3 469 470 440
3 468 469 439
3 465 466 436
3 467 468 438
3 478 479 449
3 456 457 427
3 482 484 454
3 483 481 451
3 484 483 453
3 479 482 452
3 481 456 426
3 9 4 5
3 5 7 6
3 2 11 12
3 13 0 1
3 9 6 11
3 11 7 12
3 12 4 8
3 13 9 10
3 14 13 1
3 14 12 8
3 15 11 3
3 15 10 9
3 15 1 0
3 15 2 14
3 83 23 24
3 84 24 25
3 85 25 26
3 54 43 44
3 87 31 16
3 57 35 36
3 88 16 17
3 89 17 18
3 91 28 29
3 62 38 39
3 92 26 27
3 61 36 37
3 64 45 46
3 63 44 45
3 65 46 47
3 93 18 19
3 51 43 50
3 52 42 51
3 53 41 52
3 78 50 54
3 56 35 55
3 79 55 57
3 58 34 56
3 59 49 58
3 61 38 60
3 76 60 62
3 62 40 53
3 94 29 30
3 96 20 21
3 81 54 63
3 95 19 20
3 65 48 59
3 67 50 66
3 68 51 67
3 69 52 68
3 71 55 70
3 72 56 71
3 73 58 72
3 75 60 74
3 76 53 69
3 77 59 73
3 115 66 78
3 117 70 79
3 119 74 76
3 79 61 75
3 81 64 80
3 97 21 22
3 80 65 77
3 104 82 83
3 105 83 84
3 106 84 85
3 107 86 87
3 108 87 88
3 109 88 89
3 110 90 91
3 120 76 69
3 111 89 93
3 121 79 75
3 123 81 80
3 113 93 95
3 97 23 82
3 94 31 86
3 92 28 90
3 122 78 81
3 99 82 98
3 101 86 100
3 103 90 102
3 125 69 68
3 106 92 103
3 110 94 101
3 113 96 112
3 129 80 77
3 112 97 99
3 140 114 115
3 141 116 117
3 142 118 119
3 143 119 120
3 145 115 122
3 124 66 114
3 125 67 124
3 126 70 116
3 127 71 126
3 128 72 127
3 121 74 118
3 129 73 128
3 131 114 130
3 132 124 131
3 134 116 133
3 135 126 134
3 136 127 135
3 138 118 137
3 139 128 136
3 141 121 138
3 145 123 144
3 143 125 132
3 144 129 139
3 131 98 104
3 132 104 105
3 134 100 107
3 135 107 108
3 136 108 109
3 138 102 110
3 139 109 111
3 141 110 101
3 145 113 112
3 143 105 106
3 144 111 113
3 140 98 130
3 141 100 133
3 142 102 137
3 143 103 142
3 145 99 140
3 172 154 171
3 155 171 154
3 156 170 155
3 153 173 152
3 164 146 163
3 165 161 164
3 147 163 146
3 178 148 177
3 167 159 166
3 168 158 167
3 157 169 156
3 166 160 165
3 151 175 150
3 151 173 174
3 175 149 150
3 149 177 148
3 180 182 179
3 188 186 185
3 194 191 192
3 196 193 194
3 190 195 196
3 210 198 200
3 188 201 202
3 206 182 192
3 179 209 191
3 203 202 201
3 200 205 208
3 208 206 209
3 204 200 202
3 188 200 208
3 195 180 179
3 192 209 206
3 187 182 186
3 197 210 207
3 183 204 203
3 184 210 204
3 199 183 203
3 205 186 206
3 187 208 209
3 182 190 196
3 199 201 198
3 201 205 198
3 229 228 230
3 233 227 229
3 219 237 217
3 238 225 233
3 223 236 222
3 237 213 217
3 215 232 214
3 213 242 215
3 236 219 222
3 218 221 224
3 226 218 224
3 214 226 228
3 215 228 227
3 213 227 225
3 213 223 217
3 223 219 217
3 211 221 220
3 239 226 224
3 230 226 234
3 221 239 224
3 241 220 218
3 216 241 218
3 216 232 231
3 243 265 264
3 245 265 244
3 246 266 245
3 247 267 246
3 248 268 247
3 249 269 248
3 251 271 250
3 252 272 251
3 253 273 252
3 254 274 253
3 255 259 254
3 256 260 255
3 257 261 256
3 258 262 257
3 264 258 243
3 265 276 264
3 264 277 263
3 263 278 262
3 262 279 261
3 261 280 260
3 260 281 259
3 259 282 274
3 274 283 273
3 273 284 272
3 272 285 271
3 271 286 270
3 270 287 269
3 269 288 268
3 268 289 267
3 267 290 266
3 266 275 265
3 275 292 276
3 276 293 277
3 277 294 278
3 278 296 279
3 279 297 280
3 280 298 281
3 281 299 282
3 282 301 283
3 283 302 284
3 284 303 285
3 285 305 286
3 286 306 287
3 287 307 288
3 288 308 289
3 289 309 290
3 290 291 275
3 251 312 313
3 252 313 314
3 253 314 315
3 254 315 316
3 255 316 317
3 256 317 318
3 257 318 319
3 258 319 320
3 243 320 321
3 244 321 322
3 245 322 323
3 246 323 324
3 247 324 325
3 248 325 326
3 249 326 327
3 250 327 312
3 313 328 329
3 314 329 330
3 315 330 331
3 316 331 332
3 317 332 333
3 318 333 334
3 319 334 335
3 320 335 336
3 321 336 337
3 322 337 338
3 323 338 339
3 324 339 340
3 325 340 341
3 326 341 342
3 327 342 343
3 312 343 328
3 329 344 345
3 330 345 346
3 331 346 347
3 332 347 348
3 333 348 349
3 334 349 350
3 335 350 351
3 336 351 352
3 337 352 353
3 338 353 354
3 339 354 355
3 340 355 356
3 341 356 357
3 342 357 358
3 343 358 359
3 328 359 344
3 361 376 377
3 362 377 378
3 363 378 379
3 364 379 380
3 365 380 381
3 366 381 382
3 367 382 383
3 368 383 384
3 369 384 385
3 370 385 386
3 371 386 387
3 372 387 388
3 373 388 389
3 374 389 390
3 375 390 391
3 360 391 376
3 377 392 393
3 378 393 394
3 379 394 395
3 380 395 396
3 381 396 397
3 382 397 398
3 383 398 399
3 384 399 400
3 385 400 401
3 386 401 402
3 387 402 403
3 388 403 404
3 389 404 405
3 390 405 406
3 391 406 407
3 376 407 392
3 393 408 409
3 394 409 410
3 395 410 411
3 396 411 412
3 397 412 413
3 398 413 414
3 399 414 415
3 400 415 416
3 401 416 417
3 402 417 418
3 403 418 419
3 404 419 420
3 405 420 421
3 406 421 422
3 407 422 423
3 392 423 408
3 344 361 345
3 362 345 361
3 363 346 362
3 360 359 375
3 352 369 353
3 351 368 352
3 370 353 369
3 354 371 355
3 349 366 350
3 348 365 349
3 364 347 363
3 350 367 351
3 374 357 373
3 374 359 358
3 357 372 373
3 372 355 371
3 447 427 428
3 436 425 437
3 441 433 434
3 442 432 433
3 432 444 431
3 444 430 431
3 445 429 430
3 446 428 429
3 441 435 440
3 435 438 439
3 426 448 449
3 453 452 454
3 451 449 452
3 458 478 477
3 467 480 466
3 464 472 471
3 463 473 472
3 461 473 462
3 461 475 474
3 460 476 475
3 459 477 476
3 470 464 471
3 469 466 465
3 479 457 456
3 484 481 483
3 482 456 481
3 457 428 427
3 477 448 447
3 455 437 425
3 480 425 450
3 466 450 436
3 463 434 433
3 471 442 441
3 462 433 432
3 472 443 442
3 473 444 443
3 461 432 431
3 460 431 430
3 474 445 444
3 459 430 429
3 475 446 445
3 458 429 428
3 476 447 446
3 464 435 434
3 470 441 440
3 469 440 439
3 468 439 438
3 465 436 435
3 467 438 437
3 478 449 448
3 456 427 426
3 482 454 452
3 483 451 453
3 484 453 454
3 479 452 449
3 481 426 451
