ply
format ascii 1.0
element vertex 574
property float x
property float y
property float z
element face 1132
property list uchar int vertex_indices
end_header
0.02500000037252903 0.02500000037252903 0.02500000037252903
0.36104100942611694 0.02500000037252903 0.02500000037252903
0.36104100942611694 0.04180210083723068 0.02500000037252903
0.02500000037252903 0.04180210083723068 0.02500000037252903
0.02500000037252903 0.02500000037252903 0.36104100942611694
0.36104100942611694 0.02500000037252903 0.36104100942611694
0.36104100942611694 0.04180210083723068 0.36104100942611694
0.02500000037252903 0.04180210083723068 0.36104100942611694
0.226624995470047 0.3694419860839844 0.1930209994316101
0.22020700573921204 0.3694419860839844 0.21277299523353577
0.226624995470047 0.0334010012447834 0.1930209994316101
0.22020700573921204 0.0334010012447834 0.21277299523353577
0.1930209994316101 0.0334010012447834 0.1930209994316101
0.1930209994316101 0.3694419860839844 0.1930209994316101
0.2034049928188324 0.3694419860839844 0.22497999668121338
0.2034049928188324 0.0334010012447834 0.22497999668121338
0.18263599276542664 0.3694419860839844 0.22497999668121338
0.18263599276542664 0.0334010012447834 0.22497999668121338
0.1658339947462082 0.3694419860839844 0.21277299523353577
0.1658339947462082 0.0334010012447834 0.21277299523353577
0.15941600501537323 0.3694419860839844 0.1930209994316101
0.15941600501537323 0.0334010012447834 0.1930209994316101
0.1658339947462082 0.3694419860839844 0.17326900362968445
0.1658339947462082 0.0334010012447834 0.17326900362968445
0.18263599276542664 0.3694419860839844 0.16106100380420685
0.18263599276542664 0.0334010012447834 0.16106100380420685
0.2034049928188324 0.3694419860839844 0.16106100380420685
0.2034049928188324 0.0334010012447834 0.16106100380420685
0.22020700573921204 0.3694419860839844 0.17326900362968445
0.22020700573921204 0.0334010012447834 0.17326900362968445
0.1930209994316101 0.40304601192474365 0.1930209994316101
0.1930209994316101 0.40140199661254883 0.2034049928188324
0.1869170069694519 0.40140199661254883 0.20142200589179993
0.18314500153064728 0.40140199661254883 0.1962299942970276
0.18314500153064728 0.40140199661254883 0.18981200456619263
0.1869170069694519 0.40140199661254883 0.1846199929714203
0.1930209994316101 0.40140199661254883 0.18263599276542664
0.19912399351596832 0.40140199661254883 0.1846199929714203
0.20289699733257294 0.40140199661254883 0.18981200456619263
0.20289699733257294 0.40140199661254883 0.1962299942970276
0.19912399351596832 0.40140199661254883 0.20142200589179993
0.1930209994316101 0.3966290056705475 0.21277299523353577
0.1814109981060028 0.3966290056705475 0.20900000631809235
0.174235001206398 0.3966290056705475 0.19912399351596832
0.174235001206398 0.3966290056705475 0.1869170069694519
0.1814109981060028 0.3966290056705475 0.17704099416732788
0.1930209994316101 0.3966290056705475 0.17326900362968445
0.2046310007572174 0.3966290056705475 0.17704099416732788
0.21180599927902222 0.3966290056705475 0.1869170069694519
0.21180599927902222 0.3966290056705475 0.19912399351596832
0.2046310007572174 0.3966290056705475 0.20900000631809235
0.1930209994316101 0.3891940116882324 0.22020700573921204
0.17704099416732788 0.3891940116882324 0.2150149941444397
0.16716499626636505 0.3891940116882324 0.20142200589179993
0.16716499626636505 0.3891940116882324 0.1846199929714203
0.17704099416732788 0.3891940116882324 0.17102600634098053
0.1930209994316101 0.3891940116882324 0.1658339947462082
0.20900000631809235 0.3891940116882324 0.17102600634098053
0.21887600421905518 0.3891940116882324 0.1846199929714203
0.21887600421905518 0.3891940116882324 0.20142200589179993
0.20900000631809235 0.3891940116882324 0.2150149941444397
0.1930209994316101 0.37982600927352905 0.22497999668121338
0.174235001206398 0.37982600927352905 0.21887600421905518
0.1626249998807907 0.37982600927352905 0.20289699733257294
0.1626249998807907 0.37982600927352905 0.18314500153064728
0.174235001206398 0.37982600927352905 0.16716499626636505
0.1930209994316101 0.37982600927352905 0.16106100380420685
0.21180599927902222 0.37982600927352905 0.16716499626636505
0.22341600060462952 0.37982600927352905 0.18314500153064728
0.22341600060462952 0.37982600927352905 0.20289699733257294
0.21180599927902222 0.37982600927352905 0.21887600421905518
0.1930209994316101 0.3694419860839844 0.226624995470047
0.17326900362968445 0.3694419860839844 0.22020700573921204
0.16106100380420685 0.3694419860839844 0.2034049928188324
0.16106100380420685 0.3694419860839844 0.18263599276542664
0.17326900362968445 0.3694419860839844 0.1658339947462082
0.1930209994316101 0.3694419860839844 0.15941600501537323
0.21277299523353577 0.3694419860839844 0.1658339947462082
0.22497999668121338 0.3694419860839844 0.18263599276542664
0.22497999668121338 0.3694419860839844 0.2034049928188324
0.21277299523353577 0.3694419860839844 0.22020700573921204
0.1930209994316101 0.3590579926967621 0.22497999668121338
0.174235001206398 0.3590579926967621 0.21887600421905518
0.1626249998807907 0.3590579926967621 0.20289699733257294
0.1626249998807907 0.3590579926967621 0.18314500153064728
0.174235001206398 0.3590579926967621 0.16716499626636505
0.1930209994316101 0.3590579926967621 0.16106100380420685
0.21180599927902222 0.3590579926967621 0.16716499626636505
0.22341600060462952 0.3590579926967621 0.18314500153064728
0.22341600060462952 0.3590579926967621 0.20289699733257294
0.21180599927902222 0.3590579926967621 0.21887600421905518
0.1930209994316101 0.3496899902820587 0.22020700573921204
0.17704099416732788 0.3496899902820587 0.2150149941444397
0.16716499626636505 0.3496899902820587 0.20142200589179993
0.16716499626636505 0.3496899902820587 0.1846199929714203
0.17704099416732788 0.3496899902820587 0.17102600634098053
0.1930209994316101 0.3496899902820587 0.1658339947462082
0.20900000631809235 0.3496899902820587 0.17102600634098053
0.21887600421905518 0.3496899902820587 0.1846199929714203
0.21887600421905518 0.3496899902820587 0.20142200589179993
0.20900000631809235 0.3496899902820587 0.2150149941444397
0.1930209994316101 0.34225600957870483 0.21277299523353577
0.1814109981060028 0.34225600957870483 0.20900000631809235
0.174235001206398 0.34225600957870483 0.19912399351596832
0.174235001206398 0.34225600957870483 0.1869170069694519
0.1814109981060028 0.34225600957870483 0.17704099416732788
0.1930209994316101 0.34225600957870483 0.17326900362968445
0.2046310007572174 0.34225600957870483 0.17704099416732788
0.21180599927902222 0.34225600957870483 0.1869170069694519
0.21180599927902222 0.34225600957870483 0.19912399351596832
0.2046310007572174 0.34225600957870483 0.20900000631809235
0.1930209994316101 0.3374829888343811 0.2034049928188324
0.1869170069694519 0.3374829888343811 0.20142200589179993
0.18314500153064728 0.3374829888343811 0.1962299942970276
0.18314500153064728 0.3374829888343811 0.18981200456619263
0.1869170069694519 0.3374829888343811 0.1846199929714203
0.1930209994316101 0.3374829888343811 0.18263599276542664
0.19912399351596832 0.3374829888343811 0.1846199929714203
0.20289699733257294 0.3374829888343811 0.18981200456619263
0.20289699733257294 0.3374829888343811 0.1962299942970276
0.19912399351596832 0.3374829888343811 0.20142200589179993
0.1930209994316101 0.3358379900455475 0.1930209994316101
0.2031019926071167 0.6643459796905518 0.3541269898414612
0.2011760026216507 0.6615049839019775 0.3593280017375946
0.2031019926071167 0.3694419860839844 0.1930209994316101
0.2011760026216507 0.36660099029541016 0.19822099804878235
0.1930209994316101 0.6643459796905518 0.3541269898414612
0.1961359977722168 0.6597499847412109 0.36254099011421204
0.1961359977722168 0.36484599113464355 0.20143499970436096
0.18990500271320343 0.6597499847412109 0.36254099011421204
0.18990500271320343 0.36484599113464355 0.20143499970436096
0.18486499786376953 0.6615049839019775 0.3593280017375946
0.18486499786376953 0.36660099029541016 0.19822099804878235
0.18293899297714233 0.6643459796905518 0.3541269898414612
0.18293899297714233 0.3694419860839844 0.1930209994316101
0.18486499786376953 0.667186975479126 0.34892699122428894
0.18486499786376953 0.372283011674881 0.18782000243663788
0.18990500271320343 0.6689429879188538 0.3457129895687103
0.18990500271320343 0.3740389943122864 0.18460600078105927
0.1961359977722168 0.6689429879188538 0.3457129895687103
0.1961359977722168 0.3740389943122864 0.18460600078105927
0.2011760026216507 0.667186975479126 0.34892699122428894
0.2011760026216507 0.372283011674881 0.18782000243663788
0.1930209994316101 0.6790909767150879 0.36218300461769104
0.1930209994316101 0.6758800148963928 0.36634498834609985
0.189969003200531 0.6763560175895691 0.36547499895095825
0.1880829930305481 0.6776000261306763 0.3631959855556488
0.1880829930305481 0.6791390180587769 0.36037999391555786
0.189969003200531 0.6803839802742004 0.3581019937992096
0.1930209994316101 0.6808590292930603 0.357232004404068
0.19607199728488922 0.6803839802742004 0.3581019937992096
0.19795900583267212 0.6791390180587769 0.36037999391555786
0.19795900583267212 0.6776000261306763 0.3631959855556488
0.19607199728488922 0.6763560175895691 0.36547499895095825
0.1930209994316101 0.6715400218963623 0.36931100487709045
0.18721599876880646 0.6724449992179871 0.36765599250793457
0.18362799286842346 0.6748120188713074 0.363321989774704
0.18362799286842346 0.6777380108833313 0.35796600580215454
0.18721599876880646 0.680105984210968 0.35363200306892395
0.1930209994316101 0.6810100078582764 0.35197699069976807
0.19882600009441376 0.680105984210968 0.35363200306892395
0.20241299271583557 0.6777380108833313 0.35796600580215454
0.20241299271583557 0.6748120188713074 0.363321989774704
0.19882600009441376 0.6724449992179871 0.36765599250793457
0.1930209994316101 0.6664959788322449 0.3707909882068634
0.185030996799469 0.6677410006523132 0.36851298809051514
0.18009300529956818 0.6709989905357361 0.36254799365997314
0.18009300529956818 0.6750270128250122 0.35517600178718567
0.185030996799469 0.6782850027084351 0.3492110073566437
0.1930209994316101 0.6795300245285034 0.3469330072402954
0.20101000368595123 0.6782850027084351 0.3492110073566437
0.20594799518585205 0.6750270128250122 0.35517600178718567
0.20594799518585205 0.6709989905357361 0.36254799365997314
0.20101000368595123 0.6677410006523132 0.36851298809051514
0.1930209994316101 0.6612420082092285 0.37064000964164734
0.18362799286842346 0.6627050042152405 0.3679620027542114
0.177823007106781 0.6665350198745728 0.3609499931335449
0.177823007106781 0.6712700128555298 0.3522830009460449
0.18362799286842346 0.6751009821891785 0.3452709913253784
0.1930209994316101 0.6765639781951904 0.3425930142402649
0.20241299271583557 0.6751009821891785 0.3452709913253784
0.20821799337863922 0.6712700128555298 0.3522830009460449
0.20821799337863922 0.6665350198745728 0.3609499931335449
0.20241299271583557 0.6627050042152405 0.3679620027542114
0.1930209994316101 0.6562910079956055 0.3688730001449585
0.18314500153064728 0.6578289866447449 0.36605599522590637
0.17704099416732788 0.661857008934021 0.3586840033531189
0.17704099416732788 0.6668350100517273 0.34957098960876465
0.18314500153064728 0.6708629727363586 0.3421980142593384
0.1930209994316101 0.6724010109901428 0.33938199281692505
0.20289699733257294 0.6708629727363586 0.3421980142593384
0.20900000631809235 0.6668350100517273 0.34957098960876465
0.20900000631809235 0.661857008934021 0.3586840033531189
0.20289699733257294 0.6578289866447449 0.36605599522590637
0.1930209994316101 0.6521289944648743 0.36566200852394104
0.18362799286842346 0.6535919904708862 0.36298298835754395
0.177823007106781 0.6574220061302185 0.3559719920158386
0.177823007106781 0.6621569991111755 0.3473049998283386
0.18362799286842346 0.665988028049469 0.3402929902076721
0.1930209994316101 0.667451024055481 0.3376150131225586
0.20241299271583557 0.665988028049469 0.3402929902076721
0.20821799337863922 0.6621569991111755 0.3473049998283386
0.20821799337863922 0.6574220061302185 0.3559719920158386
0.20241299271583557 0.6535919904708862 0.36298298835754395
0.1930209994316101 0.6491619944572449 0.36132198572158813
0.185030996799469 0.6504070162773132 0.3590430021286011
0.18009300529956818 0.6536650061607361 0.3530789911746979
0.18009300529956818 0.6576930284500122 0.3457059860229492
0.185030996799469 0.6609510183334351 0.3397420048713684
0.1930209994316101 0.6621959805488586 0.33746299147605896
0.20101000368595123 0.6609510183334351 0.3397420048713684
0.20594799518585205 0.6576930284500122 0.3457059860229492
0.20594799518585205 0.6536650061607361 0.3530789911746979
0.20101000368595123 0.6504070162773132 0.3590430021286011
0.1930209994316101 0.6476820111274719 0.3562769889831543
0.18721599876880646 0.6485869884490967 0.3546220064163208
0.18362799286842346 0.650954008102417 0.350288987159729
0.18362799286842346 0.6538800001144409 0.3449319899082184
0.18721599876880646 0.6562479734420776 0.340599000453949
0.1930209994316101 0.657151997089386 0.3389430046081543
0.19882600009441376 0.6562479734420776 0.340599000453949
0.20241299271583557 0.6538800001144409 0.3449319899082184
0.20241299271583557 0.650954008102417 0.350288987159729
0.19882600009441376 0.6485869884490967 0.3546220064163208
0.1930209994316101 0.647832989692688 0.35102298855781555
0.189969003200531 0.6483089923858643 0.35015299916267395
0.1880829930305481 0.6495530009269714 0.3478739857673645
0.1880829930305481 0.651091992855072 0.34505799412727356
0.189969003200531 0.6523360013961792 0.3427799940109253
0.1930209994316101 0.6528120040893555 0.3419100046157837
0.19607199728488922 0.6523360013961792 0.3427799940109253
0.19795900583267212 0.651091992855072 0.34505799412727356
0.19795900583267212 0.6495530009269714 0.3478739857673645
0.19607199728488922 0.6483089923858643 0.35015299916267395
0.1930209994316101 0.6496009826660156 0.3460719883441925
0.19638100266456604 0.8459100127220154 0.636896014213562
0.1957390010356903 0.8442479968070984 0.6379629969596863
0.19638100266456604 0.6643459796905518 0.3541269898414612
0.1957390010356903 0.6626840233802795 0.35519498586654663
0.1930209994316101 0.8459100127220154 0.636896014213562
0.19405899941921234 0.8432210087776184 0.6386229991912842
0.19405899941921234 0.6616569757461548 0.35585400462150574
0.19198200106620789 0.8432210087776184 0.6386229991912842
0.19198200106620789 0.6616569757461548 0.35585400462150574
0.19030199944972992 0.8442479968070984 0.6379629969596863
0.19030199944972992 0.6626840233802795 0.35519498586654663
0.1896599978208542 0.8459100127220154 0.636896014213562
0.1896599978208542 0.6643459796905518 0.3541269898414612
0.19030199944972992 0.8475720286369324 0.635828971862793
0.19030199944972992 0.6660079956054688 0.3530600070953369
0.19198200106620789 0.8485990166664124 0.6351699829101562
0.19198200106620789 0.6670349836349487 0.3524009883403778
0.19405899941921234 0.8485990166664124 0.6351699829101562
0.19405899941921234 0.6670349836349487 0.3524009883403778
0.1957390010356903 0.8475720286369324 0.635828971862793
0.1957390010356903 0.6660079956054688 0.3530600070953369
0.1930209994316101 0.8477259874343872 0.6397240161895752
0.1930209994316101 0.846763014793396 0.6401469707489014
0.19241000711917877 0.8469300270080566 0.6400399804115295
0.19203299283981323 0.847366988658905 0.6397590041160583
0.19203299283981323 0.8479070067405701 0.639411985874176
0.19241000711917877 0.8483440279960632 0.639132022857666
0.1930209994316101 0.8485109806060791 0.639024019241333
0.19363099336624146 0.8483440279960632 0.639132022857666
0.1940079927444458 0.8479070067405701 0.639411985874176
0.1940079927444458 0.847366988658905 0.6397590041160583
0.19363099336624146 0.8469300270080566 0.6400399804115295
0.1930209994316101 0.8457170128822327 0.6402509808540344
0.19186000525951385 0.8460339903831482 0.640047013759613
0.1911419928073883 0.8468649983406067 0.6395140290260315
0.1911419928073883 0.8478919863700867 0.6388540267944336
0.19186000525951385 0.8487240076065063 0.6383209824562073
0.1930209994316101 0.8490409851074219 0.6381170153617859
0.19418199360370636 0.8487240076065063 0.6383209824562073
0.19489899277687073 0.8478919863700867 0.6388540267944336
0.19489899277687073 0.8468649983406067 0.6395140290260315
0.19418199360370636 0.8460339903831482 0.640047013759613
0.1930209994316101 0.8446900248527527 0.6400269865989685
0.19142299890518188 0.8451259732246399 0.6397470235824585
0.1904350072145462 0.8462700247764587 0.6390119791030884
0.1904350072145462 0.8476840257644653 0.6381040215492249
0.19142299890518188 0.8488280177116394 0.6373699903488159
0.1930209994316101 0.8492649793624878 0.6370890140533447
0.19461899995803833 0.8488280177116394 0.6373699903488159
0.19560599327087402 0.8476840257644653 0.6381040215492249
0.19560599327087402 0.8462700247764587 0.6390119791030884
0.19461899995803833 0.8451259732246399 0.6397470235824585
0.1930209994316101 0.8437820076942444 0.6394969820976257
0.1911419928073883 0.8442950248718262 0.6391670107841492
0.18998099863529205 0.8456400036811829 0.6383039951324463
0.18998099863529205 0.8473020195960999 0.6372359991073608
0.1911419928073883 0.8486469984054565 0.636372983455658
0.1930209994316101 0.8491600155830383 0.6360430121421814
0.19489899277687073 0.8486469984054565 0.636372983455658
0.19606000185012817 0.8473020195960999 0.6372359991073608
0.19606000185012817 0.8456400036811829 0.6383039951324463
0.19489899277687073 0.8442950248718262 0.6391670107841492
0.1930209994316101 0.8430820107460022 0.6387119889259338
0.19104500114917755 0.8436220288276672 0.6383649706840515
0.18982499837875366 0.845035970211029 0.637457013130188
0.18982499837875366 0.8467839956283569 0.636335015296936
0.19104500114917755 0.8481979966163635 0.6354269981384277
0.1930209994316101 0.8487380146980286 0.6350809931755066
0.19499599933624268 0.8481979966163635 0.6354269981384277
0.19621700048446655 0.8467839956283569 0.636335015296936
0.19621700048446655 0.845035970211029 0.637457013130188
0.19499599933624268 0.8436220288276672 0.6383649706840515
0.1930209994316101 0.8426600098609924 0.6377490162849426
0.1911419928073883 0.8431730270385742 0.6374189853668213
0.18998099863529205 0.8445180058479309 0.6365560293197632
0.18998099863529205 0.8461800217628479 0.6354889869689941
0.1911419928073883 0.8475250005722046 0.6346250176429749
0.1930209994316101 0.8480380177497864 0.6342960000038147
0.19489899277687073 0.8475250005722046 0.6346250176429749
0.19606000185012817 0.8461800217628479 0.6354889869689941
0.19606000185012817 0.8445180058479309 0.6365560293197632
0.19489899277687073 0.8431730270385742 0.6374189853668213
0.1930209994316101 0.8425549864768982 0.6367030143737793
0.19142299890518188 0.8429920077323914 0.6364229917526245
0.1904350072145462 0.8441359996795654 0.6356880068778992
0.1904350072145462 0.845550000667572 0.6347799897193909
0.19142299890518188 0.8466939926147461 0.6340460181236267
0.1930209994316101 0.8471300005912781 0.6337649822235107
0.19461899995803833 0.8466939926147461 0.6340460181236267
0.19560599327087402 0.845550000667572 0.6347799897193909
0.19560599327087402 0.8441359996795654 0.6356880068778992
0.19461899995803833 0.8429920077323914 0.6364229917526245
0.1930209994316101 0.8427789807319641 0.6356760263442993
0.19186000525951385 0.8430960178375244 0.6354719996452332
0.1911419928073883 0.8439279794692993 0.6349380016326904
0.1911419928073883 0.8449550271034241 0.6342790126800537
0.19186000525951385 0.8457859754562378 0.633745014667511
0.1930209994316101 0.8461030125617981 0.6335409879684448
0.19418199360370636 0.8457859754562378 0.633745014667511
0.19489899277687073 0.8449550271034241 0.6342790126800537
0.19489899277687073 0.8439279794692993 0.6349380016326904
0.19418199360370636 0.8430960178375244 0.6354719996452332
0.1930209994316101 0.8433089852333069 0.634768009185791
0.19241000711917877 0.8434759974479675 0.6346610188484192
0.19203299283981323 0.8439130187034607 0.6343799829483032
0.19203299283981323 0.844452977180481 0.6340339779853821
0.19241000711917877 0.8448899984359741 0.6337530016899109
0.1930209994316101 0.8450570106506348 0.6336460113525391
0.19363099336624146 0.8448899984359741 0.6337530016899109
0.1940079927444458 0.844452977180481 0.6340339779853821
0.1940079927444458 0.8439130187034607 0.6343799829483032
0.19363099336624146 0.8434759974479675 0.6346610188484192
0.1930209994316101 0.8440939784049988 0.63406902551651
0.325859010219574 0.9673240184783936 0.41464999318122864
0.33314698934555054 0.9645940065383911 0.41174501180648804
0.1863040030002594 0.6699280142784119 0.34390899538993835
0.19359299540519714 0.6671990156173706 0.34100401401519775
0.3325749933719635 0.9617419838905334 0.42486798763275146
0.3402180075645447 0.9607750177383423 0.4138529896736145
0.2006630003452301 0.6633800268173218 0.3431119918823242
0.34436801075935364 0.9573249816894531 0.4201680123806
0.20481400191783905 0.6599299907684326 0.3494270145893097
0.3440150022506714 0.9555619955062866 0.42827799916267395
0.2044599950313568 0.6581670045852661 0.35753801465034485
0.3392910063266754 0.9561589956283569 0.4350860118865967
0.19973699748516083 0.6587640047073364 0.3643450140953064
0.33200201392173767 0.9588890075683594 0.4379909932613373
0.19244800508022308 0.6614930033683777 0.367249995470047
0.3249320089817047 0.9627079963684082 0.4358829855918884
0.18537800014019012 0.6653119921684265 0.3651430010795593
0.32078200578689575 0.9661579728126526 0.42956799268722534
0.18122699856758118 0.6687620282173157 0.35882699489593506
0.321135014295578 0.9679210186004639 0.42145800590515137
0.18158100545406342 0.6705250144004822 0.3507170081138611
0.3381569981575012 0.9736369848251343 0.4276979863643646
0.3410409986972809 0.9721810221672058 0.4250060021877289
0.34165799617767334 0.9713339805603027 0.4273500144481659
0.34083399176597595 0.9711440205574036 0.4297730028629303
0.3388819992542267 0.971684992313385 0.4313510060310364
0.3365490138530731 0.9727489948272705 0.4314810037612915
0.3347260057926178 0.9739300012588501 0.43011200428009033
0.33410900831222534 0.9747769832611084 0.4277690052986145
0.3349339962005615 0.9749659895896912 0.4253450036048889
0.3368859887123108 0.9744259715080261 0.42376700043678284
0.33921900391578674 0.9733620285987854 0.4236379861831665
0.3430970013141632 0.9697020053863525 0.4223009943962097
0.3442699909210205 0.9680910110473633 0.4267590045928955
0.3427009880542755 0.9677309989929199 0.43136900663375854
0.3389900028705597 0.9687590003013611 0.4343700110912323
0.33455199003219604 0.9707819819450378 0.43461599946022034
0.3310849964618683 0.9730290174484253 0.43201300501823425
0.329912006855011 0.9746400117874146 0.42755600810050964
0.331481009721756 0.9750000238418579 0.4229460060596466
0.335193008184433 0.9739720225334167 0.41994398832321167
0.33963000774383545 0.9719489812850952 0.41969799995422363
0.3441230058670044 0.9664450287818909 0.4198470115661621
0.3457379937171936 0.964227020740509 0.4259830117225647
0.3435780107975006 0.9637309908866882 0.4323279857635498
0.338468998670578 0.965146005153656 0.4364590048789978
0.33236199617385864 0.9679309725761414 0.43679800629615784
0.3275890052318573 0.9710230231285095 0.4332149922847748
0.3259739875793457 0.9732400178909302 0.4270800054073334
0.3281340003013611 0.9737359881401062 0.4207350015640259
0.3332430124282837 0.9723209738731384 0.41660401225090027
0.33934998512268066 0.9695360064506531 0.41626501083374023
0.34401801228523254 0.9627259969711304 0.4178850054740906
0.3459160029888153 0.9601200222969055 0.4250969886779785
0.3433780074119568 0.9595370292663574 0.43255698680877686
0.3373720049858093 0.9611999988555908 0.4374130070209503
0.3301919996738434 0.9644740223884583 0.4378109872341156
0.3245820105075836 0.9681090116500854 0.4336000084877014
0.3226830065250397 0.9707149863243103 0.4263870120048523
0.325221985578537 0.9712979793548584 0.41892799735069275
0.33122798800468445 0.969635009765625 0.4140720069408417
0.3384070098400116 0.9663609862327576 0.4136730134487152
0.3447889983654022 0.9561709761619568 0.4241900146007538
0.3421199917793274 0.9555580019950867 0.4320330023765564
0.3358049988746643 0.957306981086731 0.43713900446891785
0.3282560110092163 0.9607499837875366 0.43755799531936646
0.3223569989204407 0.9645709991455078 0.4331299960613251
0.3203609883785248 0.9673119783401489 0.42554599046707153
0.3230299949645996 0.9679250121116638 0.4177030026912689
0.3293449878692627 0.9661759734153748 0.41259700059890747
0.3368940055370331 0.9627339839935303 0.41217800974845886
0.34279298782348633 0.9589120149612427 0.41660600900650024
0.34246599674224854 0.9527680277824402 0.423348993062973
0.33992800116539 0.9521849751472473 0.43080800771713257
0.33392199873924255 0.9538480043411255 0.43566399812698364
0.3267419934272766 0.9571220278739929 0.4360629916191101
0.32113200426101685 0.9607570171356201 0.43185099959373474
0.3192330002784729 0.963362991809845 0.4246380031108856
0.3217720091342926 0.9639459848403931 0.4171789884567261
0.32777801156044006 0.9622830152511597 0.412322998046875
0.3349579870700836 0.9590089917182922 0.41192400455474854
0.34056800603866577 0.955374002456665 0.4161359965801239
0.3375599980354309 0.952459990978241 0.41652101278305054
0.3391749858856201 0.9502429962158203 0.42265599966049194
0.3370159864425659 0.9497470259666443 0.42900100350379944
0.3319070041179657 0.9511619806289673 0.43313199281692505
0.32580000162124634 0.9539470076560974 0.4334709942340851
0.321027010679245 0.9570389986038208 0.4298889935016632
0.3194119930267334 0.9592559933662415 0.4237529933452606
0.3215720057487488 0.9597520232200623 0.4174079895019531
0.326680988073349 0.9583370089530945 0.4132770001888275
0.33278799057006836 0.9555519819259644 0.4129379987716675
0.3340649902820587 0.9504539966583252 0.4177219867706299
0.3352380096912384 0.9488440155982971 0.4221799969673157
0.3336690068244934 0.9484829902648926 0.4267899990081787
0.3299570083618164 0.9495109915733337 0.42979198694229126
0.32552000880241394 0.9515349864959717 0.4300380051136017
0.3220529854297638 0.953781008720398 0.4274350106716156
0.3208790123462677 0.9553920030593872 0.4229770004749298
0.3224479854106903 0.9557520151138306 0.4183669984340668
0.3261600136756897 0.9547240138053894 0.415365993976593
0.33059701323509216 0.9527009725570679 0.415120005607605
0.3304240107536316 0.9495540261268616 0.419624000787735
0.33103999495506287 0.9487069845199585 0.4219669997692108
0.3302159905433655 0.9485170245170593 0.4243910014629364
0.3282639980316162 0.9490579962730408 0.4259690046310425
0.32593101263046265 0.9501209855079651 0.4260979890823364
0.3241080045700073 0.9513019919395447 0.42473000288009644
0.32349199056625366 0.952148973941803 0.4223859906196594
0.32431599497795105 0.9523389935493469 0.419963002204895
0.3262679874897003 0.9517980217933655 0.41838499903678894
0.32860100269317627 0.95073401927948 0.4182550013065338
0.3269929885864258 0.9498460292816162 0.4220379889011383
0.3174630105495453 0.6643459796905518 0.08632460236549377
0.3338629901409149 0.6558229923248291 0.0835328996181488
0.1779090017080307 0.3694419860839844 0.16682299971580505
0.19430899620056152 0.3609200119972229 0.1640309989452362
0.3325749933719635 0.6643459796905518 0.11252199858427048
0.34977099299430847 0.6505560278892517 0.0918143019080162
0.2102160006761551 0.35565200448036194 0.17231300473213196
0.3591099977493286 0.6505560278892517 0.10800500214099884
0.21955600380897522 0.35565200448036194 0.18850399553775787
0.35831400752067566 0.6558229923248291 0.12592199444770813
0.21875999867916107 0.3609200119972229 0.20642000436782837
0.3476859927177429 0.6643459796905518 0.13872000575065613
0.20813199877738953 0.3694419860839844 0.21921800076961517
0.3312869966030121 0.6728690266609192 0.14151200652122498
0.1917320042848587 0.3779650032520294 0.22201000154018402
0.31537899374961853 0.6781359910964966 0.13323000073432922
0.17582499980926514 0.3832319974899292 0.21372899413108826
0.3060399889945984 0.6781359910964966 0.11703900247812271
0.166484996676445 0.3832319974899292 0.19753800332546234
0.30683600902557373 0.6728690266609192 0.09912289679050446
0.16728200018405914 0.3779650032520294 0.17962099611759186
0.34513500332832336 0.690887987613678 0.10527800023555756
0.351624995470047 0.6851080060005188 0.10153400152921677
0.3530130088329315 0.6859639883041382 0.10707499831914902
0.351157009601593 0.6882039904594421 0.11206500232219696
0.34676599502563477 0.6909729838371277 0.11459799855947495
0.34151700139045715 0.6932129859924316 0.11370600014925003
0.33741599321365356 0.6940690279006958 0.10972999781370163
0.33602800965309143 0.6932129859924316 0.10418900102376938
0.33788400888442993 0.6909729838371277 0.09919910132884979
0.342274010181427 0.6882039904594421 0.09666640311479568
0.3475230038166046 0.6859639883041382 0.09755829721689224
0.35624998807907104 0.677295982837677 0.09886620193719864
0.35888999700546265 0.678924024105072 0.1094060018658638
0.3553600013256073 0.6831849813461304 0.11889699846506119
0.34700798988342285 0.6884520053863525 0.12371499836444855
0.3370240032672882 0.6927139759063721 0.12201900035142899
0.32922300696372986 0.6943410038948059 0.11445599794387817
0.32658201456069946 0.6927139759063721 0.1039159968495369
0.3301129937171936 0.6884520053863525 0.09442490339279175
0.33846399188041687 0.6831849813461304 0.08960740268230438
0.3484480082988739 0.678924024105072 0.09130380302667618
0.35855698585510254 0.6682159900665283 0.09753510355949402
0.36219099164009094 0.6704570055007935 0.11204200237989426
0.3573319911956787 0.6763219833374023 0.12510600686073303
0.3458369970321655 0.683571994304657 0.13173599541187286
0.33209601044654846 0.6894369721412659 0.12940199673175812
0.32135799527168274 0.6916769742965698 0.11899299919605255
0.31772398948669434 0.6894369721412659 0.10448600351810455
0.32258298993110657 0.683571994304657 0.0914222002029419
0.33407801389694214 0.6763219833374023 0.084791399538517
0.3478190004825592 0.6704570055007935 0.08712629973888397
0.35832199454307556 0.6587579846382141 0.09767109900712967
0.36259299516677856 0.6613919734954834 0.11472500115633011
0.3568809926509857 0.6682869791984558 0.13008199632167816
0.3433679938316345 0.6768090128898621 0.13787700235843658
0.32721400260925293 0.6837040185928345 0.13513199985027313
0.3145909905433655 0.6863380074501038 0.12289600074291229
0.3103190064430237 0.6837040185928345 0.10584200173616409
0.31603100895881653 0.6768090128898621 0.09048490226268768
0.3295440077781677 0.6682869791984558 0.08269000053405762
0.3456979990005493 0.6613919734954834 0.08543480187654495
0.35556599497795105 0.6498469710350037 0.09926079958677292
0.36005699634552 0.652616024017334 0.11719200015068054
0.35405099391937256 0.6598650217056274 0.1333400011062622
0.3398419916629791 0.6688269972801208 0.14153599739074707
0.32285699248313904 0.6760770082473755 0.13865000009536743
0.30958399176597595 0.678846001625061 0.1257839947938919
0.305092990398407 0.6760770082473755 0.107853002846241
0.31109899282455444 0.6688269972801208 0.09170480072498322
0.3253079950809479 0.6598650217056274 0.08350870013237
0.34229299426078796 0.652616024017334 0.08639480173587799
0.3505589962005615 0.6423540115356445 0.10214900225400925
0.3548310101032257 0.6449880003929138 0.11920200288295746
0.34911900758743286 0.6518830060958862 0.1345600038766861
0.3356049954891205 0.6604059934616089 0.14235499501228333
0.3194519877433777 0.6673009991645813 0.13961000740528107
0.30682799220085144 0.6699339747428894 0.12737399339675903
0.30255699157714844 0.6673009991645813 0.11032000184059143
0.3082680106163025 0.6604059934616089 0.09496250003576279
0.3217819929122925 0.6518830060958862 0.08716750144958496
0.33793601393699646 0.6449880003929138 0.08991239964962006
0.34742599725723267 0.6392549872398376 0.12055899947881699
0.34256699681282043 0.6451209783554077 0.13362300395965576
0.33107200264930725 0.6523699760437012 0.1402530074119568
0.3173309862613678 0.658236026763916 0.13791799545288086
0.30659300088882446 0.66047602891922 0.12750999629497528
0.30295899510383606 0.658236026763916 0.11300300061702728
0.3078179955482483 0.6523699760437012 0.0999390035867691
0.3193129897117615 0.6451209783554077 0.09330829977989197
0.3330540060997009 0.6392549872398376 0.09564319998025894
0.34379199147224426 0.6370149850845337 0.10605199635028839
0.33856698870658875 0.6359789967536926 0.12112800031900406
0.3350369930267334 0.6402400135993958 0.13062000274658203
0.32668501138687134 0.6455069780349731 0.1354369968175888
0.3167020082473755 0.6497690081596375 0.13374100625514984
0.30889999866485596 0.6513959765434265 0.12617899477481842
0.30625998973846436 0.6497690081596375 0.11563900113105774
0.3097899854183197 0.6455069780349731 0.10614699870347977
0.31814199686050415 0.6402400135993958 0.1013299971818924
0.3281260132789612 0.6359789967536926 0.10302600264549255
0.33592700958251953 0.6343510150909424 0.11058899760246277
0.32773399353027344 0.6346229910850525 0.11531499773263931
0.32912200689315796 0.6354789733886719 0.12085600197315216
0.32726600766181946 0.6377189755439758 0.1258459985256195
0.3228760063648224 0.6404880285263062 0.1283780038356781
0.3176270127296448 0.6427289843559265 0.12748600542545319
0.31352499127388 0.6435840129852295 0.12351100146770477
0.31213700771331787 0.6427289843559265 0.11796999722719193
0.31399300694465637 0.6404880285263062 0.11298000067472458
0.31838399171829224 0.6377189755439758 0.110446996986866
0.32363298535346985 0.6354789733886719 0.11133900284767151
0.320015013217926 0.6378049850463867 0.11976700276136398
3 0 3 1
3 1 3 2
3 0 5 4
3 0 1 5
3 0 4 3
3 3 4 7
3 3 7 6
3 3 6 2
3 1 6 5
3 1 2 6
3 5 7 4
3 5 6 7
3 8 9 10
3 9 11 10
3 12 10 11
3 13 9 8
3 9 14 11
3 14 15 11
3 12 11 15
3 13 14 9
3 14 16 15
3 16 17 15
3 12 15 17
3 13 16 14
3 16 18 17
3 18 19 17
3 12 17 19
3 13 18 16
3 18 20 19
3 20 21 19
3 12 19 21
3 13 20 18
3 20 22 21
3 22 23 21
3 12 21 23
3 13 22 20
3 22 24 23
3 24 25 23
3 12 23 25
3 13 24 22
3 24 26 25
3 26 27 25
3 12 25 27
3 13 26 24
3 26 28 27
3 28 29 27
3 12 27 29
3 13 28 26
3 28 8 29
3 8 10 29
3 12 29 10
3 13 8 28
3 31 32 30
3 32 33 30
3 33 34 30
3 34 35 30
3 35 36 30
3 36 37 30
3 37 38 30
3 38 39 30
3 39 40 30
3 40 31 30
3 31 41 32
3 41 42 32
3 32 42 33
3 42 43 33
3 33 43 34
3 43 44 34
3 34 44 35
3 44 45 35
3 35 45 36
3 45 46 36
3 36 46 37
3 46 47 37
3 37 47 38
3 47 48 38
3 38 48 39
3 48 49 39
3 39 49 40
3 49 50 40
3 40 50 31
3 50 41 31
3 41 51 42
3 51 52 42
3 42 52 43
3 52 53 43
3 43 53 44
3 53 54 44
3 44 54 45
3 54 55 45
3 45 55 46
3 55 56 46
3 46 56 47
3 56 57 47
3 47 57 48
3 57 58 48
3 48 58 49
3 58 59 49
3 49 59 50
3 59 60 50
3 50 60 41
3 60 51 41
3 51 61 52
3 61 62 52
3 52 62 53
3 62 63 53
3 53 63 54
3 63 64 54
3 54 64 55
3 64 65 55
3 55 65 56
3 65 66 56
3 56 66 57
3 66 67 57
3 57 67 58
3 67 68 58
3 58 68 59
3 68 69 59
3 59 69 60
3 69 70 60
3 60 70 51
3 70 61 51
3 61 71 62
3 71 72 62
3 62 72 63
3 72 73 63
3 63 73 64
3 73 74 64
3 64 74 65
3 74 75 65
3 65 75 66
3 75 76 66
3 66 76 67
3 76 77 67
3 67 77 68
3 77 78 68
3 68 78 69
3 78 79 69
3 69 79 70
3 79 80 70
3 70 80 61
3 80 71 61
3 71 81 72
3 81 82 72
3 72 82 73
3 82 83 73
3 73 83 74
3 83 84 74
3 74 84 75
3 84 85 75
3 75 85 76
3 85 86 76
3 76 86 77
3 86 87 77
3 77 87 78
3 87 88 78
3 78 88 79
3 88 89 79
3 79 89 80
3 89 90 80
3 80 90 71
3 90 81 71
3 81 91 82
3 91 92 82
3 82 92 83
3 92 93 83
3 83 93 84
3 93 94 84
3 84 94 85
3 94 95 85
3 85 95 86
3 95 96 86
3 86 96 87
3 96 97 87
3 87 97 88
3 97 98 88
3 88 98 89
3 98 99 89
3 89 99 90
3 99 100 90
3 90 100 81
3 100 91 81
3 91 101 92
3 101 102 92
3 92 102 93
3 102 103 93
3 93 103 94
3 103 104 94
3 94 104 95
3 104 105 95
3 95 105 96
3 105 106 96
3 96 106 97
3 106 107 97
3 97 107 98
3 107 108 98
3 98 108 99
3 108 109 99
3 99 109 100
3 109 110 100
3 100 110 91
3 110 101 91
3 101 111 102
3 111 112 102
3 102 112 103
3 112 113 103
3 103 113 104
3 113 114 104
3 104 114 105
3 114 115 105
3 105 115 106
3 115 116 106
3 106 116 107
3 116 117 107
3 107 117 108
3 117 118 108
3 108 118 109
3 118 119 109
3 109 119 110
3 119 120 110
3 110 120 101
3 120 111 101
3 111 121 112
3 121 121 112
3 112 121 113
3 121 121 113
3 113 121 114
3 121 121 114
3 114 121 115
3 121 121 115
3 115 121 116
3 121 121 116
3 116 121 117
3 121 121 117
3 117 121 118
3 121 121 118
3 118 121 119
3 121 121 119
3 119 121 120
3 121 121 120
3 120 121 111
3 121 121 111
3 122 123 124
3 123 125 124
3 13 124 125
3 126 123 122
3 123 127 125
3 127 128 125
3 13 125 128
3 126 127 123
3 127 129 128
3 129 130 128
3 13 128 130
3 126 129 127
3 129 131 130
3 131 132 130
3 13 130 132
3 126 131 129
3 131 133 132
3 133 134 132
3 13 132 134
3 126 133 131
3 133 135 134
3 135 136 134
3 13 134 136
3 126 135 133
3 135 137 136
3 137 138 136
3 13 136 138
3 126 137 135
3 137 139 138
3 139 140 138
3 13 138 140
3 126 139 137
3 139 141 140
3 141 142 140
3 13 140 142
3 126 141 139
3 141 122 142
3 122 124 142
3 13 142 124
3 126 122 141
3 144 145 143
3 145 146 143
3 146 147 143
3 147 148 143
3 148 149 143
3 149 150 143
3 150 151 143
3 151 152 143
3 152 153 143
3 153 144 143
3 144 154 145
3 154 155 145
3 145 155 146
3 155 156 146
3 146 156 147
3 156 157 147
3 147 157 148
3 157 158 148
3 148 158 149
3 158 159 149
3 149 159 150
3 159 160 150
3 150 160 151
3 160 161 151
3 151 161 152
3 161 162 152
3 152 162 153
3 162 163 153
3 153 163 144
3 163 154 144
3 154 164 155
3 164 165 155
3 155 165 156
3 165 166 156
3 156 166 157
3 166 167 157
3 157 167 158
3 167 168 158
3 158 168 159
3 168 169 159
3 159 169 160
3 169 170 160
3 160 170 161
3 170 171 161
3 161 171 162
3 171 172 162
3 162 172 163
3 172 173 163
3 163 173 154
3 173 164 154
3 164 174 165
3 174 175 165
3 165 175 166
3 175 176 166
3 166 176 167
3 176 177 167
3 167 177 168
3 177 178 168
3 168 178 169
3 178 179 169
3 169 179 170
3 179 180 170
3 170 180 171
3 180 181 171
3 171 181 172
3 181 182 172
3 172 182 173
3 182 183 173
3 173 183 164
3 183 174 164
3 174 184 175
3 184 185 175
3 175 185 176
3 185 186 176
3 176 186 177
3 186 187 177
3 177 187 178
3 187 188 178
3 178 188 179
3 188 189 179
3 179 189 180
3 189 190 180
3 180 190 181
3 190 191 181
3 181 191 182
3 191 192 182
3 182 192 183
3 192 193 183
3 183 193 174
3 193 184 174
3 184 194 185
3 194 195 185
3 185 195 186
3 195 196 186
3 186 196 187
3 196 197 187
3 187 197 188
3 197 198 188
3 188 198 189
3 198 199 189
3 189 199 190
3 199 200 190
3 190 200 191
3 200 201 191
3 191 201 192
3 201 202 192
3 192 202 193
3 202 203 193
3 193 203 184
3 203 194 184
3 194 204 195
3 204 205 195
3 195 205 196
3 205 206 196
3 196 206 197
3 206 207 197
3 197 207 198
3 207 208 198
3 198 208 199
3 208 209 199
3 199 209 200
3 209 210 200
3 200 210 201
3 210 211 201
3 201 211 202
3 211 212 202
3 202 212 203
3 212 213 203
3 203 213 194
3 213 204 194
3 204 214 205
3 214 215 205
3 205 215 206
3 215 216 206
3 206 216 207
3 216 217 207
3 207 217 208
3 217 218 208
3 208 218 209
3 218 219 209
3 209 219 210
3 219 220 210
3 210 220 211
3 220 221 211
3 211 221 212
3 221 222 212
3 212 222 213
3 222 223 213
3 213 223 204
3 223 214 204
3 214 224 215
3 224 225 215
3 215 225 216
3 225 226 216
3 216 226 217
3 226 227 217
3 217 227 218
3 227 228 218
3 218 228 219
3 228 229 219
3 219 229 220
3 229 230 220
3 220 230 221
3 230 231 221
3 221 231 222
3 231 232 222
3 222 232 223
3 232 233 223
3 223 233 214
3 233 224 214
3 224 234 225
3 225 234 226
3 234 234 226
3 226 234 227
3 227 234 228
3 234 234 228
3 228 234 229
3 234 234 229
3 229 234 230
3 230 234 231
3 231 234 232
3 232 234 233
3 233 234 224
3 234 234 224
3 235 236 237
3 236 238 237
3 126 237 238
3 239 236 235
3 236 240 238
3 240 241 238
3 126 238 241
3 239 240 236
3 240 242 241
3 242 243 241
3 126 241 243
3 239 242 240
3 242 244 243
3 244 245 243
3 126 243 245
3 239 244 242
3 244 246 245
3 246 247 245
3 126 245 247
3 239 246 244
3 246 248 247
3 248 249 247
3 126 247 249
3 239 248 246
3 248 250 249
3 250 251 249
3 126 249 251
3 239 250 248
3 250 252 251
3 252 253 251
3 126 251 253
3 239 252 250
3 252 254 253
3 254 255 253
3 126 253 255
3 239 254 252
3 254 235 255
3 235 237 255
3 126 255 237
3 239 235 254
3 257 258 256
3 258 259 256
3 259 260 256
3 260 261 256
3 261 262 256
3 262 263 256
3 263 264 256
3 264 265 256
3 265 266 256
3 266 257 256
3 257 267 258
3 267 268 258
3 258 268 259
3 268 269 259
3 259 269 260
3 269 270 260
3 260 270 261
3 270 271 261
3 261 271 262
3 271 272 262
3 262 272 263
3 272 273 263
3 263 273 264
3 273 274 264
3 264 274 265
3 274 275 265
3 265 275 266
3 275 276 266
3 266 276 257
3 276 267 257
3 267 277 268
3 277 278 268
3 268 278 269
3 278 279 269
3 269 279 270
3 279 280 270
3 270 280 271
3 280 281 271
3 271 281 272
3 281 282 272
3 272 282 273
3 282 283 273
3 273 283 274
3 283 284 274
3 274 284 275
3 284 285 275
3 275 285 276
3 285 286 276
3 276 286 267
3 286 277 267
3 277 287 278
3 287 288 278
3 278 288 279
3 288 289 279
3 279 289 280
3 289 290 280
3 280 290 281
3 290 291 281
3 281 291 282
3 291 292 282
3 282 292 283
3 292 293 283
3 283 293 284
3 293 294 284
3 284 294 285
3 294 295 285
3 285 295 286
3 295 296 286
3 286 296 277
3 296 287 277
3 287 297 288
3 297 298 288
3 288 298 289
3 298 299 289
3 289 299 290
3 299 300 290
3 290 300 291
3 300 301 291
3 291 301 292
3 301 302 292
3 292 302 293
3 302 303 293
3 293 303 294
3 303 304 294
3 294 304 295
3 304 305 295
3 295 305 296
3 305 306 296
3 296 306 287
3 306 297 287
3 297 307 298
3 307 308 298
3 298 308 299
3 308 309 299
3 299 309 300
3 309 310 300
3 300 310 301
3 310 311 301
3 301 311 302
3 311 312 302
3 302 312 303
3 312 313 303
3 303 313 304
3 313 314 304
3 304 314 305
3 314 315 305
3 305 315 306
3 315 316 306
3 306 316 297
3 316 307 297
3 307 317 308
3 317 318 308
3 308 318 309
3 318 319 309
3 309 319 310
3 319 320 310
3 310 320 311
3 320 321 311
3 311 321 312
3 321 322 312
3 312 322 313
3 322 323 313
3 313 323 314
3 323 324 314
3 314 324 315
3 324 325 315
3 315 325 316
3 325 326 316
3 316 326 307
3 326 317 307
3 317 327 318
3 327 328 318
3 318 328 319
3 328 329 319
3 319 329 320
3 329 330 320
3 320 330 321
3 330 331 321
3 321 331 322
3 331 332 322
3 322 332 323
3 332 333 323
3 323 333 324
3 333 334 324
3 324 334 325
3 334 335 325
3 325 335 326
3 335 336 326
3 326 336 317
3 336 327 317
3 327 337 328
3 337 338 328
3 328 338 329
3 338 339 329
3 329 339 330
3 339 340 330
3 330 340 331
3 340 341 331
3 331 341 332
3 341 342 332
3 332 342 333
3 342 343 333
3 333 343 334
3 343 344 334
3 334 344 335
3 344 345 335
3 335 345 336
3 345 346 336
3 336 346 327
3 346 337 327
3 337 347 338
3 347 347 338
3 338 347 339
3 339 347 340
3 340 347 341
3 347 347 341
3 341 347 342
3 347 347 342
3 342 347 343
3 343 347 344
3 344 347 345
3 345 347 346
3 346 347 337
3 347 347 337
3 348 349 350
3 349 351 350
3 126 350 351
3 352 349 348
3 349 353 351
3 353 354 351
3 126 351 354
3 352 353 349
3 353 355 354
3 355 356 354
3 126 354 356
3 352 355 353
3 355 357 356
3 357 358 356
3 126 356 358
3 352 357 355
3 357 359 358
3 359 360 358
3 126 358 360
3 352 359 357
3 359 361 360
3 361 362 360
3 126 360 362
3 352 361 359
3 361 363 362
3 363 364 362
3 126 362 364
3 352 363 361
3 363 365 364
3 365 366 364
3 126 364 366
3 352 365 363
3 365 367 366
3 367 368 366
3 126 366 368
3 352 367 365
3 367 348 368
3 348 350 368
3 126 368 350
3 352 348 367
3 370 371 369
3 371 372 369
3 372 373 369
3 373 374 369
3 374 375 369
3 375 376 369
3 376 377 369
3 377 378 369
3 378 379 369
3 379 370 369
3 370 380 371
3 380 381 371
3 371 381 372
3 381 382 372
3 372 382 373
3 382 383 373
3 373 383 374
3 383 384 374
3 374 384 375
3 384 385 375
3 375 385 376
3 385 386 376
3 376 386 377
3 386 387 377
3 377 387 378
3 387 388 378
3 378 388 379
3 388 389 379
3 379 389 370
3 389 380 370
3 380 390 381
3 390 391 381
3 381 391 382
3 391 392 382
3 382 392 383
3 392 393 383
3 383 393 384
3 393 394 384
3 384 394 385
3 394 395 385
3 385 395 386
3 395 396 386
3 386 396 387
3 396 397 387
3 387 397 388
3 397 398 388
3 388 398 389
3 398 399 389
3 389 399 380
3 399 390 380
3 390 400 391
3 400 401 391
3 391 401 392
3 401 402 392
3 392 402 393
3 402 403 393
3 393 403 394
3 403 404 394
3 394 404 395
3 404 405 395
3 395 405 396
3 405 406 396
3 396 406 397
3 406 407 397
3 397 407 398
3 407 408 398
3 398 408 399
3 408 409 399
3 399 409 390
3 409 400 390
3 400 419 401
3 419 410 401
3 401 410 402
3 410 411 402
3 402 411 403
3 411 412 403
3 403 412 404
3 412 413 404
3 404 413 405
3 413 414 405
3 405 414 406
3 414 415 406
3 406 415 407
3 415 416 407
3 407 416 408
3 416 417 408
3 408 417 409
3 417 418 409
3 409 418 400
3 418 419 400
3 419 429 410
3 429 420 410
3 410 420 411
3 420 421 411
3 411 421 412
3 421 422 412
3 412 422 413
3 422 423 413
3 413 423 414
3 423 424 414
3 414 424 415
3 424 425 415
3 415 425 416
3 425 426 416
3 416 426 417
3 426 427 417
3 417 427 418
3 427 428 418
3 418 428 419
3 428 429 419
3 429 430 420
3 430 431 420
3 420 431 421
3 431 432 421
3 421 432 422
3 432 433 422
3 422 433 423
3 433 434 423
3 423 434 424
3 434 435 424
3 424 435 425
3 435 436 425
3 425 436 426
3 436 437 426
3 426 437 427
3 437 438 427
3 427 438 428
3 438 439 428
3 428 439 429
3 439 430 429
3 430 440 431
3 440 441 431
3 431 441 432
3 441 442 432
3 432 442 433
3 442 443 433
3 433 443 434
3 443 444 434
3 434 444 435
3 444 445 435
3 435 445 436
3 445 446 436
3 436 446 437
3 446 447 437
3 437 447 438
3 447 448 438
3 438 448 439
3 448 449 439
3 439 449 430
3 449 440 430
3 440 450 441
3 450 451 441
3 441 451 442
3 451 452 442
3 442 452 443
3 452 453 443
3 443 453 444
3 453 454 444
3 444 454 445
3 454 455 445
3 445 455 446
3 455 456 446
3 446 456 447
3 456 457 447
3 447 457 448
3 457 458 448
3 448 458 449
3 458 459 449
3 449 459 440
3 459 450 440
3 450 460 451
3 451 460 452
3 452 460 453
3 453 460 454
3 454 460 455
3 455 460 456
3 456 460 457
3 457 460 458
3 458 460 459
3 459 460 450
3 461 462 463
3 462 464 463
3 13 463 464
3 465 462 461
3 462 466 464
3 466 467 464
3 13 464 467
3 465 466 462
3 466 468 467
3 468 469 467
3 13 467 469
3 465 468 466
3 468 470 469
3 470 471 469
3 13 469 471
3 465 470 468
3 470 472 471
3 472 473 471
3 13 471 473
3 465 472 470
3 472 474 473
3 474 475 473
3 13 473 475
3 465 474 472
3 474 476 475
3 476 477 475
3 13 475 477
3 465 476 474
3 476 478 477
3 478 479 477
3 13 477 479
3 465 478 476
3 478 480 479
3 480 481 479
3 13 479 481
3 465 480 478
3 480 461 481
3 461 463 481
3 13 481 463
3 465 461 480
3 483 484 482
3 484 485 482
3 485 486 482
3 486 487 482
3 487 488 482
3 488 489 482
3 489 490 482
3 490 491 482
3 491 492 482
3 492 483 482
3 483 493 484
3 493 494 484
3 484 494 485
3 494 495 485
3 485 495 486
3 495 496 486
3 486 496 487
3 496 497 487
3 487 497 488
3 497 498 488
3 488 498 489
3 498 499 489
3 489 499 490
3 499 500 490
3 490 500 491
3 500 501 491
3 491 501 492
3 501 502 492
3 492 502 483
3 502 493 483
3 493 503 494
3 503 504 494
3 494 504 495
3 504 505 495
3 495 505 496
3 505 506 496
3 496 506 497
3 506 507 497
3 497 507 498
3 507 508 498
3 498 508 499
3 508 509 499
3 499 509 500
3 509 510 500
3 500 510 501
3 510 511 501
3 501 511 502
3 511 512 502
3 502 512 493
3 512 503 493
3 503 513 504
3 513 514 504
3 504 514 505
3 514 515 505
3 505 515 506
3 515 516 506
3 506 516 507
3 516 517 507
3 507 517 508
3 517 518 508
3 508 518 509
3 518 519 509
3 509 519 510
3 519 520 510
3 510 520 511
3 520 521 511
3 511 521 512
3 521 522 512
3 512 522 503
3 522 513 503
3 513 523 514
3 523 524 514
3 514 524 515
3 524 525 515
3 515 525 516
3 525 526 516
3 516 526 517
3 526 527 517
3 517 527 518
3 527 528 518
3 518 528 519
3 528 529 519
3 519 529 520
3 529 530 520
3 520 530 521
3 530 531 521
3 521 531 522
3 531 532 522
3 522 532 513
3 532 523 513
3 523 533 524
3 533 534 524
3 524 534 525
3 534 535 525
3 525 535 526
3 535 536 526
3 526 536 527
3 536 537 527
3 527 537 528
3 537 538 528
3 528 538 529
3 538 539 529
3 529 539 530
3 539 540 530
3 530 540 531
3 540 541 531
3 531 541 532
3 541 542 532
3 532 542 523
3 542 533 523
3 533 552 534
3 552 543 534
3 534 543 535
3 543 544 535
3 535 544 536
3 544 545 536
3 536 545 537
3 545 546 537
3 537 546 538
3 546 547 538
3 538 547 539
3 547 548 539
3 539 548 540
3 548 549 540
3 540 549 541
3 549 550 541
3 541 550 542
3 550 551 542
3 542 551 533
3 551 552 533
3 552 562 543
3 562 553 543
3 543 553 544
3 553 554 544
3 544 554 545
3 554 555 545
3 545 555 546
3 555 556 546
3 546 556 547
3 556 557 547
3 547 557 548
3 557 558 548
3 548 558 549
3 558 559 549
3 549 559 550
3 559 560 550
3 550 560 551
3 560 561 551
3 551 561 552
3 561 562 552
3 562 563 553
3 563 564 553
3 553 564 554
3 564 565 554
3 554 565 555
3 565 566 555
3 555 566 556
3 566 567 556
3 556 567 557
3 567 568 557
3 557 568 558
3 568 569 558
3 558 569 559
3 569 570 559
3 559 570 560
3 570 571 560
3 560 571 561
3 571 572 561
3 561 572 562
3 572 563 562
3 563 573 564
3 564 573 565
3 565 573 566
3 573 573 566
3 566 573 567
3 567 573 568
3 568 573 569
3 569 573 570
3 570 573 571
3 573 573 571
3 571 573 572
3 572 573 563
