ply
format ascii 1.0
element vertex 179
property float x
property float y
property float z
element face 354
property list uchar int vertex_indices
end_header
0.7400209903717041 0.2664699852466583 0.028761299327015877
0.7633730173110962 0.2891579866409302 0.027276400476694107
0.7725740075111389 0.29701000452041626 0.034845199435949326
0.7731810212135315 0.29678401350975037 0.040922001004219055
0.7756069898605347 0.29587799310684204 0.06522910296916962
0.7671589851379395 0.28529098629951477 0.08360269665718079
0.7416170239448547 0.2604750096797943 0.08522679656744003
0.7266119718551636 0.24841199815273285 0.06732530146837234
0.7235789895057678 0.24954399466514587 0.036941301077604294
0.7153459787368774 0.23495100438594818 0.08689729869365692
0.6898040175437927 0.21013599634170532 0.08852139860391617
0.677819013595581 0.20087000727653503 0.07144699990749359
0.6753929853439331 0.20177599787712097 0.04713990166783333
0.6747859716415405 0.20200200378894806 0.0410631000995636
0.682735025882721 0.2108130007982254 0.03240390121936798
0.7057219743728638 0.23314699530601501 0.030942199751734734
0.3199000060558319 0.777230978012085 0.15272100269794464
0.36562201380729675 0.7250850200653076 0.07502630352973938
0.3338780105113983 0.6942430138587952 0.07704479992389679
0.2155430018901825 0.6758419871330261 0.1593569964170456
0.24108299612998962 0.6977599859237671 0.1581369936466217
0.29301100969314575 0.6545379757881165 0.07964339852333069
0.26126599311828613 0.6236969828605652 0.0816619023680687
0.29508501291275024 0.7502269744873047 0.15470300614833832
0.24641600251197815 0.7687399983406067 0.18637000024318695
0.2676289975643158 0.7606030106544495 0.16090300679206848
0.21620599925518036 0.7978410124778748 0.1670909970998764
0.22817200422286987 0.751013994216919 0.18752999603748322
0.23406000435352325 0.7279890179634094 0.1630380004644394
0.28438600897789 0.6926130056381226 0.17923100292682648
0.19869199395179749 0.7808250188827515 0.16820499300956726
0.3026300072669983 0.7103379964828491 0.1780710071325302
0.02500000037252903 0.9750000238418579 0.13523699343204498
0.10856299847364426 0.9044870138168335 0.15960699319839478
0.11772900074720383 0.9152960181236267 0.14475500583648682
0.11565700173377991 0.9160699844360352 0.12399200350046158
0.10397499799728394 0.9066910147666931 0.10995599627494812
0.08938059955835342 0.8925099968910217 0.11088400334119797
0.0806301012635231 0.8820359706878662 0.1262190043926239
0.08270219713449478 0.8812620043754578 0.14698199927806854
0.09469819813966751 0.8910149931907654 0.16048799455165863
0.8227540254592896 0.2813720107078552 0.2161879986524582
0.8045690059661865 0.3063279986381531 0.2332729995250702
0.8028460144996643 0.3045180141925812 0.23440200090408325
0.7974129915237427 0.3126949965953827 0.2403700053691864
0.6767489910125732 0.38877201080322266 0.10877399891614914
0.6224979758262634 0.4315060079097748 0.12090300023555756
0.7256109714508057 0.3288399875164032 0.10678499937057495
0.6703220009803772 0.381848007440567 0.11427900195121765
0.7012490034103394 0.16332200169563293 0.2239139974117279
0.6775910258293152 0.18296000361442566 0.24134700000286102
0.6454489827156067 0.2512980103492737 0.10933499783277512
0.6718940138816833 0.19074499607086182 0.24835099279880524
0.6795169711112976 0.18469500541687012 0.24224400520324707
0.602088987827301 0.31555500626564026 0.11861799657344818
0.5502520203590393 0.36131298542022705 0.1254969984292984
0.5906379818916321 0.3051089942455292 0.11424999684095383
0.6489859819412231 0.254393994808197 0.1116579994559288
0.7286419868469238 0.3321250081062317 0.10404500365257263
0.6319519877433777 0.036208800971508026 0.05349830165505409
0.6596980094909668 0.02500000037252903 0.05031149834394455
0.6323559880256653 0.03605780005455017 0.05754949897527695
0.6124259829521179 0.046216100454330444 0.05581999942660332
0.6307240128517151 0.24256500601768494 0.06848260015249252
0.6038540005683899 0.28172799944877625 0.06545399874448776
0.6296120285987854 0.2429800033569336 0.0573417991399765
0.6928769946098328 0.15602199733257294 0.04778670147061348
0.9501429796218872 0.3071869909763336 0.03184330090880394
0.9403150081634521 0.3352609872817993 0.03796770051121712
0.7350789904594421 0.343953013420105 0.06184709817171097
0.8183959722518921 0.277972012758255 0.03980550169944763
0.9399110078811646 0.33541199564933777 0.033916499465703964
0.9306010007858276 0.3553450107574463 0.03558859974145889
0.6965339779853821 0.37177199125289917 0.05956080183386803
0.7343720197677612 0.344217985868454 0.0547574982047081
0.48262399435043335 0.6200360059738159 0.1311340034008026
0.597262978553772 0.5010039806365967 0.11525700241327286
0.5914239883422852 0.4953320026397705 0.11562799662351608
0.4767870008945465 0.6143640279769897 0.13150599598884583
0.6903949975967407 0.40379801392555237 0.09465660154819489
0.5983240008354187 0.5006080269813538 0.12589100003242493
0.580810010433197 0.4835909903049469 0.12700499594211578
0.6845570206642151 0.3981260061264038 0.09502779692411423
0.3973029851913452 0.7103980183601379 0.14762699604034424
0.47784799337387085 0.613968014717102 0.1421400010585785
0.8435649871826172 0.6336619853973389 0.05772159993648529
0.9047480225563049 0.5696640014648438 0.0420599989593029
0.8431100249290466 0.6338319778442383 0.05316400155425072
0.33811599016189575 0.1431960016489029 0.08527450263500214
0.3149070143699646 0.1672939956188202 0.08848900347948074
0.36659300327301025 0.5073040127754211 0.1385120004415512
0.4812310039997101 0.3882710039615631 0.12263499945402145
0.5743640065193176 0.2910650074481964 0.10203500092029572
0.4870690107345581 0.39394301176071167 0.12226299941539764
0.5802019834518433 0.2967369854450226 0.1016630008816719
0.3385710120201111 0.14302599430084229 0.08983209729194641
0.27981099486351013 0.5962460041046143 0.15509800612926483
0.28637900948524475 0.6026279926300049 0.15467999875545502
0.3724310100078583 0.5129759907722473 0.13814100623130798
0.39975398778915405 0.07902760058641434 0.07417050004005432
0.4822919964790344 0.3878749907016754 0.13326899707317352
0.4998059868812561 0.4048910140991211 0.13215500116348267
0.3734920024871826 0.5125799775123596 0.14877599477767944
0.8199009895324707 0.6579310297966003 0.056378498673439026
0.390735000371933 0.7040159702301025 0.14804500341415405
0.22680899500846863 0.8110589981079102 0.144555002450943
0.2237820029258728 0.8126800060272217 0.11055199801921844
0.3088270127773285 0.7183300256729126 0.1628980040550232
0.439534991979599 0.5767449736595154 0.14457599818706512
0.31390100717544556 0.7262510061264038 0.14015300571918488
0.31025201082229614 0.7227060198783875 0.1403850018978119
0.4355210065841675 0.5728449821472168 0.14483100175857544
0.47026699781417847 0.616798996925354 0.06618010252714157
0.38219401240348816 0.7072060108184814 0.062463100999593735
0.35716599225997925 0.6714019775390625 0.15017899870872498
0.349355012178421 0.6753010153770447 0.06455119699239731
0.4311169981956482 0.5808699727058411 0.052871499210596085
0.5501599907875061 0.45381298661231995 0.1289539933204651
0.5420339703559875 0.45733800530433655 0.04385539889335632
0.42774999141693115 0.5762389898300171 0.06327790021896362
0.5857639908790588 0.4974460005760193 0.05891130119562149
0.5735880136489868 0.48874300718307495 0.03624330088496208
0.4624969959259033 0.6113569736480713 0.0508762001991272
0.6941720247268677 0.30917200446128845 0.027246499434113503
0.6818950176239014 0.2960889935493469 0.036690499633550644
0.709555983543396 0.31324198842048645 0.107805997133255
0.7374039888381958 0.34308499097824097 0.08514139801263809
0.7339969873428345 0.3389590084552765 0.09147340059280396
0.7325519919395447 0.34489700198173523 0.03652710095047951
0.5885940194129944 0.4963890016078949 0.08726959675550461
0.48423901200294495 0.39500001072883606 0.09390520304441452
0.7433919906616211 0.22141000628471375 0.10868900269269943
0.7557979822158813 0.23346300423145294 0.10790000110864639
0.6950899958610535 0.2980319857597351 0.11738999933004379
0.6812250018119812 0.28456100821495056 0.11827100068330765
0.6763520240783691 0.28098198771476746 0.10991799831390381
0.6650410294532776 0.26999199390411377 0.11063700169324875
0.6380329728126526 0.24572399258613586 0.09757539629936218
0.6330479979515076 0.24169600009918213 0.09177699685096741
0.5216010212898254 0.4374859929084778 0.04515469819307327
0.6782469749450684 0.29254400730133057 0.03692249953746796
0.664251983165741 0.280102014541626 0.029148999601602554
0.5349640250205994 0.43789398670196533 0.1385830044746399
0.530456006526947 0.43466898798942566 0.13020600378513336
0.37054699659347534 0.522022008895874 0.05672290176153183
0.36591100692749023 0.5154110193252563 0.07281570136547089
0.27783799171447754 0.605817973613739 0.06909870356321335
0.4158180058002472 0.5537019968032837 0.1460839956998825
0.41180500388145447 0.5498020052909851 0.14633899927139282
0.4073159992694855 0.5563859939575195 0.06457710266113281
0.42052799463272095 0.556850016117096 0.15648700296878815
0.3199479877948761 0.6352419853210449 0.1525460034608841
0.26573699712753296 0.6794559955596924 0.14321500062942505
0.40192699432373047 0.5525100231170654 0.054727599024772644
0.31067800521850586 0.6377230286598206 0.06701049953699112
0.2693859934806824 0.6830009818077087 0.14298300445079803
0.27441900968551636 0.6958450078964233 0.08303850144147873
0.29339298605918884 0.7142789959907532 0.08183199912309647
0.27525800466537476 0.6857150197029114 0.1650329977273941
0.1908770054578781 0.783253014087677 0.09358509629964828
0.2091210037469864 0.8009780049324036 0.09242500364780426
0.2339790016412735 0.7378339767456055 0.08863949775695801
0.2529529929161072 0.7562689781188965 0.0874330997467041
0.17999699711799622 0.7701389789581299 0.1133359968662262
0.18375299870967865 0.7692270278930664 0.14729300141334534
0.6281970143318176 0.2435079962015152 0.04316269978880882
0.2715579867362976 0.7674790024757385 0.1377210021018982
0.26791900396347046 0.7688379883766174 0.1012599989771843
0.30253198742866516 0.7216629981994629 0.09246239811182022
0.4329339861869812 0.5689039826393127 0.1556980013847351
0.7214879989624023 0.33577901124954224 0.02500000037252903
0.6982449889183044 0.30225199460983276 0.10852599889039993
0.636834979057312 0.2535330057144165 0.030382700264453888
0.48893600702285767 0.4064970016479492 0.04162599891424179
0.4814079999923706 0.39605700969696045 0.06554680317640305
0.2675029933452606 0.6876310110092163 0.09468969702720642
0.22194400429725647 0.7241700291633606 0.10418400168418884
0.2255830019712448 0.7228109836578369 0.14064399898052216
0.5473700165748596 0.4499469995498657 0.13779400289058685
3 0 1 2
3 0 2 3
3 0 3 4
3 0 4 5
3 0 5 6
3 0 6 7
3 0 7 8
3 9 10 11
3 9 11 12
3 9 12 13
3 9 13 14
3 9 14 15
3 9 15 8
3 9 8 7
3 16 17 18
3 19 20 21
3 19 21 22
3 23 16 18
3 24 25 26
3 27 28 29
3 30 27 24
3 30 24 26
3 27 29 31
3 27 31 24
3 27 30 28
3 24 31 25
3 32 33 34
3 32 35 36
3 37 32 36
3 32 38 39
3 32 39 40
3 32 37 38
3 40 33 32
3 32 34 35
3 41 42 43
3 44 42 45
3 44 45 46
3 41 43 47
3 41 47 5
3 48 47 43
3 10 49 50
3 10 50 51
3 52 53 54
3 52 54 55
3 50 56 51
3 52 50 53
3 49 53 50
3 50 52 55
3 50 55 56
3 53 49 10
3 53 10 57
3 54 53 57
3 41 5 58
3 41 58 42
3 43 44 46
3 43 46 48
3 42 58 45
3 44 43 42
3 59 60 61
3 62 61 63
3 62 63 64
3 60 59 65
3 60 65 66
3 67 68 69
3 67 69 70
3 71 72 68
3 3 70 69
3 12 66 65
3 62 64 65
3 72 73 69
3 68 72 69
3 59 62 65
3 12 63 66
3 3 74 70
3 71 68 67
3 72 71 74
3 72 74 73
3 71 67 70
3 71 70 74
3 61 60 66
3 61 66 63
3 59 61 62
3 75 76 77
3 75 77 78
3 79 80 81
3 79 81 82
3 75 83 84
3 85 86 87
3 87 86 79
3 87 79 76
3 88 89 90
3 88 90 91
3 92 91 93
3 92 93 94
3 88 95 89
3 90 96 97
3 90 97 98
3 84 80 75
3 85 75 80
3 86 80 79
3 99 88 92
3 95 99 100
3 101 102 100
3 102 90 100
3 99 92 100
3 88 91 92
3 86 85 80
3 85 103 75
3 84 81 80
3 91 90 98
3 91 98 93
3 100 92 94
3 100 94 101
3 90 102 96
3 95 88 99
3 89 95 100
3 89 100 90
3 103 87 76
3 103 76 75
3 76 79 82
3 76 82 77
3 87 103 85
3 83 75 78
3 83 78 104
3 35 34 105
3 35 105 106
3 31 107 25
3 108 109 110
3 108 110 111
3 104 78 112
3 104 112 113
3 104 114 108
3 104 108 84
3 109 115 116
3 16 23 114
3 16 114 104
3 18 17 113
3 18 113 115
3 107 111 110
3 81 84 108
3 81 108 117
3 118 119 116
3 104 84 83
3 112 120 121
3 112 121 122
3 46 81 117
3 118 123 124
3 47 48 125
3 4 126 127
3 6 5 47
3 6 47 125
3 3 2 128
3 3 128 74
3 127 126 82
3 127 82 45
3 126 4 3
3 126 3 69
3 120 112 129
3 93 98 130
3 56 55 94
3 55 101 94
3 131 132 133
3 131 133 134
3 9 135 136
3 11 137 138
3 57 136 54
3 132 131 9
3 132 9 6
3 139 140 141
3 135 134 142
3 135 142 143
3 144 145 146
3 147 148 143
3 130 98 145
3 119 118 139
3 119 139 149
3 143 142 150
3 143 150 147
3 146 97 22
3 151 152 20
3 19 22 97
3 152 153 154
3 151 97 102
3 151 102 148
3 98 97 146
3 98 146 145
3 152 148 147
3 152 147 155
3 119 149 156
3 119 156 157
3 29 28 158
3 159 37 36
3 159 36 160
3 156 161 162
3 156 162 157
3 39 38 163
3 39 163 164
3 77 69 73
3 65 64 165
3 106 105 166
3 160 106 167
3 105 26 25
3 34 33 26
3 110 168 167
3 166 25 107
3 157 162 167
3 169 111 107
3 116 119 110
3 121 118 116
3 128 120 129
3 128 170 121
3 121 170 123
3 0 123 170
3 2 1 170
3 8 124 123
3 132 6 171
3 82 126 69
3 64 138 94
3 93 130 64
3 131 134 135
3 8 15 141
3 13 165 172
3 15 14 172
3 11 10 51
3 173 139 141
3 165 174 173
3 165 64 130
3 173 144 153
3 153 152 155
3 21 20 152
3 150 29 158
3 156 175 176
3 177 155 158
3 155 177 176
3 39 164 30
3 164 177 28
3 159 161 176
3 94 93 64
3 159 176 163
3 164 28 30
3 40 39 30
3 175 155 176
3 177 158 28
3 156 176 161
3 147 150 158
3 154 21 152
3 153 155 149
3 139 173 153
3 165 130 174
3 172 165 173
3 173 141 172
3 11 51 137
3 15 172 141
3 14 13 172
3 8 141 140
3 9 131 135
3 64 63 138
3 73 129 77
3 77 82 69
3 132 171 133
3 0 8 123
3 2 170 128
3 1 0 170
3 118 121 123
3 128 121 120
3 73 128 129
3 121 116 122
3 109 116 110
3 169 107 31
3 168 157 167
3 110 166 107
3 110 167 166
3 34 26 105
3 166 105 25
3 162 160 167
3 167 106 166
3 73 74 128
3 163 176 177
3 163 177 164
3 38 37 159
3 38 159 163
3 40 30 26
3 40 26 33
3 161 159 160
3 161 160 162
3 150 169 31
3 150 31 29
3 149 175 156
3 155 175 149
3 146 154 153
3 146 153 144
3 152 151 148
3 20 19 97
3 20 97 151
3 22 21 154
3 22 154 146
3 158 155 147
3 102 101 143
3 102 143 148
3 142 178 169
3 142 169 150
3 139 153 149
3 97 96 102
3 174 145 144
3 174 144 173
3 55 143 101
3 134 133 178
3 134 178 142
3 139 118 124
3 139 124 140
3 54 136 135
3 54 135 143
3 54 143 55
3 51 56 137
3 10 9 136
3 10 136 57
3 8 140 124
3 13 12 65
3 13 65 165
3 138 137 56
3 138 56 94
3 11 138 63
3 11 63 12
3 174 130 145
3 77 129 78
3 45 82 46
3 46 82 81
3 6 125 171
3 5 4 127
3 5 127 58
3 58 127 45
3 171 125 48
3 171 48 46
3 171 46 117
3 133 171 117
3 133 117 178
3 122 113 112
3 111 117 108
3 129 112 78
3 178 117 111
3 178 111 169
3 113 17 104
3 114 23 109
3 16 104 17
3 18 115 109
3 18 109 23
3 109 108 114
3 115 113 122
3 115 122 116
3 110 119 168
3 119 157 168
3 36 35 106
3 36 106 160
3 7 6 9
