ply
format ascii 1.0
element vertex 349
property float x
property float y
property float z
element face 680
property list uchar int vertex_indices
end_header
0.08146350085735321 0.1478089988231659 0.32990598678588867
0.08146350085735321 0.4992949962615967 0.3299050033092499
0.09275619685649872 0.4992949962615967 0.3299050033092499
0.09275619685649872 0.1478089988231659 0.32990598678588867
0.08146350085735321 0.1478089988231659 0.2960279881954193
0.09275619685649872 0.1478089988231659 0.2960279881954193
0.09275619685649872 0.4992949962615967 0.29602599143981934
0.08146350085735321 0.4992949962615967 0.29602599143981934
0.03770430013537407 0.8903049826622009 0.3299030065536499
0.03770430013537407 0.8903049826622009 0.29602500796318054
0.02923480048775673 0.8903049826622009 0.3299030065536499
0.02923480048775673 0.8903049826622009 0.29602500796318054
0.08146350085735321 0.1478089988231659 0.26214998960494995
0.08146350085735321 0.4992949962615967 0.26214799284935
0.09275619685649872 0.4992949962615967 0.26214799284935
0.09275619685649872 0.1478089988231659 0.26214998960494995
0.08146350085735321 0.1478089988231659 0.22827200591564178
0.09275619685649872 0.1478089988231659 0.22827200591564178
0.09275619685649872 0.4992949962615967 0.22826999425888062
0.08146350085735321 0.4992949962615967 0.22826999425888062
0.03770430013537407 0.8903049826622009 0.2621470093727112
0.03770430013537407 0.8903049826622009 0.22826899588108063
0.02923480048775673 0.8903049826622009 0.2621470093727112
0.02923480048775673 0.8903049826622009 0.22826899588108063
0.08146350085735321 0.1478089988231659 0.19439299404621124
0.08146350085735321 0.4992949962615967 0.19439199566841125
0.09275619685649872 0.4992949962615967 0.19439199566841125
0.09275619685649872 0.1478089988231659 0.19439299404621124
0.08146350085735321 0.1478089988231659 0.16051499545574188
0.09275619685649872 0.1478089988231659 0.16051499545574188
0.09275619685649872 0.4992949962615967 0.1605139970779419
0.08146350085735321 0.4992949962615967 0.1605139970779419
0.03770430013537407 0.8903049826622009 0.19439099729061127
0.03770430013537407 0.8903049826622009 0.16051200032234192
0.02923480048775673 0.8903049826622009 0.19439099729061127
0.02923480048775673 0.8903049826622009 0.16051200032234192
0.08146350085735321 0.1478089988231659 0.12663699686527252
0.08146350085735321 0.4992929995059967 0.12663599848747253
0.09275619685649872 0.4992929995059967 0.12663599848747253
0.09275619685649872 0.1478089988231659 0.12663699686527252
0.08146350085735321 0.1478080004453659 0.09275910258293152
0.09275619685649872 0.1478080004453659 0.09275910258293152
0.09275619685649872 0.4992929995059967 0.09275759756565094
0.08146350085735321 0.4992929995059967 0.09275759756565094
0.03770430013537407 0.8903030157089233 0.12663400173187256
0.03770430013537407 0.8903030157089233 0.09275619685649872
0.02923480048775673 0.8903030157089233 0.12663400173187256
0.02923480048775673 0.8903030157089233 0.09275619685649872
0.04617379978299141 0.36378198862075806 0.3976610004901886
0.42306798696517944 0.37648698687553406 0.3976610004901886
0.42306798696517944 0.33837398886680603 0.3976610004901886
0.04617379978299141 0.32566899061203003 0.3976620137691498
0.04617379978299141 0.36378198862075806 0.3722530007362366
0.04617379978299141 0.32566899061203003 0.3722530007362366
0.42306798696517944 0.33837398886680603 0.3722530007362366
0.42306798696517944 0.37648698687553406 0.3722530007362366
0.04617379978299141 0.16474899649620056 0.38919299840927124
0.42306798696517944 0.16474899649620056 0.38919299840927124
0.42306798696517944 0.12663599848747253 0.38919299840927124
0.04617379978299141 0.12663599848747253 0.38919299840927124
0.04617379978299141 0.16474899649620056 0.37225401401519775
0.04617379978299141 0.12663599848747253 0.37225401401519775
0.42306798696517944 0.12663599848747253 0.37225401401519775
0.42306798696517944 0.16474899649620056 0.37225401401519775
0.444242000579834 0.3778980076313019 0.3976610004901886
0.444242000579834 0.025001399219036102 0.3976629972457886
0.42306798696517944 0.025001399219036102 0.3976629972457886
0.42306798696517944 0.37648698687553406 0.37084099650382996
0.42306798696517944 0.025001300498843193 0.37084200978279114
0.444242000579834 0.025001300498843193 0.37084200978279114
0.444242000579834 0.3778980076313019 0.37084099650382996
0.057466499507427216 0.8112540245056152 0.0588781014084816
0.057466499507427216 0.8112540245056152 0.02500000037252903
0.057466499507427216 0.12804600596427917 0.025002799928188324
0.057466499507427216 0.12804600596427917 0.05888089910149574
0.04193909838795662 0.02500009909272194 0.05888089910149574
0.04193909838795662 0.02500000037252903 0.025002799928188324
0.02500000037252903 0.9749990105628967 0.0588781014084816
0.02500000037252903 0.02500009909272194 0.05888089910149574
0.02500000037252903 0.02500000037252903 0.025002799928188324
0.02500000037252903 0.9749990105628967 0.02500000037252903
0.03346949815750122 0.9749990105628967 0.02500000037252903
0.03346949815750122 0.9749990105628967 0.0588781014084816
0.04617379978299141 0.36378100514411926 0.05040999874472618
0.42306798696517944 0.3764849901199341 0.05040999874472618
0.42306798696517944 0.33837199211120605 0.0504113994538784
0.04617379978299141 0.32566800713539124 0.0504113994538784
0.04617379978299141 0.36378100514411926 0.025001399219036102
0.04617379978299141 0.32566800713539124 0.025002799928188324
0.42306798696517944 0.33837199211120605 0.025002799928188324
0.42306798696517944 0.3764849901199341 0.025001399219036102
0.04617379978299141 0.16474699974060059 0.0504113994538784
0.42306798696517944 0.16474699974060059 0.0504113994538784
0.42306798696517944 0.12663400173187256 0.0504113994538784
0.04617379978299141 0.12663400173187256 0.0504113994538784
0.04617379978299141 0.16474699974060059 0.03347240015864372
0.04617379978299141 0.12663400173187256 0.03347240015864372
0.42306798696517944 0.12663400173187256 0.03347240015864372
0.42306798696517944 0.16474699974060059 0.03347240015864372
0.444242000579834 0.3778969943523407 0.05040999874472618
0.444242000579834 0.02500009909272194 0.0504113994538784
0.42306798696517944 0.02500009909272194 0.0504113994538784
0.42306798696517944 0.02500000037252903 0.025002799928188324
0.444242000579834 0.02500000037252903 0.025002799928188324
0.444242000579834 0.3778969943523407 0.025001399219036102
0.057466499507427216 0.8112559914588928 0.3976599872112274
0.057466499507427216 0.8112559914588928 0.36378198862075806
0.057466499507427216 0.12804700434207916 0.36378398537635803
0.057466499507427216 0.12804700434207916 0.3976620137691498
0.04193909838795662 0.025001399219036102 0.3976629972457886
0.04193909838795662 0.025001300498843193 0.3637849986553192
0.02500000037252903 0.9750000238418579 0.3976590037345886
0.02500000037252903 0.025001399219036102 0.3976629972457886
0.02500000037252903 0.025001300498843193 0.3637849986553192
0.02500000037252903 0.9750000238418579 0.36378100514411926
0.03346949815750122 0.9750000238418579 0.36378100514411926
0.03346949815750122 0.9750000238418579 0.3976590037345886
0.07581719756126404 0.1478089988231659 0.37225401401519775
0.09275619685649872 0.1478089988231659 0.37225401401519775
0.09275619685649872 0.12663599848747253 0.37225401401519775
0.07581719756126404 0.12663599848747253 0.37225401401519775
0.07581719756126404 0.1478080004453659 0.0504113994538784
0.07581719756126404 0.12663400173187256 0.0504113994538784
0.09275619685649872 0.12663400173187256 0.0504113994538784
0.09275619685649872 0.1478080004453659 0.0504113994538784
0.42306798696517944 0.33837398886680603 0.3702549934387207
0.42306798696517944 0.37648698687553406 0.3702549934387207
0.444242000579834 0.3778980076313019 0.3702549934387207
0.444242000579834 0.33837398886680603 0.3702549934387207
0.42306798696517944 0.33837199211120605 0.051628198474645615
0.444242000579834 0.33837199211120605 0.051628198474645615
0.444242000579834 0.3778969943523407 0.05162680149078369
0.42306798696517944 0.3764849901199341 0.05162680149078369
0.03346949815750122 0.9453570246696472 0.2917900085449219
0.03346949815750122 0.9199479818344116 0.2917900085449219
0.03346949815750122 0.9199479818344116 0.26638200879096985
0.03346949815750122 0.9453570246696472 0.26638099551200867
0.03791600093245506 0.9453570246696472 0.26638099551200867
0.03791600093245506 0.9453570246696472 0.2917900085449219
0.041727300733327866 0.9199479818344116 0.26638200879096985
0.041727300733327866 0.9199479818344116 0.2917900085449219
0.03346949815750122 0.9453570246696472 0.22403399646282196
0.03346949815750122 0.9199479818344116 0.22403399646282196
0.03346949815750122 0.9199479818344116 0.19862499833106995
0.03346949815750122 0.9453570246696472 0.19862499833106995
0.03791600093245506 0.9453570246696472 0.19862499833106995
0.03791600093245506 0.9453570246696472 0.22403399646282196
0.041727300733327866 0.9199479818344116 0.19862499833106995
0.041727300733327866 0.9199479818344116 0.22403399646282196
0.03346949815750122 0.9453570246696472 0.15627799928188324
0.03346949815750122 0.9199479818344116 0.15627799928188324
0.03346949815750122 0.9199470281600952 0.13086900115013123
0.03346949815750122 0.9453549981117249 0.13086900115013123
0.03791600093245506 0.9453549981117249 0.13086900115013123
0.03791600093245506 0.9453570246696472 0.15627799928188324
0.041727300733327866 0.9199470281600952 0.13086900115013123
0.041727300733327866 0.9199479818344116 0.15627799928188324
0.02500000037252903 0.8903030157089233 0.0588781014084816
0.02500000037252903 0.8903049826622009 0.36378100514411926
0.04617379978299141 0.8903030157089233 0.0588781014084816
0.04617379978299141 0.8903049826622009 0.36378100514411926
0.10931199789047241 0.3769960105419159 0.3976610004901886
0.10910999774932861 0.38546299934387207 0.3976610004901886
0.4350929856300354 0.3932580053806305 0.3976610004901886
0.4352959990501404 0.38479098677635193 0.3976610004901886
0.10931199789047241 0.3769949972629547 0.02684919908642769
0.426827996969223 0.38458800315856934 0.02684919908642769
0.4266270101070404 0.3930540084838867 0.02684919908642769
0.10910999774932861 0.3854610025882721 0.02684919908642769
0.10104800015687943 0.36832600831985474 0.38919198513031006
0.4354979991912842 0.37632399797439575 0.38919198513031006
0.4354979991912842 0.37632301449775696 0.03531869873404503
0.10104800015687943 0.36832499504089355 0.03531869873404503
0.44376298785209656 0.3849940001964569 0.38919198513031006
0.44356098771095276 0.3934609889984131 0.38919198513031006
0.44356098771095276 0.3934600055217743 0.04378819838166237
0.44376298785209656 0.3849929869174957 0.04378819838166237
0.4088830053806305 0.4265190064907074 0.36378300189971924
0.125233992934227 0.41973599791526794 0.36378300189971924
0.125233992934227 0.41973501443862915 0.06072729825973511
0.4088830053806305 0.4265179932117462 0.06072729825973511
0.09217560291290283 0.3850589990615845 0.3807219862937927
0.09237819910049438 0.3765909969806671 0.3807219862937927
0.09237819910049438 0.3765900135040283 0.04378819838166237
0.09217560291290283 0.3850579857826233 0.04378819838166237
0.10498200356960297 0.37470000982284546 0.3972280025482178
0.10472699999809265 0.3853580057621002 0.397148996591568
0.10094600170850754 0.3725599944591522 0.3959589898586273
0.10064300149679184 0.38526099920272827 0.39571601152420044
0.09582780301570892 0.3706839978694916 0.39393699169158936
0.09610450267791748 0.38515201210975647 0.39347198605537415
0.11138000339269638 0.39428800344467163 0.39650699496269226
0.43116500973701477 0.40193501114845276 0.39650699496269226
0.1140730008482933 0.40252599120140076 0.39312198758125305
0.4266360104084015 0.4100010097026825 0.39312198758125305
0.11700399965047836 0.40961501002311707 0.3877379894256592
0.4218200147151947 0.41690298914909363 0.3877379894256592
0.43728500604629517 0.3933109939098358 0.3973729908466339
0.4375390112400055 0.38265201449394226 0.3973729908466339
0.4393270015716553 0.3933590054512024 0.3965260088443756
0.43963098526000977 0.3806590139865875 0.3965260088443756
0.4410809874534607 0.39340201020240784 0.39518100023269653
0.44142699241638184 0.378946989774704 0.39518100023269653
0.10498200356960297 0.3746980130672455 0.02728250063955784
0.4312649965286255 0.3824999928474426 0.02728250063955784
0.10094600170850754 0.37255799770355225 0.028551600873470306
0.43539801239967346 0.38055598735809326 0.028551600873470306
0.09624259918928146 0.37069201469421387 0.030572999268770218
0.4406000077724457 0.37892600893974304 0.030570099130272865
0.4310089945793152 0.39315900206565857 0.02736159972846508
0.4350929856300354 0.3932560086250305 0.0287942998111248
0.43963098526000977 0.3933649957180023 0.031037399545311928
0.42393699288368225 0.401760995388031 0.02800389938056469
0.11138000339269638 0.39428699016571045 0.02800389938056469
0.42085298895835876 0.4098609983921051 0.03138880059123039
0.1140730008482933 0.40252500772476196 0.03138880059123039
0.417587012052536 0.41679999232292175 0.036772601306438446
0.11700399965047836 0.4096139967441559 0.036772601306438446
0.10472699999809265 0.38535699248313904 0.02736159972846508
0.10064300149679184 0.3852599859237671 0.0287942998111248
0.09636309742927551 0.3851569890975952 0.03103880025446415
0.09884940087795258 0.3685629963874817 0.3913840055465698
0.43768298625946045 0.37666401267051697 0.3913840055465698
0.0967869982123375 0.36935898661613464 0.3934270143508911
0.4397050142288208 0.37755900621414185 0.3934270143508911
0.43768298625946045 0.3766629993915558 0.03312649950385094
0.4397050142288208 0.37755799293518066 0.03108390048146248
0.09884940087795258 0.3685620129108429 0.03312649950385094
0.0967869982123375 0.36935800313949585 0.03108390048146248
0.4435270130634308 0.3827950060367584 0.3913840055465698
0.4432719945907593 0.393453985452652 0.3913840055465698
0.44273000955581665 0.38073301315307617 0.3934270143508911
0.44242599606513977 0.39343398809432983 0.3934270143508911
0.4421980082988739 0.40219900012016296 0.385470986366272
0.4421980082988739 0.402197003364563 0.04626839980483055
0.438618004322052 0.4102869927883148 0.38113701343536377
0.438618004322052 0.410286009311676 0.049157898873090744
0.43306800723075867 0.41717299818992615 0.37648698687553406
0.43306800723075867 0.41717100143432617 0.05225779861211777
0.44304901361465454 0.39344701170921326 0.039403799921274185
0.44338300824165344 0.38279101252555847 0.039403799921274185
0.4416159987449646 0.3934130072593689 0.03531869873404503
0.44216200709342957 0.38071900606155396 0.03531869873404503
0.41263100504875183 0.4254550039768219 0.37255099415779114
0.12278199940919876 0.41852399706840515 0.37255099415779114
0.417043000459671 0.42217400670051575 0.3807219862937927
0.1199750006198883 0.4150710105895996 0.3807219862937927
0.1164959967136383 0.4183729887008667 0.3662639856338501
0.1164959967136383 0.4183709919452667 0.058247100561857224
0.10840799659490585 0.414793998003006 0.3691529929637909
0.10840799659490585 0.4147930145263672 0.05535760149359703
0.10152299702167511 0.40924400091171265 0.3722530007362366
0.10152299702167511 0.40924298763275146 0.05225779861211777
0.12278199940919876 0.4185220003128052 0.05195850133895874
0.4113900065422058 0.4254240095615387 0.05195850133895874
0.1199750006198883 0.4150699973106384 0.04378819838166237
0.414357990026474 0.4221090078353882 0.04378819838166237
0.41767600178718567 0.4255729913711548 0.058247100561857224
0.41767600178718567 0.42557498812675476 0.3675040006637573
0.42592498660087585 0.4223859906196594 0.05535760149359703
0.42592498660087585 0.4223870038986206 0.37183699011802673
0.09268759936094284 0.38506999611854553 0.38510599732398987
0.09286340326070786 0.3744100034236908 0.38510599732398987
0.09412039816379547 0.3851040005683899 0.38919198513031006
0.09418109804391861 0.3723990023136139 0.38919198513031006
0.09286340326070786 0.3744089901447296 0.039403799921274185
0.09418109804391861 0.3723970055580139 0.03531869873404503
0.09268759936094284 0.38506901264190674 0.039403799921274185
0.09412039816379547 0.3851029872894287 0.03531869873404503
0.09312009811401367 0.39385101199150085 0.04626839980483055
0.09312009811401367 0.39385199546813965 0.37824100255966187
0.0963084027171135 0.40209999680519104 0.049157898873090744
0.0963084027171135 0.4021010100841522 0.37535300850868225
0.43463999032974243 0.40027499198913574 0.3961620032787323
0.4311169981956482 0.40799298882484436 0.393204003572464
0.4276149868965149 0.4163770079612732 0.38881200551986694
0.4372529983520508 0.3999429941177368 0.3954859972000122
0.4343990087509155 0.4071190059185028 0.39291998744010925
0.43254101276397705 0.4144980013370514 0.3895539939403534
0.43899300694465637 0.40094900131225586 0.3943080008029938
0.4355959892272949 0.4076859951019287 0.39169201254844666
0.4336859881877899 0.41202300786972046 0.3882330060005188
0.4180929958820343 0.42407000064849854 0.3728500008583069
0.42513400316238403 0.4211040139198303 0.37569600343704224
0.43312400579452515 0.4165079891681671 0.3802010118961334
0.42147698998451233 0.42101699113845825 0.37999799847602844
0.4272559881210327 0.4184829890727997 0.38148900866508484
0.43329301476478577 0.4145149886608124 0.38383999466896057
0.44155699014663696 0.4004400074481964 0.388823002576828
0.4406070113182068 0.4000230133533478 0.39160698652267456
0.4381299912929535 0.4081610143184662 0.38502299785614014
0.43737998604774475 0.4071910083293915 0.388359010219574
0.1067890003323555 0.3924350142478943 0.3956199884414673
0.10217099636793137 0.3919309973716736 0.39414799213409424
0.09704100340604782 0.39277198910713196 0.391851007938385
0.10928100347518921 0.4002990126609802 0.39239200949668884
0.1045370027422905 0.39923301339149475 0.39113301038742065
0.09954480081796646 0.3996489942073822 0.3888989984989166
0.11201400309801102 0.4088299870491028 0.38754400610923767
0.10736499726772308 0.40672099590301514 0.3869589865207672
0.10286500304937363 0.4041129946708679 0.3864760100841522
0.09380649775266647 0.3921259939670563 0.38292500376701355
0.09663130342960358 0.3999969959259033 0.3805620074272156
0.10090100020170212 0.4085640013217926 0.37863799929618835
0.09507600218057632 0.39176300168037415 0.3874160051345825
0.09757050126791 0.3990660011768341 0.3852820098400116
0.1010340005159378 0.4065699875354767 0.3841640055179596
0.11690299957990646 0.4168680012226105 0.37222498655319214
0.1152070015668869 0.41369301080703735 0.37946999073028564
0.10958000272512436 0.4135580062866211 0.37429898977279663
0.10894700139760971 0.4108709990978241 0.38052499294281006
0.42861101031303406 0.4001289904117584 0.028890300542116165
0.43324801325798035 0.39984700083732605 0.030361199751496315
0.43833300471305847 0.4009320139884949 0.03265789896249771
0.42574700713157654 0.40786299109458923 0.032118599861860275
0.4305349886417389 0.4070259928703308 0.03337639942765236
0.4355030059814453 0.4076809883117676 0.035610899329185486
0.42260900139808655 0.41625499725341797 0.03696740046143532
0.42735299468040466 0.4143719971179962 0.03755180165171623
0.43197399377822876 0.4119809865951538 0.038034599274396896
0.4415940046310425 0.4004400074481964 0.04158620163798332
0.43839600682258606 0.4081670045852661 0.043949201703071594
0.43372100591659546 0.41652101278305054 0.04587170109152794
0.4403429925441742 0.40001600980758667 0.03709449991583824
0.43750301003456116 0.40719398856163025 0.03922739997506142
0.43368300795555115 0.41452300548553467 0.04034680128097534
0.4173409938812256 0.4240509867668152 0.052285999059677124
0.4191870093345642 0.420960009098053 0.045040298253297806
0.42481398582458496 0.42109400033950806 0.05021100118756294
0.42557498812675476 0.4184400141239166 0.04398589953780174
0.10673999786376953 0.3924329876899719 0.028665900230407715
0.10891599953174591 0.40028899908065796 0.03168389946222305
0.11063700169324875 0.40879499912261963 0.03617129847407341
0.10225900262594223 0.39193201065063477 0.029971599578857422
0.1042189970612526 0.39922401309013367 0.032636698335409164
0.10516099631786346 0.4066680073738098 0.036277201026678085
0.09780219942331314 0.39278900623321533 0.03207769989967346
0.10058999806642532 0.3996730148792267 0.03468070179224014
0.10290800034999847 0.4041129946708679 0.038034599274396896
0.11685899645090103 0.4168660044670105 0.052332598716020584
0.10969000309705734 0.4135589897632599 0.050562500953674316
0.10173399746417999 0.40858200192451477 0.0472509004175663
0.11485999822616577 0.4136829972267151 0.0449414998292923
0.1086990013718605 0.4108630120754242 0.044249799102544785
0.10236600041389465 0.4065999984741211 0.04255170002579689
0.09404829889535904 0.39212799072265625 0.041649699211120605
0.09552890062332153 0.39177098870277405 0.037064798176288605
0.09708940237760544 0.4000050127506256 0.0443245992064476
0.09837000072002411 0.3990829885005951 0.039590198546648026
3 0 3 1
3 2 1 3
3 2 8 1
3 4 7 5
3 6 5 7
3 0 4 3
3 5 3 4
3 3 5 2
3 6 2 5
3 6 8 2
3 6 9 8
3 10 8 11
3 9 11 8
3 11 7 10
3 1 10 7
3 0 1 4
3 7 4 1
3 10 1 8
3 7 11 6
3 9 6 11
3 12 15 13
3 14 13 15
3 14 20 13
3 16 19 17
3 18 17 19
3 12 16 15
3 17 15 16
3 15 17 14
3 18 14 17
3 18 20 14
3 18 21 20
3 22 20 23
3 21 23 20
3 23 19 22
3 13 22 19
3 12 13 16
3 19 16 13
3 22 13 20
3 19 23 18
3 21 18 23
3 24 27 25
3 26 25 27
3 26 32 25
3 28 31 29
3 30 29 31
3 24 28 27
3 29 27 28
3 27 29 26
3 30 26 29
3 30 32 26
3 30 33 32
3 34 32 35
3 33 35 32
3 35 31 34
3 25 34 31
3 24 25 28
3 31 28 25
3 34 25 32
3 31 35 30
3 33 30 35
3 36 39 37
3 38 37 39
3 38 44 37
3 40 43 41
3 42 41 43
3 36 40 39
3 41 39 40
3 39 41 38
3 42 38 41
3 42 44 38
3 42 45 44
3 46 44 47
3 45 47 44
3 47 43 46
3 37 46 43
3 36 37 40
3 43 40 37
3 46 37 44
3 43 47 42
3 45 42 47
3 51 50 49
3 55 54 53
3 52 53 51
3 53 54 50
3 54 55 49
3 55 52 48
3 59 58 57
3 63 62 61
3 60 61 59
3 61 62 58
3 62 63 57
3 63 60 56
3 66 65 64
3 70 69 68
3 67 68 66
3 68 69 65
3 69 70 64
3 70 67 49
3 75 76 74
3 73 74 76
3 73 71 74
3 73 72 71
3 82 71 72
3 82 72 81
3 78 77 79
3 80 79 77
3 81 72 80
3 73 80 72
3 73 79 80
3 73 76 79
3 78 75 77
3 74 77 75
3 74 82 77
3 74 71 82
3 77 82 80
3 81 80 82
3 78 79 75
3 76 75 79
3 86 85 84
3 90 89 88
3 87 88 86
3 88 89 85
3 89 90 84
3 90 87 83
3 94 93 92
3 98 97 96
3 95 96 94
3 96 97 93
3 97 98 92
3 98 95 91
3 101 100 99
3 104 103 102
3 90 102 101
3 102 103 100
3 103 104 99
3 104 90 84
3 109 110 108
3 107 108 110
3 107 105 108
3 107 106 105
3 116 105 106
3 116 106 115
3 112 111 113
3 114 113 111
3 115 106 114
3 107 114 106
3 107 113 114
3 107 110 113
3 112 109 111
3 108 111 109
3 108 116 111
3 108 105 116
3 111 116 114
3 115 114 116
3 112 113 109
3 110 109 113
3 120 119 118
3 124 123 122
3 121 122 120
3 122 123 119
3 123 124 118
3 124 121 117
3 128 127 126
3 132 131 130
3 129 130 128
3 130 131 127
3 131 132 126
3 132 129 125
3 136 135 134
3 138 137 136
3 137 139 135
3 139 140 134
3 140 138 133
3 140 139 137
3 144 143 142
3 146 145 144
3 145 147 143
3 147 148 142
3 148 146 141
3 148 147 145
3 152 151 150
3 154 153 152
3 153 155 151
3 155 156 150
3 156 154 149
3 156 155 153
3 115 138 145
3 149 152 151
3 149 154 153
3 152 153 155
3 151 155 156
3 150 156 154
3 141 144 143
3 141 146 145
3 144 145 147
3 143 147 148
3 142 148 146
3 133 136 135
3 133 138 137
3 136 137 139
3 135 139 140
3 134 140 138
3 114 115 77
3 82 77 115
3 158 114 157
3 77 157 114
3 158 157 160
3 159 160 157
3 114 158 115
3 160 115 158
3 157 77 159
3 82 159 77
3 156 139 155
3 159 155 139
3 159 153 155
3 159 82 153
3 145 153 82
3 138 115 140
3 160 140 115
3 160 139 140
3 160 159 139
3 147 156 145
3 154 145 156
3 154 153 145
3 139 148 137
3 146 137 148
3 207 220 205
3 219 205 220
3 219 203 205
3 219 218 203
3 165 203 218
3 165 218 168
3 165 168 166
3 167 166 168
3 167 204 166
3 167 209 204
3 206 204 209
3 206 209 210
3 206 210 208
3 211 208 210
3 166 204 165
3 203 165 204
3 204 206 203
3 205 203 206
3 206 208 205
3 207 205 208
3 226 225 228
3 227 228 225
3 228 207 226
3 208 226 207
3 228 227 223
3 221 223 227
3 223 189 228
3 207 228 189
3 208 211 242
3 241 242 211
3 241 239 242
3 241 323 239
3 320 239 323
3 320 323 324
3 320 324 321
3 325 321 324
3 325 322 321
3 242 239 240
3 175 240 239
3 175 176 240
3 175 174 176
3 173 176 174
3 173 174 230
3 173 230 229
3 232 229 230
3 232 231 229
3 232 201 231
3 202 231 201
3 202 201 200
3 173 229 176
3 240 176 229
3 229 231 240
3 242 240 231
3 231 202 242
3 208 242 202
3 208 202 226
3 224 226 202
3 224 225 226
3 224 222 225
3 171 225 222
3 171 222 170
3 171 170 172
3 169 172 170
3 169 221 172
3 169 222 221
3 224 221 222
3 169 170 222
3 221 224 223
3 189 223 224
3 224 202 189
3 200 189 202
3 200 187 189
3 200 198 187
3 185 187 198
3 185 198 164
3 185 164 161
3 163 161 164
3 163 162 161
3 163 192 162
3 191 162 192
3 191 192 194
3 191 194 193
3 196 193 194
3 196 195 193
3 196 245 195
3 246 195 245
3 246 245 243
3 246 243 244
3 177 244 243
3 177 178 244
3 177 179 178
3 248 178 179
3 248 179 253
3 248 253 339
3 255 339 253
3 255 342 339
3 255 217 342
3 332 342 217
3 332 217 215
3 332 215 331
3 213 331 215
3 213 330 331
3 213 168 330
3 218 330 168
3 161 162 185
3 186 185 162
3 186 187 185
3 186 188 187
3 189 187 188
3 189 188 190
3 168 213 167
3 212 167 213
3 212 311 167
3 212 314 311
3 315 311 314
3 315 314 318
3 315 318 319
3 329 319 318
3 329 325 319
3 329 328 325
3 322 325 328
3 213 215 212
3 214 212 215
3 214 314 212
3 214 317 314
3 318 314 317
3 318 317 329
3 215 217 214
3 216 214 217
3 216 317 214
3 216 327 317
3 329 317 327
3 329 327 328
3 225 171 227
3 172 227 171
3 172 221 227
3 265 266 262
3 264 262 266
3 264 266 189
3 207 189 266
3 277 280 278
3 281 278 280
3 279 289 280
3 291 280 289
3 291 281 280
3 291 287 281
3 278 281 287
3 278 287 286
3 278 286 275
3 285 275 286
3 190 188 294
3 293 294 188
3 293 297 294
3 293 296 297
3 300 297 296
3 300 296 299
3 300 299 306
3 310 306 299
3 310 303 306
3 310 309 303
3 188 186 293
3 292 293 186
3 292 296 293
3 292 295 296
3 299 296 295
3 299 295 298
3 299 298 310
3 308 310 298
3 308 309 310
3 308 307 309
3 247 309 307
3 247 307 244
3 247 244 178
3 178 248 247
3 250 247 248
3 250 249 247
3 250 252 249
3 251 249 252
3 251 252 271
3 251 271 272
3 269 272 271
3 269 270 272
3 269 184 270
3 181 270 184
3 181 184 183
3 181 183 182
3 265 182 183
3 265 262 182
3 182 262 181
3 261 181 262
3 261 301 181
3 261 304 301
3 305 301 304
3 305 304 294
3 305 294 297
3 262 264 261
3 263 261 264
3 263 304 261
3 263 190 304
3 294 304 190
3 264 189 263
3 190 263 189
3 183 184 265
3 267 265 184
3 267 266 265
3 267 268 266
3 207 266 268
3 207 268 220
3 186 162 292
3 191 292 162
3 191 295 292
3 191 193 295
3 298 295 193
3 298 193 195
3 298 195 308
3 246 308 195
3 246 307 308
3 246 244 307
3 181 301 270
3 302 270 301
3 302 272 270
3 302 303 272
3 251 272 303
3 251 303 249
3 301 305 302
3 306 302 305
3 306 303 302
3 297 300 305
3 306 305 300
3 247 249 309
3 303 309 249
3 167 311 209
3 312 209 311
3 312 210 209
3 312 211 210
3 211 312 313
3 315 313 312
3 315 316 313
3 315 319 316
3 311 315 312
3 239 320 175
3 234 175 320
3 234 174 175
3 234 233 174
3 288 174 233
3 174 288 230
3 289 230 288
3 289 232 230
3 289 279 232
3 201 232 279
3 201 279 199
3 201 199 200
3 198 200 199
3 289 288 291
3 290 291 288
3 290 287 291
3 290 284 287
3 286 287 284
3 286 284 283
3 286 283 285
3 282 285 283
3 282 245 285
3 282 243 245
3 245 196 285
3 275 285 196
3 196 194 275
3 274 275 194
3 274 278 275
3 274 277 278
3 194 192 274
3 273 274 192
3 273 277 274
3 273 276 277
3 280 277 276
3 280 276 279
3 192 163 273
3 197 273 163
3 197 276 273
3 197 199 276
3 279 276 199
3 163 164 197
3 198 197 164
3 198 199 197
3 288 233 290
3 235 290 233
3 235 284 290
3 235 237 284
3 283 284 237
3 283 237 260
3 283 260 258
3 257 258 260
3 257 180 258
3 257 326 180
3 254 180 326
3 254 326 256
3 254 256 255
3 217 255 256
3 255 253 254
3 180 254 253
3 253 179 180
3 177 180 179
3 177 258 180
3 177 243 258
3 282 258 243
3 217 256 216
3 327 216 256
3 282 283 258
3 320 321 234
3 236 234 321
3 236 233 234
3 236 235 233
3 321 322 236
3 238 236 322
3 238 235 236
3 238 237 235
3 211 313 241
3 323 241 313
3 313 316 323
3 324 323 316
3 325 324 319
3 316 319 324
3 256 326 327
3 328 327 326
3 326 257 328
3 259 328 257
3 259 238 328
3 259 237 238
3 257 260 259
3 237 259 260
3 238 322 328
3 332 331 335
3 334 335 331
3 334 338 335
3 334 337 338
3 331 330 334
3 333 334 330
3 333 336 334
3 333 220 336
3 330 218 333
3 219 333 218
3 219 220 333
3 336 337 334
3 248 340 250
3 341 250 340
3 341 252 250
3 341 271 252
3 248 339 340
3 342 340 339
3 342 343 340
3 342 332 343
3 335 343 332
3 340 343 341
3 344 341 343
3 344 347 341
3 344 348 347
3 345 347 348
3 345 348 346
3 345 346 267
3 268 267 346
3 343 335 344
3 338 344 335
3 338 348 344
3 338 337 348
3 336 348 337
3 267 184 345
3 269 345 184
3 269 347 345
3 269 271 347
3 341 347 271
3 268 346 220
3 336 220 346
3 346 348 336
3 51 49 48
3 55 53 52
3 52 51 48
3 53 50 51
3 54 49 50
3 55 48 49
3 59 57 56
3 63 61 60
3 60 59 56
3 61 58 59
3 62 57 58
3 63 56 57
3 66 64 49
3 70 68 67
3 67 66 49
3 68 65 66
3 69 64 65
3 70 49 64
3 86 84 83
3 90 88 87
3 87 86 83
3 88 85 86
3 89 84 85
3 90 83 84
3 94 92 91
3 98 96 95
3 95 94 91
3 96 93 94
3 97 92 93
3 98 91 92
3 101 99 84
3 104 102 90
3 90 101 84
3 102 100 101
3 103 99 100
3 104 84 99
3 120 118 117
3 124 122 121
3 121 120 117
3 122 119 120
3 123 118 119
3 124 117 118
3 128 126 125
3 132 130 129
3 129 128 125
3 130 127 128
3 131 126 127
3 132 125 126
3 136 134 133
3 138 136 133
3 137 135 136
3 139 134 135
3 140 133 134
3 140 137 138
3 144 142 141
3 146 144 141
3 145 143 144
3 147 142 143
3 148 141 142
3 148 145 146
3 152 150 149
3 154 152 149
3 153 151 152
3 155 150 151
3 156 149 150
3 156 153 154
3 115 145 82
3 149 151 150
3 149 153 152
3 152 155 151
3 151 156 150
3 150 154 149
3 141 143 142
3 141 145 144
3 144 147 143
3 143 148 142
3 142 146 141
3 133 135 134
3 133 137 136
3 136 139 135
3 135 140 134
3 134 138 133
