ply
format ascii 1.0
element vertex 334
property float x
property float y
property float z
element face 692
property list uchar int vertex_indices
end_header
0.43532100319862366 0.02500000037252903 0.43532100319862366
0.39243200421333313 0.02500000037252903 0.43532100319862366
0.39243200421333313 0.02500000037252903 0.39243099093437195
0.43532100319862366 0.02500000037252903 0.39243099093437195
0.39827999472618103 0.22259199619293213 0.45894500613212585
0.3700689971446991 0.21972499787807465 0.45298099517822266
0.3803899884223938 0.22534500062465668 0.4035550057888031
0.40837201476097107 0.22809499502182007 0.40963301062583923
0.3735089898109436 0.2361229956150055 0.4294719994068146
0.4017210006713867 0.23887500166893005 0.4355500042438507
0.404013991355896 0.36594000458717346 0.3951829969882965
0.38658300042152405 0.3646790087223053 0.3868120014667511
0.40126198530197144 0.35367000102996826 0.35802701115608215
0.41857799887657166 0.3548159897327423 0.36639899015426636
0.3948400020599365 0.36789000034332275 0.3696100115776062
0.41215598583221436 0.3691509962081909 0.3779810070991516
0.4178900122642517 0.4430049955844879 0.32752200961112976
0.40860098600387573 0.4393349885940552 0.31949499249458313
0.42350998520851135 0.4276379942893982 0.30687999725341797
0.4331429898738861 0.43130698800086975 0.3147929906845093
0.4168579876422882 0.438416987657547 0.30963200330734253
0.42649099230766296 0.44231700897216797 0.31777501106262207
0.4581429958343506 0.47603198885917664 0.2730500102043152
0.45011499524116516 0.47224798798561096 0.2642210125923157
0.45745500922203064 0.4625000059604645 0.2621549963951111
0.46525299549102783 0.4661700129508972 0.2707560062408447
0.48153701424598694 0.5076839923858643 0.22431200742721558
0.4740830063819885 0.5022940039634705 0.21719999611377716
0.4817669987678528 0.4936929941177368 0.21525099873542786
0.48933500051498413 0.499083012342453 0.22258999943733215
0.4903680086135864 0.5319960117340088 0.17006699740886688
0.49919798970222473 0.5251150131225586 0.16857700049877167
0.5053899884223938 0.5317659974098206 0.17522799968719482
0.4965600073337555 0.5386469960212708 0.17671999335289001
0.5185790061950684 0.5666289925575256 0.13336999714374542
0.5237389802932739 0.5711010098457336 0.14151200652122498
0.5151379704475403 0.5771790146827698 0.14369100332260132
0.5099779963493347 0.57259202003479 0.13566599786281586
0.534633994102478 0.6099770069122314 0.10561899840831757
0.5361239910125732 0.6153669953346252 0.11399099975824356
0.5264919996261597 0.6184639930725098 0.11376100033521652
0.5250009894371033 0.613074004650116 0.10538899898529053
0.5527529716491699 0.6519500017166138 0.0838288962841034
0.5532119870185852 0.6564220190048218 0.09220089763402939
0.544152021408081 0.6597480177879333 0.09116789698600769
0.5436930060386658 0.6551610231399536 0.0825686976313591
0.5746570229530334 0.694724977016449 0.07637520134449005
0.5670880079269409 0.69759202003479 0.07201819866895676
0.569724977016449 0.6927760243415833 0.06467690318822861
0.5772939920425415 0.6900230050086975 0.06903620064258575
0.5793589949607849 0.7360090017318726 0.054013900458812714
0.5827990174293518 0.7319959998130798 0.04736129939556122
0.5903679728507996 0.7313079833984375 0.051146700978279114
0.5871570110321045 0.7354350090026855 0.05802660062909126
0.5911700129508972 0.7669739723205566 0.02500000037252903
0.5970190167427063 0.7691529989242554 0.03027530014514923
0.5916290283203125 0.7730510234832764 0.03486179932951927
0.5856660008430481 0.7708719968795776 0.02970140054821968
0.4049319922924042 0.5027520060539246 0.30034399032592773
0.41009199619293213 0.5057340264320374 0.3111230134963989
0.39931198954582214 0.5040140151977539 0.3169719874858856
0.3941519856452942 0.5010319948196411 0.306192010641098
0.3862389922142029 0.5563070178031921 0.27970099449157715
0.38795900344848633 0.5612390041351318 0.2902520000934601
0.3769499957561493 0.5583720207214355 0.2933480143547058
0.37523001432418823 0.5534409880638123 0.28279799222946167
0.3745419979095459 0.6151379942893982 0.2754580080509186
0.36387598514556885 0.613303005695343 0.2779810130596161
0.36192700266838074 0.6099770069122314 0.2676590085029602
0.3724769949913025 0.6119269728660583 0.26490700244903564
0.34965598583221436 0.665710985660553 0.26594001054763794
0.3498860001564026 0.6635329723358154 0.25561898946762085
0.3602069914340973 0.6659409999847412 0.25504499673843384
0.35997700691223145 0.6681200265884399 0.2655960023403168
0.34036698937416077 0.7173169851303101 0.26146799325942993
0.34185799956321716 0.7168580293655396 0.25160399079322815
0.3518350124359131 0.7188079953193665 0.2528670132160187
0.35023000836372375 0.7190369963645935 0.26295799016952515
0.33841800689697266 0.7682340145111084 0.2589449882507324
0.3425459861755371 0.7682340145111084 0.25011399388313293
0.35114699602127075 0.7684640288352966 0.25412699580192566
0.34724798798561096 0.7684640288352966 0.2627280056476593
0.3440369963645935 0.8168590068817139 0.256307989358902
0.35217899084091187 0.8160560131072998 0.260206013917923
0.3483949899673462 0.8151379823684692 0.26834800839424133
0.3401379883289337 0.8158259987831116 0.2644500136375427
0.3533259928226471 0.8613550066947937 0.260206013917923
0.35997700691223145 0.8596330285072327 0.26536598801612854
0.35504600405693054 0.8598629832267761 0.27224698662757874
0.34816500544548035 0.8615840077400208 0.26731500029563904
0.3636470139026642 0.9026389718055725 0.2592869997024536
0.36880800127983093 0.901606023311615 0.2655960023403168
0.3627299964427948 0.9030979871749878 0.27098599076271057
0.35756900906562805 0.9041280150413513 0.2646769881248474
0.4066520035266876 0.4577980041503906 0.37224701046943665
0.4153670072555542 0.4573400020599365 0.381879985332489
0.3986240029335022 0.4573400020599365 0.39736199378967285
0.3897939920425415 0.45802798867225647 0.38795799016952515
0.40722501277923584 0.4636470079421997 0.3897930085659027
0.39839500188827515 0.4639909863471985 0.3803899884223938
0.38704198598861694 0.5152519941329956 0.42396798729896545
0.37626200914382935 0.5096330046653748 0.42671999335289
0.37133100628852844 0.5138760209083557 0.4161689877510071
0.38210999965667725 0.5194950103759766 0.41353198885917664
0.37775298953056335 0.5635319948196411 0.4587149918079376
0.36685800552368164 0.5599769949913025 0.4611240029335022
0.36295899748802185 0.5659409761428833 0.4517199993133545
0.3739680051803589 0.5693809986114502 0.44954100251197815
0.3538990020751953 0.6079130172729492 0.49277499318122864
0.3543579876422882 0.6143350005149841 0.4837149977684021
0.36536699533462524 0.6158260107040405 0.4852060079574585
0.36490899324417114 0.6091750264167786 0.49426600337028503
0.3356660008430481 0.6461009979248047 0.5267199873924255
0.3380739986896515 0.6536700129508972 0.5198389887809753
0.3479360044002533 0.6543580293655396 0.523967981338501
0.34529799222946167 0.646789014339447 0.5308489799499512
0.32362401485443115 0.6924319863319397 0.552981972694397
0.3283259868621826 0.6977069973945618 0.5458710193634033
0.33692699670791626 0.6969040036201477 0.5510320067405701
0.3322249948978424 0.6915140151977539 0.5581420063972473
0.31330299377441406 0.7381880283355713 0.5724769830703735
0.31972500681877136 0.7423170208930969 0.5665140151977539
0.32660600543022156 0.7407130002975464 0.5731649994850159
0.3204129934310913 0.7366979718208313 0.579014003276825
0.30791300535202026 0.7861239910125732 0.5766050219535828
0.31135299801826477 0.7854350209236145 0.5849769711494446
0.30344098806381226 0.782226026058197 0.5879589915275574
0.30000001192092896 0.782912015914917 0.5795869827270508
0.2870410084724426 0.8259180188179016 0.586696982383728
0.28773000836372375 0.8244280219078064 0.5952979922294617
0.2801609933376312 0.8202980160713196 0.5950689911842346
0.2795870006084442 0.8217899799346924 0.586467981338501
0.26559698581695557 0.8618119955062866 0.6000000238418579
0.2658259868621826 0.8590589761734009 0.6077979803085327
0.25871598720550537 0.8551610112190247 0.6065369844436646
0.2584860026836395 0.8579139709472656 0.5987390279769897
0.4193809926509857 0.5221329927444458 0.3607789874076843
0.41261500120162964 0.5188069939613342 0.35114601254463196
0.42247700691223145 0.5138760209083557 0.3455269932746887
0.42935800552368164 0.5169730186462402 0.3553889989852905
0.43577998876571655 0.5745419859886169 0.33130699396133423
0.4325689971446991 0.5702980160713196 0.3209860026836395
0.44323399662971497 0.5657110214233398 0.3197239935398102
0.44655999541282654 0.5700690150260925 0.3302749991416931
0.46284499764442444 0.6220189929008484 0.30882999300956726
0.46043598651885986 0.6184639930725098 0.29850900173187256
0.47018399834632874 0.6128439903259277 0.2982789874076843
0.4724780023097992 0.6165140271186829 0.3086000084877014
0.4798170030117035 0.663303017616272 0.2735089957714081
0.48956501483917236 0.658831000328064 0.272706001996994
0.4920879900455475 0.6629589796066284 0.2821100056171417
0.4826839864253998 0.6674320101737976 0.28279799222946167
0.4925459921360016 0.7020649909973145 0.24174199998378754
0.5019500255584717 0.6990829706192017 0.24151299893856049
0.5041289925575256 0.704816997051239 0.249426007270813
0.49472498893737793 0.7079129815101624 0.24965499341487885
0.4965600073337555 0.7381880283355713 0.20837099850177765
0.5060780048370361 0.7386469841003418 0.2096319943666458
0.505046010017395 0.7448400259017944 0.21674300730228424
0.4955280125141144 0.7443810105323792 0.21570999920368195
0.4908260107040405 0.78016197681427 0.1850920021533966
0.49965700507164 0.7818819880485535 0.1860080063343048
0.4981659948825836 0.7861239910125732 0.19392099976539612
0.48933500051498413 0.7841749787330627 0.19311900436878204
0.4905970096588135 0.817546010017395 0.15951700508594513
0.4861240088939667 0.8214460015296936 0.16559499502182007
0.47901400923728943 0.8173159956932068 0.16295799612998962
0.4837160110473633 0.8134179711341858 0.15676400065422058
0.48073500394821167 0.8524090051651001 0.13543599843978882
0.4744270145893097 0.8482810258865356 0.13199500739574432
0.4798170030117035 0.8443809747695923 0.12729400396347046
0.4861240088939667 0.8485109806060791 0.130731999874115
0.37029901146888733 0.35160499811172485 0.5033259987831116
0.38749998807907104 0.34816500544548035 0.511696994304657
0.37224799394607544 0.3298160135746002 0.5360090136528015
0.35504600405693054 0.3330270051956177 0.5275229811668396
0.3788990080356598 0.34667399525642395 0.5288990139961243
0.3616980016231537 0.3498849868774414 0.5205270051956177
0.3386470079421997 0.38165101408958435 0.6048169732093811
0.3483949899673462 0.37522900104522705 0.6107800006866455
0.33497700095176697 0.3567659854888916 0.612500011920929
0.3253439962863922 0.3631879985332489 0.6066510081291199
0.3395650088787079 0.36789000034332275 0.6172019839286804
0.329816997051239 0.37431201338768005 0.6112380027770996
0.29908299446105957 0.3464449942111969 0.6653670072555542
0.29369300603866577 0.3384169936180115 0.6576840281486511
0.2855510115623474 0.3470180034637451 0.654242992401123
0.29117000102996826 0.3552750051021576 0.6619269847869873
0.2634179890155792 0.34185799956321716 0.7149080038070679
0.25527501106262207 0.33589398860931396 0.7088299989700317
0.2501150071620941 0.345986008644104 0.7058489918708801
0.2582570016384125 0.3519499897956848 0.7118120193481445
0.23222500085830688 0.33738499879837036 0.7638769745826721
0.2233940064907074 0.3332569897174835 0.7582579851150513
0.21972499787807465 0.34380701184272766 0.7567660212516785
0.22855499386787415 0.34770599007606506 0.7623850107192993
0.1913989931344986 0.3381879925727844 0.8049319982528687
0.19185799360275269 0.3489679992198944 0.8044729828834534
0.2008029967546463 0.34873801469802856 0.8100919723510742
0.20045900344848633 0.3381879925727844 0.8105509877204895
0.1569949984550476 0.35412800312042236 0.8425469994544983
0.16410599648952484 0.3524079918861389 0.8494269847869873
0.16215600073337555 0.3425459861755371 0.8488529920578003
0.1550460010766983 0.3444949984550476 0.8419730067253113
0.1358949989080429 0.35802799463272095 0.889680027961731
0.1329129934310913 0.3489679992198944 0.8889909982681274
0.12580400705337524 0.3518350124359131 0.8834869861602783
0.1285559982061386 0.3607800006866455 0.8840600252151489
0.09896829724311829 0.3533250093460083 0.9228209853172302
0.09357830137014389 0.358256995677948 0.9172019958496094
0.09759099781513214 0.3657110035419464 0.9199540019035339
0.10298100113868713 0.36100900173187256 0.925574004650116
0.06112330034375191 0.36731600761413574 0.9472489953041077
0.05951869860291481 0.37373799085617065 0.9417440295219421
0.0649086982011795 0.3788990080356598 0.9464449882507324
0.06628379970788956 0.3724769949913025 0.9518349766731262
0.02500000037252903 0.3838300108909607 0.9653679728507996
0.02970140054821968 0.38749998807907104 0.9712169766426086
0.030504800379276276 0.38016000390052795 0.9750000238418579
0.025803500786423683 0.37672001123428345 0.9694949984550476
0.3238529860973358 0.4162839949131012 0.6598619818687439
0.3346329927444458 0.4216740131378174 0.6569949984550476
0.34036698937416077 0.41353198885917664 0.6643350124359131
0.32958799600601196 0.40814200043678284 0.6668580174446106
0.31972500681877136 0.46077999472618103 0.7024080157279968
0.32270699739456177 0.4528670012950897 0.7105510234832764
0.31181201338768005 0.44850900769233704 0.7105510234832764
0.30883100628852844 0.45653700828552246 0.7024080157279968
0.2993119955062866 0.4966740012168884 0.7449550032615662
0.30195000767707825 0.48899099230766296 0.7528679966926575
0.2917430102825165 0.4844039976596832 0.7518349885940552
0.28922000527381897 0.4922020137310028 0.7441509962081909
0.28509199619293213 0.5330280065536499 0.784060001373291
0.2864679992198944 0.5256879925727844 0.7916290163993835
0.27626198530197144 0.5227069854736328 0.7905960083007812
0.2747710049152374 0.5300459861755371 0.7830269932746887
0.2638759911060333 0.5627300143241882 0.8243129849433899
0.2644500136375427 0.5549319982528687 0.8305040001869202
0.25527501106262207 0.5519499778747559 0.8279820084571838
0.25458699464797974 0.5597479939460754 0.8215609788894653
0.2459859997034073 0.5816519856452942 0.8688089847564697
0.2371560037136078 0.579014003276825 0.8662859797477722
0.23658299446105957 0.5868120193481445 0.8606659770011902
0.24552799761295319 0.589335024356842 0.8631889820098877
0.22213299572467804 0.6087160110473633 0.9017199873924255
0.21422000229358673 0.6065369844436646 0.8978220224380493
0.21479399502277374 0.6138759851455688 0.8922029733657837
0.2229360044002533 0.6160550117492676 0.8961009979248047
0.19713300466537476 0.6317660212516785 0.9319970011711121
0.19025200605392456 0.6319959759712219 0.9266070127487183
0.19357800483703613 0.6394500136375427 0.9233949780464172
0.2002290040254593 0.6391059756278992 0.9287850260734558
0.1677750051021576 0.6573399901390076 0.9535549879074097
0.17247700691223145 0.6637619733810425 0.9518349766731262
0.1776379942893982 0.6615830063819885 0.9577990174293518
0.1727059930562973 0.6551610231399536 0.9595190286636353
0.40860098600387573 0.4283260107040405 0.5475919842720032
0.40080299973487854 0.42637598514556885 0.5581420063972473
0.3829129934310913 0.43520599603652954 0.5464450120925903
0.3907110095024109 0.43715599179267883 0.5361239910125732
0.3932340145111084 0.4364680051803589 0.554472029209137
0.4010330140590668 0.438416987657547 0.5441510081291199
0.3877300024032593 0.5012620091438293 0.557682991027832
0.3814220130443573 0.5016059875488281 0.5469040274620056
0.3922019898891449 0.5025230050086975 0.54093998670578
0.39839500188827515 0.5018349885940552 0.5514910221099854
0.3829129934310913 0.5625 0.5357800126075745
0.39438098669052124 0.5620419979095459 0.5333709716796875
0.3966749906539917 0.5637620091438293 0.5447250008583069
0.3853209912776947 0.5639910101890564 0.5471330285072327
0.3845190107822418 0.619953989982605 0.523967981338501
0.39541301131248474 0.620527982711792 0.5262609720230103
0.3931199908256531 0.6222479939460754 0.5370410084724426
0.38210999965667725 0.6216750144958496 0.5346329808235168
0.38360100984573364 0.6738539934158325 0.5114679932594299
0.3922019898891449 0.675803005695343 0.5172020196914673
0.38600999116897583 0.6770650148391724 0.5258030295372009
0.3774090111255646 0.6753450036048889 0.5198389887809753
0.3887619972229004 0.7280960083007812 0.5086010098457336
0.38016098737716675 0.7286700010299683 0.5136470198631287
0.375 0.726606011390686 0.5051599740982056
0.3838309943675995 0.7259179949760437 0.500229001045227
0.368120014667511 0.7753440141677856 0.4981650114059448
0.36399099230766296 0.7719050049781799 0.49036699533462524
0.3724769949913025 0.7723619937896729 0.4856649935245514
0.3764910101890564 0.7760329842567444 0.4935779869556427
0.3464449942111969 0.8121560215950012 0.4744270145893097
0.3548170030117035 0.8155969977378845 0.47270599007606506
0.3552759885787964 0.8185790181159973 0.4813069999217987
0.34678900241851807 0.8153669834136963 0.48302701115608215
0.33440399169921875 0.8544729948043823 0.46043598651885986
0.34277600049972534 0.8571100234985352 0.4600920081138611
0.3420870006084442 0.8594040274620056 0.4684630036354065
0.33394500613212585 0.8571100234985352 0.46869200468063354
0.32064300775527954 0.8955289721488953 0.454243004322052
0.3277530074119568 0.8986240029335022 0.45688000321388245
0.32465600967407227 0.8986240029335022 0.4645639955997467
0.317546010017395 0.8954139947891235 0.46181198954582214
0.43383100628852844 0.4774079918861389 0.5858950018882751
0.44220200181007385 0.4764910042285919 0.5768349766731262
0.4473629891872406 0.4666289985179901 0.5824540257453918
0.43876200914382935 0.4676609933376312 0.5913990139961243
0.47075700759887695 0.5182340145111084 0.6134170293807983
0.47419801354408264 0.5098620057106018 0.6206420063972473
0.46433499455451965 0.5108950138092041 0.6267200112342834
0.46089500188827515 0.5194950103759766 0.6193810105323792
0.4912849962711334 0.5607799887657166 0.6490830183029175
0.48050498962402344 0.5634179711341858 0.6512619853019714
0.4798170030117035 0.5686929821968079 0.641514003276825
0.4903680086135864 0.5659409761428833 0.6392199993133545
0.5119270086288452 0.6076840162277222 0.670527994632721
0.5019500255584717 0.6116979718208313 0.6716740131378174
0.5028679966926575 0.6158260107040405 0.6616969704627991
0.5125010013580322 0.6116979718208313 0.6608949899673462
0.5151379704475403 0.6566519737243652 0.6940370202064514
0.5185790061950684 0.6603220105171204 0.6854360103607178
0.5277529954910278 0.6564220190048218 0.6873859763145447
0.5240830183029175 0.6528670191764832 0.6961010098457336
0.5344039797782898 0.704816997051239 0.7004590034484863
0.5424320101737976 0.7010329961776733 0.7043579816818237
0.5377299785614014 0.6994270086288452 0.7127299904823303
0.5297020077705383 0.7033259868621826 0.7088299989700317
0.5540140271186829 0.7438070178031921 0.7232800126075745
0.5587159991264343 0.7386469841003418 0.729013979434967
0.5514919757843018 0.7384170293807983 0.7346339821815491
0.5469040274620056 0.7438070178031921 0.72878497838974
0.5670880079269409 0.7794740200042725 0.7496560215950012
0.570527970790863 0.7740839719772339 0.7555050253868103
0.563073992729187 0.7736240029335022 0.7597479820251465
0.5596339702606201 0.779013991355896 0.7540130019187927
0.5783259868621826 0.8138779997825623 0.7731649875640869
0.5805050134658813 0.8091740012168884 0.779358983039856
0.5727069973945618 0.8095179796218872 0.7821109890937805
0.5707579851150513 0.814333975315094 0.7759180068969727
3 2 1 0
3 3 2 0
3 4 5 1
3 0 4 1
3 7 6 3
3 2 6 3
3 6 5 2
3 1 5 2
3 7 4 0
3 3 7 0
3 6 8 5
3 7 9 4
3 9 8 5
3 9 5 4
3 6 8 9
3 7 6 9
3 10 11 8
3 10 9 8
3 13 12 7
3 7 12 6
3 12 11 6
3 11 8 6
3 13 10 9
3 13 9 7
3 14 11 12
3 15 10 13
3 15 14 11
3 15 11 10
3 12 14 15
3 13 15 12
3 17 16 14
3 16 15 14
3 18 19 13
3 18 13 12
3 18 17 12
3 17 14 12
3 19 16 15
3 19 15 13
3 20 17 18
3 21 16 19
3 21 20 17
3 21 17 16
3 21 20 18
3 19 21 18
3 22 23 21
3 23 20 21
3 24 23 20
3 24 20 18
3 25 24 18
3 25 18 19
3 25 22 19
3 22 21 19
3 26 27 22
3 27 23 22
3 28 27 23
3 28 23 24
3 29 28 24
3 29 24 25
3 29 26 25
3 26 22 25
3 31 30 27
3 31 27 28
3 31 32 28
3 32 29 28
3 32 33 29
3 33 26 29
3 30 33 26
3 30 27 26
3 34 35 31
3 35 32 31
3 35 36 32
3 36 33 32
3 37 36 33
3 37 33 30
3 34 37 30
3 34 30 31
3 38 39 34
3 39 35 34
3 39 40 35
3 40 36 35
3 41 40 36
3 41 36 37
3 38 41 37
3 38 37 34
3 42 43 38
3 43 39 38
3 43 44 39
3 44 40 39
3 45 44 40
3 45 40 41
3 42 45 41
3 42 41 38
3 46 47 43
3 47 44 43
3 48 47 44
3 48 44 45
3 49 48 45
3 49 45 42
3 49 46 42
3 46 43 42
3 51 50 47
3 51 47 48
3 52 51 48
3 52 48 49
3 52 53 49
3 53 46 49
3 53 50 46
3 50 47 46
3 54 55 51
3 55 51 52
3 55 56 52
3 56 53 52
3 57 56 53
3 57 50 53
3 54 57 50
3 54 50 51
3 54 57 55
3 55 57 56
3 58 59 20
3 21 59 20
3 59 60 21
3 60 16 21
3 61 60 16
3 16 61 17
3 58 61 17
3 58 17 20
3 62 63 58
3 63 59 58
3 63 64 59
3 59 64 60
3 65 64 60
3 65 60 61
3 62 65 61
3 58 62 61
3 66 67 63
3 63 67 64
3 68 67 64
3 68 64 65
3 69 68 65
3 62 69 65
3 69 66 62
3 66 63 62
3 71 70 67
3 71 67 68
3 72 71 68
3 69 72 68
3 72 73 69
3 73 66 69
3 73 70 66
3 66 70 67
3 75 74 70
3 75 70 71
3 76 75 71
3 72 76 71
3 76 77 72
3 77 73 72
3 77 74 73
3 73 74 70
3 79 78 74
3 79 74 75
3 80 79 75
3 76 80 75
3 80 81 76
3 81 77 76
3 81 78 77
3 77 78 74
3 83 82 79
3 83 80 79
3 83 84 80
3 80 84 81
3 84 85 81
3 81 85 78
3 82 85 78
3 82 78 79
3 87 86 82
3 87 82 83
3 87 88 83
3 83 88 84
3 88 89 84
3 89 85 84
3 86 89 85
3 82 86 85
3 90 91 86
3 91 86 87
3 91 92 87
3 92 88 87
3 93 92 88
3 93 89 88
3 90 93 89
3 90 89 86
3 90 93 91
3 91 93 92
3 94 95 15
3 15 94 14
3 97 96 11
3 10 96 11
3 95 96 10
3 15 95 10
3 94 97 14
3 14 97 11
3 98 96 95
3 99 97 94
3 95 99 98
3 94 99 95
3 98 99 96
3 99 97 96
3 100 101 98
3 98 101 96
3 102 101 96
3 97 102 96
3 103 102 97
3 99 103 97
3 103 100 99
3 99 100 98
3 104 105 100
3 100 105 101
3 106 105 101
3 102 106 101
3 107 106 102
3 103 107 102
3 107 104 103
3 103 104 100
3 109 108 105
3 106 109 105
3 110 109 106
3 107 110 106
3 110 111 107
3 107 111 104
3 111 108 104
3 104 108 105
3 113 112 108
3 109 113 108
3 109 113 114
3 110 109 114
3 114 115 110
3 110 115 111
3 111 112 115
3 111 112 108
3 117 116 112
3 113 117 112
3 118 117 113
3 114 118 113
3 118 119 114
3 114 119 115
3 119 116 115
3 115 116 112
3 121 120 116
3 117 121 116
3 121 122 117
3 117 122 118
3 122 123 118
3 118 123 119
3 120 123 119
3 116 120 119
3 124 125 121
3 121 125 122
3 125 126 122
3 122 126 123
3 127 126 123
3 120 127 123
3 124 127 120
3 121 124 120
3 128 129 124
3 124 129 125
3 129 130 125
3 125 130 126
3 131 130 126
3 127 131 126
3 128 131 127
3 124 128 127
3 132 133 128
3 128 133 129
3 133 134 129
3 129 134 130
3 135 134 130
3 131 135 130
3 132 135 131
3 128 132 131
3 132 135 133
3 134 135 133
3 137 136 98
3 137 99 98
3 138 137 99
3 138 99 94
3 138 139 94
3 139 94 95
3 139 136 95
3 136 98 95
3 141 140 136
3 141 136 137
3 142 141 137
3 142 137 138
3 142 143 138
3 143 139 138
3 143 140 139
3 140 136 139
3 145 144 140
3 145 140 141
3 146 145 141
3 146 141 142
3 146 147 142
3 147 143 142
3 147 144 143
3 144 140 143
3 149 148 145
3 149 145 146
3 149 150 146
3 150 147 146
3 150 151 147
3 151 144 147
3 148 151 144
3 148 144 145
3 153 152 148
3 153 148 149
3 153 154 149
3 154 150 149
3 154 155 150
3 155 151 150
3 152 155 151
3 152 151 148
3 157 156 152
3 157 152 153
3 157 158 153
3 158 154 153
3 158 159 154
3 159 155 154
3 156 159 155
3 156 155 152
3 161 160 156
3 157 161 156
3 161 162 157
3 162 158 157
3 162 163 158
3 158 163 159
3 160 163 159
3 160 159 156
3 164 165 161
3 165 162 161
3 165 166 162
3 162 166 163
3 167 166 163
3 167 163 160
3 164 167 160
3 161 164 160
3 169 168 165
3 165 169 166
3 170 169 166
3 170 166 167
3 170 171 167
3 164 171 167
3 171 168 164
3 168 165 164
3 171 170 168
3 170 169 168
3 173 172 9
3 9 172 8
3 174 175 5
3 4 174 5
3 173 174 4
3 9 173 4
3 172 175 8
3 8 175 5
3 173 176 174
3 172 177 175
3 173 177 176
3 173 172 177
3 176 177 174
3 177 175 174
3 176 178 179
3 176 177 178
3 175 181 180
3 174 175 180
3 179 180 174
3 176 179 174
3 178 181 177
3 177 181 175
3 179 182 180
3 178 183 181
3 179 183 182
3 179 178 183
3 182 183 180
3 183 181 180
3 182 185 184
3 180 182 185
3 180 186 185
3 180 181 186
3 181 186 187
3 181 183 187
3 183 187 184
3 182 183 184
3 184 189 188
3 184 185 189
3 185 190 189
3 185 186 190
3 186 190 191
3 187 186 191
3 187 191 188
3 184 187 188
3 188 193 192
3 188 189 193
3 189 194 193
3 190 194 189
3 190 194 195
3 191 190 195
3 191 195 192
3 191 188 192
3 197 196 193
3 194 197 193
3 194 197 198
3 195 194 198
3 195 198 199
3 195 199 192
3 192 196 199
3 192 193 196
3 197 200 201
3 198 197 201
3 198 201 202
3 198 202 199
3 199 203 202
3 199 196 203
3 200 203 196
3 197 200 196
3 201 204 205
3 201 205 202
3 202 206 205
3 202 203 206
3 206 207 203
3 200 207 203
3 200 207 204
3 201 200 204
3 205 209 208
3 205 206 209
3 210 209 206
3 207 210 206
3 207 210 211
3 204 207 211
3 204 211 208
3 204 208 205
3 208 213 212
3 208 209 213
3 209 213 214
3 210 214 209
3 214 215 210
3 211 210 215
3 211 212 215
3 211 212 208
3 213 216 217
3 214 213 217
3 218 217 214
3 215 214 218
3 215 219 218
3 215 212 219
3 219 216 212
3 212 213 216
3 216 217 219
3 217 218 219
3 221 183 220
3 178 221 183
3 221 222 178
3 178 222 179
3 179 222 223
3 179 223 182
3 220 223 182
3 183 220 182
3 224 225 221
3 221 225 222
3 225 226 222
3 222 226 223
3 227 226 223
3 220 227 223
3 224 227 220
3 221 224 220
3 228 229 224
3 224 229 225
3 229 230 225
3 225 230 226
3 231 230 226
3 227 231 226
3 228 231 227
3 224 228 227
3 232 233 228
3 228 233 229
3 233 234 229
3 229 234 230
3 235 234 230
3 231 235 230
3 232 235 231
3 228 232 231
3 236 237 232
3 232 237 233
3 233 238 237
3 233 234 238
3 239 238 234
3 235 239 234
3 235 239 236
3 232 235 236
3 237 241 240
3 237 238 241
3 242 241 238
3 239 242 238
3 239 242 243
3 236 239 243
3 243 240 236
3 236 240 237
3 240 245 244
3 240 241 245
3 246 245 241
3 242 246 241
3 242 246 247
3 243 242 247
3 247 244 243
3 243 244 240
3 244 249 248
3 244 245 249
3 250 249 245
3 246 250 245
3 246 250 251
3 247 246 251
3 251 248 247
3 247 248 244
3 253 252 249
3 250 253 249
3 250 253 254
3 251 250 254
3 254 255 251
3 251 255 248
3 248 252 255
3 248 249 252
3 253 252 255
3 254 253 255
3 256 257 176
3 173 256 176
3 259 258 172
3 172 258 177
3 257 258 177
3 257 177 176
3 256 259 173
3 259 172 173
3 260 258 257
3 261 259 256
3 261 260 257
3 256 261 257
3 261 258 260
3 261 259 258
3 263 262 260
3 260 263 258
3 264 263 258
3 259 264 258
3 264 265 259
3 261 265 259
3 265 262 261
3 261 262 260
3 267 266 263
3 267 264 263
3 267 268 264
3 264 268 265
3 268 269 265
3 265 269 262
3 266 269 262
3 266 263 262
3 271 270 266
3 271 266 267
3 271 272 267
3 272 268 267
3 272 273 268
3 269 273 268
3 270 273 269
3 270 269 266
3 275 274 270
3 271 275 270
3 275 276 271
3 276 272 271
3 276 277 272
3 272 277 273
3 274 277 273
3 274 273 270
3 278 279 275
3 279 276 275
3 280 279 276
3 276 280 277
3 281 280 277
3 281 277 274
3 281 278 274
3 275 278 274
3 283 282 279
3 283 279 280
3 284 283 280
3 280 284 281
3 284 285 281
3 285 278 281
3 285 282 278
3 279 282 278
3 287 286 283
3 284 287 283
3 287 288 284
3 288 285 284
3 288 289 285
3 285 289 282
3 286 289 282
3 286 282 283
3 291 290 286
3 287 291 286
3 291 292 287
3 292 288 287
3 292 293 288
3 288 293 289
3 290 293 289
3 290 289 286
3 295 294 290
3 291 295 290
3 295 296 291
3 296 292 291
3 296 297 292
3 292 297 293
3 294 297 293
3 294 293 290
3 295 294 297
3 295 297 296
3 299 260 298
3 261 260 299
3 300 299 261
3 300 261 256
3 300 256 301
3 256 257 301
3 301 298 257
3 298 260 257
3 302 303 299
3 299 303 300
3 303 300 304
3 300 301 304
3 305 304 301
3 298 305 301
3 302 298 305
3 299 298 302
3 306 307 303
3 307 304 303
3 308 307 304
3 305 308 304
3 309 308 305
3 309 305 302
3 309 306 302
3 302 306 303
3 310 311 306
3 311 307 306
3 312 311 307
3 308 312 307
3 313 312 308
3 313 308 309
3 313 310 309
3 309 310 306
3 315 314 311
3 312 315 311
3 316 315 312
3 316 312 313
3 316 317 313
3 313 317 310
3 317 314 310
3 314 311 310
3 319 318 315
3 319 315 316
3 319 320 316
3 316 320 317
3 320 321 317
3 321 314 317
3 318 321 314
3 315 318 314
3 322 323 318
3 323 318 319
3 323 319 324
3 319 324 320
3 325 324 320
3 325 321 320
3 322 325 321
3 318 322 321
3 326 327 322
3 322 327 323
3 327 328 323
3 328 323 324
3 329 328 324
3 325 329 324
3 326 329 325
3 322 325 326
3 330 331 326
3 326 331 327
3 331 332 327
3 332 327 328
3 333 332 328
3 329 333 328
3 330 333 329
3 330 326 329
3 330 333 331
3 331 333 332
