ply
format ascii 1.0
element vertex 472
property float x
property float y
property float z
element face 896
property list uchar int vertex_indices
end_header
0.455949991941452 0.6071329712867737 0.2474440038204193
0.4681749939918518 0.5957810282707214 0.24412600696086884
0.47158798575401306 0.6013240218162537 0.24412600696086884
0.47262099385261536 0.6077510118484497 0.24412600696086884
0.47111600637435913 0.614084005355835 0.24412600696086884
0.46730101108551025 0.6193580031394958 0.24412600696086884
0.4617590010166168 0.6227719783782959 0.24412600696086884
0.4553320109844208 0.6238049864768982 0.24412600696086884
0.44899898767471313 0.6222990155220032 0.24412600696086884
0.44372498989105225 0.6184849739074707 0.24412600696086884
0.4403110146522522 0.6129429936408997 0.24412600696086884
0.4392780065536499 0.6065160036087036 0.24412600696086884
0.4407840073108673 0.6001830101013184 0.24412600696086884
0.444597989320755 0.5949079990386963 0.24412600696086884
0.45013999938964844 0.5914949774742126 0.24412600696086884
0.4565669894218445 0.5904620289802551 0.24412600696086884
0.4629000127315521 0.5919679999351501 0.24412600696086884
0.47853800654411316 0.5861579775810242 0.23467600345611572
0.48484599590301514 0.5963990092277527 0.23467600345611572
0.48675400018692017 0.608273983001709 0.23467600345611572
0.4839720129966736 0.6199759840965271 0.23467600345611572
0.47692498564720154 0.629721999168396 0.23467600345611572
0.4666840136051178 0.6360300183296204 0.23467600345611572
0.4548090100288391 0.6379370093345642 0.23467600345611572
0.443107008934021 0.635155975818634 0.23467600345611572
0.4333609938621521 0.6281089782714844 0.23467600345611572
0.4270530045032501 0.6178680062294006 0.23467600345611572
0.4251450002193451 0.6059929728507996 0.23467600345611572
0.4279269874095917 0.5942909717559814 0.23467600345611572
0.4349740147590637 0.5845440030097961 0.23467600345611572
0.44521498680114746 0.578236997127533 0.23467600345611572
0.45709100365638733 0.5763289928436279 0.23467600345611572
0.46879199147224426 0.5791100263595581 0.23467600345611572
0.4854629933834076 0.5797280073165894 0.22053299844264984
0.4937039911746979 0.5931079983711243 0.22053299844264984
0.496196985244751 0.6086239814758301 0.22053299844264984
0.49256300926208496 0.6239129900932312 0.22053299844264984
0.48335498571395874 0.6366469860076904 0.22053299844264984
0.46997499465942383 0.6448879837989807 0.22053299844264984
0.454459011554718 0.6473810076713562 0.22053299844264984
0.4391700029373169 0.6437469720840454 0.22053299844264984
0.42643600702285767 0.634539008140564 0.22053299844264984
0.4181950092315674 0.6211580038070679 0.22053299844264984
0.4157019853591919 0.6056429743766785 0.22053299844264984
0.4193359911441803 0.5903540253639221 0.22053299844264984
0.4285440146923065 0.5776190161705017 0.22053299844264984
0.4419249892234802 0.5693780183792114 0.22053299844264984
0.45743998885154724 0.5668860077857971 0.22053299844264984
0.47272899746894836 0.5705199837684631 0.22053299844264984
0.48789501190185547 0.5774700045585632 0.20385000109672546
0.4968149960041046 0.5919529795646667 0.20385000109672546
0.49951401352882385 0.6087470054626465 0.20385000109672546
0.4955799877643585 0.6252949833869934 0.20385000109672546
0.48561298847198486 0.6390789747238159 0.20385000109672546
0.47113001346588135 0.6479989886283875 0.20385000109672546
0.4543359875679016 0.6506969928741455 0.20385000109672546
0.4377880096435547 0.6467639803886414 0.20385000109672546
0.4240039885044098 0.6367970108985901 0.20385000109672546
0.41508400440216064 0.6223139762878418 0.20385000109672546
0.4123860001564026 0.6055200099945068 0.20385000109672546
0.41631901264190674 0.5889710187911987 0.20385000109672546
0.4262860119342804 0.5751879811286926 0.20385000109672546
0.4407689869403839 0.5662680268287659 0.20385000109672546
0.45756301283836365 0.5635690093040466 0.20385000109672546
0.47411200404167175 0.5675029754638672 0.20385000109672546
0.25121501088142395 0.6071329712867737 0.2474440038204193
0.26344001293182373 0.5957810282707214 0.24412600696086884
0.2668539881706238 0.6013240218162537 0.24412600696086884
0.2678869962692261 0.6077510118484497 0.24412600696086884
0.26638099551200867 0.614084005355835 0.24412600696086884
0.26256701350212097 0.6193580031394958 0.24412600696086884
0.25702399015426636 0.6227719783782959 0.24412600696086884
0.2505970001220703 0.6238049864768982 0.24412600696086884
0.24426500499248505 0.6222990155220032 0.24412600696086884
0.23898999392986298 0.6184849739074707 0.24412600696086884
0.23557700216770172 0.6129429936408997 0.24412600696086884
0.23454399406909943 0.6065160036087036 0.24412600696086884
0.23604899644851685 0.6001830101013184 0.24412600696086884
0.23986299335956573 0.5949079990386963 0.24412600696086884
0.24540600180625916 0.5914949774742126 0.24412600696086884
0.2518320083618164 0.5904620289802551 0.24412600696086884
0.25816500186920166 0.5919679999351501 0.24412600696086884
0.2738040089607239 0.5861579775810242 0.23467600345611572
0.28011101484298706 0.5963990092277527 0.23467600345611572
0.2820189893245697 0.608273983001709 0.23467600345611572
0.2792379856109619 0.6199759840965271 0.23467600345611572
0.27219000458717346 0.629721999168396 0.23467600345611572
0.26194900274276733 0.6360300183296204 0.23467600345611572
0.25007399916648865 0.6379370093345642 0.23467600345611572
0.23837299644947052 0.635155975818634 0.23467600345611572
0.22862599790096283 0.6281089782714844 0.23467600345611572
0.22231799364089966 0.6178680062294006 0.23467600345611572
0.2204110026359558 0.6059929728507996 0.23467600345611572
0.2231920063495636 0.5942909717559814 0.23467600345611572
0.23024000227451324 0.5845440030097961 0.23467600345611572
0.24048100411891937 0.578236997127533 0.23467600345611572
0.25235599279403687 0.5763289928436279 0.23467600345611572
0.264057993888855 0.5791100263595581 0.23467600345611572
0.2807289958000183 0.5797280073165894 0.22053299844264984
0.2889699935913086 0.5931079983711243 0.22053299844264984
0.2914629876613617 0.6086239814758301 0.22053299844264984
0.2878290116786957 0.6239129900932312 0.22053299844264984
0.27862000465393066 0.6366469860076904 0.22053299844264984
0.26524001359939575 0.6448879837989807 0.22053299844264984
0.24972400069236755 0.6473810076713562 0.22053299844264984
0.2344360053539276 0.6437469720840454 0.22053299844264984
0.2217009961605072 0.634539008140564 0.22053299844264984
0.21345999836921692 0.6211580038070679 0.22053299844264984
0.21096700429916382 0.6056429743766785 0.22053299844264984
0.21460099518299103 0.5903540253639221 0.22053299844264984
0.22381000220775604 0.5776190161705017 0.22053299844264984
0.23718999326229095 0.5693780183792114 0.22053299844264984
0.25270599126815796 0.5668860077857971 0.22053299844264984
0.2679939866065979 0.5705199837684631 0.22053299844264984
0.283160001039505 0.5774700045585632 0.20385000109672546
0.29207998514175415 0.5919529795646667 0.20385000109672546
0.2947790026664734 0.6087470054626465 0.20385000109672546
0.29084599018096924 0.6252949833869934 0.20385000109672546
0.2808789908885956 0.6390789747238159 0.20385000109672546
0.2663959860801697 0.6479989886283875 0.20385000109672546
0.24960200488567352 0.6506969928741455 0.20385000109672546
0.23305299878120422 0.6467639803886414 0.20385000109672546
0.2192690074443817 0.6367970108985901 0.20385000109672546
0.21034899353981018 0.6223139762878418 0.20385000109672546
0.20765100419521332 0.6055200099945068 0.20385000109672546
0.21158500015735626 0.5889710187911987 0.20385000109672546
0.22155100107192993 0.5751879811286926 0.20385000109672546
0.23603400588035583 0.5662680268287659 0.20385000109672546
0.252828985452652 0.5635690093040466 0.20385000109672546
0.2693769931793213 0.5675029754638672 0.20385000109672546
0.3679009974002838 0.4152959883213043 0.3997879922389984
0.31862300634384155 0.4177339971065521 0.3997879922389984
0.3449369966983795 0.4108079969882965 0.37204599380493164
0.3022570013999939 0.3690429925918579 0.3378480076789856
0.27991101145744324 0.4139530062675476 0.32893499732017517
0.2832910120487213 0.3657970130443573 0.33016300201416016
0.34258800745010376 0.4025239944458008 0.34430399537086487
0.34345901012420654 0.3979780077934265 0.33917200565338135
0.3572230041027069 0.40024200081825256 0.3462600111961365
0.3910300135612488 0.4078660011291504 0.34430399537086487
0.2981869876384735 0.3602449893951416 0.3476699888706207
0.2887040078639984 0.3586220145225525 0.3438279926776886
0.2972460091114044 0.4125779867172241 0.34430399537086487
0.318789005279541 0.3713200092315674 0.339803010225296
0.3311240077018738 0.38389599323272705 0.34400901198387146
0.4128350019454956 0.4040130078792572 0.32893499732017517
0.38310399651527405 0.3686619997024536 0.3378480076789856
0.40184301137924194 0.3614009916782379 0.33016300201416016
0.4430930018424988 0.3358120024204254 0.29666000604629517
0.4279640018939972 0.3699119985103607 0.31279700994491577
0.23621399700641632 0.2965790033340454 0.29671499133110046
0.24375000596046448 0.33632299304008484 0.29666000604629517
0.2330860048532486 0.3354089856147766 0.26476800441741943
0.2590259909629822 0.31647199392318726 0.3053840100765228
0.2592119872570038 0.33621400594711304 0.3140529990196228
0.2884489893913269 0.34617000818252563 0.33139100670814514
0.38967400789260864 0.3548099994659424 0.3438279926776886
0.39532899856567383 0.3416630029678345 0.30969101190567017
0.3985860049724579 0.3515320122241974 0.31992700695991516
0.3985550105571747 0.3129369914531708 0.3353239893913269
0.4543209969997406 0.2866010069847107 0.29671499133110046
0.4277839958667755 0.3059679865837097 0.3053840100765228
0.48093900084495544 0.3220199942588806 0.25407201051712036
0.46710601449012756 0.3289160132408142 0.27536600828170776
0.18579299747943878 0.32716500759124756 0.20545800030231476
0.24678899347782135 0.2560040056705475 0.3271949887275696
0.20109300315380096 0.3326660096645355 0.25407201051712036
0.27968499064445496 0.23059800267219543 0.35271701216697693
0.2797439992427826 0.25115901231765747 0.3611690104007721
0.28589001297950745 0.27625399827957153 0.3544189929962158
0.368490993976593 0.27791398763656616 0.37525200843811035
0.34166499972343445 0.2949019968509674 0.34139299392700195
0.31615200638771057 0.2755410075187683 0.37102600932121277
0.3469339907169342 0.24143700301647186 0.3735649883747101
0.3747769892215729 0.2419939935207367 0.3773060142993927
0.37972599267959595 0.2836019992828369 0.3479059934616089
0.40439799427986145 0.26865100860595703 0.3544189929962158
0.4330030083656311 0.24156899750232697 0.33236101269721985
0.5010589957237244 0.3106060028076172 0.20545800030231476
0.1592019945383072 0.32543501257896423 0.1480720043182373
0.19088299572467804 0.2570379972457886 0.17986899614334106
0.2146349996328354 0.2522450089454651 0.276621013879776
0.2598710060119629 0.21807700395584106 0.23231300711631775
0.3506599962711334 0.2049890011548996 0.23607900738716125
0.38015100359916687 0.22117400169372559 0.35271701216697693
0.34756699204444885 0.22747300565242767 0.3609029948711395
0.4142870008945465 0.21331100165843964 0.23231300711631775
0.4856880009174347 0.23143699765205383 0.1873530000448227
0.4674549996852875 0.24264000356197357 0.280362993478775
0.5290060043334961 0.31083598732948303 0.1480720043182373
0.1465030014514923 0.3220919966697693 0.0906774029135704
0.17371299862861633 0.134676992893219 0.07968120276927948
0.18229800462722778 0.19585800170898438 0.15028099715709686
0.23012399673461914 0.054332200437784195 0.10252899676561356
0.21050399541854858 0.17448200285434723 0.1463260054588318
0.24499699473381042 0.14924299716949463 0.16912999749183655
0.29677799344062805 0.029583999887108803 0.09839220345020294
0.27832499146461487 0.13686800003051758 0.1670610010623932
0.3145909905433655 0.12241300195455551 0.16894400119781494
0.36785200238227844 0.02500000037252903 0.09839220345020294
0.36108100414276123 0.13026699423789978 0.03244059905409813
0.3910689949989319 0.12428200244903564 0.1670610010623932
0.4650169909000397 0.03337680175900459 0.10252899676561356
0.4396519958972931 0.1284710019826889 0.16912999749183655
0.49856600165367126 0.11372599750757217 0.07968120276927948
0.47413501143455505 0.15850700438022614 0.150067999958992
0.5371299982070923 0.30300700664520264 0.0906774029135704
0.344664990901947 0.43785399198532104 0.40995898842811584
0.41091200709342957 0.42618998885154724 0.34241700172424316
0.4173020124435425 0.4254609942436218 0.3337549865245819
0.38088101148605347 0.43871599435806274 0.39758801460266113
0.37623798847198486 0.46770599484443665 0.3984529972076416
0.3510130047798157 0.47027701139450073 0.39633700251579285
0.4402250051498413 0.42816799879074097 0.33139100670814514
0.4345589876174927 0.41869300603866577 0.3095319867134094
0.4453519880771637 0.3802329897880554 0.29247400164604187
0.4015690088272095 0.4280720055103302 0.37955400347709656
0.40475600957870483 0.4110279977321625 0.3619289994239807
0.41043001413345337 0.5161659717559814 0.33139199018478394
0.3971030116081238 0.45561501383781433 0.3482150137424469
0.42515599727630615 0.4426319897174835 0.339803010225296
0.38929298520088196 0.5145559906959534 0.31597501039505005
0.37188300490379333 0.5254510045051575 0.36656999588012695
0.5086100101470947 0.42856600880622864 0.3173849880695343
0.4707069993019104 0.3910430073738098 0.3106450140476227
0.45255398750305176 0.3323630094528198 0.26476800441741943
0.460206001996994 0.38654598593711853 0.31402599811553955
0.4720360040664673 0.5180420279502869 0.31169000267982483
0.41940000653266907 0.5821530222892761 0.27529799938201904
0.38398000597953796 0.5609769821166992 0.3224000036716461
0.385219007730484 0.590749979019165 0.3037090003490448
0.5259310007095337 0.3907249867916107 0.2096710056066513
0.5210210084915161 0.47954198718070984 0.2911530137062073
0.5554559826850891 0.5340399742126465 0.17937399446964264
0.482479989528656 0.5787180066108704 0.2618350088596344
0.4549590051174164 0.5744069814682007 0.2685660123825073
0.3707520067691803 0.5833820104598999 0.3179050087928772
0.3860360085964203 0.6075289845466614 0.29497599601745605
0.3679009974002838 0.6781299710273743 0.3291049897670746
0.3656190037727356 0.6329060196876526 0.2959440052509308
0.3945330083370209 0.6414219737052917 0.29894599318504333
0.563884973526001 0.37738901376724243 0.13294300436973572
0.548678994178772 0.4570559859275818 0.22087499499320984
0.5468119978904724 0.5715190172195435 0.21537800133228302
0.4393399953842163 0.7190889716148376 0.31564000248908997
0.36270299553871155 0.7892249822616577 0.3150309920310974
0.3664419949054718 0.7212219834327698 0.33157700300216675
0.575547993183136 0.36239901185035706 0.07968150079250336
0.5843639969825745 0.43262699246406555 0.0717696025967598
0.5879300236701965 0.586135983467102 0.030184900388121605
0.6735380291938782 0.6800230145454407 0.040918800979852676
0.5764020085334778 0.596651017665863 0.11638099700212479
0.5179780125617981 0.6103019714355469 0.23087500035762787
0.5484409928321838 0.6101279854774475 0.24205699563026428
0.5307250022888184 0.7440549731254578 0.2781279981136322
0.5157240033149719 0.7183589935302734 0.3002510070800781
0.5547099709510803 0.7037310004234314 0.23214299976825714
0.49253299832344055 0.7444199919700623 0.2858229875564575
0.43854600191116333 0.792481005191803 0.28977900743484497
0.45702099800109863 0.9561449885368347 0.18434500694274902
0.3594230115413666 0.9750000238418579 0.19534100592136383
0.3632650077342987 0.8610060214996338 0.28700101375579834
0.32862401008605957 0.47106999158859253 0.3984529972076416
0.3544729948043823 0.5268279910087585 0.37195101380348206
0.3374989926815033 0.527301013469696 0.36656999588012695
0.2962700128555298 0.4327020049095154 0.37955400347709656
0.28554999828338623 0.4340380132198334 0.34241700172424316
0.28674399852752686 0.4209820032119751 0.3433600068092346
0.32661598920822144 0.5646770000457764 0.3224000036716461
0.3205280005931854 0.5182549953460693 0.31597501039505005
0.34751200675964355 0.5665450096130371 0.3399899899959564
0.36470499634742737 0.5656200051307678 0.3399899899959564
0.2957040071487427 0.5235660076141357 0.33139199018478394
0.2596909999847412 0.4308069944381714 0.33139100670814514
0.2752920091152191 0.45280200242996216 0.339803010225296
0.2663550078868866 0.42188501358032227 0.3095319867134094
0.2777329981327057 0.43681100010871887 0.33857500553131104
0.28346800804138184 0.4481000006198883 0.3433949947357178
0.2733199894428253 0.4196310043334961 0.33016300201416016
0.33636200428009033 0.6086140275001526 0.29497599601745605
0.3066529929637909 0.6164270043373108 0.26871100068092346
0.3017840087413788 0.5995680093765259 0.27200499176979065
0.22318899631500244 0.5363529920578003 0.31169000267982483
0.19810500741004944 0.43963000178337097 0.31585100293159485
0.2218409925699234 0.4503679871559143 0.32801100611686707
0.3575269877910614 0.605787992477417 0.3134090006351471
0.33702701330184937 0.627344012260437 0.29168298840522766
0.28888198733329773 0.5809249877929688 0.27529799938201904
0.2569360136985779 0.5756360292434692 0.2685660123825073
0.22231300175189972 0.5828409790992737 0.2618350088596344
0.15137000381946564 0.5627250075340271 0.19492900371551514
0.1747570037841797 0.4839789867401123 0.29420098662376404
0.17877300083637238 0.41400599479675293 0.2096710056066513
0.2583659887313843 0.7256889939308167 0.3212530016899109
0.21049900352954865 0.7056999802589417 0.3014039993286133
0.21002799272537231 0.6769760251045227 0.31373700499534607
0.13906000554561615 0.4850519895553589 0.22670699656009674
0.1300719976425171 0.41284099221229553 0.13294300436973572
0.41206398606300354 0.8515790104866028 0.2815040051937103
0.2539600133895874 0.7873160243034363 0.29258498549461365
0.29429298639297485 0.8490309715270996 0.2815040051937103
0.16616499423980713 0.7445819973945618 0.26235100626945496
0.21806800365447998 0.7705579996109009 0.2762730121612549
0.1800449937582016 0.8228240013122559 0.2287590056657791
0.02802800014615059 0.8911250233650208 0.11793600022792816
0.13767699897289276 0.7935839891433716 0.2100439965724945
0.16484199464321136 0.6592739820480347 0.26629000902175903
0.1205419972538948 0.6757109761238098 0.17085100710391998
0.13595600426197052 0.6192179918289185 0.17511199414730072
0.10799200087785721 0.5932469964027405 0.02500000037252903
0.1194010004401207 0.6286849975585938 0.12350399792194366
0.10406599938869476 0.4574500024318695 0.0717696025967598
0.11582300066947937 0.38666999340057373 0.07968150079250336
0.20090000331401825 0.5920439958572388 0.251444011926651
0.1253020018339157 0.6942539811134338 0.1845189929008484
0.5440580248832703 0.6625400185585022 0.2619830071926117
0.4919640123844147 0.6852899789810181 0.30300700664520264
0.5027409791946411 0.5889840126037598 0.24635499715805054
0.46331098675727844 0.6832129955291748 0.32232001423835754
0.28819599747657776 0.31435900926589966 0.3353239893913269
0.30525800585746765 0.28922900557518005 0.3479059934616089
0.40261998772621155 0.24021099507808685 0.3611690104007721
0.2243800014257431 0.6330329775810242 0.2508600056171417
0.2422659993171692 0.6780189871788025 0.328016996383667
0.3211140036582947 0.6686959862709045 0.3258860111236572
0.27370399236679077 0.6405619978904724 0.2607850134372711
0.2932020127773285 0.6290850043296814 0.2647480070590973
0.48410001397132874 0.6360329985618591 0.2554830014705658
0.5050579905509949 0.6256790161132812 0.24317899346351624
0.1830579936504364 0.6101719737052917 0.2410530000925064
0.20104199647903442 0.6233879923820496 0.24595700204372406
0.15487100183963776 0.6097509860992432 0.22672100365161896
0.5649999976158142 0.6296370029449463 0.1337279975414276
0.5715019702911377 0.6854879856109619 0.1301420032978058
0.3084169924259186 0.4623439908027649 0.3482150137424469
0.3310199975967407 0.5873050093650818 0.3037090003490448
0.3420720100402832 0.5852320194244385 0.3179050087928772
0.43438801169395447 0.6742720007896423 0.3254840075969696
0.4140090048313141 0.6661220192909241 0.30913200974464417
0.4379880130290985 0.6383690237998962 0.2607850134372711
0.31168198585510254 0.443574994802475 0.4062789976596832
0.3978559970855713 0.4475559890270233 0.37112298607826233
0.38710200786590576 0.421068012714386 0.36081600189208984
0.30489999055862427 0.45248401165008545 0.37112298607826233
0.2909480035305023 0.44433900713920593 0.34833499789237976
0.30407699942588806 0.42624199390411377 0.36081600189208984
0.3338499963283539 0.3239629864692688 0.3535189926624298
0.3044399917125702 0.33248499035835266 0.34721100330352783
0.30762600898742676 0.32287099957466125 0.3513520061969757
0.328031986951828 0.31755200028419495 0.34399300813674927
0.3508189916610718 0.3177199959754944 0.34399300813674927
0.2899549901485443 0.32435500621795654 0.3347730040550232
0.3637480139732361 0.3227730095386505 0.3535189926624298
0.37468698620796204 0.30903199315071106 0.3396579921245575
0.37568199634552 0.31842899322509766 0.3513520061969757
0.33966898918151855 0.33037400245666504 0.34721100330352783
0.30645298957824707 0.36138400435447693 0.3486480116844177
0.34227699041366577 0.348035991191864 0.33139100670814514
0.3282029926776886 0.3623169958591461 0.3486480116844177
0.37750500440597534 0.3429409861564636 0.33139100670814514
0.36899399757385254 0.3589630126953125 0.3486480116844177
0.33189499378204346 0.3924959897994995 0.3461120128631592
0.35197100043296814 0.38308900594711304 0.34400901198387146
0.36048200726509094 0.36970600485801697 0.339803010225296
0.26183098554611206 0.3751380145549774 0.31279700994491577
0.3803049921989441 0.3558019995689392 0.3346189856529236
0.31081199645996094 0.31325700879096985 0.3396579921245575
0.2786470055580139 0.32490599155426025 0.3326050043106079
0.4207809865474701 0.3319169878959656 0.3140529990196228
0.4075640141963959 0.3220460116863251 0.3326050043106079
0.4180609881877899 0.4382820129394531 0.33857500553131104
0.4077009856700897 0.439424991607666 0.34531599283218384
0.33037400245666504 0.402211993932724 0.3462600111961365
0.29046499729156494 0.67460697889328 0.3156009912490845
0.24904200434684753 0.6399210095405579 0.25582200288772583
0.46154600381851196 0.6465439796447754 0.25813400745391846
0.4350390136241913 0.7079610228538513 0.3156009912490845
0.3872300088405609 0.6260920166969299 0.29168298840522766
0.4048379957675934 0.6192790269851685 0.26871100068092346
0.4153769910335541 0.6308339834213257 0.2647480070590973
0.40859800577163696 0.5992130041122437 0.27200499176979065
0.33236798644065857 0.6384040117263794 0.29894599318504333
0.39559298753738403 0.6640229821205139 0.3217949867248535
0.2750680148601532 0.6994060277938843 0.3351370096206665
0.22242200374603271 0.3344939947128296 0.27536600828170776
0.21791300177574158 0.3992590010166168 0.3106450140476227
0.47500500082969666 0.4395419955253601 0.32801100611686707
0.46262499690055847 0.3599280118942261 0.3036530017852783
0.5019360184669495 0.5873249769210815 0.22627100348472595
0.4714620113372803 0.5896850228309631 0.2597990036010742
0.4992780089378357 0.587643027305603 0.22627100348472595
0.4836609959602356 0.6343749761581421 0.23857499659061432
0.515267014503479 0.6099280118942261 0.22166800498962402
0.5057600140571594 0.6255130171775818 0.23857499659061432
0.43946900963783264 0.637516975402832 0.24122600257396698
0.46600401401519775 0.6250050067901611 0.2597990036010742
0.4606049954891205 0.6446589827537537 0.24122600257396698
0.40570199489593506 0.6189079880714417 0.24518999457359314
0.4379119873046875 0.62186199426651 0.2597990036010742
0.4168170094490051 0.6310099959373474 0.24518999457359314
0.402213990688324 0.6097469925880432 0.27035799622535706
0.40964099764823914 0.6001250147819519 0.24848300218582153
0.4050480127334595 0.6104339957237244 0.22166800498962402
0.410957008600235 0.5998380184173584 0.24848300218582153
0.4582340121269226 0.5743839740753174 0.24175100028514862
0.4398910105228424 0.5881029963493347 0.2597990036010742
0.4533360004425049 0.575111985206604 0.24175100028514862
0.30723199248313904 0.6148539781570435 0.24518999457359314
0.2811329960823059 0.5901960134506226 0.26632198691368103
0.29958298802375793 0.599835991859436 0.24683600664138794
0.26172900199890137 0.6244639754295349 0.26632198691368103
0.283268004655838 0.6206589937210083 0.26632198691368103
0.293177992105484 0.6269220113754272 0.24122600257396698
0.22555600106716156 0.6314669847488403 0.23626400530338287
0.24097999930381775 0.6359490156173706 0.23626400530338287
0.1854349970817566 0.6109669804573059 0.23136000335216522
0.23053500056266785 0.6210309863090515 0.26632198691368103
0.2038619965314865 0.6235330104827881 0.23381200432777405
0.24486899375915527 0.5869789719581604 0.26632198691368103
0.21512100100517273 0.5966690182685852 0.26632198691368103
0.2195809930562973 0.5845109820365906 0.24175100028514862
0.2858720123767853 0.5822169780731201 0.24848300218582153
0.2522850036621094 0.5774459838867188 0.24511699378490448
0.5152270197868347 0.6102070212364197 0.23242299258708954
0.48355698585510254 0.5785040259361267 0.2340109944343567
0.42134401202201843 0.5840979814529419 0.24511699378490448
0.40439099073410034 0.6090779900550842 0.24601300060749054
0.41011500358581543 0.5997589826583862 0.24683600664138794
0.273593008518219 0.6376399993896484 0.24122600257396698
0.2543480098247528 0.637319028377533 0.23874500393867493
0.2235649973154068 0.5845059752464294 0.24175100028514862
0.376677006483078 0.32782599329948425 0.34721100330352783
0.2547540068626404 0.38128501176834106 0.31341201066970825
0.42298999428749084 0.40449100732803345 0.33016300201416016
0.4364050030708313 0.3767929971218109 0.31341201066970825
0.2302830070257187 0.3910849988460541 0.31402599811553955
0.2464900016784668 0.3843579888343811 0.29247400164604187
0.45445001125335693 0.34659698605537415 0.2789109945297241
0.2397879958152771 0.35988301038742065 0.27862098813056946
0.2271209955215454 0.3630189895629883 0.29469600319862366
0.20788699388504028 0.7324140071868896 0.2886289954185486
0.02500000037252903 0.7150869965553284 0.03818430006504059
0.46751001477241516 0.7791079878807068 0.27487000823020935
0.11602199822664261 0.7543349862098694 0.12532499432563782
0.46446698904037476 0.8465189933776855 0.2614229917526245
0.5202289819717407 0.8295800089836121 0.23741500079631805
0.578004002571106 0.7413399815559387 0.12655599415302277
0.31330999732017517 0.237186998128891 0.37307998538017273
0.2012699991464615 0.5932599902153015 0.23655599355697632
0.29307499527931213 0.6275789737701416 0.24320800602436066
0.3308280110359192 0.3683069944381714 0.339803010225296
0.34275001287460327 0.36442801356315613 0.33076000213623047
0.35195499658584595 0.39055100083351135 0.3461120128631592
0.35167399048805237 0.3675000071525574 0.339803010225296
0.4387980103492737 0.6362810134887695 0.24320800602436066
0.46428200602531433 0.644694983959198 0.23990100622177124
0.33980101346969604 0.344650000333786 0.25777900218963623
0.2916429936885834 0.34278398752212524 0.25777900218963623
0.30196499824523926 0.33705198764801025 0.2599540054798126
0.33719301223754883 0.33493998646736145 0.2599540054798126
0.36465901136398315 0.33239299058914185 0.2599540054798126
0.3750300109386444 0.3395560085773468 0.25777900218963623
0.3928540050983429 0.33827701210975647 0.25479501485824585
0.4099059998989105 0.33174699544906616 0.25539499521255493
0.2712650001049042 0.33611398935317993 0.25539499521255493
0.339262992143631 0.36044400930404663 0.34623000025749207
0.3469749987125397 0.3604069948196411 0.3486480116844177
0.3932980000972748 0.32139700651168823 0.3366610109806061
0.22147899866104126 0.9510499835014343 0.18434500694274902
0.22197499871253967 0.8396959900856018 0.2621249854564667
0.6653730273246765 0.8704689741134644 0.14791899919509888
0.5518370270729065 0.8026570081710815 0.21461400389671326
3 0 1 2
3 0 2 3
3 0 3 4
3 0 4 5
3 0 5 6
3 0 6 7
3 0 7 8
3 0 8 9
3 0 9 10
3 0 10 11
3 0 11 12
3 0 12 13
3 0 13 14
3 0 14 15
3 0 15 16
3 0 16 1
3 1 17 18
3 1 18 2
3 2 18 19
3 2 19 3
3 3 19 20
3 3 20 4
3 4 20 21
3 4 21 5
3 5 21 22
3 5 22 6
3 6 22 23
3 6 23 7
3 7 23 24
3 7 24 8
3 8 24 25
3 8 25 9
3 9 25 26
3 9 26 10
3 10 26 27
3 10 27 11
3 11 27 28
3 11 28 12
3 12 28 29
3 12 29 13
3 13 29 30
3 13 30 14
3 14 30 31
3 14 31 15
3 15 31 32
3 15 32 16
3 16 32 17
3 16 17 1
3 17 33 34
3 17 34 18
3 18 34 35
3 18 35 19
3 19 35 36
3 19 36 20
3 20 36 37
3 20 37 21
3 21 37 38
3 21 38 22
3 22 38 39
3 22 39 23
3 23 39 40
3 23 40 24
3 24 40 41
3 24 41 25
3 25 41 42
3 25 42 26
3 26 42 43
3 26 43 27
3 27 43 44
3 27 44 28
3 28 44 45
3 28 45 29
3 29 45 46
3 29 46 30
3 30 46 47
3 30 47 31
3 31 47 48
3 31 48 32
3 32 48 33
3 32 33 17
3 33 49 50
3 33 50 34
3 34 50 51
3 34 51 35
3 35 51 52
3 35 52 36
3 36 52 53
3 36 53 37
3 37 53 54
3 37 54 38
3 38 54 55
3 38 55 39
3 39 55 56
3 39 56 40
3 40 56 57
3 40 57 41
3 41 57 58
3 41 58 42
3 42 58 59
3 42 59 43
3 43 59 60
3 43 60 44
3 44 60 61
3 44 61 45
3 45 61 62
3 45 62 46
3 46 62 63
3 46 63 47
3 47 63 64
3 47 64 48
3 48 64 49
3 48 49 33
3 49 51 50
3 49 52 51
3 49 53 52
3 49 54 53
3 49 55 54
3 49 56 55
3 49 57 56
3 49 58 57
3 49 59 58
3 49 60 59
3 49 61 60
3 49 62 61
3 49 63 62
3 49 64 63
3 65 66 67
3 65 67 68
3 65 68 69
3 65 69 70
3 65 70 71
3 65 71 72
3 65 72 73
3 65 73 74
3 65 74 75
3 65 75 76
3 65 76 77
3 65 77 78
3 65 78 79
3 65 79 80
3 65 80 81
3 65 81 66
3 66 82 83
3 66 83 67
3 67 83 84
3 67 84 68
3 68 84 85
3 68 85 69
3 69 85 86
3 69 86 70
3 70 86 87
3 70 87 71
3 71 87 88
3 71 88 72
3 72 88 89
3 72 89 73
3 73 89 90
3 73 90 74
3 74 90 91
3 74 91 75
3 75 91 92
3 75 92 76
3 76 92 93
3 76 93 77
3 77 93 94
3 77 94 78
3 78 94 95
3 78 95 79
3 79 95 96
3 79 96 80
3 80 96 97
3 80 97 81
3 81 97 82
3 81 82 66
3 82 98 99
3 82 99 83
3 83 99 100
3 83 100 84
3 84 100 101
3 84 101 85
3 85 101 102
3 85 102 86
3 86 102 103
3 86 103 87
3 87 103 104
3 87 104 88
3 88 104 105
3 88 105 89
3 89 105 106
3 89 106 90
3 90 106 107
3 90 107 91
3 91 107 108
3 91 108 92
3 92 108 109
3 92 109 93
3 93 109 110
3 93 110 94
3 94 110 111
3 94 111 95
3 95 111 112
3 95 112 96
3 96 112 113
3 96 113 97
3 97 113 98
3 97 98 82
3 98 114 115
3 98 115 99
3 99 115 116
3 99 116 100
3 100 116 117
3 100 117 101
3 101 117 118
3 101 118 102
3 102 118 119
3 102 119 103
3 103 119 120
3 103 120 104
3 104 120 121
3 104 121 105
3 105 121 122
3 105 122 106
3 106 122 123
3 106 123 107
3 107 123 124
3 107 124 108
3 108 124 125
3 108 125 109
3 109 125 126
3 109 126 110
3 110 126 127
3 110 127 111
3 111 127 128
3 111 128 112
3 112 128 129
3 112 129 113
3 113 129 114
3 113 114 98
3 114 116 115
3 114 117 116
3 114 118 117
3 114 119 118
3 114 120 119
3 114 121 120
3 114 122 121
3 114 123 122
3 114 124 123
3 114 125 124
3 114 126 125
3 114 127 126
3 114 128 127
3 114 129 128
3 130 131 132
3 133 134 135
3 136 137 138
3 136 138 139
3 140 135 141
3 134 133 142
3 142 143 144
3 145 139 146
3 147 148 149
3 150 151 152
3 151 150 153
3 151 154 155
3 156 157 158
3 159 160 161
3 160 162 163
3 164 165 150
3 150 166 164
3 165 167 168
3 165 169 150
3 170 171 172
3 170 173 174
3 159 175 176
3 160 177 178
3 178 162 160
3 164 179 180
3 164 180 181
3 164 181 165
3 165 182 167
3 167 182 183
3 183 184 185
3 184 183 186
3 184 186 177
3 186 187 188
3 186 188 177
3 178 187 189
3 179 190 191
3 179 191 192
3 191 193 194
3 179 192 180
3 195 196 197
3 195 197 182
3 198 199 200
3 198 200 183
3 201 202 203
3 201 203 186
3 204 187 205
3 187 204 189
3 189 204 206
3 131 130 207
3 208 145 209
3 207 210 211
3 211 212 207
3 213 214 215
3 208 216 217
3 218 219 220
3 219 218 221
3 219 221 222
3 162 223 224
3 160 163 225
3 224 213 226
3 213 227 218
3 227 228 229
3 229 228 230
3 162 231 223
3 223 231 232
3 223 232 227
3 227 232 233
3 227 234 235
3 236 230 237
3 238 239 240
3 178 189 241
3 231 241 242
3 231 242 232
3 232 242 233
3 233 234 227
3 234 233 243
3 244 245 246
3 189 206 247
3 189 247 241
3 241 247 248
3 241 248 242
3 242 248 249
3 242 249 233
3 249 250 251
3 252 243 253
3 254 255 256
3 255 257 244
3 245 244 258
3 259 260 261
3 207 212 262
3 262 263 264
3 263 262 212
3 265 266 267
3 268 269 264
3 270 263 271
3 272 273 274
3 275 276 277
3 276 278 134
3 279 280 281
3 269 268 272
3 282 272 268
3 272 282 273
3 282 283 284
3 282 284 273
3 285 237 239
3 279 239 286
3 282 287 288
3 282 289 290
3 282 291 283
3 283 291 292
3 283 292 166
3 166 292 164
3 293 294 295
3 290 291 282
3 291 290 296
3 291 296 292
3 292 296 297
3 292 297 164
3 164 297 179
3 261 245 298
3 299 245 300
3 301 302 303
3 303 304 305
3 306 307 308
3 309 290 310
3 290 309 296
3 296 309 311
3 296 311 297
3 297 311 312
3 297 312 179
3 179 312 190
3 290 289 313
3 306 294 314
3 315 255 316
3 249 251 233
3 243 252 317
3 255 244 318
3 159 171 175
3 319 150 169
3 159 161 148
3 169 320 319
3 170 174 321
3 177 160 176
3 172 173 170
3 295 322 323
3 295 323 293
3 324 325 326
3 315 327 328
3 306 329 330
3 329 306 331
3 256 332 333
3 233 332 243
3 263 270 264
3 334 269 272
3 222 263 211
3 229 218 227
3 221 218 229
3 263 222 271
3 268 287 282
3 335 268 336
3 337 338 339
3 279 286 280
3 264 334 262
3 334 264 269
3 271 285 270
3 222 221 229
3 263 212 211
3 211 219 222
3 207 262 340
3 130 132 139
3 211 210 341
3 216 210 342
3 266 343 344
3 262 334 343
3 131 340 345
3 340 131 207
3 210 207 130
3 139 217 216
3 151 153 319
3 346 347 348
3 349 171 350
3 154 351 348
3 352 353 354
3 347 346 355
3 353 352 350
3 356 357 358
3 357 359 360
3 142 144 361
3 139 362 363
3 143 142 133
3 357 356 155
3 140 141 155
3 135 134 364
3 363 146 139
3 147 146 365
3 146 147 145
3 156 158 147
3 351 366 348
3 348 347 154
3 171 159 353
3 171 353 350
3 151 319 367
3 319 153 150
3 148 368 369
3 148 161 160
3 343 340 262
3 131 345 142
3 216 342 139
3 210 216 341
3 218 220 213
3 208 209 370
3 277 273 275
3 340 343 265
3 265 142 345
3 265 345 340
3 341 219 211
3 370 219 371
3 265 267 142
3 134 266 276
3 130 139 342
3 130 342 210
3 136 142 372
3 142 132 131
3 132 142 136
3 132 136 139
3 370 371 208
3 208 341 216
3 266 265 343
3 266 344 276
3 134 142 267
3 134 267 266
3 217 145 208
3 145 217 139
3 272 274 334
3 334 344 343
3 341 208 371
3 341 371 219
3 344 334 277
3 344 277 276
3 370 213 220
3 370 220 219
3 370 209 214
3 147 149 145
3 306 322 295
3 306 295 294
3 373 325 324
3 323 322 374
3 323 325 373
3 315 316 327
3 318 339 375
3 376 318 244
3 318 327 316
3 318 316 255
3 285 239 279
3 268 335 287
3 377 378 379
3 237 228 380
3 237 285 236
3 237 230 228
3 279 287 335
3 279 335 336
3 268 264 270
3 336 285 279
3 230 236 229
3 229 271 222
3 271 229 236
3 271 236 285
3 270 285 336
3 270 336 268
3 237 378 377
3 237 377 239
3 326 286 381
3 238 381 239
3 286 239 381
3 381 238 324
3 240 377 379
3 377 240 239
3 240 339 382
3 240 382 238
3 381 324 326
3 318 376 337
3 318 337 339
3 382 339 338
3 323 373 383
3 323 383 293
3 277 334 274
3 277 274 273
3 150 384 166
3 166 385 283
3 385 166 384
3 385 273 284
3 385 284 283
3 227 213 386
3 227 386 223
3 224 386 213
3 386 224 223
3 163 224 387
3 224 163 162
3 368 148 157
3 243 317 234
3 388 389 390
3 315 328 252
3 391 392 393
3 318 375 327
3 394 395 396
3 379 339 240
3 397 398 399
3 237 380 400
3 401 402 403
3 227 235 228
3 404 405 406
3 279 281 287
3 407 408 409
3 286 326 280
3 410 411 412
3 323 374 325
3 413 410 414
3 306 330 322
3 415 416 417
3 290 313 329
3 418 419 420
3 282 288 289
3 421 418 422
3 392 391 395
3 394 396 339
3 252 328 423
3 391 393 327
3 234 317 424
3 388 390 252
3 228 235 425
3 404 406 234
3 237 400 378
3 401 403 228
3 395 394 398
3 397 399 378
3 398 397 402
3 426 380 427
3 410 413 416
3 417 329 415
3 428 374 429
3 428 429 410
3 430 288 422
3 430 422 418
3 288 430 289
3 418 421 408
3 409 280 407
3 374 428 325
3 293 246 245
3 171 349 366
3 171 366 319
3 148 369 159
3 352 354 431
3 134 278 432
3 276 275 278
3 209 145 433
3 145 434 433
3 135 364 151
3 385 435 273
3 209 433 214
3 214 213 370
3 273 436 275
3 275 432 278
3 214 433 434
3 163 387 437
3 432 151 364
3 432 364 134
3 434 145 149
3 434 149 148
3 434 148 215
3 434 215 214
3 432 275 436
3 432 436 151
3 436 273 435
3 435 152 438
3 215 148 437
3 215 226 213
3 160 225 148
3 226 387 224
3 385 384 439
3 385 439 435
3 150 152 384
3 437 226 215
3 226 437 387
3 437 148 225
3 437 225 163
3 435 438 436
3 152 435 439
3 152 439 384
3 151 436 438
3 151 438 152
3 182 180 194
3 196 195 193
3 194 193 195
3 194 195 182
3 183 182 197
3 199 198 196
3 197 196 198
3 197 198 183
3 183 200 201
3 202 201 199
3 200 199 201
3 201 186 183
3 187 186 203
3 204 205 202
3 203 202 205
3 203 205 187
3 194 180 192
3 194 192 191
3 178 177 188
3 178 188 187
3 182 165 181
3 182 181 180
3 383 246 293
3 383 373 246
3 373 324 246
3 324 238 246
3 238 382 246
3 382 338 246
3 338 337 246
3 337 376 246
3 376 244 246
3 294 293 440
3 309 310 441
3 244 257 442
3 261 298 259
3 257 255 254
3 256 315 332
3 315 256 255
3 245 299 293
3 293 302 440
3 303 305 301
3 314 301 443
3 301 314 294
3 314 441 307
3 314 307 306
3 307 441 310
3 329 331 290
3 301 294 440
3 301 440 302
3 259 444 445
3 442 257 254
3 254 445 442
3 442 258 244
3 302 293 299
3 252 253 315
3 256 333 446
3 332 233 251
3 332 251 250
3 310 290 308
3 310 308 307
3 165 168 169
3 320 171 319
3 172 171 320
3 172 320 169
3 177 176 321
3 177 321 184
3 183 185 167
3 172 167 447
3 172 447 173
3 185 184 174
3 172 169 168
3 172 168 167
3 176 160 159
3 176 170 321
3 170 176 175
3 170 175 171
3 185 173 447
3 185 447 167
3 184 321 174
3 174 173 185
3 329 417 330
3 330 413 322
3 413 330 417
3 413 417 416
3 289 448 313
3 313 415 329
3 415 313 448
3 415 448 419
3 448 289 420
3 448 420 419
3 420 289 430
3 420 430 418
3 422 287 421
3 287 422 288
3 280 409 281
3 281 421 287
3 421 281 409
3 421 409 408
3 325 449 326
3 326 407 280
3 407 326 449
3 407 449 411
3 449 325 412
3 449 412 411
3 412 325 428
3 412 428 410
3 413 414 322
3 322 429 374
3 429 322 414
3 429 414 410
3 136 372 137
3 356 358 143
3 144 143 450
3 144 450 451
3 139 452 362
3 362 451 453
3 362 453 363
3 451 362 452
3 451 452 137
3 451 137 361
3 451 361 144
3 361 137 372
3 361 372 142
3 452 139 138
3 452 138 137
3 332 315 253
3 332 253 243
3 308 290 331
3 308 331 306
3 394 379 454
3 379 394 339
3 375 339 396
3 396 395 455
3 396 455 375
3 375 391 327
3 328 327 393
3 389 388 392
3 393 392 423
3 393 423 328
3 423 392 388
3 423 388 252
3 317 252 390
3 405 404 389
3 390 389 424
3 390 424 317
3 424 389 404
3 424 404 234
3 235 234 406
3 402 401 405
3 406 405 425
3 406 425 235
3 425 405 401
3 425 401 228
3 380 228 403
3 426 427 402
3 380 426 400
3 400 397 378
3 379 378 399
3 394 454 398
3 399 398 454
3 399 454 379
3 397 400 426
3 397 426 402
3 403 402 427
3 403 427 380
3 391 375 455
3 391 455 395
3 456 357 155
3 155 457 456
3 458 347 355
3 355 459 458
3 459 355 431
3 431 460 459
3 461 359 357
3 357 456 461
3 462 157 359
3 359 461 462
3 460 431 368
3 368 463 460
3 463 368 157
3 157 462 463
3 464 154 347
3 347 458 464
3 457 155 154
3 154 464 457
3 135 140 133
3 133 356 143
3 356 133 140
3 356 140 155
3 450 143 358
3 450 465 451
3 151 155 141
3 151 141 135
3 146 363 360
3 157 156 359
3 360 359 365
3 360 365 146
3 365 359 156
3 365 156 147
3 148 147 158
3 148 158 157
3 451 466 453
3 357 360 466
3 357 466 465
3 357 465 358
3 466 360 363
3 466 363 453
3 450 358 465
3 465 466 451
3 319 366 351
3 151 367 154
3 351 154 367
3 351 367 319
3 348 349 346
3 349 348 366
3 346 350 352
3 350 346 349
3 352 355 346
3 355 352 431
3 431 354 467
3 431 467 368
3 467 353 369
3 353 467 354
3 353 159 369
3 369 368 467
3 162 241 231
3 162 178 241
3 468 304 303
3 468 261 260
3 261 468 300
3 261 300 245
3 303 469 468
3 469 303 302
3 258 298 245
3 444 442 445
3 445 470 259
3 445 254 471
3 445 471 470
3 302 299 469
3 299 300 469
3 469 300 468
3 258 442 444
3 258 444 298
3 298 444 259
3 446 254 256
3 254 446 471
3 301 305 443
3 443 441 314
3 470 471 446
3 470 446 250
3 304 441 443
3 304 443 305
3 250 446 333
3 250 333 332
