ply
format ascii 1.0
element vertex 112
property float x
property float y
property float z
element face 168
property list uchar int vertex_indices
end_header
0.040478598326444626 0.04041619971394539 0.02500309981405735
0.9596459865570068 0.04041619971394539 0.02500309981405735
0.9596459865570068 0.6531950235366821 0.02500309981405735
0.040478598326444626 0.6531950235366821 0.02500309981405735
0.040478598326444626 0.04041619971394539 0.05564200133085251
0.9596459865570068 0.04041619971394539 0.05564200133085251
0.9596459865570068 0.6531950235366821 0.05564200133085251
0.040478598326444626 0.6531950235366821 0.05564200133085251
0.9443579912185669 0.04041619971394539 0.3313950002193451
0.9442960023880005 0.04041619971394539 0.02500619925558567
0.9442960023880005 0.6531950235366821 0.02500619925558567
0.9443579912185669 0.6531950235366821 0.3313950002193451
0.9749969840049744 0.04041619971394539 0.33138900995254517
0.9749339818954468 0.04041619971394539 0.02500000037252903
0.9749339818954468 0.6531950235366821 0.02500000037252903
0.9749969840049744 0.6531950235366821 0.33138900995254517
0.02519029937684536 0.04041619971394539 0.3315829932689667
0.025127900764346123 0.04041619971394539 0.02519349940121174
0.025127900764346123 0.6531950235366821 0.02519349940121174
0.02519029937684536 0.6531950235366821 0.3315829932689667
0.05582920089364052 0.04041619971394539 0.33157598972320557
0.05576679855585098 0.04041619971394539 0.02518719993531704
0.05576679855585098 0.6531950235366821 0.02518719993531704
0.05582920089364052 0.6531950235366821 0.33157598972320557
0.9750000238418579 0.02519349940121174 0.33138900995254517
0.9749379754066467 0.02519349940121174 0.02500000037252903
0.025131000205874443 0.02500000037252903 0.02519349940121174
0.02519349940121174 0.02500000037252903 0.3315829932689667
0.9749940037727356 0.0558324009180069 0.33138900995254517
0.974931001663208 0.0558324009180069 0.02500000037252903
0.025124799460172653 0.05563889816403389 0.02519349940121174
0.02518719993531704 0.05563889816403389 0.3315829932689667
0.9749690294265747 0.17838799953460693 0.33138900995254517
0.9749060273170471 0.17838799953460693 0.02500000037252903
0.025099800899624825 0.17819499969482422 0.02519349940121174
0.02516219951212406 0.17819499969482422 0.3315829932689667
0.9749630093574524 0.2090270072221756 0.33138900995254517
0.9749000072479248 0.2090270072221756 0.02500000037252903
0.025093600153923035 0.20883400738239288 0.02519349940121174
0.02515600062906742 0.20883400738239288 0.3315829932689667
0.9749379754066467 0.3315829932689667 0.33138900995254517
0.9748749732971191 0.3315829932689667 0.02500000037252903
0.025068599730730057 0.33138900995254517 0.02519349940121174
0.025131000205874443 0.33138900995254517 0.3315829932689667
0.974931001663208 0.36222198605537415 0.33138900995254517
0.9748690128326416 0.36222198605537415 0.02500000037252903
0.025062400847673416 0.36202800273895264 0.02519349940121174
0.025124799460172653 0.36202800273895264 0.3315829932689667
0.9749060273170471 0.4847770035266876 0.33138900995254517
0.9748439788818359 0.4847770035266876 0.02500000037252903
0.025037400424480438 0.4845840036869049 0.02519349940121174
0.025099800899624825 0.4845840036869049 0.3315829932689667
0.9749000072479248 0.5154160261154175 0.33138900995254517
0.9748380184173584 0.5154160261154175 0.02500000037252903
0.02503119967877865 0.5152230262756348 0.02519349940121174
0.025093600153923035 0.5152230262756348 0.3315829932689667
0.9748749732971191 0.6379719972610474 0.33138900995254517
0.9748129844665527 0.6379719972610474 0.02500000037252903
0.02500619925558567 0.6377779841423035 0.02519349940121174
0.025068599730730057 0.6377779841423035 0.3315829932689667
0.9748690128326416 0.6686109900474548 0.33138900995254517
0.9748070240020752 0.6686109900474548 0.02500000037252903
0.02500000037252903 0.6684169769287109 0.02519349940121174
0.025062400847673416 0.6684169769287109 0.3315829932689667
0.8216149806976318 0.6532629728317261 0.33142000436782837
0.8215529918670654 0.6532629728317261 0.02503119967877865
0.821802020072937 0.040484800934791565 0.02503119967877865
0.8218650221824646 0.040484800934791565 0.33142000436782837
0.7909759879112244 0.6532509922981262 0.3314270079135895
0.790913999080658 0.6532509922981262 0.025037499144673347
0.7911630272865295 0.040472399443387985 0.025037400424480438
0.7912260293960571 0.040472399443387985 0.3314270079135895
0.6684200167655945 0.6532009840011597 0.33145201206207275
0.6683580279350281 0.6532009840011597 0.025062400847673416
0.6686080098152161 0.04042239859700203 0.025062400847673416
0.6686699986457825 0.04042239859700203 0.33145201206207275
0.6377819776535034 0.6531879901885986 0.3314580023288727
0.6377189755439758 0.6531879901885986 0.025068700313568115
0.6379690170288086 0.04041000083088875 0.025068599730730057
0.638031005859375 0.04041000083088875 0.3314580023288727
0.5152260065078735 0.6531379818916321 0.33148300647735596
0.515163004398346 0.6531379818916321 0.025093600153923035
0.5154129862785339 0.04035999998450279 0.025093600153923035
0.5154759883880615 0.04035999998450279 0.33148300647735596
0.48458701372146606 0.6531260013580322 0.3314889967441559
0.48452499508857727 0.6531260013580322 0.025099899619817734
0.48477399349212646 0.04034759849309921 0.025099800899624825
0.48483699560165405 0.04034759849309921 0.3314889967441559
0.3620310127735138 0.6530759930610657 0.33151400089263916
0.361968994140625 0.6530759930610657 0.025124799460172653
0.3622179925441742 0.040297601372003555 0.025124799460172653
0.3622809946537018 0.040297601372003555 0.33151400089263916
0.33139199018478394 0.6530640125274658 0.3315199911594391
0.33133000135421753 0.6530640125274658 0.0251311007887125
0.3315800130367279 0.040285199880599976 0.025131000205874443
0.3316420018672943 0.040285199880599976 0.3315199911594391
0.20883700251579285 0.6530140042304993 0.33154499530792236
0.20877400040626526 0.6530140042304993 0.02515600062906742
0.20902399718761444 0.04023519903421402 0.02515600062906742
0.20908600091934204 0.04023519903421402 0.33154499530792236
0.17819799482822418 0.6530010104179382 0.3315509855747223
0.1781349927186966 0.6530010104179382 0.02516230009496212
0.17838500440120697 0.04022280126810074 0.02516219951212406
0.17844699323177338 0.04022280126810074 0.3315509855747223
0.6087729930877686 0.5985810160636902 0.2165679931640625
0.6087570190429688 0.5985810160636902 0.13997100293636322
0.5551829934120178 0.5438359975814819 0.1399810016155243
0.5551990270614624 0.5438359975814819 0.21657900512218475
0.597823977470398 0.6092960238456726 0.21657000482082367
0.5978080034255981 0.6092960238456726 0.1399729996919632
0.5442339777946472 0.5545510053634644 0.13998399674892426
0.5442500114440918 0.5545510053634644 0.21658100187778473
3 0 3 1
3 1 3 2
3 0 5 4
3 0 1 5
3 0 4 3
3 3 4 7
3 3 7 6
3 3 6 2
3 1 6 5
3 1 2 6
3 5 7 4
3 5 6 7
3 8 11 9
3 9 11 10
3 8 13 12
3 8 9 13
3 8 12 11
3 11 12 15
3 11 15 14
3 11 14 10
3 9 14 13
3 9 10 14
3 13 15 12
3 13 14 15
3 16 19 17
3 17 19 18
3 16 21 20
3 16 17 21
3 16 20 19
3 19 20 23
3 19 23 22
3 19 22 18
3 17 22 21
3 17 18 22
3 21 23 20
3 21 22 23
3 24 27 25
3 25 27 26
3 24 29 28
3 24 25 29
3 24 28 27
3 27 28 31
3 27 31 30
3 27 30 26
3 25 30 29
3 25 26 30
3 29 31 28
3 29 30 31
3 32 35 33
3 33 35 34
3 32 37 36
3 32 33 37
3 32 36 35
3 35 36 39
3 35 39 38
3 35 38 34
3 33 38 37
3 33 34 38
3 37 39 36
3 37 38 39
3 40 43 41
3 41 43 42
3 40 45 44
3 40 41 45
3 40 44 43
3 43 44 47
3 43 47 46
3 43 46 42
3 41 46 45
3 41 42 46
3 45 47 44
3 45 46 47
3 48 51 49
3 49 51 50
3 48 53 52
3 48 49 53
3 48 52 51
3 51 52 55
3 51 55 54
3 51 54 50
3 49 54 53
3 49 50 54
3 53 55 52
3 53 54 55
3 56 59 57
3 57 59 58
3 56 61 60
3 56 57 61
3 56 60 59
3 59 60 63
3 59 63 62
3 59 62 58
3 57 62 61
3 57 58 62
3 61 63 60
3 61 62 63
3 64 67 65
3 65 67 66
3 64 69 68
3 64 65 69
3 64 68 67
3 67 68 71
3 67 71 70
3 67 70 66
3 65 70 69
3 65 66 70
3 69 71 68
3 69 70 71
3 72 75 73
3 73 75 74
3 72 77 76
3 72 73 77
3 72 76 75
3 75 76 79
3 75 79 78
3 75 78 74
3 73 78 77
3 73 74 78
3 77 79 76
3 77 78 79
3 80 83 81
3 81 83 82
3 80 85 84
3 80 81 85
3 80 84 83
3 83 84 87
3 83 87 86
3 83 86 82
3 81 86 85
3 81 82 86
3 85 87 84
3 85 86 87
3 88 91 89
3 89 91 90
3 88 93 92
3 88 89 93
3 88 92 91
3 91 92 95
3 91 95 94
3 91 94 90
3 89 94 93
3 89 90 94
3 93 95 92
3 93 94 95
3 96 99 97
3 97 99 98
3 96 101 100
3 96 97 101
3 96 100 99
3 99 100 103
3 99 103 102
3 99 102 98
3 97 102 101
3 97 98 102
3 101 103 100
3 101 102 103
3 104 107 105
3 105 107 106
3 104 109 108
3 104 105 109
3 104 108 107
3 107 108 111
3 107 111 110
3 107 110 106
3 105 110 109
3 105 106 110
3 109 111 108
3 109 110 111
