ply
format ascii 1.0
element vertex 332
property float x
property float y
property float z
element face 558
property list uchar int vertex_indices
end_header
0.39061400294303894 0.10822399705648422 0.6340540051460266
0.1579509973526001 0.10822399705648422 0.6340540051460266
0.1579509973526001 0.10822399705648422 0.6671620011329651
0.39061400294303894 0.10822399705648422 0.6671620011329651
0.39061400294303894 0.14120200276374817 0.6340540051460266
0.1579509973526001 0.14120200276374817 0.6340540051460266
0.1579509973526001 0.1413320004940033 0.66703200340271
0.39061400294303894 0.1413320004940033 0.66703200340271
0.39061400294303894 0.10822399705648422 0.13548900187015533
0.1579509973526001 0.10822399705648422 0.13548900187015533
0.1579509973526001 0.10822399705648422 0.1685969978570938
0.39061400294303894 0.10822399705648422 0.1685969978570938
0.39061400294303894 0.14120200276374817 0.13548900187015533
0.1579509973526001 0.14120200276374817 0.13548900187015533
0.1579509973526001 0.1413320004940033 0.16846700012683868
0.39061400294303894 0.1413320004940033 0.16846700012683868
0.42398199439048767 0.212350994348526 0.2018350064754486
0.42398199439048767 0.2244260013103485 0.16924600303173065
0.42398199439048767 0.22429600358009338 0.1348399966955185
0.42398199439048767 0.212350994348526 0.10225199908018112
0.5234349966049194 0.212350994348526 0.2018350064754486
0.5234349966049194 0.2244260013103485 0.16924600303173065
0.5234349966049194 0.22429600358009338 0.1348399966955185
0.5234349966049194 0.212350994348526 0.10225199908018112
0.42398199439048767 0.1247130036354065 0.2516910135746002
0.42385199666023254 0.15924899280071259 0.2455890029668808
0.42398199439048767 0.18963000178337097 0.22832100093364716
0.5234349966049194 0.1247130036354065 0.2516910135746002
0.5234349966049194 0.15924899280071259 0.2455890029668808
0.5234349966049194 0.18963000178337097 0.22832100093364716
0.42398199439048767 0.03694479912519455 0.2017049938440323
0.42398199439048767 0.059665799140930176 0.22819100320339203
0.42398199439048767 0.0900472030043602 0.24545900523662567
0.5234349966049194 0.03694479912519455 0.2017049938440323
0.5234349966049194 0.059665799140930176 0.22819100320339203
0.5234349966049194 0.0900472030043602 0.24545900523662567
0.42398199439048767 0.03707459941506386 0.10199200361967087
0.42398199439048767 0.02500000037252903 0.13458000123500824
0.42398199439048767 0.02512980066239834 0.16911600530147552
0.5234349966049194 0.03707459941506386 0.10199200361967087
0.5234349966049194 0.02500000037252903 0.13458000123500824
0.5234349966049194 0.02512980066239834 0.16911600530147552
0.42398199439048767 0.1897599995136261 0.07563550025224686
0.42398199439048767 0.1593790054321289 0.058367498219013214
0.42398199439048767 0.1247130036354065 0.05226530134677887
0.5234349966049194 0.1897599995136261 0.07563550025224686
0.5234349966049194 0.1593790054321289 0.058367498219013214
0.5235649943351746 0.1247130036354065 0.05226530134677887
0.42398199439048767 0.09017699956893921 0.058237701654434204
0.42398199439048767 0.05979570001363754 0.07550570368766785
0.5234349966049194 0.09017699956893921 0.058237701654434204
0.5234349966049194 0.05979570001363754 0.07550570368766785
0.42398199439048767 0.212350994348526 0.7003999948501587
0.42398199439048767 0.2244260013103485 0.6678109765052795
0.42398199439048767 0.22429600358009338 0.6334050297737122
0.42398199439048767 0.212350994348526 0.6008170247077942
0.5234349966049194 0.212350994348526 0.7003999948501587
0.5234349966049194 0.2244260013103485 0.6678109765052795
0.5234349966049194 0.22429600358009338 0.6334050297737122
0.5234349966049194 0.212350994348526 0.6008170247077942
0.42398199439048767 0.1247130036354065 0.7502560019493103
0.42385199666023254 0.15924899280071259 0.7441539764404297
0.42398199439048767 0.18963000178337097 0.726885974407196
0.5234349966049194 0.1247130036354065 0.7502560019493103
0.5234349966049194 0.15924899280071259 0.7441539764404297
0.5234349966049194 0.18963000178337097 0.726885974407196
0.42398199439048767 0.03694479912519455 0.7002699971199036
0.42398199439048767 0.059665799140930176 0.7267559766769409
0.42398199439048767 0.0900472030043602 0.7440239787101746
0.5234349966049194 0.03694479912519455 0.7002699971199036
0.5234349966049194 0.059665799140930176 0.7267559766769409
0.5234349966049194 0.0900472030043602 0.7440239787101746
0.42398199439048767 0.03707459941506386 0.6005570292472839
0.42398199439048767 0.02500000037252903 0.6331449747085571
0.42398199439048767 0.02512980066239834 0.6676809787750244
0.5234349966049194 0.03707459941506386 0.6005570292472839
0.5234349966049194 0.02500000037252903 0.6331449747085571
0.5234349966049194 0.02512980066239834 0.6676809787750244
0.42398199439048767 0.1897599995136261 0.5742009878158569
0.42398199439048767 0.1593790054321289 0.5569329857826233
0.42398199439048767 0.1247130036354065 0.5508300065994263
0.5234349966049194 0.1897599995136261 0.5742009878158569
0.5234349966049194 0.1593790054321289 0.5569329857826233
0.5235649943351746 0.1247130036354065 0.5508300065994263
0.42398199439048767 0.09017699956893921 0.5568029880523682
0.42398199439048767 0.05979570001363754 0.5740709900856018
0.5234349966049194 0.09017699956893921 0.5568029880523682
0.5234349966049194 0.05979570001363754 0.5740709900856018
0.02512980066239834 0.212350994348526 0.2018350064754486
0.02512980066239834 0.2244260013103485 0.16924600303173065
0.02512980066239834 0.22429600358009338 0.1348399966955185
0.02512980066239834 0.212350994348526 0.10225199908018112
0.12458299845457077 0.212350994348526 0.2018350064754486
0.12458299845457077 0.2244260013103485 0.16924600303173065
0.12458299845457077 0.22429600358009338 0.1348399966955185
0.12458299845457077 0.212350994348526 0.10225199908018112
0.02512980066239834 0.1247130036354065 0.2516910135746002
0.02500000037252903 0.15924899280071259 0.2455890029668808
0.02512980066239834 0.18963000178337097 0.22832100093364716
0.12458299845457077 0.1247130036354065 0.2516910135746002
0.12458299845457077 0.15924899280071259 0.2455890029668808
0.12458299845457077 0.18963000178337097 0.22832100093364716
0.02512980066239834 0.03694479912519455 0.2017049938440323
0.02512980066239834 0.059665799140930176 0.22819100320339203
0.02512980066239834 0.0900472030043602 0.24545900523662567
0.12458299845457077 0.03694479912519455 0.2017049938440323
0.12458299845457077 0.059665799140930176 0.22819100320339203
0.12458299845457077 0.0900472030043602 0.24545900523662567
0.02512980066239834 0.03707459941506386 0.10199200361967087
0.02512980066239834 0.02500000037252903 0.13458000123500824
0.02512980066239834 0.02512980066239834 0.16911600530147552
0.12458299845457077 0.03707459941506386 0.10199200361967087
0.12458299845457077 0.02500000037252903 0.13458000123500824
0.12458299845457077 0.02512980066239834 0.16911600530147552
0.02512980066239834 0.1897599995136261 0.07563550025224686
0.02512980066239834 0.1593790054321289 0.058367498219013214
0.02512980066239834 0.1247130036354065 0.05226530134677887
0.12458299845457077 0.1897599995136261 0.07563550025224686
0.12458299845457077 0.1593790054321289 0.058367498219013214
0.1247130036354065 0.1247130036354065 0.05226530134677887
0.02512980066239834 0.09017699956893921 0.058237701654434204
0.02512980066239834 0.05979570001363754 0.07550570368766785
0.12458299845457077 0.09017699956893921 0.058237701654434204
0.12458299845457077 0.05979570001363754 0.07550570368766785
0.02512980066239834 0.212350994348526 0.7003999948501587
0.02512980066239834 0.2244260013103485 0.6678109765052795
0.02512980066239834 0.22429600358009338 0.6334050297737122
0.02512980066239834 0.212350994348526 0.6008170247077942
0.12458299845457077 0.212350994348526 0.7003999948501587
0.12458299845457077 0.2244260013103485 0.6678109765052795
0.12458299845457077 0.22429600358009338 0.6334050297737122
0.12458299845457077 0.212350994348526 0.6008170247077942
0.02512980066239834 0.1247130036354065 0.7502560019493103
0.02500000037252903 0.15924899280071259 0.7441539764404297
0.02512980066239834 0.18963000178337097 0.726885974407196
0.12458299845457077 0.1247130036354065 0.7502560019493103
0.12458299845457077 0.15924899280071259 0.7441539764404297
0.12458299845457077 0.18963000178337097 0.726885974407196
0.02512980066239834 0.03694479912519455 0.7002699971199036
0.02512980066239834 0.059665799140930176 0.7267559766769409
0.02512980066239834 0.0900472030043602 0.7440239787101746
0.12458299845457077 0.03694479912519455 0.7002699971199036
0.12458299845457077 0.059665799140930176 0.7267559766769409
0.12458299845457077 0.0900472030043602 0.7440239787101746
0.02512980066239834 0.03707459941506386 0.6005570292472839
0.02512980066239834 0.02500000037252903 0.6331449747085571
0.02512980066239834 0.02512980066239834 0.6676809787750244
0.12458299845457077 0.03707459941506386 0.6005570292472839
0.12458299845457077 0.02500000037252903 0.6331449747085571
0.12458299845457077 0.02512980066239834 0.6676809787750244
0.02512980066239834 0.1897599995136261 0.5742009878158569
0.02512980066239834 0.1593790054321289 0.5569329857826233
0.02512980066239834 0.1247130036354065 0.5508300065994263
0.12458299845457077 0.1897599995136261 0.5742009878158569
0.12458299845457077 0.1593790054321289 0.5569329857826233
0.1247130036354065 0.1247130036354065 0.5508300065994263
0.02512980066239834 0.09017699956893921 0.5568029880523682
0.02512980066239834 0.05979570001363754 0.5740709900856018
0.12458299845457077 0.09017699956893921 0.5568029880523682
0.12458299845457077 0.05979570001363754 0.5740709900856018
0.09770739823579788 0.49590998888015747 0.863083004951477
0.09770739823579788 0.3910039961338043 0.8330910205841064
0.09770739823579788 0.42943501472473145 0.9041100144386292
0.09770739823579788 0.46773600578308105 0.9750000238418579
0.09770739823579788 0.3628300130367279 0.9451379776000977
0.1035500019788742 0.4978579878807068 0.8695740103721619
0.09173499792814255 0.49811699986457825 0.8693150281906128
0.09173499792814255 0.20715799927711487 0.7860910296440125
0.1035500019788742 0.2067680060863495 0.7863500118255615
0.10380999743938446 0.5004540085792542 0.8589280247688293
0.09199470281600952 0.5008440017700195 0.8586680293083191
0.09199470281600952 0.20975500345230103 0.7753139734268188
0.10380999743938446 0.20936499536037445 0.7755740284919739
0.4508579969406128 0.49590998888015747 0.863083004951477
0.4508579969406128 0.3910039961338043 0.8330910205841064
0.4508579969406128 0.42943501472473145 0.9041100144386292
0.4508579969406128 0.46773600578308105 0.9750000238418579
0.4508579969406128 0.3628300130367279 0.9451379776000977
0.45656999945640564 0.4978579878807068 0.8695740103721619
0.4447549879550934 0.49811699986457825 0.8693150281906128
0.4447549879550934 0.20715799927711487 0.7860910296440125
0.45656999945640564 0.2067680060863495 0.7863500118255615
0.4568299949169159 0.5004540085792542 0.8589280247688293
0.445015013217926 0.5008440017700195 0.8586680293083191
0.445015013217926 0.20975500345230103 0.7753139734268188
0.4568299949169159 0.20936499536037445 0.7755740284919739
0.40489599108695984 0.4085319936275482 0.4277470111846924
0.4167110025882721 0.4085319936275482 0.4277470111846924
0.4167110025882721 0.415802001953125 0.42748698592185974
0.40489599108695984 0.415802001953125 0.42748698592185974
0.40632399916648865 0.3106360137462616 0.7171480059623718
0.4138549864292145 0.3106360137462616 0.7171480059623718
0.4138549864292145 0.3106360137462616 0.7428560256958008
0.40632399916648865 0.3106360137462616 0.7428560256958008
0.13224300742149353 0.4085319936275482 0.4277470111846924
0.14379900693893433 0.4085319936275482 0.4277470111846924
0.14379900693893433 0.415802001953125 0.42748698592185974
0.13224300742149353 0.415802001953125 0.42748698592185974
0.13496999442577362 0.3106360137462616 0.7171480059623718
0.14237099885940552 0.3106360137462616 0.7171480059623718
0.14237099885940552 0.3106360137462616 0.7428560256958008
0.13496999442577362 0.3106360137462616 0.7428560256958008
0.4508579969406128 0.31271401047706604 0.8107590079307556
0.4508579969406128 0.30128800868988037 0.8107590079307556
0.4508579969406128 0.25649499893188477 0.8107590079307556
0.4508579969406128 0.2244260013103485 0.8107590079307556
0.4194380044937134 0.31271401047706604 0.8107590079307556
0.4194380044937134 0.30128800868988037 0.8107590079307556
0.4194380044937134 0.25649499893188477 0.8107590079307556
0.4194380044937134 0.2244260013103485 0.8107590079307556
0.12912699580192566 0.31271401047706604 0.8107590079307556
0.12912699580192566 0.30128800868988037 0.8107590079307556
0.12912699580192566 0.25649499893188477 0.8107590079307556
0.12912699580192566 0.2244260013103485 0.8107590079307556
0.09770739823579788 0.31271401047706604 0.8107590079307556
0.09770739823579788 0.30128800868988037 0.8107590079307556
0.09770739823579788 0.25649499893188477 0.8107590079307556
0.09770739823579788 0.2244260013103485 0.8107590079307556
0.4508579969406128 0.31271401047706604 0.4351480007171631
0.4194380044937134 0.31271401047706604 0.4351480007171631
0.12912699580192566 0.31271401047706604 0.4351480007171631
0.09770739823579788 0.31271401047706604 0.4351480007171631
0.4508579969406128 0.31232398748397827 0.4351480007171631
0.42333298921585083 0.39580801129341125 0.4295650124549866
0.4194380044937134 0.31232398748397827 0.4351480007171631
0.3965870141983032 0.39580801129341125 0.4295650124549866
0.12912699580192566 0.31232398748397827 0.4351480007171631
0.151978000998497 0.39580801129341125 0.4295650124549866
0.09770739823579788 0.31232398748397827 0.4351480007171631
0.12523199617862701 0.39580801129341125 0.4295650124549866
0.4508579969406128 0.31232398748397827 0.1926169991493225
0.42333298921585083 0.3706200122833252 0.3042739927768707
0.4194380044937134 0.31232398748397827 0.1727519929409027
0.3965870141983032 0.3706200122833252 0.3042739927768707
0.12912699580192566 0.31232398748397827 0.1727519929409027
0.151978000998497 0.3706200122833252 0.3042739927768707
0.09770739823579788 0.31232398748397827 0.1926169991493225
0.12523199617862701 0.3706200122833252 0.3042739927768707
0.4508579969406128 0.2244260013103485 0.05460229888558388
0.4508579969406128 0.2367600053548813 0.0447348989546299
0.4508579969406128 0.2668820023536682 0.0447348989546299
0.4508579969406128 0.29700401425361633 0.04901940003037453
0.4194380044937134 0.2244260013103485 0.052005600184202194
0.4194380044937134 0.2244260013103485 0.03486739844083786
0.4194380044937134 0.2367600053548813 0.02500000037252903
0.4194380044937134 0.2668820023536682 0.02500000037252903
0.4194380044937134 0.29700401425361633 0.02928449958562851
0.12912699580192566 0.2244260013103485 0.052005600184202194
0.12912699580192566 0.2244260013103485 0.03486739844083786
0.12912699580192566 0.2367600053548813 0.02500000037252903
0.12912699580192566 0.2668820023536682 0.02500000037252903
0.12912699580192566 0.29700401425361633 0.02928449958562851
0.09770739823579788 0.2244260013103485 0.05460229888558388
0.09770739823579788 0.2367600053548813 0.0447348989546299
0.09770739823579788 0.2668820023536682 0.0447348989546299
0.09770739823579788 0.29700401425361633 0.04901940003037453
0.15132899582386017 0.23260599374771118 0.7681729793548584
0.17392000555992126 0.13315199315547943 0.7424659729003906
0.3987939953804016 0.23260599374771118 0.7681729793548584
0.3843820095062256 0.13315199315547943 0.7424659729003906
0.15210799872875214 0.23260599374771118 0.06511890143156052
0.17392000555992126 0.13315199315547943 0.0906962975859642
0.3978849947452545 0.23260599374771118 0.06511890143156052
0.3843820095062256 0.13315199315547943 0.0906962975859642
0.17327100038528442 0.13315199315547943 0.0906962975859642
0.2132599949836731 0.09537039697170258 0.30115801095962524
0.17327100038528442 0.14574599266052246 0.4268380105495453
0.2132599949836731 0.09537039697170258 0.5321339964866638
0.17327100038528442 0.13315199315547943 0.7424659729003906
0.3852910101413727 0.13315199315547943 0.0906962975859642
0.3451719880104065 0.09537039697170258 0.30115801095962524
0.3852910101413727 0.14574599266052246 0.4268380105495453
0.3451719880104065 0.09537039697170258 0.5321339964866638
0.3852910101413727 0.13315199315547943 0.7424659729003906
0.4508579969406128 0.2244260013103485 0.1926169991493225
0.4508579969406128 0.2244260013103485 0.11977899819612503
0.4508579969406128 0.2244260013103485 0.07174050062894821
0.4194380044937134 0.2244260013103485 0.1727519929409027
0.4194380044937134 0.2244260013103485 0.10004399716854095
0.12912699580192566 0.2244260013103485 0.1727519929409027
0.12912699580192566 0.2244260013103485 0.10004399716854095
0.09770739823579788 0.2244260013103485 0.1926169991493225
0.09770739823579788 0.2244260013103485 0.11977899819612503
0.09770739823579788 0.2244260013103485 0.07174050062894821
0.4508579969406128 0.2244260013103485 0.4351480007171631
0.4508579969406128 0.2244260013103485 0.3498460054397583
0.4508579969406128 0.2244260013103485 0.26714199781417847
0.4194380044937134 0.2244260013103485 0.4351480007171631
0.4194380044937134 0.2244260013103485 0.3498460054397583
0.4194380044937134 0.2244260013103485 0.247407004237175
0.12912699580192566 0.2244260013103485 0.4351480007171631
0.12912699580192566 0.2244260013103485 0.3498460054397583
0.12912699580192566 0.2244260013103485 0.247407004237175
0.09770739823579788 0.2244260013103485 0.4351480007171631
0.09770739823579788 0.2244260013103485 0.3498460054397583
0.09770739823579788 0.2244260013103485 0.26714199781417847
0.4508579969406128 0.2244260013103485 0.7402589917182922
0.4508579969406128 0.2244260013103485 0.6082170009613037
0.4194380044937134 0.2244260013103485 0.7402589917182922
0.4194380044937134 0.2244260013103485 0.6082170009613037
0.12912699580192566 0.2244260013103485 0.7402589917182922
0.12912699580192566 0.2244260013103485 0.6082170009613037
0.09770739823579788 0.2244260013103485 0.7402589917182922
0.09770739823579788 0.2244260013103485 0.6082170009613037
0.4508579969406128 0.31271401047706604 0.1926169991493225
0.4508579969406128 0.3064810037612915 0.07511620223522186
0.4194380044937134 0.31271401047706604 0.1727519929409027
0.4194380044937134 0.3064810037612915 0.055381301790475845
0.12912699580192566 0.31271401047706604 0.1727519929409027
0.12912699580192566 0.3064810037612915 0.055381301790475845
0.09770739823579788 0.31271401047706604 0.1926169991493225
0.09770739823579788 0.3064810037612915 0.07511620223522186
0.39905399084091187 0.23260599374771118 0.7681729793548584
0.39905399084091187 0.23260599374771118 0.06511890143156052
0.15106900036334991 0.23260599374771118 0.7681729793548584
0.15106900036334991 0.23260599374771118 0.06511890143156052
0.2742820084095001 0.4085319936275482 0.4277470111846924
0.2858380079269409 0.4085319936275482 0.4277470111846924
0.2858380079269409 0.415802001953125 0.42748698592185974
0.2742820084095001 0.415802001953125 0.42748698592185974
0.27674901485443115 0.3106360137462616 0.5964019894599915
0.2844099998474121 0.3106360137462616 0.5964019894599915
0.2844099998474121 0.3106360137462616 0.6221089959144592
0.27674901485443115 0.3106360137462616 0.6221089959144592
0.12640100717544556 0.415802001953125 0.40827199816703796
0.4221639931201935 0.415802001953125 0.40827199816703796
0.4221639931201935 0.38684898614883423 0.40827199816703796
0.12640100717544556 0.3867189884185791 0.40827199816703796
0.12640100717544556 0.415802001953125 0.42748698592185974
0.4221639931201935 0.415802001953125 0.42748698592185974
0.4221639931201935 0.38684898614883423 0.42748698592185974
0.12640100717544556 0.3867189884185791 0.42748698592185974
3 1 5 4
3 3 2 1
3 5 6 7
3 3 7 6
3 9 13 12
3 11 10 9
3 13 14 15
3 11 15 14
3 20 21 17
3 21 22 18
3 22 23 19
3 27 28 25
3 28 29 26
3 29 20 16
3 33 34 31
3 34 35 32
3 35 27 24
3 39 40 37
3 40 41 38
3 41 33 30
3 23 45 42
3 45 46 43
3 46 47 44
3 47 50 48
3 50 51 49
3 51 39 36
3 56 57 53
3 57 58 54
3 58 59 55
3 63 64 61
3 64 65 62
3 65 56 52
3 69 70 67
3 70 71 68
3 71 63 60
3 75 76 73
3 76 77 74
3 77 69 66
3 59 81 78
3 81 82 79
3 82 83 80
3 83 86 84
3 86 87 85
3 87 75 72
3 92 93 89
3 93 94 90
3 94 95 91
3 99 100 97
3 100 101 98
3 101 92 88
3 105 106 103
3 106 107 104
3 107 99 96
3 111 112 109
3 112 113 110
3 113 105 102
3 95 117 114
3 117 118 115
3 118 119 116
3 119 122 120
3 122 123 121
3 123 111 108
3 128 129 125
3 129 130 126
3 130 131 127
3 135 136 133
3 136 137 134
3 137 128 124
3 141 142 139
3 142 143 140
3 143 135 132
3 147 148 145
3 148 149 146
3 149 141 138
3 131 153 150
3 153 154 151
3 154 155 152
3 155 158 156
3 158 159 157
3 159 147 144
3 38 49 36
3 44 48 49
3 31 44 38
3 24 44 31
3 26 44 24
3 17 44 26
3 19 44 17
3 43 44 19
3 41 40 39
3 47 41 51
3 34 33 41
3 27 35 34
3 29 28 27
3 21 20 29
3 23 22 21
3 46 45 23
3 74 85 72
3 80 84 85
3 67 80 74
3 60 80 67
3 62 80 60
3 53 80 62
3 55 80 53
3 79 80 55
3 77 76 75
3 83 77 87
3 70 69 77
3 63 71 70
3 65 64 63
3 57 56 65
3 59 58 57
3 82 81 59
3 110 121 108
3 116 120 121
3 103 116 110
3 96 116 103
3 98 116 96
3 89 116 98
3 91 116 89
3 115 116 91
3 113 112 111
3 119 113 123
3 106 105 113
3 99 107 106
3 101 100 99
3 93 92 101
3 95 94 93
3 118 117 95
3 146 157 144
3 152 156 157
3 139 152 146
3 132 152 139
3 134 152 132
3 125 152 134
3 127 152 125
3 151 152 127
3 149 148 147
3 155 149 159
3 142 141 149
3 135 143 142
3 137 136 135
3 129 128 137
3 131 130 129
3 154 153 131
3 162 163 160
3 161 162 160
3 161 164 162
3 160 163 162
3 160 162 161
3 162 164 161
3 166 170 171
3 168 172 169
3 165 169 170
3 167 171 172
3 165 166 167
3 169 172 171
3 175 176 173
3 174 175 173
3 174 177 175
3 173 176 175
3 173 175 174
3 175 177 174
3 179 183 184
3 181 185 182
3 178 182 183
3 180 184 185
3 178 179 180
3 182 185 184
3 189 188 187
3 187 191 190
3 192 191 187
3 188 192 187
3 189 193 192
3 190 193 189
3 186 190 189
3 191 192 193
3 197 196 195
3 195 199 198
3 200 199 195
3 196 200 195
3 197 201 200
3 198 201 197
3 194 198 197
3 199 200 201
3 319 318 317
3 317 321 320
3 322 321 317
3 318 322 317
3 319 323 322
3 320 323 319
3 316 320 319
3 321 322 323
3 325 329 330
3 327 331 328
3 324 325 326
3 328 331 330
3 324 328 329
3 326 330 331
3 206 207 203
3 207 208 204
3 208 209 205
3 210 211 207
3 211 212 208
3 212 213 209
3 214 215 211
3 215 216 212
3 216 217 213
3 219 206 202
3 220 210 206
3 221 214 210
3 225 224 222
3 227 226 224
3 229 228 226
3 233 231 230
3 232 233 230
3 234 235 233
3 237 235 234
3 236 237 234
3 243 244 239
3 244 245 240
3 245 246 241
3 247 248 243
3 248 249 244
3 249 250 245
3 250 251 246
3 252 248 247
3 252 253 249
3 253 254 250
3 254 255 251
3 259 258 256
3 262 263 261
3 269 270 265
3 270 271 266
3 271 272 267
3 272 273 268
3 277 278 275
3 278 242 276
3 242 243 238
3 279 280 278
3 280 247 242
3 281 282 280
3 282 283 247
3 283 252 247
3 287 288 285
3 288 289 286
3 289 277 274
3 290 291 288
3 291 292 289
3 292 279 277
3 293 294 291
3 294 295 292
3 295 281 279
3 209 298 296
3 298 299 297
3 299 287 284
3 213 300 298
3 300 301 299
3 301 290 287
3 217 302 300
3 302 303 301
3 303 293 290
3 233 225 223
3 235 227 225
3 237 229 227
3 246 307 305
3 307 306 304
3 251 309 307
3 309 308 306
3 255 311 309
3 311 310 308
3 270 269 271
3 269 313 312
3 312 273 272
3 312 272 271
3 269 312 271
3 223 222 230
3 275 305 304
3 241 305 275
3 239 240 241
3 238 239 276
3 285 304 218
3 274 304 285
3 202 297 284
3 203 296 297
3 205 296 203
3 266 264 265
3 314 315 264
3 267 268 314
3 266 267 314
3 266 314 264
3 229 237 236
3 282 281 310
3 255 283 282
3 253 283 255
3 283 253 252
3 294 293 221
3 281 295 294
3 214 221 293
3 215 214 303
3 217 216 215
3 1 4 0
3 3 1 0
3 5 7 4
3 3 6 2
3 9 12 8
3 11 9 8
3 13 15 12
3 11 14 10
3 20 17 16
3 21 18 17
3 22 19 18
3 27 25 24
3 28 26 25
3 29 16 26
3 33 31 30
3 34 32 31
3 35 24 32
3 39 37 36
3 40 38 37
3 41 30 38
3 23 42 19
3 45 43 42
3 46 44 43
3 47 48 44
3 50 49 48
3 51 36 49
3 56 53 52
3 57 54 53
3 58 55 54
3 63 61 60
3 64 62 61
3 65 52 62
3 69 67 66
3 70 68 67
3 71 60 68
3 75 73 72
3 76 74 73
3 77 66 74
3 59 78 55
3 81 79 78
3 82 80 79
3 83 84 80
3 86 85 84
3 87 72 85
3 92 89 88
3 93 90 89
3 94 91 90
3 99 97 96
3 100 98 97
3 101 88 98
3 105 103 102
3 106 104 103
3 107 96 104
3 111 109 108
3 112 110 109
3 113 102 110
3 95 114 91
3 117 115 114
3 118 116 115
3 119 120 116
3 122 121 120
3 123 108 121
3 128 125 124
3 129 126 125
3 130 127 126
3 135 133 132
3 136 134 133
3 137 124 134
3 141 139 138
3 142 140 139
3 143 132 140
3 147 145 144
3 148 146 145
3 149 138 146
3 131 150 127
3 153 151 150
3 154 152 151
3 155 156 152
3 158 157 156
3 159 144 157
3 38 36 37
3 44 49 38
3 31 38 30
3 24 31 32
3 26 24 25
3 17 26 16
3 19 17 18
3 43 19 42
3 41 39 51
3 47 51 50
3 34 41 47
3 27 34 47
3 29 27 47
3 21 29 47
3 23 21 47
3 46 23 47
3 74 72 73
3 80 85 74
3 67 74 66
3 60 67 68
3 62 60 61
3 53 62 52
3 55 53 54
3 79 55 78
3 77 75 87
3 83 87 86
3 70 77 83
3 63 70 83
3 65 63 83
3 57 65 83
3 59 57 83
3 82 59 83
3 110 108 109
3 116 121 110
3 103 110 102
3 96 103 104
3 98 96 97
3 89 98 88
3 91 89 90
3 115 91 114
3 113 111 123
3 119 123 122
3 106 113 119
3 99 106 119
3 101 99 119
3 93 101 119
3 95 93 119
3 118 95 119
3 146 144 145
3 152 157 146
3 139 146 138
3 132 139 140
3 134 132 133
3 125 134 124
3 127 125 126
3 151 127 150
3 149 147 159
3 155 159 158
3 142 149 155
3 135 142 155
3 137 135 155
3 129 137 155
3 131 129 155
3 154 131 155
3 166 171 167
3 168 169 165
3 165 170 166
3 167 172 168
3 165 167 168
3 169 171 170
3 179 184 180
3 181 182 178
3 178 183 179
3 180 185 181
3 178 180 181
3 182 184 183
3 189 187 186
3 187 190 186
3 189 192 188
3 191 193 190
3 197 195 194
3 195 198 194
3 197 200 196
3 199 201 198
3 319 317 316
3 317 320 316
3 319 322 318
3 321 323 320
3 325 330 326
3 327 328 324
3 324 326 327
3 328 330 329
3 324 329 325
3 326 331 327
3 206 203 202
3 207 204 203
3 208 205 204
3 210 207 206
3 211 208 207
3 212 209 208
3 214 211 210
3 215 212 211
3 216 213 212
3 219 202 218
3 220 206 219
3 221 210 220
3 225 222 223
3 227 224 225
3 229 226 227
3 234 233 232
3 243 239 238
3 244 240 239
3 245 241 240
3 247 243 242
3 248 244 243
3 249 245 244
3 250 246 245
3 252 249 248
3 253 250 249
3 254 251 250
3 259 256 257
3 262 261 260
3 269 265 264
3 270 266 265
3 271 267 266
3 272 268 267
3 277 275 274
3 278 276 275
3 242 238 276
3 279 278 277
3 280 242 278
3 281 280 279
3 282 247 280
3 287 285 284
3 288 286 285
3 289 274 286
3 290 288 287
3 291 289 288
3 292 277 289
3 293 291 290
3 294 292 291
3 295 279 292
3 209 296 205
3 298 297 296
3 299 284 297
3 213 298 209
3 300 299 298
3 301 287 299
3 217 300 213
3 302 301 300
3 303 290 301
3 233 223 231
3 235 225 233
3 237 227 235
3 246 305 241
3 307 304 305
3 251 307 246
3 309 306 307
3 255 309 251
3 311 308 309
3 223 230 231
3 275 304 274
3 241 275 276
3 239 241 276
3 285 218 284
3 274 285 286
3 202 284 218
3 203 297 202
3 205 203 204
3 229 236 228
3 282 310 311
3 255 282 311
3 253 255 254
3 294 221 310
3 281 294 310
3 214 293 303
3 215 303 302
3 217 215 302
