ply
format ascii 1.0
element vertex 16
property float x
property float y
property float z
element face 16
property list uchar int vertex_indices
end_header
0.02500000037252903 0.02500000037252903 0.05010709911584854
0.567857027053833 0.02500000037252903 0.05010709911584854
0.567857027053833 0.9750000238418579 0.05010709911584854
0.02500000037252903 0.9750000238418579 0.05010709911584854
0.02500000037252903 0.02500000037252903 0.026357099413871765
0.567857027053833 0.02500000037252903 0.026357099413871765
0.567857027053833 0.9750000238418579 0.026357099413871765
0.02500000037252903 0.9750000238418579 0.026357099413871765
0.02500000037252903 0.02500000037252903 0.052142899483442307
0.567857027053833 0.02500000037252903 0.052142899483442307
0.567857027053833 0.9750000238418579 0.052142899483442307
0.02500000037252903 0.9750000238418579 0.052142899483442307
0.02500000037252903 0.02500000037252903 0.02500000037252903
0.567857027053833 0.02500000037252903 0.02500000037252903
0.567857027053833 0.9750000238418579 0.02500000037252903
0.02500000037252903 0.9750000238418579 0.02500000037252903
3 0 1 2
3 4 5 6
3 0 1 5
3 1 5 6
3 2 6 7
3 7 3 0
3 8 9 10
3 12 13 14
3 0 2 3
3 4 6 7
3 0 5 4
3 1 6 2
3 2 7 3
3 7 0 4
3 8 10 11
3 12 14 15
