ply
format ascii 1.0
element vertex 481
property float x
property float y
property float z
element face 895
property list uchar int vertex_indices
end_header
0.14567099511623383 0.8863000273704529 0.3095319867134094
0.13714000582695007 0.8838620185852051 0.2976840138435364
0.12675300240516663 0.8656759858131409 0.2942950129508972
0.11785899847745895 0.8706960082054138 0.27830201387405396
0.11512500047683716 0.8757960200309753 0.264288991689682
0.11389300227165222 0.8830850124359131 0.2462099939584732
0.15456999838352203 0.8832420110702515 0.2991670072078705
0.16429300606250763 0.8653789758682251 0.2939639985561371
0.17209100723266602 0.8706650137901306 0.27650898694992065
0.1756190061569214 0.8755220174789429 0.26388999819755554
0.1772180050611496 0.8801929950714111 0.24580000340938568
0.14571499824523926 0.8960239887237549 0.3052319884300232
0.14575600624084473 0.9106699824333191 0.2998329997062683
0.14578700065612793 0.9265580177307129 0.30173200368881226
0.14503100514411926 0.9317820072174072 0.29625898599624634
0.17141300439834595 0.8746089935302734 0.23136599361896515
0.18043400347232819 0.895609974861145 0.23118899762630463
0.14562100172042847 0.8653029799461365 0.2958639860153198
0.13530400395393372 0.852832019329071 0.29024600982666016
0.15617500245571136 0.8526840209960938 0.29046499729156494
0.13058799505233765 0.8541120290756226 0.2727859914302826
0.14565899968147278 0.8486959934234619 0.2693080008029938
0.162104994058609 0.8538069725036621 0.2729620039463043
0.12858399748802185 0.8570110201835632 0.24960799515247345
0.16408300399780273 0.8560199737548828 0.2492779940366745
0.15139299631118774 0.8944870233535767 0.3007830083370209
0.17397500574588776 0.8974940180778503 0.2966580092906952
0.1613679975271225 0.9128990173339844 0.2965790033340454
0.18080200254917145 0.89649897813797 0.282133013010025
0.1789110004901886 0.9252210259437561 0.2908160090446472
0.16565999388694763 0.9274920225143433 0.2982400059700012
0.18264999985694885 0.905102014541626 0.2565630078315735
0.1838340014219284 0.918832004070282 0.26740700006484985
0.1403689980506897 0.8948240280151367 0.30063799023628235
0.1301169991493225 0.9129149913787842 0.29713499546051025
0.11805599927902222 0.897363007068634 0.29690200090408325
0.12698599696159363 0.9280040264129639 0.298662006855011
0.11344300210475922 0.9257850050926208 0.2911039888858795
0.10973300039768219 0.8953539729118347 0.28206899762153625
0.1257230043411255 0.9346029758453369 0.29258400201797485
0.10862399637699127 0.9193860292434692 0.267969012260437
0.10941799730062485 0.9053159952163696 0.2573390007019043
0.12493699789047241 0.8785899877548218 0.2185409963130951
0.1368200033903122 0.8805090188980103 0.21516300737857819
0.15501800179481506 0.8808450102806091 0.21357600390911102
0.1671299934387207 0.8798189759254456 0.21810699999332428
0.14538699388504028 0.8445900082588196 0.2619059979915619
0.11864499747753143 0.8444769978523254 0.2258860021829605
0.1721860021352768 0.843966007232666 0.22516299784183502
0.12150900065898895 0.8328819870948792 0.24406099319458008
0.16905899345874786 0.831296980381012 0.2442069947719574
0.12099900096654892 0.8507289886474609 0.21441900730133057
0.1451530009508133 0.8184840083122253 0.2527199983596802
0.14533700048923492 0.8538269996643066 0.2107589989900589
0.1705469936132431 0.8502629995346069 0.21390999853610992
0.1873610019683838 0.10227899998426437 0.09651630371809006
0.20559899508953094 0.15011000633239746 0.09670890122652054
0.19860400259494781 0.16229000687599182 0.07431460171937943
0.1760459989309311 0.1622759997844696 0.0743412971496582
0.16909900307655334 0.15008600056171417 0.09675219655036926
0.18736399710178375 0.1425669938325882 0.11057599633932114
0.21769100427627563 0.27708199620246887 0.16788500547409058
0.2060610055923462 0.2941719889640808 0.13641299307346344
0.16855600476264954 0.29415199160575867 0.13645100593566895
0.15700699388980865 0.2770490050315857 0.167945995926857
0.18737399578094482 0.2665030062198639 0.1873749941587448
0.21212799847126007 0.30857598781585693 0.19012700021266937
0.20262999832630157 0.32565000653266907 0.1586810052394867
0.17200200259685516 0.32562899589538574 0.158719003200531
0.16256999969482422 0.30854299664497375 0.19018800556659698
0.18737000226974487 0.2980029881000519 0.20959900319576263
0.2140589952468872 0.33461201190948486 0.1955759972333908
0.20382100343704224 0.33921900391578674 0.15935400128364563
0.17080600559711456 0.3392139971256256 0.15939700603485107
0.16063900291919708 0.3346019983291626 0.1956460028886795
0.18737100064754486 0.3317590057849884 0.21800599992275238
0.22236399352550507 0.42559799551963806 0.20711900293827057
0.20528100430965424 0.4074209928512573 0.16445499658584595
0.17391100525856018 0.40753600001335144 0.16354399919509888
0.155799999833107 0.425586998462677 0.2072010040283203
0.1896670013666153 0.4222640097141266 0.2333180010318756
0.20184999704360962 0.10935399681329727 0.08256170153617859
0.1967960000038147 0.1275089979171753 0.05141700059175491
0.1804960072040558 0.12749400734901428 0.05144159868359566
0.17547699809074402 0.10932900011539459 0.08260370045900345
0.12791700661182404 0.111844003200531 0.23666499555110931
0.12092100083827972 0.11273600161075592 0.21168799698352814
0.098363496363163 0.11273500323295593 0.21171699464321136
0.091417096555233 0.11184299737215042 0.2367130070924759
0.10968200117349625 0.11129199713468552 0.25213098526000977
0.14000900089740753 0.25718000531196594 0.24443599581718445
0.1283790022134781 0.25858598947525024 0.20865200459957123
0.0908740982413292 0.25858500599861145 0.2086939960718155
0.0793251022696495 0.2571769952774048 0.24450500309467316
0.10969199985265732 0.25630998611450195 0.2665950059890747
0.13444599509239197 0.3191260099411011 0.25288501381874084
0.12494800239801407 0.3205310106277466 0.21713100373744965
0.09431959688663483 0.3205299973487854 0.2171739935874939
0.08488810062408447 0.3191249966621399 0.25295400619506836
0.10968700051307678 0.31825798749923706 0.27502501010894775
0.1363770067691803 0.33427301049232483 0.25174200534820557
0.12613900005817413 0.3279320001602173 0.2157839983701706
0.09312359988689423 0.3279390037059784 0.21582600474357605
0.08295709639787674 0.3342849910259247 0.25181201100349426
0.10968899726867676 0.3381980061531067 0.27400898933410645
0.14090700447559357 0.4147079885005951 0.23601099848747253
0.12294899672269821 0.3829739987850189 0.20105299353599548
0.09171570092439651 0.38298600912094116 0.20110300183296204
0.07384520024061203 0.41472700238227844 0.2360910028219223
0.10740300267934799 0.4204249978065491 0.2617950141429901
0.12263499945402145 0.06935519725084305 0.2417609989643097
0.11762599647045135 0.0728989988565445 0.2068829983472824
0.10147400200366974 0.07162339985370636 0.2061450034379959
0.09650039672851562 0.06934879720211029 0.24181100726127625
0.10957799851894379 0.06912980228662491 0.258870005607605
0.24496999382972717 0.6883559823036194 0.1934940069913864
0.23040300607681274 0.6931459903717041 0.21541699767112732
0.24563899636268616 0.6974390149116516 0.23724199831485748
0.25943198800086975 0.7016050219535828 0.22935399413108826
0.2625280022621155 0.696823000907898 0.20719000697135925
0.2600809931755066 0.47632598876953125 0.32495200634002686
0.2638759911060333 0.473922997713089 0.3264699876308441
0.2622449994087219 0.47580400109291077 0.3302119970321655
0.2585560083389282 0.47786998748779297 0.3278929889202118
0.2648879885673523 0.48819398880004883 0.31892699003219604
0.2712180018424988 0.48866701126098633 0.3195219933986664
0.2692970037460327 0.49222099781036377 0.32556599378585815
0.26333901286125183 0.49099498987197876 0.32381200790405273
0.26617398858070374 0.5050320029258728 0.30666300654411316
0.2715759873390198 0.5056790113449097 0.30760401487350464
0.2539820075035095 0.4774149954319 0.3331809937953949
0.25766199827194214 0.4747830033302307 0.3350529968738556
0.25588199496269226 0.47683200240135193 0.3389109969139099
0.2522200047969818 0.47940999269485474 0.3367120027542114
0.26231300830841064 0.49126800894737244 0.32704898715019226
0.2685920000076294 0.4924379885196686 0.32973000407218933
0.2653059959411621 0.4958750009536743 0.33480000495910645
0.2591330111026764 0.49459999799728394 0.3319529891014099
0.2622869908809662 0.5070019960403442 0.3140789866447449
0.26784801483154297 0.5085669755935669 0.3170759975910187
0.26426899433135986 0.48433199524879456 0.31240200996398926
0.26732298731803894 0.4820699989795685 0.3128960132598877
0.2668370008468628 0.4833109974861145 0.31626999378204346
0.26368099451065063 0.48537400364875793 0.3151249885559082
0.26684901118278503 0.49371200799942017 0.3066290020942688
0.27201199531555176 0.49327999353408813 0.3061090111732483
0.2720859944820404 0.4961850047111511 0.31113800406455994
0.26688599586486816 0.4959940016269684 0.31076499819755554
0.2677359879016876 0.5047209858894348 0.2999260127544403
0.27295899391174316 0.5055860280990601 0.30021199584007263
0.2506200075149536 0.4852699935436249 0.3415989875793457
0.25336000323295593 0.48277899622917175 0.3445129990577698
0.2507070004940033 0.485258013010025 0.34747499227523804
0.2480580061674118 0.4876300096511841 0.3442769944667816
0.25821200013160706 0.49574801325798035 0.33489400148391724
0.26370900869369507 0.49648401141166687 0.3378260135650635
0.2598010003566742 0.5010449886322021 0.34282198548316956
0.25440099835395813 0.5001699924468994 0.33977198600769043
0.2574999928474426 0.5107150077819824 0.32030001282691956
0.26238900423049927 0.5131539702415466 0.323855996131897
0.24850499629974365 0.5087689757347107 0.34215599298477173
0.2467460036277771 0.5083720088005066 0.33960598707199097
0.24924799799919128 0.5077260136604309 0.3374280035495758
0.25248000025749207 0.5078889727592468 0.3386560082435608
0.24959999322891235 0.5247009992599487 0.33445098996162415
0.2451310008764267 0.5216330289840698 0.3316810131072998
0.2503719925880432 0.5176429748535156 0.32707399129867554
0.25476500391960144 0.521028995513916 0.32903599739074707
0.2478960007429123 0.5328620076179504 0.32443198561668396
0.2438659965991974 0.5275189876556396 0.3233180046081543
0.2522450089454651 0.5207549929618835 0.3242650032043457
0.25636500120162964 0.5230380296707153 0.32685399055480957
0.25417599081993103 0.5324159860610962 0.29407799243927
0.25948798656463623 0.5285720229148865 0.2860580086708069
0.24780699610710144 0.5372539758682251 0.3024100065231323
0.24886000156402588 0.5430229902267456 0.30669599771499634
0.2644979953765869 0.5377939939498901 0.2995760142803192
0.26524901390075684 0.5306839942932129 0.2866719961166382
0.24955299496650696 0.6272850036621094 0.21128800511360168
0.2382510006427765 0.6318539977073669 0.24322199821472168
0.24962300062179565 0.6411049962043762 0.2500700056552887
0.2661750018596649 0.6400520205497742 0.24546700716018677
0.2719770073890686 0.6369940042495728 0.22428299486637115
0.2492630034685135 0.6412839889526367 0.20605599880218506
0.23804399371147156 0.6417700052261353 0.2368219941854477
0.2495259940624237 0.6477389931678772 0.2461940050125122
0.26572999358177185 0.6493679881095886 0.2417690008878708
0.2724820077419281 0.6496909856796265 0.22104500234127045
0.04317620024085045 0.7017359733581543 0.16715000569820404
0.06606870144605637 0.6943699717521667 0.17362099885940552
0.06579790264368057 0.6878259778022766 0.19782699644565582
0.049129098653793335 0.6886849999427795 0.20695799589157104
0.031907398253679276 0.6932229995727539 0.19275200366973877
0.04892769828438759 0.5033689737319946 0.30655500292778015
0.05156970024108887 0.5056250095367432 0.3031179904937744
0.05263090133666992 0.508089005947113 0.30597200989723206
0.05003869906067848 0.5060740113258362 0.3097339868545532
0.038660500198602676 0.5132750272750854 0.2961759865283966
0.04448920115828514 0.5148969888687134 0.29363900423049927
0.04570449888706207 0.5192700028419495 0.29729899764060974
0.04031290113925934 0.5188459753990173 0.3006789982318878
0.053582899272441864 0.5079330205917358 0.31398600339889526
0.05660739913582802 0.5106279850006104 0.30847200751304626
0.05805249884724617 0.5134410262107849 0.31283900141716003
0.05564479902386665 0.5111160278320312 0.31734099984169006
0.04051800072193146 0.5193160176277161 0.30403000116348267
0.04622749984264374 0.519665002822876 0.2995060086250305
0.049455899745225906 0.52469801902771 0.3032340109348297
0.04385029897093773 0.5244809985160828 0.30788201093673706
0.03699519857764244 0.5316309928894043 0.28694701194763184
0.04275880008935928 0.530010998249054 0.2838279902935028
0.0433632992208004 0.5070589780807495 0.2910099923610687
0.0455096997320652 0.5093010067939758 0.28873199224472046
0.04551419988274574 0.5112280249595642 0.29126301407814026
0.04329429939389229 0.5091120004653931 0.2937679886817932
0.036612700670957565 0.5141220092773438 0.28156599402427673
0.04111719876527786 0.516385018825531 0.28025901317596436
0.04096519947052002 0.5198389887809753 0.2834610044956207
0.03633610159158707 0.5183860063552856 0.28540700674057007
0.03345010057091713 0.5238620042800903 0.2713179886341095
0.03867330029606819 0.5238850116729736 0.2711560130119324
0.039965998381376266 0.5263130068778992 0.2778579890727997
0.03469780087471008 0.5265970230102539 0.2791059911251068
0.056884098798036575 0.5180839896202087 0.3170030117034912
0.05810749903321266 0.519556999206543 0.3121489882469177
0.060827501118183136 0.5234910249710083 0.3145720064640045
0.0595037005841732 0.5218669772148132 0.31947100162506104
0.045151300728321075 0.5281270146369934 0.30819299817085266
0.04967780038714409 0.5285379886627197 0.30334100127220154
0.05299530178308487 0.5343319773674011 0.3061380088329315
0.048543501645326614 0.5341039896011353 0.31105199456214905
0.042284201830625534 0.5396000146865845 0.29163500666618347
0.04790230095386505 0.5376309752464294 0.2887510061264038
0.06176849827170372 0.5467190146446228 0.3050970137119293
0.05993720144033432 0.5479639768600464 0.30753201246261597
0.05537189915776253 0.5450630187988281 0.3047719895839691
0.058435000479221344 0.5445899963378906 0.3034450113773346
0.06122240051627159 0.5528159737586975 0.29411399364471436
0.05672530084848404 0.5570240020751953 0.295758992433548
0.05075870081782341 0.5501499772071838 0.2937830090522766
0.056096598505973816 0.5484430193901062 0.2911820113658905
0.0595380999147892 0.5547540187835693 0.2835249900817871
0.05466319993138313 0.5601630210876465 0.28282999992370605
0.048555199056863785 0.5483419895172119 0.2891309857368469
0.053684599697589874 0.5490790009498596 0.2872549891471863
0.04637730121612549 0.5508019924163818 0.2554360032081604
0.04229940101504326 0.6537330150604248 0.15734000504016876
0.05962419882416725 0.6471070051193237 0.16290999948978424
0.06167199835181236 0.6348689794540405 0.18490499258041382
0.044122301042079926 0.6364089846611023 0.18982599675655365
0.0273026991635561 0.6470969915390015 0.1802539974451065
0.03722799941897392 0.6095830202102661 0.14945200085639954
0.057917699217796326 0.6093389987945557 0.1634809970855713
0.06156960129737854 0.6218109726905823 0.18032300472259521
0.04522309824824333 0.6251969933509827 0.18963399529457092
0.025676099583506584 0.6217190027236938 0.17260199785232544
0.03637019917368889 0.5429210066795349 0.25092199444770813
0.03988109901547432 0.5468860268592834 0.2513220012187958
0.05269270017743111 0.559732973575592 0.2566699981689453
0.0494907982647419 0.5642729997634888 0.25992000102996826
0.03679250180721283 0.5538359880447388 0.2565839886665344
0.11125300079584122 0.8916000127792358 0.2425519973039627
0.12161999940872192 0.8714339733123779 0.22822000086307526
0.11385300010442734 0.6163930296897888 0.26361000537872314
0.07394959777593613 0.7063009738922119 0.2692730128765106
0.09630940109491348 0.7035139799118042 0.27635300159454346
0.06698869913816452 0.7160959839820862 0.24028700590133667
0.06489969789981842 0.7350339889526367 0.2780250012874603
0.0926067978143692 0.7390509843826294 0.29366499185562134
0.06538280099630356 0.7685610055923462 0.2685070037841797
0.09651079773902893 0.7762669920921326 0.2755360007286072
0.07212120294570923 0.8029450178146362 0.2536430060863495
0.10121899843215942 0.800715982913971 0.26362401247024536
0.07047910243272781 0.7216489911079407 0.19877900183200836
0.08488760143518448 0.7169340252876282 0.1781509965658188
0.0757879987359047 0.7375440001487732 0.17642199993133545
0.07883430272340775 0.8042680025100708 0.1866530030965805
0.061217401176691055 0.823415994644165 0.2131900042295456
0.07838570326566696 0.8295009732246399 0.1988700032234192
0.14453700184822083 0.7161049842834473 0.1749649941921234
0.21067799627780914 0.7169179916381836 0.17824900150299072
0.14458100497722626 0.7380539774894714 0.17534500360488892
0.2182520031929016 0.7376009821891785 0.17577899992465973
0.14433200657367706 0.8056589961051941 0.18589399755001068
0.21244299411773682 0.8010969758033752 0.18737900257110596
0.14483700692653656 0.831430971622467 0.19637200236320496
0.2178950011730194 0.827672004699707 0.1973170042037964
0.21910099685192108 0.6224669814109802 0.22020399570465088
0.2213989943265915 0.7182959914207458 0.1973789930343628
0.22099600732326508 0.7125459909439087 0.2410140037536621
0.23060999810695648 0.8227239847183228 0.21334399282932281
0.2099519968032837 0.6178079843521118 0.2533780038356781
0.18196499347686768 0.6162340044975281 0.2670539915561676
0.21387499570846558 0.7063689827919006 0.2690429985523224
0.19162200391292572 0.7028480172157288 0.2763890027999878
0.2219330072402954 0.7350220084190369 0.2786499857902527
0.19905899465084076 0.7402409911155701 0.29288798570632935
0.22276799380779266 0.7729430198669434 0.27155598998069763
0.1928420066833496 0.7773399949073792 0.2745240032672882
0.2173209935426712 0.8026390075683594 0.25124600529670715
0.19123899936676025 0.8009539842605591 0.2623029947280884
0.1466349959373474 0.6167259812355042 0.2631079852581024
0.14550399780273438 0.6986500024795532 0.281266987323761
0.14537200331687927 0.7337570190429688 0.29285499453544617
0.14501699805259705 0.7770990133285522 0.2722710072994232
0.2627060115337372 0.6690959930419922 0.1933560073375702
0.23047199845314026 0.6648730039596558 0.20063799619674683
0.2356410026550293 0.6798269748687744 0.24404099583625793
0.25928398966789246 0.6858260035514832 0.2432669997215271
0.27493301033973694 0.6805580258369446 0.22109200060367584
0.24212400615215302 0.8038679957389832 0.19305799901485443
0.2197670042514801 0.7337629795074463 0.1884240061044693
0.2298090010881424 0.738044023513794 0.24657699465751648
0.24318699538707733 0.7908290028572083 0.24658100306987762
0.2455739974975586 0.8169819712638855 0.2188979983329773
0.04770660027861595 0.8095420002937317 0.19328099489212036
0.06469479948282242 0.7321100234985352 0.18829600512981415
0.0593268983066082 0.7400230169296265 0.24684199690818787
0.04760630056262016 0.7886419892311096 0.2501569986343384
0.04402000084519386 0.815608024597168 0.21991300582885742
0.03796060010790825 0.6851509809494019 0.1613759994506836
0.06900220364332199 0.6820989847183228 0.16349300742149353
0.06629490107297897 0.6696929931640625 0.1997479945421219
0.04288899898529053 0.6738259792327881 0.20607499778270721
0.02500000037252903 0.6805210113525391 0.1891690045595169
0.10598500072956085 0.6247249841690063 0.19249999523162842
0.08619370311498642 0.6231449842453003 0.2049189954996109
0.0746230036020279 0.6205940246582031 0.22498099505901337
0.08539179712533951 0.6176409721374512 0.2481900006532669
0.2106200009584427 0.6241390109062195 0.20445799827575684
0.18590900301933289 0.6252279877662659 0.19128599762916565
0.1460680067539215 0.6264439821243286 0.17899000644683838
0.14806100726127625 0.5239329934120178 0.2544670104980469
0.10402300208806992 0.5131610035896301 0.24944299459457397
0.07802409678697586 0.5149080157279968 0.23570799827575684
0.06002169847488403 0.5211700201034546 0.210097998380661
0.07371380180120468 0.518580973148346 0.17973700165748596
0.10172999650239944 0.5191609859466553 0.15491099655628204
0.14669300615787506 0.5247790217399597 0.1531279981136322
0.14813299477100372 0.4813849925994873 0.20441900193691254
0.15570500493049622 0.38596999645233154 0.22972500324249268
0.1529580056667328 0.392071008682251 0.1929509937763214
0.15910999476909637 0.396030992269516 0.1571750044822693
0.1898069977760315 0.39505499601364136 0.15306000411510468
0.21843500435352325 0.39340800046920776 0.17124499380588531
0.22659899294376373 0.3895379900932312 0.19823700189590454
0.21506500244140625 0.38651999831199646 0.22159600257873535
0.1873439997434616 0.38563400506973267 0.23361000418663025
0.14187300205230713 0.3846850097179413 0.25989800691604614
0.10561399906873703 0.3862619996070862 0.2704100012779236
0.07755079865455627 0.3831210136413574 0.25695499777793884
0.06835190206766129 0.37937501072883606 0.23688100278377533
0.07719849795103073 0.37251999974250793 0.20933300256729126
0.1069210022687912 0.3667759895324707 0.19199499487876892
0.13442499935626984 0.3696179986000061 0.2023250013589859
0.14420700073242188 0.37730199098587036 0.23050299286842346
0.19033099710941315 0.513867974281311 0.24861499667167664
0.21904000639915466 0.5159389972686768 0.23423700034618378
0.23370300233364105 0.5189560055732727 0.20939399302005768
0.22077900171279907 0.522350013256073 0.18117299675941467
0.19277100265026093 0.519806981086731 0.1527940034866333
0.10003200173377991 0.5691429972648621 0.16893300414085388
0.07687520235776901 0.5729010105133057 0.18754099309444427
0.06259380280971527 0.5695779919624329 0.21548399329185486
0.08135750144720078 0.5634620189666748 0.24205300211906433
0.10731899738311768 0.5587019920349121 0.2584240138530731
0.14780700206756592 0.5585749745368958 0.26241400837898254
0.18901699781417847 0.5603579878807068 0.25742998719215393
0.21839499473571777 0.5668020248413086 0.24010199308395386
0.23160900175571442 0.571599006652832 0.21764199435710907
0.2173449993133545 0.5735970139503479 0.18857499957084656
0.1893640011548996 0.5700039863586426 0.16878800094127655
0.1466600000858307 0.5580080151557922 0.15711699426174164
0.10588499903678894 0.6123970150947571 0.1907700002193451
0.08024889975786209 0.6097639799118042 0.2038249969482422
0.07007359713315964 0.6068840026855469 0.22371900081634521
0.08524289727210999 0.604436993598938 0.24640999734401703
0.11154499650001526 0.6019260287284851 0.259227991104126
0.14699800312519073 0.6012899875640869 0.2642270028591156
0.18535900115966797 0.6029499769210815 0.2581070065498352
0.21265000104904175 0.604790985584259 0.2436320036649704
0.22431600093841553 0.608119010925293 0.22439700365066528
0.21438099443912506 0.6097559928894043 0.2017419934272766
0.18757200241088867 0.6106039881706238 0.187718003988266
0.14606299996376038 0.6140819787979126 0.1775200068950653
0.18867500126361847 0.10203299671411514 0.0964272990822792
0.17580300569534302 0.11115899682044983 0.03798849880695343
0.19636300206184387 0.1111069992184639 0.03793809935450554
0.20904399454593658 0.07650160044431686 0.10185699909925461
0.18997499346733093 0.07918400317430496 0.10807900130748749
0.170087993144989 0.0741524025797844 0.10911499708890915
0.16525200009346008 0.07907310128211975 0.08532389998435974
0.16822800040245056 0.10316400229930878 0.036841701716184616
0.1835470050573349 0.10687500238418579 0.03120579943060875
0.20021100342273712 0.1039159968495369 0.03612479940056801
0.20997700095176697 0.07847379893064499 0.08329150080680847
0.21559500694274902 0.05399189889431 0.12521499395370483
0.20245300233364105 0.04307200014591217 0.1467979997396469
0.18149399757385254 0.04229069873690605 0.1487559974193573
0.1659960001707077 0.052462898194789886 0.1283539980649948
0.16275499761104584 0.08172830194234848 0.054426200687885284
0.16550199687480927 0.09139859676361084 0.031273599714040756
0.18327200412750244 0.09411069750785828 0.02500000037252903
0.20158499479293823 0.09115780144929886 0.029820900410413742
0.20910699665546417 0.08174219727516174 0.05194360017776489
0.2167540043592453 0.04623879864811897 0.11462700366973877
0.20477400720119476 0.03438689932227135 0.14350199699401855
0.1791519969701767 0.03317679837346077 0.14697499573230743
0.1642020046710968 0.04532590135931969 0.11981599777936935
0.10175000131130219 0.050562601536512375 0.19950999319553375
0.11950699985027313 0.05136699974536896 0.2007869929075241
0.12742699682712555 0.04665619879961014 0.281699001789093
0.10686299949884415 0.053923700004816055 0.2809939980506897
0.08977220207452774 0.046769898384809494 0.2793140113353729
0.08504670113325119 0.04128599911928177 0.25554999709129333
0.0954999029636383 0.043839000165462494 0.20206500589847565
0.11190800368785858 0.04410799965262413 0.19642500579357147
0.1254889965057373 0.04413139820098877 0.20355400443077087
0.12924900650978088 0.04050929844379425 0.2641980051994324
0.12791399657726288 0.03728489950299263 0.3119420111179352
0.1101519986987114 0.03865870088338852 0.33187299966812134
0.09019830077886581 0.034515999257564545 0.331028014421463
0.08130180090665817 0.036830101162195206 0.3076170086860657
0.08856940269470215 0.03092619962990284 0.22620399296283722
0.0954999029636383 0.029992099851369858 0.20235000550746918
0.11190800368785858 0.03026130050420761 0.196710005402565
0.12919899821281433 0.029909899458289146 0.20407399535179138
0.13227799534797668 0.03049279935657978 0.235276997089386
0.13023999333381653 0.02500000037252903 0.3069339990615845
0.11179199814796448 0.029392700642347336 0.3347479999065399
0.08570940047502518 0.02914300002157688 0.32902199029922485
0.08024849742650986 0.025938300415873528 0.3025290071964264
0.1776839941740036 0.8912019729614258 0.24233199656009674
0.1211009994149208 0.8516200184822083 0.21955400705337524
0.146247997879982 0.8388829827308655 0.20577700436115265
0.166703000664711 0.8493049740791321 0.21504199504852295
0.18525299429893494 0.8956199884414673 0.2314630001783371
0.10565000027418137 0.8958960175514221 0.23166599869728088
0.1854970008134842 0.905443012714386 0.2569360136985779
0.10691899806261063 0.9056519865989685 0.2577120065689087
0.10546299815177917 0.8795070052146912 0.22248299419879913
0.1844159960746765 0.8765649795532227 0.2310899943113327
0.14784300327301025 0.9436730146408081 0.30264100432395935
0.14581100642681122 0.9499269723892212 0.3034290075302124
0.1449590027332306 0.9668740034103394 0.2794019877910614
0.19686700403690338 0.9000939726829529 0.22683300077915192
0.19689500331878662 0.9196299910545349 0.22391299903392792
0.19034600257873535 0.9488800168037415 0.23412799835205078
0.17836099863052368 0.9689080119132996 0.24356000125408173
0.16120100021362305 0.9746930003166199 0.2531830072402954
0.1301019936800003 0.9750000238418579 0.2534100115299225
0.11296399682760239 0.9702540040016174 0.24502700567245483
0.10267499834299088 0.9489160180091858 0.23397299647331238
0.09616529941558838 0.9201800227165222 0.22444599866867065
0.09352490305900574 0.900613009929657 0.2270669937133789
0.19000999629497528 0.9378949999809265 0.2893970012664795
0.17188699543476105 0.9396929740905762 0.2986089885234833
0.1982329934835434 0.9140260219573975 0.25285500288009644
0.1973789930343628 0.9243599772453308 0.26624101400375366
0.18882499635219574 0.9557999968528748 0.27369898557662964
0.17281299829483032 0.965461015701294 0.277880996465683
0.12341699749231339 0.9453780055046082 0.297883003950119
0.10453300178050995 0.9377769827842712 0.28966400027275085
0.1192139983177185 0.9643970131874084 0.2767789959907532
0.10359299927949905 0.9554880261421204 0.2737869918346405
0.09503190219402313 0.9243869781494141 0.266182005405426
0.09357660263776779 0.9143469929695129 0.25231099128723145
0.09514729678630829 0.8785799741744995 0.21241700649261475
0.11264699697494507 0.9181720018386841 0.20981599390506744
0.1229960024356842 0.8765630125999451 0.19874100387096405
0.13039200007915497 0.9518129825592041 0.21105800569057465
0.14535099267959595 0.9143400192260742 0.2002660036087036
0.16916200518608093 0.8763960003852844 0.1994439959526062
0.14628200232982635 0.9696530103683472 0.23034100234508514
0.15712299942970276 0.9517930150032043 0.2113559991121292
0.17788800597190857 0.9179880023002625 0.2094469964504242
0.19621799886226654 0.8805040121078491 0.21219000220298767
0.11151699721813202 0.8669229745864868 0.22499799728393555
0.18085600435733795 0.863955020904541 0.22698499262332916
0.10006699711084366 0.8444730043411255 0.20584599673748016
0.19067299365997314 0.8454030156135559 0.20162999629974365
3 0 1 6
3 1 2 17
3 1 17 6
3 6 17 7
3 2 3 18
3 2 18 17
3 17 18 19
3 17 19 7
3 7 19 8
3 3 4 20
3 3 20 18
3 18 20 21
3 18 21 19
3 19 21 22
3 19 22 8
3 8 22 9
3 4 5 23
3 4 23 20
3 22 24 9
3 9 24 10
3 5 262 23
3 24 15 10
3 0 6 11
3 6 7 25
3 6 25 11
3 11 25 12
3 7 8 26
3 7 26 25
3 25 26 27
3 25 27 12
3 12 27 13
3 8 9 28
3 8 28 26
3 26 28 29
3 26 29 27
3 27 29 30
3 27 30 13
3 13 30 14
3 9 10 31
3 9 31 28
3 28 31 32
3 28 32 29
3 10 16 31
3 0 11 1
3 11 12 33
3 11 33 1
3 1 33 2
3 12 13 34
3 12 34 33
3 33 34 35
3 33 35 2
3 2 35 3
3 13 14 36
3 13 36 34
3 34 36 37
3 34 37 35
3 35 37 38
3 35 38 3
3 3 38 4
3 14 39 36
3 36 39 37
3 37 40 38
3 38 40 41
3 38 41 4
3 4 41 5
3 41 261 5
3 261 42 262
3 16 10 15
3 261 262 5
3 24 22 21
3 23 21 20
3 24 21 46
3 23 46 21
3 46 49 52
3 46 52 50
3 24 46 50
3 24 50 48
3 15 24 48
3 15 48 54
3 45 15 54
3 45 54 53
3 44 45 53
3 46 23 49
3 23 47 49
3 23 262 47
3 262 51 47
3 262 42 51
3 42 53 51
3 42 43 53
3 43 44 53
3 16 15 45
3 81 82 57
3 81 57 56
3 82 83 58
3 82 58 57
3 83 84 59
3 83 59 58
3 84 55 60
3 84 60 59
3 55 81 56
3 55 56 60
3 56 57 62
3 56 62 61
3 57 58 63
3 57 63 62
3 58 59 64
3 58 64 63
3 59 60 65
3 59 65 64
3 60 56 61
3 60 61 65
3 61 62 67
3 61 67 66
3 62 63 68
3 62 68 67
3 63 64 69
3 63 69 68
3 64 65 70
3 64 70 69
3 65 61 66
3 65 66 70
3 66 67 72
3 66 72 71
3 67 68 73
3 67 73 72
3 68 69 74
3 68 74 73
3 69 70 75
3 69 75 74
3 70 66 71
3 70 71 75
3 71 72 77
3 71 77 76
3 72 73 78
3 72 78 77
3 73 74 79
3 73 79 78
3 74 75 80
3 74 80 79
3 75 71 76
3 75 76 80
3 110 111 86
3 110 86 85
3 111 112 87
3 111 87 86
3 112 113 88
3 112 88 87
3 113 114 89
3 113 89 88
3 114 110 85
3 114 85 89
3 85 86 91
3 85 91 90
3 86 87 92
3 86 92 91
3 87 88 93
3 87 93 92
3 88 89 94
3 88 94 93
3 89 85 90
3 89 90 94
3 90 91 96
3 90 96 95
3 91 92 97
3 91 97 96
3 92 93 98
3 92 98 97
3 93 94 99
3 93 99 98
3 94 90 95
3 94 95 99
3 95 96 101
3 95 101 100
3 96 97 102
3 96 102 101
3 97 98 103
3 97 103 102
3 98 99 104
3 98 104 103
3 99 95 100
3 99 100 104
3 100 101 106
3 100 106 105
3 101 102 107
3 101 107 106
3 102 103 108
3 102 108 107
3 103 104 109
3 103 109 108
3 104 100 105
3 104 105 109
3 120 124 121
3 124 125 121
3 121 125 122
3 125 126 122
3 122 126 123
3 126 127 123
3 123 127 120
3 127 124 120
3 124 128 125
3 128 129 125
3 125 129 126
3 129 139 126
3 126 139 127
3 139 138 127
3 127 138 124
3 138 128 124
3 123 120 121
3 121 122 123
3 130 134 131
3 134 135 131
3 131 135 132
3 135 136 132
3 132 136 133
3 136 137 133
3 133 137 130
3 137 134 130
3 134 138 135
3 138 139 135
3 135 139 136
3 139 159 136
3 136 159 137
3 159 158 137
3 137 158 134
3 158 138 134
3 133 130 131
3 131 132 133
3 140 144 141
3 144 145 141
3 141 145 142
3 145 146 142
3 142 146 143
3 146 147 143
3 143 147 140
3 147 144 140
3 144 148 145
3 148 149 145
3 145 149 146
3 149 129 146
3 146 129 147
3 129 128 147
3 147 128 144
3 128 148 144
3 143 140 141
3 141 142 143
3 150 154 151
3 154 155 151
3 151 155 152
3 155 156 152
3 152 156 153
3 156 157 153
3 153 157 150
3 157 154 150
3 154 158 155
3 158 159 155
3 155 159 156
3 159 171 156
3 156 171 157
3 171 170 157
3 157 170 154
3 170 158 154
3 153 150 151
3 151 152 153
3 160 164 161
3 164 165 161
3 161 165 162
3 165 166 162
3 162 166 163
3 166 167 163
3 163 167 160
3 167 164 160
3 164 168 165
3 168 169 165
3 165 169 166
3 169 170 166
3 166 170 167
3 170 171 167
3 167 171 164
3 171 168 164
3 163 160 161
3 161 162 163
3 176 168 171
3 176 171 159
3 176 159 139
3 176 139 129
3 176 129 149
3 158 170 172
3 138 158 172
3 128 138 172
3 148 128 172
3 175 168 176
3 176 149 177
3 172 173 148
3 174 172 169
3 149 148 173
3 177 149 173
3 175 174 169
3 168 175 169
3 170 169 172
3 174 175 180
3 174 180 179
3 175 176 181
3 175 181 180
3 176 177 182
3 176 182 181
3 177 173 178
3 177 178 182
3 178 179 184
3 178 184 183
3 179 180 185
3 179 185 184
3 180 181 186
3 180 186 185
3 181 182 187
3 181 187 186
3 182 178 183
3 182 183 187
3 179 178 172
3 178 173 172
3 179 172 174
3 117 185 186
3 118 117 186
3 119 118 186
3 119 186 187
3 115 119 187
3 115 187 183
3 116 115 183
3 116 183 184
3 117 116 184
3 117 184 185
3 193 197 194
3 197 198 194
3 194 198 195
3 198 199 195
3 195 199 196
3 199 200 196
3 196 200 193
3 200 197 193
3 197 222 198
3 222 221 198
3 198 221 199
3 221 210 199
3 199 210 200
3 210 209 200
3 200 209 197
3 209 222 197
3 196 193 194
3 194 195 196
3 201 205 202
3 205 206 202
3 202 206 203
3 206 207 203
3 203 207 204
3 207 208 204
3 204 208 201
3 208 205 201
3 205 209 206
3 209 210 206
3 206 210 207
3 210 232 207
3 207 232 208
3 232 231 208
3 208 231 205
3 231 209 205
3 204 201 202
3 202 203 204
3 211 215 212
3 215 216 212
3 212 216 213
3 216 217 213
3 213 217 214
3 217 218 214
3 214 218 211
3 218 215 211
3 215 219 216
3 219 220 216
3 216 220 217
3 220 221 217
3 217 221 218
3 221 222 218
3 218 222 215
3 222 219 215
3 214 211 212
3 212 213 214
3 223 227 224
3 227 228 224
3 224 228 225
3 228 229 225
3 225 229 226
3 229 230 226
3 226 230 223
3 230 227 223
3 227 231 228
3 231 232 228
3 228 232 229
3 232 244 229
3 229 244 230
3 244 243 230
3 230 243 227
3 243 231 227
3 226 223 224
3 224 225 226
3 233 237 234
3 237 238 234
3 234 238 235
3 238 239 235
3 235 239 236
3 239 240 236
3 236 240 233
3 240 237 233
3 237 241 238
3 241 242 238
3 238 242 239
3 242 243 239
3 239 243 240
3 243 244 240
3 240 244 237
3 244 241 237
3 236 233 234
3 234 235 236
3 260 219 222
3 260 222 209
3 260 209 231
3 260 231 243
3 260 243 242
3 221 220 245
3 210 221 245
3 232 210 245
3 244 232 245
3 241 244 245
3 260 242 259
3 258 241 245
3 257 245 220
3 219 260 256
3 259 242 241
3 258 259 241
3 256 257 220
3 256 220 219
3 246 247 252
3 246 252 251
3 247 248 253
3 247 253 252
3 248 249 254
3 248 254 253
3 249 250 255
3 249 255 254
3 250 246 251
3 250 251 255
3 251 252 257
3 251 257 256
3 253 254 259
3 253 259 258
3 254 255 260
3 254 260 259
3 255 251 256
3 255 256 260
3 253 245 252
3 245 257 252
3 258 245 253
3 192 250 249
3 191 192 249
3 192 188 246
3 192 246 250
3 188 189 247
3 188 247 246
3 189 190 248
3 189 248 247
3 190 191 249
3 190 249 248
3 269 267 268
3 268 270 269
3 271 269 270
3 270 272 271
3 49 271 272
3 47 319 271
3 271 49 47
3 273 326 327
3 327 266 273
3 316 273 266
3 266 317 316
3 275 274 273
3 273 316 275
3 276 275 316
3 316 315 276
3 278 276 315
3 315 277 278
3 51 278 277
3 277 47 51
3 280 330 331
3 331 279 280
3 282 280 279
3 279 281 282
3 284 282 281
3 281 283 284
3 285 283 276
3 276 278 285
3 53 285 278
3 278 51 53
3 53 286 285
3 288 329 330
3 330 280 288
3 289 287 329
3 329 288 289
3 54 290 286
3 286 53 54
3 290 54 48
3 294 292 291
3 291 293 294
3 295 293 289
3 289 312 295
3 296 294 293
3 293 295 296
3 297 295 312
3 312 313 297
3 299 297 313
3 313 314 299
3 48 299 314
3 50 300 299
3 299 48 50
3 300 52 298
3 52 304 298
3 298 304 296
3 304 303 296
3 52 272 270
3 52 270 304
3 304 270 268
3 304 268 303
3 50 52 300
3 49 272 52
3 319 277 315
3 314 310 290
3 305 306 311
3 305 311 310
3 306 307 312
3 306 312 311
3 307 308 313
3 307 313 312
3 308 309 314
3 308 314 313
3 309 305 310
3 309 310 314
3 312 313 314
3 312 314 310
3 311 312 310
3 319 318 317
3 315 319 317
3 315 317 316
3 315 316 321
3 315 321 320
3 316 317 322
3 316 322 321
3 317 318 323
3 317 323 322
3 318 319 324
3 318 324 323
3 319 315 320
3 319 320 324
3 297 296 295
3 297 298 296
3 300 298 299
3 299 298 297
3 296 302 294
3 296 303 302
3 294 301 292
3 294 302 301
3 265 263 301
3 302 265 301
3 265 328 263
3 265 264 328
3 268 265 302
3 303 268 302
3 268 264 265
3 268 267 264
3 271 318 269
3 271 319 318
3 267 266 264
3 267 317 266
3 269 317 267
3 269 318 317
3 264 266 327
3 274 331 325
3 274 279 331
3 273 325 326
3 273 274 325
3 275 281 279
3 275 279 274
3 276 283 281
3 276 281 275
3 285 284 283
3 285 286 284
3 286 310 284
3 286 290 310
3 282 288 280
3 282 311 288
3 284 311 282
3 284 310 311
3 264 327 328
3 311 289 288
3 312 289 311
3 293 291 287
3 289 293 287
3 47 277 319
3 48 314 290
3 332 339 341
3 332 341 340
3 339 338 342
3 339 342 341
3 338 360 343
3 338 343 342
3 360 359 344
3 360 344 343
3 359 358 345
3 359 345 344
3 358 357 346
3 358 346 345
3 357 356 347
3 357 347 346
3 356 332 340
3 356 340 347
3 332 333 349
3 332 349 348
3 333 334 350
3 333 350 349
3 334 335 351
3 334 351 350
3 335 336 352
3 335 352 351
3 336 337 353
3 336 353 352
3 337 338 354
3 337 354 353
3 338 339 355
3 338 355 354
3 339 332 348
3 339 348 355
3 337 336 362
3 337 362 361
3 336 335 363
3 336 363 362
3 335 334 364
3 335 364 363
3 334 333 365
3 334 365 364
3 333 332 366
3 333 366 365
3 332 356 367
3 332 367 366
3 356 357 368
3 356 368 367
3 357 358 369
3 357 369 368
3 358 359 370
3 358 370 369
3 359 360 371
3 359 371 370
3 360 338 372
3 360 372 371
3 338 337 361
3 338 361 372
3 361 362 374
3 361 374 373
3 362 363 375
3 362 375 374
3 363 364 376
3 363 376 375
3 364 365 377
3 364 377 376
3 365 366 378
3 365 378 377
3 366 367 379
3 366 379 378
3 367 368 380
3 367 380 379
3 368 369 381
3 368 381 380
3 369 370 382
3 369 382 381
3 370 371 383
3 370 383 382
3 371 372 384
3 371 384 383
3 372 361 373
3 372 373 384
3 373 374 326
3 373 326 325
3 374 375 327
3 374 327 326
3 375 376 328
3 375 328 327
3 376 377 263
3 376 263 328
3 377 378 301
3 377 301 263
3 378 379 292
3 378 292 301
3 379 380 291
3 379 291 292
3 380 381 287
3 380 287 291
3 381 382 329
3 381 329 287
3 382 383 330
3 382 330 329
3 383 384 331
3 383 331 330
3 384 373 325
3 384 325 331
3 388 389 397
3 388 397 396
3 389 390 399
3 389 399 398
3 391 392 401
3 391 401 400
3 392 393 402
3 392 402 401
3 393 394 403
3 393 403 402
3 394 395 404
3 394 404 403
3 395 396 405
3 395 405 404
3 396 397 406
3 396 406 405
3 397 398 407
3 397 407 406
3 398 399 408
3 398 408 407
3 399 391 400
3 399 400 408
3 395 388 396
3 387 395 394
3 387 394 393
3 386 393 392
3 386 387 393
3 386 392 391
3 390 391 399
3 390 386 391
3 387 388 395
3 389 398 397
3 385 389 388
3 81 385 388
3 81 388 387
3 82 81 387
3 83 82 387
3 83 387 386
3 84 83 386
3 84 386 390
3 385 84 390
3 385 390 389
3 411 412 420
3 411 420 419
3 412 413 422
3 412 422 421
3 414 415 424
3 414 424 423
3 415 416 425
3 415 425 424
3 416 417 426
3 416 426 425
3 417 418 427
3 417 427 426
3 418 419 428
3 418 428 427
3 419 420 429
3 419 429 428
3 420 421 430
3 420 430 429
3 421 422 431
3 421 431 430
3 422 414 423
3 422 423 431
3 418 411 419
3 410 418 417
3 410 417 416
3 409 416 415
3 409 410 416
3 409 415 414
3 413 414 422
3 413 409 414
3 410 411 418
3 412 421 420
3 111 410 409
3 112 111 409
3 112 409 413
3 113 112 413
3 114 113 413
3 114 413 412
3 114 412 411
3 110 114 411
3 110 411 410
3 111 110 410
3 442 456 443
3 455 458 459
3 455 459 456
3 456 459 460
3 456 460 443
3 443 460 444
3 457 445 446
3 457 446 458
3 458 446 447
3 458 447 459
3 459 447 448
3 459 448 460
3 460 448 449
3 460 449 444
3 442 443 461
3 443 444 463
3 443 463 461
3 461 463 464
3 461 464 462
3 462 464 465
3 444 450 463
3 463 450 451
3 463 451 464
3 464 451 452
3 464 452 465
3 465 452 453
3 465 453 466
3 466 453 454
3 454 453 467
3 453 452 468
3 453 468 467
3 467 468 469
3 452 451 470
3 452 470 468
3 468 470 471
3 468 471 469
3 469 471 472
3 451 450 473
3 451 473 470
3 470 473 474
3 470 474 471
3 471 474 475
3 471 475 472
3 472 475 476
3 450 449 473
3 473 449 448
3 473 448 474
3 474 448 447
3 475 447 446
3 475 446 476
3 476 446 445
3 450 444 449
3 461 39 14
3 461 14 442
3 442 14 30
3 442 30 456
3 456 30 29
3 455 456 29
3 455 29 32
3 455 32 458
3 458 32 438
3 458 438 457
3 457 438 436
3 457 436 445
3 445 436 441
3 445 441 476
3 461 462 39
3 462 37 39
3 462 465 40
3 462 40 37
3 465 466 439
3 465 439 40
3 466 454 437
3 466 437 439
3 454 467 440
3 454 440 437
3 40 439 41
3 439 437 261
3 41 439 261
3 261 437 440
3 261 440 262
3 32 31 438
3 438 31 432
3 438 432 436
3 15 436 432
3 441 436 15
3 476 478 480
3 476 441 478
3 440 467 479
3 440 479 477
3 262 440 477
3 441 15 478
3 467 469 479
3 476 480 472
3 262 477 433
3 477 479 433
3 15 435 478
3 478 435 480
3 469 434 479
3 469 472 434
3 472 480 434
3 479 434 433
3 480 435 434
3 474 447 475
