ply
format ascii 1.0
element vertex 544
property float x
property float y
property float z
element face 997
property list uchar int vertex_indices
end_header
0.3646810054779053 0.8333759903907776 0.1986510008573532
0.35315901041030884 0.8333759903907776 0.17596900463104248
0.33519500494003296 0.8333759903907776 0.1580049991607666
0.31251299381256104 0.8333759903907776 0.14648300409317017
0.28747299313545227 0.8333759903907776 0.14249099791049957
0.2624320089817047 0.8333759903907776 0.14648300409317017
0.2397499978542328 0.8333759903907776 0.1580049991607666
0.2217860072851181 0.8333759903907776 0.17596900463104248
0.21026399731636047 0.8333759903907776 0.1986510008573532
0.20627200603485107 0.8333759903907776 0.22369199991226196
0.21026399731636047 0.8333759903907776 0.24873200058937073
0.2217860072851181 0.8333759903907776 0.27141401171684265
0.2397499978542328 0.8333759903907776 0.28937798738479614
0.2624320089817047 0.8333759903907776 0.30090001225471497
0.28747299313545227 0.8333759903907776 0.30489200353622437
0.31251299381256104 0.8333759903907776 0.30090001225471497
0.33519500494003296 0.8333759903907776 0.28937798738479614
0.35315901041030884 0.8333759903907776 0.27141401171684265
0.3646810054779053 0.8333759903907776 0.24873200058937073
0.3686729967594147 0.8333759903907776 0.22369199991226196
0.3547919988632202 0.9750000238418579 0.20182600617408752
0.3447209894657135 0.9750000238418579 0.1820479929447174
0.32911598682403564 0.9750000238418579 0.16644300520420074
0.3093380033969879 0.9750000238418579 0.15637199580669403
0.28747299313545227 0.9750000238418579 0.15292499959468842
0.26560699939727783 0.9750000238418579 0.15637199580669403
0.2458290010690689 0.9750000238418579 0.16644300520420074
0.23022399842739105 0.9750000238418579 0.1820479929447174
0.22015300393104553 0.9750000238418579 0.20182600617408752
0.21670599281787872 0.9750000238418579 0.22369199991226196
0.22015300393104553 0.9750000238418579 0.2455569952726364
0.23022399842739105 0.9750000238418579 0.26533499360084534
0.2458290010690689 0.9750000238418579 0.2809399962425232
0.26560699939727783 0.9750000238418579 0.2910110056400299
0.28747299313545227 0.9750000238418579 0.2944589853286743
0.3093380033969879 0.9750000238418579 0.2910110056400299
0.32911598682403564 0.9750000238418579 0.2809399962425232
0.3447209894657135 0.9750000238418579 0.26533499360084534
0.3547919988632202 0.9750000238418579 0.2455569952726364
0.35823899507522583 0.9750000238418579 0.22369199991226196
0.2587119936943054 0.8526099920272827 0.32485198974609375
0.256987988948822 0.7959049940109253 0.3246710002422333
0.3303860127925873 0.8560569882392883 0.1363220065832138
0.3330169916152954 0.7994440197944641 0.12452699989080429
0.41585099697113037 0.8753820061683655 0.2606169879436493
0.4236530065536499 0.8200389742851257 0.25653499364852905
0.3478969931602478 0.858506977558136 0.3146910071372986
0.3516159951686859 0.8020750284194946 0.3138740062713623
0.289014995098114 0.8527910113334656 0.3272109925746918
0.2891960144042969 0.7959960103034973 0.32712000608444214
0.28620201349258423 0.8244839906692505 0.3387329876422882
0.35116299986839294 0.8302000164985657 0.3263939917087555
0.31913599371910095 0.8548780083656311 0.32394498586654663
0.31940799951553345 0.826570987701416 0.3358300030231476
0.32113200426101685 0.7982640266418457 0.3236730098724365
0.3735719919204712 0.863677978515625 0.29999300837516785
0.3788340091705322 0.8076090216636658 0.2983599901199341
0.38001400232315063 0.8357340097427368 0.3104259967803955
0.4288249909877777 0.8486179709434509 0.2657890021800995
0.3964349925518036 0.8696659803390503 0.28202900290489197
0.4062339961528778 0.8423569798469543 0.29028499126434326
0.4031490087509155 0.8139600157737732 0.2792159914970398
0.40460100769996643 0.8720250129699707 0.18340900540351868
0.41176798939704895 0.8165000081062317 0.17451800405979156
0.4273729920387268 0.8790109753608704 0.23457899689674377
0.4359019994735718 0.8238490223884583 0.22886300086975098
0.44270598888397217 0.8528820276260376 0.2354860007762909
0.418844997882843 0.8464400172233582 0.17497099936008453
0.42183899879455566 0.877286970615387 0.2066349983215332
0.4374440014362335 0.8515210151672363 0.2026430070400238
0.43009498715400696 0.822035014629364 0.199194997549057
0.3827359974384308 0.8659459948539734 0.16408400237560272
0.3885419964790344 0.8100590109825134 0.154012992978096
0.39489299058914185 0.8403609991073608 0.15192699432373047
0.337554007768631 0.8302909731864929 0.11980900168418884
0.35805800557136536 0.8603209853172302 0.14793500304222107
0.3678559958934784 0.8346459865570068 0.13296499848365784
0.3624129891395569 0.8039799928665161 0.1368660032749176
0.1674409955739975 0.8693029880523682 0.18522299826145172
0.16009199619293213 0.8135970234870911 0.17651399970054626
0.2401130050420761 0.8537889719009399 0.13677500188350677
0.2372100055217743 0.7971760034561157 0.1251620054244995
0.30053699016571045 0.8534259796142578 0.1308780014514923
0.30135399103164673 0.7967219948768616 0.1188109964132309
0.30489200353622437 0.8275690078735352 0.11373099684715271
0.23875199258327484 0.8280230164527893 0.1188109964132309
0.2700529992580414 0.8524280190467834 0.1311500072479248
0.2715950012207031 0.826570987701416 0.11345899850130081
0.2689639925956726 0.7956330180168152 0.11908400058746338
0.21244199573993683 0.8577809929847717 0.1485700011253357
0.20790499448776245 0.8013489842414856 0.13759200274944305
0.2080869972705841 0.8321049809455872 0.1311500072479248
0.1562819927930832 0.8439000248908997 0.1723400056362152
0.1883080005645752 0.8633149862289429 0.1651729941368103
0.18050600588321686 0.8378210067749023 0.1494770050048828
0.18222899734973907 0.8072460293769836 0.1551930010318756
0.16081799566745758 0.8713899850845337 0.2637929916381836
0.15301500260829926 0.8157749772071838 0.2598010003566742
0.15192699432373047 0.8742030262947083 0.20944799482822418
0.14367100596427917 0.8187689781188965 0.20218899846076965
0.13777300715446472 0.8488900065422058 0.2001029998064041
0.14557600021362305 0.8450790047645569 0.2640649974346161
0.14866100251674652 0.8752909898757935 0.23766399919986725
0.13296499848365784 0.8496159911155701 0.2332179993391037
0.14022299647331238 0.8198570013046265 0.23212899267673492
0.20327800512313843 0.859686017036438 0.3033500015735626
0.19810700416564941 0.8033450245857239 0.3018069863319397
0.1920280009508133 0.8321959972381592 0.31078898906707764
0.18014299869537354 0.8655840158462524 0.28538599610328674
0.16662399470806122 0.8386380076408386 0.28964999318122864
0.17361000180244446 0.8096050024032593 0.2827549874782562
0.2529959976673126 0.8244839906692505 0.33573898673057556
0.22968000173568726 0.8549680113792419 0.31714001297950745
0.2209700047969818 0.827114999294281 0.32657599449157715
0.22614100575447083 0.798354983329773 0.3165050148963928
0.28747299313545227 0.8409969806671143 0.31777501106262207
0.28747299313545227 0.03198599815368652 0.46502500772476196
0.28747299313545227 0.028810499235987663 0.02500000037252903
0.28747299313545227 0.8308349847793579 0.12307599931955338
0.28774499893188477 0.5045819878578186 0.4236530065536499
0.28747299313545227 0.5420519709587097 0.05593780055642128
0.48670899868011475 0.4603070020675659 0.2386620044708252
0.4359920024871826 0.8382750153541565 0.22795599699020386
0.2947309911251068 0.6098250150680542 0.4385330080986023
0.46983298659324646 0.617717981338501 0.2394780069589615
0.4251050055027008 0.6227989792823792 0.3970699906349182
0.3853670060634613 0.8340110182762146 0.29373300075531006
0.28747299313545227 0.6939280033111572 0.4133110046386719
0.41721200942993164 0.7139790058135986 0.3538849949836731
0.33746299147605896 0.6978300213813782 0.40206000208854675
0.32512399554252625 0.8378210067749023 0.31568899750709534
0.28747299313545227 0.7569839954376221 0.38092100620269775
0.3358300030231476 0.7595239877700806 0.37230199575424194
0.38355201482772827 0.7077190279960632 0.3819189965724945
0.35914701223373413 0.8359159827232361 0.30743199586868286
0.3804669976234436 0.766418993473053 0.35606199502944946
0.4115869998931885 0.7695950269699097 0.33138400316238403
0.33746299147605896 0.6152679920196533 0.4350849986076355
0.2878350019454956 0.6462060213088989 0.4317280054092407
0.3372820019721985 0.6522849798202515 0.4225650131702423
0.3836430013179779 0.6188070178031921 0.4224739968776703
0.3833709955215454 0.6589080095291138 0.403421014547348
0.42120400071144104 0.6649870276451111 0.37638500332832336
0.454228013753891 0.7290400266647339 0.23412500321865082
0.40351200103759766 0.83119797706604 0.2747710049152374
0.4394400119781494 0.720058023929596 0.318682998418808
0.43154698610305786 0.7714999914169312 0.3009909987449646
0.4145810008049011 0.8393629789352417 0.25199800729751587
0.45041799545288086 0.7248659729957581 0.27803701162338257
0.44216200709342957 0.7730420231819153 0.26705899834632874
0.44696998596191406 0.7744939923286438 0.23085899651050568
0.4547730088233948 0.6281520128250122 0.355881005525589
0.4476960003376007 0.6712470054626465 0.3383699953556061
0.46928900480270386 0.622435986995697 0.3029870092868805
0.4602159857749939 0.6751480102539062 0.2906480133533478
0.477182000875473 0.6781420111656189 0.2372100055217743
0.42265498638153076 0.4515970051288605 0.38010498881340027
0.28711000084877014 0.5602880120277405 0.4356290102005005
0.4244700074195862 0.548675000667572 0.39498400688171387
0.3187730014324188 0.5588359832763672 0.4341779947280884
0.2821199893951416 0.58051997423172 0.4381699860095978
0.33401501178741455 0.5823349952697754 0.4359920024871826
0.366223007440567 0.5545719861984253 0.42320001125335693
0.382191002368927 0.5826069712638855 0.42320001125335693
0.4213849902153015 0.5868710279464722 0.4053269922733307
0.3358300030231476 0.48761600255966187 0.4168489873409271
0.28801700472831726 0.5402370095252991 0.4307299852371216
0.33201900124549866 0.5285339951515198 0.42574000358581543
0.38228198885917664 0.472555011510849 0.40206000208854675
0.38228198885917664 0.5195519924163818 0.414126992225647
0.42465099692344666 0.4980489909648895 0.3867279887199402
0.48008498549461365 0.5330700278282166 0.24083900451660156
0.4681999981403351 0.5468599796295166 0.3515259921550751
0.45867401361465454 0.5807009935379028 0.36776599287986755
0.4831700026988983 0.5459529757499695 0.3121500015258789
0.4806300103664398 0.5619210004806519 0.3121500015258789
0.4781799912452698 0.548675000667572 0.24083900451660156
0.4594910144805908 0.46475300192832947 0.35352200269699097
0.4604879915714264 0.5095720291137695 0.35606199502944946
0.4851660132408142 0.4653880000114441 0.30915600061416626
0.48525699973106384 0.5124750137329102 0.3120589852333069
0.48335200548171997 0.5014969706535339 0.23911499977111816
0.28747299313545227 0.6883940100669861 0.058387499302625656
0.3684920072555542 0.8309260010719299 0.1403139978647232
0.4045099914073944 0.6663479804992676 0.0943152979016304
0.3950740098953247 0.7490000128746033 0.10492999851703644
0.4256489872932434 0.8364599943161011 0.19193699955940247
0.4414359927177429 0.7398359775543213 0.18304599821567535
0.4350849986076355 0.7796649932861328 0.18567700684070587
0.3924430012702942 0.8282039761543274 0.16054600477218628
0.4224739968776703 0.747639000415802 0.1368660032749176
0.41666701436042786 0.784745991230011 0.14367100596427917
0.38972198963165283 0.7876489758491516 0.11418399959802628
0.454228013753891 0.6455709934234619 0.1775120049715042
0.4488750100135803 0.6964690089225769 0.17932599782943726
0.43327000737190247 0.6648960113525391 0.12670500576496124
0.4284619987010956 0.7084450125694275 0.1299709975719452
0.39997398853302 0.7088080048561096 0.09767209738492966
0.28747299313545227 0.7738590240478516 0.07961750030517578
0.33891499042510986 0.8348270058631897 0.13305599987506866
0.3578769862651825 0.7502700090408325 0.0891437977552414
0.35370299220085144 0.7906429767608643 0.10120999813079834
0.32085999846458435 0.7595239877700806 0.08306510001420975
0.318682998418808 0.8006229996681213 0.09776289761066437
0.36540699005126953 0.6661660075187683 0.07562550157308578
0.36150598526000977 0.7088080048561096 0.08061549812555313
0.32512399554252625 0.6746940016746521 0.06546410173177719
0.32285600900650024 0.7177900075912476 0.07235939800739288
0.28747299313545227 0.7320340275764465 0.06691580265760422
0.42401599884033203 0.5318899750709534 0.10647299885749817
0.4107699990272522 0.6140890121459961 0.09622050076723099
0.4617590010166168 0.5782520174980164 0.17932599782943726
0.46039798855781555 0.5901370048522949 0.1788730025291443
0.4394400119781494 0.6105509996414185 0.12960800528526306
0.43835100531578064 0.6195330023765564 0.12879100441932678
0.4096809923648834 0.622344970703125 0.09549470245838165
0.47210198640823364 0.5008620023727417 0.18540500104427338
0.46584099531173706 0.5466790199279785 0.18077799677848816
0.45186901092529297 0.5289869904518127 0.140857994556427
0.44406700134277344 0.5785239934921265 0.13332800567150116
0.41576001048088074 0.5815179944038391 0.09975890070199966
0.28747299313545227 0.632053017616272 0.05394180119037628
0.37148600816726685 0.613182008266449 0.07508119940757751
0.37039700150489807 0.6215289831161499 0.0748089998960495
0.32884401082992554 0.6202579736709595 0.06265159696340561
0.3281179964542389 0.6288769841194153 0.06265159696340561
0.28747299313545227 0.6410350203514099 0.0542140007019043
0.38409700989723206 0.5305299758911133 0.08143209666013718
0.37638500332832336 0.5800660252571106 0.0769864022731781
0.3364650011062622 0.5347030162811279 0.06609919667243958
0.33174699544906616 0.5856009721755981 0.06337740272283554
0.28747299313545227 0.595399022102356 0.05403260141611099
0.5499449968338013 0.07381100207567215 0.2369379997253418
0.28765401244163513 0.3052549958229065 0.40523600578308105
0.48779699206352234 0.2891960144042969 0.2394780069589615
0.41929900646209717 0.2832080125808716 0.34807801246643066
0.2875629961490631 0.40605199337005615 0.4122219979763031
0.4199340045452118 0.37402600049972534 0.3644089996814728
0.33519500494003296 0.3887239992618561 0.4082300066947937
0.2875629961490631 0.45894598960876465 0.41358301043510437
0.33546701073646545 0.4393489956855774 0.4088650047779083
0.37919700145721436 0.37919700145721436 0.38826999068260193
0.3804669976234436 0.4253770112991333 0.3950740098953247
0.4155789911746979 0.4124029874801636 0.37665700912475586
0.3356480002403259 0.28856098651885986 0.40323999524116516
0.28765401244163513 0.3547010123729706 0.40832099318504333
0.33492299914360046 0.3395499885082245 0.4033310115337372
0.38028600811958313 0.28420600295066833 0.3796510100364685
0.3799229860305786 0.3322010040283203 0.38373398780822754
0.419389009475708 0.32911598682403564 0.35633400082588196
0.49097299575805664 0.3742069900035858 0.23648400604724884
0.4545010030269623 0.365678995847702 0.33174699544906616
0.4568589925765991 0.41603198647499084 0.3498930037021637
0.4796319901943207 0.37348198890686035 0.28964999318122864
0.4814459979534149 0.41929900646209717 0.29972100257873535
0.48924899101257324 0.4171209931373596 0.23766399919986725
0.45214200019836426 0.2807590067386627 0.30997300148010254
0.45214200019836426 0.32911598682403564 0.32167699933052063
0.47437000274658203 0.281484991312027 0.27286601066589355
0.47409799695014954 0.33083999156951904 0.2807590067386627
0.4886139929294586 0.33347100019454956 0.2386620044708252
0.47663798928260803 0.03280249983072281 0.4075950086116791
0.28747299313545227 0.1977439969778061 0.4219299852848053
0.4333609938621521 0.1880359947681427 0.36377400159835815
0.3412739932537079 0.1917559951543808 0.416577011346817
0.2875629961490631 0.24945800006389618 0.4123130142688751
0.3408200144767761 0.23593999445438385 0.4047819972038269
0.390720009803772 0.18876199424266815 0.395891010761261
0.3909919857978821 0.236393004655838 0.379287987947464
0.4293690025806427 0.23593999445438385 0.3465360105037689
0.35796698927879333 0.02500000037252903 0.4603070020675659
0.28747299313545227 0.14639200270175934 0.43263500928878784
0.3465360105037689 0.13813599944114685 0.4282810091972351
0.28747299313545227 0.09068620204925537 0.4474239945411682
0.35225099325180054 0.0820671021938324 0.4433409869670868
0.44724199175834656 0.1363220065832138 0.3787440061569214
0.4001550078392029 0.13523299992084503 0.4098629951477051
0.4210219979286194 0.02599800005555153 0.44125398993492126
0.4105890095233917 0.08061549812555313 0.42546799778938293
0.4622119963169098 0.08433529734611511 0.39380401372909546
0.5026760101318359 0.19729000329971313 0.2397499978542328
0.46729299426078796 0.18930600583553314 0.3250330090522766
0.45504501461982727 0.23621200025081635 0.31541600823402405
0.4891580045223236 0.19266299903392792 0.28311800956726074
0.47700101137161255 0.23784500360488892 0.27767398953437805
0.4925149977207184 0.24029499292373657 0.23993200063705444
0.5197330117225647 0.043598998337984085 0.3590559959411621
0.4843499958515167 0.14040400087833405 0.33719098567962646
0.5024949908256531 0.09168419986963272 0.34889501333236694
0.5170109868049622 0.15637199580669403 0.2383890002965927
0.5060330033302307 0.14766299724578857 0.2892870008945465
0.5419610142707825 0.05820599943399429 0.30035600066185
0.5242689847946167 0.10293400287628174 0.29509401321411133
0.5332509875297546 0.11563599854707718 0.23711900413036346
0.28747299313545227 0.30888399481773376 0.06310520321130753
0.4519599974155426 0.30108198523521423 0.12897300720214844
0.4418889880180359 0.4212949872016907 0.12071699649095535
0.4846220016479492 0.39979198575019836 0.19529399275779724
0.47872498631477356 0.45096200704574585 0.1905760020017624
0.46901699900627136 0.41775599122047424 0.15673500299453735
0.46076101064682007 0.47446000576019287 0.1491139978170395
0.43327000737190247 0.4777269959449768 0.11391200125217438
0.4871619939804077 0.2952750027179718 0.2031870037317276
0.4862549901008606 0.347351998090744 0.20082800090312958
0.4762749969959259 0.2995389997959137 0.16617099940776825
0.4736439883708954 0.35751399397850037 0.16326799988746643
0.44805899262428284 0.3606890141963959 0.12643299996852875
0.28747299313545227 0.432453989982605 0.06020199880003929
0.4004270136356354 0.42265498638153076 0.09050469845533371
0.3925339877605438 0.4776360094547272 0.08614979684352875
0.3461729884147644 0.4268290102481842 0.0719057023525238
0.34145501255989075 0.48153701424598694 0.06909319758415222
0.28747299313545227 0.48761600255966187 0.05811529979109764
0.41040700674057007 0.30289599299430847 0.09585759788751602
0.4065060019493103 0.36313900351524353 0.09440600126981735
0.3521609902381897 0.3056179881095886 0.07544410228729248
0.3498019874095917 0.36713099479675293 0.07471829652786255
0.28747299313545227 0.3719390034675598 0.06265159696340561
0.49814000725746155 0.05630069971084595 0.07535339891910553
0.46439000964164734 0.19756199419498444 0.11146300286054611
0.5001360177993774 0.199194997549057 0.19620099663734436
0.49187999963760376 0.2435609996318817 0.2020989954471588
0.4887950122356415 0.19928599894046783 0.15247100591659546
0.48099300265312195 0.24592000246047974 0.16354000568389893
0.45640599727630615 0.24655500054359436 0.12525300681591034
0.5412350296974182 0.06854890286922455 0.17987099289894104
0.5117490291595459 0.1562819927930832 0.18912500143051147
0.525629997253418 0.11318600177764893 0.18331800401210785
0.474822998046875 0.1502940058708191 0.09594830125570297
0.49950098991394043 0.15383200347423553 0.14013199508190155
0.5261750221252441 0.061381399631500244 0.1239830031991005
0.512021005153656 0.10828699916601181 0.130514994263649
0.48616400361061096 0.10375099629163742 0.08388169854879379
0.28747299313545227 0.18322700262069702 0.04768170043826103
0.41984298825263977 0.19438700377941132 0.07834730297327042
0.4139460027217865 0.24628299474716187 0.09150269627571106
0.35687899589538574 0.18921500444412231 0.05911330133676529
0.35406601428985596 0.24546599388122559 0.0708170011639595
0.28747299313545227 0.24455900490283966 0.058296699076890945
0.4439760148525238 0.050494201481342316 0.0438712015748024
0.4273729920387268 0.14557600021362305 0.06392180174589157
0.43553900718688965 0.09839800000190735 0.052490200847387314
0.28747299313545227 0.12879100441932678 0.03770169988274574
0.360507994890213 0.138045996427536 0.04704660177230835
0.36885398626327515 0.0407865010201931 0.030443599447607994
0.36458998918533325 0.08950670063495636 0.03761100023984909
0.28747299313545227 0.07861950248479843 0.030352899804711342
0.2060910016298294 0.0407865010201931 0.030443599447607994
0.2103549987077713 0.08950670063495636 0.03761100023984909
0.23848000168800354 0.5347030162811279 0.06609919667243958
0.24319800734519958 0.5856009721755981 0.06337740272283554
0.09340800344944 0.4648430049419403 0.3035309910774231
0.08850870281457901 0.4610329866409302 0.23902399837970734
0.09195639938116074 0.5019509792327881 0.23857100307941437
0.09304510056972504 0.5055800080299377 0.3016259968280792
0.10565599799156189 0.622435986995697 0.3029870092868805
0.1051120012998581 0.617717981338501 0.2394780069589615
0.11155299842357635 0.6781420111656189 0.2372100055217743
0.11472900211811066 0.6751480102539062 0.2906480133533478
0.19184699654579163 0.6191700100898743 0.42156699299812317
0.15192699432373047 0.6227989792823792 0.39326000213623047
0.154012992978096 0.6651679873466492 0.3758400082588196
0.19166499376296997 0.6593620181083679 0.40323999524116516
0.19139300286769867 0.7077190279960632 0.3819189965724945
0.1577329933643341 0.7139790058135986 0.3538849949836731
0.16335800290107727 0.7695950269699097 0.33138400316238403
0.19447800517082214 0.766418993473053 0.35606199502944946
0.23630300164222717 0.7042710185050964 0.40432900190353394
0.2377540022134781 0.7636970281600952 0.37493300437927246
0.2498210072517395 0.8378210067749023 0.31568899750709534
0.2157980054616928 0.8359159827232361 0.30743199586868286
0.18957799673080444 0.8340110182762146 0.29373300075531006
0.2406580001115799 0.6147239804267883 0.4359920024871826
0.23711900413036346 0.6565489768981934 0.42383500933647156
0.12071699649095535 0.7290400266647339 0.23412500321865082
0.1279750019311905 0.7744939923286438 0.23085899651050568
0.13278299570083618 0.7730420231819153 0.26705899834632874
0.12452699989080429 0.7248659729957581 0.27803701162338257
0.13550500571727753 0.720058023929596 0.318682998418808
0.1433980017900467 0.7714999914169312 0.3009909987449646
0.1714330017566681 0.83119797706604 0.2747710049152374
0.141402006149292 0.8357340097427368 0.25199800729751587
0.13786399364471436 0.8262990117073059 0.22795599699020386
0.1205350011587143 0.6286050081253052 0.3553360104560852
0.12724900245666504 0.6712470054626465 0.3383699953556061
0.19411499798297882 0.46783700585365295 0.40006399154663086
0.15510199964046478 0.4453369975090027 0.37683799862861633
0.15174500644207 0.4946019947528839 0.384550005197525
0.19565699994564056 0.5150150060653687 0.4098629951477051
0.20953799784183502 0.553210973739624 0.42038699984550476
0.1508380025625229 0.548583984375 0.3950740098953247
0.1571889966726303 0.5892300009727478 0.4036940038204193
0.19393299520015717 0.5838770270347595 0.42147600650787354
0.2561720013618469 0.5574749708175659 0.4313650131225586
0.2349420040845871 0.5783429741859436 0.43154698610305786
0.24020400643348694 0.48525699973106384 0.41439899802207947
0.24473999440670013 0.5268099904060364 0.42329099774360657
0.09513179957866669 0.5332509875297546 0.2409300059080124
0.09703709930181503 0.5496730208396912 0.2406580001115799
0.09531319886445999 0.5521230101585388 0.31115201115608215
0.09222850203514099 0.5337049961090088 0.310153990983963
0.10855899751186371 0.5406000018119812 0.34608200192451477
0.12116999924182892 0.5826069712638855 0.3635919988155365
0.11781299859285355 0.4613960087299347 0.3490760028362274
0.1159989982843399 0.506850004196167 0.3530679941177368
0.2520889937877655 0.7177900075912476 0.07235939800739288
0.2498210072517395 0.6746940016746521 0.06546410173177719
0.14167499542236328 0.6648960113525391 0.12670500576496124
0.17043499648571014 0.6663479804992676 0.0943152979016304
0.17497099936008453 0.7088080048561096 0.09767209738492966
0.14648300409317017 0.7084450125694275 0.1299709975719452
0.15827800333499908 0.784745991230011 0.14367100596427917
0.15247100591659546 0.747639000415802 0.1368660032749176
0.17987099289894104 0.7490000128746033 0.10492999851703644
0.18522299826145172 0.7876489758491516 0.11418399959802628
0.13350899517536163 0.7398359775543213 0.18304599821567535
0.13986000418663025 0.7796649932861328 0.18567700684070587
0.15737000107765198 0.826570987701416 0.18649399280548096
0.18250200152397156 0.8282039761543274 0.16054600477218628
0.20645399391651154 0.8309260010719299 0.1403139978647232
0.12071699649095535 0.6455709934234619 0.1775120049715042
0.12606999278068542 0.6964690089225769 0.17932599782943726
0.25626298785209656 0.8006229996681213 0.09776289761066437
0.2540850043296814 0.7595239877700806 0.08306510001420975
0.21706900000572205 0.7502700090408325 0.0891437977552414
0.2212419956922531 0.7906429767608643 0.10120999813079834
0.2360299974679947 0.8348270058631897 0.13305599987506866
0.20953799784183502 0.6661660075187683 0.07562550157308578
0.2134390026330948 0.7088080048561096 0.08061549812555313
0.12307599931955338 0.5289869904518127 0.140857994556427
0.15092900395393372 0.5318899750709534 0.10647299885749817
0.1591850072145462 0.5815179944038391 0.09975890070199966
0.1308780014514923 0.5785239934921265 0.13332800567150116
0.16417500376701355 0.6140890121459961 0.09622050076723099
0.16526399552822113 0.622344970703125 0.09549470245838165
0.1365939974784851 0.6195330023765564 0.12879100441932678
0.13550500571727753 0.6105509996414185 0.12960800528526306
0.11318600177764893 0.5782520174980164 0.17932599782943726
0.114546999335289 0.5901370048522949 0.1788730025291443
0.1028439998626709 0.5008620023727417 0.18540500104427338
0.10910400003194809 0.5466790199279785 0.18077799677848816
0.24682700634002686 0.6288769841194153 0.06265159696340561
0.2461010068655014 0.6202579736709595 0.06265159696340561
0.2034599930047989 0.613182008266449 0.07508119940757751
0.20454800128936768 0.6215289831161499 0.0748089998960495
0.19084900617599487 0.5305299758911133 0.08143209666013718
0.19855999946594238 0.5800660252571106 0.0769864022731781
0.03298399969935417 0.05820599943399429 0.30035600066185
0.02500000037252903 0.07381100207567215 0.2369379997253418
0.04169369861483574 0.11563599854707718 0.23711900413036346
0.05067570134997368 0.10293400287628174 0.29509401321411133
0.10175500065088272 0.2841159999370575 0.27513399720191956
0.08760149776935577 0.289014995098114 0.23956899344921112
0.08696640282869339 0.33365198969841003 0.23911499977111816
0.10229899734258652 0.3283900022506714 0.28284499049186707
0.1945679932832718 0.28393399715423584 0.3796510100364685
0.15582799911499023 0.2832080125808716 0.3510720133781433
0.1551930010318756 0.329025000333786 0.35633400082588196
0.19565699994564056 0.32947900891304016 0.37865298986434937
0.1966550052165985 0.3731189966201782 0.3848220109939575
0.15619100630283356 0.37094101309776306 0.36404600739479065
0.16208800673484802 0.4059619903564453 0.3755680024623871
0.1954759955406189 0.41893601417541504 0.3936229944229126
0.2403849959373474 0.38373398780822754 0.4024229943752289
0.23965999484062195 0.43608298897743225 0.40723198652267456
0.23984099924564362 0.28819799423217773 0.39806801080703735
0.24056699872016907 0.33601099252700806 0.3962540030479431
0.0840630978345871 0.37429800629615784 0.23657500743865967
0.08587770164012909 0.4176650047302246 0.2380259931087494
0.09304510056972504 0.4182099997997284 0.29962998628616333
0.09631119668483734 0.3733910024166107 0.28964999318122864
0.12126100063323975 0.3644999861717224 0.3318380117416382
0.12307599931955338 0.4105890095233917 0.3453559875488281
0.12362000346183777 0.2824830114841461 0.3129670023918152
0.12588800489902496 0.3253059983253479 0.32394498586654663
0.15392300486564636 0.02599800005555153 0.44125398993492126
0.09830719977617264 0.03280249983072281 0.4075950086116791
0.11273299902677536 0.08433529734611511 0.39380401372909546
0.16435599327087402 0.08061549812555313 0.42546799778938293
0.18422499299049377 0.18876199424266815 0.395891010761261
0.14158399403095245 0.1880359947681427 0.36377400159835815
0.15129199624061584 0.23566800355911255 0.35261398553848267
0.1840440034866333 0.236393004655838 0.38028600811958313
0.23367199301719666 0.1917559951543808 0.416577011346817
0.2337619960308075 0.23539499938488007 0.4050540030002594
0.21697799861431122 0.02500000037252903 0.4603070020675659
0.22269399464130402 0.0820671021938324 0.4433409869670868
0.22840900719165802 0.13813599944114685 0.4282810091972351
0.127702996134758 0.1363220065832138 0.3787440061569214
0.17478999495506287 0.13523299992084503 0.4098629951477051
0.07226859778165817 0.19729000329971313 0.2397499978542328
0.08288370072841644 0.24029499292373657 0.24083900451660156
0.09803509712219238 0.23811699450016022 0.27794599533081055
0.08578690141439438 0.19266299903392792 0.28311800956726074
0.10765200108289719 0.18930600583553314 0.3250330090522766
0.11980900168418884 0.23612099885940552 0.31541600823402405
0.05521199852228165 0.043598998337984085 0.3590559959411621
0.07245010137557983 0.09168419986963272 0.34889501333236694
0.09059549868106842 0.14040400087833405 0.33719098567962646
0.05793379992246628 0.15637199580669403 0.2383890002965927
0.06891179829835892 0.14766299724578857 0.2892870008945465
0.22514300048351288 0.36713099479675293 0.07471829652786255
0.22278399765491486 0.3056179881095886 0.07544410228729248
0.0986701026558876 0.2995389997959137 0.16617099940776825
0.12298499792814255 0.30108198523521423 0.12897300720214844
0.12688599526882172 0.3606890141963959 0.12643299996852875
0.10130099952220917 0.35751399397850037 0.16326799988746643
0.11418399959802628 0.47446000576019287 0.1491139978170395
0.10592799633741379 0.41775599122047424 0.15673500299453735
0.13305599987506866 0.4212949872016907 0.12071699649095535
0.14167499542236328 0.4777269959449768 0.11391200125217438
0.0903232991695404 0.39979198575019836 0.19529399275779724
0.09622050076723099 0.45096200704574585 0.1905760020017624
0.0880550965666771 0.2950029969215393 0.20300599932670593
0.08896239846944809 0.34689900279045105 0.20073799788951874
0.2334900051355362 0.48153701424598694 0.06909319758415222
0.22877199947834015 0.4268290102481842 0.0719057023525238
0.17451800405979156 0.42265498638153076 0.09050469845533371
0.18241100013256073 0.4776360094547272 0.08614979684352875
0.16453799605369568 0.30289599299430847 0.09585759788751602
0.16843900084495544 0.36313900351524353 0.09440600126981735
0.04877040162682533 0.061381399631500244 0.1239830031991005
0.0768050029873848 0.05630069971084595 0.07535339891910553
0.08878090232610703 0.10375099629163742 0.08388169854879379
0.06292379647493362 0.10828699916601181 0.130514994263649
0.110555000603199 0.19756199419498444 0.11146300286054611
0.118538998067379 0.24655500054359436 0.12525300681591034
0.09395229816436768 0.24592000246047974 0.16354000568389893
0.08614979684352875 0.19928599894046783 0.15247100591659546
0.0748089998960495 0.199194997549057 0.19620099663734436
0.08306510001420975 0.24365200102329254 0.20255200564861298
0.033709801733493805 0.06854890286922455 0.17987099289894104
0.04931480064988136 0.11318600177764893 0.18331800401210785
0.06319600343704224 0.1562819927930832 0.18912500143051147
0.10012199729681015 0.1502940058708191 0.09594830125570297
0.07544410228729248 0.15383200347423553 0.14013199508190155
0.22087900340557098 0.24546599388122559 0.0708170011639595
0.21806700527668 0.18921500444412231 0.05911330133676529
0.15510199964046478 0.19438700377941132 0.07834730297327042
0.16099900007247925 0.24628299474716187 0.09150269627571106
0.13096900284290314 0.050494201481342316 0.0438712015748024
0.1394059956073761 0.09839800000190735 0.052490200847387314
0.14757199585437775 0.14557600021362305 0.06392180174589157
0.21443699300289154 0.138045996427536 0.04704660177230835
3 0 1 21
3 1 2 22
3 2 3 23
3 3 4 24
3 4 5 25
3 5 6 26
3 6 7 27
3 7 8 28
3 8 9 29
3 9 10 30
3 10 11 31
3 11 12 32
3 12 13 33
3 13 14 34
3 14 15 35
3 15 16 36
3 16 17 37
3 17 18 38
3 18 19 39
3 19 0 20
3 113 111 114
3 111 41 114
3 74 43 76
3 43 77 76
3 58 45 60
3 45 61 60
3 53 51 54
3 51 47 54
3 111 50 41
3 50 49 41
3 111 40 50
3 40 48 50
3 51 53 46
3 52 46 53
3 50 48 53
3 48 52 53
3 50 53 49
3 54 49 53
3 51 57 47
3 57 56 47
3 57 51 55
3 46 55 51
3 60 59 58
3 59 44 58
3 57 55 60
3 55 59 60
3 60 61 57
3 61 56 57
3 67 63 69
3 63 70 69
3 66 65 58
3 65 45 58
3 58 44 66
3 44 64 66
3 69 68 67
3 68 62 67
3 66 64 69
3 64 68 69
3 69 70 66
3 70 65 66
3 73 72 67
3 72 63 67
3 67 62 73
3 62 71 73
3 76 75 74
3 75 42 74
3 73 71 76
3 71 75 76
3 76 77 73
3 77 72 73
3 94 92 95
3 92 79 95
3 87 85 88
3 85 81 88
3 84 83 74
3 83 43 74
3 74 42 84
3 42 82 84
3 87 86 85
3 86 80 85
3 84 82 87
3 82 86 87
3 84 87 83
3 88 83 87
3 85 91 81
3 91 90 81
3 91 85 89
3 80 89 85
3 92 94 78
3 93 78 94
3 94 91 93
3 89 93 91
3 91 94 90
3 95 90 94
3 103 101 104
3 101 97 104
3 92 100 79
3 100 99 79
3 100 92 98
3 78 98 92
3 101 103 96
3 102 96 103
3 103 100 102
3 98 102 100
3 100 103 99
3 104 99 103
3 109 107 110
3 107 106 110
3 109 108 107
3 108 105 107
3 101 96 109
3 96 108 109
3 109 110 101
3 110 97 101
3 113 112 111
3 112 40 111
3 107 105 113
3 105 112 113
3 113 114 107
3 114 106 107
3 64 44 68
3 68 44 62
3 44 59 62
3 62 59 71
3 59 55 71
3 71 55 75
3 55 46 75
3 75 46 42
3 46 52 42
3 42 52 82
3 52 48 82
3 82 48 86
3 48 40 86
3 86 40 80
3 40 112 80
3 80 112 89
3 112 105 89
3 89 105 93
3 105 108 93
3 93 108 78
3 108 96 78
3 78 96 98
3 96 102 98
3 117 347 346
3 347 348 346
3 349 350 120
3 350 231 120
3 351 354 352
3 354 353 352
3 356 355 357
3 355 358 357
3 359 362 360
3 362 361 360
3 366 365 363
3 363 365 364
3 131 368 127
3 368 367 127
3 115 369 131
3 369 368 131
3 368 366 367
3 367 366 363
3 369 370 368
3 366 368 370
3 370 371 366
3 365 366 371
3 373 372 138
3 138 372 123
3 367 373 127
3 127 373 138
3 362 359 373
3 372 373 359
3 363 362 367
3 362 373 367
3 362 363 361
3 361 363 364
3 377 376 374
3 374 376 375
3 365 379 364
3 379 378 364
3 371 380 365
3 380 379 365
3 377 378 376
3 379 376 378
3 380 381 379
3 381 376 379
3 376 381 375
3 375 381 382
3 360 361 383
3 361 384 383
3 361 364 384
3 384 364 378
3 355 383 358
3 383 384 358
3 384 378 358
3 358 378 377
3 357 358 374
3 358 377 374
3 386 385 387
3 385 388 387
3 389 392 390
3 392 391 390
3 394 393 160
3 160 393 157
3 394 160 372
3 123 372 160
3 393 394 389
3 394 392 389
3 359 392 372
3 392 394 372
3 360 391 359
3 391 392 359
3 395 119 396
3 166 396 119
3 396 166 393
3 157 393 166
3 385 395 388
3 395 396 388
3 388 396 389
3 396 393 389
3 387 388 390
3 388 389 390
3 397 400 398
3 400 399 398
3 401 390 402
3 391 402 390
3 383 402 360
3 402 391 360
3 400 401 399
3 402 399 401
3 399 402 355
3 355 402 383
3 398 399 356
3 399 355 356
3 386 387 403
3 387 404 403
3 387 390 404
3 404 390 401
3 403 404 351
3 404 354 351
3 404 401 354
3 354 401 400
3 353 354 397
3 354 400 397
3 406 405 182
3 182 405 208
3 407 410 408
3 410 409 408
3 414 413 411
3 411 413 412
3 374 375 415
3 375 416 415
3 375 382 416
3 417 416 382
3 415 416 412
3 416 411 412
3 416 417 411
3 418 411 417
3 411 418 414
3 419 414 418
3 357 421 356
3 421 420 356
3 357 374 421
3 374 415 421
3 420 421 407
3 421 410 407
3 421 415 410
3 410 415 412
3 410 412 409
3 409 412 413
3 423 422 198
3 198 422 118
3 425 424 414
3 414 424 413
3 426 425 419
3 425 414 419
3 422 423 425
3 425 423 424
3 118 422 426
3 422 425 426
3 428 427 409
3 409 427 408
3 409 413 428
3 424 428 413
3 427 428 406
3 428 405 406
3 428 424 405
3 423 405 424
3 405 423 208
3 208 423 198
3 429 432 430
3 432 431 430
3 436 435 433
3 433 435 434
3 397 398 437
3 398 438 437
3 356 420 398
3 420 438 398
3 435 436 438
3 438 436 437
3 438 420 435
3 407 435 420
3 435 407 434
3 434 407 408
3 440 439 353
3 352 353 439
3 437 440 397
3 440 353 397
3 432 429 440
3 439 440 429
3 436 432 437
3 432 440 437
3 433 431 436
3 431 432 436
3 442 441 221
3 221 441 226
3 433 434 443
3 434 444 443
3 434 408 444
3 427 444 408
3 443 444 442
3 444 441 442
3 444 427 441
3 406 441 427
3 441 406 226
3 226 406 182
3 430 431 445
3 431 446 445
3 431 433 446
3 446 433 443
3 445 446 349
3 446 350 349
3 446 443 350
3 350 443 442
3 350 442 231
3 231 442 221
3 447 450 448
3 450 449 448
3 453 452 454
3 451 454 452
3 458 457 455
3 455 457 456
3 462 461 459
3 459 461 460
3 239 464 236
3 464 463 236
3 464 239 395
3 119 395 239
3 464 462 463
3 463 462 459
3 462 464 385
3 464 395 385
3 461 462 386
3 462 385 386
3 245 466 233
3 466 465 233
3 236 463 245
3 463 466 245
3 466 458 465
3 465 458 455
3 458 466 459
3 466 463 459
3 457 458 460
3 458 459 460
3 468 467 469
3 467 470 469
3 461 472 460
3 472 471 460
3 403 472 386
3 472 461 386
3 469 470 472
3 472 470 471
3 351 469 403
3 469 472 403
3 352 468 351
3 468 469 351
3 457 474 456
3 456 474 473
3 460 471 457
3 474 457 471
3 474 454 473
3 473 454 451
3 470 454 471
3 454 474 471
3 467 453 470
3 453 454 470
3 475 478 476
3 478 477 476
3 479 482 480
3 482 481 480
3 483 262 484
3 265 484 262
3 233 465 265
3 465 484 265
3 483 484 479
3 484 482 479
3 482 484 455
3 484 465 455
3 481 482 456
3 482 455 456
3 116 273 485
3 273 486 485
3 271 262 487
3 262 483 487
3 486 273 487
3 271 487 273
3 489 479 488
3 488 479 480
3 487 483 489
3 479 489 483
3 475 485 478
3 485 486 478
3 478 486 489
3 486 487 489
3 478 489 477
3 477 489 488
3 490 493 491
3 493 492 491
3 480 481 494
3 481 495 494
3 495 481 473
3 473 481 456
3 494 495 493
3 495 492 493
3 451 492 473
3 492 495 473
3 492 451 491
3 491 451 452
3 476 477 496
3 477 497 496
3 488 480 498
3 498 480 494
3 477 488 497
3 497 488 498
3 499 500 490
3 500 493 490
3 498 494 500
3 493 500 494
3 447 496 450
3 496 497 450
3 497 498 450
3 450 498 500
3 449 450 499
3 450 500 499
3 502 501 294
3 294 501 317
3 505 504 506
3 503 506 504
3 510 509 507
3 507 509 508
3 512 511 468
3 468 511 467
3 439 512 352
3 512 468 352
3 507 508 512
3 512 508 511
3 429 507 439
3 507 512 439
3 507 429 510
3 430 510 429
3 514 513 453
3 453 513 452
3 511 514 467
3 467 514 453
3 506 503 514
3 513 514 503
3 508 506 511
3 506 514 511
3 506 508 505
3 505 508 509
3 516 515 307
3 307 515 312
3 509 510 517
3 510 518 517
3 510 430 518
3 445 518 430
3 517 518 516
3 518 515 516
3 518 445 515
3 349 515 445
3 515 349 312
3 312 349 120
3 520 519 505
3 505 519 504
3 505 509 520
3 517 520 509
3 501 502 520
3 520 502 519
3 520 517 501
3 516 501 517
3 501 516 317
3 317 516 307
3 522 521 523
3 521 524 523
3 525 528 526
3 528 527 526
3 529 490 530
3 491 530 490
3 513 530 452
3 530 491 452
3 528 529 527
3 530 527 529
3 503 527 513
3 527 530 513
3 527 503 526
3 526 503 504
3 531 448 532
3 448 449 532
3 533 499 529
3 499 490 529
3 532 449 533
3 449 499 533
3 534 535 525
3 535 528 525
3 535 533 528
3 528 533 529
3 521 531 524
3 531 532 524
3 524 532 535
3 532 533 535
3 523 524 534
3 524 535 534
3 333 537 338
3 537 536 338
3 538 525 539
3 526 539 525
3 519 539 504
3 539 526 504
3 537 538 536
3 539 536 538
3 502 536 519
3 536 539 519
3 294 338 502
3 338 536 502
3 522 523 540
3 523 541 540
3 542 534 538
3 534 525 538
3 541 523 542
3 523 534 542
3 342 543 333
3 543 537 333
3 543 542 537
3 537 542 538
3 347 540 348
3 540 541 348
3 348 541 543
3 541 542 543
3 346 348 342
3 348 543 342
3 344 117 345
3 117 346 345
3 229 120 230
3 120 231 230
3 179 121 180
3 121 181 180
3 124 155 153
3 153 155 154
3 140 125 141
3 125 142 141
3 128 136 133
3 133 136 135
3 131 127 132
3 127 129 132
3 131 132 115
3 115 132 130
3 129 133 132
3 133 135 132
3 130 132 134
3 135 134 132
3 134 135 126
3 136 126 135
3 139 138 137
3 138 123 137
3 129 127 139
3 127 138 139
3 141 139 140
3 137 140 139
3 133 129 141
3 141 129 139
3 141 142 133
3 142 128 133
3 148 143 149
3 143 150 149
3 136 128 146
3 128 145 146
3 126 136 144
3 144 136 146
3 148 149 145
3 146 145 149
3 144 146 147
3 147 146 149
3 147 149 122
3 150 122 149
3 125 151 142
3 151 152 142
3 142 152 128
3 152 145 128
3 153 154 151
3 151 154 152
3 152 154 145
3 154 148 145
3 155 143 154
3 143 148 154
3 156 170 168
3 168 170 169
3 162 158 163
3 158 164 163
3 157 159 160
3 160 159 161
3 137 123 161
3 123 160 161
3 159 162 161
3 162 163 161
3 140 137 163
3 163 137 161
3 125 140 164
3 164 140 163
3 165 167 119
3 166 119 167
3 167 159 166
3 157 166 159
3 168 169 165
3 165 169 167
3 169 162 167
3 162 159 167
3 170 158 169
3 158 162 169
3 171 176 174
3 176 175 174
3 172 173 158
3 164 158 173
3 151 125 173
3 125 164 173
3 174 175 172
3 173 172 175
3 175 153 173
3 153 151 173
3 176 124 175
3 124 153 175
3 156 177 170
3 177 178 170
3 172 158 178
3 178 158 170
3 177 179 178
3 179 180 178
3 178 180 172
3 180 174 172
3 181 171 180
3 171 174 180
3 206 182 207
3 182 208 207
3 195 184 196
3 184 197 196
3 190 185 191
3 191 185 192
3 143 187 150
3 150 187 188
3 150 188 122
3 186 122 188
3 187 190 188
3 188 190 191
3 188 191 186
3 189 186 191
3 191 192 189
3 183 189 192
3 155 124 194
3 124 193 194
3 155 194 143
3 143 194 187
3 193 195 194
3 195 196 194
3 194 196 187
3 196 190 187
3 185 190 197
3 197 190 196
3 118 203 198
3 198 203 202
3 185 200 192
3 192 200 201
3 199 183 201
3 183 192 201
3 200 202 201
3 201 202 203
3 118 199 203
3 199 201 203
3 184 204 197
3 197 204 205
3 197 205 185
3 200 185 205
3 204 206 205
3 205 206 207
3 205 207 200
3 202 200 207
3 198 202 208
3 208 202 207
3 218 209 219
3 209 220 219
3 213 210 214
3 210 215 214
3 171 211 176
3 176 211 212
3 124 176 193
3 193 176 212
3 211 213 212
3 212 213 214
3 212 214 193
3 195 193 214
3 214 215 195
3 215 184 195
3 217 181 216
3 121 216 181
3 211 171 217
3 217 171 181
3 219 217 218
3 216 218 217
3 213 211 219
3 219 211 217
3 210 213 220
3 220 213 219
3 224 221 225
3 221 226 225
3 210 222 215
3 215 222 223
3 215 223 184
3 204 184 223
3 222 224 223
3 223 224 225
3 223 225 204
3 206 204 225
3 182 206 226
3 226 206 225
3 209 227 220
3 227 228 220
3 222 210 228
3 228 210 220
3 227 229 228
3 229 230 228
3 228 230 222
3 230 224 222
3 230 231 224
3 231 221 224
3 232 293 291
3 291 293 292
3 260 259 234
3 258 234 259
3 235 249 247
3 247 249 248
3 237 243 241
3 241 243 242
3 239 236 240
3 236 238 240
3 240 165 239
3 119 239 165
3 241 242 238
3 238 242 240
3 242 168 240
3 168 165 240
3 243 156 242
3 156 168 242
3 245 233 246
3 233 244 246
3 236 245 238
3 245 246 238
3 247 248 244
3 244 248 246
3 248 241 246
3 241 238 246
3 249 237 248
3 237 241 248
3 255 254 250
3 250 254 253
3 243 237 252
3 237 251 252
3 177 156 252
3 156 243 252
3 254 252 253
3 252 251 253
3 179 177 254
3 177 252 254
3 121 179 255
3 255 179 254
3 249 235 257
3 235 256 257
3 237 249 251
3 257 251 249
3 257 256 259
3 256 258 259
3 253 251 259
3 259 251 257
3 250 253 260
3 260 253 259
3 277 261 278
3 261 279 278
3 267 263 268
3 263 269 268
3 264 266 262
3 265 262 266
3 233 265 244
3 265 266 244
3 264 267 266
3 267 268 266
3 268 247 266
3 247 244 266
3 269 235 268
3 235 247 268
3 270 274 116
3 273 116 274
3 271 272 262
3 262 272 264
3 274 272 273
3 271 273 272
3 276 275 267
3 275 263 267
3 272 276 264
3 267 264 276
3 277 278 270
3 270 278 274
3 278 276 274
3 276 272 274
3 278 279 276
3 279 275 276
3 280 285 283
3 285 284 283
3 263 281 269
3 269 281 282
3 282 256 269
3 256 235 269
3 281 283 282
3 282 283 284
3 258 256 284
3 256 282 284
3 234 258 285
3 285 258 284
3 286 288 261
3 261 288 279
3 275 287 263
3 287 281 263
3 279 288 275
3 288 287 275
3 289 280 290
3 280 283 290
3 287 290 281
3 283 281 290
3 291 292 286
3 286 292 288
3 288 292 287
3 292 290 287
3 293 289 292
3 289 290 292
3 317 316 294
3 294 316 315
3 306 305 295
3 304 295 305
3 299 296 300
3 300 296 301
3 298 255 297
3 255 250 297
3 216 121 298
3 121 255 298
3 300 298 299
3 298 297 299
3 218 216 300
3 216 298 300
3 300 301 218
3 209 218 301
3 303 260 302
3 260 234 302
3 297 250 303
3 250 260 303
3 305 303 304
3 302 304 303
3 299 297 305
3 305 297 303
3 296 299 306
3 306 299 305
3 310 307 311
3 307 312 311
3 296 308 301
3 301 308 309
3 301 309 209
3 227 209 309
3 308 310 309
3 309 310 311
3 309 311 227
3 229 227 311
3 311 312 229
3 312 120 229
3 295 313 306
3 306 313 314
3 306 314 296
3 308 296 314
3 313 315 314
3 314 315 316
3 314 316 308
3 310 308 316
3 316 317 310
3 317 307 310
3 318 332 330
3 330 332 331
3 319 324 322
3 324 323 322
3 320 321 280
3 285 280 321
3 302 234 321
3 234 285 321
3 322 323 320
3 321 320 323
3 304 302 323
3 302 321 323
3 295 304 324
3 324 304 323
3 325 327 232
3 232 327 293
3 326 320 289
3 320 280 289
3 327 326 293
3 326 289 293
3 328 319 329
3 319 322 329
3 329 322 326
3 322 320 326
3 330 331 325
3 325 331 327
3 331 329 327
3 329 326 327
3 332 328 331
3 328 329 331
3 333 338 336
3 338 337 336
3 334 335 319
3 324 319 335
3 313 295 335
3 295 324 335
3 336 337 334
3 335 334 337
3 315 313 337
3 313 335 337
3 294 315 338
3 338 315 337
3 339 341 318
3 318 341 332
3 340 334 328
3 334 319 328
3 341 340 332
3 340 328 332
3 342 333 343
3 333 336 343
3 343 336 340
3 336 334 340
3 344 345 339
3 339 345 341
3 345 343 341
3 343 340 341
3 346 342 345
3 342 343 345
3 318 330 339
3 339 330 344
3 330 325 344
3 325 232 344
3 232 291 344
3 344 291 117
3 291 286 117
3 286 261 117
3 261 277 117
3 277 270 117
3 270 116 117
3 116 485 117
3 117 485 347
3 485 475 347
3 475 476 347
3 476 496 347
3 496 447 347
3 447 448 347
3 448 531 347
3 347 531 540
3 531 521 540
3 521 522 540
3 0 21 20
3 1 22 21
3 2 23 22
3 3 24 23
3 4 25 24
3 5 26 25
3 6 27 26
3 7 28 27
3 8 29 28
3 9 30 29
3 10 31 30
3 11 32 31
3 12 33 32
3 13 34 33
3 14 35 34
3 15 36 35
3 16 37 36
3 17 38 37
3 18 39 38
3 19 20 39
