ply
format ascii 1.0
element vertex 127
property float x
property float y
property float z
element face 226
property list uchar int vertex_indices
end_header
0.10328499972820282 0.2089260071516037 0.6874690055847168
0.21300099790096283 0.1767680048942566 0.6892160177230835
0.32271599769592285 0.2089260071516037 0.6874690055847168
0.09339039772748947 0.3375590145587921 0.676410973072052
0.33261099457740784 0.3375590145587921 0.676410973072052
0.13791699707508087 0.40856799483299255 0.6519650220870972
0.21300099790096283 0.43956199288368225 0.6519650220870972
0.288085013628006 0.40856799483299255 0.6519650220870972
0.0699630007147789 0.38310399651527405 0.5096539855003357
0.21300099790096283 0.44130799174308777 0.5096539855003357
0.35603800415992737 0.38310399651527405 0.5096539855003357
0.07214570045471191 0.40143799781799316 0.43806299567222595
0.21300099790096283 0.45062100887298584 0.43806299567222595
0.35385599732398987 0.40143799781799316 0.43806299567222595
0.059340700507164 0.38310399651527405 0.33795100450515747
0.21300099790096283 0.44130799174308777 0.33795100450515747
0.366661012172699 0.38310399651527405 0.33795100450515747
0.09120769798755646 0.3650600016117096 0.17687000334262848
0.21300099790096283 0.3960539996623993 0.15402500331401825
0.3347940146923065 0.3650600016117096 0.17687000334262848
0.07098159939050674 0.3052549958229065 0.14223800599575043
0.21300099790096283 0.29274100065231323 0.09116359800100327
0.3550199866294861 0.3052549958229065 0.14223800599575043
0.0725822001695633 0.22871600091457367 0.12477699667215347
0.21300099790096283 0.22595100104808807 0.09727510064840317
0.3534190058708191 0.22871600091457367 0.12477699667215347
0.0444984994828701 0.15319600701332092 0.33795100450515747
0.21300099790096283 0.1059039980173111 0.33795100450515747
0.38150298595428467 0.15319600701332092 0.33795100450515747
0.07214570045471191 0.16221700608730316 0.4417009949684143
0.21300099790096283 0.09440899640321732 0.4417009949684143
0.35385599732398987 0.16221700608730316 0.4417009949684143
0.02500000037252903 0.15319600701332092 0.5096539855003357
0.21300099790096283 0.11987300217151642 0.5096539855003357
0.4010019898414612 0.15319600701332092 0.5096539855003357
0.4010019898414612 0.2681500017642975 0.33795100450515747
0.38412201404571533 0.27280598878860474 0.44039100408554077
0.4010019898414612 0.2681500017642975 0.5096539855003357
0.02500000037252903 0.2681500017642975 0.33795100450515747
0.04187930002808571 0.27280598878860474 0.44039100408554077
0.02500000037252903 0.2681500017642975 0.5096539855003357
0.10037499666213989 0.05599389970302582 0.14791299402713776
0.15421399474143982 0.05599389970302582 0.14791299402713776
0.15421399474143982 0.07083609700202942 0.20116999745368958
0.10037499666213989 0.07083609700202942 0.20116999745368958
0.27178698778152466 0.05599389970302582 0.14791299402713776
0.32562699913978577 0.05599389970302582 0.14791299402713776
0.32562699913978577 0.07083609700202942 0.20116999745368958
0.27178698778152466 0.07083609700202942 0.20116999745368958
0.10037499666213989 0.06137790158390999 0.5553449988365173
0.15421399474143982 0.06137790158390999 0.5553449988365173
0.15421399474143982 0.07621999830007553 0.6115120053291321
0.10037499666213989 0.07621999830007553 0.6115120053291321
0.27178698778152466 0.06137790158390999 0.5553449988365173
0.32562699913978577 0.06137790158390999 0.5553449988365173
0.32562699913978577 0.07621999830007553 0.6115120053291321
0.27178698778152466 0.07621999830007553 0.6115120053291321
0.09484550356864929 0.02500000037252903 0.14573000371456146
0.1595979928970337 0.02500000037252903 0.14573000371456146
0.1595979928970337 0.02500000037252903 0.21543000638484955
0.09484550356864929 0.02500000037252903 0.21543000638484955
0.2664029896259308 0.02500000037252903 0.14573000371456146
0.3311559855937958 0.02500000037252903 0.14573000371456146
0.3311559855937958 0.02500000037252903 0.21543000638484955
0.2664029896259308 0.02500000037252903 0.21543000638484955
0.09484550356864929 0.025290999561548233 0.5581099987030029
0.1595979928970337 0.025290999561548233 0.5581099987030029
0.1595979928970337 0.025290999561548233 0.6301379799842834
0.09484550356864929 0.025290999561548233 0.6301379799842834
0.2664029896259308 0.025290999561548233 0.5581099987030029
0.3311559855937958 0.025290999561548233 0.5581099987030029
0.3311559855937958 0.025290999561548233 0.6301379799842834
0.2664029896259308 0.025290999561548233 0.6301379799842834
0.09630060195922852 0.24137499928474426 0.7388349771499634
0.21300099790096283 0.16148999333381653 0.736361026763916
0.12292899936437607 0.36375099420547485 0.7021660208702087
0.3297010064125061 0.24137499928474426 0.7388349771499634
0.3030720055103302 0.36375099420547485 0.7021660208702087
0.21300099790096283 0.419189989566803 0.7021660208702087
0.16891099512577057 0.40245699882507324 0.7021660208702087
0.2570909857749939 0.40245699882507324 0.7021660208702087
0.10939700156450272 0.2138739973306656 0.8353090286254883
0.21300099790096283 0.15450499951839447 0.811735987663269
0.0983377993106842 0.2592729926109314 0.8454949855804443
0.31660500168800354 0.2138739973306656 0.8353090286254883
0.32766398787498474 0.2592729926109314 0.8454949855804443
0.21300099790096283 0.3956179916858673 0.82294100522995
0.16992899775505066 0.38746899366378784 0.82294100522995
0.2560720145702362 0.38746899366378784 0.82294100522995
0.16498200595378876 0.2100909948348999 0.9422600269317627
0.21300099790096283 0.19524799287319183 0.9422600269317627
0.1524679958820343 0.23759199678897858 0.9422600269317627
0.2610200047492981 0.2100909948348999 0.9422600269317627
0.27353399991989136 0.23759199678897858 0.9422600269317627
0.21300099790096283 0.2886669933795929 0.9422600269317627
0.16541899740695953 0.2838650047779083 0.9422600269317627
0.2605830132961273 0.2838650047779083 0.9422600269317627
0.17545899748802185 0.23031699657440186 0.9655420184135437
0.21300099790096283 0.21925799548625946 0.9662690162658691
0.21300099790096283 0.2627660036087036 0.9750000238418579
0.16760100424289703 0.2554900050163269 0.968451976776123
0.2505429983139038 0.23031699657440186 0.9655420184135437
0.25839999318122864 0.2554900050163269 0.968451976776123
0.21300099790096283 0.2904129922389984 0.9696159958839417
0.1806969940662384 0.2860470116138458 0.9624860286712646
0.24530400335788727 0.2860470116138458 0.9624860286712646
0.27280598878860474 0.3081650137901306 0.8959869742393494
0.21300099790096283 0.3136950135231018 0.896569013595581
0.15275900065898895 0.30991101264953613 0.8939499855041504
0.25853198766708374 0.31992799043655396 0.7691739797592163
0.3107520043849945 0.34652599692344666 0.7258110046386719
0.3324959874153137 0.28878799080848694 0.7410899996757507
0.26914700865745544 0.3525809943675995 0.7691739797592163
0.28404301404953003 0.38026100397109985 0.7416719794273376
0.3153750002384186 0.35294100642204285 0.802640974521637
0.21300099790096283 0.2552720010280609 0.03634990006685257
0.21300099790096283 0.2928139865398407 0.09120769798755646
0.21300099790096283 0.39612698554992676 0.15406900644302368
0.21300099790096283 0.27215099334716797 0.02500000037252903
0.21300099790096283 0.2971790134906769 0.07069060206413269
0.21300099790096283 0.34752601385116577 0.11347100138664246
0.16748200356960297 0.31992799043655396 0.7691739797592163
0.11524499952793121 0.34652599692344666 0.7258110046386719
0.09349440038204193 0.28878799080848694 0.7410899996757507
0.1568630039691925 0.3525809943675995 0.7691739797592163
0.14196300506591797 0.38026100397109985 0.7416719794273376
0.11062099784612656 0.35294100642204285 0.802640974521637
3 97 98 99
3 98 101 102
3 100 99 103
3 99 102 105
3 5 6 9
3 6 7 10
3 8 9 12
3 9 10 13
3 11 12 15
3 12 13 16
3 14 15 18
3 15 16 19
3 17 18 21
3 18 19 22
3 20 21 24
3 21 22 25
3 57 58 59
3 61 62 63
3 26 27 30
3 27 28 31
3 29 30 33
3 30 31 34
3 65 66 67
3 69 70 71
3 28 25 22
3 31 28 35
3 34 31 36
3 2 34 37
3 35 22 19
3 36 35 16
3 37 36 13
3 4 37 10
3 23 26 38
3 26 29 39
3 29 32 40
3 32 0 3
3 20 38 14
3 38 39 11
3 39 40 8
3 40 3 5
3 23 24 42
3 24 27 43
3 27 26 44
3 26 23 41
3 24 25 46
3 25 28 47
3 28 27 48
3 27 24 45
3 32 33 50
3 33 1 51
3 1 0 52
3 0 32 49
3 33 34 54
3 34 2 55
3 2 1 56
3 1 33 53
3 41 42 58
3 42 43 59
3 43 44 60
3 44 41 57
3 45 46 62
3 46 47 63
3 47 48 64
3 48 45 61
3 49 50 66
3 50 51 67
3 51 52 68
3 52 49 65
3 53 54 70
3 54 55 71
3 55 56 72
3 56 53 69
3 0 1 74
3 3 0 73
3 1 2 76
3 2 4 77
3 6 5 79
3 5 3 75
3 4 7 80
3 7 6 78
3 73 74 82
3 75 73 81
3 74 76 84
3 76 77 85
3 78 79 87
3 79 75 83
3 77 80 88
3 80 78 86
3 81 82 90
3 83 81 89
3 82 84 92
3 84 85 93
3 107 108 95
3 108 83 91
3 85 88 106
3 106 107 94
3 89 90 98
3 91 89 97
3 90 92 101
3 92 93 102
3 94 95 104
3 95 91 100
3 93 96 105
3 96 94 103
3 85 106 96
3 88 86 107
3 86 87 108
3 87 83 108
3 109 110 112
3 110 113 112
3 111 114 110
3 110 114 113
3 115 116 119
3 116 117 120
3 121 122 124
3 122 125 124
3 123 126 122
3 122 126 125
3 97 99 100
3 98 102 99
3 100 103 104
3 99 105 103
3 5 9 8
3 6 10 9
3 8 12 11
3 9 13 12
3 11 15 14
3 12 16 15
3 14 18 17
3 15 19 18
3 17 21 20
3 18 22 21
3 20 24 23
3 21 25 24
3 57 59 60
3 61 63 64
3 26 30 29
3 27 31 30
3 29 33 32
3 30 34 33
3 65 67 68
3 69 71 72
3 28 22 35
3 31 35 36
3 34 36 37
3 2 37 4
3 35 19 16
3 36 16 13
3 37 13 10
3 4 10 7
3 23 38 20
3 26 39 38
3 29 40 39
3 32 3 40
3 20 14 17
3 38 11 14
3 39 8 11
3 40 5 8
3 23 42 41
3 24 43 42
3 27 44 43
3 26 41 44
3 24 46 45
3 25 47 46
3 28 48 47
3 27 45 48
3 32 50 49
3 33 51 50
3 1 52 51
3 0 49 52
3 33 54 53
3 34 55 54
3 2 56 55
3 1 53 56
3 41 58 57
3 42 59 58
3 43 60 59
3 44 57 60
3 45 62 61
3 46 63 62
3 47 64 63
3 48 61 64
3 49 66 65
3 50 67 66
3 51 68 67
3 52 65 68
3 53 70 69
3 54 71 70
3 55 72 71
3 56 69 72
3 0 74 73
3 3 73 75
3 1 76 74
3 2 77 76
3 6 79 78
3 5 75 79
3 4 80 77
3 7 78 80
3 73 82 81
3 75 81 83
3 74 84 82
3 76 85 84
3 78 87 86
3 79 83 87
3 77 88 85
3 80 86 88
3 81 90 89
3 83 89 91
3 82 92 90
3 84 93 92
3 107 95 94
3 108 91 95
3 106 94 96
3 89 98 97
3 91 97 100
3 90 101 98
3 92 102 101
3 94 104 103
3 95 100 104
3 93 105 102
3 96 103 105
3 85 96 93
3 88 107 106
3 86 108 107
3 115 119 118
3 116 120 119
