ply
format ascii 1.0
element vertex 308
property float x
property float y
property float z
element face 519
property list uchar int vertex_indices
end_header
0.7144719958305359 0.05181030184030533 0.5113490223884583
0.7072539925575256 0.04459249973297119 0.5113490223884583
0.7041609883308411 0.05490360036492348 0.5113480091094971
0.7113779783248901 0.062121398746967316 0.5113480091094971
0.7010669708251953 0.06521470099687576 0.5113469958305359
0.6938499808311462 0.056965798139572144 0.5113480091094971
0.6969429850578308 0.04768579825758934 0.5113490223884583
0.7041609883308411 0.05490740016102791 0.5536239743232727
0.7072539925575256 0.04457329958677292 0.29584598541259766
0.7144719958305359 0.051791101694107056 0.29584598541259766
0.7113779783248901 0.06210219860076904 0.29584500193595886
0.7010669708251953 0.06519559770822525 0.2958439886569977
0.6938499808311462 0.05694669857621193 0.29584500193595886
0.6969429850578308 0.047666601836681366 0.29584598541259766
0.7041609883308411 0.054884400218725204 0.29584500193595886
0.7185959815979004 0.04044689983129501 0.2741929888725281
0.7185959815979004 0.040450699627399445 0.3174999952316284
0.7041609883308411 0.054888200014829636 0.3381209969520569
0.7185959815979004 0.06932199746370316 0.31749698519706726
0.7185959815979004 0.06931810081005096 0.2741909921169281
0.6897249817848206 0.06932199746370316 0.31749698519706726
0.6897249817848206 0.06931810081005096 0.2741909921169281
0.6897249817848206 0.04044689983129501 0.2741929888725281
0.6897249817848206 0.040450699627399445 0.3174999952316284
0.19204099476337433 0.05387140065431595 0.582489013671875
0.2057889997959137 0.04630989953875542 0.582489013671875
0.2057889997959137 0.06212029978632927 0.5962370038032532
0.19204099476337433 0.07036919891834259 0.582489013671875
0.2057889997959137 0.07793069630861282 0.582489013671875
0.21953700482845306 0.07036919891834259 0.582489013671875
0.21953700482845306 0.05387140065431595 0.582489013671875
0.2057889997959137 0.03943580016493797 0.5508679747581482
0.1858540028333664 0.05043439939618111 0.5508679747581482
0.1858540028333664 0.0731189027428627 0.5508679747581482
0.2057889997959137 0.08480489999055862 0.5508679747581482
0.225723996758461 0.0731189027428627 0.5508679747581482
0.225723996758461 0.05043439939618111 0.5508679747581482
0.1858540028333664 0.050434499979019165 0.4374459981918335
0.2057889997959137 0.03943590074777603 0.4374459981918335
0.1858540028333664 0.07311899960041046 0.4374459981918335
0.2057889997959137 0.08480499684810638 0.4374459981918335
0.225723996758461 0.07311899960041046 0.4374459981918335
0.225723996758461 0.050434499979019165 0.4374459981918335
0.2057889997959137 0.062120500952005386 0.3920769989490509
0.2057889997959137 0.046310100704431534 0.40513700246810913
0.19204099476337433 0.053871601819992065 0.40513700246810913
0.19204099476337433 0.07036940008401871 0.40513700246810913
0.2057889997959137 0.07793089747428894 0.40513700246810913
0.21953700482845306 0.07036940008401871 0.40513700246810913
0.21953700482845306 0.053871601819992065 0.40513700246810913
0.04149780049920082 0.09167910367250443 0.45256900787353516
0.0366859994828701 0.08686719834804535 0.45256900787353516
0.03462370112538338 0.09374129772186279 0.45256900787353516
0.039435598999261856 0.09855309873819351 0.45256900787353516
0.03256149962544441 0.1006150022149086 0.45256900787353516
0.027749599888920784 0.09511610120534897 0.45256900787353516
0.029811900109052658 0.08892939984798431 0.45256900787353516
0.03462370112538338 0.09374120086431503 0.48075300455093384
0.0366859994828701 0.0868673026561737 0.30889999866485596
0.04149780049920082 0.09167920053005219 0.30889999866485596
0.039435598999261856 0.09855329990386963 0.30889999866485596
0.03256149962544441 0.10061600059270859 0.30889999866485596
0.027749599888920784 0.09511619806289673 0.30889999866485596
0.029811900109052658 0.08892960101366043 0.30889999866485596
0.03462370112538338 0.09374140202999115 0.30889999866485596
0.044247500598430634 0.08411770313978195 0.32333600521087646
0.044247500598430634 0.08411770313978195 0.29446500539779663
0.03462370112538338 0.09374140202999115 0.33708399534225464
0.044247500598430634 0.10336499661207199 0.29446500539779663
0.044247500598430634 0.10336499661207199 0.32333600521087646
0.02500000037252903 0.10336499661207199 0.29446500539779663
0.02500000037252903 0.10336499661207199 0.32333600521087646
0.02500000037252903 0.08411770313978195 0.32333600521087646
0.02500000037252903 0.08411770313978195 0.29446500539779663
0.380391001701355 0.08961649984121323 0.7687770128250122
0.38245299458503723 0.09030389785766602 0.7687770128250122
0.3817659914493561 0.09030389785766602 0.7832130193710327
0.380391001701355 0.09030389785766602 0.7893990278244019
0.3790160119533539 0.09030389785766602 0.7832130193710327
0.37832900881767273 0.09030389785766602 0.7687770128250122
0.3831399977207184 0.09167870134115219 0.7825250029563904
0.3817659914493561 0.09167870134115219 0.8017730116844177
0.3790160119533539 0.09167870134115219 0.8017730116844177
0.37695398926734924 0.09167870134115219 0.7825250029563904
0.3845149874687195 0.09374099969863892 0.7687770128250122
0.3831399977207184 0.09374090284109116 0.797648012638092
0.380391001701355 0.09374090284109116 0.8100219964981079
0.37695398926734924 0.09374090284109116 0.797648012638092
0.3762660026550293 0.09374099969863892 0.7687770128250122
0.3831399977207184 0.09580320119857788 0.7825250029563904
0.3817659914493561 0.09580309689044952 0.8017730116844177
0.3790160119533539 0.09580309689044952 0.8017730116844177
0.37695398926734924 0.09580320119857788 0.7825250029563904
0.3817659914493561 0.09786540269851685 0.7832130193710327
0.380391001701355 0.09786540269851685 0.7893990278244019
0.3790160119533539 0.09786540269851685 0.7832130193710327
0.37832900881767273 0.09786540269851685 0.7687770128250122
0.38245299458503723 0.09786540269851685 0.7687770128250122
0.380391001701355 0.09786540269851685 0.7687770128250122
0.10267700254917145 0.09099169820547104 0.3975760042667389
0.10474000126123428 0.08549240231513977 0.3975760042667389
0.10267700254917145 0.08549240231513977 0.3975760042667389
0.1006150022149086 0.08549240231513977 0.3975760042667389
0.10267700254917145 0.0806804969906807 0.3975760042667389
0.10474000126123428 0.08549240231513977 0.45256900787353516
0.10267700254917145 0.09099160134792328 0.45256900787353516
0.1006150022149086 0.08549240231513977 0.45256900787353516
0.10267700254917145 0.0806804969906807 0.45256900787353516
0.10267700254917145 0.08549240231513977 0.45256900787353516
0.04081039875745773 0.09030439704656601 0.32883501052856445
0.2580319941043854 0.08274280279874802 0.417510986328125
0.04081039875745773 0.09030420333147049 0.45256900787353516
0.20235200226306915 0.08480480313301086 0.582489013671875
0.25871899724006653 0.08274249732494354 0.6388570070266724
0.25871899724006653 0.09511599689722061 0.5831769704818726
0.04149780049920082 0.0971783995628357 0.4250720143318176
0.25871899724006653 0.09511599689722061 0.5295590162277222
0.04149780049920082 0.0971783995628357 0.39895099401474
0.6457309722900391 0.09030420333147049 0.45256900787353516
0.428508996963501 0.08274280279874802 0.417510986328125
0.6457309722900391 0.09030439704656601 0.32883501052856445
0.4841899871826172 0.08480480313301086 0.582489013671875
0.4278219938278198 0.08274249732494354 0.6388570070266724
0.6450430154800415 0.0971783995628357 0.4250720143318176
0.4278219938278198 0.09511599689722061 0.5831769704818726
0.6450430154800415 0.0971783995628357 0.39895099401474
0.4278219938278198 0.09511599689722061 0.5295590162277222
0.3432709872722626 0.032561998814344406 0.31439900398254395
0.3432709872722626 0.08686760067939758 0.02500000037252903
0.3845149874687195 0.07311909645795822 0.31439900398254395
0.30202600359916687 0.07311909645795822 0.31439900398254395
0.30202600359916687 0.10611499845981598 0.31439900398254395
0.3432709872722626 0.14117300510406494 0.31439900398254395
0.3845149874687195 0.10611499845981598 0.31439900398254395
0.3845149874687195 0.06968200206756592 0.3563309907913208
0.3432709872722626 0.025000400841236115 0.3563309907913208
0.30202600359916687 0.06968200206756592 0.3563309907913208
0.30202600359916687 0.11092700064182281 0.3563309907913208
0.3432709872722626 0.14873400330543518 0.3563309907913208
0.3845149874687195 0.11092700064182281 0.3563309907913208
0.3845149874687195 0.06968159973621368 0.7687770128250122
0.3432709872722626 0.02500000037252903 0.7687770128250122
0.30202600359916687 0.06968159973621368 0.7687770128250122
0.30202600359916687 0.11092600226402283 0.7687770128250122
0.3432709872722626 0.14873400330543518 0.7687770128250122
0.3845149874687195 0.11092600226402283 0.7687770128250122
0.3432709872722626 0.1006150022149086 0.9750000238418579
0.3838280141353607 0.08961699903011322 0.31439900398254395
0.4236980080604553 0.11092700064182281 0.34739500284194946
0.4298839867115021 0.08961690217256546 0.34739500284194946
0.3838280141353607 0.11092700064182281 0.34739500284194946
0.3838280141353607 0.06968200206756592 0.34739500284194946
0.4236980080604553 0.06968200206756592 0.34739500284194946
0.4298839867115021 0.08961659669876099 0.6801009774208069
0.4236980080604553 0.11092600226402283 0.6801009774208069
0.3838280141353607 0.11092600226402283 0.6801009774208069
0.3838280141353607 0.06968169659376144 0.6801009774208069
0.4236980080604553 0.06968169659376144 0.6801009774208069
0.417510986328125 0.08961649984121323 0.7344070076942444
0.41132399439811707 0.10405199974775314 0.7344070076942444
0.3838280141353607 0.10405199974775314 0.7344070076942444
0.3838280141353607 0.07586830109357834 0.7344070076942444
0.41132399439811707 0.07586830109357834 0.7344070076942444
0.30202600359916687 0.08892949670553207 0.31439900398254395
0.26215600967407227 0.06968200206756592 0.34739500284194946
0.2566570043563843 0.08892949670553207 0.34739500284194946
0.30202600359916687 0.06968200206756592 0.34739500284194946
0.30202600359916687 0.11023899912834167 0.34739500284194946
0.26215600967407227 0.11023899912834167 0.34739500284194946
0.2559700012207031 0.0889291986823082 0.6801009774208069
0.26215600967407227 0.06968169659376144 0.6801009774208069
0.30202600359916687 0.06968169659376144 0.6801009774208069
0.30202600359916687 0.11092600226402283 0.6801009774208069
0.26215600967407227 0.11092600226402283 0.6801009774208069
0.2697179913520813 0.08892910182476044 0.7344070076942444
0.27452999353408813 0.07655580341815948 0.7344070076942444
0.30202600359916687 0.07655580341815948 0.7344070076942444
0.30202600359916687 0.10474000126123428 0.7344070076942444
0.27452999353408813 0.10474000126123428 0.7344070076942444
0.3432709872722626 0.14804700016975403 0.49381300806999207
0.3432709872722626 0.1617950052022934 0.3150869905948639
0.3432709872722626 0.18997900187969208 0.23259800672531128
0.3432709872722626 0.21747499704360962 0.2188500016927719
0.3405210077762604 0.21678799390792847 0.1899780035018921
0.3405210077762604 0.17073099315166473 0.20785099267959595
0.3405210077762604 0.1418599933385849 0.2525329887866974
0.3432709872722626 0.13223600387573242 0.2697179913520813
0.3432709872722626 0.10680200159549713 0.13636000454425812
0.3432709872722626 0.1617950052022934 0.12261199951171875
0.3432709872722626 0.21747499704360962 0.10886400192975998
0.34602001309394836 0.21678799390792847 0.1899780035018921
0.34602001309394836 0.17073099315166473 0.20785099267959595
0.34602001309394836 0.1418599933385849 0.2525329887866974
0.34602001309394836 0.13223600387573242 0.26903000473976135
0.3432709872722626 0.21541300415992737 0.1858540028333664
0.23328499495983124 0.21747499704360962 0.16385699808597565
0.4532560110092163 0.21747499704360962 0.16385699808597565
0.45256900787353516 0.21541300415992737 0.15079599618911743
0.3432709872722626 0.21747499704360962 0.12261199951171875
0.4532560110092163 0.21747499704360962 0.10886400192975998
0.23259800672531128 0.21541300415992737 0.15148299932479858
0.23328499495983124 0.21747499704360962 0.10886400192975998
0.3432709872722626 0.2188500016927719 0.1858540028333664
0.45256900787353516 0.2188500016927719 0.15079599618911743
0.23259800672531128 0.2188500016927719 0.15148299932479858
0.5838639736175537 0.09099169820547104 0.3975760042667389
0.5859259963035583 0.08549240231513977 0.3975760042667389
0.5838639736175537 0.08549240231513977 0.3975760042667389
0.5818020105361938 0.08549240231513977 0.3975760042667389
0.5838639736175537 0.0806804969906807 0.3975760042667389
0.5859259963035583 0.08549240231513977 0.45256900787353516
0.5838639736175537 0.09099160134792328 0.45256900787353516
0.5818020105361938 0.08549240231513977 0.45256900787353516
0.5838639736175537 0.0806804969906807 0.45256900787353516
0.5838639736175537 0.08549240231513977 0.45256900787353516
0.3817659914493561 0.09374099969863892 0.7687770128250122
0.3817659914493561 0.09511580318212509 0.7687770128250122
0.3817659914493561 0.09442830085754395 0.8237699866294861
0.380391001701355 0.09580309689044952 0.8237699866294861
0.37970298528671265 0.09580320119857788 0.7687770128250122
0.3790160119533539 0.09511569887399673 0.8237699866294861
0.37832900881767273 0.0944283977150917 0.7687770128250122
0.37832900881767273 0.09374090284109116 0.8237699866294861
0.3790160119533539 0.09236609935760498 0.7687770128250122
0.37970298528671265 0.09236609935760498 0.8237699866294861
0.380391001701355 0.09236609935760498 0.7687770128250122
0.3817659914493561 0.09236609935760498 0.8237699866294861
0.6587920188903809 0.09167910367250443 0.45256900787353516
0.653980016708374 0.08686719834804535 0.45256900787353516
0.6519179940223694 0.09374129772186279 0.45256900787353516
0.656728982925415 0.09855309873819351 0.45256900787353516
0.6498550176620483 0.1006150022149086 0.45256900787353516
0.6450430154800415 0.09511610120534897 0.45256900787353516
0.6471059918403625 0.08892939984798431 0.45256900787353516
0.6519179940223694 0.09374120086431503 0.48075300455093384
0.653980016708374 0.0868673026561737 0.30889999866485596
0.6587920188903809 0.09167920053005219 0.30889999866485596
0.656728982925415 0.09855329990386963 0.30889999866485596
0.6498550176620483 0.10061600059270859 0.30889999866485596
0.6450430154800415 0.09511619806289673 0.30889999866485596
0.6471059918403625 0.08892960101366043 0.30889999866485596
0.6519179940223694 0.09374140202999115 0.30889999866485596
0.6615409851074219 0.08411770313978195 0.29446500539779663
0.6615409851074219 0.08411770313978195 0.32333600521087646
0.6519179940223694 0.09374140202999115 0.33708399534225464
0.6615409851074219 0.10336499661207199 0.32333600521087646
0.6615409851074219 0.10336499661207199 0.29446500539779663
0.6422939896583557 0.10336499661207199 0.32333600521087646
0.6422939896583557 0.10336499661207199 0.29446500539779663
0.6422939896583557 0.08411770313978195 0.29446500539779663
0.6422939896583557 0.08411770313978195 0.32333600521087646
0.4670040011405945 0.05387140065431595 0.582489013671875
0.48075300455093384 0.04630989953875542 0.582489013671875
0.48075300455093384 0.06212029978632927 0.5962370038032532
0.4670040011405945 0.07036919891834259 0.582489013671875
0.48075300455093384 0.07793069630861282 0.582489013671875
0.494500994682312 0.07036919891834259 0.582489013671875
0.494500994682312 0.05387140065431595 0.582489013671875
0.48075300455093384 0.03943580016493797 0.5508679747581482
0.46081799268722534 0.05043439939618111 0.5508679747581482
0.46081799268722534 0.0731189027428627 0.5508679747581482
0.48075300455093384 0.08480489999055862 0.5508679747581482
0.5006870031356812 0.0731189027428627 0.5508679747581482
0.5006870031356812 0.05043439939618111 0.5508679747581482
0.46081799268722534 0.050434499979019165 0.4374459981918335
0.48075300455093384 0.03943590074777603 0.4374459981918335
0.46081799268722534 0.07311899960041046 0.4374459981918335
0.48075300455093384 0.08480499684810638 0.4374459981918335
0.5006870031356812 0.07311899960041046 0.4374459981918335
0.5006870031356812 0.050434499979019165 0.4374459981918335
0.48075300455093384 0.062120500952005386 0.3920769989490509
0.48075300455093384 0.046310100704431534 0.40513700246810913
0.4670040011405945 0.053871601819992065 0.40513700246810913
0.4670040011405945 0.07036940008401871 0.40513700246810913
0.48075300455093384 0.07793089747428894 0.40513700246810913
0.494500994682312 0.07036940008401871 0.40513700246810913
0.494500994682312 0.053871601819992065 0.40513700246810913
0.10955099761486053 0.07518120110034943 0.507561981678009
0.10474000126123428 0.07036930322647095 0.507561981678009
0.10267700254917145 0.07724340260028839 0.507561981678009
0.10748899728059769 0.08205530047416687 0.507561981678009
0.1006150022149086 0.08411750197410583 0.507561981678009
0.09580320119857788 0.07861819863319397 0.507561981678009
0.09786540269851685 0.07243149727582932 0.507561981678009
0.10267700254917145 0.07724340260028839 0.5357450246810913
0.10474000126123428 0.07036940008401871 0.3638930022716522
0.10955099761486053 0.07518129795789719 0.3638930022716522
0.10748899728059769 0.08205539733171463 0.3638930022716522
0.1006150022149086 0.0841175988316536 0.3638930022716522
0.09580320119857788 0.07861839979887009 0.3638930022716522
0.09786540269851685 0.07243169844150543 0.3638930022716522
0.10267700254917145 0.07724349945783615 0.3638930022716522
0.11230099946260452 0.06761980056762695 0.37832799553871155
0.11230099946260452 0.06761980056762695 0.3494569957256317
0.10267700254917145 0.07724349945783615 0.3920769989490509
0.11230099946260452 0.0868673026561737 0.3494569957256317
0.11230099946260452 0.0868673026561737 0.37832900881767273
0.09305349737405777 0.0868673026561737 0.3494569957256317
0.09305349737405777 0.0868673026561737 0.37832900881767273
0.09305349737405777 0.06761980056762695 0.37832799553871155
0.09305349737405777 0.06761980056762695 0.3494569957256317
0.3432709872722626 0.14873400330543518 0.6429809927940369
0.3632049858570099 0.13086099922657013 0.768090009689331
0.3432709872722626 0.15698300302028656 0.7907739877700806
0.32333600521087646 0.13086099922657013 0.768090009689331
0.32883501052856445 0.11642500013113022 0.8498910069465637
0.3432709872722626 0.12948599457740784 0.850579023361206
0.35839399695396423 0.11642500013113022 0.850579023361206
3 2 1 0
3 2 0 3
3 2 3 4
3 2 4 5
3 2 5 6
3 2 6 1
3 7 0 1
3 7 3 0
3 7 4 3
3 7 5 4
3 7 6 5
3 7 1 6
3 0 1 2
3 3 0 2
3 4 3 2
3 5 4 2
3 6 5 2
3 1 6 2
3 9 8 1
3 0 9 1
3 10 9 0
3 3 10 0
3 11 10 3
3 4 11 3
3 12 11 4
3 5 12 4
3 13 12 5
3 6 13 5
3 8 13 6
3 1 8 6
3 14 8 9
3 14 9 10
3 14 10 11
3 14 11 12
3 14 12 13
3 14 13 8
3 16 15 14
3 14 17 16
3 14 19 18
3 18 17 14
3 14 21 20
3 20 17 14
3 23 22 14
3 14 17 23
3 26 25 24
3 26 24 27
3 26 27 28
3 26 28 29
3 26 29 30
3 26 30 25
3 31 24 25
3 31 32 24
3 32 27 24
3 32 33 27
3 33 28 27
3 33 34 28
3 34 29 28
3 34 35 29
3 35 30 29
3 35 36 30
3 36 25 30
3 36 31 25
3 31 38 37
3 31 37 32
3 32 37 39
3 32 39 33
3 33 39 40
3 33 40 34
3 34 40 41
3 34 41 35
3 35 41 42
3 35 42 36
3 36 42 38
3 36 38 31
3 45 44 43
3 46 45 43
3 47 46 43
3 48 47 43
3 49 48 43
3 44 49 43
3 44 45 38
3 45 37 38
3 45 46 37
3 46 39 37
3 46 47 39
3 47 40 39
3 47 48 40
3 48 41 40
3 48 49 41
3 49 42 41
3 49 44 42
3 44 38 42
3 52 51 50
3 52 50 53
3 52 53 54
3 52 54 55
3 52 55 56
3 52 56 51
3 57 50 51
3 57 53 50
3 57 54 53
3 57 55 54
3 57 56 55
3 57 51 56
3 50 51 52
3 53 50 52
3 54 53 52
3 55 54 52
3 56 55 52
3 51 56 52
3 59 58 51
3 50 59 51
3 60 59 50
3 53 60 50
3 61 60 53
3 54 61 53
3 62 61 54
3 55 62 54
3 63 62 55
3 56 63 55
3 58 63 56
3 51 58 56
3 64 58 59
3 64 59 60
3 64 60 61
3 64 61 62
3 64 62 63
3 64 63 58
3 64 66 65
3 65 67 64
3 69 68 64
3 64 67 69
3 71 70 64
3 64 67 71
3 64 73 72
3 72 67 64
3 76 75 74
3 77 76 74
3 78 77 74
3 79 78 74
3 75 76 80
3 76 81 80
3 76 77 81
3 77 82 81
3 77 78 82
3 78 83 82
3 78 79 83
3 80 85 84
3 80 81 85
3 81 86 85
3 81 82 86
3 82 87 86
3 82 83 87
3 83 88 87
3 84 85 89
3 85 90 89
3 85 86 90
3 86 91 90
3 86 87 91
3 87 92 91
3 87 88 92
3 89 90 93
3 90 94 93
3 90 91 94
3 91 95 94
3 91 92 95
3 92 96 95
3 89 93 97
3 93 94 98
3 94 95 98
3 95 96 98
3 97 93 98
3 101 100 99
3 101 99 102
3 101 102 103
3 101 103 100
3 104 99 100
3 104 105 99
3 105 102 99
3 105 106 102
3 106 103 102
3 106 107 103
3 107 100 103
3 107 104 100
3 108 105 104
3 108 106 105
3 108 107 106
3 108 104 107
3 111 110 109
3 112 110 111
3 110 112 113
3 111 115 114
3 112 111 114
3 114 113 112
3 115 117 116
3 114 115 116
3 116 117 110
3 109 110 117
3 111 117 115
3 109 117 111
3 120 119 118
3 118 119 121
3 122 121 119
3 124 123 118
3 124 118 121
3 121 122 124
3 126 125 123
3 126 123 124
3 119 125 126
3 125 119 120
3 123 125 118
3 118 125 120
3 129 128 127
3 127 128 130
3 130 128 131
3 131 128 132
3 132 128 133
3 133 128 129
3 134 129 127
3 134 127 135
3 135 127 130
3 135 130 136
3 136 130 131
3 136 131 137
3 137 131 132
3 137 132 138
3 138 132 133
3 138 133 139
3 139 133 129
3 139 129 134
3 134 141 140
3 134 135 141
3 135 142 141
3 135 136 142
3 136 143 142
3 136 137 143
3 137 144 143
3 137 138 144
3 138 145 144
3 138 139 145
3 139 140 145
3 139 134 140
3 141 146 140
3 142 146 141
3 143 146 142
3 144 146 143
3 145 146 144
3 140 146 145
3 149 148 147
3 148 150 147
3 150 151 147
3 151 152 147
3 152 149 147
3 153 148 149
3 153 154 148
3 154 150 148
3 154 155 150
3 155 151 150
3 155 156 151
3 156 152 151
3 156 157 152
3 157 149 152
3 157 153 149
3 158 154 153
3 158 159 154
3 159 155 154
3 159 160 155
3 160 156 155
3 160 161 156
3 161 157 156
3 161 162 157
3 162 153 157
3 162 158 153
3 165 164 163
3 164 166 163
3 166 167 163
3 167 168 163
3 168 165 163
3 169 164 165
3 169 170 164
3 170 166 164
3 170 171 166
3 171 167 166
3 171 172 167
3 172 168 167
3 172 173 168
3 173 165 168
3 173 169 165
3 174 170 169
3 174 175 170
3 175 171 170
3 175 176 171
3 176 172 171
3 176 177 172
3 177 173 172
3 177 178 173
3 178 169 173
3 178 174 169
3 177 174 178
3 176 174 177
3 176 175 174
3 159 158 160
3 161 158 162
3 160 158 161
3 180 179 138
3 183 182 181
3 181 184 183
3 181 185 184
3 181 180 185
3 180 186 185
3 180 138 186
3 185 186 187
3 184 185 187
3 184 187 188
3 188 183 184
3 189 183 188
3 181 182 190
3 190 191 181
3 191 192 181
3 192 180 181
3 192 193 180
3 193 138 180
3 187 193 192
3 187 192 191
3 188 187 191
3 191 190 188
3 188 190 189
3 189 182 183
3 190 182 189
3 195 182 194
3 194 182 196
3 194 196 197
3 199 198 197
3 198 194 197
3 198 200 194
3 200 198 201
3 194 200 195
3 202 182 195
3 196 182 202
3 203 196 202
3 203 198 199
3 203 202 198
3 202 204 198
3 201 198 204
3 195 204 202
3 196 203 197
3 203 199 197
3 195 200 204
3 200 201 204
3 207 206 205
3 207 205 208
3 207 208 209
3 207 209 206
3 210 205 206
3 210 211 205
3 211 208 205
3 211 212 208
3 212 209 208
3 212 213 209
3 213 206 209
3 213 210 206
3 214 211 210
3 214 212 211
3 214 213 212
3 214 210 213
3 217 216 215
3 217 218 216
3 218 219 216
3 218 220 219
3 220 221 219
3 220 222 221
3 222 223 221
3 222 224 223
3 224 225 223
3 224 226 225
3 226 215 225
3 226 217 215
3 229 228 227
3 229 227 230
3 229 230 231
3 229 231 232
3 229 232 233
3 229 233 228
3 234 227 228
3 234 230 227
3 234 231 230
3 234 232 231
3 234 233 232
3 234 228 233
3 227 228 229
3 230 227 229
3 231 230 229
3 232 231 229
3 233 232 229
3 228 233 229
3 236 235 228
3 227 236 228
3 237 236 227
3 230 237 227
3 238 237 230
3 231 238 230
3 239 238 231
3 232 239 231
3 240 239 232
3 233 240 232
3 235 240 233
3 228 235 233
3 241 235 236
3 241 236 237
3 241 237 238
3 241 238 239
3 241 239 240
3 241 240 235
3 243 242 241
3 241 244 243
3 241 246 245
3 245 244 241
3 241 248 247
3 247 244 241
3 250 249 241
3 241 244 250
3 253 252 251
3 253 251 254
3 253 254 255
3 253 255 256
3 253 256 257
3 253 257 252
3 258 251 252
3 258 259 251
3 259 254 251
3 259 260 254
3 260 255 254
3 260 261 255
3 261 256 255
3 261 262 256
3 262 257 256
3 262 263 257
3 263 252 257
3 263 258 252
3 258 265 264
3 258 264 259
3 259 264 266
3 259 266 260
3 260 266 267
3 260 267 261
3 261 267 268
3 261 268 262
3 262 268 269
3 262 269 263
3 263 269 265
3 263 265 258
3 272 271 270
3 273 272 270
3 274 273 270
3 275 274 270
3 276 275 270
3 271 276 270
3 271 272 265
3 272 264 265
3 272 273 264
3 273 266 264
3 273 274 266
3 274 267 266
3 274 275 267
3 275 268 267
3 275 276 268
3 276 269 268
3 276 271 269
3 271 265 269
3 279 278 277
3 279 277 280
3 279 280 281
3 279 281 282
3 279 282 283
3 279 283 278
3 284 277 278
3 284 280 277
3 284 281 280
3 284 282 281
3 284 283 282
3 284 278 283
3 277 278 279
3 280 277 279
3 281 280 279
3 282 281 279
3 283 282 279
3 278 283 279
3 286 285 278
3 277 286 278
3 287 286 277
3 280 287 277
3 288 287 280
3 281 288 280
3 289 288 281
3 282 289 281
3 290 289 282
3 283 290 282
3 285 290 283
3 278 285 283
3 291 285 286
3 291 286 287
3 291 287 288
3 291 288 289
3 291 289 290
3 291 290 285
3 291 293 292
3 292 294 291
3 296 295 291
3 291 294 296
3 298 297 291
3 291 294 298
3 291 300 299
3 299 294 291
3 303 302 301
3 303 301 304
3 303 304 305
3 305 306 303
3 306 307 303
3 303 307 302
