ply
format ascii 1.0
element vertex 209
property float x
property float y
property float z
element face 616
property list uchar int vertex_indices
end_header
0.3157710134983063 0.43563100695610046 0.3934589922428131
0.3157710134983063 0.43563100695610046 0.4422909915447235
0.2957949936389923 0.5 0.4689269959926605
0.3157710134983063 0.5577099919319153 0.4422909915447235
0.3157710134983063 0.5577099919319153 0.3934589922428131
0.2957940101623535 0.5 0.3668240010738373
0.1981309950351715 0.5 0.4023379981517792
0.1981309950351715 0.5199769735336304 0.4089969992637634
0.1981309950351715 0.5199769735336304 0.4267539978027344
0.1981309950351715 0.5 0.43341299891471863
0.1981309950351715 0.4800240099430084 0.4267539978027344
0.1981309950351715 0.4800240099430084 0.4089969992637634
0.11822400242090225 0.4800240099430084 0.4089969992637634
0.11822400242090225 0.4800240099430084 0.4267539978027344
0.11822400242090225 0.5 0.43341299891471863
0.11822400242090225 0.5199769735336304 0.4267539978027344
0.11822400242090225 0.5199769735336304 0.4089969992637634
0.11822400242090225 0.5 0.40233901143074036
0.06051269918680191 0.5 0.025002699345350266
0.060513999313116074 0.9750000238418579 0.22254900634288788
0.060515400022268295 0.9750000238418579 0.6132029891014099
0.06051560118794441 0.5 0.8107500076293945
0.06051440164446831 0.02500070072710514 0.6132029891014099
0.060513000935316086 0.02500070072710514 0.22254900634288788
0.060513101518154144 0.05607549846172333 0.2358669936656952
0.06051440164446831 0.05607549846172333 0.5998849868774414
0.060515500605106354 0.5 0.7841140031814575
0.06051529943943024 0.9439250230789185 0.5998849868774414
0.060513999313116074 0.9439250230789185 0.2358669936656952
0.06051279976963997 0.5 0.051638200879096985
0.060513898730278015 0.5 0.3446289896965027
0.06051409989595413 0.5887849926948547 0.3823620080947876
0.06051440164446831 0.5887849926948547 0.4533900022506714
0.06051449850201607 0.5 0.4911240041255951
0.06051420047879219 0.41121500730514526 0.4533900022506714
0.060513999313116074 0.41121500730514526 0.3823620080947876
0.02500000037252903 0.5 0.36460500955581665
0.025000199675559998 0.5643690228462219 0.39124101400375366
0.025000400841236115 0.5643690228462219 0.4445120096206665
0.025000400841236115 0.5 0.4689280092716217
0.025000199675559998 0.43563100695610046 0.4445120096206665
0.02500000037252903 0.43563100695610046 0.39124101400375366
0.044976599514484406 0.41121500730514526 0.3823620080947876
0.04497690126299858 0.41121500730514526 0.4533900022506714
0.0449770987033844 0.5 0.4911240041255951
0.04497700184583664 0.5887849926948547 0.4533900022506714
0.04497680068016052 0.5887849926948547 0.3823620080947876
0.04497649893164635 0.5 0.3446289896965027
0.04497550055384636 0.5 0.051638200879096985
0.044976599514484406 0.9439250230789185 0.2358669936656952
0.04497789964079857 0.9439250230789185 0.5998849868774414
0.044978201389312744 0.5 0.7841140031814575
0.04497700184583664 0.05607549846172333 0.5998849868774414
0.044975701719522476 0.05607549846172333 0.2358669936656952
0.04497560113668442 0.02500079944729805 0.22254900634288788
0.04497700184583664 0.02500079944729805 0.6132029891014099
0.044978298246860504 0.5 0.8107500076293945
0.04497800022363663 0.9750000238418579 0.6132029891014099
0.044976599514484406 0.9750000238418579 0.22254900634288788
0.0449753999710083 0.5 0.025002699345350266
0.7907689809799194 0.5 0.02500000037252903
0.7907699942588806 0.9749990105628967 0.2225469946861267
0.790772020816803 0.9749990105628967 0.6132000088691711
0.790772020816803 0.5 0.8107470273971558
0.7907710075378418 0.02500000037252903 0.6132000088691711
0.7907689809799194 0.02500000037252903 0.2225469946861267
0.7907699942588806 0.05607470124959946 0.23586399853229523
0.7907710075378418 0.05607470124959946 0.5998830199241638
0.790772020816803 0.5 0.7841119766235352
0.790772020816803 0.9439240097999573 0.5998830199241638
0.7907699942588806 0.9439240097999573 0.23586399853229523
0.7907689809799194 0.5 0.0516355000436306
0.7907699942588806 0.5 0.3446260094642639
0.7907710075378418 0.5887849926948547 0.3823600113391876
0.7907710075378418 0.5887849926948547 0.45338699221611023
0.7907710075378418 0.5 0.49112099409103394
0.7907710075378418 0.41121500730514526 0.45338699221611023
0.7907699942588806 0.41121500730514526 0.3823600113391876
0.8107470273971558 0.43563100695610046 0.3912380039691925
0.8107470273971558 0.43563100695610046 0.44450899958610535
0.8107470273971558 0.5 0.46892499923706055
0.8107470273971558 0.5643690228462219 0.44450899958610535
0.8107470273971558 0.5643690228462219 0.3912380039691925
0.8107470273971558 0.5 0.3646019995212555
0.7752329707145691 0.41121500730514526 0.3823600113391876
0.7752329707145691 0.41121500730514526 0.4533880054950714
0.7752339839935303 0.5 0.49112099409103394
0.7752329707145691 0.5887849926948547 0.4533880054950714
0.7752329707145691 0.5887849926948547 0.3823600113391876
0.7752329707145691 0.5 0.3446260094642639
0.7752320170402527 0.5 0.0516355000436306
0.7752329707145691 0.9439240097999573 0.23586399853229523
0.7752339839935303 0.9439240097999573 0.5998830199241638
0.7752349972724915 0.5 0.7841119766235352
0.7752329707145691 0.056074801832437515 0.5998830199241638
0.7752320170402527 0.056074801832437515 0.23586399853229523
0.7752320170402527 0.02500000037252903 0.2225469946861267
0.7752329707145691 0.02500000037252903 0.6132010221481323
0.7752349972724915 0.5 0.8107470273971558
0.7752339839935303 0.9749990105628967 0.6132010221481323
0.7752329707145691 0.9749990105628967 0.2225469946861267
0.7752320170402527 0.5 0.02500009909272194
0.7175229787826538 0.5 0.4023360013961792
0.7175229787826538 0.519976019859314 0.40899500250816345
0.7175229787826538 0.519976019859314 0.4267520010471344
0.7175229787826538 0.5 0.43341100215911865
0.7175229787826538 0.48002299666404724 0.4267520010471344
0.7175229787826538 0.48002299666404724 0.40899500250816345
0.637615978717804 0.48002299666404724 0.40899598598480225
0.6376169919967651 0.48002299666404724 0.4267530143260956
0.6376169919967651 0.5 0.43341100215911865
0.6376169919967651 0.519976019859314 0.4267530143260956
0.6376169919967651 0.519976019859314 0.40899598598480225
0.637615978717804 0.5 0.4023370146751404
0.5399529933929443 0.5 0.3668229877948761
0.519976019859314 0.5577099919319153 0.3934589922428131
0.5199769735336304 0.5577099919319153 0.4422900080680847
0.5399529933929443 0.5 0.46892601251602173
0.519976019859314 0.43563100695610046 0.4422900080680847
0.519976019859314 0.43563100695610046 0.3934589922428131
0.44451001286506653 0.49556100368499756 0.5577110052108765
0.42231300473213196 0.4911220073699951 0.5577110052108765
0.4023370146751404 0.49556100368499756 0.5577110052108765
0.4023370146751404 0.5088790059089661 0.5577110052108765
0.42231300473213196 0.5133180022239685 0.5577110052108765
0.44451001286506653 0.5088779926300049 0.5577110052108765
0.46004700660705566 0.5044389963150024 0.5399540066719055
0.4556080102920532 0.5221959948539734 0.5399540066719055
0.4422900080680847 0.5355139970779419 0.5399540066719055
0.42231300473213196 0.5421730279922485 0.5399540066719055
0.404556006193161 0.5355139970779419 0.5399540066719055
0.3912389874458313 0.5221959948539734 0.5399540066719055
0.38679900765419006 0.5044389963150024 0.5399540066719055
0.3912389874458313 0.4866819977760315 0.5399540066719055
0.404556006193161 0.47336500883102417 0.5399540066719055
0.42231300473213196 0.46892499923706055 0.5399540066719055
0.4422900080680847 0.473363995552063 0.5399540066719055
0.4556080102920532 0.4866819977760315 0.5399540066719055
0.475585013628006 0.473363995552063 0.5799070000648499
0.4533880054950714 0.4511680006980896 0.5799070000648499
0.42453300952911377 0.4422900080680847 0.5799070000648499
0.39567801356315613 0.4511680006980896 0.579908013343811
0.37348198890686035 0.47336500883102417 0.579908013343811
0.3646030128002167 0.5022199749946594 0.579908013343811
0.37348198890686035 0.5310750007629395 0.579908013343811
0.39567801356315613 0.5532709956169128 0.579908013343811
0.42453300952911377 0.5621489882469177 0.5799070000648499
0.4533880054950714 0.5532709956169128 0.5799070000648499
0.475585013628006 0.5310750007629395 0.5799070000648499
0.48446300625801086 0.5022199749946594 0.5799070000648499
0.42009299993515015 0.5022199749946594 0.2713800072669983
0.3446260094642639 0.5 0.2869170010089874
0.3668220043182373 0.5532709956169128 0.2869170010089874
0.42009299993515015 0.5754669904708862 0.2869170010089874
0.473363995552063 0.5532709956169128 0.2869170010089874
0.49333998560905457 0.5 0.2869170010089874
0.473363995552063 0.44894900918006897 0.2869170010089874
0.42009299993515015 0.4267520010471344 0.2869170010089874
0.3668220043182373 0.44894900918006897 0.2869170010089874
0.36238300800323486 0.4422900080680847 0.31577199697494507
0.42009299993515015 0.4178740084171295 0.31577199697494507
0.48002299666404724 0.4422900080680847 0.31577199697494507
0.5044389963150024 0.5 0.31577199697494507
0.48002299666404724 0.5599300265312195 0.31577199697494507
0.42009299993515015 0.5843459963798523 0.31577199697494507
0.36238300800323486 0.5599300265312195 0.31577199697494507
0.33796700835227966 0.5 0.31577199697494507
0.42231300473213196 0.6154199838638306 0.35128599405288696
0.3557240068912506 0.6154209971427917 0.40011799335479736
0.3801400065422058 0.6154209971427917 0.4800249934196472
0.4644860029220581 0.6154199838638306 0.4800240099430084
0.4889020025730133 0.6154199838638306 0.40011799335479736
0.3557240068912506 0.5710279941558838 0.3290899991989136
0.31355199217796326 0.5710279941558838 0.45782899856567383
0.42231300473213196 0.5710279941558838 0.5377349853515625
0.5310750007629395 0.5710279941558838 0.45782798528671265
0.4889009892940521 0.5710279941558838 0.3290899991989136
0.3801400065422058 0.5 0.2935760021209717
0.31355100870132446 0.5 0.3424080014228821
0.28691598773002625 0.5 0.42231500148773193
0.31355199217796326 0.5 0.5022209882736206
0.3801409900188446 0.5 0.551052987575531
0.4644860029220581 0.5 0.5510519742965698
0.5310750007629395 0.5 0.5022199749946594
0.5577099919319153 0.5 0.42231398820877075
0.5310739874839783 0.5 0.3424069881439209
0.4644849896430969 0.5 0.2935760021209717
0.31355100870132446 0.431192010641098 0.38680100440979004
0.3557249903678894 0.431192010641098 0.5155389904975891
0.4889020025730133 0.431192010641098 0.5155379772186279
0.5310739874839783 0.431192010641098 0.38679999113082886
0.4223119914531708 0.431192010641098 0.3068940043449402
0.3801400065422058 0.38679900765419006 0.36460399627685547
0.3557240068912506 0.38679900765419006 0.4445109963417053
0.42231300473213196 0.38679900765419006 0.49334201216697693
0.4889020025730133 0.38679900765419006 0.44451001286506653
0.4644860029220581 0.38679900765419006 0.36460399627685547
0.42231300473213196 0.6353970170021057 0.42231398820877075
0.42231300473213196 0.5621489882469177 0.30245399475097656
0.3068920075893402 0.5621500015258789 0.3845809996128082
0.35128501057624817 0.5621500015258789 0.5199779868125916
0.49334099888801575 0.5621489882469177 0.5199769735336304
0.5377330183982849 0.5621489882469177 0.38457998633384705
0.35128501057624817 0.4400700032711029 0.32465100288391113
0.306892991065979 0.4400700032711029 0.46004799008369446
0.42231300473213196 0.4400700032711029 0.544393002986908
0.5377330183982849 0.4400700032711029 0.46004700660705566
0.49334099888801575 0.4400700032711029 0.32464998960494995
0.4023360013961792 0.38457998633384705 0.43563199043273926
3 6 11 5
3 5 11 0
3 1 11 10
3 0 11 1
3 2 10 9
3 1 10 2
3 3 9 8
3 2 9 3
3 4 8 7
3 3 8 4
3 5 7 6
3 4 7 5
3 6 16 17
3 7 16 6
3 7 15 16
3 8 15 7
3 8 14 15
3 9 14 8
3 9 13 14
3 10 13 9
3 10 12 13
3 11 12 10
3 17 12 6
3 6 12 11
3 30 35 17
3 17 35 12
3 13 35 34
3 12 35 13
3 14 34 33
3 13 34 14
3 15 33 32
3 14 33 15
3 16 32 31
3 15 32 16
3 17 31 30
3 16 31 17
3 59 58 18
3 19 58 18
3 29 58 18
3 19 57 58
3 19 57 20
3 28 57 19
3 57 56 20
3 20 56 21
3 20 56 27
3 56 55 21
3 21 55 22
3 21 55 26
3 55 54 22
3 22 54 23
3 22 54 25
3 18 54 59
3 23 54 18
3 18 54 29
3 29 53 48
3 54 53 29
3 29 53 24
3 30 53 29
3 25 53 52
3 54 53 25
3 24 53 25
3 25 53 34
3 26 52 51
3 55 52 26
3 25 52 26
3 26 52 33
3 50 51 27
3 56 51 27
3 26 51 27
3 27 51 32
3 49 50 28
3 28 50 57
3 28 50 27
3 28 50 31
3 48 49 29
3 29 49 58
3 29 49 28
3 29 49 30
3 53 54 24
3 23 54 24
3 25 54 24
3 24 54 29
3 58 59 29
3 54 59 29
3 29 59 48
3 18 59 29
3 48 54 29
3 29 54 23
3 25 55 54
3 52 55 25
3 25 55 22
3 26 55 25
3 25 54 52
3 23 54 25
3 26 56 55
3 51 56 26
3 26 56 21
3 27 56 26
3 26 55 51
3 22 55 26
3 27 57 56
3 50 57 27
3 27 57 20
3 27 57 28
3 27 56 50
3 21 56 27
3 57 58 28
3 49 58 28
3 19 58 28
3 28 58 29
3 28 57 49
3 20 57 28
3 48 58 29
3 29 58 19
3 30 46 47
3 49 46 30
3 31 46 30
3 31 45 46
3 50 45 31
3 32 45 31
3 32 44 45
3 51 44 32
3 33 44 32
3 33 43 44
3 52 43 33
3 34 43 33
3 34 42 43
3 53 42 34
3 35 42 34
3 47 42 30
3 30 42 53
3 30 42 35
3 50 49 31
3 46 49 31
3 31 49 28
3 31 49 30
3 30 48 53
3 49 48 30
3 47 48 30
3 30 48 29
3 30 49 47
3 28 49 30
3 51 50 32
3 45 50 32
3 32 50 27
3 32 50 31
3 31 50 46
3 27 50 31
3 33 51 52
3 44 51 33
3 33 51 26
3 33 51 32
3 32 51 45
3 26 51 32
3 34 52 53
3 43 52 34
3 34 52 25
3 33 52 34
3 33 52 44
3 25 52 33
3 42 53 35
3 35 53 24
3 30 53 35
3 34 53 35
3 34 53 43
3 34 53 24
3 30 53 47
3 24 53 30
3 29 19 18
3 19 20 28
3 20 21 27
3 21 22 26
3 22 23 25
3 29 23 18
3 30 29 24
3 24 29 23
3 24 25 34
3 23 25 24
3 33 26 25
3 25 26 22
3 32 27 26
3 26 27 21
3 31 28 27
3 27 28 20
3 30 29 28
3 28 29 19
3 28 31 30
3 27 32 31
3 26 33 32
3 33 34 25
3 34 35 24
3 30 35 24
3 38 39 36
3 36 39 40
3 36 40 41
3 36 40 42
3 37 38 36
3 47 46 36
3 36 46 37
3 46 45 37
3 37 45 38
3 45 44 38
3 38 44 39
3 44 43 39
3 39 43 40
3 43 42 40
3 40 42 41
3 36 42 47
3 41 42 36
3 47 53 48
3 47 53 42
3 43 53 52
3 43 53 42
3 44 52 51
3 43 52 44
3 45 51 50
3 44 51 45
3 46 50 49
3 45 50 46
3 47 49 48
3 46 49 47
3 59 58 48
3 49 58 48
3 49 57 58
3 50 57 49
3 50 56 57
3 51 56 50
3 51 55 56
3 52 55 51
3 52 54 55
3 53 54 52
3 59 54 48
3 53 54 48
3 124 125 123
3 123 125 122
3 122 125 121
3 121 125 120
3 129 128 124
3 124 128 125
3 125 128 127
3 125 127 126
3 125 126 120
3 120 137 136
3 126 137 120
3 120 136 121
3 121 136 135
3 134 122 121
3 121 135 134
3 122 134 133
3 122 133 132
3 122 132 123
3 123 132 131
3 124 131 130
3 123 131 124
3 124 130 129
3 126 148 149
3 127 148 126
3 127 147 148
3 128 147 127
3 128 146 147
3 129 146 128
3 129 145 146
3 130 145 129
3 130 144 145
3 131 144 130
3 131 143 144
3 132 143 131
3 132 142 143
3 133 142 132
3 133 141 142
3 134 141 133
3 134 140 141
3 135 140 134
3 135 139 140
3 136 139 135
3 136 138 139
3 137 138 136
3 149 138 126
3 126 138 137
3 150 154 153
3 155 154 150
3 156 155 150
3 157 156 150
3 158 157 150
3 151 158 150
3 152 151 150
3 153 152 150
3 151 165 166
3 152 165 151
3 152 164 165
3 153 164 152
3 153 163 164
3 154 163 153
3 154 162 163
3 155 162 154
3 155 161 162
3 156 161 155
3 156 160 161
3 157 160 156
3 157 159 160
3 158 159 157
3 166 159 151
3 151 159 158
3 168 172 199
3 167 172 168
3 198 172 167
3 167 168 197
3 169 173 200
3 168 173 169
3 199 173 168
3 168 169 197
3 170 174 201
3 169 174 170
3 200 174 169
3 169 170 197
3 171 175 202
3 170 175 171
3 201 175 170
3 170 171 197
3 167 176 198
3 171 176 167
3 202 176 171
3 197 171 167
3 203 178 177
3 177 178 172
3 172 178 199
3 198 177 172
3 204 180 179
3 179 180 173
3 173 180 200
3 199 179 173
3 205 182 181
3 181 182 174
3 174 182 201
3 200 181 174
3 206 184 183
3 183 184 175
3 175 184 202
3 201 183 175
3 207 186 185
3 185 186 176
3 176 186 198
3 202 185 176
3 179 187 204
3 178 187 179
3 203 187 178
3 178 179 199
3 181 188 205
3 180 188 181
3 204 188 180
3 180 181 200
3 183 189 206
3 182 189 183
3 205 189 182
3 182 183 201
3 185 190 207
3 184 190 185
3 206 190 184
3 184 185 202
3 177 191 203
3 186 191 177
3 207 191 186
3 198 186 177
3 208 193 192
3 192 193 187
3 187 193 204
3 203 192 187
3 208 194 193
3 193 194 188
3 188 194 205
3 204 193 188
3 208 195 194
3 194 195 189
3 189 195 206
3 205 194 189
3 192 196 208
3 191 196 192
3 207 196 191
3 191 192 203
3 208 196 195
3 195 196 190
3 190 196 207
3 206 195 190
3 65 71 66
3 60 71 65
3 66 67 65
3 65 67 64
3 67 68 64
3 64 68 63
3 68 69 63
3 63 69 62
3 69 70 62
3 62 70 61
3 70 71 61
3 61 71 60
3 73 72 70
3 70 72 71
3 74 73 69
3 69 73 70
3 75 74 68
3 68 74 69
3 76 75 67
3 67 75 68
3 77 76 66
3 66 76 67
3 66 72 77
3 71 72 66
3 77 83 78
3 72 83 77
3 78 79 77
3 77 79 76
3 79 80 76
3 76 80 75
3 80 81 75
3 75 81 74
3 81 82 74
3 74 82 73
3 82 83 73
3 73 83 72
3 81 83 82
3 79 83 77
3 78 83 79
3 79 83 80
3 80 83 81
3 95 89 84
3 84 85 95
3 85 86 94
3 86 87 93
3 87 88 92
3 88 89 91
3 100 91 90
3 90 91 89
3 99 92 91
3 91 92 88
3 98 93 92
3 92 93 87
3 97 94 93
3 93 94 86
3 96 95 94
3 94 95 85
3 90 95 96
3 89 95 90
3 96 101 90
3 94 97 96
3 93 98 97
3 92 99 98
3 91 100 99
3 90 101 100
3 66 89 95
3 72 89 66
3 95 85 66
3 66 85 76
3 85 84 66
3 66 84 89
3 66 84 95
3 77 84 66
3 94 86 67
3 67 86 75
3 86 85 67
3 67 85 94
3 76 85 67
3 67 85 66
3 93 87 68
3 68 87 74
3 87 86 68
3 68 86 93
3 75 86 68
3 68 86 67
3 92 88 69
3 69 88 73
3 88 87 69
3 69 87 92
3 74 87 69
3 69 87 68
3 91 89 70
3 70 89 72
3 71 89 90
3 72 89 71
3 71 89 70
3 66 89 71
3 89 88 70
3 70 88 91
3 73 88 70
3 70 88 69
3 77 89 84
3 66 89 77
3 77 89 72
3 77 85 84
3 66 85 77
3 76 85 77
3 76 86 85
3 67 86 76
3 75 86 76
3 75 87 86
3 68 87 75
3 74 87 75
3 74 88 87
3 69 88 74
3 73 88 74
3 73 89 88
3 70 89 73
3 73 89 72
3 61 90 100
3 71 90 61
3 99 91 62
3 62 91 70
3 90 91 61
3 100 91 61
3 70 91 61
3 61 91 62
3 98 92 63
3 63 92 69
3 91 92 62
3 62 92 99
3 69 92 62
3 62 92 63
3 97 93 64
3 64 93 68
3 92 93 63
3 63 93 98
3 68 93 63
3 63 93 64
3 96 94 65
3 65 94 67
3 93 94 64
3 64 94 97
3 67 94 64
3 64 94 65
3 65 90 96
3 71 90 65
3 101 90 60
3 60 90 71
3 65 90 60
3 60 90 61
3 65 95 90
3 94 95 65
3 65 95 96
3 66 95 65
3 70 90 89
3 91 90 70
3 61 90 70
3 70 90 71
3 69 91 88
3 92 91 69
3 62 91 69
3 69 91 70
3 68 92 87
3 93 92 68
3 63 92 68
3 68 92 69
3 67 93 86
3 94 93 67
3 64 93 67
3 67 93 68
3 66 94 85
3 95 94 66
3 65 94 66
3 66 94 67
3 66 90 89
3 66 90 95
3 66 90 65
3 71 90 66
3 90 101 65
3 96 101 65
3 65 101 60
3 65 97 94
3 96 97 65
3 65 97 64
3 64 98 93
3 97 98 64
3 64 98 63
3 63 99 92
3 98 99 63
3 63 99 62
3 62 100 91
3 99 100 62
3 62 100 61
3 61 101 90
3 100 101 61
3 61 101 60
3 88 102 103
3 89 102 88
3 87 103 104
3 88 103 87
3 86 104 105
3 87 104 86
3 85 105 106
3 86 105 85
3 107 106 84
3 85 106 84
3 84 102 107
3 89 102 84
3 107 113 108
3 107 113 102
3 108 109 107
3 107 109 106
3 109 110 106
3 105 110 106
3 105 111 110
3 104 111 105
3 104 112 111
3 103 112 104
3 103 113 112
3 102 113 103
3 112 114 115
3 113 114 112
3 111 115 116
3 112 115 111
3 117 116 110
3 111 116 110
3 118 117 109
3 109 117 110
3 119 118 108
3 108 118 109
3 108 114 119
3 113 114 108
